<?xml version="1.0" encoding="utf-8" standalone="no"?>
<!DOCTYPE svg PUBLIC "-//W3C//DTD SVG 1.1//EN"
  "http://www.w3.org/Graphics/SVG/1.1/DTD/svg11.dtd">
<svg xmlns:xlink="http://www.w3.org/1999/xlink" width="406.25691pt" height="135.994375pt" viewBox="0 0 406.25691 135.994375" xmlns="http://www.w3.org/2000/svg" version="1.1">
 <metadata>
  <rdf:RDF xmlns:dc="http://purl.org/dc/elements/1.1/" xmlns:cc="http://creativecommons.org/ns#" xmlns:rdf="http://www.w3.org/1999/02/22-rdf-syntax-ns#">
   <cc:Work>
    <dc:type rdf:resource="http://purl.org/dc/dcmitype/StillImage"/>
    <dc:date>2023-08-19T15:40:40.303791</dc:date>
    <dc:format>image/svg+xml</dc:format>
    <dc:creator>
     <cc:Agent>
      <dc:title>Matplotlib v3.7.2, https://matplotlib.org/</dc:title>
     </cc:Agent>
    </dc:creator>
   </cc:Work>
  </rdf:RDF>
 </metadata>
 <defs>
  <style type="text/css">*{stroke-linejoin: round; stroke-linecap: butt}</style>
 </defs>
 <g id="figure_1">
  <g id="patch_1">
   <path d="M 0 135.994375
L 406.25691 135.994375
L 406.25691 0
L 0 0
z
" style="fill: #ffffff"/>
  </g>
  <g id="axes_1">
   <g id="patch_2">
    <path d="M 34.240625 98.438125
L 393.449294 98.438125
L 393.449294 22.318125
L 34.240625 22.318125
z
" style="fill: #ffffff"/>
   </g>
   <g id="matplotlib.axis_1">
    <g id="xtick_1">
     <g id="line2d_1">
      <defs>
       <path id="mc7a405481c" d="M 0 0
L 0 3.5
" style="stroke: #000000; stroke-width: 0.8"/>
      </defs>
      <g>
       <use xlink:href="#mc7a405481c" x="97.947682" y="98.438125" style="stroke: #000000; stroke-width: 0.8"/>
      </g>
     </g>
     <g id="text_1">
      <!-- −300 -->
      <g transform="translate(84.214088 113.036562) scale(0.1 -0.1)">
       <defs>
        <path id="DejaVuSans-2212" d="M 678 2272
L 4684 2272
L 4684 1741
L 678 1741
L 678 2272
z
" transform="scale(0.015625)"/>
        <path id="DejaVuSans-33" d="M 2597 2516
Q 3050 2419 3304 2112
Q 3559 1806 3559 1356
Q 3559 666 3084 287
Q 2609 -91 1734 -91
Q 1441 -91 1130 -33
Q 819 25 488 141
L 488 750
Q 750 597 1062 519
Q 1375 441 1716 441
Q 2309 441 2620 675
Q 2931 909 2931 1356
Q 2931 1769 2642 2001
Q 2353 2234 1838 2234
L 1294 2234
L 1294 2753
L 1863 2753
Q 2328 2753 2575 2939
Q 2822 3125 2822 3475
Q 2822 3834 2567 4026
Q 2313 4219 1838 4219
Q 1578 4219 1281 4162
Q 984 4106 628 3988
L 628 4550
Q 988 4650 1302 4700
Q 1616 4750 1894 4750
Q 2613 4750 3031 4423
Q 3450 4097 3450 3541
Q 3450 3153 3228 2886
Q 3006 2619 2597 2516
z
" transform="scale(0.015625)"/>
        <path id="DejaVuSans-30" d="M 2034 4250
Q 1547 4250 1301 3770
Q 1056 3291 1056 2328
Q 1056 1369 1301 889
Q 1547 409 2034 409
Q 2525 409 2770 889
Q 3016 1369 3016 2328
Q 3016 3291 2770 3770
Q 2525 4250 2034 4250
z
M 2034 4750
Q 2819 4750 3233 4129
Q 3647 3509 3647 2328
Q 3647 1150 3233 529
Q 2819 -91 2034 -91
Q 1250 -91 836 529
Q 422 1150 422 2328
Q 422 3509 836 4129
Q 1250 4750 2034 4750
z
" transform="scale(0.015625)"/>
       </defs>
       <use xlink:href="#DejaVuSans-2212"/>
       <use xlink:href="#DejaVuSans-33" x="83.789062"/>
       <use xlink:href="#DejaVuSans-30" x="147.412109"/>
       <use xlink:href="#DejaVuSans-30" x="211.035156"/>
      </g>
     </g>
    </g>
    <g id="xtick_2">
     <g id="line2d_2">
      <g>
       <use xlink:href="#mc7a405481c" x="170.839051" y="98.438125" style="stroke: #000000; stroke-width: 0.8"/>
      </g>
     </g>
     <g id="text_2">
      <!-- −200 -->
      <g transform="translate(157.105458 113.036562) scale(0.1 -0.1)">
       <defs>
        <path id="DejaVuSans-32" d="M 1228 531
L 3431 531
L 3431 0
L 469 0
L 469 531
Q 828 903 1448 1529
Q 2069 2156 2228 2338
Q 2531 2678 2651 2914
Q 2772 3150 2772 3378
Q 2772 3750 2511 3984
Q 2250 4219 1831 4219
Q 1534 4219 1204 4116
Q 875 4013 500 3803
L 500 4441
Q 881 4594 1212 4672
Q 1544 4750 1819 4750
Q 2544 4750 2975 4387
Q 3406 4025 3406 3419
Q 3406 3131 3298 2873
Q 3191 2616 2906 2266
Q 2828 2175 2409 1742
Q 1991 1309 1228 531
z
" transform="scale(0.015625)"/>
       </defs>
       <use xlink:href="#DejaVuSans-2212"/>
       <use xlink:href="#DejaVuSans-32" x="83.789062"/>
       <use xlink:href="#DejaVuSans-30" x="147.412109"/>
       <use xlink:href="#DejaVuSans-30" x="211.035156"/>
      </g>
     </g>
    </g>
    <g id="xtick_3">
     <g id="line2d_3">
      <g>
       <use xlink:href="#mc7a405481c" x="243.730421" y="98.438125" style="stroke: #000000; stroke-width: 0.8"/>
      </g>
     </g>
     <g id="text_3">
      <!-- −100 -->
      <g transform="translate(229.996827 113.036562) scale(0.1 -0.1)">
       <defs>
        <path id="DejaVuSans-31" d="M 794 531
L 1825 531
L 1825 4091
L 703 3866
L 703 4441
L 1819 4666
L 2450 4666
L 2450 531
L 3481 531
L 3481 0
L 794 0
L 794 531
z
" transform="scale(0.015625)"/>
       </defs>
       <use xlink:href="#DejaVuSans-2212"/>
       <use xlink:href="#DejaVuSans-31" x="83.789062"/>
       <use xlink:href="#DejaVuSans-30" x="147.412109"/>
       <use xlink:href="#DejaVuSans-30" x="211.035156"/>
      </g>
     </g>
    </g>
    <g id="xtick_4">
     <g id="line2d_4">
      <g>
       <use xlink:href="#mc7a405481c" x="316.62179" y="98.438125" style="stroke: #000000; stroke-width: 0.8"/>
      </g>
     </g>
     <g id="text_4">
      <!-- 0 -->
      <g transform="translate(313.44054 113.036562) scale(0.1 -0.1)">
       <use xlink:href="#DejaVuSans-30"/>
      </g>
     </g>
    </g>
    <g id="xtick_5">
     <g id="line2d_5">
      <g>
       <use xlink:href="#mc7a405481c" x="389.51316" y="98.438125" style="stroke: #000000; stroke-width: 0.8"/>
      </g>
     </g>
     <g id="text_5">
      <!-- 100 -->
      <g transform="translate(379.96941 113.036562) scale(0.1 -0.1)">
       <use xlink:href="#DejaVuSans-31"/>
       <use xlink:href="#DejaVuSans-30" x="63.623047"/>
       <use xlink:href="#DejaVuSans-30" x="127.246094"/>
      </g>
     </g>
    </g>
    <g id="text_6">
     <!-- Days since protest -->
     <g transform="translate(167.422303 126.714687) scale(0.1 -0.1)">
      <defs>
       <path id="DejaVuSans-44" d="M 1259 4147
L 1259 519
L 2022 519
Q 2988 519 3436 956
Q 3884 1394 3884 2338
Q 3884 3275 3436 3711
Q 2988 4147 2022 4147
L 1259 4147
z
M 628 4666
L 1925 4666
Q 3281 4666 3915 4102
Q 4550 3538 4550 2338
Q 4550 1131 3912 565
Q 3275 0 1925 0
L 628 0
L 628 4666
z
" transform="scale(0.015625)"/>
       <path id="DejaVuSans-61" d="M 2194 1759
Q 1497 1759 1228 1600
Q 959 1441 959 1056
Q 959 750 1161 570
Q 1363 391 1709 391
Q 2188 391 2477 730
Q 2766 1069 2766 1631
L 2766 1759
L 2194 1759
z
M 3341 1997
L 3341 0
L 2766 0
L 2766 531
Q 2569 213 2275 61
Q 1981 -91 1556 -91
Q 1019 -91 701 211
Q 384 513 384 1019
Q 384 1609 779 1909
Q 1175 2209 1959 2209
L 2766 2209
L 2766 2266
Q 2766 2663 2505 2880
Q 2244 3097 1772 3097
Q 1472 3097 1187 3025
Q 903 2953 641 2809
L 641 3341
Q 956 3463 1253 3523
Q 1550 3584 1831 3584
Q 2591 3584 2966 3190
Q 3341 2797 3341 1997
z
" transform="scale(0.015625)"/>
       <path id="DejaVuSans-79" d="M 2059 -325
Q 1816 -950 1584 -1140
Q 1353 -1331 966 -1331
L 506 -1331
L 506 -850
L 844 -850
Q 1081 -850 1212 -737
Q 1344 -625 1503 -206
L 1606 56
L 191 3500
L 800 3500
L 1894 763
L 2988 3500
L 3597 3500
L 2059 -325
z
" transform="scale(0.015625)"/>
       <path id="DejaVuSans-73" d="M 2834 3397
L 2834 2853
Q 2591 2978 2328 3040
Q 2066 3103 1784 3103
Q 1356 3103 1142 2972
Q 928 2841 928 2578
Q 928 2378 1081 2264
Q 1234 2150 1697 2047
L 1894 2003
Q 2506 1872 2764 1633
Q 3022 1394 3022 966
Q 3022 478 2636 193
Q 2250 -91 1575 -91
Q 1294 -91 989 -36
Q 684 19 347 128
L 347 722
Q 666 556 975 473
Q 1284 391 1588 391
Q 1994 391 2212 530
Q 2431 669 2431 922
Q 2431 1156 2273 1281
Q 2116 1406 1581 1522
L 1381 1569
Q 847 1681 609 1914
Q 372 2147 372 2553
Q 372 3047 722 3315
Q 1072 3584 1716 3584
Q 2034 3584 2315 3537
Q 2597 3491 2834 3397
z
" transform="scale(0.015625)"/>
       <path id="DejaVuSans-20" transform="scale(0.015625)"/>
       <path id="DejaVuSans-69" d="M 603 3500
L 1178 3500
L 1178 0
L 603 0
L 603 3500
z
M 603 4863
L 1178 4863
L 1178 4134
L 603 4134
L 603 4863
z
" transform="scale(0.015625)"/>
       <path id="DejaVuSans-6e" d="M 3513 2113
L 3513 0
L 2938 0
L 2938 2094
Q 2938 2591 2744 2837
Q 2550 3084 2163 3084
Q 1697 3084 1428 2787
Q 1159 2491 1159 1978
L 1159 0
L 581 0
L 581 3500
L 1159 3500
L 1159 2956
Q 1366 3272 1645 3428
Q 1925 3584 2291 3584
Q 2894 3584 3203 3211
Q 3513 2838 3513 2113
z
" transform="scale(0.015625)"/>
       <path id="DejaVuSans-63" d="M 3122 3366
L 3122 2828
Q 2878 2963 2633 3030
Q 2388 3097 2138 3097
Q 1578 3097 1268 2742
Q 959 2388 959 1747
Q 959 1106 1268 751
Q 1578 397 2138 397
Q 2388 397 2633 464
Q 2878 531 3122 666
L 3122 134
Q 2881 22 2623 -34
Q 2366 -91 2075 -91
Q 1284 -91 818 406
Q 353 903 353 1747
Q 353 2603 823 3093
Q 1294 3584 2113 3584
Q 2378 3584 2631 3529
Q 2884 3475 3122 3366
z
" transform="scale(0.015625)"/>
       <path id="DejaVuSans-65" d="M 3597 1894
L 3597 1613
L 953 1613
Q 991 1019 1311 708
Q 1631 397 2203 397
Q 2534 397 2845 478
Q 3156 559 3463 722
L 3463 178
Q 3153 47 2828 -22
Q 2503 -91 2169 -91
Q 1331 -91 842 396
Q 353 884 353 1716
Q 353 2575 817 3079
Q 1281 3584 2069 3584
Q 2775 3584 3186 3129
Q 3597 2675 3597 1894
z
M 3022 2063
Q 3016 2534 2758 2815
Q 2500 3097 2075 3097
Q 1594 3097 1305 2825
Q 1016 2553 972 2059
L 3022 2063
z
" transform="scale(0.015625)"/>
       <path id="DejaVuSans-70" d="M 1159 525
L 1159 -1331
L 581 -1331
L 581 3500
L 1159 3500
L 1159 2969
Q 1341 3281 1617 3432
Q 1894 3584 2278 3584
Q 2916 3584 3314 3078
Q 3713 2572 3713 1747
Q 3713 922 3314 415
Q 2916 -91 2278 -91
Q 1894 -91 1617 61
Q 1341 213 1159 525
z
M 3116 1747
Q 3116 2381 2855 2742
Q 2594 3103 2138 3103
Q 1681 3103 1420 2742
Q 1159 2381 1159 1747
Q 1159 1113 1420 752
Q 1681 391 2138 391
Q 2594 391 2855 752
Q 3116 1113 3116 1747
z
" transform="scale(0.015625)"/>
       <path id="DejaVuSans-72" d="M 2631 2963
Q 2534 3019 2420 3045
Q 2306 3072 2169 3072
Q 1681 3072 1420 2755
Q 1159 2438 1159 1844
L 1159 0
L 581 0
L 581 3500
L 1159 3500
L 1159 2956
Q 1341 3275 1631 3429
Q 1922 3584 2338 3584
Q 2397 3584 2469 3576
Q 2541 3569 2628 3553
L 2631 2963
z
" transform="scale(0.015625)"/>
       <path id="DejaVuSans-6f" d="M 1959 3097
Q 1497 3097 1228 2736
Q 959 2375 959 1747
Q 959 1119 1226 758
Q 1494 397 1959 397
Q 2419 397 2687 759
Q 2956 1122 2956 1747
Q 2956 2369 2687 2733
Q 2419 3097 1959 3097
z
M 1959 3584
Q 2709 3584 3137 3096
Q 3566 2609 3566 1747
Q 3566 888 3137 398
Q 2709 -91 1959 -91
Q 1206 -91 779 398
Q 353 888 353 1747
Q 353 2609 779 3096
Q 1206 3584 1959 3584
z
" transform="scale(0.015625)"/>
       <path id="DejaVuSans-74" d="M 1172 4494
L 1172 3500
L 2356 3500
L 2356 3053
L 1172 3053
L 1172 1153
Q 1172 725 1289 603
Q 1406 481 1766 481
L 2356 481
L 2356 0
L 1766 0
Q 1100 0 847 248
Q 594 497 594 1153
L 594 3053
L 172 3053
L 172 3500
L 594 3500
L 594 4494
L 1172 4494
z
" transform="scale(0.015625)"/>
      </defs>
      <use xlink:href="#DejaVuSans-44"/>
      <use xlink:href="#DejaVuSans-61" x="77.001953"/>
      <use xlink:href="#DejaVuSans-79" x="138.28125"/>
      <use xlink:href="#DejaVuSans-73" x="197.460938"/>
      <use xlink:href="#DejaVuSans-20" x="249.560547"/>
      <use xlink:href="#DejaVuSans-73" x="281.347656"/>
      <use xlink:href="#DejaVuSans-69" x="333.447266"/>
      <use xlink:href="#DejaVuSans-6e" x="361.230469"/>
      <use xlink:href="#DejaVuSans-63" x="424.609375"/>
      <use xlink:href="#DejaVuSans-65" x="479.589844"/>
      <use xlink:href="#DejaVuSans-20" x="541.113281"/>
      <use xlink:href="#DejaVuSans-70" x="572.900391"/>
      <use xlink:href="#DejaVuSans-72" x="636.376953"/>
      <use xlink:href="#DejaVuSans-6f" x="675.240234"/>
      <use xlink:href="#DejaVuSans-74" x="736.421875"/>
      <use xlink:href="#DejaVuSans-65" x="775.630859"/>
      <use xlink:href="#DejaVuSans-73" x="837.154297"/>
      <use xlink:href="#DejaVuSans-74" x="889.253906"/>
     </g>
    </g>
   </g>
   <g id="matplotlib.axis_2">
    <g id="ytick_1">
     <g id="line2d_6">
      <defs>
       <path id="m9a2de2a662" d="M 0 0
L -3.5 0
" style="stroke: #000000; stroke-width: 0.8"/>
      </defs>
      <g>
       <use xlink:href="#m9a2de2a662" x="34.240625" y="70.772214" style="stroke: #000000; stroke-width: 0.8"/>
      </g>
     </g>
     <g id="text_7">
      <!-- 0 -->
      <g transform="translate(20.878125 74.571433) scale(0.1 -0.1)">
       <use xlink:href="#DejaVuSans-30"/>
      </g>
     </g>
    </g>
    <g id="ytick_2">
     <g id="line2d_7">
      <g>
       <use xlink:href="#m9a2de2a662" x="34.240625" y="34.825827" style="stroke: #000000; stroke-width: 0.8"/>
      </g>
     </g>
     <g id="text_8">
      <!-- 5 -->
      <g transform="translate(20.878125 38.625046) scale(0.1 -0.1)">
       <defs>
        <path id="DejaVuSans-35" d="M 691 4666
L 3169 4666
L 3169 4134
L 1269 4134
L 1269 2991
Q 1406 3038 1543 3061
Q 1681 3084 1819 3084
Q 2600 3084 3056 2656
Q 3513 2228 3513 1497
Q 3513 744 3044 326
Q 2575 -91 1722 -91
Q 1428 -91 1123 -41
Q 819 9 494 109
L 494 744
Q 775 591 1075 516
Q 1375 441 1709 441
Q 2250 441 2565 725
Q 2881 1009 2881 1497
Q 2881 1984 2565 2268
Q 2250 2553 1709 2553
Q 1456 2553 1204 2497
Q 953 2441 691 2322
L 691 4666
z
" transform="scale(0.015625)"/>
       </defs>
       <use xlink:href="#DejaVuSans-35"/>
      </g>
     </g>
    </g>
    <g id="text_9">
     <!-- #articles -->
     <g transform="translate(14.798437 82.85625) rotate(-90) scale(0.1 -0.1)">
      <defs>
       <path id="DejaVuSans-23" d="M 3272 2816
L 2363 2816
L 2100 1772
L 3016 1772
L 3272 2816
z
M 2803 4594
L 2478 3297
L 3391 3297
L 3719 4594
L 4219 4594
L 3897 3297
L 4872 3297
L 4872 2816
L 3775 2816
L 3519 1772
L 4513 1772
L 4513 1294
L 3397 1294
L 3072 0
L 2572 0
L 2894 1294
L 1978 1294
L 1656 0
L 1153 0
L 1478 1294
L 494 1294
L 494 1772
L 1594 1772
L 1856 2816
L 850 2816
L 850 3297
L 1978 3297
L 2297 4594
L 2803 4594
z
" transform="scale(0.015625)"/>
       <path id="DejaVuSans-6c" d="M 603 4863
L 1178 4863
L 1178 0
L 603 0
L 603 4863
z
" transform="scale(0.015625)"/>
      </defs>
      <use xlink:href="#DejaVuSans-23"/>
      <use xlink:href="#DejaVuSans-61" x="83.789062"/>
      <use xlink:href="#DejaVuSans-72" x="145.068359"/>
      <use xlink:href="#DejaVuSans-74" x="186.181641"/>
      <use xlink:href="#DejaVuSans-69" x="225.390625"/>
      <use xlink:href="#DejaVuSans-63" x="253.173828"/>
      <use xlink:href="#DejaVuSans-6c" x="308.154297"/>
      <use xlink:href="#DejaVuSans-65" x="335.9375"/>
      <use xlink:href="#DejaVuSans-73" x="397.460938"/>
     </g>
    </g>
   </g>
   <g id="line2d_8">
    <path d="M 50.568292 83.4399
L 51.297205 82.551683
L 52.026119 81.036922
L 52.755033 80.745764
L 53.483947 81.32808
L 54.21286 80.642568
L 54.941774 81.379678
L 55.670688 83.118029
L 56.399601 83.808455
L 57.128515 85.751968
L 57.857429 86.595958
L 58.586342 87.892043
L 59.315256 88.562813
L 60.04417 88.654952
L 62.230911 90.340476
L 62.959825 91.823295
L 63.688738 92.565319
L 64.417652 93.546904
L 65.146566 94.006369
L 65.875479 93.398253
L 66.604393 92.491608
L 67.333307 92.417897
L 68.06222 91.37243
L 68.791134 89.244639
L 69.520048 88.49893
L 70.248962 89.224983
L 71.706789 91.546879
L 73.164616 92.782766
L 73.89353 92.942473
L 74.622444 92.930188
L 75.351357 91.618133
L 76.080271 90.79257
L 76.809185 91.378572
L 77.538098 91.070215
L 78.267012 90.54441
L 78.995926 91.588649
L 79.72484 92.084969
L 80.453753 91.731156
L 81.182667 91.567764
L 81.911581 89.841698
L 82.640494 89.458401
L 83.369408 90.584951
L 84.827235 91.070215
L 85.556149 92.087426
L 86.285063 92.331901
L 87.013977 92.831907
L 87.74289 93.051811
L 88.471804 90.909279
L 89.200718 89.722532
L 89.929631 89.312208
L 91.387459 88.860114
L 92.116372 89.729903
L 92.845286 89.914181
L 93.5742 91.604619
L 94.303113 93.884745
L 95.032027 94.978125
L 95.760941 94.898271
L 97.218768 92.733626
L 97.947682 92.904389
L 98.676596 93.463364
L 99.405509 91.906834
L 100.134423 92.175879
L 100.863337 92.79628
L 101.59225 93.007585
L 102.321164 93.921601
L 103.050078 93.674669
L 103.778991 93.172206
L 104.507905 92.494065
L 105.236819 90.22131
L 105.965733 88.997708
L 106.694646 89.389604
L 107.42356 88.927682
L 108.152474 87.727422
L 110.339215 85.024686
L 111.068128 84.355145
L 111.797042 83.173312
L 112.525956 81.543071
L 113.25487 81.24577
L 113.983783 79.986541
L 114.712697 78.309616
L 115.441611 78.605688
L 116.170524 77.507395
L 116.899438 76.034404
L 117.628352 76.388216
L 119.086179 73.743221
L 119.815093 72.959427
L 120.544006 71.534348
L 121.27292 71.878333
L 122.001834 73.039281
L 122.730748 73.245672
L 123.459661 73.670738
L 124.188575 73.224787
L 124.917489 73.233386
L 125.646402 73.757963
L 126.375316 72.722324
L 127.833143 69.085915
L 128.562057 67.975337
L 130.019885 66.49006
L 131.477712 62.20991
L 132.206626 60.639866
L 133.664453 59.42732
L 134.393367 60.577211
L 135.12228 61.100559
L 136.580108 62.983875
L 137.309021 64.820507
L 138.766849 66.5564
L 139.495763 66.988838
L 140.224676 68.737017
L 140.95359 70.023273
L 141.682504 72.32797
L 142.411417 73.991381
L 143.869245 78.265389
L 144.598158 78.931245
L 145.327072 79.110608
L 146.055986 79.791206
L 146.784899 78.028286
L 147.513813 76.966847
L 148.242727 75.465601
L 148.971641 73.409064
L 150.429468 70.229664
L 151.887295 67.981479
L 153.345123 65.383167
L 154.074036 64.611659
L 155.531864 63.637446
L 156.260778 62.992474
L 156.989691 63.486338
L 157.718605 63.792239
L 158.447519 64.305758
L 159.176432 63.701328
L 159.905346 63.320488
L 161.363173 61.558796
L 162.092087 61.359776
L 162.821001 60.848714
L 163.549914 60.971565
L 164.278828 61.7873
L 165.007742 61.965435
L 165.736656 62.402787
L 166.465569 63.407713
L 168.65231 67.35985
L 169.381224 67.448303
L 170.110138 68.486399
L 170.839051 69.117857
L 172.296879 68.905323
L 173.754706 67.006037
L 174.48362 69.227195
L 175.941447 71.825507
L 176.670361 72.034354
L 177.399275 72.391853
L 178.128188 74.909083
L 178.857102 75.53194
L 179.586016 75.025792
L 180.314929 74.08352
L 181.043843 72.57613
L 181.772757 72.515933
L 182.501671 71.706341
L 183.230584 70.409027
L 183.959498 70.227207
L 185.417325 67.576069
L 186.146239 68.30335
L 186.875153 69.381988
L 187.604066 69.784941
L 188.33298 69.315648
L 189.061894 68.998691
L 189.790807 69.23948
L 190.519721 70.050301
L 191.248635 71.609288
L 192.706462 69.189111
L 194.16429 66.152218
L 194.893203 65.944599
L 195.622117 66.706279
L 196.351031 64.845077
L 197.079944 65.2984
L 197.808858 67.768946
L 199.266686 71.525749
L 199.995599 72.001185
L 200.724513 70.842694
L 202.18234 70.304604
L 202.911254 68.836527
L 203.640168 67.87337
L 205.097995 66.810703
L 205.826909 66.698908
L 206.555822 66.899156
L 207.284736 66.256642
L 208.01365 64.967929
L 208.742564 64.002315
L 209.471477 63.246777
L 210.200391 63.928604
L 210.929305 64.797165
L 211.658218 64.263989
L 212.387132 64.481436
L 213.116046 64.245561
L 214.573873 64.127624
L 215.302787 62.646033
L 216.031701 62.214824
L 217.489528 62.980189
L 218.218442 63.810666
L 218.947355 65.05761
L 219.676269 64.514606
L 220.405183 65.434765
L 221.134096 64.137452
L 221.86301 63.553906
L 222.591924 62.757828
L 223.320837 62.354875
L 224.049751 61.361005
L 224.778665 61.901552
L 225.507579 61.139872
L 226.236492 61.896638
L 226.965406 61.905238
L 227.69432 61.647249
L 228.423233 60.883112
L 229.881061 60.458045
L 230.609974 60.563698
L 231.338888 59.838873
L 232.067802 60.815544
L 232.796715 61.337663
L 233.525629 62.055117
L 234.254543 62.185339
L 235.71237 61.154614
L 236.441284 61.805728
L 237.170198 61.55511
L 237.899111 61.751673
L 240.085852 65.426165
L 240.814766 67.760346
L 241.54368 68.73456
L 242.272594 67.560098
L 243.001507 66.811932
L 243.730421 65.884402
L 244.459335 65.348769
L 245.188248 65.834033
L 245.917162 65.373339
L 246.646076 65.465478
L 247.374989 66.265242
L 248.103903 65.829119
L 248.832817 64.762766
L 249.56173 64.320501
L 250.290644 63.236949
L 251.019558 63.101812
L 251.748472 62.550209
L 252.477385 63.35243
L 253.206299 64.459323
L 253.935213 66.008482
L 254.664126 65.206261
L 255.39304 65.622728
L 256.121954 65.674326
L 256.850867 66.062537
L 257.579781 65.682925
L 258.308695 66.101849
L 259.037608 65.154663
L 259.766522 65.964255
L 261.22435 66.347553
L 261.953263 66.380722
L 262.682177 67.400391
L 263.411091 66.174332
L 264.140004 65.593244
L 264.868918 66.050252
L 265.597832 64.840163
L 267.055659 63.0625
L 267.784573 61.49737
L 268.513487 60.993678
L 269.2424 60.907682
L 269.971314 58.51699
L 270.700228 57.012057
L 271.429141 56.267576
L 272.158055 56.835151
L 272.886969 56.797067
L 273.615882 57.756538
L 274.344796 57.255303
L 275.07371 57.72214
L 275.802623 59.010853
L 276.531537 59.897842
L 277.989365 61.12513
L 279.447192 63.250463
L 280.176106 63.800838
L 280.905019 63.775039
L 282.362847 64.228362
L 283.09176 64.316815
L 283.820674 63.461768
L 284.549588 63.540393
L 286.007415 65.401595
L 287.465243 66.227158
L 288.194156 65.741894
L 288.92307 65.980226
L 289.651984 65.003556
L 290.380897 64.518292
L 291.838725 61.379433
L 292.567638 59.701279
L 293.296552 59.072279
L 294.025466 57.9703
L 294.75438 58.432222
L 295.483293 57.277417
L 296.212207 57.590688
L 296.941121 57.236876
L 297.670034 57.316729
L 299.127862 60.168116
L 299.856775 60.508415
L 300.585689 59.8745
L 301.314603 59.029281
L 302.77243 56.841293
L 304.230258 53.695063
L 304.959171 53.251569
L 305.688085 54.578366
L 306.416999 54.654534
L 307.145912 55.123828
L 307.874826 56.021873
L 308.60374 54.919894
L 309.332653 53.123803
L 310.061567 51.704867
L 310.790481 48.722029
L 311.519395 46.828885
L 312.248308 45.70725
L 312.977222 44.158091
L 314.435049 41.91482
L 315.163963 39.876712
L 315.892877 39.933223
L 316.62179 39.1912
L 318.079618 36.282021
L 318.808531 34.226712
L 319.537445 33.913065
L 320.266359 33.344811
L 320.995273 34.144302
L 321.724186 34.683037
L 322.4531 34.984384
L 323.182014 34.675657
L 323.910927 35.097504
L 324.639841 34.358366
L 325.368755 34.087577
L 326.097668 32.884517
L 326.826582 32.172196
L 329.013323 31.890711
L 330.471151 31.486191
L 331.200064 32.121466
L 331.928978 32.461305
L 332.657892 32.065448
L 333.386805 31.058935
L 334.844633 31.537753
L 335.573546 32.170511
L 336.30246 30.242184
L 337.031374 28.908052
L 337.760288 28.577355
L 338.489201 27.846075
L 339.218115 27.365169
L 339.947029 27.911304
L 340.675942 27.895956
L 341.404856 30.170095
L 342.13377 32.042329
L 342.862683 31.998789
L 343.591597 33.692138
L 344.320511 33.193826
L 345.049424 33.048027
L 345.778338 33.726839
L 346.507252 32.557182
L 347.236166 32.295895
L 348.693993 33.661832
L 349.422907 35.305872
L 350.15182 35.036823
L 350.880734 34.320224
L 351.609648 35.262112
L 352.338561 35.403357
L 353.067475 36.262925
L 353.796389 36.263722
L 354.525303 35.356251
L 355.254216 36.658194
L 355.98313 37.404534
L 356.712044 37.793661
L 358.169871 38.272097
L 358.898785 37.64435
L 359.627698 37.680614
L 360.356612 38.005822
L 361.085526 37.910283
L 361.814439 37.330294
L 362.543353 37.773304
L 363.272267 37.518366
L 364.001181 37.477705
L 364.730094 37.21827
L 365.459008 35.442389
L 366.187922 34.791133
L 366.916835 33.932626
L 367.645749 34.483162
L 368.374663 33.933258
L 369.103576 34.116725
L 369.83249 34.594248
L 370.561404 34.113406
L 371.290318 32.287256
L 372.019231 31.084487
L 372.748145 29.632231
L 374.205972 27.593499
L 374.934886 27.04184
L 375.6638 25.778125
L 376.392713 28.612742
L 377.121627 29.836613
L 377.121627 29.836613
" clip-path="url(#p7b3529b085)" style="fill: none; stroke: #1f77b4; stroke-width: 1.5; stroke-linecap: square"/>
   </g>
   <g id="line2d_9">
    <path d="M 50.568292 79.249039
L 51.297205 78.978986
L 52.026119 78.908356
L 52.755033 78.255697
L 54.21286 80.869101
L 54.941774 83.613809
L 56.399601 85.368697
L 57.128515 86.739531
L 57.857429 87.459244
L 58.586342 89.094172
L 59.315256 90.029439
L 60.04417 90.147389
L 60.773083 91.189341
L 61.501997 91.537213
L 62.230911 92.042257
L 62.959825 93.484391
L 63.688738 93.076024
L 64.417652 92.856942
L 65.146566 93.444166
L 65.875479 93.101608
L 66.604393 92.465311
L 67.333307 92.380824
L 68.06222 91.778418
L 70.248962 91.190922
L 70.977875 91.1303
L 71.706789 91.999426
L 72.435703 91.416111
L 73.164616 91.308708
L 73.89353 89.336334
L 74.622444 88.427846
L 75.351357 87.027587
L 76.080271 86.752836
L 76.809185 86.256231
L 78.267012 88.502553
L 78.995926 92.288092
L 80.453753 93.419583
L 81.182667 92.8973
L 81.911581 93.212021
L 82.640494 92.914233
L 83.369408 92.49197
L 84.827235 91.446554
L 85.556149 91.104943
L 86.285063 91.704947
L 87.74289 90.269351
L 89.200718 87.946624
L 89.929631 88.502991
L 91.387459 87.27466
L 92.116372 87.514062
L 92.845286 88.043612
L 93.5742 88.402615
L 94.303113 89.563917
L 95.032027 90.165798
L 95.760941 90.43814
L 97.218768 89.28877
L 97.947682 89.265769
L 98.676596 90.258274
L 99.405509 89.051101
L 100.134423 89.033488
L 100.863337 90.707942
L 101.59225 91.426635
L 102.321164 91.863487
L 103.050078 92.454357
L 103.778991 91.672069
L 104.507905 91.816541
L 105.236819 91.743408
L 105.965733 89.559896
L 106.694646 88.535061
L 107.42356 88.421322
L 108.152474 86.555173
L 108.881387 85.736859
L 109.610301 83.215637
L 110.339215 81.600078
L 111.068128 80.676513
L 111.797042 80.722704
L 112.525956 80.059005
L 113.983783 78.204689
L 114.712697 78.070774
L 115.441611 76.994274
L 116.170524 77.329085
L 116.899438 75.517831
L 118.357265 74.564749
L 119.815093 71.279907
L 120.544006 70.619465
L 121.27292 70.160558
L 122.001834 71.983591
L 122.730748 71.335423
L 123.459661 71.805806
L 124.188575 71.763194
L 124.917489 72.277481
L 125.646402 72.589685
L 126.375316 72.045606
L 127.10423 70.386144
L 127.833143 70.196107
L 128.562057 69.072633
L 129.290971 68.680991
L 130.019885 66.658557
L 130.748798 63.814186
L 132.206626 59.196712
L 132.935539 57.353739
L 133.664453 56.377296
L 134.393367 57.279399
L 135.851194 61.356688
L 136.580108 62.086208
L 137.309021 64.487332
L 138.037935 65.861229
L 138.766849 66.687139
L 140.224676 67.159023
L 140.95359 66.987071
L 141.682504 68.669422
L 142.411417 69.158683
L 143.140331 71.719418
L 143.869245 73.487357
L 144.598158 74.727879
L 145.327072 76.646725
L 146.055986 78.133397
L 146.784899 77.530807
L 147.513813 77.664036
L 148.242727 75.186803
L 148.971641 73.943947
L 149.700554 72.258685
L 150.429468 69.456841
L 151.887295 65.801501
L 152.616209 64.54605
L 153.345123 63.584856
L 154.074036 62.972026
L 154.80295 61.970952
L 156.260778 62.563184
L 156.989691 63.593509
L 157.718605 63.920069
L 158.447519 64.7255
L 159.905346 65.666638
L 160.63426 64.876637
L 162.092087 64.397008
L 162.821001 64.300004
L 163.549914 65.205906
L 165.736656 65.537243
L 166.465569 65.891273
L 167.194483 67.382334
L 167.923397 68.404051
L 168.65231 68.597862
L 170.110138 70.091018
L 170.839051 71.125848
L 171.567965 72.45374
L 173.754706 68.258803
L 174.48362 68.40946
L 175.212534 70.340668
L 175.941447 71.817229
L 176.670361 71.576417
L 177.399275 72.457259
L 178.857102 76.23045
L 180.314929 72.20159
L 181.043843 70.868885
L 181.772757 71.460292
L 182.501671 70.61097
L 183.230584 69.109923
L 183.959498 68.59379
L 184.688412 70.365895
L 185.417325 70.420381
L 186.146239 70.242001
L 186.875153 68.993964
L 187.604066 70.754685
L 188.33298 71.735984
L 189.061894 72.278658
L 189.790807 71.331805
L 190.519721 71.402324
L 191.248635 72.219208
L 191.977549 72.831352
L 192.706462 70.628104
L 193.435376 69.443115
L 194.16429 66.211958
L 194.893203 66.286209
L 196.351031 64.559969
L 197.079944 63.774334
L 197.808858 64.463662
L 198.537772 64.938913
L 199.266686 67.771408
L 199.995599 67.337467
L 200.724513 67.988592
L 201.453427 68.255739
L 202.18234 68.230941
L 203.640168 66.819423
L 204.369081 64.585765
L 205.097995 65.5411
L 205.826909 64.973352
L 206.555822 63.20068
L 207.284736 62.888138
L 208.01365 63.58687
L 208.742564 62.149077
L 209.471477 61.403045
L 210.200391 61.65304
L 210.929305 62.283346
L 211.658218 63.221655
L 212.387132 62.311989
L 213.116046 61.153764
L 213.844959 61.857726
L 214.573873 62.923136
L 215.302787 61.122712
L 216.031701 60.592275
L 216.760614 61.434909
L 217.489528 62.924022
L 218.218442 63.56971
L 218.947355 65.727352
L 219.676269 66.105417
L 220.405183 66.916121
L 221.134096 67.454627
L 222.591924 64.654189
L 223.320837 64.578864
L 224.049751 63.608595
L 224.778665 63.434984
L 225.507579 62.583399
L 226.236492 61.139353
L 226.965406 61.715366
L 227.69432 61.066225
L 228.423233 59.300364
L 229.152147 58.264262
L 229.881061 57.600367
L 230.609974 57.578769
L 231.338888 57.758509
L 232.067802 57.717979
L 232.796715 58.443518
L 233.525629 60.214096
L 234.254543 60.680713
L 234.983457 60.181569
L 235.71237 61.219929
L 236.441284 60.496125
L 237.170198 61.457511
L 237.899111 62.98707
L 238.628025 62.907415
L 239.356939 63.617304
L 240.814766 66.496529
L 241.54368 68.728568
L 243.001507 67.250847
L 243.730421 66.925793
L 245.188248 68.854571
L 245.917162 68.514258
L 247.374989 69.203865
L 248.103903 68.427843
L 248.832817 69.532812
L 249.56173 67.679041
L 250.290644 66.484721
L 251.748472 65.631234
L 252.477385 66.28177
L 253.206299 67.52371
L 253.935213 67.140443
L 254.664126 67.821102
L 255.39304 67.019178
L 256.121954 69.053038
L 256.850867 68.815684
L 257.579781 68.039829
L 258.308695 67.905847
L 259.037608 66.680047
L 259.766522 67.35334
L 260.495436 68.211743
L 261.22435 65.415498
L 262.682177 66.743947
L 263.411091 64.97487
L 264.140004 65.059475
L 265.597832 62.708662
L 266.326745 62.960187
L 267.055659 61.157707
L 268.513487 59.548416
L 269.2424 58.67461
L 269.971314 56.008916
L 271.429141 55.280659
L 272.158055 56.58637
L 272.886969 56.148173
L 273.615882 57.009194
L 274.344796 56.352678
L 275.07371 58.399623
L 275.802623 59.455965
L 277.260451 60.443399
L 277.989365 61.57866
L 278.718278 63.734418
L 279.447192 66.592206
L 280.176106 67.790318
L 281.633933 68.786754
L 282.362847 68.309233
L 283.09176 68.066793
L 283.820674 66.905522
L 284.549588 65.386479
L 285.278502 64.292003
L 286.007415 64.306367
L 286.736329 66.094631
L 287.465243 65.956437
L 288.194156 65.101733
L 288.92307 64.503981
L 289.651984 63.761221
L 290.380897 63.354461
L 291.109811 63.175314
L 291.838725 60.032406
L 292.567638 58.990557
L 293.296552 58.241028
L 294.025466 58.745375
L 294.75438 59.461584
L 295.483293 58.895432
L 296.212207 58.106435
L 296.941121 58.8978
L 297.670034 59.277304
L 298.398948 61.571906
L 299.127862 62.522531
L 299.856775 64.426098
L 300.585689 63.97309
L 301.314603 62.451677
L 302.043516 61.741618
L 302.77243 61.745485
L 303.501344 59.961628
L 304.230258 58.835279
L 304.959171 56.817579
L 305.688085 57.438322
L 306.416999 58.49966
L 307.145912 57.875292
L 307.874826 58.46881
L 308.60374 57.774122
L 310.790481 52.972299
L 312.977222 47.511097
L 313.706136 47.562759
L 314.435049 47.413682
L 315.163963 46.328644
L 315.892877 45.503145
L 316.62179 44.491849
L 317.350704 44.590019
L 318.808531 40.069597
L 319.537445 39.064225
L 320.266359 38.786817
L 320.995273 37.788092
L 321.724186 39.137677
L 323.182014 39.744292
L 323.910927 38.568256
L 324.639841 36.897154
L 325.368755 36.126649
L 326.097668 37.357417
L 326.826582 36.373587
L 327.555496 35.820193
L 328.28441 35.733972
L 329.013323 35.793983
L 329.742237 36.36844
L 330.471151 35.664256
L 331.200064 35.933093
L 331.928978 36.415943
L 332.657892 36.401938
L 333.386805 35.569399
L 334.115719 35.433005
L 334.844633 35.495952
L 335.573546 36.162984
L 336.30246 34.848722
L 337.031374 35.340148
L 337.760288 35.614395
L 338.489201 35.066622
L 339.218115 34.991206
L 339.947029 35.820648
L 340.675942 37.755088
L 341.404856 38.542092
L 342.13377 37.721474
L 342.862683 37.469755
L 343.591597 38.585742
L 344.320511 38.674451
L 345.049424 36.176625
L 345.778338 34.887365
L 346.507252 34.648951
L 347.965079 36.639602
L 349.422907 38.177078
L 350.15182 39.693606
L 350.880734 37.96949
L 351.609648 38.33916
L 352.338561 39.122583
L 353.067475 38.623964
L 354.525303 38.62439
L 355.254216 38.160985
L 355.98313 41.042653
L 356.712044 41.347448
L 357.440957 39.81152
L 358.169871 39.629041
L 358.898785 38.276587
L 359.627698 38.912843
L 360.356612 39.811517
L 361.085526 39.432408
L 361.814439 40.110912
L 363.272267 40.022863
L 364.001181 41.072658
L 364.730094 40.549163
L 365.459008 40.475928
L 366.916835 39.504171
L 367.645749 41.053046
L 368.374663 41.990409
L 369.103576 42.618304
L 369.83249 43.537548
L 370.561404 43.277748
L 371.290318 41.8237
L 372.019231 41.408074
L 372.748145 40.848572
L 373.477059 39.707724
L 374.205972 39.206988
L 374.934886 38.851113
L 375.6638 38.786602
L 376.392713 40.044354
L 377.121627 39.867079
L 377.121627 39.867079
" clip-path="url(#p7b3529b085)" style="fill: none; stroke: #ff7f0e; stroke-width: 1.5; stroke-linecap: square"/>
   </g>
   <g id="line2d_10">
    <path d="M 316.62179 98.438125
L 316.62179 22.318125
" clip-path="url(#p7b3529b085)" style="fill: none; stroke-dasharray: 5.55,2.4; stroke-dashoffset: 0; stroke: #000000; stroke-width: 1.5"/>
   </g>
   <g id="patch_3">
    <path d="M 34.240625 98.438125
L 34.240625 22.318125
" style="fill: none; stroke: #000000; stroke-width: 0.8; stroke-linejoin: miter; stroke-linecap: square"/>
   </g>
   <g id="patch_4">
    <path d="M 393.449294 98.438125
L 393.449294 22.318125
" style="fill: none; stroke: #000000; stroke-width: 0.8; stroke-linejoin: miter; stroke-linecap: square"/>
   </g>
   <g id="patch_5">
    <path d="M 34.240625 98.438125
L 393.449294 98.438125
" style="fill: none; stroke: #000000; stroke-width: 0.8; stroke-linejoin: miter; stroke-linecap: square"/>
   </g>
   <g id="patch_6">
    <path d="M 34.240625 22.318125
L 393.449294 22.318125
" style="fill: none; stroke: #000000; stroke-width: 0.8; stroke-linejoin: miter; stroke-linecap: square"/>
   </g>
   <g id="text_10">
    <!-- Synthetic control for articles NOT mentioning protest -->
    <g transform="translate(54.765272 16.318125) scale(0.12 -0.12)">
     <defs>
      <path id="DejaVuSans-53" d="M 3425 4513
L 3425 3897
Q 3066 4069 2747 4153
Q 2428 4238 2131 4238
Q 1616 4238 1336 4038
Q 1056 3838 1056 3469
Q 1056 3159 1242 3001
Q 1428 2844 1947 2747
L 2328 2669
Q 3034 2534 3370 2195
Q 3706 1856 3706 1288
Q 3706 609 3251 259
Q 2797 -91 1919 -91
Q 1588 -91 1214 -16
Q 841 59 441 206
L 441 856
Q 825 641 1194 531
Q 1563 422 1919 422
Q 2459 422 2753 634
Q 3047 847 3047 1241
Q 3047 1584 2836 1778
Q 2625 1972 2144 2069
L 1759 2144
Q 1053 2284 737 2584
Q 422 2884 422 3419
Q 422 4038 858 4394
Q 1294 4750 2059 4750
Q 2388 4750 2728 4690
Q 3069 4631 3425 4513
z
" transform="scale(0.015625)"/>
      <path id="DejaVuSans-68" d="M 3513 2113
L 3513 0
L 2938 0
L 2938 2094
Q 2938 2591 2744 2837
Q 2550 3084 2163 3084
Q 1697 3084 1428 2787
Q 1159 2491 1159 1978
L 1159 0
L 581 0
L 581 4863
L 1159 4863
L 1159 2956
Q 1366 3272 1645 3428
Q 1925 3584 2291 3584
Q 2894 3584 3203 3211
Q 3513 2838 3513 2113
z
" transform="scale(0.015625)"/>
      <path id="DejaVuSans-66" d="M 2375 4863
L 2375 4384
L 1825 4384
Q 1516 4384 1395 4259
Q 1275 4134 1275 3809
L 1275 3500
L 2222 3500
L 2222 3053
L 1275 3053
L 1275 0
L 697 0
L 697 3053
L 147 3053
L 147 3500
L 697 3500
L 697 3744
Q 697 4328 969 4595
Q 1241 4863 1831 4863
L 2375 4863
z
" transform="scale(0.015625)"/>
      <path id="DejaVuSans-4e" d="M 628 4666
L 1478 4666
L 3547 763
L 3547 4666
L 4159 4666
L 4159 0
L 3309 0
L 1241 3903
L 1241 0
L 628 0
L 628 4666
z
" transform="scale(0.015625)"/>
      <path id="DejaVuSans-4f" d="M 2522 4238
Q 1834 4238 1429 3725
Q 1025 3213 1025 2328
Q 1025 1447 1429 934
Q 1834 422 2522 422
Q 3209 422 3611 934
Q 4013 1447 4013 2328
Q 4013 3213 3611 3725
Q 3209 4238 2522 4238
z
M 2522 4750
Q 3503 4750 4090 4092
Q 4678 3434 4678 2328
Q 4678 1225 4090 567
Q 3503 -91 2522 -91
Q 1538 -91 948 565
Q 359 1222 359 2328
Q 359 3434 948 4092
Q 1538 4750 2522 4750
z
" transform="scale(0.015625)"/>
      <path id="DejaVuSans-54" d="M -19 4666
L 3928 4666
L 3928 4134
L 2272 4134
L 2272 0
L 1638 0
L 1638 4134
L -19 4134
L -19 4666
z
" transform="scale(0.015625)"/>
      <path id="DejaVuSans-6d" d="M 3328 2828
Q 3544 3216 3844 3400
Q 4144 3584 4550 3584
Q 5097 3584 5394 3201
Q 5691 2819 5691 2113
L 5691 0
L 5113 0
L 5113 2094
Q 5113 2597 4934 2840
Q 4756 3084 4391 3084
Q 3944 3084 3684 2787
Q 3425 2491 3425 1978
L 3425 0
L 2847 0
L 2847 2094
Q 2847 2600 2669 2842
Q 2491 3084 2119 3084
Q 1678 3084 1418 2786
Q 1159 2488 1159 1978
L 1159 0
L 581 0
L 581 3500
L 1159 3500
L 1159 2956
Q 1356 3278 1631 3431
Q 1906 3584 2284 3584
Q 2666 3584 2933 3390
Q 3200 3197 3328 2828
z
" transform="scale(0.015625)"/>
      <path id="DejaVuSans-67" d="M 2906 1791
Q 2906 2416 2648 2759
Q 2391 3103 1925 3103
Q 1463 3103 1205 2759
Q 947 2416 947 1791
Q 947 1169 1205 825
Q 1463 481 1925 481
Q 2391 481 2648 825
Q 2906 1169 2906 1791
z
M 3481 434
Q 3481 -459 3084 -895
Q 2688 -1331 1869 -1331
Q 1566 -1331 1297 -1286
Q 1028 -1241 775 -1147
L 775 -588
Q 1028 -725 1275 -790
Q 1522 -856 1778 -856
Q 2344 -856 2625 -561
Q 2906 -266 2906 331
L 2906 616
Q 2728 306 2450 153
Q 2172 0 1784 0
Q 1141 0 747 490
Q 353 981 353 1791
Q 353 2603 747 3093
Q 1141 3584 1784 3584
Q 2172 3584 2450 3431
Q 2728 3278 2906 2969
L 2906 3500
L 3481 3500
L 3481 434
z
" transform="scale(0.015625)"/>
     </defs>
     <use xlink:href="#DejaVuSans-53"/>
     <use xlink:href="#DejaVuSans-79" x="63.476562"/>
     <use xlink:href="#DejaVuSans-6e" x="122.65625"/>
     <use xlink:href="#DejaVuSans-74" x="186.035156"/>
     <use xlink:href="#DejaVuSans-68" x="225.244141"/>
     <use xlink:href="#DejaVuSans-65" x="288.623047"/>
     <use xlink:href="#DejaVuSans-74" x="350.146484"/>
     <use xlink:href="#DejaVuSans-69" x="389.355469"/>
     <use xlink:href="#DejaVuSans-63" x="417.138672"/>
     <use xlink:href="#DejaVuSans-20" x="472.119141"/>
     <use xlink:href="#DejaVuSans-63" x="503.90625"/>
     <use xlink:href="#DejaVuSans-6f" x="558.886719"/>
     <use xlink:href="#DejaVuSans-6e" x="620.068359"/>
     <use xlink:href="#DejaVuSans-74" x="683.447266"/>
     <use xlink:href="#DejaVuSans-72" x="722.65625"/>
     <use xlink:href="#DejaVuSans-6f" x="761.519531"/>
     <use xlink:href="#DejaVuSans-6c" x="822.701172"/>
     <use xlink:href="#DejaVuSans-20" x="850.484375"/>
     <use xlink:href="#DejaVuSans-66" x="882.271484"/>
     <use xlink:href="#DejaVuSans-6f" x="917.476562"/>
     <use xlink:href="#DejaVuSans-72" x="978.658203"/>
     <use xlink:href="#DejaVuSans-20" x="1019.771484"/>
     <use xlink:href="#DejaVuSans-61" x="1051.558594"/>
     <use xlink:href="#DejaVuSans-72" x="1112.837891"/>
     <use xlink:href="#DejaVuSans-74" x="1153.951172"/>
     <use xlink:href="#DejaVuSans-69" x="1193.160156"/>
     <use xlink:href="#DejaVuSans-63" x="1220.943359"/>
     <use xlink:href="#DejaVuSans-6c" x="1275.923828"/>
     <use xlink:href="#DejaVuSans-65" x="1303.707031"/>
     <use xlink:href="#DejaVuSans-73" x="1365.230469"/>
     <use xlink:href="#DejaVuSans-20" x="1417.330078"/>
     <use xlink:href="#DejaVuSans-4e" x="1449.117188"/>
     <use xlink:href="#DejaVuSans-4f" x="1523.921875"/>
     <use xlink:href="#DejaVuSans-54" x="1602.632812"/>
     <use xlink:href="#DejaVuSans-20" x="1663.716797"/>
     <use xlink:href="#DejaVuSans-6d" x="1695.503906"/>
     <use xlink:href="#DejaVuSans-65" x="1792.916016"/>
     <use xlink:href="#DejaVuSans-6e" x="1854.439453"/>
     <use xlink:href="#DejaVuSans-74" x="1917.818359"/>
     <use xlink:href="#DejaVuSans-69" x="1957.027344"/>
     <use xlink:href="#DejaVuSans-6f" x="1984.810547"/>
     <use xlink:href="#DejaVuSans-6e" x="2045.992188"/>
     <use xlink:href="#DejaVuSans-69" x="2109.371094"/>
     <use xlink:href="#DejaVuSans-6e" x="2137.154297"/>
     <use xlink:href="#DejaVuSans-67" x="2200.533203"/>
     <use xlink:href="#DejaVuSans-20" x="2264.009766"/>
     <use xlink:href="#DejaVuSans-70" x="2295.796875"/>
     <use xlink:href="#DejaVuSans-72" x="2359.273438"/>
     <use xlink:href="#DejaVuSans-6f" x="2398.136719"/>
     <use xlink:href="#DejaVuSans-74" x="2459.318359"/>
     <use xlink:href="#DejaVuSans-65" x="2498.527344"/>
     <use xlink:href="#DejaVuSans-73" x="2560.050781"/>
     <use xlink:href="#DejaVuSans-74" x="2612.150391"/>
    </g>
   </g>
   <g id="legend_1">
    <g id="patch_7">
     <path d="M 41.240625 59.674375
L 120.453125 59.674375
Q 122.453125 59.674375 122.453125 57.674375
L 122.453125 29.318125
Q 122.453125 27.318125 120.453125 27.318125
L 41.240625 27.318125
Q 39.240625 27.318125 39.240625 29.318125
L 39.240625 57.674375
Q 39.240625 59.674375 41.240625 59.674375
z
" style="fill: #ffffff; opacity: 0.8; stroke: #cccccc; stroke-linejoin: miter"/>
    </g>
    <g id="line2d_11">
     <path d="M 43.240625 35.416562
L 53.240625 35.416562
L 63.240625 35.416562
" style="fill: none; stroke: #1f77b4; stroke-width: 1.5; stroke-linecap: square"/>
    </g>
    <g id="text_11">
     <!-- Actual -->
     <g transform="translate(71.240625 38.916562) scale(0.1 -0.1)">
      <defs>
       <path id="DejaVuSans-41" d="M 2188 4044
L 1331 1722
L 3047 1722
L 2188 4044
z
M 1831 4666
L 2547 4666
L 4325 0
L 3669 0
L 3244 1197
L 1141 1197
L 716 0
L 50 0
L 1831 4666
z
" transform="scale(0.015625)"/>
       <path id="DejaVuSans-75" d="M 544 1381
L 544 3500
L 1119 3500
L 1119 1403
Q 1119 906 1312 657
Q 1506 409 1894 409
Q 2359 409 2629 706
Q 2900 1003 2900 1516
L 2900 3500
L 3475 3500
L 3475 0
L 2900 0
L 2900 538
Q 2691 219 2414 64
Q 2138 -91 1772 -91
Q 1169 -91 856 284
Q 544 659 544 1381
z
M 1991 3584
L 1991 3584
z
" transform="scale(0.015625)"/>
      </defs>
      <use xlink:href="#DejaVuSans-41"/>
      <use xlink:href="#DejaVuSans-63" x="66.658203"/>
      <use xlink:href="#DejaVuSans-74" x="121.638672"/>
      <use xlink:href="#DejaVuSans-75" x="160.847656"/>
      <use xlink:href="#DejaVuSans-61" x="224.226562"/>
      <use xlink:href="#DejaVuSans-6c" x="285.505859"/>
     </g>
    </g>
    <g id="line2d_12">
     <path d="M 43.240625 50.094687
L 53.240625 50.094687
L 63.240625 50.094687
" style="fill: none; stroke: #ff7f0e; stroke-width: 1.5; stroke-linecap: square"/>
    </g>
    <g id="text_12">
     <!-- Synthetic -->
     <g transform="translate(71.240625 53.594687) scale(0.1 -0.1)">
      <use xlink:href="#DejaVuSans-53"/>
      <use xlink:href="#DejaVuSans-79" x="63.476562"/>
      <use xlink:href="#DejaVuSans-6e" x="122.65625"/>
      <use xlink:href="#DejaVuSans-74" x="186.035156"/>
      <use xlink:href="#DejaVuSans-68" x="225.244141"/>
      <use xlink:href="#DejaVuSans-65" x="288.623047"/>
      <use xlink:href="#DejaVuSans-74" x="350.146484"/>
      <use xlink:href="#DejaVuSans-69" x="389.355469"/>
      <use xlink:href="#DejaVuSans-63" x="417.138672"/>
     </g>
    </g>
   </g>
  </g>
 </g>
 <defs>
  <clipPath id="p7b3529b085">
   <rect x="34.240625" y="22.318125" width="359.208669" height="76.12"/>
  </clipPath>
 </defs>
</svg>
