<?xml version="1.0" encoding="utf-8" standalone="no"?>
<!DOCTYPE svg PUBLIC "-//W3C//DTD SVG 1.1//EN"
  "http://www.w3.org/Graphics/SVG/1.1/DTD/svg11.dtd">
<svg xmlns:xlink="http://www.w3.org/1999/xlink" width="424.042389pt" height="135.994375pt" viewBox="0 0 424.042389 135.994375" xmlns="http://www.w3.org/2000/svg" version="1.1">
 <metadata>
  <rdf:RDF xmlns:dc="http://purl.org/dc/elements/1.1/" xmlns:cc="http://creativecommons.org/ns#" xmlns:rdf="http://www.w3.org/1999/02/22-rdf-syntax-ns#">
   <cc:Work>
    <dc:type rdf:resource="http://purl.org/dc/dcmitype/StillImage"/>
    <dc:date>2023-08-19T15:40:39.379293</dc:date>
    <dc:format>image/svg+xml</dc:format>
    <dc:creator>
     <cc:Agent>
      <dc:title>Matplotlib v3.7.2, https://matplotlib.org/</dc:title>
     </cc:Agent>
    </dc:creator>
   </cc:Work>
  </rdf:RDF>
 </metadata>
 <defs>
  <style type="text/css">*{stroke-linejoin: round; stroke-linecap: butt}</style>
 </defs>
 <g id="figure_1">
  <g id="patch_1">
   <path d="M 0 135.994375
L 424.042389 135.994375
L 424.042389 0
L 0 0
z
" style="fill: #ffffff"/>
  </g>
  <g id="axes_1">
   <g id="patch_2">
    <path d="M 42.620313 98.438125
L 411.338981 98.438125
L 411.338981 22.318125
L 42.620313 22.318125
z
" style="fill: #ffffff"/>
   </g>
   <g id="matplotlib.axis_1">
    <g id="xtick_1">
     <g id="line2d_1">
      <defs>
       <path id="me545fe3b3f" d="M 0 0
L 0 3.5
" style="stroke: #000000; stroke-width: 0.8"/>
      </defs>
      <g>
       <use xlink:href="#me545fe3b3f" x="108.014005" y="98.438125" style="stroke: #000000; stroke-width: 0.8"/>
      </g>
     </g>
     <g id="text_1">
      <!-- −300 -->
      <g transform="translate(94.280411 113.036562) scale(0.1 -0.1)">
       <defs>
        <path id="DejaVuSans-2212" d="M 678 2272
L 4684 2272
L 4684 1741
L 678 1741
L 678 2272
z
" transform="scale(0.015625)"/>
        <path id="DejaVuSans-33" d="M 2597 2516
Q 3050 2419 3304 2112
Q 3559 1806 3559 1356
Q 3559 666 3084 287
Q 2609 -91 1734 -91
Q 1441 -91 1130 -33
Q 819 25 488 141
L 488 750
Q 750 597 1062 519
Q 1375 441 1716 441
Q 2309 441 2620 675
Q 2931 909 2931 1356
Q 2931 1769 2642 2001
Q 2353 2234 1838 2234
L 1294 2234
L 1294 2753
L 1863 2753
Q 2328 2753 2575 2939
Q 2822 3125 2822 3475
Q 2822 3834 2567 4026
Q 2313 4219 1838 4219
Q 1578 4219 1281 4162
Q 984 4106 628 3988
L 628 4550
Q 988 4650 1302 4700
Q 1616 4750 1894 4750
Q 2613 4750 3031 4423
Q 3450 4097 3450 3541
Q 3450 3153 3228 2886
Q 3006 2619 2597 2516
z
" transform="scale(0.015625)"/>
        <path id="DejaVuSans-30" d="M 2034 4250
Q 1547 4250 1301 3770
Q 1056 3291 1056 2328
Q 1056 1369 1301 889
Q 1547 409 2034 409
Q 2525 409 2770 889
Q 3016 1369 3016 2328
Q 3016 3291 2770 3770
Q 2525 4250 2034 4250
z
M 2034 4750
Q 2819 4750 3233 4129
Q 3647 3509 3647 2328
Q 3647 1150 3233 529
Q 2819 -91 2034 -91
Q 1250 -91 836 529
Q 422 1150 422 2328
Q 422 3509 836 4129
Q 1250 4750 2034 4750
z
" transform="scale(0.015625)"/>
       </defs>
       <use xlink:href="#DejaVuSans-2212"/>
       <use xlink:href="#DejaVuSans-33" x="83.789062"/>
       <use xlink:href="#DejaVuSans-30" x="147.412109"/>
       <use xlink:href="#DejaVuSans-30" x="211.035156"/>
      </g>
     </g>
    </g>
    <g id="xtick_2">
     <g id="line2d_2">
      <g>
       <use xlink:href="#me545fe3b3f" x="182.835163" y="98.438125" style="stroke: #000000; stroke-width: 0.8"/>
      </g>
     </g>
     <g id="text_2">
      <!-- −200 -->
      <g transform="translate(169.10157 113.036562) scale(0.1 -0.1)">
       <defs>
        <path id="DejaVuSans-32" d="M 1228 531
L 3431 531
L 3431 0
L 469 0
L 469 531
Q 828 903 1448 1529
Q 2069 2156 2228 2338
Q 2531 2678 2651 2914
Q 2772 3150 2772 3378
Q 2772 3750 2511 3984
Q 2250 4219 1831 4219
Q 1534 4219 1204 4116
Q 875 4013 500 3803
L 500 4441
Q 881 4594 1212 4672
Q 1544 4750 1819 4750
Q 2544 4750 2975 4387
Q 3406 4025 3406 3419
Q 3406 3131 3298 2873
Q 3191 2616 2906 2266
Q 2828 2175 2409 1742
Q 1991 1309 1228 531
z
" transform="scale(0.015625)"/>
       </defs>
       <use xlink:href="#DejaVuSans-2212"/>
       <use xlink:href="#DejaVuSans-32" x="83.789062"/>
       <use xlink:href="#DejaVuSans-30" x="147.412109"/>
       <use xlink:href="#DejaVuSans-30" x="211.035156"/>
      </g>
     </g>
    </g>
    <g id="xtick_3">
     <g id="line2d_3">
      <g>
       <use xlink:href="#me545fe3b3f" x="257.656322" y="98.438125" style="stroke: #000000; stroke-width: 0.8"/>
      </g>
     </g>
     <g id="text_3">
      <!-- −100 -->
      <g transform="translate(243.922728 113.036562) scale(0.1 -0.1)">
       <defs>
        <path id="DejaVuSans-31" d="M 794 531
L 1825 531
L 1825 4091
L 703 3866
L 703 4441
L 1819 4666
L 2450 4666
L 2450 531
L 3481 531
L 3481 0
L 794 0
L 794 531
z
" transform="scale(0.015625)"/>
       </defs>
       <use xlink:href="#DejaVuSans-2212"/>
       <use xlink:href="#DejaVuSans-31" x="83.789062"/>
       <use xlink:href="#DejaVuSans-30" x="147.412109"/>
       <use xlink:href="#DejaVuSans-30" x="211.035156"/>
      </g>
     </g>
    </g>
    <g id="xtick_4">
     <g id="line2d_4">
      <g>
       <use xlink:href="#me545fe3b3f" x="332.47748" y="98.438125" style="stroke: #000000; stroke-width: 0.8"/>
      </g>
     </g>
     <g id="text_4">
      <!-- 0 -->
      <g transform="translate(329.29623 113.036562) scale(0.1 -0.1)">
       <use xlink:href="#DejaVuSans-30"/>
      </g>
     </g>
    </g>
    <g id="xtick_5">
     <g id="line2d_5">
      <g>
       <use xlink:href="#me545fe3b3f" x="407.298639" y="98.438125" style="stroke: #000000; stroke-width: 0.8"/>
      </g>
     </g>
     <g id="text_5">
      <!-- 100 -->
      <g transform="translate(397.754889 113.036562) scale(0.1 -0.1)">
       <use xlink:href="#DejaVuSans-31"/>
       <use xlink:href="#DejaVuSans-30" x="63.623047"/>
       <use xlink:href="#DejaVuSans-30" x="127.246094"/>
      </g>
     </g>
    </g>
    <g id="text_6">
     <!-- Days since protest -->
     <g transform="translate(180.556991 126.714687) scale(0.1 -0.1)">
      <defs>
       <path id="DejaVuSans-44" d="M 1259 4147
L 1259 519
L 2022 519
Q 2988 519 3436 956
Q 3884 1394 3884 2338
Q 3884 3275 3436 3711
Q 2988 4147 2022 4147
L 1259 4147
z
M 628 4666
L 1925 4666
Q 3281 4666 3915 4102
Q 4550 3538 4550 2338
Q 4550 1131 3912 565
Q 3275 0 1925 0
L 628 0
L 628 4666
z
" transform="scale(0.015625)"/>
       <path id="DejaVuSans-61" d="M 2194 1759
Q 1497 1759 1228 1600
Q 959 1441 959 1056
Q 959 750 1161 570
Q 1363 391 1709 391
Q 2188 391 2477 730
Q 2766 1069 2766 1631
L 2766 1759
L 2194 1759
z
M 3341 1997
L 3341 0
L 2766 0
L 2766 531
Q 2569 213 2275 61
Q 1981 -91 1556 -91
Q 1019 -91 701 211
Q 384 513 384 1019
Q 384 1609 779 1909
Q 1175 2209 1959 2209
L 2766 2209
L 2766 2266
Q 2766 2663 2505 2880
Q 2244 3097 1772 3097
Q 1472 3097 1187 3025
Q 903 2953 641 2809
L 641 3341
Q 956 3463 1253 3523
Q 1550 3584 1831 3584
Q 2591 3584 2966 3190
Q 3341 2797 3341 1997
z
" transform="scale(0.015625)"/>
       <path id="DejaVuSans-79" d="M 2059 -325
Q 1816 -950 1584 -1140
Q 1353 -1331 966 -1331
L 506 -1331
L 506 -850
L 844 -850
Q 1081 -850 1212 -737
Q 1344 -625 1503 -206
L 1606 56
L 191 3500
L 800 3500
L 1894 763
L 2988 3500
L 3597 3500
L 2059 -325
z
" transform="scale(0.015625)"/>
       <path id="DejaVuSans-73" d="M 2834 3397
L 2834 2853
Q 2591 2978 2328 3040
Q 2066 3103 1784 3103
Q 1356 3103 1142 2972
Q 928 2841 928 2578
Q 928 2378 1081 2264
Q 1234 2150 1697 2047
L 1894 2003
Q 2506 1872 2764 1633
Q 3022 1394 3022 966
Q 3022 478 2636 193
Q 2250 -91 1575 -91
Q 1294 -91 989 -36
Q 684 19 347 128
L 347 722
Q 666 556 975 473
Q 1284 391 1588 391
Q 1994 391 2212 530
Q 2431 669 2431 922
Q 2431 1156 2273 1281
Q 2116 1406 1581 1522
L 1381 1569
Q 847 1681 609 1914
Q 372 2147 372 2553
Q 372 3047 722 3315
Q 1072 3584 1716 3584
Q 2034 3584 2315 3537
Q 2597 3491 2834 3397
z
" transform="scale(0.015625)"/>
       <path id="DejaVuSans-20" transform="scale(0.015625)"/>
       <path id="DejaVuSans-69" d="M 603 3500
L 1178 3500
L 1178 0
L 603 0
L 603 3500
z
M 603 4863
L 1178 4863
L 1178 4134
L 603 4134
L 603 4863
z
" transform="scale(0.015625)"/>
       <path id="DejaVuSans-6e" d="M 3513 2113
L 3513 0
L 2938 0
L 2938 2094
Q 2938 2591 2744 2837
Q 2550 3084 2163 3084
Q 1697 3084 1428 2787
Q 1159 2491 1159 1978
L 1159 0
L 581 0
L 581 3500
L 1159 3500
L 1159 2956
Q 1366 3272 1645 3428
Q 1925 3584 2291 3584
Q 2894 3584 3203 3211
Q 3513 2838 3513 2113
z
" transform="scale(0.015625)"/>
       <path id="DejaVuSans-63" d="M 3122 3366
L 3122 2828
Q 2878 2963 2633 3030
Q 2388 3097 2138 3097
Q 1578 3097 1268 2742
Q 959 2388 959 1747
Q 959 1106 1268 751
Q 1578 397 2138 397
Q 2388 397 2633 464
Q 2878 531 3122 666
L 3122 134
Q 2881 22 2623 -34
Q 2366 -91 2075 -91
Q 1284 -91 818 406
Q 353 903 353 1747
Q 353 2603 823 3093
Q 1294 3584 2113 3584
Q 2378 3584 2631 3529
Q 2884 3475 3122 3366
z
" transform="scale(0.015625)"/>
       <path id="DejaVuSans-65" d="M 3597 1894
L 3597 1613
L 953 1613
Q 991 1019 1311 708
Q 1631 397 2203 397
Q 2534 397 2845 478
Q 3156 559 3463 722
L 3463 178
Q 3153 47 2828 -22
Q 2503 -91 2169 -91
Q 1331 -91 842 396
Q 353 884 353 1716
Q 353 2575 817 3079
Q 1281 3584 2069 3584
Q 2775 3584 3186 3129
Q 3597 2675 3597 1894
z
M 3022 2063
Q 3016 2534 2758 2815
Q 2500 3097 2075 3097
Q 1594 3097 1305 2825
Q 1016 2553 972 2059
L 3022 2063
z
" transform="scale(0.015625)"/>
       <path id="DejaVuSans-70" d="M 1159 525
L 1159 -1331
L 581 -1331
L 581 3500
L 1159 3500
L 1159 2969
Q 1341 3281 1617 3432
Q 1894 3584 2278 3584
Q 2916 3584 3314 3078
Q 3713 2572 3713 1747
Q 3713 922 3314 415
Q 2916 -91 2278 -91
Q 1894 -91 1617 61
Q 1341 213 1159 525
z
M 3116 1747
Q 3116 2381 2855 2742
Q 2594 3103 2138 3103
Q 1681 3103 1420 2742
Q 1159 2381 1159 1747
Q 1159 1113 1420 752
Q 1681 391 2138 391
Q 2594 391 2855 752
Q 3116 1113 3116 1747
z
" transform="scale(0.015625)"/>
       <path id="DejaVuSans-72" d="M 2631 2963
Q 2534 3019 2420 3045
Q 2306 3072 2169 3072
Q 1681 3072 1420 2755
Q 1159 2438 1159 1844
L 1159 0
L 581 0
L 581 3500
L 1159 3500
L 1159 2956
Q 1341 3275 1631 3429
Q 1922 3584 2338 3584
Q 2397 3584 2469 3576
Q 2541 3569 2628 3553
L 2631 2963
z
" transform="scale(0.015625)"/>
       <path id="DejaVuSans-6f" d="M 1959 3097
Q 1497 3097 1228 2736
Q 959 2375 959 1747
Q 959 1119 1226 758
Q 1494 397 1959 397
Q 2419 397 2687 759
Q 2956 1122 2956 1747
Q 2956 2369 2687 2733
Q 2419 3097 1959 3097
z
M 1959 3584
Q 2709 3584 3137 3096
Q 3566 2609 3566 1747
Q 3566 888 3137 398
Q 2709 -91 1959 -91
Q 1206 -91 779 398
Q 353 888 353 1747
Q 353 2609 779 3096
Q 1206 3584 1959 3584
z
" transform="scale(0.015625)"/>
       <path id="DejaVuSans-74" d="M 1172 4494
L 1172 3500
L 2356 3500
L 2356 3053
L 1172 3053
L 1172 1153
Q 1172 725 1289 603
Q 1406 481 1766 481
L 2356 481
L 2356 0
L 1766 0
Q 1100 0 847 248
Q 594 497 594 1153
L 594 3053
L 172 3053
L 172 3500
L 594 3500
L 594 4494
L 1172 4494
z
" transform="scale(0.015625)"/>
      </defs>
      <use xlink:href="#DejaVuSans-44"/>
      <use xlink:href="#DejaVuSans-61" x="77.001953"/>
      <use xlink:href="#DejaVuSans-79" x="138.28125"/>
      <use xlink:href="#DejaVuSans-73" x="197.460938"/>
      <use xlink:href="#DejaVuSans-20" x="249.560547"/>
      <use xlink:href="#DejaVuSans-73" x="281.347656"/>
      <use xlink:href="#DejaVuSans-69" x="333.447266"/>
      <use xlink:href="#DejaVuSans-6e" x="361.230469"/>
      <use xlink:href="#DejaVuSans-63" x="424.609375"/>
      <use xlink:href="#DejaVuSans-65" x="479.589844"/>
      <use xlink:href="#DejaVuSans-20" x="541.113281"/>
      <use xlink:href="#DejaVuSans-70" x="572.900391"/>
      <use xlink:href="#DejaVuSans-72" x="636.376953"/>
      <use xlink:href="#DejaVuSans-6f" x="675.240234"/>
      <use xlink:href="#DejaVuSans-74" x="736.421875"/>
      <use xlink:href="#DejaVuSans-65" x="775.630859"/>
      <use xlink:href="#DejaVuSans-73" x="837.154297"/>
      <use xlink:href="#DejaVuSans-74" x="889.253906"/>
     </g>
    </g>
   </g>
   <g id="matplotlib.axis_2">
    <g id="ytick_1">
     <g id="line2d_6">
      <defs>
       <path id="md40335d8eb" d="M 0 0
L -3.5 0
" style="stroke: #000000; stroke-width: 0.8"/>
      </defs>
      <g>
       <use xlink:href="#md40335d8eb" x="42.620313" y="92.242426" style="stroke: #000000; stroke-width: 0.8"/>
      </g>
     </g>
     <g id="text_7">
      <!-- −2 -->
      <g transform="translate(20.878125 96.041645) scale(0.1 -0.1)">
       <use xlink:href="#DejaVuSans-2212"/>
       <use xlink:href="#DejaVuSans-32" x="83.789062"/>
      </g>
     </g>
    </g>
    <g id="ytick_2">
     <g id="line2d_7">
      <g>
       <use xlink:href="#md40335d8eb" x="42.620313" y="60.886745" style="stroke: #000000; stroke-width: 0.8"/>
      </g>
     </g>
     <g id="text_8">
      <!-- 0 -->
      <g transform="translate(29.257813 64.685964) scale(0.1 -0.1)">
       <use xlink:href="#DejaVuSans-30"/>
      </g>
     </g>
    </g>
    <g id="ytick_3">
     <g id="line2d_8">
      <g>
       <use xlink:href="#md40335d8eb" x="42.620313" y="29.531064" style="stroke: #000000; stroke-width: 0.8"/>
      </g>
     </g>
     <g id="text_9">
      <!-- 2 -->
      <g transform="translate(29.257813 33.330283) scale(0.1 -0.1)">
       <use xlink:href="#DejaVuSans-32"/>
      </g>
     </g>
    </g>
    <g id="text_10">
     <!-- #articles -->
     <g transform="translate(14.798438 82.85625) rotate(-90) scale(0.1 -0.1)">
      <defs>
       <path id="DejaVuSans-23" d="M 3272 2816
L 2363 2816
L 2100 1772
L 3016 1772
L 3272 2816
z
M 2803 4594
L 2478 3297
L 3391 3297
L 3719 4594
L 4219 4594
L 3897 3297
L 4872 3297
L 4872 2816
L 3775 2816
L 3519 1772
L 4513 1772
L 4513 1294
L 3397 1294
L 3072 0
L 2572 0
L 2894 1294
L 1978 1294
L 1656 0
L 1153 0
L 1478 1294
L 494 1294
L 494 1772
L 1594 1772
L 1856 2816
L 850 2816
L 850 3297
L 1978 3297
L 2297 4594
L 2803 4594
z
" transform="scale(0.015625)"/>
       <path id="DejaVuSans-6c" d="M 603 4863
L 1178 4863
L 1178 0
L 603 0
L 603 4863
z
" transform="scale(0.015625)"/>
      </defs>
      <use xlink:href="#DejaVuSans-23"/>
      <use xlink:href="#DejaVuSans-61" x="83.789062"/>
      <use xlink:href="#DejaVuSans-72" x="145.068359"/>
      <use xlink:href="#DejaVuSans-74" x="186.181641"/>
      <use xlink:href="#DejaVuSans-69" x="225.390625"/>
      <use xlink:href="#DejaVuSans-63" x="253.173828"/>
      <use xlink:href="#DejaVuSans-6c" x="308.154297"/>
      <use xlink:href="#DejaVuSans-65" x="335.9375"/>
      <use xlink:href="#DejaVuSans-73" x="397.460938"/>
     </g>
    </g>
   </g>
   <g id="line2d_9">
    <path d="M 59.380252 39.604699
L 60.128464 36.660416
L 60.876675 34.85741
L 61.624887 34.771681
L 62.373098 35.071735
L 63.869521 37.078349
L 65.365945 44.788674
L 66.114156 47.928529
L 66.862368 48.949249
L 67.610579 48.710813
L 68.358791 47.331099
L 69.107003 47.75439
L 69.855214 46.840832
L 70.603426 47.44094
L 71.351637 47.639191
L 72.099849 46.326453
L 72.848061 45.96478
L 74.344484 48.828692
L 75.092695 48.641158
L 75.840907 50.090528
L 78.085542 55.775486
L 78.833753 57.337376
L 79.581965 56.024639
L 80.330176 56.008564
L 81.8266 51.263955
L 82.574811 51.175546
L 83.323023 49.635088
L 84.071234 46.200537
L 84.819446 45.528094
L 85.567657 46.254118
L 86.315869 47.438261
L 87.064081 47.580251
L 87.812292 46.830115
L 88.560504 47.665981
L 89.308715 49.584186
L 90.056927 50.146788
L 90.805139 47.775823
L 91.55335 47.084626
L 92.301562 46.112128
L 93.049773 46.953352
L 93.797985 46.921203
L 94.546196 46.765818
L 95.294408 45.972817
L 96.04262 48.223225
L 97.539043 47.331099
L 98.287254 45.080691
L 99.035466 45.14231
L 100.531889 46.358601
L 101.280101 47.505238
L 102.028312 48.871557
L 103.524735 52.598125
L 104.272947 52.80977
L 105.76937 50.998728
L 107.265793 45.836185
L 108.014005 44.151059
L 108.762217 44.301086
L 109.510428 45.187854
L 110.25864 44.293049
L 111.006851 45.474513
L 111.755063 47.874948
L 112.503274 52.09982
L 113.251486 55.660287
L 113.999698 56.297902
L 114.747909 56.670291
L 115.496121 58.20807
L 116.244332 58.920699
L 116.992544 57.974992
L 117.740756 56.003206
L 118.488967 53.600092
L 119.98539 50.387903
L 120.733602 49.838696
L 121.481814 48.582219
L 122.978237 48.016938
L 123.726448 47.722241
L 124.47466 47.821367
L 125.222871 47.164998
L 125.971083 46.779213
L 126.719295 44.759205
L 127.467506 43.588457
L 128.215718 42.859753
L 128.963929 42.41503
L 129.712141 41.064785
L 130.460353 38.289282
L 131.208564 36.427338
L 131.956776 37.348933
L 132.704987 37.729359
L 133.453199 37.807052
L 134.20141 38.554509
L 134.949622 39.668997
L 135.697834 42.578452
L 136.446045 43.312514
L 137.942468 42.374844
L 138.69068 42.956199
L 139.438892 42.141766
L 140.187103 40.491467
L 141.683526 34.002791
L 143.928161 28.516083
L 144.676373 29.402851
L 145.424584 31.44965
L 146.921007 38.557188
L 147.669219 41.011204
L 148.417431 42.956199
L 149.165642 43.406281
L 149.913854 43.615247
L 150.662065 42.112296
L 151.410277 40.885288
L 152.158488 41.734549
L 152.9067 44.767242
L 153.654912 47.079268
L 154.403123 51.38987
L 155.151335 54.23235
L 156.647758 58.593854
L 157.39597 58.853723
L 158.144181 56.573845
L 158.892393 53.867998
L 160.388816 46.272872
L 161.137027 44.976208
L 161.885239 44.314481
L 162.633451 44.218035
L 164.129874 42.540945
L 164.878085 43.556308
L 165.626297 43.43843
L 166.374509 43.561666
L 167.12272 42.650787
L 167.870932 42.283756
L 168.619143 42.763307
L 169.367355 45.584354
L 170.115566 46.73099
L 170.863778 47.588289
L 171.61199 47.548103
L 172.360201 47.32842
L 173.856624 50.655809
L 174.604836 50.342359
L 175.353048 52.694571
L 176.101259 54.023383
L 176.849471 55.017313
L 177.597682 56.78817
L 179.094106 57.144484
L 179.842317 58.433111
L 180.590529 57.52491
L 181.33874 57.865151
L 183.583375 58.00982
L 184.331587 58.459901
L 185.079798 59.756565
L 185.82801 61.639942
L 186.576221 62.816048
L 187.324433 66.288105
L 190.317279 77.69285
L 191.065491 78.820733
L 191.813702 80.763049
L 192.561914 80.47639
L 193.310126 78.879672
L 196.302972 70.36563
L 197.051184 68.988595
L 197.799395 67.228454
L 198.547607 66.521183
L 199.295818 67.560657
L 200.792241 67.193627
L 201.540453 68.002702
L 202.288665 67.257924
L 203.036876 65.870172
L 203.785088 67.55262
L 204.533299 67.335617
L 205.281511 67.592806
L 206.029723 65.867493
L 206.777934 65.843382
L 207.526146 65.602267
L 208.274357 66.797126
L 209.77078 65.685318
L 210.518992 65.395979
L 212.015415 68.626922
L 212.763627 71.447969
L 213.511838 72.334737
L 214.26005 72.364206
L 215.008262 73.382248
L 215.756473 72.728558
L 216.504685 70.987171
L 218.001108 63.815336
L 218.749319 62.256125
L 219.497531 60.187893
L 220.245743 58.810858
L 220.993954 57.983029
L 221.742166 57.522231
L 222.490377 59.274335
L 223.238589 59.930703
L 223.986801 59.376139
L 224.735012 59.796751
L 225.483224 58.157168
L 226.979647 58.510803
L 227.727859 56.793528
L 228.47607 55.59331
L 229.224282 55.737979
L 229.972493 54.701184
L 230.720705 54.433279
L 231.468916 53.621525
L 233.713551 52.038202
L 234.461763 51.856026
L 235.958186 54.452032
L 236.706398 56.7587
L 237.454609 58.301837
L 238.202821 61.235404
L 238.951032 62.649946
L 239.699244 63.807299
L 240.447455 63.317031
L 241.943879 61.902489
L 242.69209 61.856945
L 243.440302 60.640653
L 244.188513 61.591719
L 244.936725 60.512059
L 245.684937 60.629937
L 246.433148 60.289697
L 247.18136 58.88855
L 247.929571 59.459189
L 248.677783 59.092159
L 249.425994 59.282372
L 250.174206 61.173786
L 250.922418 62.738355
L 251.670629 65.476351
L 252.418841 69.894116
L 253.167052 71.855185
L 253.915264 75.204006
L 254.663476 75.319206
L 255.411687 75.970217
L 256.159899 77.711604
L 256.90811 79.128825
L 257.656322 78.362614
L 258.404533 78.9145
L 259.152745 79.28421
L 259.900957 82.121331
L 260.649168 83.251893
L 261.39738 84.066326
L 262.145591 84.355665
L 262.893803 85.893443
L 265.886649 90.370147
L 266.634861 91.042591
L 267.383072 92.154399
L 268.131284 91.881135
L 268.879496 92.183869
L 269.627707 93.142971
L 270.375919 93.426951
L 271.12413 94.316398
L 271.872342 94.927223
L 272.620554 94.978125
L 273.368765 94.201199
L 274.116977 91.798085
L 274.865188 88.754676
L 275.6134 86.297981
L 277.109823 83.420674
L 277.858035 82.429423
L 279.354458 83.059001
L 280.102669 84.232428
L 280.850881 84.535161
L 281.599093 83.514441
L 283.095516 80.749654
L 283.843727 79.742329
L 284.591939 80.465674
L 285.340151 79.104713
L 286.088362 77.462451
L 286.836574 78.475135
L 289.081208 84.93702
L 289.82942 85.10848
L 290.577632 85.922913
L 291.325843 88.079554
L 292.074055 88.315311
L 292.822266 88.368892
L 293.570478 87.672337
L 294.31869 85.569277
L 295.066901 85.196888
L 295.815113 85.502301
L 296.563324 85.060257
L 297.311536 84.977206
L 298.059747 82.60892
L 298.807959 81.199736
L 299.556171 80.803235
L 300.304382 79.785194
L 301.052594 78.274206
L 301.800805 77.435661
L 302.549017 77.26688
L 303.297229 78.23402
L 304.04544 80.10668
L 304.793652 81.138117
L 305.541863 81.81324
L 306.290075 82.102578
L 307.038286 81.853426
L 307.786498 80.227238
L 308.53471 80.663924
L 309.282921 78.842166
L 310.031133 78.175081
L 310.779344 76.535498
L 311.527556 76.532819
L 312.275768 76.760538
L 313.023979 76.602474
L 313.772191 76.007724
L 314.520402 76.433694
L 316.016825 75.836264
L 317.513249 72.425825
L 318.26146 72.082905
L 319.757883 69.792312
L 320.506095 69.548517
L 321.254307 71.094333
L 322.002518 71.6998
L 322.75073 71.405104
L 323.498941 70.973776
L 324.247153 69.955734
L 324.995364 68.742121
L 325.743576 68.691219
L 326.491788 67.566015
L 327.239999 66.8132
L 328.736422 66.802484
L 329.484634 66.430095
L 330.232846 64.651202
L 331.729269 54.449353
L 332.47748 46.216611
L 333.225692 40.068773
L 333.973903 36.911747
L 334.722115 35.21119
L 335.470327 35.659129
L 336.218538 37.461611
L 336.96675 40.382598
L 337.714961 46.618865
L 338.463173 51.66957
L 339.211385 51.766132
L 339.959596 52.994593
L 340.707808 53.961885
L 341.456019 54.61122
L 342.204231 54.18556
L 342.952443 55.108882
L 343.700654 55.565339
L 344.448866 57.812785
L 345.197077 57.029698
L 345.945289 55.349162
L 346.6935 54.253898
L 348.938135 56.056222
L 349.686347 55.449019
L 350.434558 55.988963
L 351.18277 58.172278
L 351.930982 58.331706
L 352.679193 57.331293
L 353.427405 56.531006
L 354.175616 56.136769
L 354.923828 56.722147
L 355.672039 58.482104
L 356.420251 59.081772
L 357.168463 61.873716
L 357.916674 62.988618
L 358.664886 61.572753
L 359.413097 61.338172
L 360.161309 61.577684
L 360.909521 61.189035
L 361.657732 60.989263
L 362.405944 59.590483
L 363.154155 60.265287
L 363.902367 61.915437
L 364.650578 61.41334
L 365.39879 62.32727
L 366.895213 63.526097
L 367.643425 64.595169
L 368.391636 65.295357
L 369.139848 65.273133
L 370.636271 67.383176
L 371.384483 67.861458
L 372.132694 70.120312
L 372.880906 71.446833
L 375.125541 80.3205
L 375.873752 80.800195
L 376.621964 82.243018
L 377.370175 79.539362
L 378.118387 80.034177
L 378.866599 78.18525
L 379.61481 76.856521
L 380.363022 74.738534
L 381.111233 74.339843
L 381.859445 73.403722
L 382.607656 74.225634
L 383.355868 72.019601
L 384.10408 71.204638
L 384.852291 70.884682
L 385.600503 71.933398
L 386.348714 71.093395
L 387.096926 70.490842
L 387.845138 70.3145
L 388.593349 71.586716
L 389.341561 71.307568
L 390.089772 72.368163
L 390.837984 72.699801
L 391.586196 73.62063
L 393.082619 74.789904
L 393.83083 74.339141
L 394.579042 74.749056
L 394.579042 74.749056
" clip-path="url(#pc59b148e3a)" style="fill: none; stroke: #1f77b4; stroke-width: 1.5; stroke-linecap: square"/>
   </g>
   <g id="line2d_10">
    <path d="M 59.380252 47.273314
L 60.128464 43.834481
L 60.876675 39.159001
L 61.624887 39.332461
L 62.373098 40.558053
L 63.12131 39.795109
L 63.869521 41.071834
L 64.617733 41.277063
L 65.365945 42.508517
L 66.114156 46.415269
L 66.862368 47.211596
L 67.610579 45.705262
L 68.358791 47.518364
L 69.107003 46.466396
L 69.855214 45.786919
L 70.603426 46.320078
L 71.351637 45.810302
L 72.848061 43.987545
L 73.596272 42.759191
L 74.344484 44.773297
L 75.092695 45.919979
L 75.840907 48.539571
L 77.33733 52.172276
L 78.085542 55.346999
L 78.833753 57.252223
L 79.581965 57.248845
L 80.330176 56.723731
L 81.078388 54.360625
L 81.8266 53.166175
L 82.574811 53.071991
L 83.323023 52.149771
L 84.819446 48.905329
L 85.567657 49.80973
L 86.315869 49.617448
L 87.064081 50.615113
L 87.812292 49.65464
L 88.560504 49.980509
L 89.308715 50.744904
L 90.056927 49.879252
L 90.805139 47.86441
L 91.55335 48.641427
L 92.301562 47.789017
L 93.049773 48.699165
L 93.797985 47.915675
L 94.546196 47.982199
L 95.294408 48.430075
L 96.04262 50.620197
L 96.790831 49.349956
L 97.539043 47.826379
L 98.287254 46.74053
L 99.035466 47.031173
L 99.783678 46.754125
L 101.280101 45.752421
L 102.028312 46.702697
L 102.776524 47.841276
L 103.524735 47.720404
L 104.272947 46.887926
L 105.021159 45.752628
L 105.76937 46.106086
L 107.265793 43.657755
L 108.014005 43.001933
L 108.762217 42.825394
L 109.510428 42.844719
L 110.25864 43.231388
L 111.006851 43.429789
L 111.755063 45.551017
L 112.503274 49.149372
L 113.251486 51.790795
L 113.999698 53.519889
L 114.747909 54.275482
L 115.496121 54.83048
L 116.244332 55.120614
L 116.992544 55.139731
L 117.740756 52.157016
L 118.488967 49.678715
L 119.237179 48.868518
L 119.98539 48.798879
L 120.733602 48.262402
L 121.481814 46.394735
L 122.230025 45.848915
L 122.978237 47.292546
L 123.726448 48.012702
L 124.47466 46.164726
L 125.222871 44.93429
L 125.971083 44.401392
L 126.719295 44.465197
L 127.467506 43.294622
L 128.215718 40.940715
L 128.963929 39.714044
L 129.712141 37.627182
L 130.460353 35.889386
L 131.208564 35.000507
L 131.956776 34.500598
L 132.704987 33.678723
L 133.453199 35.205957
L 134.20141 36.259109
L 134.949622 38.756019
L 135.697834 42.002767
L 136.446045 42.909684
L 137.194257 44.35229
L 137.942468 44.9486
L 138.69068 45.185333
L 139.438892 43.529151
L 140.187103 42.257441
L 141.683526 33.999787
L 143.179949 29.025563
L 143.928161 25.778125
L 144.676373 26.850385
L 145.424584 28.281669
L 146.172796 30.693734
L 146.921007 35.954962
L 149.165642 46.65587
L 149.913854 47.96349
L 151.410277 49.076615
L 152.158488 48.479908
L 152.9067 49.121893
L 153.654912 48.669483
L 154.403123 50.179131
L 155.151335 50.81341
L 155.899546 51.138247
L 156.647758 53.111235
L 157.39597 53.085834
L 158.144181 49.881848
L 158.892393 49.535682
L 159.640604 47.254535
L 160.388816 44.215046
L 161.885239 42.215197
L 162.633451 41.134421
L 163.381662 41.49181
L 164.129874 39.715018
L 164.878085 41.554516
L 165.626297 42.696514
L 166.374509 43.08872
L 167.12272 43.004209
L 167.870932 44.646995
L 168.619143 45.866321
L 169.367355 48.194878
L 170.115566 49.593835
L 171.61199 50.645274
L 172.360201 49.699035
L 173.108413 49.612166
L 174.604836 53.986105
L 175.353048 53.671845
L 176.101259 55.160804
L 176.849471 56.011958
L 177.597682 57.869699
L 178.345894 59.336752
L 179.842317 56.701499
L 181.33874 56.964538
L 182.835163 54.924226
L 183.583375 54.056131
L 184.331587 54.321334
L 185.079798 56.384229
L 187.324433 65.895649
L 188.820856 75.067906
L 189.569068 77.92231
L 190.317279 79.518436
L 191.065491 80.360202
L 191.813702 80.487625
L 192.561914 80.266902
L 193.310126 79.737408
L 194.058337 77.848474
L 194.806549 75.450821
L 195.55476 73.579831
L 196.302972 71.087779
L 197.051184 70.141974
L 198.547607 67.837914
L 199.295818 65.795027
L 200.04403 67.182572
L 200.792241 67.614819
L 201.540453 67.751412
L 202.288665 68.290618
L 203.036876 67.3696
L 203.785088 68.463504
L 204.533299 71.885189
L 205.281511 71.643438
L 206.029723 69.320212
L 206.777934 68.903597
L 207.526146 66.731547
L 208.274357 66.682551
L 209.022569 65.353859
L 209.77078 62.340079
L 210.518992 61.850577
L 213.511838 69.482905
L 214.26005 69.819008
L 215.008262 71.0917
L 215.756473 71.255704
L 216.504685 69.322647
L 217.252896 66.244235
L 218.001108 64.468551
L 219.497531 59.938754
L 220.245743 58.971723
L 221.742166 58.208945
L 222.490377 58.266962
L 223.238589 58.195473
L 223.986801 58.883606
L 224.735012 58.499293
L 225.483224 57.543444
L 226.231435 55.879314
L 226.979647 56.462082
L 227.727859 55.779491
L 228.47607 53.501793
L 229.224282 52.534732
L 230.720705 51.041904
L 231.468916 50.890254
L 232.96534 52.016878
L 233.713551 53.574201
L 234.461763 54.871945
L 235.958186 56.713324
L 236.706398 58.306731
L 237.454609 60.343698
L 238.202821 62.833586
L 238.951032 63.963011
L 239.699244 63.738629
L 240.447455 65.213214
L 241.195667 64.342073
L 241.943879 65.62704
L 242.69209 64.957169
L 243.440302 63.093554
L 244.188513 62.574567
L 244.936725 62.51269
L 245.684937 61.836308
L 246.433148 62.84978
L 247.18136 60.594251
L 247.929571 59.924709
L 248.677783 59.865719
L 249.425994 61.156462
L 250.174206 63.037175
L 250.922418 63.394622
L 251.670629 64.019235
L 252.418841 66.392436
L 253.915264 72.032197
L 254.663476 72.844625
L 255.411687 74.392517
L 256.159899 77.178582
L 256.90811 78.979634
L 257.656322 79.772519
L 258.404533 79.51231
L 259.900957 83.551596
L 260.649168 83.707462
L 261.39738 84.907003
L 262.145591 87.560755
L 262.893803 88.531265
L 263.642015 91.022774
L 264.390226 90.724748
L 265.138438 91.871722
L 265.886649 92.804879
L 268.879496 89.820329
L 270.375919 89.709882
L 271.12413 89.880785
L 271.872342 91.159451
L 273.368765 91.461076
L 274.116977 88.400236
L 274.865188 87.379154
L 276.361611 82.247122
L 277.858035 78.609622
L 278.606246 77.403873
L 279.354458 76.832417
L 280.102669 76.984246
L 280.850881 76.82486
L 281.599093 77.323855
L 282.347304 76.051705
L 283.095516 75.989315
L 283.843727 76.620709
L 284.591939 78.392266
L 285.340151 77.135745
L 286.088362 77.213963
L 286.836574 78.132052
L 288.332997 82.978212
L 289.081208 84.185982
L 289.82942 85.066434
L 290.577632 86.640236
L 291.325843 87.550361
L 292.074055 87.457359
L 292.822266 87.753968
L 293.570478 86.904736
L 294.31869 87.171678
L 295.066901 86.456209
L 295.815113 87.164029
L 296.563324 87.295926
L 297.311536 86.188777
L 298.059747 83.370855
L 298.807959 82.094232
L 300.304382 78.321636
L 301.052594 77.547137
L 301.800805 77.256328
L 302.549017 77.779081
L 303.297229 79.364932
L 304.793652 83.069912
L 305.541863 83.32295
L 307.038286 80.773288
L 307.786498 79.928282
L 308.53471 79.504794
L 309.282921 77.796596
L 310.031133 76.832584
L 311.527556 77.010228
L 312.275768 77.059208
L 313.023979 76.70286
L 313.772191 76.472913
L 314.520402 76.687364
L 315.268614 77.210109
L 316.016825 76.889552
L 317.513249 77.378712
L 318.26146 77.753996
L 319.009672 77.71511
L 320.506095 76.011485
L 321.254307 76.70524
L 322.75073 74.636398
L 324.247153 74.081253
L 324.995364 74.55929
L 325.743576 74.323077
L 326.491788 73.398768
L 327.239999 73.599463
L 327.988211 74.74541
L 329.484634 74.319363
L 330.232846 72.566565
L 333.225692 57.380561
L 333.973903 56.119167
L 334.722115 55.092518
L 335.470327 54.409761
L 336.218538 55.052718
L 336.96675 56.896188
L 337.714961 59.475336
L 338.463173 61.171829
L 339.211385 60.815975
L 339.959596 59.5686
L 340.707808 60.20546
L 341.456019 61.848074
L 342.204231 61.939683
L 343.700654 64.223976
L 344.448866 63.871846
L 345.197077 64.667124
L 345.945289 62.731923
L 346.6935 61.158293
L 347.441712 61.425983
L 348.189924 62.07398
L 348.938135 62.244385
L 349.686347 63.190966
L 350.434558 63.722431
L 351.930982 69.570908
L 352.679193 68.959404
L 354.175616 69.033475
L 354.923828 68.345235
L 355.672039 69.088049
L 356.420251 69.376632
L 357.168463 69.86928
L 357.916674 72.866059
L 358.664886 73.641488
L 359.413097 73.884187
L 360.161309 75.213732
L 360.909521 75.417742
L 361.657732 74.510192
L 362.405944 72.893779
L 364.650578 70.645519
L 365.39879 72.635168
L 366.147002 72.256824
L 366.895213 73.172118
L 367.643425 75.251534
L 368.391636 76.440635
L 369.139848 76.694363
L 369.88806 77.386777
L 370.636271 76.30197
L 371.384483 77.512507
L 372.132694 79.484402
L 372.880906 80.598808
L 373.629117 80.499742
L 374.377329 82.213097
L 375.125541 84.614883
L 375.873752 85.710038
L 376.621964 86.437432
L 377.370175 84.482088
L 378.118387 84.342682
L 378.866599 84.58926
L 380.363022 80.962918
L 381.111233 80.93069
L 381.859445 80.50731
L 382.607656 78.96838
L 383.355868 78.731149
L 384.10408 77.005936
L 384.852291 77.540871
L 385.600503 79.674323
L 386.348714 78.992903
L 387.096926 78.560941
L 387.845138 80.200991
L 389.341561 80.258845
L 390.837984 78.452513
L 391.586196 79.324311
L 393.082619 79.313863
L 393.83083 79.020569
L 394.579042 79.329753
L 394.579042 79.329753
" clip-path="url(#pc59b148e3a)" style="fill: none; stroke: #ff7f0e; stroke-width: 1.5; stroke-linecap: square"/>
   </g>
   <g id="line2d_11">
    <path d="M 332.47748 98.438125
L 332.47748 22.318125
" clip-path="url(#pc59b148e3a)" style="fill: none; stroke-dasharray: 5.55,2.4; stroke-dashoffset: 0; stroke: #000000; stroke-width: 1.5"/>
   </g>
   <g id="patch_3">
    <path d="M 42.620313 98.438125
L 42.620313 22.318125
" style="fill: none; stroke: #000000; stroke-width: 0.8; stroke-linejoin: miter; stroke-linecap: square"/>
   </g>
   <g id="patch_4">
    <path d="M 411.338981 98.438125
L 411.338981 22.318125
" style="fill: none; stroke: #000000; stroke-width: 0.8; stroke-linejoin: miter; stroke-linecap: square"/>
   </g>
   <g id="patch_5">
    <path d="M 42.620313 98.438125
L 411.338981 98.438125
" style="fill: none; stroke: #000000; stroke-width: 0.8; stroke-linejoin: miter; stroke-linecap: square"/>
   </g>
   <g id="patch_6">
    <path d="M 42.620313 22.318125
L 411.338981 22.318125
" style="fill: none; stroke: #000000; stroke-width: 0.8; stroke-linejoin: miter; stroke-linecap: square"/>
   </g>
   <g id="text_11">
    <!-- Synthetic control for articles mentioning protest -->
    <g transform="translate(82.683397 16.318125) scale(0.12 -0.12)">
     <defs>
      <path id="DejaVuSans-53" d="M 3425 4513
L 3425 3897
Q 3066 4069 2747 4153
Q 2428 4238 2131 4238
Q 1616 4238 1336 4038
Q 1056 3838 1056 3469
Q 1056 3159 1242 3001
Q 1428 2844 1947 2747
L 2328 2669
Q 3034 2534 3370 2195
Q 3706 1856 3706 1288
Q 3706 609 3251 259
Q 2797 -91 1919 -91
Q 1588 -91 1214 -16
Q 841 59 441 206
L 441 856
Q 825 641 1194 531
Q 1563 422 1919 422
Q 2459 422 2753 634
Q 3047 847 3047 1241
Q 3047 1584 2836 1778
Q 2625 1972 2144 2069
L 1759 2144
Q 1053 2284 737 2584
Q 422 2884 422 3419
Q 422 4038 858 4394
Q 1294 4750 2059 4750
Q 2388 4750 2728 4690
Q 3069 4631 3425 4513
z
" transform="scale(0.015625)"/>
      <path id="DejaVuSans-68" d="M 3513 2113
L 3513 0
L 2938 0
L 2938 2094
Q 2938 2591 2744 2837
Q 2550 3084 2163 3084
Q 1697 3084 1428 2787
Q 1159 2491 1159 1978
L 1159 0
L 581 0
L 581 4863
L 1159 4863
L 1159 2956
Q 1366 3272 1645 3428
Q 1925 3584 2291 3584
Q 2894 3584 3203 3211
Q 3513 2838 3513 2113
z
" transform="scale(0.015625)"/>
      <path id="DejaVuSans-66" d="M 2375 4863
L 2375 4384
L 1825 4384
Q 1516 4384 1395 4259
Q 1275 4134 1275 3809
L 1275 3500
L 2222 3500
L 2222 3053
L 1275 3053
L 1275 0
L 697 0
L 697 3053
L 147 3053
L 147 3500
L 697 3500
L 697 3744
Q 697 4328 969 4595
Q 1241 4863 1831 4863
L 2375 4863
z
" transform="scale(0.015625)"/>
      <path id="DejaVuSans-6d" d="M 3328 2828
Q 3544 3216 3844 3400
Q 4144 3584 4550 3584
Q 5097 3584 5394 3201
Q 5691 2819 5691 2113
L 5691 0
L 5113 0
L 5113 2094
Q 5113 2597 4934 2840
Q 4756 3084 4391 3084
Q 3944 3084 3684 2787
Q 3425 2491 3425 1978
L 3425 0
L 2847 0
L 2847 2094
Q 2847 2600 2669 2842
Q 2491 3084 2119 3084
Q 1678 3084 1418 2786
Q 1159 2488 1159 1978
L 1159 0
L 581 0
L 581 3500
L 1159 3500
L 1159 2956
Q 1356 3278 1631 3431
Q 1906 3584 2284 3584
Q 2666 3584 2933 3390
Q 3200 3197 3328 2828
z
" transform="scale(0.015625)"/>
      <path id="DejaVuSans-67" d="M 2906 1791
Q 2906 2416 2648 2759
Q 2391 3103 1925 3103
Q 1463 3103 1205 2759
Q 947 2416 947 1791
Q 947 1169 1205 825
Q 1463 481 1925 481
Q 2391 481 2648 825
Q 2906 1169 2906 1791
z
M 3481 434
Q 3481 -459 3084 -895
Q 2688 -1331 1869 -1331
Q 1566 -1331 1297 -1286
Q 1028 -1241 775 -1147
L 775 -588
Q 1028 -725 1275 -790
Q 1522 -856 1778 -856
Q 2344 -856 2625 -561
Q 2906 -266 2906 331
L 2906 616
Q 2728 306 2450 153
Q 2172 0 1784 0
Q 1141 0 747 490
Q 353 981 353 1791
Q 353 2603 747 3093
Q 1141 3584 1784 3584
Q 2172 3584 2450 3431
Q 2728 3278 2906 2969
L 2906 3500
L 3481 3500
L 3481 434
z
" transform="scale(0.015625)"/>
     </defs>
     <use xlink:href="#DejaVuSans-53"/>
     <use xlink:href="#DejaVuSans-79" x="63.476562"/>
     <use xlink:href="#DejaVuSans-6e" x="122.65625"/>
     <use xlink:href="#DejaVuSans-74" x="186.035156"/>
     <use xlink:href="#DejaVuSans-68" x="225.244141"/>
     <use xlink:href="#DejaVuSans-65" x="288.623047"/>
     <use xlink:href="#DejaVuSans-74" x="350.146484"/>
     <use xlink:href="#DejaVuSans-69" x="389.355469"/>
     <use xlink:href="#DejaVuSans-63" x="417.138672"/>
     <use xlink:href="#DejaVuSans-20" x="472.119141"/>
     <use xlink:href="#DejaVuSans-63" x="503.90625"/>
     <use xlink:href="#DejaVuSans-6f" x="558.886719"/>
     <use xlink:href="#DejaVuSans-6e" x="620.068359"/>
     <use xlink:href="#DejaVuSans-74" x="683.447266"/>
     <use xlink:href="#DejaVuSans-72" x="722.65625"/>
     <use xlink:href="#DejaVuSans-6f" x="761.519531"/>
     <use xlink:href="#DejaVuSans-6c" x="822.701172"/>
     <use xlink:href="#DejaVuSans-20" x="850.484375"/>
     <use xlink:href="#DejaVuSans-66" x="882.271484"/>
     <use xlink:href="#DejaVuSans-6f" x="917.476562"/>
     <use xlink:href="#DejaVuSans-72" x="978.658203"/>
     <use xlink:href="#DejaVuSans-20" x="1019.771484"/>
     <use xlink:href="#DejaVuSans-61" x="1051.558594"/>
     <use xlink:href="#DejaVuSans-72" x="1112.837891"/>
     <use xlink:href="#DejaVuSans-74" x="1153.951172"/>
     <use xlink:href="#DejaVuSans-69" x="1193.160156"/>
     <use xlink:href="#DejaVuSans-63" x="1220.943359"/>
     <use xlink:href="#DejaVuSans-6c" x="1275.923828"/>
     <use xlink:href="#DejaVuSans-65" x="1303.707031"/>
     <use xlink:href="#DejaVuSans-73" x="1365.230469"/>
     <use xlink:href="#DejaVuSans-20" x="1417.330078"/>
     <use xlink:href="#DejaVuSans-6d" x="1449.117188"/>
     <use xlink:href="#DejaVuSans-65" x="1546.529297"/>
     <use xlink:href="#DejaVuSans-6e" x="1608.052734"/>
     <use xlink:href="#DejaVuSans-74" x="1671.431641"/>
     <use xlink:href="#DejaVuSans-69" x="1710.640625"/>
     <use xlink:href="#DejaVuSans-6f" x="1738.423828"/>
     <use xlink:href="#DejaVuSans-6e" x="1799.605469"/>
     <use xlink:href="#DejaVuSans-69" x="1862.984375"/>
     <use xlink:href="#DejaVuSans-6e" x="1890.767578"/>
     <use xlink:href="#DejaVuSans-67" x="1954.146484"/>
     <use xlink:href="#DejaVuSans-20" x="2017.623047"/>
     <use xlink:href="#DejaVuSans-70" x="2049.410156"/>
     <use xlink:href="#DejaVuSans-72" x="2112.886719"/>
     <use xlink:href="#DejaVuSans-6f" x="2151.75"/>
     <use xlink:href="#DejaVuSans-74" x="2212.931641"/>
     <use xlink:href="#DejaVuSans-65" x="2252.140625"/>
     <use xlink:href="#DejaVuSans-73" x="2313.664062"/>
     <use xlink:href="#DejaVuSans-74" x="2365.763672"/>
    </g>
   </g>
   <g id="legend_1">
    <g id="patch_7">
     <path d="M 49.620313 93.438125
L 128.832813 93.438125
Q 130.832813 93.438125 130.832813 91.438125
L 130.832813 63.081875
Q 130.832813 61.081875 128.832813 61.081875
L 49.620313 61.081875
Q 47.620313 61.081875 47.620313 63.081875
L 47.620313 91.438125
Q 47.620313 93.438125 49.620313 93.438125
z
" style="fill: #ffffff; opacity: 0.8; stroke: #cccccc; stroke-linejoin: miter"/>
    </g>
    <g id="line2d_12">
     <path d="M 51.620313 69.180312
L 61.620313 69.180312
L 71.620313 69.180312
" style="fill: none; stroke: #1f77b4; stroke-width: 1.5; stroke-linecap: square"/>
    </g>
    <g id="text_12">
     <!-- Actual -->
     <g transform="translate(79.620313 72.680312) scale(0.1 -0.1)">
      <defs>
       <path id="DejaVuSans-41" d="M 2188 4044
L 1331 1722
L 3047 1722
L 2188 4044
z
M 1831 4666
L 2547 4666
L 4325 0
L 3669 0
L 3244 1197
L 1141 1197
L 716 0
L 50 0
L 1831 4666
z
" transform="scale(0.015625)"/>
       <path id="DejaVuSans-75" d="M 544 1381
L 544 3500
L 1119 3500
L 1119 1403
Q 1119 906 1312 657
Q 1506 409 1894 409
Q 2359 409 2629 706
Q 2900 1003 2900 1516
L 2900 3500
L 3475 3500
L 3475 0
L 2900 0
L 2900 538
Q 2691 219 2414 64
Q 2138 -91 1772 -91
Q 1169 -91 856 284
Q 544 659 544 1381
z
M 1991 3584
L 1991 3584
z
" transform="scale(0.015625)"/>
      </defs>
      <use xlink:href="#DejaVuSans-41"/>
      <use xlink:href="#DejaVuSans-63" x="66.658203"/>
      <use xlink:href="#DejaVuSans-74" x="121.638672"/>
      <use xlink:href="#DejaVuSans-75" x="160.847656"/>
      <use xlink:href="#DejaVuSans-61" x="224.226562"/>
      <use xlink:href="#DejaVuSans-6c" x="285.505859"/>
     </g>
    </g>
    <g id="line2d_13">
     <path d="M 51.620313 83.858437
L 61.620313 83.858437
L 71.620313 83.858437
" style="fill: none; stroke: #ff7f0e; stroke-width: 1.5; stroke-linecap: square"/>
    </g>
    <g id="text_13">
     <!-- Synthetic -->
     <g transform="translate(79.620313 87.358437) scale(0.1 -0.1)">
      <use xlink:href="#DejaVuSans-53"/>
      <use xlink:href="#DejaVuSans-79" x="63.476562"/>
      <use xlink:href="#DejaVuSans-6e" x="122.65625"/>
      <use xlink:href="#DejaVuSans-74" x="186.035156"/>
      <use xlink:href="#DejaVuSans-68" x="225.244141"/>
      <use xlink:href="#DejaVuSans-65" x="288.623047"/>
      <use xlink:href="#DejaVuSans-74" x="350.146484"/>
      <use xlink:href="#DejaVuSans-69" x="389.355469"/>
      <use xlink:href="#DejaVuSans-63" x="417.138672"/>
     </g>
    </g>
   </g>
  </g>
 </g>
 <defs>
  <clipPath id="pc59b148e3a">
   <rect x="42.620313" y="22.318125" width="368.718669" height="76.12"/>
  </clipPath>
 </defs>
</svg>
