<?xml version="1.0" encoding="utf-8" standalone="no"?>
<!DOCTYPE svg PUBLIC "-//W3C//DTD SVG 1.1//EN"
  "http://www.w3.org/Graphics/SVG/1.1/DTD/svg11.dtd">
<svg xmlns:xlink="http://www.w3.org/1999/xlink" width="848.090625pt" height="168.62025pt" viewBox="0 0 848.090625 168.62025" xmlns="http://www.w3.org/2000/svg" version="1.1">
 <metadata>
  <rdf:RDF xmlns:dc="http://purl.org/dc/elements/1.1/" xmlns:cc="http://creativecommons.org/ns#" xmlns:rdf="http://www.w3.org/1999/02/22-rdf-syntax-ns#">
   <cc:Work>
    <dc:type rdf:resource="http://purl.org/dc/dcmitype/StillImage"/>
    <dc:date>2023-08-27T19:06:46.653222</dc:date>
    <dc:format>image/svg+xml</dc:format>
    <dc:creator>
     <cc:Agent>
      <dc:title>Matplotlib v3.7.2, https://matplotlib.org/</dc:title>
     </cc:Agent>
    </dc:creator>
   </cc:Work>
  </rdf:RDF>
 </metadata>
 <defs>
  <style type="text/css">*{stroke-linejoin: round; stroke-linecap: butt}</style>
 </defs>
 <g id="figure_1">
  <g id="patch_1">
   <path d="M 0 168.62025
L 848.090625 168.62025
L 848.090625 0
L 0 0
z
" style="fill: #ffffff"/>
  </g>
  <g id="axes_1">
   <g id="patch_2">
    <path d="M 46.965625 105.478125
L 828.165625 105.478125
L 828.165625 22.318125
L 46.965625 22.318125
z
" style="fill: #ffffff"/>
   </g>
   <g id="matplotlib.axis_1">
    <g id="xtick_1">
     <g id="line2d_1">
      <defs>
       <path id="m1e936b707a" d="M 0 0
L 0 3.5
" style="stroke: #000000; stroke-width: 0.8"/>
      </defs>
      <g>
       <use xlink:href="#m1e936b707a" x="46.965625" y="105.478125" style="stroke: #000000; stroke-width: 0.8"/>
      </g>
     </g>
     <g id="text_1">
      <!-- 2019 -->
      <g transform="translate(34.240625 120.076562) scale(0.1 -0.1)">
       <defs>
        <path id="DejaVuSans-32" d="M 1228 531
L 3431 531
L 3431 0
L 469 0
L 469 531
Q 828 903 1448 1529
Q 2069 2156 2228 2338
Q 2531 2678 2651 2914
Q 2772 3150 2772 3378
Q 2772 3750 2511 3984
Q 2250 4219 1831 4219
Q 1534 4219 1204 4116
Q 875 4013 500 3803
L 500 4441
Q 881 4594 1212 4672
Q 1544 4750 1819 4750
Q 2544 4750 2975 4387
Q 3406 4025 3406 3419
Q 3406 3131 3298 2873
Q 3191 2616 2906 2266
Q 2828 2175 2409 1742
Q 1991 1309 1228 531
z
" transform="scale(0.015625)"/>
        <path id="DejaVuSans-30" d="M 2034 4250
Q 1547 4250 1301 3770
Q 1056 3291 1056 2328
Q 1056 1369 1301 889
Q 1547 409 2034 409
Q 2525 409 2770 889
Q 3016 1369 3016 2328
Q 3016 3291 2770 3770
Q 2525 4250 2034 4250
z
M 2034 4750
Q 2819 4750 3233 4129
Q 3647 3509 3647 2328
Q 3647 1150 3233 529
Q 2819 -91 2034 -91
Q 1250 -91 836 529
Q 422 1150 422 2328
Q 422 3509 836 4129
Q 1250 4750 2034 4750
z
" transform="scale(0.015625)"/>
        <path id="DejaVuSans-31" d="M 794 531
L 1825 531
L 1825 4091
L 703 3866
L 703 4441
L 1819 4666
L 2450 4666
L 2450 531
L 3481 531
L 3481 0
L 794 0
L 794 531
z
" transform="scale(0.015625)"/>
        <path id="DejaVuSans-39" d="M 703 97
L 703 672
Q 941 559 1184 500
Q 1428 441 1663 441
Q 2288 441 2617 861
Q 2947 1281 2994 2138
Q 2813 1869 2534 1725
Q 2256 1581 1919 1581
Q 1219 1581 811 2004
Q 403 2428 403 3163
Q 403 3881 828 4315
Q 1253 4750 1959 4750
Q 2769 4750 3195 4129
Q 3622 3509 3622 2328
Q 3622 1225 3098 567
Q 2575 -91 1691 -91
Q 1453 -91 1209 -44
Q 966 3 703 97
z
M 1959 2075
Q 2384 2075 2632 2365
Q 2881 2656 2881 3163
Q 2881 3666 2632 3958
Q 2384 4250 1959 4250
Q 1534 4250 1286 3958
Q 1038 3666 1038 3163
Q 1038 2656 1286 2365
Q 1534 2075 1959 2075
z
" transform="scale(0.015625)"/>
       </defs>
       <use xlink:href="#DejaVuSans-32"/>
       <use xlink:href="#DejaVuSans-30" x="63.623047"/>
       <use xlink:href="#DejaVuSans-31" x="127.246094"/>
       <use xlink:href="#DejaVuSans-39" x="190.869141"/>
      </g>
     </g>
    </g>
    <g id="xtick_2">
     <g id="line2d_2">
      <g>
       <use xlink:href="#m1e936b707a" x="242.265625" y="105.478125" style="stroke: #000000; stroke-width: 0.8"/>
      </g>
     </g>
     <g id="text_2">
      <!-- 2020 -->
      <g transform="translate(229.540625 120.076562) scale(0.1 -0.1)">
       <use xlink:href="#DejaVuSans-32"/>
       <use xlink:href="#DejaVuSans-30" x="63.623047"/>
       <use xlink:href="#DejaVuSans-32" x="127.246094"/>
       <use xlink:href="#DejaVuSans-30" x="190.869141"/>
      </g>
     </g>
    </g>
    <g id="xtick_3">
     <g id="line2d_3">
      <g>
       <use xlink:href="#m1e936b707a" x="437.565625" y="105.478125" style="stroke: #000000; stroke-width: 0.8"/>
      </g>
     </g>
     <g id="text_3">
      <!-- 2021 -->
      <g transform="translate(424.840625 120.076562) scale(0.1 -0.1)">
       <use xlink:href="#DejaVuSans-32"/>
       <use xlink:href="#DejaVuSans-30" x="63.623047"/>
       <use xlink:href="#DejaVuSans-32" x="127.246094"/>
       <use xlink:href="#DejaVuSans-31" x="190.869141"/>
      </g>
     </g>
    </g>
    <g id="xtick_4">
     <g id="line2d_4">
      <g>
       <use xlink:href="#m1e936b707a" x="632.865625" y="105.478125" style="stroke: #000000; stroke-width: 0.8"/>
      </g>
     </g>
     <g id="text_4">
      <!-- 2022 -->
      <g transform="translate(620.140625 120.076562) scale(0.1 -0.1)">
       <use xlink:href="#DejaVuSans-32"/>
       <use xlink:href="#DejaVuSans-30" x="63.623047"/>
       <use xlink:href="#DejaVuSans-32" x="127.246094"/>
       <use xlink:href="#DejaVuSans-32" x="190.869141"/>
      </g>
     </g>
    </g>
    <g id="xtick_5">
     <g id="line2d_5">
      <g>
       <use xlink:href="#m1e936b707a" x="828.165625" y="105.478125" style="stroke: #000000; stroke-width: 0.8"/>
      </g>
     </g>
     <g id="text_5">
      <!-- 2023 -->
      <g transform="translate(815.440625 120.076562) scale(0.1 -0.1)">
       <defs>
        <path id="DejaVuSans-33" d="M 2597 2516
Q 3050 2419 3304 2112
Q 3559 1806 3559 1356
Q 3559 666 3084 287
Q 2609 -91 1734 -91
Q 1441 -91 1130 -33
Q 819 25 488 141
L 488 750
Q 750 597 1062 519
Q 1375 441 1716 441
Q 2309 441 2620 675
Q 2931 909 2931 1356
Q 2931 1769 2642 2001
Q 2353 2234 1838 2234
L 1294 2234
L 1294 2753
L 1863 2753
Q 2328 2753 2575 2939
Q 2822 3125 2822 3475
Q 2822 3834 2567 4026
Q 2313 4219 1838 4219
Q 1578 4219 1281 4162
Q 984 4106 628 3988
L 628 4550
Q 988 4650 1302 4700
Q 1616 4750 1894 4750
Q 2613 4750 3031 4423
Q 3450 4097 3450 3541
Q 3450 3153 3228 2886
Q 3006 2619 2597 2516
z
" transform="scale(0.015625)"/>
       </defs>
       <use xlink:href="#DejaVuSans-32"/>
       <use xlink:href="#DejaVuSans-30" x="63.623047"/>
       <use xlink:href="#DejaVuSans-32" x="127.246094"/>
       <use xlink:href="#DejaVuSans-33" x="190.869141"/>
      </g>
     </g>
    </g>
    <g id="xtick_6">
     <g id="line2d_6">
      <defs>
       <path id="m58765a4af2" d="M 0 0
L 0 2
" style="stroke: #000000; stroke-width: 0.6"/>
      </defs>
      <g>
       <use xlink:href="#m58765a4af2" x="95.790625" y="105.478125" style="stroke: #000000; stroke-width: 0.6"/>
      </g>
     </g>
    </g>
    <g id="xtick_7">
     <g id="line2d_7">
      <g>
       <use xlink:href="#m58765a4af2" x="144.615625" y="105.478125" style="stroke: #000000; stroke-width: 0.6"/>
      </g>
     </g>
    </g>
    <g id="xtick_8">
     <g id="line2d_8">
      <g>
       <use xlink:href="#m58765a4af2" x="193.440625" y="105.478125" style="stroke: #000000; stroke-width: 0.6"/>
      </g>
     </g>
    </g>
    <g id="xtick_9">
     <g id="line2d_9">
      <g>
       <use xlink:href="#m58765a4af2" x="291.090625" y="105.478125" style="stroke: #000000; stroke-width: 0.6"/>
      </g>
     </g>
    </g>
    <g id="xtick_10">
     <g id="line2d_10">
      <g>
       <use xlink:href="#m58765a4af2" x="339.915625" y="105.478125" style="stroke: #000000; stroke-width: 0.6"/>
      </g>
     </g>
    </g>
    <g id="xtick_11">
     <g id="line2d_11">
      <g>
       <use xlink:href="#m58765a4af2" x="388.740625" y="105.478125" style="stroke: #000000; stroke-width: 0.6"/>
      </g>
     </g>
    </g>
    <g id="xtick_12">
     <g id="line2d_12">
      <g>
       <use xlink:href="#m58765a4af2" x="486.390625" y="105.478125" style="stroke: #000000; stroke-width: 0.6"/>
      </g>
     </g>
    </g>
    <g id="xtick_13">
     <g id="line2d_13">
      <g>
       <use xlink:href="#m58765a4af2" x="535.215625" y="105.478125" style="stroke: #000000; stroke-width: 0.6"/>
      </g>
     </g>
    </g>
    <g id="xtick_14">
     <g id="line2d_14">
      <g>
       <use xlink:href="#m58765a4af2" x="584.040625" y="105.478125" style="stroke: #000000; stroke-width: 0.6"/>
      </g>
     </g>
    </g>
    <g id="xtick_15">
     <g id="line2d_15">
      <g>
       <use xlink:href="#m58765a4af2" x="681.690625" y="105.478125" style="stroke: #000000; stroke-width: 0.6"/>
      </g>
     </g>
    </g>
    <g id="xtick_16">
     <g id="line2d_16">
      <g>
       <use xlink:href="#m58765a4af2" x="730.515625" y="105.478125" style="stroke: #000000; stroke-width: 0.6"/>
      </g>
     </g>
    </g>
    <g id="xtick_17">
     <g id="line2d_17">
      <g>
       <use xlink:href="#m58765a4af2" x="779.340625" y="105.478125" style="stroke: #000000; stroke-width: 0.6"/>
      </g>
     </g>
    </g>
    <g id="text_6">
     <!-- date -->
     <g transform="translate(426.290625 133.754687) scale(0.1 -0.1)">
      <defs>
       <path id="DejaVuSans-64" d="M 2906 2969
L 2906 4863
L 3481 4863
L 3481 0
L 2906 0
L 2906 525
Q 2725 213 2448 61
Q 2172 -91 1784 -91
Q 1150 -91 751 415
Q 353 922 353 1747
Q 353 2572 751 3078
Q 1150 3584 1784 3584
Q 2172 3584 2448 3432
Q 2725 3281 2906 2969
z
M 947 1747
Q 947 1113 1208 752
Q 1469 391 1925 391
Q 2381 391 2643 752
Q 2906 1113 2906 1747
Q 2906 2381 2643 2742
Q 2381 3103 1925 3103
Q 1469 3103 1208 2742
Q 947 2381 947 1747
z
" transform="scale(0.015625)"/>
       <path id="DejaVuSans-61" d="M 2194 1759
Q 1497 1759 1228 1600
Q 959 1441 959 1056
Q 959 750 1161 570
Q 1363 391 1709 391
Q 2188 391 2477 730
Q 2766 1069 2766 1631
L 2766 1759
L 2194 1759
z
M 3341 1997
L 3341 0
L 2766 0
L 2766 531
Q 2569 213 2275 61
Q 1981 -91 1556 -91
Q 1019 -91 701 211
Q 384 513 384 1019
Q 384 1609 779 1909
Q 1175 2209 1959 2209
L 2766 2209
L 2766 2266
Q 2766 2663 2505 2880
Q 2244 3097 1772 3097
Q 1472 3097 1187 3025
Q 903 2953 641 2809
L 641 3341
Q 956 3463 1253 3523
Q 1550 3584 1831 3584
Q 2591 3584 2966 3190
Q 3341 2797 3341 1997
z
" transform="scale(0.015625)"/>
       <path id="DejaVuSans-74" d="M 1172 4494
L 1172 3500
L 2356 3500
L 2356 3053
L 1172 3053
L 1172 1153
Q 1172 725 1289 603
Q 1406 481 1766 481
L 2356 481
L 2356 0
L 1766 0
Q 1100 0 847 248
Q 594 497 594 1153
L 594 3053
L 172 3053
L 172 3500
L 594 3500
L 594 4494
L 1172 4494
z
" transform="scale(0.015625)"/>
       <path id="DejaVuSans-65" d="M 3597 1894
L 3597 1613
L 953 1613
Q 991 1019 1311 708
Q 1631 397 2203 397
Q 2534 397 2845 478
Q 3156 559 3463 722
L 3463 178
Q 3153 47 2828 -22
Q 2503 -91 2169 -91
Q 1331 -91 842 396
Q 353 884 353 1716
Q 353 2575 817 3079
Q 1281 3584 2069 3584
Q 2775 3584 3186 3129
Q 3597 2675 3597 1894
z
M 3022 2063
Q 3016 2534 2758 2815
Q 2500 3097 2075 3097
Q 1594 3097 1305 2825
Q 1016 2553 972 2059
L 3022 2063
z
" transform="scale(0.015625)"/>
      </defs>
      <use xlink:href="#DejaVuSans-64"/>
      <use xlink:href="#DejaVuSans-61" x="63.476562"/>
      <use xlink:href="#DejaVuSans-74" x="124.755859"/>
      <use xlink:href="#DejaVuSans-65" x="163.964844"/>
     </g>
    </g>
   </g>
   <g id="matplotlib.axis_2">
    <g id="ytick_1">
     <g id="line2d_18">
      <defs>
       <path id="m9378900594" d="M 0 0
L -3.5 0
" style="stroke: #000000; stroke-width: 0.8"/>
      </defs>
      <g>
       <use xlink:href="#m9378900594" x="46.965625" y="101.698125" style="stroke: #000000; stroke-width: 0.8"/>
      </g>
     </g>
     <g id="text_7">
      <!-- 0 -->
      <g transform="translate(33.603125 105.497344) scale(0.1 -0.1)">
       <use xlink:href="#DejaVuSans-30"/>
      </g>
     </g>
    </g>
    <g id="ytick_2">
     <g id="line2d_19">
      <g>
       <use xlink:href="#m9378900594" x="46.965625" y="67.019226" style="stroke: #000000; stroke-width: 0.8"/>
      </g>
     </g>
     <g id="text_8">
      <!-- 50 -->
      <g transform="translate(27.240625 70.818445) scale(0.1 -0.1)">
       <defs>
        <path id="DejaVuSans-35" d="M 691 4666
L 3169 4666
L 3169 4134
L 1269 4134
L 1269 2991
Q 1406 3038 1543 3061
Q 1681 3084 1819 3084
Q 2600 3084 3056 2656
Q 3513 2228 3513 1497
Q 3513 744 3044 326
Q 2575 -91 1722 -91
Q 1428 -91 1123 -41
Q 819 9 494 109
L 494 744
Q 775 591 1075 516
Q 1375 441 1709 441
Q 2250 441 2565 725
Q 2881 1009 2881 1497
Q 2881 1984 2565 2268
Q 2250 2553 1709 2553
Q 1456 2553 1204 2497
Q 953 2441 691 2322
L 691 4666
z
" transform="scale(0.015625)"/>
       </defs>
       <use xlink:href="#DejaVuSans-35"/>
       <use xlink:href="#DejaVuSans-30" x="63.623047"/>
      </g>
     </g>
    </g>
    <g id="ytick_3">
     <g id="line2d_20">
      <g>
       <use xlink:href="#m9378900594" x="46.965625" y="32.340327" style="stroke: #000000; stroke-width: 0.8"/>
      </g>
     </g>
     <g id="text_9">
      <!-- 100 -->
      <g transform="translate(20.878125 36.139546) scale(0.1 -0.1)">
       <use xlink:href="#DejaVuSans-31"/>
       <use xlink:href="#DejaVuSans-30" x="63.623047"/>
       <use xlink:href="#DejaVuSans-30" x="127.246094"/>
      </g>
     </g>
    </g>
    <g id="text_10">
     <!-- #protests -->
     <g transform="translate(14.798438 88.470781) rotate(-90) scale(0.1 -0.1)">
      <defs>
       <path id="DejaVuSans-23" d="M 3272 2816
L 2363 2816
L 2100 1772
L 3016 1772
L 3272 2816
z
M 2803 4594
L 2478 3297
L 3391 3297
L 3719 4594
L 4219 4594
L 3897 3297
L 4872 3297
L 4872 2816
L 3775 2816
L 3519 1772
L 4513 1772
L 4513 1294
L 3397 1294
L 3072 0
L 2572 0
L 2894 1294
L 1978 1294
L 1656 0
L 1153 0
L 1478 1294
L 494 1294
L 494 1772
L 1594 1772
L 1856 2816
L 850 2816
L 850 3297
L 1978 3297
L 2297 4594
L 2803 4594
z
" transform="scale(0.015625)"/>
       <path id="DejaVuSans-70" d="M 1159 525
L 1159 -1331
L 581 -1331
L 581 3500
L 1159 3500
L 1159 2969
Q 1341 3281 1617 3432
Q 1894 3584 2278 3584
Q 2916 3584 3314 3078
Q 3713 2572 3713 1747
Q 3713 922 3314 415
Q 2916 -91 2278 -91
Q 1894 -91 1617 61
Q 1341 213 1159 525
z
M 3116 1747
Q 3116 2381 2855 2742
Q 2594 3103 2138 3103
Q 1681 3103 1420 2742
Q 1159 2381 1159 1747
Q 1159 1113 1420 752
Q 1681 391 2138 391
Q 2594 391 2855 752
Q 3116 1113 3116 1747
z
" transform="scale(0.015625)"/>
       <path id="DejaVuSans-72" d="M 2631 2963
Q 2534 3019 2420 3045
Q 2306 3072 2169 3072
Q 1681 3072 1420 2755
Q 1159 2438 1159 1844
L 1159 0
L 581 0
L 581 3500
L 1159 3500
L 1159 2956
Q 1341 3275 1631 3429
Q 1922 3584 2338 3584
Q 2397 3584 2469 3576
Q 2541 3569 2628 3553
L 2631 2963
z
" transform="scale(0.015625)"/>
       <path id="DejaVuSans-6f" d="M 1959 3097
Q 1497 3097 1228 2736
Q 959 2375 959 1747
Q 959 1119 1226 758
Q 1494 397 1959 397
Q 2419 397 2687 759
Q 2956 1122 2956 1747
Q 2956 2369 2687 2733
Q 2419 3097 1959 3097
z
M 1959 3584
Q 2709 3584 3137 3096
Q 3566 2609 3566 1747
Q 3566 888 3137 398
Q 2709 -91 1959 -91
Q 1206 -91 779 398
Q 353 888 353 1747
Q 353 2609 779 3096
Q 1206 3584 1959 3584
z
" transform="scale(0.015625)"/>
       <path id="DejaVuSans-73" d="M 2834 3397
L 2834 2853
Q 2591 2978 2328 3040
Q 2066 3103 1784 3103
Q 1356 3103 1142 2972
Q 928 2841 928 2578
Q 928 2378 1081 2264
Q 1234 2150 1697 2047
L 1894 2003
Q 2506 1872 2764 1633
Q 3022 1394 3022 966
Q 3022 478 2636 193
Q 2250 -91 1575 -91
Q 1294 -91 989 -36
Q 684 19 347 128
L 347 722
Q 666 556 975 473
Q 1284 391 1588 391
Q 1994 391 2212 530
Q 2431 669 2431 922
Q 2431 1156 2273 1281
Q 2116 1406 1581 1522
L 1381 1569
Q 847 1681 609 1914
Q 372 2147 372 2553
Q 372 3047 722 3315
Q 1072 3584 1716 3584
Q 2034 3584 2315 3537
Q 2597 3491 2834 3397
z
" transform="scale(0.015625)"/>
      </defs>
      <use xlink:href="#DejaVuSans-23"/>
      <use xlink:href="#DejaVuSans-70" x="83.789062"/>
      <use xlink:href="#DejaVuSans-72" x="147.265625"/>
      <use xlink:href="#DejaVuSans-6f" x="186.128906"/>
      <use xlink:href="#DejaVuSans-74" x="247.310547"/>
      <use xlink:href="#DejaVuSans-65" x="286.519531"/>
      <use xlink:href="#DejaVuSans-73" x="348.042969"/>
      <use xlink:href="#DejaVuSans-74" x="400.142578"/>
      <use xlink:href="#DejaVuSans-73" x="439.351562"/>
     </g>
    </g>
   </g>
   <g id="line2d_21">
    <path d="M 46.965625 101.698125
L 238.509856 101.698125
L 242.265625 98.230235
L 246.021394 85.052253
L 249.777163 85.745831
L 253.532933 94.762345
L 261.044471 89.213721
L 264.80024 88.520143
L 268.55601 96.843079
L 272.311779 100.310969
L 276.067548 98.230235
L 279.823317 101.698125
L 283.579087 101.004547
L 287.334856 101.698125
L 291.090625 100.310969
L 298.602163 101.698125
L 302.357933 89.907299
L 306.113702 94.762345
L 309.869471 98.230235
L 313.62524 98.923813
L 317.38101 98.230235
L 321.136779 96.843079
L 324.892548 92.681611
L 328.648317 99.617391
L 332.404087 85.052253
L 336.159856 94.068767
L 339.915625 89.907299
L 343.671394 98.923813
L 347.427163 94.762345
L 351.182933 97.536657
L 354.938702 96.843079
L 358.694471 93.375189
L 362.45024 96.843079
L 366.20601 91.294455
L 369.961779 96.843079
L 373.717548 88.520143
L 377.473317 96.149501
L 381.229087 97.536657
L 384.984856 26.791703
L 388.740625 99.617391
L 392.496394 96.843079
L 396.252163 99.617391
L 400.007933 97.536657
L 403.763702 93.375189
L 407.519471 101.004547
L 411.27524 91.988033
L 415.03101 96.843079
L 418.786779 94.762345
L 422.542548 98.230235
L 426.298317 88.520143
L 430.054087 101.004547
L 433.809856 101.698125
L 441.321394 100.310969
L 445.077163 93.375189
L 448.832933 94.762345
L 452.588702 101.698125
L 456.344471 99.617391
L 460.10024 98.923813
L 463.85601 96.843079
L 471.367548 99.617391
L 475.123317 95.455923
L 478.879087 53.841244
L 482.634856 97.536657
L 490.146394 98.923813
L 493.902163 97.536657
L 497.657933 94.762345
L 501.413702 94.068767
L 505.169471 98.230235
L 508.92524 88.520143
L 512.68101 98.230235
L 516.436779 89.907299
L 520.192548 90.600877
L 523.948317 96.843079
L 531.459856 89.907299
L 535.215625 94.762345
L 538.971394 97.536657
L 542.727163 96.843079
L 546.482933 94.068767
L 550.238702 97.536657
L 557.75024 97.536657
L 561.50601 89.907299
L 565.261779 99.617391
L 569.017548 98.230235
L 572.773317 94.068767
L 576.529087 94.068767
L 580.284856 26.098125
L 584.040625 99.617391
L 587.796394 100.310969
L 591.552163 100.310969
L 595.307933 96.843079
L 599.063702 99.617391
L 602.819471 98.230235
L 606.57524 98.923813
L 610.33101 98.230235
L 614.086779 100.310969
L 621.598317 96.149501
L 625.354087 100.310969
L 629.109856 101.698125
L 632.865625 101.004547
L 636.621394 96.843079
L 640.377163 96.149501
L 644.132933 94.762345
L 647.888702 96.149501
L 651.644471 91.988033
L 655.40024 100.310969
L 659.15601 98.230235
L 662.911779 94.762345
L 666.667548 92.681611
L 670.423317 100.310969
L 674.179087 98.923813
L 677.934856 56.615556
L 681.690625 101.004547
L 685.446394 100.310969
L 689.202163 94.762345
L 692.957933 98.923813
L 696.713702 99.617391
L 700.469471 99.617391
L 704.22524 93.375189
L 707.98101 95.455923
L 711.736779 94.762345
L 715.492548 94.762345
L 719.248317 96.149501
L 723.004087 91.294455
L 726.759856 97.536657
L 730.515625 94.762345
L 734.271394 94.762345
L 741.782933 100.310969
L 745.538702 97.536657
L 749.294471 98.923813
L 753.05024 94.762345
L 756.80601 100.310969
L 760.561779 98.923813
L 764.317548 98.230235
L 768.073317 98.230235
L 771.829087 99.617391
L 775.584856 79.50363
L 779.340625 99.617391
L 783.096394 92.681611
L 786.852163 95.455923
L 790.607933 93.375189
L 794.363702 88.520143
L 798.119471 89.213721
L 805.63101 100.310969
L 809.386779 95.455923
L 813.142548 97.536657
L 816.898317 89.907299
L 820.654087 94.762345
L 824.409856 96.149501
L 828.165625 101.004547
L 828.165625 101.004547
" clip-path="url(#p60da25b06c)" style="fill: none; stroke: #1f77b4; stroke-linecap: square"/>
   </g>
   <g id="line2d_22">
    <path d="M 46.965625 99.617391
L 50.721394 100.310969
L 54.477163 94.068767
L 58.232933 97.536657
L 61.988702 94.068767
L 65.744471 96.149501
L 69.50024 93.375189
L 73.25601 96.843079
L 77.011779 95.455923
L 80.767548 98.923813
L 84.523317 87.826565
L 88.279087 94.068767
L 92.034856 93.375189
L 95.790625 98.230235
L 99.546394 91.988033
L 103.302163 94.068767
L 107.057933 94.068767
L 114.569471 96.843079
L 118.32524 92.681611
L 122.08101 87.132987
L 125.836779 94.762345
L 129.592548 93.375189
L 133.348317 91.294455
L 137.104087 93.375189
L 140.859856 91.988033
L 144.615625 92.681611
L 148.371394 96.843079
L 152.127163 93.375189
L 155.882933 94.762345
L 159.638702 94.068767
L 163.394471 94.068767
L 167.15024 85.052253
L 170.90601 89.907299
L 174.661779 94.068767
L 178.417548 89.907299
L 182.173317 80.890786
L 185.929087 63.551336
L 189.684856 81.584364
L 193.440625 90.600877
L 197.196394 71.874272
L 200.952163 80.197208
L 204.707933 91.294455
L 208.463702 91.988033
L 212.219471 89.907299
L 215.97524 78.810052
L 219.73101 82.971519
L 223.486779 69.793538
L 227.242548 76.03574
L 230.998317 80.890786
L 234.754087 78.810052
L 238.509856 97.536657
L 242.265625 94.762345
L 246.021394 94.762345
L 249.777163 85.745831
L 253.532933 90.600877
L 257.288702 87.826565
L 261.044471 94.762345
L 264.80024 92.681611
L 268.55601 95.455923
L 272.311779 91.294455
L 279.823317 95.455923
L 283.579087 99.617391
L 287.334856 97.536657
L 291.090625 100.310969
L 294.846394 101.004547
L 298.602163 101.004547
L 302.357933 95.455923
L 306.113702 96.843079
L 309.869471 96.149501
L 313.62524 97.536657
L 317.38101 91.294455
L 321.136779 94.762345
L 324.892548 89.213721
L 328.648317 99.617391
L 332.404087 87.826565
L 336.159856 96.843079
L 339.915625 75.342162
L 343.671394 89.213721
L 347.427163 90.600877
L 351.182933 98.230235
L 354.938702 93.375189
L 358.694471 91.294455
L 362.45024 98.230235
L 366.20601 91.988033
L 369.961779 93.375189
L 373.717548 95.455923
L 377.473317 94.068767
L 381.229087 89.213721
L 384.984856 88.520143
L 388.740625 94.762345
L 392.496394 94.762345
L 396.252163 96.149501
L 400.007933 95.455923
L 403.763702 96.149501
L 407.519471 95.455923
L 411.27524 91.988033
L 415.03101 94.762345
L 418.786779 91.294455
L 422.542548 92.681611
L 426.298317 83.665097
L 430.054087 94.762345
L 433.809856 98.923813
L 437.565625 101.004547
L 441.321394 99.617391
L 445.077163 95.455923
L 448.832933 95.455923
L 452.588702 94.762345
L 456.344471 94.762345
L 460.10024 95.455923
L 463.85601 95.455923
L 467.611779 94.068767
L 471.367548 93.375189
L 475.123317 91.988033
L 478.879087 71.180694
L 482.634856 91.988033
L 486.390625 97.536657
L 490.146394 95.455923
L 493.902163 96.843079
L 497.657933 92.681611
L 501.413702 94.762345
L 505.169471 93.375189
L 508.92524 91.294455
L 512.68101 87.132987
L 516.436779 91.294455
L 520.192548 90.600877
L 523.948317 88.520143
L 527.704087 91.294455
L 531.459856 91.294455
L 535.215625 89.907299
L 538.971394 92.681611
L 542.727163 89.907299
L 546.482933 89.907299
L 550.238702 94.068767
L 553.994471 88.520143
L 557.75024 87.826565
L 561.50601 75.342162
L 565.261779 87.132987
L 569.017548 64.244914
L 572.773317 60.777024
L 576.529087 74.648584
L 580.284856 58.69629
L 584.040625 93.375189
L 587.796394 91.988033
L 591.552163 91.294455
L 595.307933 87.132987
L 599.063702 88.520143
L 602.819471 90.600877
L 606.57524 94.068767
L 610.33101 88.520143
L 614.086779 93.375189
L 617.842548 96.843079
L 621.598317 93.375189
L 625.354087 95.455923
L 629.109856 99.617391
L 632.865625 100.310969
L 636.621394 96.843079
L 640.377163 97.536657
L 647.888702 94.762345
L 651.644471 96.149501
L 655.40024 93.375189
L 659.15601 96.149501
L 662.911779 92.681611
L 666.667548 93.375189
L 670.423317 95.455923
L 674.179087 92.681611
L 677.934856 82.277942
L 681.690625 93.375189
L 685.446394 98.230235
L 689.202163 99.617391
L 692.957933 96.149501
L 696.713702 95.455923
L 700.469471 90.600877
L 704.22524 94.068767
L 707.98101 90.600877
L 711.736779 94.762345
L 715.492548 91.294455
L 719.248317 97.536657
L 723.004087 91.988033
L 726.759856 92.681611
L 734.271394 95.455923
L 738.027163 96.149501
L 741.782933 97.536657
L 749.294471 96.149501
L 753.05024 96.843079
L 756.80601 93.375189
L 760.561779 91.988033
L 764.317548 93.375189
L 768.073317 94.068767
L 771.829087 93.375189
L 775.584856 77.422896
L 779.340625 96.149501
L 783.096394 91.988033
L 786.852163 97.536657
L 790.607933 98.230235
L 794.363702 93.375189
L 798.119471 87.826565
L 801.87524 84.358675
L 805.63101 92.681611
L 809.386779 96.843079
L 813.142548 96.149501
L 820.654087 91.988033
L 824.409856 98.923813
L 828.165625 100.310969
L 828.165625 100.310969
" clip-path="url(#p60da25b06c)" style="fill: none; stroke: #ff7f0e; stroke-linecap: square"/>
   </g>
   <g id="line2d_23">
    <path d="M 46.965625 101.698125
L 50.721394 101.698125
L 54.477163 90.600877
L 58.232933 95.455923
L 61.988702 99.617391
L 65.744471 96.149501
L 69.50024 98.923813
L 73.25601 100.310969
L 77.011779 91.988033
L 80.767548 100.310969
L 84.523317 74.648584
L 88.279087 101.004547
L 92.034856 100.310969
L 95.790625 100.310969
L 99.546394 96.843079
L 103.302163 94.068767
L 107.057933 95.455923
L 110.813702 98.230235
L 114.569471 99.617391
L 118.32524 98.230235
L 122.08101 71.180694
L 125.836779 101.698125
L 129.592548 97.536657
L 133.348317 96.843079
L 137.104087 70.487116
L 140.859856 89.907299
L 144.615625 100.310969
L 148.371394 87.826565
L 152.127163 96.149501
L 155.882933 97.536657
L 159.638702 92.681611
L 163.394471 100.310969
L 167.15024 98.923813
L 170.90601 99.617391
L 174.661779 98.923813
L 178.417548 101.698125
L 182.173317 91.294455
L 185.929087 37.888951
L 189.684856 91.988033
L 193.440625 100.310969
L 197.196394 85.745831
L 200.952163 98.923813
L 204.707933 99.617391
L 208.463702 98.923813
L 212.219471 101.004547
L 215.97524 101.698125
L 219.73101 98.923813
L 223.486779 53.147666
L 227.242548 100.310969
L 230.998317 98.230235
L 234.754087 101.698125
L 238.509856 94.068767
L 242.265625 101.698125
L 246.021394 98.923813
L 249.777163 89.907299
L 253.532933 99.617391
L 257.288702 98.230235
L 261.044471 98.923813
L 264.80024 100.310969
L 268.55601 98.230235
L 272.311779 100.310969
L 276.067548 101.004547
L 279.823317 101.004547
L 283.579087 101.698125
L 287.334856 99.617391
L 291.090625 101.698125
L 298.602163 100.310969
L 302.357933 88.520143
L 306.113702 101.698125
L 309.869471 98.923813
L 313.62524 101.004547
L 317.38101 101.004547
L 321.136779 98.230235
L 324.892548 96.843079
L 328.648317 101.004547
L 332.404087 98.230235
L 336.159856 96.843079
L 339.915625 99.617391
L 343.671394 100.310969
L 351.182933 100.310969
L 354.938702 99.617391
L 358.694471 101.698125
L 362.45024 97.536657
L 366.20601 96.149501
L 369.961779 96.149501
L 373.717548 98.230235
L 377.473317 98.923813
L 381.229087 98.923813
L 384.984856 55.921978
L 388.740625 94.762345
L 392.496394 99.617391
L 396.252163 98.923813
L 400.007933 100.310969
L 403.763702 96.843079
L 407.519471 101.004547
L 411.27524 98.230235
L 415.03101 101.698125
L 418.786779 90.600877
L 422.542548 98.923813
L 426.298317 100.310969
L 430.054087 100.310969
L 433.809856 101.698125
L 437.565625 100.310969
L 441.321394 101.698125
L 445.077163 99.617391
L 448.832933 99.617391
L 452.588702 100.310969
L 456.344471 101.698125
L 460.10024 100.310969
L 467.611779 101.698125
L 471.367548 101.698125
L 475.123317 95.455923
L 478.879087 87.826565
L 482.634856 92.681611
L 486.390625 101.004547
L 490.146394 101.698125
L 493.902163 99.617391
L 497.657933 101.004547
L 501.413702 99.617391
L 505.169471 99.617391
L 508.92524 98.923813
L 512.68101 101.004547
L 516.436779 94.068767
L 520.192548 96.149501
L 523.948317 94.762345
L 527.704087 95.455923
L 535.215625 101.004547
L 542.727163 99.617391
L 546.482933 98.230235
L 550.238702 100.310969
L 553.994471 98.923813
L 557.75024 98.923813
L 561.50601 87.826565
L 565.261779 101.004547
L 569.017548 100.310969
L 572.773317 75.342162
L 576.529087 96.149501
L 580.284856 101.698125
L 610.33101 101.698125
L 614.086779 101.004547
L 617.842548 101.698125
L 621.598317 101.698125
L 625.354087 101.004547
L 629.109856 101.698125
L 696.713702 101.698125
L 700.469471 101.004547
L 704.22524 101.004547
L 707.98101 101.698125
L 719.248317 101.698125
L 723.004087 100.310969
L 726.759856 96.149501
L 730.515625 100.310969
L 734.271394 99.617391
L 738.027163 99.617391
L 741.782933 101.698125
L 745.538702 99.617391
L 749.294471 101.698125
L 753.05024 98.230235
L 756.80601 99.617391
L 760.561779 101.698125
L 771.829087 101.698125
L 775.584856 101.004547
L 779.340625 96.149501
L 783.096394 101.698125
L 786.852163 101.698125
L 790.607933 100.310969
L 794.363702 101.004547
L 798.119471 97.536657
L 801.87524 101.004547
L 805.63101 101.004547
L 809.386779 96.843079
L 813.142548 101.004547
L 816.898317 94.762345
L 820.654087 100.310969
L 824.409856 101.698125
L 828.165625 101.698125
L 828.165625 101.698125
" clip-path="url(#p60da25b06c)" style="fill: none; stroke: #2ca02c; stroke-linecap: square"/>
   </g>
   <g id="patch_3">
    <path d="M 46.965625 105.478125
L 46.965625 22.318125
" style="fill: none; stroke: #000000; stroke-width: 0.8; stroke-linejoin: miter; stroke-linecap: square"/>
   </g>
   <g id="patch_4">
    <path d="M 828.165625 105.478125
L 828.165625 22.318125
" style="fill: none; stroke: #000000; stroke-width: 0.8; stroke-linejoin: miter; stroke-linecap: square"/>
   </g>
   <g id="patch_5">
    <path d="M 46.965625 105.478125
L 828.165625 105.478125
" style="fill: none; stroke: #000000; stroke-width: 0.8; stroke-linejoin: miter; stroke-linecap: square"/>
   </g>
   <g id="patch_6">
    <path d="M 46.965625 22.318125
L 828.165625 22.318125
" style="fill: none; stroke: #000000; stroke-width: 0.8; stroke-linejoin: miter; stroke-linecap: square"/>
   </g>
   <g id="text_11">
    <!-- Number of climate protests in Germany per week -->
    <g transform="translate(288.894063 16.318125) scale(0.12 -0.12)">
     <defs>
      <path id="DejaVuSans-4e" d="M 628 4666
L 1478 4666
L 3547 763
L 3547 4666
L 4159 4666
L 4159 0
L 3309 0
L 1241 3903
L 1241 0
L 628 0
L 628 4666
z
" transform="scale(0.015625)"/>
      <path id="DejaVuSans-75" d="M 544 1381
L 544 3500
L 1119 3500
L 1119 1403
Q 1119 906 1312 657
Q 1506 409 1894 409
Q 2359 409 2629 706
Q 2900 1003 2900 1516
L 2900 3500
L 3475 3500
L 3475 0
L 2900 0
L 2900 538
Q 2691 219 2414 64
Q 2138 -91 1772 -91
Q 1169 -91 856 284
Q 544 659 544 1381
z
M 1991 3584
L 1991 3584
z
" transform="scale(0.015625)"/>
      <path id="DejaVuSans-6d" d="M 3328 2828
Q 3544 3216 3844 3400
Q 4144 3584 4550 3584
Q 5097 3584 5394 3201
Q 5691 2819 5691 2113
L 5691 0
L 5113 0
L 5113 2094
Q 5113 2597 4934 2840
Q 4756 3084 4391 3084
Q 3944 3084 3684 2787
Q 3425 2491 3425 1978
L 3425 0
L 2847 0
L 2847 2094
Q 2847 2600 2669 2842
Q 2491 3084 2119 3084
Q 1678 3084 1418 2786
Q 1159 2488 1159 1978
L 1159 0
L 581 0
L 581 3500
L 1159 3500
L 1159 2956
Q 1356 3278 1631 3431
Q 1906 3584 2284 3584
Q 2666 3584 2933 3390
Q 3200 3197 3328 2828
z
" transform="scale(0.015625)"/>
      <path id="DejaVuSans-62" d="M 3116 1747
Q 3116 2381 2855 2742
Q 2594 3103 2138 3103
Q 1681 3103 1420 2742
Q 1159 2381 1159 1747
Q 1159 1113 1420 752
Q 1681 391 2138 391
Q 2594 391 2855 752
Q 3116 1113 3116 1747
z
M 1159 2969
Q 1341 3281 1617 3432
Q 1894 3584 2278 3584
Q 2916 3584 3314 3078
Q 3713 2572 3713 1747
Q 3713 922 3314 415
Q 2916 -91 2278 -91
Q 1894 -91 1617 61
Q 1341 213 1159 525
L 1159 0
L 581 0
L 581 4863
L 1159 4863
L 1159 2969
z
" transform="scale(0.015625)"/>
      <path id="DejaVuSans-20" transform="scale(0.015625)"/>
      <path id="DejaVuSans-66" d="M 2375 4863
L 2375 4384
L 1825 4384
Q 1516 4384 1395 4259
Q 1275 4134 1275 3809
L 1275 3500
L 2222 3500
L 2222 3053
L 1275 3053
L 1275 0
L 697 0
L 697 3053
L 147 3053
L 147 3500
L 697 3500
L 697 3744
Q 697 4328 969 4595
Q 1241 4863 1831 4863
L 2375 4863
z
" transform="scale(0.015625)"/>
      <path id="DejaVuSans-63" d="M 3122 3366
L 3122 2828
Q 2878 2963 2633 3030
Q 2388 3097 2138 3097
Q 1578 3097 1268 2742
Q 959 2388 959 1747
Q 959 1106 1268 751
Q 1578 397 2138 397
Q 2388 397 2633 464
Q 2878 531 3122 666
L 3122 134
Q 2881 22 2623 -34
Q 2366 -91 2075 -91
Q 1284 -91 818 406
Q 353 903 353 1747
Q 353 2603 823 3093
Q 1294 3584 2113 3584
Q 2378 3584 2631 3529
Q 2884 3475 3122 3366
z
" transform="scale(0.015625)"/>
      <path id="DejaVuSans-6c" d="M 603 4863
L 1178 4863
L 1178 0
L 603 0
L 603 4863
z
" transform="scale(0.015625)"/>
      <path id="DejaVuSans-69" d="M 603 3500
L 1178 3500
L 1178 0
L 603 0
L 603 3500
z
M 603 4863
L 1178 4863
L 1178 4134
L 603 4134
L 603 4863
z
" transform="scale(0.015625)"/>
      <path id="DejaVuSans-6e" d="M 3513 2113
L 3513 0
L 2938 0
L 2938 2094
Q 2938 2591 2744 2837
Q 2550 3084 2163 3084
Q 1697 3084 1428 2787
Q 1159 2491 1159 1978
L 1159 0
L 581 0
L 581 3500
L 1159 3500
L 1159 2956
Q 1366 3272 1645 3428
Q 1925 3584 2291 3584
Q 2894 3584 3203 3211
Q 3513 2838 3513 2113
z
" transform="scale(0.015625)"/>
      <path id="DejaVuSans-47" d="M 3809 666
L 3809 1919
L 2778 1919
L 2778 2438
L 4434 2438
L 4434 434
Q 4069 175 3628 42
Q 3188 -91 2688 -91
Q 1594 -91 976 548
Q 359 1188 359 2328
Q 359 3472 976 4111
Q 1594 4750 2688 4750
Q 3144 4750 3555 4637
Q 3966 4525 4313 4306
L 4313 3634
Q 3963 3931 3569 4081
Q 3175 4231 2741 4231
Q 1884 4231 1454 3753
Q 1025 3275 1025 2328
Q 1025 1384 1454 906
Q 1884 428 2741 428
Q 3075 428 3337 486
Q 3600 544 3809 666
z
" transform="scale(0.015625)"/>
      <path id="DejaVuSans-79" d="M 2059 -325
Q 1816 -950 1584 -1140
Q 1353 -1331 966 -1331
L 506 -1331
L 506 -850
L 844 -850
Q 1081 -850 1212 -737
Q 1344 -625 1503 -206
L 1606 56
L 191 3500
L 800 3500
L 1894 763
L 2988 3500
L 3597 3500
L 2059 -325
z
" transform="scale(0.015625)"/>
      <path id="DejaVuSans-77" d="M 269 3500
L 844 3500
L 1563 769
L 2278 3500
L 2956 3500
L 3675 769
L 4391 3500
L 4966 3500
L 4050 0
L 3372 0
L 2619 2869
L 1863 0
L 1184 0
L 269 3500
z
" transform="scale(0.015625)"/>
      <path id="DejaVuSans-6b" d="M 581 4863
L 1159 4863
L 1159 1991
L 2875 3500
L 3609 3500
L 1753 1863
L 3688 0
L 2938 0
L 1159 1709
L 1159 0
L 581 0
L 581 4863
z
" transform="scale(0.015625)"/>
     </defs>
     <use xlink:href="#DejaVuSans-4e"/>
     <use xlink:href="#DejaVuSans-75" x="74.804688"/>
     <use xlink:href="#DejaVuSans-6d" x="138.183594"/>
     <use xlink:href="#DejaVuSans-62" x="235.595703"/>
     <use xlink:href="#DejaVuSans-65" x="299.072266"/>
     <use xlink:href="#DejaVuSans-72" x="360.595703"/>
     <use xlink:href="#DejaVuSans-20" x="401.708984"/>
     <use xlink:href="#DejaVuSans-6f" x="433.496094"/>
     <use xlink:href="#DejaVuSans-66" x="494.677734"/>
     <use xlink:href="#DejaVuSans-20" x="529.882812"/>
     <use xlink:href="#DejaVuSans-63" x="561.669922"/>
     <use xlink:href="#DejaVuSans-6c" x="616.650391"/>
     <use xlink:href="#DejaVuSans-69" x="644.433594"/>
     <use xlink:href="#DejaVuSans-6d" x="672.216797"/>
     <use xlink:href="#DejaVuSans-61" x="769.628906"/>
     <use xlink:href="#DejaVuSans-74" x="830.908203"/>
     <use xlink:href="#DejaVuSans-65" x="870.117188"/>
     <use xlink:href="#DejaVuSans-20" x="931.640625"/>
     <use xlink:href="#DejaVuSans-70" x="963.427734"/>
     <use xlink:href="#DejaVuSans-72" x="1026.904297"/>
     <use xlink:href="#DejaVuSans-6f" x="1065.767578"/>
     <use xlink:href="#DejaVuSans-74" x="1126.949219"/>
     <use xlink:href="#DejaVuSans-65" x="1166.158203"/>
     <use xlink:href="#DejaVuSans-73" x="1227.681641"/>
     <use xlink:href="#DejaVuSans-74" x="1279.78125"/>
     <use xlink:href="#DejaVuSans-73" x="1318.990234"/>
     <use xlink:href="#DejaVuSans-20" x="1371.089844"/>
     <use xlink:href="#DejaVuSans-69" x="1402.876953"/>
     <use xlink:href="#DejaVuSans-6e" x="1430.660156"/>
     <use xlink:href="#DejaVuSans-20" x="1494.039062"/>
     <use xlink:href="#DejaVuSans-47" x="1525.826172"/>
     <use xlink:href="#DejaVuSans-65" x="1603.316406"/>
     <use xlink:href="#DejaVuSans-72" x="1664.839844"/>
     <use xlink:href="#DejaVuSans-6d" x="1704.203125"/>
     <use xlink:href="#DejaVuSans-61" x="1801.615234"/>
     <use xlink:href="#DejaVuSans-6e" x="1862.894531"/>
     <use xlink:href="#DejaVuSans-79" x="1926.273438"/>
     <use xlink:href="#DejaVuSans-20" x="1985.453125"/>
     <use xlink:href="#DejaVuSans-70" x="2017.240234"/>
     <use xlink:href="#DejaVuSans-65" x="2080.716797"/>
     <use xlink:href="#DejaVuSans-72" x="2142.240234"/>
     <use xlink:href="#DejaVuSans-20" x="2183.353516"/>
     <use xlink:href="#DejaVuSans-77" x="2215.140625"/>
     <use xlink:href="#DejaVuSans-65" x="2296.927734"/>
     <use xlink:href="#DejaVuSans-65" x="2358.451172"/>
     <use xlink:href="#DejaVuSans-6b" x="2419.974609"/>
    </g>
   </g>
   <g id="legend_1">
    <g id="patch_7">
     <path d="M 324.167969 161.42025
L 550.963281 161.42025
Q 552.963281 161.42025 552.963281 159.42025
L 552.963281 145.742125
Q 552.963281 143.742125 550.963281 143.742125
L 324.167969 143.742125
Q 322.167969 143.742125 322.167969 145.742125
L 322.167969 159.42025
Q 322.167969 161.42025 324.167969 161.42025
z
" style="fill: #ffffff; opacity: 0.8; stroke: #cccccc; stroke-linejoin: miter"/>
    </g>
    <g id="line2d_24">
     <path d="M 326.167969 151.840563
L 336.167969 151.840563
L 346.167969 151.840563
" style="fill: none; stroke: #1f77b4; stroke-linecap: square"/>
    </g>
    <g id="text_12">
     <!-- ACLED -->
     <g transform="translate(354.167969 155.340563) scale(0.1 -0.1)">
      <defs>
       <path id="DejaVuSans-41" d="M 2188 4044
L 1331 1722
L 3047 1722
L 2188 4044
z
M 1831 4666
L 2547 4666
L 4325 0
L 3669 0
L 3244 1197
L 1141 1197
L 716 0
L 50 0
L 1831 4666
z
" transform="scale(0.015625)"/>
       <path id="DejaVuSans-43" d="M 4122 4306
L 4122 3641
Q 3803 3938 3442 4084
Q 3081 4231 2675 4231
Q 1875 4231 1450 3742
Q 1025 3253 1025 2328
Q 1025 1406 1450 917
Q 1875 428 2675 428
Q 3081 428 3442 575
Q 3803 722 4122 1019
L 4122 359
Q 3791 134 3420 21
Q 3050 -91 2638 -91
Q 1578 -91 968 557
Q 359 1206 359 2328
Q 359 3453 968 4101
Q 1578 4750 2638 4750
Q 3056 4750 3426 4639
Q 3797 4528 4122 4306
z
" transform="scale(0.015625)"/>
       <path id="DejaVuSans-4c" d="M 628 4666
L 1259 4666
L 1259 531
L 3531 531
L 3531 0
L 628 0
L 628 4666
z
" transform="scale(0.015625)"/>
       <path id="DejaVuSans-45" d="M 628 4666
L 3578 4666
L 3578 4134
L 1259 4134
L 1259 2753
L 3481 2753
L 3481 2222
L 1259 2222
L 1259 531
L 3634 531
L 3634 0
L 628 0
L 628 4666
z
" transform="scale(0.015625)"/>
       <path id="DejaVuSans-44" d="M 1259 4147
L 1259 519
L 2022 519
Q 2988 519 3436 956
Q 3884 1394 3884 2338
Q 3884 3275 3436 3711
Q 2988 4147 2022 4147
L 1259 4147
z
M 628 4666
L 1925 4666
Q 3281 4666 3915 4102
Q 4550 3538 4550 2338
Q 4550 1131 3912 565
Q 3275 0 1925 0
L 628 0
L 628 4666
z
" transform="scale(0.015625)"/>
      </defs>
      <use xlink:href="#DejaVuSans-41"/>
      <use xlink:href="#DejaVuSans-43" x="66.658203"/>
      <use xlink:href="#DejaVuSans-4c" x="136.482422"/>
      <use xlink:href="#DejaVuSans-45" x="192.195312"/>
      <use xlink:href="#DejaVuSans-44" x="255.378906"/>
     </g>
    </g>
    <g id="line2d_25">
     <path d="M 407.407031 151.840563
L 417.407031 151.840563
L 427.407031 151.840563
" style="fill: none; stroke: #ff7f0e; stroke-linecap: square"/>
    </g>
    <g id="text_13">
     <!-- GPReg -->
     <g transform="translate(435.407031 155.340563) scale(0.1 -0.1)">
      <defs>
       <path id="DejaVuSans-50" d="M 1259 4147
L 1259 2394
L 2053 2394
Q 2494 2394 2734 2622
Q 2975 2850 2975 3272
Q 2975 3691 2734 3919
Q 2494 4147 2053 4147
L 1259 4147
z
M 628 4666
L 2053 4666
Q 2838 4666 3239 4311
Q 3641 3956 3641 3272
Q 3641 2581 3239 2228
Q 2838 1875 2053 1875
L 1259 1875
L 1259 0
L 628 0
L 628 4666
z
" transform="scale(0.015625)"/>
       <path id="DejaVuSans-52" d="M 2841 2188
Q 3044 2119 3236 1894
Q 3428 1669 3622 1275
L 4263 0
L 3584 0
L 2988 1197
Q 2756 1666 2539 1819
Q 2322 1972 1947 1972
L 1259 1972
L 1259 0
L 628 0
L 628 4666
L 2053 4666
Q 2853 4666 3247 4331
Q 3641 3997 3641 3322
Q 3641 2881 3436 2590
Q 3231 2300 2841 2188
z
M 1259 4147
L 1259 2491
L 2053 2491
Q 2509 2491 2742 2702
Q 2975 2913 2975 3322
Q 2975 3731 2742 3939
Q 2509 4147 2053 4147
L 1259 4147
z
" transform="scale(0.015625)"/>
       <path id="DejaVuSans-67" d="M 2906 1791
Q 2906 2416 2648 2759
Q 2391 3103 1925 3103
Q 1463 3103 1205 2759
Q 947 2416 947 1791
Q 947 1169 1205 825
Q 1463 481 1925 481
Q 2391 481 2648 825
Q 2906 1169 2906 1791
z
M 3481 434
Q 3481 -459 3084 -895
Q 2688 -1331 1869 -1331
Q 1566 -1331 1297 -1286
Q 1028 -1241 775 -1147
L 775 -588
Q 1028 -725 1275 -790
Q 1522 -856 1778 -856
Q 2344 -856 2625 -561
Q 2906 -266 2906 331
L 2906 616
Q 2728 306 2450 153
Q 2172 0 1784 0
Q 1141 0 747 490
Q 353 981 353 1791
Q 353 2603 747 3093
Q 1141 3584 1784 3584
Q 2172 3584 2450 3431
Q 2728 3278 2906 2969
L 2906 3500
L 3481 3500
L 3481 434
z
" transform="scale(0.015625)"/>
      </defs>
      <use xlink:href="#DejaVuSans-47"/>
      <use xlink:href="#DejaVuSans-50" x="77.490234"/>
      <use xlink:href="#DejaVuSans-52" x="137.792969"/>
      <use xlink:href="#DejaVuSans-65" x="202.775391"/>
      <use xlink:href="#DejaVuSans-67" x="264.298828"/>
     </g>
    </g>
    <g id="line2d_26">
     <path d="M 488.185156 151.840563
L 498.185156 151.840563
L 508.185156 151.840563
" style="fill: none; stroke: #2ca02c; stroke-linecap: square"/>
    </g>
    <g id="text_14">
     <!-- GPRep -->
     <g transform="translate(516.185156 155.340563) scale(0.1 -0.1)">
      <use xlink:href="#DejaVuSans-47"/>
      <use xlink:href="#DejaVuSans-50" x="77.490234"/>
      <use xlink:href="#DejaVuSans-52" x="137.792969"/>
      <use xlink:href="#DejaVuSans-65" x="202.775391"/>
      <use xlink:href="#DejaVuSans-70" x="264.298828"/>
     </g>
    </g>
   </g>
  </g>
 </g>
 <defs>
  <clipPath id="p60da25b06c">
   <rect x="46.965625" y="22.318125" width="781.2" height="83.16"/>
  </clipPath>
 </defs>
</svg>
