<?xml version="1.0" encoding="utf-8" standalone="no"?>
<!DOCTYPE svg PUBLIC "-//W3C//DTD SVG 1.1//EN"
  "http://www.w3.org/Graphics/SVG/1.1/DTD/svg11.dtd">
<svg xmlns:xlink="http://www.w3.org/1999/xlink" width="540.325pt" height="256.637344pt" viewBox="0 0 540.325 256.637344" xmlns="http://www.w3.org/2000/svg" version="1.1">
 <metadata>
  <rdf:RDF xmlns:dc="http://purl.org/dc/elements/1.1/" xmlns:cc="http://creativecommons.org/ns#" xmlns:rdf="http://www.w3.org/1999/02/22-rdf-syntax-ns#">
   <cc:Work>
    <dc:type rdf:resource="http://purl.org/dc/dcmitype/StillImage"/>
    <dc:date>2023-09-01T19:21:18.678961</dc:date>
    <dc:format>image/svg+xml</dc:format>
    <dc:creator>
     <cc:Agent>
      <dc:title>Matplotlib v3.7.2, https://matplotlib.org/</dc:title>
     </cc:Agent>
    </dc:creator>
   </cc:Work>
  </rdf:RDF>
 </metadata>
 <defs>
  <style type="text/css">*{stroke-linejoin: round; stroke-linecap: butt}</style>
 </defs>
 <g id="figure_1">
  <g id="patch_1">
   <path d="M 0 256.637344
L 540.325 256.637344
L 540.325 0
L 0 0
z
" style="fill: #ffffff"/>
  </g>
  <g id="axes_1">
   <g id="patch_2">
    <path d="M 43.78125 232.759219
L 490.18125 232.759219
L 490.18125 10.999219
L 43.78125 10.999219
z
" style="fill: #ffffff"/>
   </g>
   <g id="matplotlib.axis_1">
    <g id="xtick_1">
     <g id="line2d_1">
      <defs>
       <path id="m79b4ee4414" d="M 0 0
L 0 3.5
" style="stroke: #000000; stroke-width: 0.8"/>
      </defs>
      <g>
       <use xlink:href="#m79b4ee4414" x="64.072159" y="232.759219" style="stroke: #000000; stroke-width: 0.8"/>
      </g>
     </g>
     <g id="text_1">
      <!-- 0 -->
      <g transform="translate(60.890909 247.357656) scale(0.1 -0.1)">
       <defs>
        <path id="DejaVuSans-30" d="M 2034 4250
Q 1547 4250 1301 3770
Q 1056 3291 1056 2328
Q 1056 1369 1301 889
Q 1547 409 2034 409
Q 2525 409 2770 889
Q 3016 1369 3016 2328
Q 3016 3291 2770 3770
Q 2525 4250 2034 4250
z
M 2034 4750
Q 2819 4750 3233 4129
Q 3647 3509 3647 2328
Q 3647 1150 3233 529
Q 2819 -91 2034 -91
Q 1250 -91 836 529
Q 422 1150 422 2328
Q 422 3509 836 4129
Q 1250 4750 2034 4750
z
" transform="scale(0.015625)"/>
       </defs>
       <use xlink:href="#DejaVuSans-30"/>
      </g>
     </g>
    </g>
    <g id="xtick_2">
     <g id="line2d_2">
      <g>
       <use xlink:href="#m79b4ee4414" x="122.379369" y="232.759219" style="stroke: #000000; stroke-width: 0.8"/>
      </g>
     </g>
     <g id="text_2">
      <!-- 500 -->
      <g transform="translate(112.835619 247.357656) scale(0.1 -0.1)">
       <defs>
        <path id="DejaVuSans-35" d="M 691 4666
L 3169 4666
L 3169 4134
L 1269 4134
L 1269 2991
Q 1406 3038 1543 3061
Q 1681 3084 1819 3084
Q 2600 3084 3056 2656
Q 3513 2228 3513 1497
Q 3513 744 3044 326
Q 2575 -91 1722 -91
Q 1428 -91 1123 -41
Q 819 9 494 109
L 494 744
Q 775 591 1075 516
Q 1375 441 1709 441
Q 2250 441 2565 725
Q 2881 1009 2881 1497
Q 2881 1984 2565 2268
Q 2250 2553 1709 2553
Q 1456 2553 1204 2497
Q 953 2441 691 2322
L 691 4666
z
" transform="scale(0.015625)"/>
       </defs>
       <use xlink:href="#DejaVuSans-35"/>
       <use xlink:href="#DejaVuSans-30" x="63.623047"/>
       <use xlink:href="#DejaVuSans-30" x="127.246094"/>
      </g>
     </g>
    </g>
    <g id="xtick_3">
     <g id="line2d_3">
      <g>
       <use xlink:href="#m79b4ee4414" x="180.686579" y="232.759219" style="stroke: #000000; stroke-width: 0.8"/>
      </g>
     </g>
     <g id="text_3">
      <!-- 1000 -->
      <g transform="translate(167.961579 247.357656) scale(0.1 -0.1)">
       <defs>
        <path id="DejaVuSans-31" d="M 794 531
L 1825 531
L 1825 4091
L 703 3866
L 703 4441
L 1819 4666
L 2450 4666
L 2450 531
L 3481 531
L 3481 0
L 794 0
L 794 531
z
" transform="scale(0.015625)"/>
       </defs>
       <use xlink:href="#DejaVuSans-31"/>
       <use xlink:href="#DejaVuSans-30" x="63.623047"/>
       <use xlink:href="#DejaVuSans-30" x="127.246094"/>
       <use xlink:href="#DejaVuSans-30" x="190.869141"/>
      </g>
     </g>
    </g>
    <g id="xtick_4">
     <g id="line2d_4">
      <g>
       <use xlink:href="#m79b4ee4414" x="238.993789" y="232.759219" style="stroke: #000000; stroke-width: 0.8"/>
      </g>
     </g>
     <g id="text_4">
      <!-- 1500 -->
      <g transform="translate(226.268789 247.357656) scale(0.1 -0.1)">
       <use xlink:href="#DejaVuSans-31"/>
       <use xlink:href="#DejaVuSans-35" x="63.623047"/>
       <use xlink:href="#DejaVuSans-30" x="127.246094"/>
       <use xlink:href="#DejaVuSans-30" x="190.869141"/>
      </g>
     </g>
    </g>
    <g id="xtick_5">
     <g id="line2d_5">
      <g>
       <use xlink:href="#m79b4ee4414" x="297.300999" y="232.759219" style="stroke: #000000; stroke-width: 0.8"/>
      </g>
     </g>
     <g id="text_5">
      <!-- 2000 -->
      <g transform="translate(284.575999 247.357656) scale(0.1 -0.1)">
       <defs>
        <path id="DejaVuSans-32" d="M 1228 531
L 3431 531
L 3431 0
L 469 0
L 469 531
Q 828 903 1448 1529
Q 2069 2156 2228 2338
Q 2531 2678 2651 2914
Q 2772 3150 2772 3378
Q 2772 3750 2511 3984
Q 2250 4219 1831 4219
Q 1534 4219 1204 4116
Q 875 4013 500 3803
L 500 4441
Q 881 4594 1212 4672
Q 1544 4750 1819 4750
Q 2544 4750 2975 4387
Q 3406 4025 3406 3419
Q 3406 3131 3298 2873
Q 3191 2616 2906 2266
Q 2828 2175 2409 1742
Q 1991 1309 1228 531
z
" transform="scale(0.015625)"/>
       </defs>
       <use xlink:href="#DejaVuSans-32"/>
       <use xlink:href="#DejaVuSans-30" x="63.623047"/>
       <use xlink:href="#DejaVuSans-30" x="127.246094"/>
       <use xlink:href="#DejaVuSans-30" x="190.869141"/>
      </g>
     </g>
    </g>
    <g id="xtick_6">
     <g id="line2d_6">
      <g>
       <use xlink:href="#m79b4ee4414" x="355.608209" y="232.759219" style="stroke: #000000; stroke-width: 0.8"/>
      </g>
     </g>
     <g id="text_6">
      <!-- 2500 -->
      <g transform="translate(342.883209 247.357656) scale(0.1 -0.1)">
       <use xlink:href="#DejaVuSans-32"/>
       <use xlink:href="#DejaVuSans-35" x="63.623047"/>
       <use xlink:href="#DejaVuSans-30" x="127.246094"/>
       <use xlink:href="#DejaVuSans-30" x="190.869141"/>
      </g>
     </g>
    </g>
    <g id="xtick_7">
     <g id="line2d_7">
      <g>
       <use xlink:href="#m79b4ee4414" x="413.915419" y="232.759219" style="stroke: #000000; stroke-width: 0.8"/>
      </g>
     </g>
     <g id="text_7">
      <!-- 3000 -->
      <g transform="translate(401.190419 247.357656) scale(0.1 -0.1)">
       <defs>
        <path id="DejaVuSans-33" d="M 2597 2516
Q 3050 2419 3304 2112
Q 3559 1806 3559 1356
Q 3559 666 3084 287
Q 2609 -91 1734 -91
Q 1441 -91 1130 -33
Q 819 25 488 141
L 488 750
Q 750 597 1062 519
Q 1375 441 1716 441
Q 2309 441 2620 675
Q 2931 909 2931 1356
Q 2931 1769 2642 2001
Q 2353 2234 1838 2234
L 1294 2234
L 1294 2753
L 1863 2753
Q 2328 2753 2575 2939
Q 2822 3125 2822 3475
Q 2822 3834 2567 4026
Q 2313 4219 1838 4219
Q 1578 4219 1281 4162
Q 984 4106 628 3988
L 628 4550
Q 988 4650 1302 4700
Q 1616 4750 1894 4750
Q 2613 4750 3031 4423
Q 3450 4097 3450 3541
Q 3450 3153 3228 2886
Q 3006 2619 2597 2516
z
" transform="scale(0.015625)"/>
       </defs>
       <use xlink:href="#DejaVuSans-33"/>
       <use xlink:href="#DejaVuSans-30" x="63.623047"/>
       <use xlink:href="#DejaVuSans-30" x="127.246094"/>
       <use xlink:href="#DejaVuSans-30" x="190.869141"/>
      </g>
     </g>
    </g>
    <g id="xtick_8">
     <g id="line2d_8">
      <g>
       <use xlink:href="#m79b4ee4414" x="472.222629" y="232.759219" style="stroke: #000000; stroke-width: 0.8"/>
      </g>
     </g>
     <g id="text_8">
      <!-- 3500 -->
      <g transform="translate(459.497629 247.357656) scale(0.1 -0.1)">
       <use xlink:href="#DejaVuSans-33"/>
       <use xlink:href="#DejaVuSans-35" x="63.623047"/>
       <use xlink:href="#DejaVuSans-30" x="127.246094"/>
       <use xlink:href="#DejaVuSans-30" x="190.869141"/>
      </g>
     </g>
    </g>
   </g>
   <g id="matplotlib.axis_2">
    <g id="ytick_1">
     <g id="line2d_9">
      <defs>
       <path id="m339081d094" d="M 0 0
L -3.5 0
" style="stroke: #000000; stroke-width: 0.8"/>
      </defs>
      <g>
       <use xlink:href="#m339081d094" x="43.78125" y="232.759219" style="stroke: #000000; stroke-width: 0.8"/>
      </g>
     </g>
     <g id="text_9">
      <!-- 0.0 -->
      <g transform="translate(20.878125 236.558438) scale(0.1 -0.1)">
       <defs>
        <path id="DejaVuSans-2e" d="M 684 794
L 1344 794
L 1344 0
L 684 0
L 684 794
z
" transform="scale(0.015625)"/>
       </defs>
       <use xlink:href="#DejaVuSans-30"/>
       <use xlink:href="#DejaVuSans-2e" x="63.623047"/>
       <use xlink:href="#DejaVuSans-30" x="95.410156"/>
      </g>
     </g>
    </g>
    <g id="ytick_2">
     <g id="line2d_10">
      <g>
       <use xlink:href="#m339081d094" x="43.78125" y="205.039219" style="stroke: #000000; stroke-width: 0.8"/>
      </g>
     </g>
     <g id="text_10">
      <!-- 0.2 -->
      <g transform="translate(20.878125 208.838437) scale(0.1 -0.1)">
       <use xlink:href="#DejaVuSans-30"/>
       <use xlink:href="#DejaVuSans-2e" x="63.623047"/>
       <use xlink:href="#DejaVuSans-32" x="95.410156"/>
      </g>
     </g>
    </g>
    <g id="ytick_3">
     <g id="line2d_11">
      <g>
       <use xlink:href="#m339081d094" x="43.78125" y="177.319219" style="stroke: #000000; stroke-width: 0.8"/>
      </g>
     </g>
     <g id="text_11">
      <!-- 0.4 -->
      <g transform="translate(20.878125 181.118437) scale(0.1 -0.1)">
       <defs>
        <path id="DejaVuSans-34" d="M 2419 4116
L 825 1625
L 2419 1625
L 2419 4116
z
M 2253 4666
L 3047 4666
L 3047 1625
L 3713 1625
L 3713 1100
L 3047 1100
L 3047 0
L 2419 0
L 2419 1100
L 313 1100
L 313 1709
L 2253 4666
z
" transform="scale(0.015625)"/>
       </defs>
       <use xlink:href="#DejaVuSans-30"/>
       <use xlink:href="#DejaVuSans-2e" x="63.623047"/>
       <use xlink:href="#DejaVuSans-34" x="95.410156"/>
      </g>
     </g>
    </g>
    <g id="ytick_4">
     <g id="line2d_12">
      <g>
       <use xlink:href="#m339081d094" x="43.78125" y="149.599219" style="stroke: #000000; stroke-width: 0.8"/>
      </g>
     </g>
     <g id="text_12">
      <!-- 0.6 -->
      <g transform="translate(20.878125 153.398438) scale(0.1 -0.1)">
       <defs>
        <path id="DejaVuSans-36" d="M 2113 2584
Q 1688 2584 1439 2293
Q 1191 2003 1191 1497
Q 1191 994 1439 701
Q 1688 409 2113 409
Q 2538 409 2786 701
Q 3034 994 3034 1497
Q 3034 2003 2786 2293
Q 2538 2584 2113 2584
z
M 3366 4563
L 3366 3988
Q 3128 4100 2886 4159
Q 2644 4219 2406 4219
Q 1781 4219 1451 3797
Q 1122 3375 1075 2522
Q 1259 2794 1537 2939
Q 1816 3084 2150 3084
Q 2853 3084 3261 2657
Q 3669 2231 3669 1497
Q 3669 778 3244 343
Q 2819 -91 2113 -91
Q 1303 -91 875 529
Q 447 1150 447 2328
Q 447 3434 972 4092
Q 1497 4750 2381 4750
Q 2619 4750 2861 4703
Q 3103 4656 3366 4563
z
" transform="scale(0.015625)"/>
       </defs>
       <use xlink:href="#DejaVuSans-30"/>
       <use xlink:href="#DejaVuSans-2e" x="63.623047"/>
       <use xlink:href="#DejaVuSans-36" x="95.410156"/>
      </g>
     </g>
    </g>
    <g id="ytick_5">
     <g id="line2d_13">
      <g>
       <use xlink:href="#m339081d094" x="43.78125" y="121.879219" style="stroke: #000000; stroke-width: 0.8"/>
      </g>
     </g>
     <g id="text_13">
      <!-- 0.8 -->
      <g transform="translate(20.878125 125.678438) scale(0.1 -0.1)">
       <defs>
        <path id="DejaVuSans-38" d="M 2034 2216
Q 1584 2216 1326 1975
Q 1069 1734 1069 1313
Q 1069 891 1326 650
Q 1584 409 2034 409
Q 2484 409 2743 651
Q 3003 894 3003 1313
Q 3003 1734 2745 1975
Q 2488 2216 2034 2216
z
M 1403 2484
Q 997 2584 770 2862
Q 544 3141 544 3541
Q 544 4100 942 4425
Q 1341 4750 2034 4750
Q 2731 4750 3128 4425
Q 3525 4100 3525 3541
Q 3525 3141 3298 2862
Q 3072 2584 2669 2484
Q 3125 2378 3379 2068
Q 3634 1759 3634 1313
Q 3634 634 3220 271
Q 2806 -91 2034 -91
Q 1263 -91 848 271
Q 434 634 434 1313
Q 434 1759 690 2068
Q 947 2378 1403 2484
z
M 1172 3481
Q 1172 3119 1398 2916
Q 1625 2713 2034 2713
Q 2441 2713 2670 2916
Q 2900 3119 2900 3481
Q 2900 3844 2670 4047
Q 2441 4250 2034 4250
Q 1625 4250 1398 4047
Q 1172 3844 1172 3481
z
" transform="scale(0.015625)"/>
       </defs>
       <use xlink:href="#DejaVuSans-30"/>
       <use xlink:href="#DejaVuSans-2e" x="63.623047"/>
       <use xlink:href="#DejaVuSans-38" x="95.410156"/>
      </g>
     </g>
    </g>
    <g id="ytick_6">
     <g id="line2d_14">
      <g>
       <use xlink:href="#m339081d094" x="43.78125" y="94.159219" style="stroke: #000000; stroke-width: 0.8"/>
      </g>
     </g>
     <g id="text_14">
      <!-- 1.0 -->
      <g transform="translate(20.878125 97.958438) scale(0.1 -0.1)">
       <use xlink:href="#DejaVuSans-31"/>
       <use xlink:href="#DejaVuSans-2e" x="63.623047"/>
       <use xlink:href="#DejaVuSans-30" x="95.410156"/>
      </g>
     </g>
    </g>
    <g id="ytick_7">
     <g id="line2d_15">
      <g>
       <use xlink:href="#m339081d094" x="43.78125" y="66.439219" style="stroke: #000000; stroke-width: 0.8"/>
      </g>
     </g>
     <g id="text_15">
      <!-- 1.2 -->
      <g transform="translate(20.878125 70.238437) scale(0.1 -0.1)">
       <use xlink:href="#DejaVuSans-31"/>
       <use xlink:href="#DejaVuSans-2e" x="63.623047"/>
       <use xlink:href="#DejaVuSans-32" x="95.410156"/>
      </g>
     </g>
    </g>
    <g id="ytick_8">
     <g id="line2d_16">
      <g>
       <use xlink:href="#m339081d094" x="43.78125" y="38.719219" style="stroke: #000000; stroke-width: 0.8"/>
      </g>
     </g>
     <g id="text_16">
      <!-- 1.4 -->
      <g transform="translate(20.878125 42.518437) scale(0.1 -0.1)">
       <use xlink:href="#DejaVuSans-31"/>
       <use xlink:href="#DejaVuSans-2e" x="63.623047"/>
       <use xlink:href="#DejaVuSans-34" x="95.410156"/>
      </g>
     </g>
    </g>
    <g id="ytick_9">
     <g id="line2d_17">
      <g>
       <use xlink:href="#m339081d094" x="43.78125" y="10.999219" style="stroke: #000000; stroke-width: 0.8"/>
      </g>
     </g>
     <g id="text_17">
      <!-- 1.6 -->
      <g transform="translate(20.878125 14.798438) scale(0.1 -0.1)">
       <use xlink:href="#DejaVuSans-31"/>
       <use xlink:href="#DejaVuSans-2e" x="63.623047"/>
       <use xlink:href="#DejaVuSans-36" x="95.410156"/>
      </g>
     </g>
    </g>
    <g id="text_18">
     <!-- Loss -->
     <g transform="translate(14.798438 132.846406) rotate(-90) scale(0.1 -0.1)">
      <defs>
       <path id="DejaVuSans-4c" d="M 628 4666
L 1259 4666
L 1259 531
L 3531 531
L 3531 0
L 628 0
L 628 4666
z
" transform="scale(0.015625)"/>
       <path id="DejaVuSans-6f" d="M 1959 3097
Q 1497 3097 1228 2736
Q 959 2375 959 1747
Q 959 1119 1226 758
Q 1494 397 1959 397
Q 2419 397 2687 759
Q 2956 1122 2956 1747
Q 2956 2369 2687 2733
Q 2419 3097 1959 3097
z
M 1959 3584
Q 2709 3584 3137 3096
Q 3566 2609 3566 1747
Q 3566 888 3137 398
Q 2709 -91 1959 -91
Q 1206 -91 779 398
Q 353 888 353 1747
Q 353 2609 779 3096
Q 1206 3584 1959 3584
z
" transform="scale(0.015625)"/>
       <path id="DejaVuSans-73" d="M 2834 3397
L 2834 2853
Q 2591 2978 2328 3040
Q 2066 3103 1784 3103
Q 1356 3103 1142 2972
Q 928 2841 928 2578
Q 928 2378 1081 2264
Q 1234 2150 1697 2047
L 1894 2003
Q 2506 1872 2764 1633
Q 3022 1394 3022 966
Q 3022 478 2636 193
Q 2250 -91 1575 -91
Q 1294 -91 989 -36
Q 684 19 347 128
L 347 722
Q 666 556 975 473
Q 1284 391 1588 391
Q 1994 391 2212 530
Q 2431 669 2431 922
Q 2431 1156 2273 1281
Q 2116 1406 1581 1522
L 1381 1569
Q 847 1681 609 1914
Q 372 2147 372 2553
Q 372 3047 722 3315
Q 1072 3584 1716 3584
Q 2034 3584 2315 3537
Q 2597 3491 2834 3397
z
" transform="scale(0.015625)"/>
      </defs>
      <use xlink:href="#DejaVuSans-4c"/>
      <use xlink:href="#DejaVuSans-6f" x="53.962891"/>
      <use xlink:href="#DejaVuSans-73" x="115.144531"/>
      <use xlink:href="#DejaVuSans-73" x="167.244141"/>
     </g>
    </g>
   </g>
   <g id="line2d_18">
    <path d="M 65.121991 135.951277
L 65.471934 136.581907
L 65.588582 137.193133
L 65.938526 137.216695
L 66.171822 136.809211
L 66.28847 136.569433
L 66.405118 136.710805
L 66.755062 135.948505
L 66.988358 136.500133
L 67.221653 136.173037
L 67.454949 136.462711
L 67.571597 136.249267
L 67.804893 136.662295
L 68.154837 136.735753
L 68.271485 137.103043
L 68.388133 136.951969
L 68.504781 137.065621
L 68.621429 136.796737
L 68.738077 137.024041
L 68.854725 136.872967
L 68.971373 137.104429
L 69.08802 137.029585
L 69.204668 136.745455
L 69.321316 136.928407
L 69.67126 138.142543
L 69.787908 138.353215
L 69.904556 138.264511
L 70.021204 138.518149
L 70.137852 138.095419
L 70.2545 138.367075
L 70.721092 137.762779
L 70.83774 137.955433
L 70.954388 137.827921
L 71.071035 137.249959
L 71.187683 137.308171
L 71.304331 137.096113
L 71.420979 136.597153
L 71.654275 137.542405
L 71.887571 137.313715
L 72.004219 136.493203
L 72.120867 136.569433
L 72.704107 135.130765
L 72.937402 133.855645
L 73.05405 133.653289
L 73.287346 133.947121
L 73.63729 136.110667
L 74.22053 137.804359
L 74.453826 139.071163
L 74.570474 139.010179
L 74.687122 139.100269
L 74.80377 138.570817
L 74.920417 139.025425
L 75.153713 136.708033
L 75.387009 136.378165
L 75.620305 135.223627
L 75.736953 135.432913
L 75.853601 135.413509
L 75.970249 136.477957
L 76.086897 136.191055
L 76.203545 137.462017
L 76.320193 137.510527
L 76.553489 138.516763
L 76.903432 138.626257
L 77.136728 137.976223
L 77.253376 138.045523
L 77.370024 137.719813
L 77.486672 138.048295
L 77.60332 138.009487
L 77.836616 137.800201
L 77.953264 138.392023
L 78.069912 137.457859
L 78.303208 138.494587
L 78.653152 140.896525
L 78.769799 139.918009
L 79.003095 141.405187
L 79.236391 141.381625
L 79.936279 135.238873
L 80.052927 135.150169
L 80.286223 133.981771
L 80.402871 134.943655
L 80.519519 134.642893
L 80.636167 135.924943
L 80.752814 135.819607
L 81.102758 138.267283
L 81.219406 137.653285
L 81.452702 137.722585
L 81.56935 136.630417
L 81.802646 136.641505
L 81.919294 136.835545
L 82.035942 136.741297
L 82.269238 138.446077
L 82.619181 139.471717
L 82.852477 140.537551
L 82.969125 140.491813
L 83.085773 140.242333
L 83.202421 141.219463
L 83.552365 137.322031
L 83.669013 137.945731
L 83.902309 136.304707
L 84.018957 136.594381
L 84.135605 135.667147
L 84.252253 136.728823
L 84.368901 136.071859
L 84.485549 136.368463
L 84.718844 138.453007
L 84.835492 138.049681
L 85.185436 139.916623
L 85.302084 140.245105
L 85.53538 139.603387
L 85.768676 140.134225
L 86.001972 141.310939
L 86.11862 141.965131
L 86.235268 141.546559
L 86.468563 142.371229
L 86.701859 143.495275
L 86.818507 143.284603
L 86.935155 143.564575
L 87.168451 141.656053
L 87.285099 141.046213
L 87.401747 141.686545
L 87.635043 141.285991
L 87.868339 141.717037
L 87.984987 140.721889
L 88.218283 142.031659
L 88.334931 141.618631
L 88.451578 141.991465
L 88.568226 141.398257
L 88.684874 139.778023
L 88.801522 140.254807
L 89.034818 137.443999
L 89.151466 139.168183
L 89.268114 137.349751
L 89.50141 139.495279
L 89.734706 137.298469
L 89.968002 139.173727
L 90.08465 139.396873
L 90.434593 142.303315
L 90.784537 139.040671
L 91.017833 142.398949
L 91.134481 141.625561
L 91.251129 141.808513
L 91.367777 141.010177
L 91.484425 142.360141
L 91.717721 138.552799
L 91.834369 135.532705
L 91.951017 138.228475
L 92.067665 135.661603
L 92.30096 136.209073
L 92.417608 136.714963
L 92.534256 138.795349
L 92.650904 137.595073
L 92.767552 139.787725
L 92.8842 139.222237
L 93.000848 141.543787
L 93.117496 139.938799
L 93.350792 141.796039
L 93.46744 141.281833
L 93.584088 141.406573
L 93.700736 140.917315
L 93.817384 139.165411
L 93.934032 139.427365
L 94.05068 138.595765
L 94.167328 139.104427
L 94.283975 142.095415
L 94.517271 140.331037
L 94.750567 141.948499
L 95.100511 144.398947
L 95.333807 147.298459
L 95.450455 146.579125
L 95.567103 148.554175
L 95.917047 144.476563
L 96.033695 142.509829
L 96.150342 144.175801
L 96.26699 143.166793
L 96.85023 133.455091
L 97.200174 136.902073
L 97.43347 134.390641
L 97.550118 135.938803
L 97.666766 135.692095
L 97.783414 141.384397
L 97.900062 139.783567
L 98.01671 141.337273
L 98.366653 138.239563
L 98.483301 138.252037
L 98.599949 139.392715
L 98.716597 139.391329
L 98.833245 139.642195
L 98.949893 137.388559
L 99.299837 142.520917
L 99.649781 145.682383
L 99.766429 144.102343
L 99.999724 140.455777
L 100.23302 140.351827
L 100.349668 138.615169
L 100.466316 140.533393
L 100.699612 138.775945
L 100.81626 140.103733
L 100.932908 139.736443
L 101.166204 141.377467
L 101.282852 139.904149
L 101.3995 140.088487
L 101.516148 141.417661
L 101.749444 137.093341
L 101.866092 138.331039
L 101.982739 137.635267
L 102.099387 139.517455
L 102.216035 143.308165
L 102.332683 143.474485
L 102.449331 146.662285
L 102.682627 142.642885
L 102.799275 145.629715
L 102.915923 145.482799
L 103.149219 140.696941
L 103.265867 141.707335
L 103.382515 140.899297
L 103.499163 138.095419
L 103.732459 140.863261
L 103.849106 142.408651
L 103.965754 142.191049
L 104.19905 145.675453
L 104.315698 145.764157
L 104.548994 140.540323
L 104.78229 145.284601
L 104.898938 146.777323
L 105.015586 144.659515
L 105.132234 144.805045
L 105.248882 142.235401
L 105.36553 142.238173
L 105.482178 140.256193
L 105.598826 142.872961
L 105.715474 141.826531
L 105.832121 141.876427
L 106.065417 137.173729
L 106.182065 139.435681
L 106.298713 139.374697
L 106.648657 148.060759
L 106.765305 148.283905
L 106.881953 150.351817
L 106.998601 146.967205
L 107.231897 150.289447
L 107.465193 148.010863
L 107.581841 148.211833
L 107.698488 148.091251
L 107.815136 149.884735
L 108.048432 143.394097
L 108.16508 144.350437
L 108.281728 143.141845
L 108.398376 138.092647
L 108.631672 140.236789
L 108.74832 138.462709
L 108.864968 139.718425
L 108.981616 137.613091
L 109.214912 143.899987
L 109.33156 144.767623
L 109.448208 144.590215
L 109.681503 149.808505
L 109.798151 149.633869
L 109.914799 148.629019
L 110.148095 144.616549
L 110.264743 143.050369
L 110.498039 148.195201
L 110.731335 147.656047
L 110.847983 148.213219
L 111.081279 153.319243
L 111.197927 153.176485
L 111.314575 153.480019
L 111.431223 155.495263
L 111.547871 154.720489
L 111.664518 150.421117
L 111.897814 153.897205
L 112.014462 152.825827
L 112.247758 146.656741
L 112.364406 151.963735
L 112.597702 150.534769
L 112.71435 150.070459
L 112.830998 154.522291
L 113.064294 150.644263
L 113.180942 150.946411
L 113.414238 155.773849
L 113.647533 152.820283
L 113.764181 151.154311
L 113.880829 152.430817
L 114.114125 151.399633
L 114.230773 151.679605
L 114.580717 147.739207
L 114.697365 147.518833
L 114.814013 148.354591
L 115.047309 145.721191
L 115.280605 146.982451
L 115.397253 146.798113
L 115.5139 143.636647
L 115.747196 147.179263
L 116.213788 152.382307
L 116.330436 149.534077
L 116.447084 152.096791
L 116.563732 151.570111
L 116.68038 157.076689
L 117.030324 150.335185
L 117.146972 148.850779
L 117.730211 155.696233
L 117.846859 151.542391
L 118.196803 159.054511
L 118.313451 159.352501
L 118.546747 153.850081
L 118.663395 153.274891
L 118.896691 148.489033
L 119.013339 151.223611
L 119.246635 146.138377
L 119.363282 146.039971
L 119.596578 151.477249
L 119.713226 151.349737
L 119.829874 150.382309
L 119.946522 150.871567
L 120.06317 147.560413
L 120.179818 147.865333
L 120.296466 146.290837
L 120.413114 149.725345
L 120.64641 147.358057
L 120.879706 150.106495
L 120.996354 150.224305
L 121.696241 167.258245
L 121.812889 167.338633
L 121.929537 165.316459
L 122.046185 166.254781
L 122.162833 168.536137
L 122.396129 165.626923
L 122.862721 153.323401
L 122.979369 153.471703
L 123.096017 156.523675
L 123.212664 155.708707
L 123.329312 156.333793
L 123.679256 154.656733
L 124.262496 170.202109
L 124.495792 156.940861
L 124.61244 146.242327
L 124.729088 147.141841
L 124.845736 154.159159
L 124.962384 149.571499
L 125.195679 135.829309
L 125.428975 123.779425
L 125.778919 144.211837
L 125.895567 144.192433
L 126.012215 137.417665
L 126.128863 139.205605
L 126.245511 150.461311
L 126.362159 147.051751
L 126.478807 147.994231
L 126.595455 147.333109
L 126.828751 143.638033
L 127.062046 150.780091
L 127.178694 151.227769
L 127.295342 155.895817
L 127.528638 153.233311
L 127.878582 160.282507
L 127.99523 160.100941
L 128.111878 151.024027
L 128.228526 151.740589
L 128.461822 154.483483
L 128.57847 151.840381
L 128.695118 155.611687
L 128.811766 150.451609
L 128.928414 150.250639
L 129.045061 148.782865
L 129.161709 151.981753
L 129.278357 160.437739
L 129.861597 155.118271
L 130.211541 163.186177
L 130.328189 164.380909
L 130.444837 163.891651
L 130.561485 161.180635
L 130.678133 161.159845
L 130.794781 161.363587
L 130.911428 167.100241
L 131.144724 165.676819
L 131.37802 162.339331
L 131.494668 159.977587
L 131.727964 162.969961
L 131.96126 162.465457
L 132.077908 160.990753
L 132.194556 163.539607
L 132.427852 161.306761
L 132.5445 162.615145
L 132.661148 160.332403
L 132.777796 154.913143
L 132.894443 156.652573
L 133.011091 154.986601
L 133.127739 156.530605
L 133.361035 144.690007
L 133.477683 148.415575
L 133.710979 143.664367
L 133.944275 147.522991
L 134.060923 145.378849
L 134.177571 146.360137
L 134.294219 144.372613
L 134.410867 146.604073
L 134.527515 153.055903
L 134.644163 152.527837
L 134.76081 156.240931
L 134.877458 155.642179
L 134.994106 153.768307
L 135.110754 156.705241
L 135.227402 156.698311
L 135.34405 158.034415
L 135.577346 152.038579
L 135.693994 152.314393
L 135.92729 148.881271
L 136.043938 153.705937
L 136.160586 153.486949
L 136.277234 151.719799
L 136.977121 164.811955
L 137.093769 165.402391
L 137.210417 159.877795
L 137.443713 165.757207
L 137.677009 159.103021
L 137.910305 162.946399
L 138.026953 158.624851
L 138.143601 160.075993
L 138.260249 157.933237
L 138.376897 159.887497
L 138.493545 156.922843
L 138.610192 156.946405
L 138.843488 158.860471
L 138.960136 157.866709
L 139.193432 162.739885
L 139.31008 160.924225
L 139.426728 162.987979
L 139.543376 157.396855
L 139.660024 159.976201
L 139.776672 159.728107
L 140.009968 154.199353
L 140.126616 152.792563
L 140.359912 146.533387
L 140.593207 142.835539
L 140.709855 148.721881
L 140.826503 146.983837
L 140.943151 143.172337
L 141.293095 148.659511
L 141.409743 153.865327
L 141.526391 149.168173
L 141.759687 152.641489
L 141.876335 152.665051
L 141.992983 152.967199
L 142.226279 159.633859
L 142.342927 157.876411
L 142.459574 158.382301
L 142.576222 154.683067
L 142.809518 159.827899
L 143.27611 149.285983
L 143.392758 149.193121
L 143.509406 147.563185
L 143.626054 148.513981
L 143.742702 150.681685
L 143.975998 146.235397
L 144.325942 156.777313
L 144.442589 155.274889
L 144.559237 155.801569
L 144.675885 160.120345
L 144.792533 158.249245
L 145.025829 159.441205
L 145.259125 157.872253
L 145.375773 157.926307
L 145.492421 159.205585
L 145.609069 159.121039
L 145.725717 159.475855
L 146.192309 163.596433
L 146.308956 163.256863
L 146.6589 153.066991
L 146.775548 154.939477
L 147.125492 150.656737
L 147.24214 151.890277
L 147.358788 150.091249
L 147.592084 153.180643
L 147.708732 154.256179
L 147.82538 157.570105
L 147.942028 156.397549
L 148.291971 158.994913
L 148.408619 157.287361
L 148.525267 159.351115
L 148.641915 159.421801
L 148.875211 160.132819
L 148.991859 157.631089
L 149.108507 158.340721
L 149.225155 157.680985
L 149.458451 154.373989
L 149.691747 155.398243
L 149.808395 154.595749
L 150.158339 163.499413
L 150.274986 163.923529
L 150.391634 164.854921
L 150.62493 170.382289
L 150.741578 171.245767
L 150.858226 171.270715
L 150.974874 169.784923
L 151.091522 166.604053
L 151.20817 167.256859
L 151.324818 166.436347
L 151.558114 161.248549
L 151.674762 160.647025
L 151.908058 162.414175
L 152.024706 159.783547
L 152.141353 159.679597
L 152.258001 158.960263
L 152.491297 154.094017
L 152.607945 158.810575
L 152.724593 157.356661
L 152.841241 157.693459
L 152.957889 156.953335
L 153.074537 153.967891
L 153.191185 157.144603
L 153.307833 157.202815
L 153.424481 163.550695
L 153.657777 162.184099
L 153.774425 162.056587
L 153.891073 166.159147
L 154.124368 164.154991
L 154.241016 167.481391
L 154.357664 166.166077
L 154.824256 170.508415
L 155.057552 159.334483
L 155.1742 159.030949
L 155.524144 152.902057
L 155.640792 153.324787
L 155.874088 148.594369
L 155.990735 150.383695
L 156.224031 156.942247
L 156.340679 152.538925
L 156.457327 153.776623
L 156.573975 151.391317
L 156.690623 152.397553
L 156.807271 154.866019
L 156.923919 151.195891
L 157.040567 153.464773
L 157.157215 150.997693
L 157.390511 153.694849
L 157.623807 160.127275
L 157.857103 157.486945
L 157.97375 153.101641
L 158.090398 154.548625
L 158.207046 152.651191
L 158.323694 155.561791
L 158.440342 149.169559
L 158.55699 150.059371
L 158.673638 150.003931
L 158.790286 150.999079
L 159.023582 155.656039
L 159.373526 160.713553
L 159.490174 161.442589
L 159.72347 169.312297
L 159.840117 169.258243
L 160.073413 166.982431
L 160.190061 166.597123
L 160.306709 163.954021
L 160.540005 166.457137
L 160.656653 162.387841
L 160.773301 163.772455
L 160.889949 162.633163
L 161.239893 156.350425
L 161.473189 157.762759
L 161.589837 155.855623
L 161.706485 156.868789
L 161.823132 161.064211
L 161.93978 158.450215
L 162.173076 160.116187
L 162.289724 159.457837
L 162.406372 162.318541
L 162.52302 161.891653
L 162.639668 165.327547
L 162.872964 160.210435
L 162.989612 161.064211
L 163.222908 157.894429
L 163.339556 158.272807
L 163.456204 156.694153
L 163.572852 158.020555
L 163.689499 156.123121
L 163.922795 151.658815
L 164.039443 150.997693
L 164.156091 149.679607
L 164.272739 150.831373
L 164.506035 157.486945
L 164.739331 163.683751
L 164.972627 173.999749
L 165.555867 149.649115
L 166.022458 125.405203
L 166.139106 119.220871
L 166.372402 134.218777
L 166.48905 132.709423
L 166.838994 144.533389
L 166.955642 148.168867
L 167.305586 165.988669
L 167.422234 165.949861
L 167.772177 171.816799
L 168.122121 179.649085
L 168.355417 180.684427
L 168.472065 175.678195
L 168.588713 177.941533
L 168.938657 165.757207
L 169.288601 149.051749
L 169.521896 145.226389
L 169.638544 148.493191
L 169.755192 143.610313
L 170.221784 161.283199
L 170.338432 157.443979
L 170.571728 159.473083
L 170.805024 152.141143
L 171.03832 155.371909
L 171.271616 152.425273
L 171.971503 168.731563
L 172.204799 167.826505
L 172.321447 165.482779
L 172.788039 171.057271
L 173.021335 174.724627
L 173.371278 172.803631
L 173.487926 174.907579
L 173.604574 174.454357
L 173.83787 164.350417
L 174.071166 166.088461
L 174.187814 162.527827
L 174.304462 154.875721
L 174.42111 156.469621
L 174.537758 160.020553
L 174.654406 158.726029
L 174.887702 149.854243
L 175.00435 152.264497
L 175.237646 143.726737
L 175.470941 150.232621
L 175.704237 142.160557
L 176.054181 151.090555
L 176.170829 150.648421
L 176.404125 158.128663
L 176.520773 155.430121
L 176.754069 165.152911
L 176.987365 156.105103
L 177.337308 168.468223
L 177.453956 167.024011
L 177.687252 162.967189
L 177.8039 161.134897
L 178.153844 173.772445
L 178.270492 172.633153
L 178.38714 172.174387
L 178.503788 167.493865
L 178.737084 172.037173
L 178.853732 167.704537
L 178.97038 170.217355
L 179.087028 169.276261
L 179.203675 172.922827
L 179.436971 165.269335
L 179.670267 168.631771
L 179.786915 165.938773
L 179.903563 167.381599
L 180.020211 175.797391
L 180.253507 164.770375
L 180.370155 159.410713
L 180.603451 164.159149
L 180.720099 164.107867
L 180.836747 161.421799
L 180.953395 162.620689
L 181.070042 162.606829
L 181.18669 157.654651
L 181.303338 163.403779
L 181.419986 162.439123
L 181.536634 164.067673
L 181.653282 164.012233
L 181.76993 164.459911
L 181.886578 158.706625
L 182.119874 163.184791
L 182.35317 157.442593
L 182.469818 157.238851
L 182.586466 161.017087
L 182.703114 160.486249
L 182.819762 161.351113
L 182.93641 159.047581
L 183.053057 160.566637
L 183.286353 158.095399
L 183.519649 164.236765
L 183.869593 161.248549
L 183.986241 162.484861
L 184.219537 160.705237
L 184.336185 161.790475
L 184.686129 157.054513
L 184.802777 158.235385
L 184.919425 157.589509
L 185.269368 153.456457
L 185.386016 154.710787
L 185.619312 151.583971
L 185.73596 143.904145
L 186.202552 155.108569
L 186.435848 157.091935
L 186.552496 154.928389
L 186.669144 154.857703
L 186.785792 156.803647
L 186.902439 165.717013
L 187.369031 151.826521
L 187.485679 152.921461
L 187.952271 160.940857
L 188.068919 160.458529
L 188.185567 161.438431
L 188.418863 165.955405
L 188.652159 160.159153
L 188.768807 162.832747
L 189.002102 160.371211
L 189.235398 161.725333
L 189.352046 163.410709
L 189.468694 157.814041
L 189.585342 158.197963
L 190.051934 169.364965
L 190.168582 171.657409
L 190.518526 163.231915
L 190.751821 171.303979
L 190.868469 170.225671
L 191.218413 159.234691
L 191.335061 157.270729
L 191.451709 161.029561
L 191.568357 158.393389
L 191.801653 164.525053
L 191.918301 165.356653
L 192.034949 165.371899
L 192.618189 173.912431
L 192.734836 172.225669
L 192.968132 165.632467
L 193.08478 163.547923
L 193.318076 166.448821
L 193.434724 164.174395
L 193.551372 164.426647
L 193.66802 162.842449
L 193.784668 162.946399
L 193.901316 167.452285
L 194.134612 164.217361
L 194.25126 164.931151
L 194.367908 166.432189
L 194.484556 166.221517
L 194.717851 169.237453
L 195.067795 158.584657
L 195.301091 171.248539
L 195.417739 173.065585
L 195.534387 172.184089
L 195.651035 173.701759
L 195.884331 169.553461
L 196.000979 170.843827
L 196.117627 169.297051
L 196.234275 173.524351
L 196.467571 158.013625
L 196.584218 157.148761
L 196.817514 151.782169
L 196.934162 146.393401
L 197.167458 148.544473
L 197.284106 148.953343
L 197.400754 147.743365
L 197.63405 158.957491
L 197.750698 159.145987
L 198.450585 178.562461
L 199.150473 142.750993
L 199.500417 149.942947
L 199.617065 147.815437
L 199.967009 165.777997
L 200.083657 162.433579
L 200.316953 169.600585
L 200.550248 162.897889
L 200.783544 159.273499
L 201.01684 163.956793
L 201.133488 162.268645
L 201.250136 168.843829
L 201.366784 162.956101
L 201.483432 163.434271
L 201.833376 157.689301
L 201.950024 159.085003
L 202.18332 156.267265
L 202.299967 156.429427
L 202.416615 152.663665
L 202.649911 162.691375
L 202.883207 172.946389
L 202.999855 173.206957
L 203.349799 166.493173
L 203.583095 175.399609
L 203.699743 175.256851
L 203.816391 172.462675
L 204.049687 162.860467
L 204.166335 161.941549
L 204.282982 163.862545
L 204.39963 167.837593
L 204.516278 166.537525
L 204.749574 160.969963
L 204.866222 160.939471
L 204.98287 162.741271
L 205.216166 169.010149
L 205.332814 166.286659
L 205.449462 166.331011
L 205.56611 162.505651
L 205.682758 163.577029
L 205.916054 169.112713
L 206.032702 167.114101
L 206.14935 167.179243
L 206.265997 169.097467
L 206.382645 164.290819
L 206.499293 164.385067
L 206.615941 167.010151
L 206.732589 174.045487
L 206.965885 171.312295
L 207.082533 166.976887
L 207.199181 168.867391
L 207.315829 168.709387
L 207.549125 166.613755
L 207.665773 168.415555
L 208.132364 160.756519
L 208.249012 161.127967
L 208.598956 156.245089
L 208.832252 162.290821
L 209.065548 164.577721
L 209.415492 158.228455
L 209.765436 164.031637
L 209.882084 164.114797
L 209.998732 163.983127
L 210.232027 154.999075
L 210.465323 164.098165
L 210.581971 166.252009
L 210.931915 161.234689
L 211.048563 162.328243
L 211.398507 172.016383
L 211.631803 169.356649
L 211.748451 173.689285
L 211.981746 170.274181
L 212.098394 173.464753
L 212.33169 158.536147
L 212.448338 162.254785
L 212.564986 161.891653
L 212.681634 163.822351
L 212.91493 153.183415
L 213.148226 159.879181
L 213.264874 156.558325
L 213.49817 167.802943
L 213.614818 166.658107
L 213.848114 164.764831
L 213.964761 172.910353
L 214.081409 171.406543
L 214.664649 175.585333
L 214.781297 174.624835
L 214.897945 175.288729
L 215.014593 173.021233
L 215.247889 176.513953
L 215.714481 163.000453
L 215.831128 164.590195
L 216.181072 158.344879
L 216.531016 163.739191
L 216.647664 168.756511
L 216.764312 162.667813
L 216.88096 163.355269
L 216.997608 161.664349
L 217.114256 163.516045
L 217.347552 169.776607
L 217.580848 164.920063
L 217.697496 166.827199
L 217.814143 166.849375
L 218.047439 175.499401
L 218.164087 174.788383
L 218.280735 170.828581
L 218.397383 170.792545
L 218.747327 178.095379
L 218.863975 172.802245
L 219.097271 176.296351
L 219.330567 164.809183
L 219.447215 166.910359
L 219.797158 158.452987
L 220.030454 150.866023
L 220.147102 150.723265
L 220.26375 147.270739
L 220.497046 155.657425
L 220.613694 159.571489
L 220.963638 150.986605
L 221.196934 155.391313
L 221.313582 154.430815
L 221.663525 159.075301
L 221.780173 154.256179
L 222.130117 166.777303
L 222.246765 167.360809
L 222.363413 170.806405
L 222.713357 169.660183
L 222.830005 169.811257
L 222.946653 174.378127
L 223.179949 173.344171
L 223.296597 175.909657
L 223.413245 173.741953
L 223.529893 176.185471
L 223.64654 174.935299
L 223.763188 175.276255
L 223.996484 167.875015
L 224.113132 167.387143
L 224.346428 168.796705
L 224.463076 167.242999
L 224.579724 168.350413
L 224.81302 165.728101
L 224.929668 162.069061
L 225.162964 168.026089
L 225.279612 168.541681
L 225.39626 166.635931
L 225.512907 167.133505
L 225.629555 165.879175
L 225.746203 167.769679
L 225.862851 166.497331
L 226.096147 171.306751
L 226.212795 171.499405
L 226.329443 175.966483
L 226.446091 175.204183
L 226.679387 170.724631
L 226.796035 172.999057
L 226.912683 172.850755
L 227.145979 177.858373
L 227.379275 172.932529
L 227.61257 162.759289
L 227.962514 168.638701
L 228.19581 163.435657
L 228.312458 160.416949
L 228.545754 164.780077
L 228.662402 167.162611
L 228.895698 174.279721
L 229.012346 176.592955
L 229.245642 174.983809
L 229.362289 175.100233
L 229.595585 173.017075
L 229.828881 171.269329
L 230.062177 165.561781
L 230.178825 163.058665
L 230.412121 166.053811
L 230.528769 166.021933
L 230.762065 172.145281
L 230.878713 173.453665
L 230.995361 171.794623
L 231.112009 175.628299
L 231.228657 174.706609
L 231.5786 162.730183
L 231.695248 162.337945
L 231.811896 163.356655
L 231.928544 163.097473
L 232.045192 163.272109
L 232.278488 167.779381
L 232.395136 167.705923
L 232.511784 170.561083
L 232.628432 166.448821
L 232.74508 173.750269
L 232.861728 173.547913
L 233.095024 172.339321
L 233.211671 174.721855
L 233.328319 168.992131
L 233.444967 170.856301
L 233.561615 170.597119
L 233.794911 174.674731
L 234.028207 171.603355
L 234.144855 171.312295
L 234.378151 166.469611
L 234.494799 169.965103
L 234.844743 163.633855
L 234.961391 165.061435
L 235.078039 162.744043
L 235.54463 171.536827
L 235.661278 166.418329
L 235.777926 167.288737
L 236.12787 173.535439
L 236.244518 178.351789
L 236.361166 178.317139
L 236.594462 164.983819
L 236.71111 165.134893
L 236.827758 171.064201
L 237.177701 166.404469
L 237.294349 166.677511
L 237.410997 165.438427
L 237.527645 166.304677
L 237.644293 169.506337
L 237.760941 178.141117
L 237.994237 173.251309
L 238.110885 174.493165
L 238.344181 169.740571
L 238.694125 159.431503
L 238.810773 159.820969
L 238.927421 160.610989
L 239.044068 157.382995
L 239.627308 169.938769
L 239.743956 169.297051
L 239.860604 174.281107
L 240.0939 167.000449
L 240.210548 171.495247
L 240.327196 171.464755
L 240.560492 173.391295
L 240.793788 168.181321
L 241.143731 178.967173
L 241.260379 178.470985
L 241.377027 177.668491
L 241.610323 173.603353
L 241.726971 172.181317
L 241.843619 173.003215
L 241.960267 175.773829
L 242.076915 175.366345
L 242.426859 170.878477
L 242.660155 176.214577
L 242.776803 174.554149
L 242.89345 176.576323
L 243.010098 173.611669
L 243.126746 173.782147
L 243.243394 172.726015
L 243.47669 176.458513
L 243.593338 178.319911
L 243.709986 176.871541
L 243.826634 177.635227
L 243.943282 180.207643
L 244.05993 180.188239
L 244.176578 187.044781
L 244.293226 183.513253
L 244.409874 184.346239
L 244.64317 177.299815
L 244.759818 176.974105
L 244.993113 180.293575
L 245.226409 176.933911
L 245.343057 175.242991
L 245.459705 178.950541
L 245.576353 177.224971
L 245.926297 180.206257
L 246.042945 179.692051
L 246.159593 179.707297
L 246.276241 181.604731
L 246.392889 180.475141
L 246.626185 184.027459
L 246.85948 192.433549
L 246.976128 192.809155
L 247.209424 186.742633
L 247.326072 180.347629
L 247.559368 181.836193
L 247.676016 182.538895
L 247.792664 180.735709
L 247.909312 174.601273
L 248.02596 175.145971
L 248.142608 174.712153
L 248.259256 172.854913
L 248.492552 175.539595
L 248.842495 164.141131
L 248.959143 164.723251
L 249.075791 166.088461
L 249.309087 156.056593
L 249.659031 170.221513
L 249.892327 173.335855
L 250.008975 162.784237
L 250.125623 163.737805
L 250.242271 167.312299
L 250.475567 179.134879
L 250.942158 162.282505
L 251.058806 162.193801
L 251.175454 174.976879
L 251.40875 170.372587
L 251.642046 158.446057
L 251.875342 162.051043
L 251.99199 164.376751
L 252.108638 169.111327
L 252.225286 168.798091
L 252.341934 163.575643
L 252.458582 164.118955
L 252.575229 159.930463
L 252.808525 164.965801
L 253.041821 169.008763
L 253.275117 165.978967
L 253.391765 167.218051
L 253.508413 173.801551
L 253.625061 172.642855
L 253.741709 174.039943
L 253.858357 173.712847
L 254.091653 176.136961
L 254.208301 171.617215
L 254.558244 178.967173
L 254.674892 176.615131
L 254.79154 179.937373
L 255.024836 175.096075
L 255.141484 177.071125
L 255.258132 174.421093
L 255.37478 180.780061
L 255.491428 177.134881
L 255.608076 177.694825
L 255.724724 175.607509
L 255.95802 175.911043
L 256.191316 186.100915
L 256.541259 179.983111
L 256.657907 183.941527
L 256.891203 177.437029
L 257.007851 175.935991
L 257.241147 168.802249
L 257.357795 169.644937
L 257.474443 169.247155
L 257.591091 170.238145
L 257.824387 167.069749
L 258.057683 172.209037
L 258.290979 176.016379
L 258.407626 173.527123
L 258.640922 159.186181
L 258.75757 159.554857
L 258.874218 163.152913
L 259.107514 161.942935
L 259.224162 163.206967
L 259.34081 158.932543
L 259.574106 162.233995
L 259.690754 162.253399
L 259.92405 172.737103
L 260.040698 173.852833
L 260.157346 172.723243
L 260.273993 167.355265
L 260.390641 168.271411
L 260.623937 174.829963
L 260.740585 175.863919
L 260.857233 178.586023
L 260.973881 178.518109
L 261.090529 178.792537
L 261.323825 177.116863
L 261.440473 181.819561
L 261.557121 181.234669
L 261.790417 176.001133
L 262.140361 181.295653
L 262.257008 182.024689
L 262.373656 180.556915
L 262.490304 183.212491
L 262.606952 175.545139
L 262.7236 175.290115
L 262.956896 177.624139
L 263.073544 174.784225
L 263.190192 175.430101
L 263.656784 165.581185
L 263.773432 172.541677
L 263.89008 172.573555
L 264.006728 167.132119
L 264.240023 172.713541
L 264.356671 172.312987
L 264.473319 170.048263
L 264.589967 170.422483
L 264.823263 176.159137
L 264.939911 175.833427
L 265.056559 176.203489
L 265.173207 184.782829
L 265.406503 181.297039
L 265.523151 181.516027
L 265.639799 181.371883
L 265.756447 179.585329
L 265.873095 179.786299
L 265.989743 176.599885
L 266.10639 180.149431
L 266.456334 171.151519
L 266.68963 165.355267
L 266.806278 163.970653
L 267.156222 172.307443
L 267.389518 165.111331
L 267.506166 163.011541
L 267.972757 180.432175
L 268.206053 171.780763
L 268.322701 172.385059
L 268.439349 171.715621
L 268.555997 173.145973
L 268.789293 179.273479
L 269.022589 176.742643
L 269.255885 162.957487
L 269.372533 168.200725
L 269.489181 166.397539
L 269.605829 168.361501
L 269.839125 166.116181
L 270.07242 167.424565
L 270.189068 166.900657
L 270.422364 180.640075
L 270.539012 179.091913
L 270.772308 168.745423
L 270.888956 172.290811
L 271.122252 168.592963
L 271.472196 170.317147
L 271.588844 170.218741
L 271.705492 171.884713
L 271.938787 181.583941
L 272.172083 174.656713
L 272.522027 171.908275
L 272.638675 172.131421
L 272.755323 171.913819
L 272.871971 172.828579
L 272.988619 171.158449
L 273.455211 180.547213
L 273.571859 177.775213
L 273.921802 184.059337
L 274.03845 175.915201
L 274.271746 179.969251
L 274.388394 178.361491
L 274.62169 165.340021
L 274.738338 170.856301
L 274.971634 165.841753
L 275.088282 167.024011
L 275.20493 174.947773
L 275.321578 174.192403
L 275.438226 175.416241
L 276.021465 200.032987
L 276.371409 189.473053
L 276.604705 187.554829
L 276.954649 173.254081
L 277.187945 171.191713
L 277.421241 175.021231
L 277.537889 173.452279
L 277.654536 173.672653
L 277.771184 170.691367
L 278.00448 178.396141
L 278.121128 181.435639
L 278.237776 175.611667
L 278.354424 177.137653
L 278.704368 170.282497
L 278.937664 174.310213
L 279.054312 168.556927
L 279.17096 169.158451
L 279.287608 168.518119
L 279.404256 172.868773
L 279.520904 171.316453
L 279.870847 180.572161
L 279.987495 177.051721
L 280.104143 177.093301
L 280.337439 179.364955
L 280.454087 175.908271
L 280.920679 182.663635
L 281.153975 173.643547
L 281.387271 165.104401
L 281.503918 163.025401
L 281.737214 166.324081
L 281.97051 165.784927
L 282.087158 163.224985
L 282.203806 167.565937
L 282.437102 162.911749
L 282.670398 169.852837
L 282.787046 170.666419
L 283.020342 168.096775
L 283.13699 167.145979
L 283.486933 177.387133
L 283.603581 183.947071
L 283.720229 183.340003
L 283.836877 182.016373
L 284.186821 188.232583
L 284.303469 187.969243
L 284.420117 187.991419
L 284.536765 187.545127
L 284.653413 185.019835
L 284.770061 185.976175
L 284.886709 189.161203
L 285.3533 175.985887
L 285.469948 176.278333
L 285.586596 172.847983
L 285.703244 172.714927
L 285.819892 172.805017
L 286.053188 165.895807
L 286.286484 175.791847
L 286.51978 164.676127
L 286.636428 162.701077
L 286.753076 163.471693
L 286.869724 162.814729
L 287.10302 168.078757
L 287.336315 147.908299
L 287.452963 149.672677
L 288.036203 167.340019
L 288.152851 160.536145
L 288.269499 160.403089
L 288.502795 180.817483
L 288.619443 176.899261
L 288.736091 177.105775
L 289.202682 169.036483
L 289.31933 177.191707
L 289.435978 177.263779
L 289.552626 176.992123
L 289.669274 177.667105
L 289.90257 183.743329
L 290.019218 182.706601
L 290.135866 184.558297
L 290.252514 182.322679
L 290.48581 189.728077
L 290.835754 183.917965
L 291.06905 174.610975
L 291.185697 179.215267
L 291.302345 179.177845
L 291.418993 179.489695
L 291.535641 176.441881
L 291.652289 168.089845
L 292.118881 172.396147
L 292.235529 175.758583
L 292.352177 173.743339
L 292.468825 173.913817
L 292.585473 170.847985
L 292.702121 171.779377
L 292.818769 179.155669
L 293.052064 177.238831
L 293.168712 179.208337
L 293.28536 178.766203
L 293.402008 179.672647
L 293.518656 177.464749
L 293.635304 178.705219
L 293.751952 184.335151
L 293.8686 183.983107
L 293.985248 177.369115
L 294.101896 178.633147
L 294.218544 181.771051
L 294.335192 179.618593
L 294.45184 182.271397
L 294.685136 179.152897
L 294.918432 172.130035
L 295.035079 171.141817
L 295.268375 178.739869
L 295.385023 176.950543
L 295.618319 162.746815
L 295.734967 160.005307
L 295.851615 160.110643
L 295.968263 166.084303
L 296.084911 165.660187
L 296.318207 168.792547
L 296.551503 160.531987
L 296.784799 175.511875
L 297.018094 184.430785
L 297.25139 180.627601
L 297.368038 179.965093
L 297.484686 180.041323
L 297.717982 190.107841
L 298.067926 175.901341
L 298.184574 176.303281
L 298.41787 179.865301
L 298.651166 181.531273
L 298.884461 170.056579
L 299.001109 177.881935
L 299.234405 168.842443
L 299.584349 165.230527
L 299.700997 164.866009
L 299.817645 162.249241
L 300.050941 173.071129
L 300.167589 171.952627
L 300.400885 179.843125
L 300.517533 182.436331
L 300.634181 182.458507
L 300.750829 184.328221
L 300.867476 182.954695
L 300.984124 184.868761
L 301.100772 184.847971
L 301.334068 180.142501
L 301.450716 181.133491
L 301.567364 177.446731
L 301.684012 177.988657
L 301.917308 175.355257
L 302.033956 175.646317
L 302.267252 164.507035
L 302.500548 170.031631
L 302.617196 167.952631
L 302.733843 180.257539
L 302.850491 179.607505
L 302.967139 179.984497
L 303.083787 171.789079
L 303.200435 172.124491
L 303.550379 183.987265
L 303.667027 185.065573
L 303.900323 181.112701
L 304.016971 175.552069
L 304.133619 175.938763
L 304.250267 185.499391
L 304.366915 185.115469
L 304.483563 186.236743
L 305.066802 176.956087
L 305.300098 182.386435
L 305.416746 178.849363
L 305.533394 180.134185
L 305.650042 180.096763
L 305.883338 185.998351
L 305.999986 185.802925
L 306.233282 188.168827
L 306.34993 186.038545
L 306.466578 186.052405
L 306.699873 190.910335
L 306.816521 186.511171
L 306.933169 186.314359
L 307.049817 182.067655
L 307.166465 183.564535
L 307.283113 180.749569
L 307.399761 182.617897
L 307.633057 178.372579
L 307.749705 177.072511
L 307.866353 168.245077
L 307.983001 172.946389
L 308.099649 171.466141
L 308.216297 177.528505
L 308.332945 171.200029
L 308.449593 175.805707
L 308.56624 169.445353
L 308.682888 174.989353
L 308.799536 174.939457
L 308.916184 169.887487
L 309.032832 171.087763
L 309.14948 168.652561
L 309.266128 168.583261
L 309.382776 167.976193
L 309.499424 175.029547
L 309.616072 174.353179
L 309.73272 167.399617
L 309.849368 167.859769
L 309.966016 165.693451
L 310.199312 177.669877
L 310.31596 176.549989
L 310.432607 177.600577
L 310.782551 169.136275
L 310.899199 181.899949
L 311.015847 176.507023
L 311.132495 178.856293
L 311.249143 177.779371
L 311.365791 175.631071
L 311.599087 177.285955
L 311.715735 175.326151
L 311.949031 179.984497
L 312.065679 176.056573
L 312.182327 180.902029
L 312.298975 175.288729
L 312.53227 176.538901
L 312.765566 168.608209
L 312.998862 174.565237
L 313.11551 173.098849
L 313.232158 175.424557
L 313.348806 173.888869
L 313.582102 180.469597
L 313.69875 181.520185
L 313.932046 189.498001
L 314.048694 190.658083
L 314.165342 184.540279
L 314.28199 185.244367
L 314.398637 186.796687
L 314.515285 181.990039
L 314.631933 183.219421
L 314.748581 182.049637
L 314.865229 183.983107
L 314.981877 178.775905
L 315.098525 180.272785
L 315.215173 177.342781
L 315.331821 183.996967
L 315.448469 183.743329
L 315.565117 184.330993
L 315.681765 188.451571
L 315.798413 186.628981
L 316.148357 174.707995
L 316.265004 173.937379
L 316.381652 174.512569
L 316.614948 170.242303
L 316.731596 167.901349
L 316.848244 171.790465
L 316.964892 167.209735
L 317.314836 182.800849
L 317.431484 181.707295
L 317.781428 182.240905
L 317.898076 183.874999
L 318.014724 177.520189
L 318.131372 182.436331
L 318.364667 181.301197
L 318.597963 175.281799
L 318.947907 179.682349
L 319.064555 175.489699
L 319.297851 181.981723
L 319.531147 184.275553
L 319.764443 192.209017
L 319.881091 189.177835
L 319.997739 189.384349
L 320.114386 186.915883
L 320.347682 190.709365
L 320.814274 180.141115
L 320.930922 181.032313
L 321.04757 179.331691
L 321.164218 179.276251
L 321.280866 179.894407
L 321.397514 178.522267
L 321.514162 178.802239
L 321.864106 169.553461
L 322.097401 172.788385
L 322.330697 178.347631
L 322.447345 175.055881
L 323.030585 190.213177
L 323.263881 186.024685
L 323.380529 187.482757
L 323.497177 178.123099
L 323.613825 183.589483
L 323.730473 179.382973
L 323.847121 179.266549
L 323.963768 179.830651
L 324.080416 173.708689
L 324.197064 178.292191
L 324.313712 177.050335
L 324.43036 177.316447
L 324.547008 172.419709
L 324.780304 181.450885
L 324.896952 185.654623
L 325.130248 184.500085
L 325.246896 190.286635
L 325.363544 186.470977
L 325.480192 190.780051
L 325.59684 186.512557
L 325.713488 177.748879
L 325.830136 179.302585
L 326.180079 168.064897
L 326.530023 173.475841
L 326.646671 174.332389
L 326.763319 176.512567
L 326.879967 189.563143
L 326.996615 189.392665
L 327.346559 200.166043
L 327.579855 193.425925
L 327.696503 194.586007
L 327.81315 192.760645
L 327.929798 194.823013
L 328.163094 192.509779
L 328.39639 181.475833
L 328.513038 179.927671
L 328.746334 185.554831
L 328.97963 174.012223
L 329.329574 177.377431
L 329.56287 189.929047
L 329.796165 182.678881
L 329.912813 181.996969
L 330.146109 189.825097
L 330.379405 186.954691
L 330.496053 187.399597
L 330.729349 185.026765
L 330.962645 193.313659
L 331.195941 189.427315
L 331.312589 191.669863
L 331.429237 189.862519
L 331.662533 182.387821
L 331.77918 182.841043
L 332.012476 184.458505
L 332.129124 183.456427
L 332.245772 184.339309
L 332.36242 183.360793
L 332.595716 185.475829
L 332.829012 192.541657
L 332.94566 194.213173
L 333.062308 187.377421
L 333.178956 187.437019
L 333.295604 186.781441
L 333.412252 187.438405
L 333.5289 184.931131
L 333.645547 173.524351
L 333.762195 175.534051
L 333.878843 174.057961
L 333.995491 174.949159
L 334.112139 173.952625
L 334.228787 176.279719
L 334.462083 173.746111
L 334.578731 174.565237
L 334.812027 186.154969
L 334.928675 183.915193
L 335.045323 184.932517
L 335.161971 181.048945
L 335.395267 183.976177
L 335.628562 187.294261
L 335.861858 181.640767
L 335.978506 183.915193
L 336.095154 179.999743
L 336.211802 180.081517
L 336.32845 184.228429
L 336.445098 184.290799
L 336.561746 183.227737
L 336.795042 177.455047
L 336.91169 175.560385
L 337.144986 181.502167
L 337.261634 184.242289
L 337.378282 183.328915
L 337.494929 181.144579
L 337.611577 172.895107
L 337.728225 172.702453
L 337.844873 174.087067
L 337.961521 173.992819
L 338.078169 179.115475
L 338.194817 174.070435
L 338.311465 174.350407
L 338.428113 175.182007
L 338.544761 164.225677
L 338.661409 167.309527
L 338.778057 174.949159
L 338.894705 173.005987
L 339.128001 176.920051
L 339.244649 174.806401
L 339.361297 180.328225
L 339.477944 180.185467
L 339.594592 180.770359
L 339.71124 191.349697
L 339.944536 188.836879
L 340.177832 193.563139
L 340.29448 191.575615
L 340.411128 192.328213
L 340.527776 192.003889
L 340.644424 193.051705
L 340.761072 186.581857
L 341.111016 188.439097
L 341.227664 184.839655
L 341.694255 188.640067
L 341.810903 186.461275
L 341.927551 191.642143
L 342.160847 187.014289
L 342.277495 186.914497
L 342.394143 190.928353
L 342.510791 189.662935
L 342.744087 193.263763
L 342.860735 192.622045
L 343.210679 199.234651
L 343.327326 199.053085
L 343.443974 199.783507
L 343.560622 194.260297
L 343.67727 194.074573
L 343.793918 189.163975
L 343.910566 177.848671
L 344.027214 178.698289
L 344.143862 176.774521
L 344.26051 167.751661
L 344.377158 171.206959
L 344.493806 169.718395
L 344.610454 169.909663
L 344.84375 176.468215
L 344.960398 179.021227
L 345.077046 185.872225
L 345.310341 185.524339
L 345.426989 192.602641
L 345.543637 191.162587
L 345.660285 195.665701
L 345.776933 193.923499
L 345.893581 194.143873
L 346.126877 190.956073
L 346.243525 194.509777
L 346.476821 188.996269
L 346.593469 189.416227
L 346.710117 188.516713
L 346.943413 180.637303
L 347.060061 180.601267
L 347.176708 183.058645
L 347.410004 180.616513
L 347.6433 186.193777
L 347.876596 183.777979
L 347.993244 187.930435
L 348.22654 170.670577
L 348.459836 164.343487
L 348.693132 160.117573
L 348.80978 160.555549
L 349.043075 162.110641
L 349.159723 161.589505
L 349.393019 184.270009
L 349.626315 196.660849
L 349.859611 191.992801
L 349.976259 181.858369
L 350.092907 183.686503
L 350.209555 188.613733
L 350.442851 173.725321
L 350.559499 174.572167
L 350.909443 152.538925
L 351.02609 151.782169
L 351.142738 163.367743
L 351.376034 158.877103
L 351.60933 171.043411
L 351.725978 167.457829
L 352.19257 193.626895
L 352.309218 193.384345
L 352.425866 191.913799
L 352.659162 187.735009
L 352.77581 189.578389
L 352.892458 187.861135
L 353.009105 178.606813
L 353.125753 182.023303
L 353.359049 175.816795
L 353.475697 173.920747
L 353.825641 179.319217
L 354.058937 179.840353
L 354.175585 189.712831
L 354.292233 189.400981
L 354.642177 194.893699
L 354.758825 196.368403
L 354.875472 196.020517
L 354.99212 191.089129
L 355.225416 195.481363
L 355.342064 194.505619
L 355.458712 192.308809
L 355.692008 197.139019
L 355.808656 196.572145
L 355.925304 197.165353
L 356.041952 194.339299
L 356.275248 199.753015
L 356.508544 201.845875
L 356.74184 198.139711
L 356.975135 197.041999
L 357.208431 186.243673
L 357.325079 184.789759
L 357.558375 173.168149
L 357.675023 174.024697
L 357.791671 178.839661
L 357.908319 175.071127
L 358.141615 176.351791
L 358.374911 188.586013
L 358.491559 190.677487
L 358.724854 200.457103
L 358.95815 193.238815
L 359.074798 194.329597
L 359.308094 183.133489
L 359.424742 183.050329
L 359.54139 181.127947
L 359.774686 172.411393
L 359.891334 171.938767
L 360.007982 178.105081
L 360.12463 177.360799
L 360.241278 178.270015
L 360.474574 183.298423
L 360.707869 178.655323
L 360.824517 185.496619
L 360.941165 185.245753
L 361.057813 185.477215
L 361.174461 185.453653
L 361.407757 188.044087
L 361.641053 193.297027
L 361.757701 189.542353
L 361.874349 191.104375
L 361.990997 190.674715
L 362.224293 185.783521
L 362.457589 183.147349
L 362.690884 174.590185
L 362.807532 174.583255
L 363.040828 182.692741
L 363.157476 181.335847
L 363.390772 185.500777
L 363.50742 186.824407
L 363.624068 184.642843
L 363.857364 190.951915
L 363.974012 190.311583
L 364.09066 190.419691
L 364.207308 182.770357
L 364.323956 185.844505
L 364.440604 185.238823
L 364.557251 186.135565
L 364.790547 182.319907
L 364.907195 184.296343
L 365.023843 182.038549
L 365.140491 182.965783
L 365.373787 190.878457
L 365.490435 190.181299
L 365.607083 191.698969
L 365.723731 191.290099
L 365.840379 185.367721
L 365.957027 189.259609
L 366.306971 183.136261
L 366.540266 184.423855
L 366.656914 184.227043
L 366.89021 182.609581
L 367.006858 190.692733
L 367.123506 189.335839
L 367.356802 193.899937
L 367.590098 190.077349
L 367.706746 191.215255
L 367.823394 189.547897
L 368.05669 193.449487
L 368.406633 170.487625
L 368.523281 172.465447
L 368.756577 178.203487
L 368.873225 178.491775
L 369.106521 181.204177
L 369.223169 174.957475
L 369.573113 200.325433
L 369.689761 200.095357
L 370.273001 187.265155
L 370.389648 192.798067
L 370.506296 188.120317
L 370.622944 188.404447
L 370.739592 187.948453
L 370.85624 186.432169
L 370.972888 187.843117
L 371.089536 187.729465
L 371.43948 195.592243
L 371.556128 195.058633
L 371.672776 199.457797
L 371.789424 196.487599
L 371.906072 197.550661
L 372.02272 192.059329
L 372.139368 193.051705
L 372.256015 192.617887
L 372.372663 190.123087
L 372.489311 192.386425
L 372.722607 185.055871
L 372.839255 186.461275
L 372.955903 191.123779
L 373.072551 183.109927
L 373.189199 185.360791
L 373.305847 183.484147
L 373.422495 184.861831
L 373.655791 182.048251
L 373.772439 182.792533
L 373.889087 188.502853
L 374.005735 187.909645
L 374.122383 188.218723
L 374.23903 195.775195
L 374.355678 192.681643
L 374.472326 195.129319
L 374.938918 173.877781
L 375.055566 172.393375
L 375.172214 172.475149
L 375.40551 163.698997
L 375.522158 170.793931
L 375.755454 168.157759
L 375.98875 185.104381
L 376.222045 174.375355
L 376.338693 172.597117
L 376.455341 174.511183
L 376.571989 179.773825
L 376.688637 177.463363
L 376.805285 179.912425
L 377.038581 186.038545
L 377.155229 184.414153
L 377.271877 186.648385
L 377.505173 180.225661
L 377.621821 180.879853
L 377.738469 178.888171
L 377.855117 174.346249
L 377.971765 174.346249
L 378.088412 175.940149
L 378.20506 172.979653
L 378.321708 175.442575
L 378.438356 175.463365
L 378.671652 187.633831
L 378.7883 184.931131
L 378.904948 185.238823
L 379.138244 189.965083
L 379.488188 178.730167
L 379.604836 186.371185
L 379.838132 183.385741
L 380.071427 187.660165
L 380.188075 187.260997
L 380.304723 181.902721
L 380.887963 194.196541
L 381.121259 190.444639
L 381.237907 190.935283
L 381.354555 186.871531
L 381.471203 190.382269
L 381.587851 189.498001
L 381.704499 189.772429
L 381.821147 191.260993
L 381.937794 190.766191
L 382.054442 189.162589
L 382.17109 190.425235
L 382.404386 185.743327
L 382.521034 189.866677
L 382.637682 186.680263
L 382.870978 189.035077
L 382.987626 188.415535
L 383.104274 186.592945
L 383.220922 187.036465
L 383.687514 193.600561
L 383.804161 197.834791
L 384.037457 190.633135
L 384.154105 190.914493
L 384.270753 194.529181
L 384.387401 190.107841
L 384.620697 190.556905
L 384.853993 193.883305
L 384.970641 193.567297
L 385.087289 202.055161
L 385.203937 199.822315
L 385.437233 193.069723
L 385.903824 188.792527
L 386.253768 177.484153
L 386.370416 178.719079
L 386.487064 181.897177
L 386.603712 181.974793
L 386.837008 189.331681
L 387.186952 197.093281
L 387.420248 191.337223
L 387.536896 192.482059
L 387.770191 182.944993
L 387.886839 184.116163
L 388.003487 181.154281
L 388.236783 181.340005
L 388.353431 177.926287
L 388.586727 188.271391
L 388.703375 182.071813
L 388.936671 194.544427
L 389.053319 194.206243
L 389.169967 197.973391
L 389.286615 197.876371
L 389.403263 185.607499
L 389.519911 189.794605
L 389.636558 188.035771
L 389.869854 191.230501
L 389.986502 186.116161
L 390.10315 186.563839
L 390.336446 184.222885
L 390.453094 184.468207
L 390.569742 195.972007
L 390.68639 195.608875
L 390.919686 184.746793
L 391.036334 185.984491
L 391.26963 191.938747
L 391.386278 192.342073
L 391.502926 191.418997
L 391.619573 188.466817
L 391.736221 188.396131
L 391.852869 188.766193
L 391.969517 200.238115
L 392.086165 199.320583
L 392.319461 200.210395
L 392.436109 200.103673
L 392.669405 193.643527
L 392.902701 197.632435
L 393.019349 198.013585
L 393.135997 196.336525
L 393.252645 191.628283
L 393.369293 194.962999
L 393.48594 194.045467
L 393.602588 188.768965
L 393.835884 190.612345
L 394.185828 184.834111
L 394.302476 185.130715
L 394.419124 190.365637
L 394.65242 188.243671
L 394.885716 196.218715
L 395.119012 197.176441
L 395.468955 199.482745
L 395.585603 198.185449
L 395.702251 198.889537
L 395.818899 198.814693
L 396.052195 192.039925
L 396.168843 193.424539
L 396.285491 194.755099
L 396.402139 193.118233
L 396.518787 193.191691
L 396.868731 166.056583
L 396.985379 162.993523
L 397.102027 166.071829
L 397.335322 158.364283
L 397.45197 153.377455
L 397.685266 154.203511
L 398.03521 180.975487
L 398.151858 183.266545
L 398.268506 181.538203
L 398.385154 193.012897
L 398.501802 193.086355
L 398.735098 200.466805
L 398.851746 196.080115
L 398.968394 196.773115
L 399.20169 193.143181
L 399.434985 186.055177
L 399.551633 187.061413
L 399.901577 178.461283
L 400.018225 182.452963
L 400.134873 172.964407
L 400.251521 175.115479
L 400.368169 175.094689
L 400.601465 184.818865
L 400.718113 183.765505
L 401.068057 192.785593
L 401.184704 187.866679
L 401.418 191.236045
L 401.651296 184.523647
L 401.767944 183.890245
L 402.00124 184.428013
L 402.117888 186.008053
L 402.351184 183.924895
L 402.467832 183.908263
L 402.58448 182.437717
L 402.817776 191.588089
L 402.934424 189.675409
L 403.051072 184.755109
L 403.167719 184.864603
L 403.284367 181.572853
L 403.517663 172.430797
L 403.634311 178.630375
L 403.867607 171.758587
L 403.984255 170.562469
L 404.217551 173.535439
L 404.334199 171.348331
L 404.450847 174.459901
L 404.800791 188.221495
L 405.150734 195.004579
L 405.267382 194.439091
L 405.38403 194.610955
L 405.617326 190.958845
L 405.733974 192.493147
L 405.850622 189.967855
L 406.083918 192.014977
L 406.200566 189.312277
L 406.317214 189.996961
L 406.433862 181.231897
L 406.55051 182.511175
L 406.667158 185.453653
L 406.900454 180.423859
L 407.017101 183.520183
L 407.133749 178.979647
L 407.367045 182.166061
L 407.483693 181.172299
L 407.716989 192.416917
L 407.833637 191.450875
L 408.066933 195.942901
L 408.416877 191.919343
L 408.533525 194.239507
L 408.650173 193.116847
L 408.766821 190.491763
L 408.883469 191.309503
L 409.116764 195.822319
L 409.233412 192.315739
L 409.35006 194.960227
L 409.466708 200.275537
L 409.583356 193.579771
L 409.700004 194.003887
L 410.049948 200.081497
L 410.283244 195.327517
L 410.399892 196.130011
L 410.633188 182.731549
L 410.749836 189.219415
L 410.866483 187.791835
L 411.099779 177.988657
L 411.216427 177.678193
L 411.566371 183.959545
L 411.799667 193.927657
L 411.916315 193.080811
L 412.032963 194.135557
L 412.266259 201.750241
L 412.382907 201.326125
L 412.499555 200.317117
L 412.616203 191.779357
L 412.732851 193.211095
L 412.849498 197.165353
L 413.082794 182.117551
L 413.31609 179.698981
L 413.432738 181.337233
L 413.666034 179.966479
L 413.782682 182.756497
L 414.015978 177.076669
L 414.365922 189.111307
L 414.48257 187.697587
L 414.599218 184.731547
L 414.832513 187.827871
L 414.949161 187.507705
L 415.065809 190.367023
L 415.182457 188.976865
L 415.415753 195.305341
L 415.532401 193.743319
L 415.765697 198.610951
L 415.998993 197.136247
L 416.348937 203.776573
L 416.582233 200.874289
L 416.69888 202.917253
L 416.932176 196.491757
L 417.048824 188.721841
L 417.165472 188.685805
L 417.28212 190.800841
L 417.515416 177.310903
L 417.632064 177.850057
L 417.748712 180.365647
L 417.982008 178.670569
L 418.215304 187.708675
L 418.331952 186.719071
L 418.4486 188.207635
L 418.681895 201.385723
L 418.915191 198.925573
L 419.031839 197.366323
L 419.148487 200.107831
L 419.265135 199.321969
L 419.381783 204.307411
L 419.615079 202.871515
L 419.731727 195.312271
L 420.081671 198.707971
L 420.198319 196.227031
L 420.314967 196.774501
L 420.431615 196.731535
L 420.548262 191.459191
L 420.66491 193.222183
L 420.781558 191.193079
L 420.898206 196.622041
L 421.014854 192.903403
L 421.131502 192.956071
L 421.364798 181.159825
L 421.481446 180.394753
L 421.598094 178.009447
L 421.714742 179.377429
L 421.83139 176.963017
L 422.064686 178.574935
L 422.531277 189.937363
L 422.647925 187.148731
L 423.114517 195.621349
L 423.231165 195.984481
L 423.347813 195.126547
L 423.464461 193.218025
L 423.697757 202.282465
L 424.164349 190.777279
L 424.280997 190.965775
L 424.514292 193.748863
L 424.63094 194.300491
L 424.747588 190.466815
L 424.980884 177.337237
L 425.097532 174.917281
L 425.21418 168.631771
L 425.330828 171.579793
L 425.564124 161.449519
L 425.680772 159.730879
L 425.79742 152.443291
L 426.030716 162.087079
L 426.264012 176.756503
L 426.380659 182.969941
L 426.497307 182.121709
L 426.730603 192.373951
L 426.847251 191.406523
L 427.080547 196.504231
L 427.197195 197.256829
L 427.313843 192.342073
L 427.430491 194.655307
L 427.547139 193.832023
L 427.780435 195.378799
L 427.897083 193.798759
L 428.013731 187.568689
L 428.130379 193.309501
L 428.363674 190.328215
L 428.480322 191.183377
L 428.59697 190.785595
L 428.713618 190.918651
L 428.946914 186.637297
L 429.063562 187.682341
L 429.18021 195.396817
L 429.296858 191.596405
L 429.413506 193.037845
L 429.530154 190.472359
L 429.996746 197.330287
L 430.230041 187.364947
L 430.346689 187.672639
L 430.463337 191.001811
L 430.579985 187.327525
L 430.813281 195.075265
L 430.929929 194.142487
L 431.046577 194.246437
L 431.163225 189.069727
L 431.396521 197.488291
L 431.513169 191.369101
L 431.629817 191.622739
L 431.746465 183.704521
L 431.863113 184.265851
L 431.979761 184.124479
L 432.096408 185.427319
L 432.213056 184.362871
L 432.446352 190.425235
L 432.563 191.730847
L 432.679648 197.159809
L 432.796296 196.035763
L 432.912944 203.852803
L 433.14624 200.975467
L 433.262888 201.040609
L 433.379536 202.658071
L 433.72948 195.423151
L 433.846128 185.163979
L 433.962776 186.531961
L 434.196071 193.305343
L 434.312719 192.793909
L 434.429367 192.536113
L 434.546015 191.205553
L 434.662663 193.262377
L 434.779311 192.879841
L 434.895959 193.224955
L 435.012607 201.787663
L 435.129255 200.444629
L 435.245903 200.992099
L 435.362551 200.911711
L 435.479199 201.768259
L 435.595847 196.150801
L 435.712495 197.247127
L 435.829143 196.879837
L 435.94579 197.843107
L 436.062438 200.775883
L 436.412382 195.180601
L 436.645678 189.570073
L 436.762326 192.538885
L 436.995622 187.728079
L 437.11227 185.425933
L 437.228918 185.410687
L 437.462214 191.757181
L 437.578862 190.993495
L 437.69551 195.305341
L 437.812158 194.813311
L 438.045453 200.918641
L 438.162101 201.187525
L 438.278749 202.646983
L 438.395397 201.055855
L 438.512045 203.064169
L 438.628693 200.526403
L 438.745341 201.510463
L 438.861989 199.917949
L 438.978637 201.331669
L 439.211933 199.716979
L 439.328581 201.466111
L 439.445229 200.581843
L 439.561877 201.891613
L 439.678525 200.531947
L 439.795172 203.750239
L 439.91182 200.877061
L 440.028468 201.205543
L 440.145116 200.972695
L 440.261764 198.421069
L 440.378412 199.940125
L 440.49506 197.044771
L 440.611708 197.750245
L 440.728356 190.404445
L 440.845004 191.248519
L 441.0783 182.123095
L 441.194948 183.819559
L 441.311596 183.316441
L 441.428244 181.531273
L 441.544892 173.793235
L 441.66154 176.009449
L 441.778187 173.078059
L 441.894835 174.342091
L 442.011483 173.786305
L 442.128131 180.288031
L 442.244779 179.822335
L 442.361427 177.017071
L 442.478075 177.442573
L 442.594723 180.178537
L 442.711371 187.147345
L 442.828019 187.371877
L 443.177963 194.318509
L 443.294611 193.021213
L 443.527907 198.699655
L 443.761202 198.465421
L 443.87785 200.193763
L 444.111146 194.831329
L 444.227794 198.594319
L 444.344442 197.583925
L 444.46109 194.021905
L 444.577738 196.493143
L 444.694386 195.571453
L 444.811034 195.845881
L 444.927682 196.658077
L 445.04433 195.837565
L 445.160978 201.766873
L 445.277626 201.550657
L 445.510922 194.932507
L 445.744217 195.863899
L 445.860865 196.918645
L 445.977513 194.739853
L 446.210809 195.779353
L 446.327457 191.721145
L 446.560753 193.097443
L 446.677401 189.829255
L 446.794049 190.755103
L 447.027345 180.780061
L 447.143993 181.425937
L 447.260641 179.965093
L 447.377289 175.832041
L 447.493937 179.527117
L 447.610584 177.287341
L 447.727232 177.841741
L 447.84388 173.876395
L 447.960528 176.824417
L 448.077176 184.799461
L 448.310472 178.502863
L 448.543768 183.825103
L 448.660416 183.233281
L 448.777064 184.385047
L 449.01036 193.958149
L 449.127008 192.713521
L 449.243656 187.309507
L 449.476951 196.203469
L 449.593599 196.631743
L 449.710247 197.621347
L 449.826895 191.387119
L 449.943543 191.675407
L 450.060191 191.219413
L 450.176839 189.578389
L 450.643431 195.400975
L 450.760079 194.166049
L 450.876727 188.644225
L 450.993375 193.784899
L 451.110023 189.044779
L 451.226671 189.984487
L 451.343319 193.420381
L 451.459966 191.651845
L 451.576614 191.761339
L 451.80991 189.812623
L 451.926558 191.136253
L 452.276502 202.883989
L 452.39315 198.710743
L 452.509798 199.236037
L 452.626446 197.568679
L 452.743094 198.651145
L 452.859742 201.241579
L 452.97639 201.180595
L 453.093038 199.443937
L 453.209686 199.410673
L 453.442981 198.730147
L 453.676277 204.330973
L 453.792925 207.718357
L 453.909573 206.756473
L 454.259517 209.711425
L 454.376165 205.245733
L 454.492813 205.385719
L 454.726109 203.301175
L 454.842757 202.380871
L 454.959405 197.317813
L 455.076053 198.124465
L 455.309348 195.499381
L 455.425996 193.478593
L 455.542644 197.863897
L 455.659292 193.845883
L 455.892588 195.015667
L 456.125884 184.092601
L 456.242532 183.693433
L 456.35918 181.577011
L 456.475828 181.532659
L 456.592476 182.981029
L 456.709124 181.448113
L 456.825772 187.254067
L 456.94242 186.875689
L 457.059068 182.788375
L 457.292363 195.150109
L 457.409011 195.030913
L 457.642307 198.719059
L 457.758955 192.640063
L 457.875603 194.405827
L 457.992251 191.181991
L 458.108899 191.484139
L 458.342195 197.823703
L 458.575491 200.660845
L 458.692139 201.516007
L 458.808787 201.054469
L 458.925435 207.513229
L 459.042083 205.600549
L 459.15873 207.060007
L 459.508674 202.057933
L 459.74197 182.135569
L 459.858618 181.934599
L 460.091914 176.791153
L 460.208562 173.141815
L 460.32521 174.548605
L 460.441858 173.667109
L 460.675154 177.768283
L 460.90845 199.747471
L 461.025098 198.411367
L 461.608337 209.406505
L 461.841633 205.879135
L 462.074929 204.525013
L 462.191577 206.116141
L 462.424873 205.262365
L 462.541521 207.060007
L 462.658169 205.655989
L 462.774817 202.689949
L 462.891465 203.399581
L 463.241408 201.206929
L 463.474704 198.755095
L 463.591352 199.319197
L 463.708 198.552739
L 463.824648 199.370479
L 463.941296 201.459181
L 464.174592 193.643527
L 464.29124 193.644913
L 464.407888 190.028839
L 464.524536 189.944293
L 464.641184 191.394049
L 464.87448 183.315055
L 464.991127 174.416935
L 465.107775 175.920745
L 465.341071 185.170909
L 465.574367 188.222881
L 465.807663 185.931823
L 466.040959 193.994185
L 466.157607 202.288009
L 466.274255 195.518785
L 466.390903 195.453643
L 466.624199 192.782821
L 466.740847 195.158425
L 466.857494 191.367715
L 466.974142 193.215253
L 467.324086 182.080129
L 467.557382 189.290101
L 467.67403 184.735705
L 467.907326 185.019835
L 468.023974 190.220107
L 468.140622 188.982409
L 468.25727 194.292175
L 468.373918 194.422459
L 468.607214 196.166047
L 468.723862 195.840337
L 468.840509 202.028827
L 468.957157 202.143865
L 469.073805 201.588079
L 469.190453 199.297021
L 469.307101 200.103673
L 469.423749 198.793903
L 469.657045 205.732219
L 469.773693 202.590157
L 469.890341 203.601937
L 469.890341 203.601937
" clip-path="url(#p0ee506f947)" style="fill: none; stroke: #1f77b4; stroke-width: 1.5; stroke-linecap: square"/>
   </g>
   <g id="line2d_19">
    <path d="M 64.072159 139.804674
L 85.431011 147.827823
L 106.789862 99.571522
L 128.148714 145.361375
L 149.507566 86.794537
L 170.866417 129.920945
L 192.225269 112.426483
L 213.584121 117.741701
L 234.942972 102.91222
L 256.301824 117.756166
L 277.660676 121.319603
L 299.019528 75.019497
L 320.378379 84.076585
L 341.737231 99.0395
L 363.096083 63.584371
L 384.454934 59.799881
L 405.813786 57.943555
L 427.172638 64.580425
L 448.531489 59.463154
L 469.890341 55.376485
" clip-path="url(#p0ee506f947)" style="fill: none; stroke: #ff7f0e; stroke-width: 1.5; stroke-linecap: square"/>
   </g>
   <g id="patch_3">
    <path d="M 43.78125 232.759219
L 43.78125 10.999219
" style="fill: none; stroke: #000000; stroke-width: 0.8; stroke-linejoin: miter; stroke-linecap: square"/>
   </g>
   <g id="patch_4">
    <path d="M 490.18125 232.759219
L 490.18125 10.999219
" style="fill: none; stroke: #000000; stroke-width: 0.8; stroke-linejoin: miter; stroke-linecap: square"/>
   </g>
   <g id="patch_5">
    <path d="M 43.78125 232.759219
L 490.18125 232.759219
" style="fill: none; stroke: #000000; stroke-width: 0.8; stroke-linejoin: miter; stroke-linecap: square"/>
   </g>
   <g id="patch_6">
    <path d="M 43.78125 10.999219
L 490.18125 10.999219
" style="fill: none; stroke: #000000; stroke-width: 0.8; stroke-linejoin: miter; stroke-linecap: square"/>
   </g>
   <g id="legend_1">
    <g id="patch_7">
     <path d="M 50.78125 48.355469
L 154.509375 48.355469
Q 156.509375 48.355469 156.509375 46.355469
L 156.509375 17.999219
Q 156.509375 15.999219 154.509375 15.999219
L 50.78125 15.999219
Q 48.78125 15.999219 48.78125 17.999219
L 48.78125 46.355469
Q 48.78125 48.355469 50.78125 48.355469
z
" style="fill: #ffffff; opacity: 0.8; stroke: #cccccc; stroke-linejoin: miter"/>
    </g>
    <g id="line2d_20">
     <path d="M 52.78125 24.097656
L 62.78125 24.097656
L 72.78125 24.097656
" style="fill: none; stroke: #1f77b4; stroke-width: 1.5; stroke-linecap: square"/>
    </g>
    <g id="text_19">
     <!-- training loss -->
     <g transform="translate(80.78125 27.597656) scale(0.1 -0.1)">
      <defs>
       <path id="DejaVuSans-74" d="M 1172 4494
L 1172 3500
L 2356 3500
L 2356 3053
L 1172 3053
L 1172 1153
Q 1172 725 1289 603
Q 1406 481 1766 481
L 2356 481
L 2356 0
L 1766 0
Q 1100 0 847 248
Q 594 497 594 1153
L 594 3053
L 172 3053
L 172 3500
L 594 3500
L 594 4494
L 1172 4494
z
" transform="scale(0.015625)"/>
       <path id="DejaVuSans-72" d="M 2631 2963
Q 2534 3019 2420 3045
Q 2306 3072 2169 3072
Q 1681 3072 1420 2755
Q 1159 2438 1159 1844
L 1159 0
L 581 0
L 581 3500
L 1159 3500
L 1159 2956
Q 1341 3275 1631 3429
Q 1922 3584 2338 3584
Q 2397 3584 2469 3576
Q 2541 3569 2628 3553
L 2631 2963
z
" transform="scale(0.015625)"/>
       <path id="DejaVuSans-61" d="M 2194 1759
Q 1497 1759 1228 1600
Q 959 1441 959 1056
Q 959 750 1161 570
Q 1363 391 1709 391
Q 2188 391 2477 730
Q 2766 1069 2766 1631
L 2766 1759
L 2194 1759
z
M 3341 1997
L 3341 0
L 2766 0
L 2766 531
Q 2569 213 2275 61
Q 1981 -91 1556 -91
Q 1019 -91 701 211
Q 384 513 384 1019
Q 384 1609 779 1909
Q 1175 2209 1959 2209
L 2766 2209
L 2766 2266
Q 2766 2663 2505 2880
Q 2244 3097 1772 3097
Q 1472 3097 1187 3025
Q 903 2953 641 2809
L 641 3341
Q 956 3463 1253 3523
Q 1550 3584 1831 3584
Q 2591 3584 2966 3190
Q 3341 2797 3341 1997
z
" transform="scale(0.015625)"/>
       <path id="DejaVuSans-69" d="M 603 3500
L 1178 3500
L 1178 0
L 603 0
L 603 3500
z
M 603 4863
L 1178 4863
L 1178 4134
L 603 4134
L 603 4863
z
" transform="scale(0.015625)"/>
       <path id="DejaVuSans-6e" d="M 3513 2113
L 3513 0
L 2938 0
L 2938 2094
Q 2938 2591 2744 2837
Q 2550 3084 2163 3084
Q 1697 3084 1428 2787
Q 1159 2491 1159 1978
L 1159 0
L 581 0
L 581 3500
L 1159 3500
L 1159 2956
Q 1366 3272 1645 3428
Q 1925 3584 2291 3584
Q 2894 3584 3203 3211
Q 3513 2838 3513 2113
z
" transform="scale(0.015625)"/>
       <path id="DejaVuSans-67" d="M 2906 1791
Q 2906 2416 2648 2759
Q 2391 3103 1925 3103
Q 1463 3103 1205 2759
Q 947 2416 947 1791
Q 947 1169 1205 825
Q 1463 481 1925 481
Q 2391 481 2648 825
Q 2906 1169 2906 1791
z
M 3481 434
Q 3481 -459 3084 -895
Q 2688 -1331 1869 -1331
Q 1566 -1331 1297 -1286
Q 1028 -1241 775 -1147
L 775 -588
Q 1028 -725 1275 -790
Q 1522 -856 1778 -856
Q 2344 -856 2625 -561
Q 2906 -266 2906 331
L 2906 616
Q 2728 306 2450 153
Q 2172 0 1784 0
Q 1141 0 747 490
Q 353 981 353 1791
Q 353 2603 747 3093
Q 1141 3584 1784 3584
Q 2172 3584 2450 3431
Q 2728 3278 2906 2969
L 2906 3500
L 3481 3500
L 3481 434
z
" transform="scale(0.015625)"/>
       <path id="DejaVuSans-20" transform="scale(0.015625)"/>
       <path id="DejaVuSans-6c" d="M 603 4863
L 1178 4863
L 1178 0
L 603 0
L 603 4863
z
" transform="scale(0.015625)"/>
      </defs>
      <use xlink:href="#DejaVuSans-74"/>
      <use xlink:href="#DejaVuSans-72" x="39.208984"/>
      <use xlink:href="#DejaVuSans-61" x="80.322266"/>
      <use xlink:href="#DejaVuSans-69" x="141.601562"/>
      <use xlink:href="#DejaVuSans-6e" x="169.384766"/>
      <use xlink:href="#DejaVuSans-69" x="232.763672"/>
      <use xlink:href="#DejaVuSans-6e" x="260.546875"/>
      <use xlink:href="#DejaVuSans-67" x="323.925781"/>
      <use xlink:href="#DejaVuSans-20" x="387.402344"/>
      <use xlink:href="#DejaVuSans-6c" x="419.189453"/>
      <use xlink:href="#DejaVuSans-6f" x="446.972656"/>
      <use xlink:href="#DejaVuSans-73" x="508.154297"/>
      <use xlink:href="#DejaVuSans-73" x="560.253906"/>
     </g>
    </g>
    <g id="line2d_21">
     <path d="M 52.78125 38.775781
L 62.78125 38.775781
L 72.78125 38.775781
" style="fill: none; stroke: #ff7f0e; stroke-width: 1.5; stroke-linecap: square"/>
    </g>
    <g id="text_20">
     <!-- validation loss -->
     <g transform="translate(80.78125 42.275781) scale(0.1 -0.1)">
      <defs>
       <path id="DejaVuSans-76" d="M 191 3500
L 800 3500
L 1894 563
L 2988 3500
L 3597 3500
L 2284 0
L 1503 0
L 191 3500
z
" transform="scale(0.015625)"/>
       <path id="DejaVuSans-64" d="M 2906 2969
L 2906 4863
L 3481 4863
L 3481 0
L 2906 0
L 2906 525
Q 2725 213 2448 61
Q 2172 -91 1784 -91
Q 1150 -91 751 415
Q 353 922 353 1747
Q 353 2572 751 3078
Q 1150 3584 1784 3584
Q 2172 3584 2448 3432
Q 2725 3281 2906 2969
z
M 947 1747
Q 947 1113 1208 752
Q 1469 391 1925 391
Q 2381 391 2643 752
Q 2906 1113 2906 1747
Q 2906 2381 2643 2742
Q 2381 3103 1925 3103
Q 1469 3103 1208 2742
Q 947 2381 947 1747
z
" transform="scale(0.015625)"/>
      </defs>
      <use xlink:href="#DejaVuSans-76"/>
      <use xlink:href="#DejaVuSans-61" x="59.179688"/>
      <use xlink:href="#DejaVuSans-6c" x="120.458984"/>
      <use xlink:href="#DejaVuSans-69" x="148.242188"/>
      <use xlink:href="#DejaVuSans-64" x="176.025391"/>
      <use xlink:href="#DejaVuSans-61" x="239.501953"/>
      <use xlink:href="#DejaVuSans-74" x="300.78125"/>
      <use xlink:href="#DejaVuSans-69" x="339.990234"/>
      <use xlink:href="#DejaVuSans-6f" x="367.773438"/>
      <use xlink:href="#DejaVuSans-6e" x="428.955078"/>
      <use xlink:href="#DejaVuSans-20" x="492.333984"/>
      <use xlink:href="#DejaVuSans-6c" x="524.121094"/>
      <use xlink:href="#DejaVuSans-6f" x="551.904297"/>
      <use xlink:href="#DejaVuSans-73" x="613.085938"/>
      <use xlink:href="#DejaVuSans-73" x="665.185547"/>
     </g>
    </g>
   </g>
  </g>
  <g id="axes_2">
   <g id="PathCollection_1">
    <defs>
     <path id="m66fa4180b2" d="M -3 3
L 3 -3
M -3 -3
L 3 3
" style="stroke: #008000; stroke-width: 1.5"/>
    </defs>
    <g clip-path="url(#p0ee506f947)">
     <use xlink:href="#m66fa4180b2" x="64.072159" y="128.83754" style="fill: #008000; stroke: #008000; stroke-width: 1.5"/>
     <use xlink:href="#m66fa4180b2" x="85.431011" y="107.794916" style="fill: #008000; stroke: #008000; stroke-width: 1.5"/>
     <use xlink:href="#m66fa4180b2" x="106.789862" y="94.108837" style="fill: #008000; stroke: #008000; stroke-width: 1.5"/>
     <use xlink:href="#m66fa4180b2" x="128.148714" y="92.96596" style="fill: #008000; stroke: #008000; stroke-width: 1.5"/>
     <use xlink:href="#m66fa4180b2" x="149.507566" y="113.533412" style="fill: #008000; stroke: #008000; stroke-width: 1.5"/>
     <use xlink:href="#m66fa4180b2" x="170.866417" y="85.124267" style="fill: #008000; stroke: #008000; stroke-width: 1.5"/>
     <use xlink:href="#m66fa4180b2" x="192.225269" y="85.756576" style="fill: #008000; stroke: #008000; stroke-width: 1.5"/>
     <use xlink:href="#m66fa4180b2" x="213.584121" y="81.813336" style="fill: #008000; stroke: #008000; stroke-width: 1.5"/>
     <use xlink:href="#m66fa4180b2" x="234.942972" y="89.402794" style="fill: #008000; stroke: #008000; stroke-width: 1.5"/>
     <use xlink:href="#m66fa4180b2" x="256.301824" y="102.067207" style="fill: #008000; stroke: #008000; stroke-width: 1.5"/>
     <use xlink:href="#m66fa4180b2" x="277.660676" y="99.113965" style="fill: #008000; stroke: #008000; stroke-width: 1.5"/>
     <use xlink:href="#m66fa4180b2" x="299.019528" y="87.866195" style="fill: #008000; stroke: #008000; stroke-width: 1.5"/>
     <use xlink:href="#m66fa4180b2" x="320.378379" y="96.582502" style="fill: #008000; stroke: #008000; stroke-width: 1.5"/>
     <use xlink:href="#m66fa4180b2" x="341.737231" y="107.87574" style="fill: #008000; stroke: #008000; stroke-width: 1.5"/>
     <use xlink:href="#m66fa4180b2" x="363.096083" y="90.745426" style="fill: #008000; stroke: #008000; stroke-width: 1.5"/>
     <use xlink:href="#m66fa4180b2" x="384.454934" y="92.688752" style="fill: #008000; stroke: #008000; stroke-width: 1.5"/>
     <use xlink:href="#m66fa4180b2" x="405.813786" y="89.54826" style="fill: #008000; stroke: #008000; stroke-width: 1.5"/>
     <use xlink:href="#m66fa4180b2" x="427.172638" y="99.369745" style="fill: #008000; stroke: #008000; stroke-width: 1.5"/>
     <use xlink:href="#m66fa4180b2" x="448.531489" y="95.144739" style="fill: #008000; stroke: #008000; stroke-width: 1.5"/>
     <use xlink:href="#m66fa4180b2" x="469.890341" y="96.630309" style="fill: #008000; stroke: #008000; stroke-width: 1.5"/>
    </g>
   </g>
   <g id="matplotlib.axis_3">
    <g id="ytick_10">
     <g id="line2d_22">
      <defs>
       <path id="m2c1d3b18fd" d="M 0 0
L 3.5 0
" style="stroke: #000000; stroke-width: 0.8"/>
      </defs>
      <g>
       <use xlink:href="#m2c1d3b18fd" x="490.18125" y="232.759219" style="stroke: #000000; stroke-width: 0.8"/>
      </g>
     </g>
     <g id="text_21">
      <!-- 0.00 -->
      <g transform="translate(497.18125 236.558438) scale(0.1 -0.1)">
       <use xlink:href="#DejaVuSans-30"/>
       <use xlink:href="#DejaVuSans-2e" x="63.623047"/>
       <use xlink:href="#DejaVuSans-30" x="95.410156"/>
       <use xlink:href="#DejaVuSans-30" x="159.033203"/>
      </g>
     </g>
    </g>
    <g id="ytick_11">
     <g id="line2d_23">
      <g>
       <use xlink:href="#m2c1d3b18fd" x="490.18125" y="201.079219" style="stroke: #000000; stroke-width: 0.8"/>
      </g>
     </g>
     <g id="text_22">
      <!-- 0.05 -->
      <g transform="translate(497.18125 204.878438) scale(0.1 -0.1)">
       <use xlink:href="#DejaVuSans-30"/>
       <use xlink:href="#DejaVuSans-2e" x="63.623047"/>
       <use xlink:href="#DejaVuSans-30" x="95.410156"/>
       <use xlink:href="#DejaVuSans-35" x="159.033203"/>
      </g>
     </g>
    </g>
    <g id="ytick_12">
     <g id="line2d_24">
      <g>
       <use xlink:href="#m2c1d3b18fd" x="490.18125" y="169.399219" style="stroke: #000000; stroke-width: 0.8"/>
      </g>
     </g>
     <g id="text_23">
      <!-- 0.10 -->
      <g transform="translate(497.18125 173.198438) scale(0.1 -0.1)">
       <use xlink:href="#DejaVuSans-30"/>
       <use xlink:href="#DejaVuSans-2e" x="63.623047"/>
       <use xlink:href="#DejaVuSans-31" x="95.410156"/>
       <use xlink:href="#DejaVuSans-30" x="159.033203"/>
      </g>
     </g>
    </g>
    <g id="ytick_13">
     <g id="line2d_25">
      <g>
       <use xlink:href="#m2c1d3b18fd" x="490.18125" y="137.719219" style="stroke: #000000; stroke-width: 0.8"/>
      </g>
     </g>
     <g id="text_24">
      <!-- 0.15 -->
      <g transform="translate(497.18125 141.518437) scale(0.1 -0.1)">
       <use xlink:href="#DejaVuSans-30"/>
       <use xlink:href="#DejaVuSans-2e" x="63.623047"/>
       <use xlink:href="#DejaVuSans-31" x="95.410156"/>
       <use xlink:href="#DejaVuSans-35" x="159.033203"/>
      </g>
     </g>
    </g>
    <g id="ytick_14">
     <g id="line2d_26">
      <g>
       <use xlink:href="#m2c1d3b18fd" x="490.18125" y="106.039219" style="stroke: #000000; stroke-width: 0.8"/>
      </g>
     </g>
     <g id="text_25">
      <!-- 0.20 -->
      <g transform="translate(497.18125 109.838437) scale(0.1 -0.1)">
       <use xlink:href="#DejaVuSans-30"/>
       <use xlink:href="#DejaVuSans-2e" x="63.623047"/>
       <use xlink:href="#DejaVuSans-32" x="95.410156"/>
       <use xlink:href="#DejaVuSans-30" x="159.033203"/>
      </g>
     </g>
    </g>
    <g id="ytick_15">
     <g id="line2d_27">
      <g>
       <use xlink:href="#m2c1d3b18fd" x="490.18125" y="74.359219" style="stroke: #000000; stroke-width: 0.8"/>
      </g>
     </g>
     <g id="text_26">
      <!-- 0.25 -->
      <g transform="translate(497.18125 78.158437) scale(0.1 -0.1)">
       <use xlink:href="#DejaVuSans-30"/>
       <use xlink:href="#DejaVuSans-2e" x="63.623047"/>
       <use xlink:href="#DejaVuSans-32" x="95.410156"/>
       <use xlink:href="#DejaVuSans-35" x="159.033203"/>
      </g>
     </g>
    </g>
    <g id="ytick_16">
     <g id="line2d_28">
      <g>
       <use xlink:href="#m2c1d3b18fd" x="490.18125" y="42.679219" style="stroke: #000000; stroke-width: 0.8"/>
      </g>
     </g>
     <g id="text_27">
      <!-- 0.30 -->
      <g transform="translate(497.18125 46.478437) scale(0.1 -0.1)">
       <use xlink:href="#DejaVuSans-30"/>
       <use xlink:href="#DejaVuSans-2e" x="63.623047"/>
       <use xlink:href="#DejaVuSans-33" x="95.410156"/>
       <use xlink:href="#DejaVuSans-30" x="159.033203"/>
      </g>
     </g>
    </g>
    <g id="ytick_17">
     <g id="line2d_29">
      <g>
       <use xlink:href="#m2c1d3b18fd" x="490.18125" y="10.999219" style="stroke: #000000; stroke-width: 0.8"/>
      </g>
     </g>
     <g id="text_28">
      <!-- 0.35 -->
      <g transform="translate(497.18125 14.798437) scale(0.1 -0.1)">
       <use xlink:href="#DejaVuSans-30"/>
       <use xlink:href="#DejaVuSans-2e" x="63.623047"/>
       <use xlink:href="#DejaVuSans-33" x="95.410156"/>
       <use xlink:href="#DejaVuSans-35" x="159.033203"/>
      </g>
     </g>
    </g>
    <g id="text_29">
     <!-- F1 Score -->
     <g style="fill: #ff0000" transform="translate(531.045313 143.527656) rotate(-90) scale(0.1 -0.1)">
      <defs>
       <path id="DejaVuSans-46" d="M 628 4666
L 3309 4666
L 3309 4134
L 1259 4134
L 1259 2759
L 3109 2759
L 3109 2228
L 1259 2228
L 1259 0
L 628 0
L 628 4666
z
" transform="scale(0.015625)"/>
       <path id="DejaVuSans-53" d="M 3425 4513
L 3425 3897
Q 3066 4069 2747 4153
Q 2428 4238 2131 4238
Q 1616 4238 1336 4038
Q 1056 3838 1056 3469
Q 1056 3159 1242 3001
Q 1428 2844 1947 2747
L 2328 2669
Q 3034 2534 3370 2195
Q 3706 1856 3706 1288
Q 3706 609 3251 259
Q 2797 -91 1919 -91
Q 1588 -91 1214 -16
Q 841 59 441 206
L 441 856
Q 825 641 1194 531
Q 1563 422 1919 422
Q 2459 422 2753 634
Q 3047 847 3047 1241
Q 3047 1584 2836 1778
Q 2625 1972 2144 2069
L 1759 2144
Q 1053 2284 737 2584
Q 422 2884 422 3419
Q 422 4038 858 4394
Q 1294 4750 2059 4750
Q 2388 4750 2728 4690
Q 3069 4631 3425 4513
z
" transform="scale(0.015625)"/>
       <path id="DejaVuSans-63" d="M 3122 3366
L 3122 2828
Q 2878 2963 2633 3030
Q 2388 3097 2138 3097
Q 1578 3097 1268 2742
Q 959 2388 959 1747
Q 959 1106 1268 751
Q 1578 397 2138 397
Q 2388 397 2633 464
Q 2878 531 3122 666
L 3122 134
Q 2881 22 2623 -34
Q 2366 -91 2075 -91
Q 1284 -91 818 406
Q 353 903 353 1747
Q 353 2603 823 3093
Q 1294 3584 2113 3584
Q 2378 3584 2631 3529
Q 2884 3475 3122 3366
z
" transform="scale(0.015625)"/>
       <path id="DejaVuSans-65" d="M 3597 1894
L 3597 1613
L 953 1613
Q 991 1019 1311 708
Q 1631 397 2203 397
Q 2534 397 2845 478
Q 3156 559 3463 722
L 3463 178
Q 3153 47 2828 -22
Q 2503 -91 2169 -91
Q 1331 -91 842 396
Q 353 884 353 1716
Q 353 2575 817 3079
Q 1281 3584 2069 3584
Q 2775 3584 3186 3129
Q 3597 2675 3597 1894
z
M 3022 2063
Q 3016 2534 2758 2815
Q 2500 3097 2075 3097
Q 1594 3097 1305 2825
Q 1016 2553 972 2059
L 3022 2063
z
" transform="scale(0.015625)"/>
      </defs>
      <use xlink:href="#DejaVuSans-46"/>
      <use xlink:href="#DejaVuSans-31" x="57.519531"/>
      <use xlink:href="#DejaVuSans-20" x="121.142578"/>
      <use xlink:href="#DejaVuSans-53" x="152.929688"/>
      <use xlink:href="#DejaVuSans-63" x="216.40625"/>
      <use xlink:href="#DejaVuSans-6f" x="271.386719"/>
      <use xlink:href="#DejaVuSans-72" x="332.568359"/>
      <use xlink:href="#DejaVuSans-65" x="371.431641"/>
     </g>
    </g>
   </g>
   <g id="patch_8">
    <path d="M 43.78125 232.759219
L 43.78125 10.999219
" style="fill: none; stroke: #000000; stroke-width: 0.8; stroke-linejoin: miter; stroke-linecap: square"/>
   </g>
   <g id="patch_9">
    <path d="M 490.18125 232.759219
L 490.18125 10.999219
" style="fill: none; stroke: #000000; stroke-width: 0.8; stroke-linejoin: miter; stroke-linecap: square"/>
   </g>
   <g id="patch_10">
    <path d="M 43.78125 232.759219
L 490.18125 232.759219
" style="fill: none; stroke: #000000; stroke-width: 0.8; stroke-linejoin: miter; stroke-linecap: square"/>
   </g>
   <g id="patch_11">
    <path d="M 43.78125 10.999219
L 490.18125 10.999219
" style="fill: none; stroke: #000000; stroke-width: 0.8; stroke-linejoin: miter; stroke-linecap: square"/>
   </g>
   <g id="legend_2">
    <g id="patch_12">
     <path d="M 409.023438 33.677344
L 483.18125 33.677344
Q 485.18125 33.677344 485.18125 31.677344
L 485.18125 17.999219
Q 485.18125 15.999219 483.18125 15.999219
L 409.023438 15.999219
Q 407.023438 15.999219 407.023438 17.999219
L 407.023438 31.677344
Q 407.023438 33.677344 409.023438 33.677344
z
" style="fill: #ffffff; opacity: 0.8; stroke: #cccccc; stroke-linejoin: miter"/>
    </g>
    <g id="PathCollection_2">
     <g>
      <use xlink:href="#m66fa4180b2" x="421.023438" y="24.972656" style="fill: #008000; stroke: #008000; stroke-width: 1.5"/>
     </g>
    </g>
    <g id="text_30">
     <!-- F1 score -->
     <g transform="translate(439.023438 27.597656) scale(0.1 -0.1)">
      <use xlink:href="#DejaVuSans-46"/>
      <use xlink:href="#DejaVuSans-31" x="57.519531"/>
      <use xlink:href="#DejaVuSans-20" x="121.142578"/>
      <use xlink:href="#DejaVuSans-73" x="152.929688"/>
      <use xlink:href="#DejaVuSans-63" x="205.029297"/>
      <use xlink:href="#DejaVuSans-6f" x="260.009766"/>
      <use xlink:href="#DejaVuSans-72" x="321.191406"/>
      <use xlink:href="#DejaVuSans-65" x="360.054688"/>
     </g>
    </g>
   </g>
  </g>
 </g>
 <defs>
  <clipPath id="p0ee506f947">
   <rect x="43.78125" y="10.999219" width="446.4" height="221.76"/>
  </clipPath>
 </defs>
</svg>
