<?xml version="1.0" encoding="utf-8" standalone="no"?>
<!DOCTYPE svg PUBLIC "-//W3C//DTD SVG 1.1//EN"
  "http://www.w3.org/Graphics/SVG/1.1/DTD/svg11.dtd">
<svg xmlns:xlink="http://www.w3.org/1999/xlink" width="592.949375pt" height="207.994375pt" viewBox="0 0 592.949375 207.994375" xmlns="http://www.w3.org/2000/svg" version="1.1">
 <metadata>
  <rdf:RDF xmlns:dc="http://purl.org/dc/elements/1.1/" xmlns:cc="http://creativecommons.org/ns#" xmlns:rdf="http://www.w3.org/1999/02/22-rdf-syntax-ns#">
   <cc:Work>
    <dc:type rdf:resource="http://purl.org/dc/dcmitype/StillImage"/>
    <dc:date>2023-08-21T23:43:51.462931</dc:date>
    <dc:format>image/svg+xml</dc:format>
    <dc:creator>
     <cc:Agent>
      <dc:title>Matplotlib v3.7.2, https://matplotlib.org/</dc:title>
     </cc:Agent>
    </dc:creator>
   </cc:Work>
  </rdf:RDF>
 </metadata>
 <defs>
  <style type="text/css">*{stroke-linejoin: round; stroke-linecap: butt}</style>
 </defs>
 <g id="figure_1">
  <g id="patch_1">
   <path d="M 0 207.994375
L 592.949375 207.994375
L 592.949375 0
L 0 0
z
" style="fill: #ffffff"/>
  </g>
  <g id="axes_1">
   <g id="patch_2">
    <path d="M 58.523438 170.438125
L 561.213437 170.438125
L 561.213437 22.318125
L 58.523438 22.318125
z
" style="fill: #ffffff"/>
   </g>
   <g id="PolyCollection_1">
    <defs>
     <path id="m5c4c90eb2e" d="M 81.372983 -138.333927
L 81.372983 -93.462603
L 88.989498 -83.534529
L 96.606013 -95.986943
L 104.222528 -72.374067
L 111.839044 -79.63722
L 119.455559 -95.169134
L 127.072074 -105.431822
L 134.688589 -113.391091
L 142.305104 -126.305973
L 149.921619 -126.655911
L 157.538134 -112.53803
L 165.15465 -110.371808
L 172.771165 -114.813914
L 180.38768 -103.039661
L 188.004195 -97.700765
L 195.62071 -111.208473
L 203.237225 -100.73123
L 210.853741 -124.070923
L 218.470256 -110.466344
L 226.086771 -96.239967
L 233.703286 -81.922407
L 241.319801 -68.333423
L 248.936316 -52.927122
L 256.552831 -57.372653
L 264.169347 -49.723384
L 271.785862 -45.857056
L 279.402377 -45.601209
L 287.018892 -48.004702
L 294.635407 -52.33071
L 302.251922 -44.545156
L 309.868437 -48.326775
L 317.484953 -44.288977
L 325.101468 -60.621
L 332.717983 -72.226827
L 340.334498 -75.257388
L 347.951013 -89.423631
L 355.567528 -83.260161
L 363.184044 -91.981576
L 370.800559 -85.067203
L 378.417074 -90.502237
L 386.033589 -88.970747
L 393.650104 -93.195084
L 401.266619 -95.869876
L 408.883134 -102.119474
L 416.49965 -92.528546
L 424.116165 -106.602334
L 431.73268 -109.510199
L 439.349195 -110.804047
L 446.96571 -112.775108
L 454.582225 -108.355303
L 462.198741 -109.029093
L 469.815256 -102.899829
L 477.431771 -99.009033
L 485.048286 -107.492344
L 492.664801 -106.548834
L 500.281316 -95.481406
L 507.897831 -98.283468
L 515.514347 -98.182662
L 523.130862 -111.141639
L 530.747377 -107.400277
L 538.363892 -89.231074
L 538.363892 -141.62553
L 538.363892 -141.62553
L 530.747377 -161.389721
L 523.130862 -162.952932
L 515.514347 -147.251585
L 507.897831 -148.430255
L 500.281316 -149.740169
L 492.664801 -160.449093
L 485.048286 -160.81942
L 477.431771 -152.15951
L 469.815256 -153.630008
L 462.198741 -158.839621
L 454.582225 -159.742948
L 446.96571 -164.556339
L 439.349195 -162.594936
L 431.73268 -163.531534
L 424.116165 -161.788913
L 416.49965 -141.798748
L 408.883134 -150.686272
L 401.266619 -142.326833
L 393.650104 -141.150387
L 386.033589 -138.348031
L 378.417074 -142.545462
L 370.800559 -140.077713
L 363.184044 -146.011662
L 355.567528 -137.117862
L 347.951013 -144.197138
L 340.334498 -129.554019
L 332.717983 -124.304344
L 325.101468 -110.861374
L 317.484953 -92.713322
L 309.868437 -95.373175
L 302.251922 -91.834492
L 294.635407 -100.526259
L 287.018892 -96.845414
L 279.402377 -94.604241
L 271.785862 -94.770864
L 264.169347 -98.502421
L 256.552831 -107.087774
L 248.936316 -99.406584
L 241.319801 -114.574389
L 233.703286 -129.091652
L 226.086771 -145.54862
L 218.470256 -164.951898
L 210.853741 -178.943523
L 203.237225 -151.102805
L 195.62071 -161.3038
L 188.004195 -143.047789
L 180.38768 -151.282417
L 172.771165 -162.068712
L 165.15465 -159.352801
L 157.538134 -164.717344
L 149.921619 -175.964222
L 142.305104 -175.771671
L 134.688589 -159.927318
L 127.072074 -156.085991
L 119.455559 -144.987637
L 111.839044 -132.691822
L 104.222528 -126.478289
L 96.606013 -144.269361
L 88.989498 -132.444281
L 81.372983 -138.333927
z
" style="stroke: #1f77b4; stroke-opacity: 0.2"/>
    </defs>
    <g clip-path="url(#p2da0ea3b75)">
     <use xlink:href="#m5c4c90eb2e" x="0" y="207.994375" style="fill: #1f77b4; fill-opacity: 0.2; stroke: #1f77b4; stroke-opacity: 0.2"/>
    </g>
   </g>
   <g id="matplotlib.axis_1">
    <g id="xtick_1">
     <g id="line2d_1">
      <defs>
       <path id="m0033035f2b" d="M 0 0
L 0 3.5
" style="stroke: #000000; stroke-width: 0.8"/>
      </defs>
      <g>
       <use xlink:href="#m0033035f2b" x="81.372983" y="170.438125" style="stroke: #000000; stroke-width: 0.8"/>
      </g>
     </g>
     <g id="text_1">
      <!-- −30 -->
      <g transform="translate(70.820639 185.036563) scale(0.1 -0.1)">
       <defs>
        <path id="DejaVuSans-2212" d="M 678 2272
L 4684 2272
L 4684 1741
L 678 1741
L 678 2272
z
" transform="scale(0.015625)"/>
        <path id="DejaVuSans-33" d="M 2597 2516
Q 3050 2419 3304 2112
Q 3559 1806 3559 1356
Q 3559 666 3084 287
Q 2609 -91 1734 -91
Q 1441 -91 1130 -33
Q 819 25 488 141
L 488 750
Q 750 597 1062 519
Q 1375 441 1716 441
Q 2309 441 2620 675
Q 2931 909 2931 1356
Q 2931 1769 2642 2001
Q 2353 2234 1838 2234
L 1294 2234
L 1294 2753
L 1863 2753
Q 2328 2753 2575 2939
Q 2822 3125 2822 3475
Q 2822 3834 2567 4026
Q 2313 4219 1838 4219
Q 1578 4219 1281 4162
Q 984 4106 628 3988
L 628 4550
Q 988 4650 1302 4700
Q 1616 4750 1894 4750
Q 2613 4750 3031 4423
Q 3450 4097 3450 3541
Q 3450 3153 3228 2886
Q 3006 2619 2597 2516
z
" transform="scale(0.015625)"/>
        <path id="DejaVuSans-30" d="M 2034 4250
Q 1547 4250 1301 3770
Q 1056 3291 1056 2328
Q 1056 1369 1301 889
Q 1547 409 2034 409
Q 2525 409 2770 889
Q 3016 1369 3016 2328
Q 3016 3291 2770 3770
Q 2525 4250 2034 4250
z
M 2034 4750
Q 2819 4750 3233 4129
Q 3647 3509 3647 2328
Q 3647 1150 3233 529
Q 2819 -91 2034 -91
Q 1250 -91 836 529
Q 422 1150 422 2328
Q 422 3509 836 4129
Q 1250 4750 2034 4750
z
" transform="scale(0.015625)"/>
       </defs>
       <use xlink:href="#DejaVuSans-2212"/>
       <use xlink:href="#DejaVuSans-33" x="83.789062"/>
       <use xlink:href="#DejaVuSans-30" x="147.412109"/>
      </g>
     </g>
    </g>
    <g id="xtick_2">
     <g id="line2d_2">
      <g>
       <use xlink:href="#m0033035f2b" x="157.538134" y="170.438125" style="stroke: #000000; stroke-width: 0.8"/>
      </g>
     </g>
     <g id="text_2">
      <!-- −20 -->
      <g transform="translate(146.985791 185.036563) scale(0.1 -0.1)">
       <defs>
        <path id="DejaVuSans-32" d="M 1228 531
L 3431 531
L 3431 0
L 469 0
L 469 531
Q 828 903 1448 1529
Q 2069 2156 2228 2338
Q 2531 2678 2651 2914
Q 2772 3150 2772 3378
Q 2772 3750 2511 3984
Q 2250 4219 1831 4219
Q 1534 4219 1204 4116
Q 875 4013 500 3803
L 500 4441
Q 881 4594 1212 4672
Q 1544 4750 1819 4750
Q 2544 4750 2975 4387
Q 3406 4025 3406 3419
Q 3406 3131 3298 2873
Q 3191 2616 2906 2266
Q 2828 2175 2409 1742
Q 1991 1309 1228 531
z
" transform="scale(0.015625)"/>
       </defs>
       <use xlink:href="#DejaVuSans-2212"/>
       <use xlink:href="#DejaVuSans-32" x="83.789062"/>
       <use xlink:href="#DejaVuSans-30" x="147.412109"/>
      </g>
     </g>
    </g>
    <g id="xtick_3">
     <g id="line2d_3">
      <g>
       <use xlink:href="#m0033035f2b" x="233.703286" y="170.438125" style="stroke: #000000; stroke-width: 0.8"/>
      </g>
     </g>
     <g id="text_3">
      <!-- −10 -->
      <g transform="translate(223.150942 185.036563) scale(0.1 -0.1)">
       <defs>
        <path id="DejaVuSans-31" d="M 794 531
L 1825 531
L 1825 4091
L 703 3866
L 703 4441
L 1819 4666
L 2450 4666
L 2450 531
L 3481 531
L 3481 0
L 794 0
L 794 531
z
" transform="scale(0.015625)"/>
       </defs>
       <use xlink:href="#DejaVuSans-2212"/>
       <use xlink:href="#DejaVuSans-31" x="83.789062"/>
       <use xlink:href="#DejaVuSans-30" x="147.412109"/>
      </g>
     </g>
    </g>
    <g id="xtick_4">
     <g id="line2d_4">
      <g>
       <use xlink:href="#m0033035f2b" x="309.868437" y="170.438125" style="stroke: #000000; stroke-width: 0.8"/>
      </g>
     </g>
     <g id="text_4">
      <!-- 0 -->
      <g transform="translate(306.687187 185.036563) scale(0.1 -0.1)">
       <use xlink:href="#DejaVuSans-30"/>
      </g>
     </g>
    </g>
    <g id="xtick_5">
     <g id="line2d_5">
      <g>
       <use xlink:href="#m0033035f2b" x="386.033589" y="170.438125" style="stroke: #000000; stroke-width: 0.8"/>
      </g>
     </g>
     <g id="text_5">
      <!-- 10 -->
      <g transform="translate(379.671089 185.036563) scale(0.1 -0.1)">
       <use xlink:href="#DejaVuSans-31"/>
       <use xlink:href="#DejaVuSans-30" x="63.623047"/>
      </g>
     </g>
    </g>
    <g id="xtick_6">
     <g id="line2d_6">
      <g>
       <use xlink:href="#m0033035f2b" x="462.198741" y="170.438125" style="stroke: #000000; stroke-width: 0.8"/>
      </g>
     </g>
     <g id="text_6">
      <!-- 20 -->
      <g transform="translate(455.836241 185.036563) scale(0.1 -0.1)">
       <use xlink:href="#DejaVuSans-32"/>
       <use xlink:href="#DejaVuSans-30" x="63.623047"/>
      </g>
     </g>
    </g>
    <g id="xtick_7">
     <g id="line2d_7">
      <g>
       <use xlink:href="#m0033035f2b" x="538.363892" y="170.438125" style="stroke: #000000; stroke-width: 0.8"/>
      </g>
     </g>
     <g id="text_7">
      <!-- 30 -->
      <g transform="translate(532.001392 185.036563) scale(0.1 -0.1)">
       <use xlink:href="#DejaVuSans-33"/>
       <use xlink:href="#DejaVuSans-30" x="63.623047"/>
      </g>
     </g>
    </g>
    <g id="text_8">
     <!-- Day of instrument (relative to protest) -->
     <g transform="translate(214.250469 198.714687) scale(0.1 -0.1)">
      <defs>
       <path id="DejaVuSans-44" d="M 1259 4147
L 1259 519
L 2022 519
Q 2988 519 3436 956
Q 3884 1394 3884 2338
Q 3884 3275 3436 3711
Q 2988 4147 2022 4147
L 1259 4147
z
M 628 4666
L 1925 4666
Q 3281 4666 3915 4102
Q 4550 3538 4550 2338
Q 4550 1131 3912 565
Q 3275 0 1925 0
L 628 0
L 628 4666
z
" transform="scale(0.015625)"/>
       <path id="DejaVuSans-61" d="M 2194 1759
Q 1497 1759 1228 1600
Q 959 1441 959 1056
Q 959 750 1161 570
Q 1363 391 1709 391
Q 2188 391 2477 730
Q 2766 1069 2766 1631
L 2766 1759
L 2194 1759
z
M 3341 1997
L 3341 0
L 2766 0
L 2766 531
Q 2569 213 2275 61
Q 1981 -91 1556 -91
Q 1019 -91 701 211
Q 384 513 384 1019
Q 384 1609 779 1909
Q 1175 2209 1959 2209
L 2766 2209
L 2766 2266
Q 2766 2663 2505 2880
Q 2244 3097 1772 3097
Q 1472 3097 1187 3025
Q 903 2953 641 2809
L 641 3341
Q 956 3463 1253 3523
Q 1550 3584 1831 3584
Q 2591 3584 2966 3190
Q 3341 2797 3341 1997
z
" transform="scale(0.015625)"/>
       <path id="DejaVuSans-79" d="M 2059 -325
Q 1816 -950 1584 -1140
Q 1353 -1331 966 -1331
L 506 -1331
L 506 -850
L 844 -850
Q 1081 -850 1212 -737
Q 1344 -625 1503 -206
L 1606 56
L 191 3500
L 800 3500
L 1894 763
L 2988 3500
L 3597 3500
L 2059 -325
z
" transform="scale(0.015625)"/>
       <path id="DejaVuSans-20" transform="scale(0.015625)"/>
       <path id="DejaVuSans-6f" d="M 1959 3097
Q 1497 3097 1228 2736
Q 959 2375 959 1747
Q 959 1119 1226 758
Q 1494 397 1959 397
Q 2419 397 2687 759
Q 2956 1122 2956 1747
Q 2956 2369 2687 2733
Q 2419 3097 1959 3097
z
M 1959 3584
Q 2709 3584 3137 3096
Q 3566 2609 3566 1747
Q 3566 888 3137 398
Q 2709 -91 1959 -91
Q 1206 -91 779 398
Q 353 888 353 1747
Q 353 2609 779 3096
Q 1206 3584 1959 3584
z
" transform="scale(0.015625)"/>
       <path id="DejaVuSans-66" d="M 2375 4863
L 2375 4384
L 1825 4384
Q 1516 4384 1395 4259
Q 1275 4134 1275 3809
L 1275 3500
L 2222 3500
L 2222 3053
L 1275 3053
L 1275 0
L 697 0
L 697 3053
L 147 3053
L 147 3500
L 697 3500
L 697 3744
Q 697 4328 969 4595
Q 1241 4863 1831 4863
L 2375 4863
z
" transform="scale(0.015625)"/>
       <path id="DejaVuSans-69" d="M 603 3500
L 1178 3500
L 1178 0
L 603 0
L 603 3500
z
M 603 4863
L 1178 4863
L 1178 4134
L 603 4134
L 603 4863
z
" transform="scale(0.015625)"/>
       <path id="DejaVuSans-6e" d="M 3513 2113
L 3513 0
L 2938 0
L 2938 2094
Q 2938 2591 2744 2837
Q 2550 3084 2163 3084
Q 1697 3084 1428 2787
Q 1159 2491 1159 1978
L 1159 0
L 581 0
L 581 3500
L 1159 3500
L 1159 2956
Q 1366 3272 1645 3428
Q 1925 3584 2291 3584
Q 2894 3584 3203 3211
Q 3513 2838 3513 2113
z
" transform="scale(0.015625)"/>
       <path id="DejaVuSans-73" d="M 2834 3397
L 2834 2853
Q 2591 2978 2328 3040
Q 2066 3103 1784 3103
Q 1356 3103 1142 2972
Q 928 2841 928 2578
Q 928 2378 1081 2264
Q 1234 2150 1697 2047
L 1894 2003
Q 2506 1872 2764 1633
Q 3022 1394 3022 966
Q 3022 478 2636 193
Q 2250 -91 1575 -91
Q 1294 -91 989 -36
Q 684 19 347 128
L 347 722
Q 666 556 975 473
Q 1284 391 1588 391
Q 1994 391 2212 530
Q 2431 669 2431 922
Q 2431 1156 2273 1281
Q 2116 1406 1581 1522
L 1381 1569
Q 847 1681 609 1914
Q 372 2147 372 2553
Q 372 3047 722 3315
Q 1072 3584 1716 3584
Q 2034 3584 2315 3537
Q 2597 3491 2834 3397
z
" transform="scale(0.015625)"/>
       <path id="DejaVuSans-74" d="M 1172 4494
L 1172 3500
L 2356 3500
L 2356 3053
L 1172 3053
L 1172 1153
Q 1172 725 1289 603
Q 1406 481 1766 481
L 2356 481
L 2356 0
L 1766 0
Q 1100 0 847 248
Q 594 497 594 1153
L 594 3053
L 172 3053
L 172 3500
L 594 3500
L 594 4494
L 1172 4494
z
" transform="scale(0.015625)"/>
       <path id="DejaVuSans-72" d="M 2631 2963
Q 2534 3019 2420 3045
Q 2306 3072 2169 3072
Q 1681 3072 1420 2755
Q 1159 2438 1159 1844
L 1159 0
L 581 0
L 581 3500
L 1159 3500
L 1159 2956
Q 1341 3275 1631 3429
Q 1922 3584 2338 3584
Q 2397 3584 2469 3576
Q 2541 3569 2628 3553
L 2631 2963
z
" transform="scale(0.015625)"/>
       <path id="DejaVuSans-75" d="M 544 1381
L 544 3500
L 1119 3500
L 1119 1403
Q 1119 906 1312 657
Q 1506 409 1894 409
Q 2359 409 2629 706
Q 2900 1003 2900 1516
L 2900 3500
L 3475 3500
L 3475 0
L 2900 0
L 2900 538
Q 2691 219 2414 64
Q 2138 -91 1772 -91
Q 1169 -91 856 284
Q 544 659 544 1381
z
M 1991 3584
L 1991 3584
z
" transform="scale(0.015625)"/>
       <path id="DejaVuSans-6d" d="M 3328 2828
Q 3544 3216 3844 3400
Q 4144 3584 4550 3584
Q 5097 3584 5394 3201
Q 5691 2819 5691 2113
L 5691 0
L 5113 0
L 5113 2094
Q 5113 2597 4934 2840
Q 4756 3084 4391 3084
Q 3944 3084 3684 2787
Q 3425 2491 3425 1978
L 3425 0
L 2847 0
L 2847 2094
Q 2847 2600 2669 2842
Q 2491 3084 2119 3084
Q 1678 3084 1418 2786
Q 1159 2488 1159 1978
L 1159 0
L 581 0
L 581 3500
L 1159 3500
L 1159 2956
Q 1356 3278 1631 3431
Q 1906 3584 2284 3584
Q 2666 3584 2933 3390
Q 3200 3197 3328 2828
z
" transform="scale(0.015625)"/>
       <path id="DejaVuSans-65" d="M 3597 1894
L 3597 1613
L 953 1613
Q 991 1019 1311 708
Q 1631 397 2203 397
Q 2534 397 2845 478
Q 3156 559 3463 722
L 3463 178
Q 3153 47 2828 -22
Q 2503 -91 2169 -91
Q 1331 -91 842 396
Q 353 884 353 1716
Q 353 2575 817 3079
Q 1281 3584 2069 3584
Q 2775 3584 3186 3129
Q 3597 2675 3597 1894
z
M 3022 2063
Q 3016 2534 2758 2815
Q 2500 3097 2075 3097
Q 1594 3097 1305 2825
Q 1016 2553 972 2059
L 3022 2063
z
" transform="scale(0.015625)"/>
       <path id="DejaVuSans-28" d="M 1984 4856
Q 1566 4138 1362 3434
Q 1159 2731 1159 2009
Q 1159 1288 1364 580
Q 1569 -128 1984 -844
L 1484 -844
Q 1016 -109 783 600
Q 550 1309 550 2009
Q 550 2706 781 3412
Q 1013 4119 1484 4856
L 1984 4856
z
" transform="scale(0.015625)"/>
       <path id="DejaVuSans-6c" d="M 603 4863
L 1178 4863
L 1178 0
L 603 0
L 603 4863
z
" transform="scale(0.015625)"/>
       <path id="DejaVuSans-76" d="M 191 3500
L 800 3500
L 1894 563
L 2988 3500
L 3597 3500
L 2284 0
L 1503 0
L 191 3500
z
" transform="scale(0.015625)"/>
       <path id="DejaVuSans-70" d="M 1159 525
L 1159 -1331
L 581 -1331
L 581 3500
L 1159 3500
L 1159 2969
Q 1341 3281 1617 3432
Q 1894 3584 2278 3584
Q 2916 3584 3314 3078
Q 3713 2572 3713 1747
Q 3713 922 3314 415
Q 2916 -91 2278 -91
Q 1894 -91 1617 61
Q 1341 213 1159 525
z
M 3116 1747
Q 3116 2381 2855 2742
Q 2594 3103 2138 3103
Q 1681 3103 1420 2742
Q 1159 2381 1159 1747
Q 1159 1113 1420 752
Q 1681 391 2138 391
Q 2594 391 2855 752
Q 3116 1113 3116 1747
z
" transform="scale(0.015625)"/>
       <path id="DejaVuSans-29" d="M 513 4856
L 1013 4856
Q 1481 4119 1714 3412
Q 1947 2706 1947 2009
Q 1947 1309 1714 600
Q 1481 -109 1013 -844
L 513 -844
Q 928 -128 1133 580
Q 1338 1288 1338 2009
Q 1338 2731 1133 3434
Q 928 4138 513 4856
z
" transform="scale(0.015625)"/>
      </defs>
      <use xlink:href="#DejaVuSans-44"/>
      <use xlink:href="#DejaVuSans-61" x="77.001953"/>
      <use xlink:href="#DejaVuSans-79" x="138.28125"/>
      <use xlink:href="#DejaVuSans-20" x="197.460938"/>
      <use xlink:href="#DejaVuSans-6f" x="229.248047"/>
      <use xlink:href="#DejaVuSans-66" x="290.429688"/>
      <use xlink:href="#DejaVuSans-20" x="325.634766"/>
      <use xlink:href="#DejaVuSans-69" x="357.421875"/>
      <use xlink:href="#DejaVuSans-6e" x="385.205078"/>
      <use xlink:href="#DejaVuSans-73" x="448.583984"/>
      <use xlink:href="#DejaVuSans-74" x="500.683594"/>
      <use xlink:href="#DejaVuSans-72" x="539.892578"/>
      <use xlink:href="#DejaVuSans-75" x="581.005859"/>
      <use xlink:href="#DejaVuSans-6d" x="644.384766"/>
      <use xlink:href="#DejaVuSans-65" x="741.796875"/>
      <use xlink:href="#DejaVuSans-6e" x="803.320312"/>
      <use xlink:href="#DejaVuSans-74" x="866.699219"/>
      <use xlink:href="#DejaVuSans-20" x="905.908203"/>
      <use xlink:href="#DejaVuSans-28" x="937.695312"/>
      <use xlink:href="#DejaVuSans-72" x="976.708984"/>
      <use xlink:href="#DejaVuSans-65" x="1015.572266"/>
      <use xlink:href="#DejaVuSans-6c" x="1077.095703"/>
      <use xlink:href="#DejaVuSans-61" x="1104.878906"/>
      <use xlink:href="#DejaVuSans-74" x="1166.158203"/>
      <use xlink:href="#DejaVuSans-69" x="1205.367188"/>
      <use xlink:href="#DejaVuSans-76" x="1233.150391"/>
      <use xlink:href="#DejaVuSans-65" x="1292.330078"/>
      <use xlink:href="#DejaVuSans-20" x="1353.853516"/>
      <use xlink:href="#DejaVuSans-74" x="1385.640625"/>
      <use xlink:href="#DejaVuSans-6f" x="1424.849609"/>
      <use xlink:href="#DejaVuSans-20" x="1486.03125"/>
      <use xlink:href="#DejaVuSans-70" x="1517.818359"/>
      <use xlink:href="#DejaVuSans-72" x="1581.294922"/>
      <use xlink:href="#DejaVuSans-6f" x="1620.158203"/>
      <use xlink:href="#DejaVuSans-74" x="1681.339844"/>
      <use xlink:href="#DejaVuSans-65" x="1720.548828"/>
      <use xlink:href="#DejaVuSans-73" x="1782.072266"/>
      <use xlink:href="#DejaVuSans-74" x="1834.171875"/>
      <use xlink:href="#DejaVuSans-29" x="1873.380859"/>
     </g>
    </g>
   </g>
   <g id="matplotlib.axis_2">
    <g id="ytick_1">
     <g id="line2d_8">
      <defs>
       <path id="mf57a3bf1ef" d="M 0 0
L -3.5 0
" style="stroke: #000000; stroke-width: 0.8"/>
      </defs>
      <g>
       <use xlink:href="#mf57a3bf1ef" x="58.523438" y="157.599755" style="stroke: #000000; stroke-width: 0.8"/>
      </g>
     </g>
     <g id="text_9">
      <!-- −0.02 -->
      <g transform="translate(20.878125 161.398973) scale(0.1 -0.1)">
       <defs>
        <path id="DejaVuSans-2e" d="M 684 794
L 1344 794
L 1344 0
L 684 0
L 684 794
z
" transform="scale(0.015625)"/>
       </defs>
       <use xlink:href="#DejaVuSans-2212"/>
       <use xlink:href="#DejaVuSans-30" x="83.789062"/>
       <use xlink:href="#DejaVuSans-2e" x="147.412109"/>
       <use xlink:href="#DejaVuSans-30" x="179.199219"/>
       <use xlink:href="#DejaVuSans-32" x="242.822266"/>
      </g>
     </g>
    </g>
    <g id="ytick_2">
     <g id="line2d_9">
      <g>
       <use xlink:href="#mf57a3bf1ef" x="58.523438" y="127.259494" style="stroke: #000000; stroke-width: 0.8"/>
      </g>
     </g>
     <g id="text_10">
      <!-- −0.01 -->
      <g transform="translate(20.878125 131.058713) scale(0.1 -0.1)">
       <use xlink:href="#DejaVuSans-2212"/>
       <use xlink:href="#DejaVuSans-30" x="83.789062"/>
       <use xlink:href="#DejaVuSans-2e" x="147.412109"/>
       <use xlink:href="#DejaVuSans-30" x="179.199219"/>
       <use xlink:href="#DejaVuSans-31" x="242.822266"/>
      </g>
     </g>
    </g>
    <g id="ytick_3">
     <g id="line2d_10">
      <g>
       <use xlink:href="#mf57a3bf1ef" x="58.523438" y="96.919233" style="stroke: #000000; stroke-width: 0.8"/>
      </g>
     </g>
     <g id="text_11">
      <!-- 0.00 -->
      <g transform="translate(29.257813 100.718452) scale(0.1 -0.1)">
       <use xlink:href="#DejaVuSans-30"/>
       <use xlink:href="#DejaVuSans-2e" x="63.623047"/>
       <use xlink:href="#DejaVuSans-30" x="95.410156"/>
       <use xlink:href="#DejaVuSans-30" x="159.033203"/>
      </g>
     </g>
    </g>
    <g id="ytick_4">
     <g id="line2d_11">
      <g>
       <use xlink:href="#mf57a3bf1ef" x="58.523438" y="66.578973" style="stroke: #000000; stroke-width: 0.8"/>
      </g>
     </g>
     <g id="text_12">
      <!-- 0.01 -->
      <g transform="translate(29.257813 70.378191) scale(0.1 -0.1)">
       <use xlink:href="#DejaVuSans-30"/>
       <use xlink:href="#DejaVuSans-2e" x="63.623047"/>
       <use xlink:href="#DejaVuSans-30" x="95.410156"/>
       <use xlink:href="#DejaVuSans-31" x="159.033203"/>
      </g>
     </g>
    </g>
    <g id="ytick_5">
     <g id="line2d_12">
      <g>
       <use xlink:href="#mf57a3bf1ef" x="58.523438" y="36.238712" style="stroke: #000000; stroke-width: 0.8"/>
      </g>
     </g>
     <g id="text_13">
      <!-- 0.02 -->
      <g transform="translate(29.257813 40.037931) scale(0.1 -0.1)">
       <use xlink:href="#DejaVuSans-30"/>
       <use xlink:href="#DejaVuSans-2e" x="63.623047"/>
       <use xlink:href="#DejaVuSans-30" x="95.410156"/>
       <use xlink:href="#DejaVuSans-32" x="159.033203"/>
      </g>
     </g>
    </g>
    <g id="text_14">
     <!-- First stage coefficient -->
     <g transform="translate(14.798438 150.096875) rotate(-90) scale(0.1 -0.1)">
      <defs>
       <path id="DejaVuSans-46" d="M 628 4666
L 3309 4666
L 3309 4134
L 1259 4134
L 1259 2759
L 3109 2759
L 3109 2228
L 1259 2228
L 1259 0
L 628 0
L 628 4666
z
" transform="scale(0.015625)"/>
       <path id="DejaVuSans-67" d="M 2906 1791
Q 2906 2416 2648 2759
Q 2391 3103 1925 3103
Q 1463 3103 1205 2759
Q 947 2416 947 1791
Q 947 1169 1205 825
Q 1463 481 1925 481
Q 2391 481 2648 825
Q 2906 1169 2906 1791
z
M 3481 434
Q 3481 -459 3084 -895
Q 2688 -1331 1869 -1331
Q 1566 -1331 1297 -1286
Q 1028 -1241 775 -1147
L 775 -588
Q 1028 -725 1275 -790
Q 1522 -856 1778 -856
Q 2344 -856 2625 -561
Q 2906 -266 2906 331
L 2906 616
Q 2728 306 2450 153
Q 2172 0 1784 0
Q 1141 0 747 490
Q 353 981 353 1791
Q 353 2603 747 3093
Q 1141 3584 1784 3584
Q 2172 3584 2450 3431
Q 2728 3278 2906 2969
L 2906 3500
L 3481 3500
L 3481 434
z
" transform="scale(0.015625)"/>
       <path id="DejaVuSans-63" d="M 3122 3366
L 3122 2828
Q 2878 2963 2633 3030
Q 2388 3097 2138 3097
Q 1578 3097 1268 2742
Q 959 2388 959 1747
Q 959 1106 1268 751
Q 1578 397 2138 397
Q 2388 397 2633 464
Q 2878 531 3122 666
L 3122 134
Q 2881 22 2623 -34
Q 2366 -91 2075 -91
Q 1284 -91 818 406
Q 353 903 353 1747
Q 353 2603 823 3093
Q 1294 3584 2113 3584
Q 2378 3584 2631 3529
Q 2884 3475 3122 3366
z
" transform="scale(0.015625)"/>
      </defs>
      <use xlink:href="#DejaVuSans-46"/>
      <use xlink:href="#DejaVuSans-69" x="50.269531"/>
      <use xlink:href="#DejaVuSans-72" x="78.052734"/>
      <use xlink:href="#DejaVuSans-73" x="119.166016"/>
      <use xlink:href="#DejaVuSans-74" x="171.265625"/>
      <use xlink:href="#DejaVuSans-20" x="210.474609"/>
      <use xlink:href="#DejaVuSans-73" x="242.261719"/>
      <use xlink:href="#DejaVuSans-74" x="294.361328"/>
      <use xlink:href="#DejaVuSans-61" x="333.570312"/>
      <use xlink:href="#DejaVuSans-67" x="394.849609"/>
      <use xlink:href="#DejaVuSans-65" x="458.326172"/>
      <use xlink:href="#DejaVuSans-20" x="519.849609"/>
      <use xlink:href="#DejaVuSans-63" x="551.636719"/>
      <use xlink:href="#DejaVuSans-6f" x="606.617188"/>
      <use xlink:href="#DejaVuSans-65" x="667.798828"/>
      <use xlink:href="#DejaVuSans-66" x="729.322266"/>
      <use xlink:href="#DejaVuSans-66" x="764.527344"/>
      <use xlink:href="#DejaVuSans-69" x="799.732422"/>
      <use xlink:href="#DejaVuSans-63" x="827.515625"/>
      <use xlink:href="#DejaVuSans-69" x="882.496094"/>
      <use xlink:href="#DejaVuSans-65" x="910.279297"/>
      <use xlink:href="#DejaVuSans-6e" x="971.802734"/>
      <use xlink:href="#DejaVuSans-74" x="1035.181641"/>
     </g>
    </g>
   </g>
   <g id="line2d_13">
    <path d="M 81.372983 92.09611
L 88.989498 100.00497
L 96.606013 87.866223
L 104.222528 108.568197
L 111.839044 101.829854
L 119.455559 87.915989
L 127.072074 77.235468
L 134.688589 71.33517
L 142.305104 56.955553
L 149.921619 56.684309
L 157.538134 69.366688
L 165.15465 73.132071
L 172.771165 69.553062
L 180.38768 80.833336
L 188.004195 87.620098
L 195.62071 71.738238
L 203.237225 82.077357
L 210.853741 56.487152
L 218.470256 70.285254
L 226.086771 87.100081
L 233.703286 102.487345
L 241.319801 116.540469
L 248.936316 131.827522
L 256.552831 125.764162
L 264.169347 133.881473
L 271.785862 137.680415
L 279.402377 137.89165
L 287.018892 135.569317
L 294.635407 131.565891
L 302.251922 139.804551
L 309.868437 136.1444
L 317.484953 139.493225
L 325.101468 122.253188
L 332.717983 109.728789
L 340.334498 105.588671
L 347.951013 91.183991
L 355.567528 97.805363
L 363.184044 88.997756
L 370.800559 95.421917
L 378.417074 91.470525
L 386.033589 94.334986
L 393.650104 90.82164
L 401.266619 88.89602
L 408.883134 81.591502
L 416.49965 90.830728
L 424.116165 73.798752
L 431.73268 71.473509
L 439.349195 71.294884
L 446.96571 69.328652
L 454.582225 73.945249
L 462.198741 74.060018
L 469.815256 79.729456
L 477.431771 82.410104
L 485.048286 73.838493
L 492.664801 74.495411
L 500.281316 85.383588
L 507.897831 84.637513
L 515.514347 85.277252
L 523.130862 70.94709
L 530.747377 73.599376
L 538.363892 92.566073
" clip-path="url(#p2da0ea3b75)" style="fill: none; stroke: #1f77b4; stroke-width: 1.5; stroke-linecap: square"/>
    <defs>
     <path id="m604b8ebb1f" d="M 0 1.5
C 0.397805 1.5 0.77937 1.341951 1.06066 1.06066
C 1.341951 0.77937 1.5 0.397805 1.5 0
C 1.5 -0.397805 1.341951 -0.77937 1.06066 -1.06066
C 0.77937 -1.341951 0.397805 -1.5 0 -1.5
C -0.397805 -1.5 -0.77937 -1.341951 -1.06066 -1.06066
C -1.341951 -0.77937 -1.5 -0.397805 -1.5 0
C -1.5 0.397805 -1.341951 0.77937 -1.06066 1.06066
C -0.77937 1.341951 -0.397805 1.5 0 1.5
z
" style="stroke: #1f77b4"/>
    </defs>
    <g clip-path="url(#p2da0ea3b75)">
     <use xlink:href="#m604b8ebb1f" x="81.372983" y="92.09611" style="fill: #1f77b4; stroke: #1f77b4"/>
     <use xlink:href="#m604b8ebb1f" x="88.989498" y="100.00497" style="fill: #1f77b4; stroke: #1f77b4"/>
     <use xlink:href="#m604b8ebb1f" x="96.606013" y="87.866223" style="fill: #1f77b4; stroke: #1f77b4"/>
     <use xlink:href="#m604b8ebb1f" x="104.222528" y="108.568197" style="fill: #1f77b4; stroke: #1f77b4"/>
     <use xlink:href="#m604b8ebb1f" x="111.839044" y="101.829854" style="fill: #1f77b4; stroke: #1f77b4"/>
     <use xlink:href="#m604b8ebb1f" x="119.455559" y="87.915989" style="fill: #1f77b4; stroke: #1f77b4"/>
     <use xlink:href="#m604b8ebb1f" x="127.072074" y="77.235468" style="fill: #1f77b4; stroke: #1f77b4"/>
     <use xlink:href="#m604b8ebb1f" x="134.688589" y="71.33517" style="fill: #1f77b4; stroke: #1f77b4"/>
     <use xlink:href="#m604b8ebb1f" x="142.305104" y="56.955553" style="fill: #1f77b4; stroke: #1f77b4"/>
     <use xlink:href="#m604b8ebb1f" x="149.921619" y="56.684309" style="fill: #1f77b4; stroke: #1f77b4"/>
     <use xlink:href="#m604b8ebb1f" x="157.538134" y="69.366688" style="fill: #1f77b4; stroke: #1f77b4"/>
     <use xlink:href="#m604b8ebb1f" x="165.15465" y="73.132071" style="fill: #1f77b4; stroke: #1f77b4"/>
     <use xlink:href="#m604b8ebb1f" x="172.771165" y="69.553062" style="fill: #1f77b4; stroke: #1f77b4"/>
     <use xlink:href="#m604b8ebb1f" x="180.38768" y="80.833336" style="fill: #1f77b4; stroke: #1f77b4"/>
     <use xlink:href="#m604b8ebb1f" x="188.004195" y="87.620098" style="fill: #1f77b4; stroke: #1f77b4"/>
     <use xlink:href="#m604b8ebb1f" x="195.62071" y="71.738238" style="fill: #1f77b4; stroke: #1f77b4"/>
     <use xlink:href="#m604b8ebb1f" x="203.237225" y="82.077357" style="fill: #1f77b4; stroke: #1f77b4"/>
     <use xlink:href="#m604b8ebb1f" x="210.853741" y="56.487152" style="fill: #1f77b4; stroke: #1f77b4"/>
     <use xlink:href="#m604b8ebb1f" x="218.470256" y="70.285254" style="fill: #1f77b4; stroke: #1f77b4"/>
     <use xlink:href="#m604b8ebb1f" x="226.086771" y="87.100081" style="fill: #1f77b4; stroke: #1f77b4"/>
     <use xlink:href="#m604b8ebb1f" x="233.703286" y="102.487345" style="fill: #1f77b4; stroke: #1f77b4"/>
     <use xlink:href="#m604b8ebb1f" x="241.319801" y="116.540469" style="fill: #1f77b4; stroke: #1f77b4"/>
     <use xlink:href="#m604b8ebb1f" x="248.936316" y="131.827522" style="fill: #1f77b4; stroke: #1f77b4"/>
     <use xlink:href="#m604b8ebb1f" x="256.552831" y="125.764162" style="fill: #1f77b4; stroke: #1f77b4"/>
     <use xlink:href="#m604b8ebb1f" x="264.169347" y="133.881473" style="fill: #1f77b4; stroke: #1f77b4"/>
     <use xlink:href="#m604b8ebb1f" x="271.785862" y="137.680415" style="fill: #1f77b4; stroke: #1f77b4"/>
     <use xlink:href="#m604b8ebb1f" x="279.402377" y="137.89165" style="fill: #1f77b4; stroke: #1f77b4"/>
     <use xlink:href="#m604b8ebb1f" x="287.018892" y="135.569317" style="fill: #1f77b4; stroke: #1f77b4"/>
     <use xlink:href="#m604b8ebb1f" x="294.635407" y="131.565891" style="fill: #1f77b4; stroke: #1f77b4"/>
     <use xlink:href="#m604b8ebb1f" x="302.251922" y="139.804551" style="fill: #1f77b4; stroke: #1f77b4"/>
     <use xlink:href="#m604b8ebb1f" x="309.868437" y="136.1444" style="fill: #1f77b4; stroke: #1f77b4"/>
     <use xlink:href="#m604b8ebb1f" x="317.484953" y="139.493225" style="fill: #1f77b4; stroke: #1f77b4"/>
     <use xlink:href="#m604b8ebb1f" x="325.101468" y="122.253188" style="fill: #1f77b4; stroke: #1f77b4"/>
     <use xlink:href="#m604b8ebb1f" x="332.717983" y="109.728789" style="fill: #1f77b4; stroke: #1f77b4"/>
     <use xlink:href="#m604b8ebb1f" x="340.334498" y="105.588671" style="fill: #1f77b4; stroke: #1f77b4"/>
     <use xlink:href="#m604b8ebb1f" x="347.951013" y="91.183991" style="fill: #1f77b4; stroke: #1f77b4"/>
     <use xlink:href="#m604b8ebb1f" x="355.567528" y="97.805363" style="fill: #1f77b4; stroke: #1f77b4"/>
     <use xlink:href="#m604b8ebb1f" x="363.184044" y="88.997756" style="fill: #1f77b4; stroke: #1f77b4"/>
     <use xlink:href="#m604b8ebb1f" x="370.800559" y="95.421917" style="fill: #1f77b4; stroke: #1f77b4"/>
     <use xlink:href="#m604b8ebb1f" x="378.417074" y="91.470525" style="fill: #1f77b4; stroke: #1f77b4"/>
     <use xlink:href="#m604b8ebb1f" x="386.033589" y="94.334986" style="fill: #1f77b4; stroke: #1f77b4"/>
     <use xlink:href="#m604b8ebb1f" x="393.650104" y="90.82164" style="fill: #1f77b4; stroke: #1f77b4"/>
     <use xlink:href="#m604b8ebb1f" x="401.266619" y="88.89602" style="fill: #1f77b4; stroke: #1f77b4"/>
     <use xlink:href="#m604b8ebb1f" x="408.883134" y="81.591502" style="fill: #1f77b4; stroke: #1f77b4"/>
     <use xlink:href="#m604b8ebb1f" x="416.49965" y="90.830728" style="fill: #1f77b4; stroke: #1f77b4"/>
     <use xlink:href="#m604b8ebb1f" x="424.116165" y="73.798752" style="fill: #1f77b4; stroke: #1f77b4"/>
     <use xlink:href="#m604b8ebb1f" x="431.73268" y="71.473509" style="fill: #1f77b4; stroke: #1f77b4"/>
     <use xlink:href="#m604b8ebb1f" x="439.349195" y="71.294884" style="fill: #1f77b4; stroke: #1f77b4"/>
     <use xlink:href="#m604b8ebb1f" x="446.96571" y="69.328652" style="fill: #1f77b4; stroke: #1f77b4"/>
     <use xlink:href="#m604b8ebb1f" x="454.582225" y="73.945249" style="fill: #1f77b4; stroke: #1f77b4"/>
     <use xlink:href="#m604b8ebb1f" x="462.198741" y="74.060018" style="fill: #1f77b4; stroke: #1f77b4"/>
     <use xlink:href="#m604b8ebb1f" x="469.815256" y="79.729456" style="fill: #1f77b4; stroke: #1f77b4"/>
     <use xlink:href="#m604b8ebb1f" x="477.431771" y="82.410104" style="fill: #1f77b4; stroke: #1f77b4"/>
     <use xlink:href="#m604b8ebb1f" x="485.048286" y="73.838493" style="fill: #1f77b4; stroke: #1f77b4"/>
     <use xlink:href="#m604b8ebb1f" x="492.664801" y="74.495411" style="fill: #1f77b4; stroke: #1f77b4"/>
     <use xlink:href="#m604b8ebb1f" x="500.281316" y="85.383588" style="fill: #1f77b4; stroke: #1f77b4"/>
     <use xlink:href="#m604b8ebb1f" x="507.897831" y="84.637513" style="fill: #1f77b4; stroke: #1f77b4"/>
     <use xlink:href="#m604b8ebb1f" x="515.514347" y="85.277252" style="fill: #1f77b4; stroke: #1f77b4"/>
     <use xlink:href="#m604b8ebb1f" x="523.130862" y="70.94709" style="fill: #1f77b4; stroke: #1f77b4"/>
     <use xlink:href="#m604b8ebb1f" x="530.747377" y="73.599376" style="fill: #1f77b4; stroke: #1f77b4"/>
     <use xlink:href="#m604b8ebb1f" x="538.363892" y="92.566073" style="fill: #1f77b4; stroke: #1f77b4"/>
    </g>
   </g>
   <g id="line2d_14">
    <path d="M 58.523438 96.919233
L 561.213437 96.919233
" clip-path="url(#p2da0ea3b75)" style="fill: none; stroke: #000000; stroke-width: 0.5; stroke-linecap: square"/>
   </g>
   <g id="line2d_15">
    <path d="M 309.868437 170.438125
L 309.868437 22.318125
" clip-path="url(#p2da0ea3b75)" style="fill: none; stroke-dasharray: 5.55,2.4; stroke-dashoffset: 0; stroke: #000000; stroke-width: 1.5"/>
   </g>
   <g id="patch_3">
    <path d="M 58.523438 170.438125
L 58.523438 22.318125
" style="fill: none; stroke: #000000; stroke-width: 0.8; stroke-linejoin: miter; stroke-linecap: square"/>
   </g>
   <g id="patch_4">
    <path d="M 561.213437 170.438125
L 561.213437 22.318125
" style="fill: none; stroke: #000000; stroke-width: 0.8; stroke-linejoin: miter; stroke-linecap: square"/>
   </g>
   <g id="patch_5">
    <path d="M 58.523437 170.438125
L 561.213437 170.438125
" style="fill: none; stroke: #000000; stroke-width: 0.8; stroke-linejoin: miter; stroke-linecap: square"/>
   </g>
   <g id="patch_6">
    <path d="M 58.523437 22.318125
L 561.213437 22.318125
" style="fill: none; stroke: #000000; stroke-width: 0.8; stroke-linejoin: miter; stroke-linecap: square"/>
   </g>
   <g id="text_15">
    <!-- First stage placebo tests with shifted treatment: Impact of pc_resid_9 on protest occurrence -->
    <g transform="translate(33.9875 16.318125) scale(0.12 -0.12)">
     <defs>
      <path id="DejaVuSans-62" d="M 3116 1747
Q 3116 2381 2855 2742
Q 2594 3103 2138 3103
Q 1681 3103 1420 2742
Q 1159 2381 1159 1747
Q 1159 1113 1420 752
Q 1681 391 2138 391
Q 2594 391 2855 752
Q 3116 1113 3116 1747
z
M 1159 2969
Q 1341 3281 1617 3432
Q 1894 3584 2278 3584
Q 2916 3584 3314 3078
Q 3713 2572 3713 1747
Q 3713 922 3314 415
Q 2916 -91 2278 -91
Q 1894 -91 1617 61
Q 1341 213 1159 525
L 1159 0
L 581 0
L 581 4863
L 1159 4863
L 1159 2969
z
" transform="scale(0.015625)"/>
      <path id="DejaVuSans-77" d="M 269 3500
L 844 3500
L 1563 769
L 2278 3500
L 2956 3500
L 3675 769
L 4391 3500
L 4966 3500
L 4050 0
L 3372 0
L 2619 2869
L 1863 0
L 1184 0
L 269 3500
z
" transform="scale(0.015625)"/>
      <path id="DejaVuSans-68" d="M 3513 2113
L 3513 0
L 2938 0
L 2938 2094
Q 2938 2591 2744 2837
Q 2550 3084 2163 3084
Q 1697 3084 1428 2787
Q 1159 2491 1159 1978
L 1159 0
L 581 0
L 581 4863
L 1159 4863
L 1159 2956
Q 1366 3272 1645 3428
Q 1925 3584 2291 3584
Q 2894 3584 3203 3211
Q 3513 2838 3513 2113
z
" transform="scale(0.015625)"/>
      <path id="DejaVuSans-64" d="M 2906 2969
L 2906 4863
L 3481 4863
L 3481 0
L 2906 0
L 2906 525
Q 2725 213 2448 61
Q 2172 -91 1784 -91
Q 1150 -91 751 415
Q 353 922 353 1747
Q 353 2572 751 3078
Q 1150 3584 1784 3584
Q 2172 3584 2448 3432
Q 2725 3281 2906 2969
z
M 947 1747
Q 947 1113 1208 752
Q 1469 391 1925 391
Q 2381 391 2643 752
Q 2906 1113 2906 1747
Q 2906 2381 2643 2742
Q 2381 3103 1925 3103
Q 1469 3103 1208 2742
Q 947 2381 947 1747
z
" transform="scale(0.015625)"/>
      <path id="DejaVuSans-3a" d="M 750 794
L 1409 794
L 1409 0
L 750 0
L 750 794
z
M 750 3309
L 1409 3309
L 1409 2516
L 750 2516
L 750 3309
z
" transform="scale(0.015625)"/>
      <path id="DejaVuSans-49" d="M 628 4666
L 1259 4666
L 1259 0
L 628 0
L 628 4666
z
" transform="scale(0.015625)"/>
      <path id="DejaVuSans-5f" d="M 3263 -1063
L 3263 -1509
L -63 -1509
L -63 -1063
L 3263 -1063
z
" transform="scale(0.015625)"/>
      <path id="DejaVuSans-39" d="M 703 97
L 703 672
Q 941 559 1184 500
Q 1428 441 1663 441
Q 2288 441 2617 861
Q 2947 1281 2994 2138
Q 2813 1869 2534 1725
Q 2256 1581 1919 1581
Q 1219 1581 811 2004
Q 403 2428 403 3163
Q 403 3881 828 4315
Q 1253 4750 1959 4750
Q 2769 4750 3195 4129
Q 3622 3509 3622 2328
Q 3622 1225 3098 567
Q 2575 -91 1691 -91
Q 1453 -91 1209 -44
Q 966 3 703 97
z
M 1959 2075
Q 2384 2075 2632 2365
Q 2881 2656 2881 3163
Q 2881 3666 2632 3958
Q 2384 4250 1959 4250
Q 1534 4250 1286 3958
Q 1038 3666 1038 3163
Q 1038 2656 1286 2365
Q 1534 2075 1959 2075
z
" transform="scale(0.015625)"/>
     </defs>
     <use xlink:href="#DejaVuSans-46"/>
     <use xlink:href="#DejaVuSans-69" x="50.269531"/>
     <use xlink:href="#DejaVuSans-72" x="78.052734"/>
     <use xlink:href="#DejaVuSans-73" x="119.166016"/>
     <use xlink:href="#DejaVuSans-74" x="171.265625"/>
     <use xlink:href="#DejaVuSans-20" x="210.474609"/>
     <use xlink:href="#DejaVuSans-73" x="242.261719"/>
     <use xlink:href="#DejaVuSans-74" x="294.361328"/>
     <use xlink:href="#DejaVuSans-61" x="333.570312"/>
     <use xlink:href="#DejaVuSans-67" x="394.849609"/>
     <use xlink:href="#DejaVuSans-65" x="458.326172"/>
     <use xlink:href="#DejaVuSans-20" x="519.849609"/>
     <use xlink:href="#DejaVuSans-70" x="551.636719"/>
     <use xlink:href="#DejaVuSans-6c" x="615.113281"/>
     <use xlink:href="#DejaVuSans-61" x="642.896484"/>
     <use xlink:href="#DejaVuSans-63" x="704.175781"/>
     <use xlink:href="#DejaVuSans-65" x="759.15625"/>
     <use xlink:href="#DejaVuSans-62" x="820.679688"/>
     <use xlink:href="#DejaVuSans-6f" x="884.15625"/>
     <use xlink:href="#DejaVuSans-20" x="945.337891"/>
     <use xlink:href="#DejaVuSans-74" x="977.125"/>
     <use xlink:href="#DejaVuSans-65" x="1016.333984"/>
     <use xlink:href="#DejaVuSans-73" x="1077.857422"/>
     <use xlink:href="#DejaVuSans-74" x="1129.957031"/>
     <use xlink:href="#DejaVuSans-73" x="1169.166016"/>
     <use xlink:href="#DejaVuSans-20" x="1221.265625"/>
     <use xlink:href="#DejaVuSans-77" x="1253.052734"/>
     <use xlink:href="#DejaVuSans-69" x="1334.839844"/>
     <use xlink:href="#DejaVuSans-74" x="1362.623047"/>
     <use xlink:href="#DejaVuSans-68" x="1401.832031"/>
     <use xlink:href="#DejaVuSans-20" x="1465.210938"/>
     <use xlink:href="#DejaVuSans-73" x="1496.998047"/>
     <use xlink:href="#DejaVuSans-68" x="1549.097656"/>
     <use xlink:href="#DejaVuSans-69" x="1612.476562"/>
     <use xlink:href="#DejaVuSans-66" x="1640.259766"/>
     <use xlink:href="#DejaVuSans-74" x="1673.714844"/>
     <use xlink:href="#DejaVuSans-65" x="1712.923828"/>
     <use xlink:href="#DejaVuSans-64" x="1774.447266"/>
     <use xlink:href="#DejaVuSans-20" x="1837.923828"/>
     <use xlink:href="#DejaVuSans-74" x="1869.710938"/>
     <use xlink:href="#DejaVuSans-72" x="1908.919922"/>
     <use xlink:href="#DejaVuSans-65" x="1947.783203"/>
     <use xlink:href="#DejaVuSans-61" x="2009.306641"/>
     <use xlink:href="#DejaVuSans-74" x="2070.585938"/>
     <use xlink:href="#DejaVuSans-6d" x="2109.794922"/>
     <use xlink:href="#DejaVuSans-65" x="2207.207031"/>
     <use xlink:href="#DejaVuSans-6e" x="2268.730469"/>
     <use xlink:href="#DejaVuSans-74" x="2332.109375"/>
     <use xlink:href="#DejaVuSans-3a" x="2371.318359"/>
     <use xlink:href="#DejaVuSans-20" x="2405.009766"/>
     <use xlink:href="#DejaVuSans-49" x="2436.796875"/>
     <use xlink:href="#DejaVuSans-6d" x="2466.289062"/>
     <use xlink:href="#DejaVuSans-70" x="2563.701172"/>
     <use xlink:href="#DejaVuSans-61" x="2627.177734"/>
     <use xlink:href="#DejaVuSans-63" x="2688.457031"/>
     <use xlink:href="#DejaVuSans-74" x="2743.4375"/>
     <use xlink:href="#DejaVuSans-20" x="2782.646484"/>
     <use xlink:href="#DejaVuSans-6f" x="2814.433594"/>
     <use xlink:href="#DejaVuSans-66" x="2875.615234"/>
     <use xlink:href="#DejaVuSans-20" x="2910.820312"/>
     <use xlink:href="#DejaVuSans-70" x="2942.607422"/>
     <use xlink:href="#DejaVuSans-63" x="3006.083984"/>
     <use xlink:href="#DejaVuSans-5f" x="3061.064453"/>
     <use xlink:href="#DejaVuSans-72" x="3111.064453"/>
     <use xlink:href="#DejaVuSans-65" x="3149.927734"/>
     <use xlink:href="#DejaVuSans-73" x="3211.451172"/>
     <use xlink:href="#DejaVuSans-69" x="3263.550781"/>
     <use xlink:href="#DejaVuSans-64" x="3291.333984"/>
     <use xlink:href="#DejaVuSans-5f" x="3354.810547"/>
     <use xlink:href="#DejaVuSans-39" x="3404.810547"/>
     <use xlink:href="#DejaVuSans-20" x="3468.433594"/>
     <use xlink:href="#DejaVuSans-6f" x="3500.220703"/>
     <use xlink:href="#DejaVuSans-6e" x="3561.402344"/>
     <use xlink:href="#DejaVuSans-20" x="3624.78125"/>
     <use xlink:href="#DejaVuSans-70" x="3656.568359"/>
     <use xlink:href="#DejaVuSans-72" x="3720.044922"/>
     <use xlink:href="#DejaVuSans-6f" x="3758.908203"/>
     <use xlink:href="#DejaVuSans-74" x="3820.089844"/>
     <use xlink:href="#DejaVuSans-65" x="3859.298828"/>
     <use xlink:href="#DejaVuSans-73" x="3920.822266"/>
     <use xlink:href="#DejaVuSans-74" x="3972.921875"/>
     <use xlink:href="#DejaVuSans-20" x="4012.130859"/>
     <use xlink:href="#DejaVuSans-6f" x="4043.917969"/>
     <use xlink:href="#DejaVuSans-63" x="4105.099609"/>
     <use xlink:href="#DejaVuSans-63" x="4160.080078"/>
     <use xlink:href="#DejaVuSans-75" x="4215.060547"/>
     <use xlink:href="#DejaVuSans-72" x="4278.439453"/>
     <use xlink:href="#DejaVuSans-72" x="4317.802734"/>
     <use xlink:href="#DejaVuSans-65" x="4356.666016"/>
     <use xlink:href="#DejaVuSans-6e" x="4418.189453"/>
     <use xlink:href="#DejaVuSans-63" x="4481.568359"/>
     <use xlink:href="#DejaVuSans-65" x="4536.548828"/>
    </g>
   </g>
  </g>
 </g>
 <defs>
  <clipPath id="p2da0ea3b75">
   <rect x="58.523438" y="22.318125" width="502.69" height="148.12"/>
  </clipPath>
 </defs>
</svg>
