<?xml version="1.0" encoding="utf-8" standalone="no"?>
<!DOCTYPE svg PUBLIC "-//W3C//DTD SVG 1.1//EN"
  "http://www.w3.org/Graphics/SVG/1.1/DTD/svg11.dtd">
<svg xmlns:xlink="http://www.w3.org/1999/xlink" width="211.6375pt" height="303.86395pt" viewBox="0 0 211.6375 303.86395" xmlns="http://www.w3.org/2000/svg" version="1.1">
 <metadata>
  <rdf:RDF xmlns:dc="http://purl.org/dc/elements/1.1/" xmlns:cc="http://creativecommons.org/ns#" xmlns:rdf="http://www.w3.org/1999/02/22-rdf-syntax-ns#">
   <cc:Work>
    <dc:type rdf:resource="http://purl.org/dc/dcmitype/StillImage"/>
    <dc:date>2023-07-07T18:39:18.117478</dc:date>
    <dc:format>image/svg+xml</dc:format>
    <dc:creator>
     <cc:Agent>
      <dc:title>Matplotlib v3.7.1, https://matplotlib.org/</dc:title>
     </cc:Agent>
    </dc:creator>
   </cc:Work>
  </rdf:RDF>
 </metadata>
 <defs>
  <style type="text/css">*{stroke-linejoin: round; stroke-linecap: butt}</style>
 </defs>
 <g id="figure_1">
  <g id="patch_1">
   <path d="M 0 303.86395
L 211.6375 303.86395
L 211.6375 0
L 0 0
z
" style="fill: #ffffff"/>
  </g>
  <g id="axes_1">
   <g id="patch_2">
    <path d="M 10.38125 266.3077
L 66.18125 266.3077
L 66.18125 44.5477
L 10.38125 44.5477
z
" style="fill: #ffffff"/>
   </g>
   <g id="patch_3">
    <path d="M 10.38125 262.6117
L 63.524107 262.6117
L 63.524107 258.9157
L 10.38125 258.9157
z
" clip-path="url(#p3ce63aaaba)" style="fill: #1f77b4"/>
   </g>
   <g id="patch_4">
    <path d="M 10.38125 247.8277
L 47.286012 247.8277
L 47.286012 244.1317
L 10.38125 244.1317
z
" clip-path="url(#p3ce63aaaba)" style="fill: #1f77b4"/>
   </g>
   <g id="patch_5">
    <path d="M 10.38125 233.0437
L 28.587599 233.0437
L 28.587599 229.3477
L 10.38125 229.3477
z
" clip-path="url(#p3ce63aaaba)" style="fill: #1f77b4"/>
   </g>
   <g id="patch_6">
    <path d="M 10.38125 218.2597
L 27.35744 218.2597
L 27.35744 214.5637
L 10.38125 214.5637
z
" clip-path="url(#p3ce63aaaba)" style="fill: #1f77b4"/>
   </g>
   <g id="patch_7">
    <path d="M 10.38125 203.4757
L 26.127282 203.4757
L 26.127282 199.7797
L 10.38125 199.7797
z
" clip-path="url(#p3ce63aaaba)" style="fill: #1f77b4"/>
   </g>
   <g id="patch_8">
    <path d="M 10.38125 188.6917
L 25.635218 188.6917
L 25.635218 184.9957
L 10.38125 184.9957
z
" clip-path="url(#p3ce63aaaba)" style="fill: #1f77b4"/>
   </g>
   <g id="patch_9">
    <path d="M 10.38125 173.9077
L 22.190774 173.9077
L 22.190774 170.2117
L 10.38125 170.2117
z
" clip-path="url(#p3ce63aaaba)" style="fill: #1f77b4"/>
   </g>
   <g id="patch_10">
    <path d="M 10.38125 159.1237
L 20.960615 159.1237
L 20.960615 155.4277
L 10.38125 155.4277
z
" clip-path="url(#p3ce63aaaba)" style="fill: #1f77b4"/>
   </g>
   <g id="patch_11">
    <path d="M 10.38125 144.3397
L 20.714583 144.3397
L 20.714583 140.6437
L 10.38125 140.6437
z
" clip-path="url(#p3ce63aaaba)" style="fill: #1f77b4"/>
   </g>
   <g id="patch_12">
    <path d="M 10.38125 129.5557
L 19.730456 129.5557
L 19.730456 125.8597
L 10.38125 125.8597
z
" clip-path="url(#p3ce63aaaba)" style="fill: #1f77b4"/>
   </g>
   <g id="patch_13">
    <path d="M 10.38125 114.7717
L 18.746329 114.7717
L 18.746329 111.0757
L 10.38125 111.0757
z
" clip-path="url(#p3ce63aaaba)" style="fill: #1f77b4"/>
   </g>
   <g id="patch_14">
    <path d="M 10.38125 99.9877
L 17.024107 99.9877
L 17.024107 96.2917
L 10.38125 96.2917
z
" clip-path="url(#p3ce63aaaba)" style="fill: #1f77b4"/>
   </g>
   <g id="patch_15">
    <path d="M 10.38125 85.2037
L 16.778075 85.2037
L 16.778075 81.5077
L 10.38125 81.5077
z
" clip-path="url(#p3ce63aaaba)" style="fill: #1f77b4"/>
   </g>
   <g id="patch_16">
    <path d="M 10.38125 70.4197
L 16.03998 70.4197
L 16.03998 66.7237
L 10.38125 66.7237
z
" clip-path="url(#p3ce63aaaba)" style="fill: #1f77b4"/>
   </g>
   <g id="patch_17">
    <path d="M 10.38125 55.6357
L 15.793948 55.6357
L 15.793948 51.9397
L 10.38125 51.9397
z
" clip-path="url(#p3ce63aaaba)" style="fill: #1f77b4"/>
   </g>
   <g id="patch_18">
    <path d="M 10.38125 258.9157
L 18.500298 258.9157
L 18.500298 255.2197
L 10.38125 255.2197
z
" clip-path="url(#p3ce63aaaba)" style="fill: #ff7f0e"/>
   </g>
   <g id="patch_19">
    <path d="M 10.38125 244.1317
L 15.301885 244.1317
L 15.301885 240.4357
L 10.38125 240.4357
z
" clip-path="url(#p3ce63aaaba)" style="fill: #ff7f0e"/>
   </g>
   <g id="patch_20">
    <path d="M 10.38125 229.3477
L 13.579663 229.3477
L 13.579663 225.6517
L 10.38125 225.6517
z
" clip-path="url(#p3ce63aaaba)" style="fill: #ff7f0e"/>
   </g>
   <g id="patch_21">
    <path d="M 10.38125 214.5637
L 13.825694 214.5637
L 13.825694 210.8677
L 10.38125 210.8677
z
" clip-path="url(#p3ce63aaaba)" style="fill: #ff7f0e"/>
   </g>
   <g id="patch_22">
    <path d="M 10.38125 199.7797
L 12.349504 199.7797
L 12.349504 196.0837
L 10.38125 196.0837
z
" clip-path="url(#p3ce63aaaba)" style="fill: #ff7f0e"/>
   </g>
   <g id="patch_23">
    <path d="M 10.38125 184.9957
L 12.349504 184.9957
L 12.349504 181.2997
L 10.38125 181.2997
z
" clip-path="url(#p3ce63aaaba)" style="fill: #ff7f0e"/>
   </g>
   <g id="patch_24">
    <path d="M 10.38125 170.2117
L 12.349504 170.2117
L 12.349504 166.5157
L 10.38125 166.5157
z
" clip-path="url(#p3ce63aaaba)" style="fill: #ff7f0e"/>
   </g>
   <g id="patch_25">
    <path d="M 10.38125 155.4277
L 11.119345 155.4277
L 11.119345 151.7317
L 10.38125 151.7317
z
" clip-path="url(#p3ce63aaaba)" style="fill: #ff7f0e"/>
   </g>
   <g id="patch_26">
    <path d="M 10.38125 140.6437
L 11.365377 140.6437
L 11.365377 136.9477
L 10.38125 136.9477
z
" clip-path="url(#p3ce63aaaba)" style="fill: #ff7f0e"/>
   </g>
   <g id="patch_27">
    <path d="M 10.38125 125.8597
L 11.85744 125.8597
L 11.85744 122.1637
L 10.38125 122.1637
z
" clip-path="url(#p3ce63aaaba)" style="fill: #ff7f0e"/>
   </g>
   <g id="patch_28">
    <path d="M 10.38125 111.0757
L 10.873313 111.0757
L 10.873313 107.3797
L 10.38125 107.3797
z
" clip-path="url(#p3ce63aaaba)" style="fill: #ff7f0e"/>
   </g>
   <g id="patch_29">
    <path d="M 10.38125 96.2917
L 11.611409 96.2917
L 11.611409 92.5957
L 10.38125 92.5957
z
" clip-path="url(#p3ce63aaaba)" style="fill: #ff7f0e"/>
   </g>
   <g id="patch_30">
    <path d="M 10.38125 81.5077
L 10.627282 81.5077
L 10.627282 77.8117
L 10.38125 77.8117
z
" clip-path="url(#p3ce63aaaba)" style="fill: #ff7f0e"/>
   </g>
   <g id="patch_31">
    <path d="M 10.38125 66.7237
L 11.365377 66.7237
L 11.365377 63.0277
L 10.38125 63.0277
z
" clip-path="url(#p3ce63aaaba)" style="fill: #ff7f0e"/>
   </g>
   <g id="patch_32">
    <path d="M 10.38125 51.9397
L 11.611409 51.9397
L 11.611409 48.2437
L 10.38125 48.2437
z
" clip-path="url(#p3ce63aaaba)" style="fill: #ff7f0e"/>
   </g>
   <g id="matplotlib.axis_1">
    <g id="xtick_1">
     <g id="line2d_1">
      <defs>
       <path id="m013a2d2357" d="M 0 0
L 0 3.5
" style="stroke: #000000; stroke-width: 0.8"/>
      </defs>
      <g>
       <use xlink:href="#m013a2d2357" x="10.38125" y="266.3077" style="stroke: #000000; stroke-width: 0.8"/>
      </g>
     </g>
     <g id="text_1">
      <!-- 0 -->
      <g transform="translate(7.2 280.906137) scale(0.1 -0.1)">
       <defs>
        <path id="DejaVuSans-30" d="M 2034 4250
Q 1547 4250 1301 3770
Q 1056 3291 1056 2328
Q 1056 1369 1301 889
Q 1547 409 2034 409
Q 2525 409 2770 889
Q 3016 1369 3016 2328
Q 3016 3291 2770 3770
Q 2525 4250 2034 4250
z
M 2034 4750
Q 2819 4750 3233 4129
Q 3647 3509 3647 2328
Q 3647 1150 3233 529
Q 2819 -91 2034 -91
Q 1250 -91 836 529
Q 422 1150 422 2328
Q 422 3509 836 4129
Q 1250 4750 2034 4750
z
" transform="scale(0.015625)"/>
       </defs>
       <use xlink:href="#DejaVuSans-30"/>
      </g>
     </g>
    </g>
    <g id="xtick_2">
     <g id="line2d_2">
      <g>
       <use xlink:href="#m013a2d2357" x="59.587599" y="266.3077" style="stroke: #000000; stroke-width: 0.8"/>
      </g>
     </g>
     <g id="text_2">
      <!-- 200 -->
      <g transform="translate(50.043849 280.906137) scale(0.1 -0.1)">
       <defs>
        <path id="DejaVuSans-32" d="M 1228 531
L 3431 531
L 3431 0
L 469 0
L 469 531
Q 828 903 1448 1529
Q 2069 2156 2228 2338
Q 2531 2678 2651 2914
Q 2772 3150 2772 3378
Q 2772 3750 2511 3984
Q 2250 4219 1831 4219
Q 1534 4219 1204 4116
Q 875 4013 500 3803
L 500 4441
Q 881 4594 1212 4672
Q 1544 4750 1819 4750
Q 2544 4750 2975 4387
Q 3406 4025 3406 3419
Q 3406 3131 3298 2873
Q 3191 2616 2906 2266
Q 2828 2175 2409 1742
Q 1991 1309 1228 531
z
" transform="scale(0.015625)"/>
       </defs>
       <use xlink:href="#DejaVuSans-32"/>
       <use xlink:href="#DejaVuSans-30" x="63.623047"/>
       <use xlink:href="#DejaVuSans-30" x="127.246094"/>
      </g>
     </g>
    </g>
    <g id="text_3">
     <!-- #articles -->
     <g transform="translate(15.803125 294.584262) scale(0.1 -0.1)">
      <defs>
       <path id="DejaVuSans-23" d="M 3272 2816
L 2363 2816
L 2100 1772
L 3016 1772
L 3272 2816
z
M 2803 4594
L 2478 3297
L 3391 3297
L 3719 4594
L 4219 4594
L 3897 3297
L 4872 3297
L 4872 2816
L 3775 2816
L 3519 1772
L 4513 1772
L 4513 1294
L 3397 1294
L 3072 0
L 2572 0
L 2894 1294
L 1978 1294
L 1656 0
L 1153 0
L 1478 1294
L 494 1294
L 494 1772
L 1594 1772
L 1856 2816
L 850 2816
L 850 3297
L 1978 3297
L 2297 4594
L 2803 4594
z
" transform="scale(0.015625)"/>
       <path id="DejaVuSans-61" d="M 2194 1759
Q 1497 1759 1228 1600
Q 959 1441 959 1056
Q 959 750 1161 570
Q 1363 391 1709 391
Q 2188 391 2477 730
Q 2766 1069 2766 1631
L 2766 1759
L 2194 1759
z
M 3341 1997
L 3341 0
L 2766 0
L 2766 531
Q 2569 213 2275 61
Q 1981 -91 1556 -91
Q 1019 -91 701 211
Q 384 513 384 1019
Q 384 1609 779 1909
Q 1175 2209 1959 2209
L 2766 2209
L 2766 2266
Q 2766 2663 2505 2880
Q 2244 3097 1772 3097
Q 1472 3097 1187 3025
Q 903 2953 641 2809
L 641 3341
Q 956 3463 1253 3523
Q 1550 3584 1831 3584
Q 2591 3584 2966 3190
Q 3341 2797 3341 1997
z
" transform="scale(0.015625)"/>
       <path id="DejaVuSans-72" d="M 2631 2963
Q 2534 3019 2420 3045
Q 2306 3072 2169 3072
Q 1681 3072 1420 2755
Q 1159 2438 1159 1844
L 1159 0
L 581 0
L 581 3500
L 1159 3500
L 1159 2956
Q 1341 3275 1631 3429
Q 1922 3584 2338 3584
Q 2397 3584 2469 3576
Q 2541 3569 2628 3553
L 2631 2963
z
" transform="scale(0.015625)"/>
       <path id="DejaVuSans-74" d="M 1172 4494
L 1172 3500
L 2356 3500
L 2356 3053
L 1172 3053
L 1172 1153
Q 1172 725 1289 603
Q 1406 481 1766 481
L 2356 481
L 2356 0
L 1766 0
Q 1100 0 847 248
Q 594 497 594 1153
L 594 3053
L 172 3053
L 172 3500
L 594 3500
L 594 4494
L 1172 4494
z
" transform="scale(0.015625)"/>
       <path id="DejaVuSans-69" d="M 603 3500
L 1178 3500
L 1178 0
L 603 0
L 603 3500
z
M 603 4863
L 1178 4863
L 1178 4134
L 603 4134
L 603 4863
z
" transform="scale(0.015625)"/>
       <path id="DejaVuSans-63" d="M 3122 3366
L 3122 2828
Q 2878 2963 2633 3030
Q 2388 3097 2138 3097
Q 1578 3097 1268 2742
Q 959 2388 959 1747
Q 959 1106 1268 751
Q 1578 397 2138 397
Q 2388 397 2633 464
Q 2878 531 3122 666
L 3122 134
Q 2881 22 2623 -34
Q 2366 -91 2075 -91
Q 1284 -91 818 406
Q 353 903 353 1747
Q 353 2603 823 3093
Q 1294 3584 2113 3584
Q 2378 3584 2631 3529
Q 2884 3475 3122 3366
z
" transform="scale(0.015625)"/>
       <path id="DejaVuSans-6c" d="M 603 4863
L 1178 4863
L 1178 0
L 603 0
L 603 4863
z
" transform="scale(0.015625)"/>
       <path id="DejaVuSans-65" d="M 3597 1894
L 3597 1613
L 953 1613
Q 991 1019 1311 708
Q 1631 397 2203 397
Q 2534 397 2845 478
Q 3156 559 3463 722
L 3463 178
Q 3153 47 2828 -22
Q 2503 -91 2169 -91
Q 1331 -91 842 396
Q 353 884 353 1716
Q 353 2575 817 3079
Q 1281 3584 2069 3584
Q 2775 3584 3186 3129
Q 3597 2675 3597 1894
z
M 3022 2063
Q 3016 2534 2758 2815
Q 2500 3097 2075 3097
Q 1594 3097 1305 2825
Q 1016 2553 972 2059
L 3022 2063
z
" transform="scale(0.015625)"/>
       <path id="DejaVuSans-73" d="M 2834 3397
L 2834 2853
Q 2591 2978 2328 3040
Q 2066 3103 1784 3103
Q 1356 3103 1142 2972
Q 928 2841 928 2578
Q 928 2378 1081 2264
Q 1234 2150 1697 2047
L 1894 2003
Q 2506 1872 2764 1633
Q 3022 1394 3022 966
Q 3022 478 2636 193
Q 2250 -91 1575 -91
Q 1294 -91 989 -36
Q 684 19 347 128
L 347 722
Q 666 556 975 473
Q 1284 391 1588 391
Q 1994 391 2212 530
Q 2431 669 2431 922
Q 2431 1156 2273 1281
Q 2116 1406 1581 1522
L 1381 1569
Q 847 1681 609 1914
Q 372 2147 372 2553
Q 372 3047 722 3315
Q 1072 3584 1716 3584
Q 2034 3584 2315 3537
Q 2597 3491 2834 3397
z
" transform="scale(0.015625)"/>
      </defs>
      <use xlink:href="#DejaVuSans-23"/>
      <use xlink:href="#DejaVuSans-61" x="83.789062"/>
      <use xlink:href="#DejaVuSans-72" x="145.068359"/>
      <use xlink:href="#DejaVuSans-74" x="186.181641"/>
      <use xlink:href="#DejaVuSans-69" x="225.390625"/>
      <use xlink:href="#DejaVuSans-63" x="253.173828"/>
      <use xlink:href="#DejaVuSans-6c" x="308.154297"/>
      <use xlink:href="#DejaVuSans-65" x="335.9375"/>
      <use xlink:href="#DejaVuSans-73" x="397.460938"/>
     </g>
    </g>
   </g>
   <g id="matplotlib.axis_2">
    <g id="ytick_1">
     <g id="line2d_3">
      <defs>
       <path id="mb2ea87150e" d="M 0 0
L 3.5 0
" style="stroke: #000000; stroke-width: 0.8"/>
      </defs>
      <g>
       <use xlink:href="#mb2ea87150e" x="66.18125" y="258.9157" style="stroke: #000000; stroke-width: 0.8"/>
      </g>
     </g>
     <g id="text_4">
      <!-- infranken.de -->
      <g transform="translate(73.18125 262.714919) scale(0.1 -0.1)">
       <defs>
        <path id="DejaVuSans-6e" d="M 3513 2113
L 3513 0
L 2938 0
L 2938 2094
Q 2938 2591 2744 2837
Q 2550 3084 2163 3084
Q 1697 3084 1428 2787
Q 1159 2491 1159 1978
L 1159 0
L 581 0
L 581 3500
L 1159 3500
L 1159 2956
Q 1366 3272 1645 3428
Q 1925 3584 2291 3584
Q 2894 3584 3203 3211
Q 3513 2838 3513 2113
z
" transform="scale(0.015625)"/>
        <path id="DejaVuSans-66" d="M 2375 4863
L 2375 4384
L 1825 4384
Q 1516 4384 1395 4259
Q 1275 4134 1275 3809
L 1275 3500
L 2222 3500
L 2222 3053
L 1275 3053
L 1275 0
L 697 0
L 697 3053
L 147 3053
L 147 3500
L 697 3500
L 697 3744
Q 697 4328 969 4595
Q 1241 4863 1831 4863
L 2375 4863
z
" transform="scale(0.015625)"/>
        <path id="DejaVuSans-6b" d="M 581 4863
L 1159 4863
L 1159 1991
L 2875 3500
L 3609 3500
L 1753 1863
L 3688 0
L 2938 0
L 1159 1709
L 1159 0
L 581 0
L 581 4863
z
" transform="scale(0.015625)"/>
        <path id="DejaVuSans-2e" d="M 684 794
L 1344 794
L 1344 0
L 684 0
L 684 794
z
" transform="scale(0.015625)"/>
        <path id="DejaVuSans-64" d="M 2906 2969
L 2906 4863
L 3481 4863
L 3481 0
L 2906 0
L 2906 525
Q 2725 213 2448 61
Q 2172 -91 1784 -91
Q 1150 -91 751 415
Q 353 922 353 1747
Q 353 2572 751 3078
Q 1150 3584 1784 3584
Q 2172 3584 2448 3432
Q 2725 3281 2906 2969
z
M 947 1747
Q 947 1113 1208 752
Q 1469 391 1925 391
Q 2381 391 2643 752
Q 2906 1113 2906 1747
Q 2906 2381 2643 2742
Q 2381 3103 1925 3103
Q 1469 3103 1208 2742
Q 947 2381 947 1747
z
" transform="scale(0.015625)"/>
       </defs>
       <use xlink:href="#DejaVuSans-69"/>
       <use xlink:href="#DejaVuSans-6e" x="27.783203"/>
       <use xlink:href="#DejaVuSans-66" x="91.162109"/>
       <use xlink:href="#DejaVuSans-72" x="126.367188"/>
       <use xlink:href="#DejaVuSans-61" x="167.480469"/>
       <use xlink:href="#DejaVuSans-6e" x="228.759766"/>
       <use xlink:href="#DejaVuSans-6b" x="292.138672"/>
       <use xlink:href="#DejaVuSans-65" x="346.423828"/>
       <use xlink:href="#DejaVuSans-6e" x="407.947266"/>
       <use xlink:href="#DejaVuSans-2e" x="471.326172"/>
       <use xlink:href="#DejaVuSans-64" x="503.113281"/>
       <use xlink:href="#DejaVuSans-65" x="566.589844"/>
      </g>
     </g>
    </g>
    <g id="ytick_2">
     <g id="line2d_4">
      <g>
       <use xlink:href="#mb2ea87150e" x="66.18125" y="244.1317" style="stroke: #000000; stroke-width: 0.8"/>
      </g>
     </g>
     <g id="text_5">
      <!-- wn.de -->
      <g transform="translate(73.18125 247.930919) scale(0.1 -0.1)">
       <defs>
        <path id="DejaVuSans-77" d="M 269 3500
L 844 3500
L 1563 769
L 2278 3500
L 2956 3500
L 3675 769
L 4391 3500
L 4966 3500
L 4050 0
L 3372 0
L 2619 2869
L 1863 0
L 1184 0
L 269 3500
z
" transform="scale(0.015625)"/>
       </defs>
       <use xlink:href="#DejaVuSans-77"/>
       <use xlink:href="#DejaVuSans-6e" x="81.787109"/>
       <use xlink:href="#DejaVuSans-2e" x="145.166016"/>
       <use xlink:href="#DejaVuSans-64" x="176.953125"/>
       <use xlink:href="#DejaVuSans-65" x="240.429688"/>
      </g>
     </g>
    </g>
    <g id="ytick_3">
     <g id="line2d_5">
      <g>
       <use xlink:href="#mb2ea87150e" x="66.18125" y="229.3477" style="stroke: #000000; stroke-width: 0.8"/>
      </g>
     </g>
     <g id="text_6">
      <!-- op-online.de -->
      <g transform="translate(73.18125 233.146919) scale(0.1 -0.1)">
       <defs>
        <path id="DejaVuSans-6f" d="M 1959 3097
Q 1497 3097 1228 2736
Q 959 2375 959 1747
Q 959 1119 1226 758
Q 1494 397 1959 397
Q 2419 397 2687 759
Q 2956 1122 2956 1747
Q 2956 2369 2687 2733
Q 2419 3097 1959 3097
z
M 1959 3584
Q 2709 3584 3137 3096
Q 3566 2609 3566 1747
Q 3566 888 3137 398
Q 2709 -91 1959 -91
Q 1206 -91 779 398
Q 353 888 353 1747
Q 353 2609 779 3096
Q 1206 3584 1959 3584
z
" transform="scale(0.015625)"/>
        <path id="DejaVuSans-70" d="M 1159 525
L 1159 -1331
L 581 -1331
L 581 3500
L 1159 3500
L 1159 2969
Q 1341 3281 1617 3432
Q 1894 3584 2278 3584
Q 2916 3584 3314 3078
Q 3713 2572 3713 1747
Q 3713 922 3314 415
Q 2916 -91 2278 -91
Q 1894 -91 1617 61
Q 1341 213 1159 525
z
M 3116 1747
Q 3116 2381 2855 2742
Q 2594 3103 2138 3103
Q 1681 3103 1420 2742
Q 1159 2381 1159 1747
Q 1159 1113 1420 752
Q 1681 391 2138 391
Q 2594 391 2855 752
Q 3116 1113 3116 1747
z
" transform="scale(0.015625)"/>
        <path id="DejaVuSans-2d" d="M 313 2009
L 1997 2009
L 1997 1497
L 313 1497
L 313 2009
z
" transform="scale(0.015625)"/>
       </defs>
       <use xlink:href="#DejaVuSans-6f"/>
       <use xlink:href="#DejaVuSans-70" x="61.181641"/>
       <use xlink:href="#DejaVuSans-2d" x="124.658203"/>
       <use xlink:href="#DejaVuSans-6f" x="162.617188"/>
       <use xlink:href="#DejaVuSans-6e" x="223.798828"/>
       <use xlink:href="#DejaVuSans-6c" x="287.177734"/>
       <use xlink:href="#DejaVuSans-69" x="314.960938"/>
       <use xlink:href="#DejaVuSans-6e" x="342.744141"/>
       <use xlink:href="#DejaVuSans-65" x="406.123047"/>
       <use xlink:href="#DejaVuSans-2e" x="467.646484"/>
       <use xlink:href="#DejaVuSans-64" x="499.433594"/>
       <use xlink:href="#DejaVuSans-65" x="562.910156"/>
      </g>
     </g>
    </g>
    <g id="ytick_4">
     <g id="line2d_6">
      <g>
       <use xlink:href="#mb2ea87150e" x="66.18125" y="214.5637" style="stroke: #000000; stroke-width: 0.8"/>
      </g>
     </g>
     <g id="text_7">
      <!-- zeit.de -->
      <g transform="translate(73.18125 218.362919) scale(0.1 -0.1)">
       <defs>
        <path id="DejaVuSans-7a" d="M 353 3500
L 3084 3500
L 3084 2975
L 922 459
L 3084 459
L 3084 0
L 275 0
L 275 525
L 2438 3041
L 353 3041
L 353 3500
z
" transform="scale(0.015625)"/>
       </defs>
       <use xlink:href="#DejaVuSans-7a"/>
       <use xlink:href="#DejaVuSans-65" x="52.490234"/>
       <use xlink:href="#DejaVuSans-69" x="114.013672"/>
       <use xlink:href="#DejaVuSans-74" x="141.796875"/>
       <use xlink:href="#DejaVuSans-2e" x="181.005859"/>
       <use xlink:href="#DejaVuSans-64" x="212.792969"/>
       <use xlink:href="#DejaVuSans-65" x="276.269531"/>
      </g>
     </g>
    </g>
    <g id="ytick_5">
     <g id="line2d_7">
      <g>
       <use xlink:href="#mb2ea87150e" x="66.18125" y="199.7797" style="stroke: #000000; stroke-width: 0.8"/>
      </g>
     </g>
     <g id="text_8">
      <!-- azonline.de -->
      <g transform="translate(73.18125 203.578919) scale(0.1 -0.1)">
       <use xlink:href="#DejaVuSans-61"/>
       <use xlink:href="#DejaVuSans-7a" x="61.279297"/>
       <use xlink:href="#DejaVuSans-6f" x="113.769531"/>
       <use xlink:href="#DejaVuSans-6e" x="174.951172"/>
       <use xlink:href="#DejaVuSans-6c" x="238.330078"/>
       <use xlink:href="#DejaVuSans-69" x="266.113281"/>
       <use xlink:href="#DejaVuSans-6e" x="293.896484"/>
       <use xlink:href="#DejaVuSans-65" x="357.275391"/>
       <use xlink:href="#DejaVuSans-2e" x="418.798828"/>
       <use xlink:href="#DejaVuSans-64" x="450.585938"/>
       <use xlink:href="#DejaVuSans-65" x="514.0625"/>
      </g>
     </g>
    </g>
    <g id="ytick_6">
     <g id="line2d_8">
      <g>
       <use xlink:href="#mb2ea87150e" x="66.18125" y="184.9957" style="stroke: #000000; stroke-width: 0.8"/>
      </g>
     </g>
     <g id="text_9">
      <!-- tz.de -->
      <g transform="translate(73.18125 188.794919) scale(0.1 -0.1)">
       <use xlink:href="#DejaVuSans-74"/>
       <use xlink:href="#DejaVuSans-7a" x="39.208984"/>
       <use xlink:href="#DejaVuSans-2e" x="91.699219"/>
       <use xlink:href="#DejaVuSans-64" x="123.486328"/>
       <use xlink:href="#DejaVuSans-65" x="186.962891"/>
      </g>
     </g>
    </g>
    <g id="ytick_7">
     <g id="line2d_9">
      <g>
       <use xlink:href="#mb2ea87150e" x="66.18125" y="170.2117" style="stroke: #000000; stroke-width: 0.8"/>
      </g>
     </g>
     <g id="text_10">
      <!-- onetz.de -->
      <g transform="translate(73.18125 174.010919) scale(0.1 -0.1)">
       <use xlink:href="#DejaVuSans-6f"/>
       <use xlink:href="#DejaVuSans-6e" x="61.181641"/>
       <use xlink:href="#DejaVuSans-65" x="124.560547"/>
       <use xlink:href="#DejaVuSans-74" x="186.083984"/>
       <use xlink:href="#DejaVuSans-7a" x="225.292969"/>
       <use xlink:href="#DejaVuSans-2e" x="277.783203"/>
       <use xlink:href="#DejaVuSans-64" x="309.570312"/>
       <use xlink:href="#DejaVuSans-65" x="373.046875"/>
      </g>
     </g>
    </g>
    <g id="ytick_8">
     <g id="line2d_10">
      <g>
       <use xlink:href="#mb2ea87150e" x="66.18125" y="155.4277" style="stroke: #000000; stroke-width: 0.8"/>
      </g>
     </g>
     <g id="text_11">
      <!-- dzonline.de -->
      <g transform="translate(73.18125 159.226919) scale(0.1 -0.1)">
       <use xlink:href="#DejaVuSans-64"/>
       <use xlink:href="#DejaVuSans-7a" x="63.476562"/>
       <use xlink:href="#DejaVuSans-6f" x="115.966797"/>
       <use xlink:href="#DejaVuSans-6e" x="177.148438"/>
       <use xlink:href="#DejaVuSans-6c" x="240.527344"/>
       <use xlink:href="#DejaVuSans-69" x="268.310547"/>
       <use xlink:href="#DejaVuSans-6e" x="296.09375"/>
       <use xlink:href="#DejaVuSans-65" x="359.472656"/>
       <use xlink:href="#DejaVuSans-2e" x="420.996094"/>
       <use xlink:href="#DejaVuSans-64" x="452.783203"/>
       <use xlink:href="#DejaVuSans-65" x="516.259766"/>
      </g>
     </g>
    </g>
    <g id="ytick_9">
     <g id="line2d_11">
      <g>
       <use xlink:href="#mb2ea87150e" x="66.18125" y="140.6437" style="stroke: #000000; stroke-width: 0.8"/>
      </g>
     </g>
     <g id="text_12">
      <!-- weser-kurier.de -->
      <g transform="translate(73.18125 144.442919) scale(0.1 -0.1)">
       <defs>
        <path id="DejaVuSans-75" d="M 544 1381
L 544 3500
L 1119 3500
L 1119 1403
Q 1119 906 1312 657
Q 1506 409 1894 409
Q 2359 409 2629 706
Q 2900 1003 2900 1516
L 2900 3500
L 3475 3500
L 3475 0
L 2900 0
L 2900 538
Q 2691 219 2414 64
Q 2138 -91 1772 -91
Q 1169 -91 856 284
Q 544 659 544 1381
z
M 1991 3584
L 1991 3584
z
" transform="scale(0.015625)"/>
       </defs>
       <use xlink:href="#DejaVuSans-77"/>
       <use xlink:href="#DejaVuSans-65" x="81.787109"/>
       <use xlink:href="#DejaVuSans-73" x="143.310547"/>
       <use xlink:href="#DejaVuSans-65" x="195.410156"/>
       <use xlink:href="#DejaVuSans-72" x="256.933594"/>
       <use xlink:href="#DejaVuSans-2d" x="291.671875"/>
       <use xlink:href="#DejaVuSans-6b" x="327.755859"/>
       <use xlink:href="#DejaVuSans-75" x="382.541016"/>
       <use xlink:href="#DejaVuSans-72" x="445.919922"/>
       <use xlink:href="#DejaVuSans-69" x="487.033203"/>
       <use xlink:href="#DejaVuSans-65" x="514.816406"/>
       <use xlink:href="#DejaVuSans-72" x="576.339844"/>
       <use xlink:href="#DejaVuSans-2e" x="608.328125"/>
       <use xlink:href="#DejaVuSans-64" x="640.115234"/>
       <use xlink:href="#DejaVuSans-65" x="703.591797"/>
      </g>
     </g>
    </g>
    <g id="ytick_10">
     <g id="line2d_12">
      <g>
       <use xlink:href="#mb2ea87150e" x="66.18125" y="125.8597" style="stroke: #000000; stroke-width: 0.8"/>
      </g>
     </g>
     <g id="text_13">
      <!-- kreiszeitung.de -->
      <g transform="translate(73.18125 129.658919) scale(0.1 -0.1)">
       <defs>
        <path id="DejaVuSans-67" d="M 2906 1791
Q 2906 2416 2648 2759
Q 2391 3103 1925 3103
Q 1463 3103 1205 2759
Q 947 2416 947 1791
Q 947 1169 1205 825
Q 1463 481 1925 481
Q 2391 481 2648 825
Q 2906 1169 2906 1791
z
M 3481 434
Q 3481 -459 3084 -895
Q 2688 -1331 1869 -1331
Q 1566 -1331 1297 -1286
Q 1028 -1241 775 -1147
L 775 -588
Q 1028 -725 1275 -790
Q 1522 -856 1778 -856
Q 2344 -856 2625 -561
Q 2906 -266 2906 331
L 2906 616
Q 2728 306 2450 153
Q 2172 0 1784 0
Q 1141 0 747 490
Q 353 981 353 1791
Q 353 2603 747 3093
Q 1141 3584 1784 3584
Q 2172 3584 2450 3431
Q 2728 3278 2906 2969
L 2906 3500
L 3481 3500
L 3481 434
z
" transform="scale(0.015625)"/>
       </defs>
       <use xlink:href="#DejaVuSans-6b"/>
       <use xlink:href="#DejaVuSans-72" x="57.910156"/>
       <use xlink:href="#DejaVuSans-65" x="96.773438"/>
       <use xlink:href="#DejaVuSans-69" x="158.296875"/>
       <use xlink:href="#DejaVuSans-73" x="186.080078"/>
       <use xlink:href="#DejaVuSans-7a" x="238.179688"/>
       <use xlink:href="#DejaVuSans-65" x="290.669922"/>
       <use xlink:href="#DejaVuSans-69" x="352.193359"/>
       <use xlink:href="#DejaVuSans-74" x="379.976562"/>
       <use xlink:href="#DejaVuSans-75" x="419.185547"/>
       <use xlink:href="#DejaVuSans-6e" x="482.564453"/>
       <use xlink:href="#DejaVuSans-67" x="545.943359"/>
       <use xlink:href="#DejaVuSans-2e" x="609.419922"/>
       <use xlink:href="#DejaVuSans-64" x="641.207031"/>
       <use xlink:href="#DejaVuSans-65" x="704.683594"/>
      </g>
     </g>
    </g>
    <g id="ytick_11">
     <g id="line2d_13">
      <g>
       <use xlink:href="#mb2ea87150e" x="66.18125" y="111.0757" style="stroke: #000000; stroke-width: 0.8"/>
      </g>
     </g>
     <g id="text_14">
      <!-- lz.de -->
      <g transform="translate(73.18125 114.874919) scale(0.1 -0.1)">
       <use xlink:href="#DejaVuSans-6c"/>
       <use xlink:href="#DejaVuSans-7a" x="27.783203"/>
       <use xlink:href="#DejaVuSans-2e" x="80.273438"/>
       <use xlink:href="#DejaVuSans-64" x="112.060547"/>
       <use xlink:href="#DejaVuSans-65" x="175.537109"/>
      </g>
     </g>
    </g>
    <g id="ytick_12">
     <g id="line2d_14">
      <g>
       <use xlink:href="#mb2ea87150e" x="66.18125" y="96.2917" style="stroke: #000000; stroke-width: 0.8"/>
      </g>
     </g>
     <g id="text_15">
      <!-- wz.de -->
      <g transform="translate(73.18125 100.090919) scale(0.1 -0.1)">
       <use xlink:href="#DejaVuSans-77"/>
       <use xlink:href="#DejaVuSans-7a" x="81.787109"/>
       <use xlink:href="#DejaVuSans-2e" x="134.277344"/>
       <use xlink:href="#DejaVuSans-64" x="166.064453"/>
       <use xlink:href="#DejaVuSans-65" x="229.541016"/>
      </g>
     </g>
    </g>
    <g id="ytick_13">
     <g id="line2d_15">
      <g>
       <use xlink:href="#mb2ea87150e" x="66.18125" y="81.5077" style="stroke: #000000; stroke-width: 0.8"/>
      </g>
     </g>
     <g id="text_16">
      <!-- augsburger-allgemeine.de -->
      <g transform="translate(73.18125 85.306919) scale(0.1 -0.1)">
       <defs>
        <path id="DejaVuSans-62" d="M 3116 1747
Q 3116 2381 2855 2742
Q 2594 3103 2138 3103
Q 1681 3103 1420 2742
Q 1159 2381 1159 1747
Q 1159 1113 1420 752
Q 1681 391 2138 391
Q 2594 391 2855 752
Q 3116 1113 3116 1747
z
M 1159 2969
Q 1341 3281 1617 3432
Q 1894 3584 2278 3584
Q 2916 3584 3314 3078
Q 3713 2572 3713 1747
Q 3713 922 3314 415
Q 2916 -91 2278 -91
Q 1894 -91 1617 61
Q 1341 213 1159 525
L 1159 0
L 581 0
L 581 4863
L 1159 4863
L 1159 2969
z
" transform="scale(0.015625)"/>
        <path id="DejaVuSans-6d" d="M 3328 2828
Q 3544 3216 3844 3400
Q 4144 3584 4550 3584
Q 5097 3584 5394 3201
Q 5691 2819 5691 2113
L 5691 0
L 5113 0
L 5113 2094
Q 5113 2597 4934 2840
Q 4756 3084 4391 3084
Q 3944 3084 3684 2787
Q 3425 2491 3425 1978
L 3425 0
L 2847 0
L 2847 2094
Q 2847 2600 2669 2842
Q 2491 3084 2119 3084
Q 1678 3084 1418 2786
Q 1159 2488 1159 1978
L 1159 0
L 581 0
L 581 3500
L 1159 3500
L 1159 2956
Q 1356 3278 1631 3431
Q 1906 3584 2284 3584
Q 2666 3584 2933 3390
Q 3200 3197 3328 2828
z
" transform="scale(0.015625)"/>
       </defs>
       <use xlink:href="#DejaVuSans-61"/>
       <use xlink:href="#DejaVuSans-75" x="61.279297"/>
       <use xlink:href="#DejaVuSans-67" x="124.658203"/>
       <use xlink:href="#DejaVuSans-73" x="188.134766"/>
       <use xlink:href="#DejaVuSans-62" x="240.234375"/>
       <use xlink:href="#DejaVuSans-75" x="303.710938"/>
       <use xlink:href="#DejaVuSans-72" x="367.089844"/>
       <use xlink:href="#DejaVuSans-67" x="406.453125"/>
       <use xlink:href="#DejaVuSans-65" x="469.929688"/>
       <use xlink:href="#DejaVuSans-72" x="531.453125"/>
       <use xlink:href="#DejaVuSans-2d" x="566.191406"/>
       <use xlink:href="#DejaVuSans-61" x="602.275391"/>
       <use xlink:href="#DejaVuSans-6c" x="663.554688"/>
       <use xlink:href="#DejaVuSans-6c" x="691.337891"/>
       <use xlink:href="#DejaVuSans-67" x="719.121094"/>
       <use xlink:href="#DejaVuSans-65" x="782.597656"/>
       <use xlink:href="#DejaVuSans-6d" x="844.121094"/>
       <use xlink:href="#DejaVuSans-65" x="941.533203"/>
       <use xlink:href="#DejaVuSans-69" x="1003.056641"/>
       <use xlink:href="#DejaVuSans-6e" x="1030.839844"/>
       <use xlink:href="#DejaVuSans-65" x="1094.21875"/>
       <use xlink:href="#DejaVuSans-2e" x="1155.742188"/>
       <use xlink:href="#DejaVuSans-64" x="1187.529297"/>
       <use xlink:href="#DejaVuSans-65" x="1251.005859"/>
      </g>
     </g>
    </g>
    <g id="ytick_14">
     <g id="line2d_16">
      <g>
       <use xlink:href="#mb2ea87150e" x="66.18125" y="66.7237" style="stroke: #000000; stroke-width: 0.8"/>
      </g>
     </g>
     <g id="text_17">
      <!-- solinger-tageblatt.de -->
      <g transform="translate(73.18125 70.522919) scale(0.1 -0.1)">
       <use xlink:href="#DejaVuSans-73"/>
       <use xlink:href="#DejaVuSans-6f" x="52.099609"/>
       <use xlink:href="#DejaVuSans-6c" x="113.28125"/>
       <use xlink:href="#DejaVuSans-69" x="141.064453"/>
       <use xlink:href="#DejaVuSans-6e" x="168.847656"/>
       <use xlink:href="#DejaVuSans-67" x="232.226562"/>
       <use xlink:href="#DejaVuSans-65" x="295.703125"/>
       <use xlink:href="#DejaVuSans-72" x="357.226562"/>
       <use xlink:href="#DejaVuSans-2d" x="391.964844"/>
       <use xlink:href="#DejaVuSans-74" x="428.048828"/>
       <use xlink:href="#DejaVuSans-61" x="467.257812"/>
       <use xlink:href="#DejaVuSans-67" x="528.537109"/>
       <use xlink:href="#DejaVuSans-65" x="592.013672"/>
       <use xlink:href="#DejaVuSans-62" x="653.537109"/>
       <use xlink:href="#DejaVuSans-6c" x="717.013672"/>
       <use xlink:href="#DejaVuSans-61" x="744.796875"/>
       <use xlink:href="#DejaVuSans-74" x="806.076172"/>
       <use xlink:href="#DejaVuSans-74" x="845.285156"/>
       <use xlink:href="#DejaVuSans-2e" x="884.494141"/>
       <use xlink:href="#DejaVuSans-64" x="916.28125"/>
       <use xlink:href="#DejaVuSans-65" x="979.757812"/>
      </g>
     </g>
    </g>
    <g id="ytick_15">
     <g id="line2d_17">
      <g>
       <use xlink:href="#mb2ea87150e" x="66.18125" y="51.9397" style="stroke: #000000; stroke-width: 0.8"/>
      </g>
     </g>
     <g id="text_18">
      <!-- muensterschezeitung.de -->
      <g transform="translate(73.18125 55.738919) scale(0.1 -0.1)">
       <defs>
        <path id="DejaVuSans-68" d="M 3513 2113
L 3513 0
L 2938 0
L 2938 2094
Q 2938 2591 2744 2837
Q 2550 3084 2163 3084
Q 1697 3084 1428 2787
Q 1159 2491 1159 1978
L 1159 0
L 581 0
L 581 4863
L 1159 4863
L 1159 2956
Q 1366 3272 1645 3428
Q 1925 3584 2291 3584
Q 2894 3584 3203 3211
Q 3513 2838 3513 2113
z
" transform="scale(0.015625)"/>
       </defs>
       <use xlink:href="#DejaVuSans-6d"/>
       <use xlink:href="#DejaVuSans-75" x="97.412109"/>
       <use xlink:href="#DejaVuSans-65" x="160.791016"/>
       <use xlink:href="#DejaVuSans-6e" x="222.314453"/>
       <use xlink:href="#DejaVuSans-73" x="285.693359"/>
       <use xlink:href="#DejaVuSans-74" x="337.792969"/>
       <use xlink:href="#DejaVuSans-65" x="377.001953"/>
       <use xlink:href="#DejaVuSans-72" x="438.525391"/>
       <use xlink:href="#DejaVuSans-73" x="479.638672"/>
       <use xlink:href="#DejaVuSans-63" x="531.738281"/>
       <use xlink:href="#DejaVuSans-68" x="586.71875"/>
       <use xlink:href="#DejaVuSans-65" x="650.097656"/>
       <use xlink:href="#DejaVuSans-7a" x="711.621094"/>
       <use xlink:href="#DejaVuSans-65" x="764.111328"/>
       <use xlink:href="#DejaVuSans-69" x="825.634766"/>
       <use xlink:href="#DejaVuSans-74" x="853.417969"/>
       <use xlink:href="#DejaVuSans-75" x="892.626953"/>
       <use xlink:href="#DejaVuSans-6e" x="956.005859"/>
       <use xlink:href="#DejaVuSans-67" x="1019.384766"/>
       <use xlink:href="#DejaVuSans-2e" x="1082.861328"/>
       <use xlink:href="#DejaVuSans-64" x="1114.648438"/>
       <use xlink:href="#DejaVuSans-65" x="1178.125"/>
      </g>
     </g>
    </g>
   </g>
   <g id="patch_33">
    <path d="M 10.38125 266.3077
L 10.38125 44.5477
" style="fill: none; stroke: #000000; stroke-width: 0.8; stroke-linejoin: miter; stroke-linecap: square"/>
   </g>
   <g id="patch_34">
    <path d="M 66.18125 266.3077
L 66.18125 44.5477
" style="fill: none; stroke: #000000; stroke-width: 0.8; stroke-linejoin: miter; stroke-linecap: square"/>
   </g>
   <g id="patch_35">
    <path d="M 10.38125 266.3077
L 66.18125 266.3077
" style="fill: none; stroke: #000000; stroke-width: 0.8; stroke-linejoin: miter; stroke-linecap: square"/>
   </g>
   <g id="patch_36">
    <path d="M 10.38125 44.5477
L 66.18125 44.5477
" style="fill: none; stroke: #000000; stroke-width: 0.8; stroke-linejoin: miter; stroke-linecap: square"/>
   </g>
   <g id="legend_1">
    <g id="patch_37">
     <path d="M 12.38125 40.1125
L 91.275 40.1125
Q 93.275 40.1125 93.275 38.1125
L 93.275 9.2
Q 93.275 7.2 91.275 7.2
L 12.38125 7.2
Q 10.38125 7.2 10.38125 9.2
L 10.38125 38.1125
Q 10.38125 40.1125 12.38125 40.1125
z
" style="fill: #ffffff; opacity: 0.8; stroke: #cccccc; stroke-linejoin: miter"/>
    </g>
    <g id="patch_38">
     <path d="M 14.38125 18.798437
L 34.38125 18.798437
L 34.38125 11.798437
L 14.38125 11.798437
z
" style="fill: #1f77b4"/>
    </g>
    <g id="text_19">
     <!-- n_all -->
     <g transform="translate(42.38125 18.798437) scale(0.1 -0.1)">
      <defs>
       <path id="DejaVuSans-5f" d="M 3263 -1063
L 3263 -1509
L -63 -1509
L -63 -1063
L 3263 -1063
z
" transform="scale(0.015625)"/>
      </defs>
      <use xlink:href="#DejaVuSans-6e"/>
      <use xlink:href="#DejaVuSans-5f" x="63.378906"/>
      <use xlink:href="#DejaVuSans-61" x="113.378906"/>
      <use xlink:href="#DejaVuSans-6c" x="174.658203"/>
      <use xlink:href="#DejaVuSans-6c" x="202.441406"/>
     </g>
    </g>
    <g id="patch_39">
     <path d="M 14.38125 33.754687
L 34.38125 33.754687
L 34.38125 26.754687
L 14.38125 26.754687
z
" style="fill: #ff7f0e"/>
    </g>
    <g id="text_20">
     <!-- n_protest -->
     <g transform="translate(42.38125 33.754687) scale(0.1 -0.1)">
      <use xlink:href="#DejaVuSans-6e"/>
      <use xlink:href="#DejaVuSans-5f" x="63.378906"/>
      <use xlink:href="#DejaVuSans-70" x="113.378906"/>
      <use xlink:href="#DejaVuSans-72" x="176.855469"/>
      <use xlink:href="#DejaVuSans-6f" x="215.71875"/>
      <use xlink:href="#DejaVuSans-74" x="276.900391"/>
      <use xlink:href="#DejaVuSans-65" x="316.109375"/>
      <use xlink:href="#DejaVuSans-73" x="377.632812"/>
      <use xlink:href="#DejaVuSans-74" x="429.732422"/>
     </g>
    </g>
   </g>
  </g>
 </g>
 <defs>
  <clipPath id="p3ce63aaaba">
   <rect x="10.38125" y="44.5477" width="55.8" height="221.76"/>
  </clipPath>
 </defs>
</svg>
