<?xml version="1.0" encoding="utf-8" standalone="no"?>
<!DOCTYPE svg PUBLIC "-//W3C//DTD SVG 1.1//EN"
  "http://www.w3.org/Graphics/SVG/1.1/DTD/svg11.dtd">
<svg xmlns:xlink="http://www.w3.org/1999/xlink" width="321.684375pt" height="66.014875pt" viewBox="0 0 321.684375 66.014875" xmlns="http://www.w3.org/2000/svg" version="1.1">
 <metadata>
  <rdf:RDF xmlns:dc="http://purl.org/dc/elements/1.1/" xmlns:cc="http://creativecommons.org/ns#" xmlns:rdf="http://www.w3.org/1999/02/22-rdf-syntax-ns#">
   <cc:Work>
    <dc:type rdf:resource="http://purl.org/dc/dcmitype/StillImage"/>
    <dc:date>2023-07-07T18:41:20.320338</dc:date>
    <dc:format>image/svg+xml</dc:format>
    <dc:creator>
     <cc:Agent>
      <dc:title>Matplotlib v3.7.1, https://matplotlib.org/</dc:title>
     </cc:Agent>
    </dc:creator>
   </cc:Work>
  </rdf:RDF>
 </metadata>
 <defs>
  <style type="text/css">*{stroke-linejoin: round; stroke-linecap: butt}</style>
 </defs>
 <g id="figure_1">
  <g id="patch_1">
   <path d="M 0 66.014875
L 321.684375 66.014875
L 321.684375 -0
L 0 -0
z
" style="fill: #ffffff"/>
  </g>
  <g id="axes_1">
   <g id="patch_2">
    <path d="M 35.484375 46.008
L 314.484375 46.008
L 314.484375 7.2
L 35.484375 7.2
z
" style="fill: #ffffff"/>
   </g>
   <g id="matplotlib.axis_1">
    <g id="xtick_1">
     <g id="line2d_1">
      <defs>
       <path id="med8fdb2595" d="M 0 0
L 0 3.5
" style="stroke: #000000; stroke-width: 0.8"/>
      </defs>
      <g>
       <use xlink:href="#med8fdb2595" x="35.484375" y="46.008" style="stroke: #000000; stroke-width: 0.8"/>
      </g>
     </g>
     <g id="text_1">
      <!-- 2015 -->
      <g transform="translate(35.484375 57.567062) scale(0.06 -0.06)">
       <defs>
        <path id="DejaVuSans-32" d="M 1228 531
L 3431 531
L 3431 0
L 469 0
L 469 531
Q 828 903 1448 1529
Q 2069 2156 2228 2338
Q 2531 2678 2651 2914
Q 2772 3150 2772 3378
Q 2772 3750 2511 3984
Q 2250 4219 1831 4219
Q 1534 4219 1204 4116
Q 875 4013 500 3803
L 500 4441
Q 881 4594 1212 4672
Q 1544 4750 1819 4750
Q 2544 4750 2975 4387
Q 3406 4025 3406 3419
Q 3406 3131 3298 2873
Q 3191 2616 2906 2266
Q 2828 2175 2409 1742
Q 1991 1309 1228 531
z
" transform="scale(0.015625)"/>
        <path id="DejaVuSans-30" d="M 2034 4250
Q 1547 4250 1301 3770
Q 1056 3291 1056 2328
Q 1056 1369 1301 889
Q 1547 409 2034 409
Q 2525 409 2770 889
Q 3016 1369 3016 2328
Q 3016 3291 2770 3770
Q 2525 4250 2034 4250
z
M 2034 4750
Q 2819 4750 3233 4129
Q 3647 3509 3647 2328
Q 3647 1150 3233 529
Q 2819 -91 2034 -91
Q 1250 -91 836 529
Q 422 1150 422 2328
Q 422 3509 836 4129
Q 1250 4750 2034 4750
z
" transform="scale(0.015625)"/>
        <path id="DejaVuSans-31" d="M 794 531
L 1825 531
L 1825 4091
L 703 3866
L 703 4441
L 1819 4666
L 2450 4666
L 2450 531
L 3481 531
L 3481 0
L 794 0
L 794 531
z
" transform="scale(0.015625)"/>
        <path id="DejaVuSans-35" d="M 691 4666
L 3169 4666
L 3169 4134
L 1269 4134
L 1269 2991
Q 1406 3038 1543 3061
Q 1681 3084 1819 3084
Q 2600 3084 3056 2656
Q 3513 2228 3513 1497
Q 3513 744 3044 326
Q 2575 -91 1722 -91
Q 1428 -91 1123 -41
Q 819 9 494 109
L 494 744
Q 775 591 1075 516
Q 1375 441 1709 441
Q 2250 441 2565 725
Q 2881 1009 2881 1497
Q 2881 1984 2565 2268
Q 2250 2553 1709 2553
Q 1456 2553 1204 2497
Q 953 2441 691 2322
L 691 4666
z
" transform="scale(0.015625)"/>
       </defs>
       <use xlink:href="#DejaVuSans-32"/>
       <use xlink:href="#DejaVuSans-30" x="63.623047"/>
       <use xlink:href="#DejaVuSans-31" x="127.246094"/>
       <use xlink:href="#DejaVuSans-35" x="190.869141"/>
      </g>
     </g>
    </g>
    <g id="xtick_2">
     <g id="line2d_2">
      <g>
       <use xlink:href="#med8fdb2595" x="70.347436" y="46.008" style="stroke: #000000; stroke-width: 0.8"/>
      </g>
     </g>
     <g id="text_2">
      <!-- 2016 -->
      <g transform="translate(70.347436 57.567062) scale(0.06 -0.06)">
       <defs>
        <path id="DejaVuSans-36" d="M 2113 2584
Q 1688 2584 1439 2293
Q 1191 2003 1191 1497
Q 1191 994 1439 701
Q 1688 409 2113 409
Q 2538 409 2786 701
Q 3034 994 3034 1497
Q 3034 2003 2786 2293
Q 2538 2584 2113 2584
z
M 3366 4563
L 3366 3988
Q 3128 4100 2886 4159
Q 2644 4219 2406 4219
Q 1781 4219 1451 3797
Q 1122 3375 1075 2522
Q 1259 2794 1537 2939
Q 1816 3084 2150 3084
Q 2853 3084 3261 2657
Q 3669 2231 3669 1497
Q 3669 778 3244 343
Q 2819 -91 2113 -91
Q 1303 -91 875 529
Q 447 1150 447 2328
Q 447 3434 972 4092
Q 1497 4750 2381 4750
Q 2619 4750 2861 4703
Q 3103 4656 3366 4563
z
" transform="scale(0.015625)"/>
       </defs>
       <use xlink:href="#DejaVuSans-32"/>
       <use xlink:href="#DejaVuSans-30" x="63.623047"/>
       <use xlink:href="#DejaVuSans-31" x="127.246094"/>
       <use xlink:href="#DejaVuSans-36" x="190.869141"/>
      </g>
     </g>
    </g>
    <g id="xtick_3">
     <g id="line2d_3">
      <g>
       <use xlink:href="#med8fdb2595" x="105.306011" y="46.008" style="stroke: #000000; stroke-width: 0.8"/>
      </g>
     </g>
     <g id="text_3">
      <!-- 2017 -->
      <g transform="translate(105.306011 57.567062) scale(0.06 -0.06)">
       <defs>
        <path id="DejaVuSans-37" d="M 525 4666
L 3525 4666
L 3525 4397
L 1831 0
L 1172 0
L 2766 4134
L 525 4134
L 525 4666
z
" transform="scale(0.015625)"/>
       </defs>
       <use xlink:href="#DejaVuSans-32"/>
       <use xlink:href="#DejaVuSans-30" x="63.623047"/>
       <use xlink:href="#DejaVuSans-31" x="127.246094"/>
       <use xlink:href="#DejaVuSans-37" x="190.869141"/>
      </g>
     </g>
    </g>
    <g id="xtick_4">
     <g id="line2d_4">
      <g>
       <use xlink:href="#med8fdb2595" x="140.169072" y="46.008" style="stroke: #000000; stroke-width: 0.8"/>
      </g>
     </g>
     <g id="text_4">
      <!-- 2018 -->
      <g transform="translate(140.169072 57.567062) scale(0.06 -0.06)">
       <defs>
        <path id="DejaVuSans-38" d="M 2034 2216
Q 1584 2216 1326 1975
Q 1069 1734 1069 1313
Q 1069 891 1326 650
Q 1584 409 2034 409
Q 2484 409 2743 651
Q 3003 894 3003 1313
Q 3003 1734 2745 1975
Q 2488 2216 2034 2216
z
M 1403 2484
Q 997 2584 770 2862
Q 544 3141 544 3541
Q 544 4100 942 4425
Q 1341 4750 2034 4750
Q 2731 4750 3128 4425
Q 3525 4100 3525 3541
Q 3525 3141 3298 2862
Q 3072 2584 2669 2484
Q 3125 2378 3379 2068
Q 3634 1759 3634 1313
Q 3634 634 3220 271
Q 2806 -91 2034 -91
Q 1263 -91 848 271
Q 434 634 434 1313
Q 434 1759 690 2068
Q 947 2378 1403 2484
z
M 1172 3481
Q 1172 3119 1398 2916
Q 1625 2713 2034 2713
Q 2441 2713 2670 2916
Q 2900 3119 2900 3481
Q 2900 3844 2670 4047
Q 2441 4250 2034 4250
Q 1625 4250 1398 4047
Q 1172 3844 1172 3481
z
" transform="scale(0.015625)"/>
       </defs>
       <use xlink:href="#DejaVuSans-32"/>
       <use xlink:href="#DejaVuSans-30" x="63.623047"/>
       <use xlink:href="#DejaVuSans-31" x="127.246094"/>
       <use xlink:href="#DejaVuSans-38" x="190.869141"/>
      </g>
     </g>
    </g>
    <g id="xtick_5">
     <g id="line2d_5">
      <g>
       <use xlink:href="#med8fdb2595" x="175.032133" y="46.008" style="stroke: #000000; stroke-width: 0.8"/>
      </g>
     </g>
     <g id="text_5">
      <!-- 2019 -->
      <g transform="translate(175.032133 57.567062) scale(0.06 -0.06)">
       <defs>
        <path id="DejaVuSans-39" d="M 703 97
L 703 672
Q 941 559 1184 500
Q 1428 441 1663 441
Q 2288 441 2617 861
Q 2947 1281 2994 2138
Q 2813 1869 2534 1725
Q 2256 1581 1919 1581
Q 1219 1581 811 2004
Q 403 2428 403 3163
Q 403 3881 828 4315
Q 1253 4750 1959 4750
Q 2769 4750 3195 4129
Q 3622 3509 3622 2328
Q 3622 1225 3098 567
Q 2575 -91 1691 -91
Q 1453 -91 1209 -44
Q 966 3 703 97
z
M 1959 2075
Q 2384 2075 2632 2365
Q 2881 2656 2881 3163
Q 2881 3666 2632 3958
Q 2384 4250 1959 4250
Q 1534 4250 1286 3958
Q 1038 3666 1038 3163
Q 1038 2656 1286 2365
Q 1534 2075 1959 2075
z
" transform="scale(0.015625)"/>
       </defs>
       <use xlink:href="#DejaVuSans-32"/>
       <use xlink:href="#DejaVuSans-30" x="63.623047"/>
       <use xlink:href="#DejaVuSans-31" x="127.246094"/>
       <use xlink:href="#DejaVuSans-39" x="190.869141"/>
      </g>
     </g>
    </g>
    <g id="xtick_6">
     <g id="line2d_6">
      <g>
       <use xlink:href="#med8fdb2595" x="209.895193" y="46.008" style="stroke: #000000; stroke-width: 0.8"/>
      </g>
     </g>
     <g id="text_6">
      <!-- 2020 -->
      <g transform="translate(209.895193 57.567062) scale(0.06 -0.06)">
       <use xlink:href="#DejaVuSans-32"/>
       <use xlink:href="#DejaVuSans-30" x="63.623047"/>
       <use xlink:href="#DejaVuSans-32" x="127.246094"/>
       <use xlink:href="#DejaVuSans-30" x="190.869141"/>
      </g>
     </g>
    </g>
    <g id="xtick_7">
     <g id="line2d_7">
      <g>
       <use xlink:href="#med8fdb2595" x="244.853769" y="46.008" style="stroke: #000000; stroke-width: 0.8"/>
      </g>
     </g>
     <g id="text_7">
      <!-- 2021 -->
      <g transform="translate(244.853769 57.567062) scale(0.06 -0.06)">
       <use xlink:href="#DejaVuSans-32"/>
       <use xlink:href="#DejaVuSans-30" x="63.623047"/>
       <use xlink:href="#DejaVuSans-32" x="127.246094"/>
       <use xlink:href="#DejaVuSans-31" x="190.869141"/>
      </g>
     </g>
    </g>
    <g id="xtick_8">
     <g id="line2d_8">
      <g>
       <use xlink:href="#med8fdb2595" x="279.71683" y="46.008" style="stroke: #000000; stroke-width: 0.8"/>
      </g>
     </g>
     <g id="text_8">
      <!-- 2022 -->
      <g transform="translate(279.71683 57.567062) scale(0.06 -0.06)">
       <use xlink:href="#DejaVuSans-32"/>
       <use xlink:href="#DejaVuSans-30" x="63.623047"/>
       <use xlink:href="#DejaVuSans-32" x="127.246094"/>
       <use xlink:href="#DejaVuSans-32" x="190.869141"/>
      </g>
     </g>
    </g>
    <g id="xtick_9">
     <g id="line2d_9">
      <g>
       <use xlink:href="#med8fdb2595" x="314.484375" y="46.008" style="stroke: #000000; stroke-width: 0.8"/>
      </g>
     </g>
    </g>
    <g id="xtick_10">
     <g id="line2d_10">
      <defs>
       <path id="m78e04b62ea" d="M 0 0
L 0 2
" style="stroke: #000000; stroke-width: 0.6"/>
      </defs>
      <g>
       <use xlink:href="#m78e04b62ea" x="44.080746" y="46.008" style="stroke: #000000; stroke-width: 0.6"/>
      </g>
     </g>
    </g>
    <g id="xtick_11">
     <g id="line2d_11">
      <g>
       <use xlink:href="#m78e04b62ea" x="52.772632" y="46.008" style="stroke: #000000; stroke-width: 0.6"/>
      </g>
     </g>
    </g>
    <g id="xtick_12">
     <g id="line2d_12">
      <g>
       <use xlink:href="#m78e04b62ea" x="61.560034" y="46.008" style="stroke: #000000; stroke-width: 0.6"/>
      </g>
     </g>
    </g>
    <g id="xtick_13">
     <g id="line2d_13">
      <g>
       <use xlink:href="#m78e04b62ea" x="79.039322" y="46.008" style="stroke: #000000; stroke-width: 0.6"/>
      </g>
     </g>
    </g>
    <g id="xtick_14">
     <g id="line2d_14">
      <g>
       <use xlink:href="#m78e04b62ea" x="87.731208" y="46.008" style="stroke: #000000; stroke-width: 0.6"/>
      </g>
     </g>
    </g>
    <g id="xtick_15">
     <g id="line2d_15">
      <g>
       <use xlink:href="#m78e04b62ea" x="96.51861" y="46.008" style="stroke: #000000; stroke-width: 0.6"/>
      </g>
     </g>
    </g>
    <g id="xtick_16">
     <g id="line2d_16">
      <g>
       <use xlink:href="#m78e04b62ea" x="113.902383" y="46.008" style="stroke: #000000; stroke-width: 0.6"/>
      </g>
     </g>
    </g>
    <g id="xtick_17">
     <g id="line2d_17">
      <g>
       <use xlink:href="#m78e04b62ea" x="122.594269" y="46.008" style="stroke: #000000; stroke-width: 0.6"/>
      </g>
     </g>
    </g>
    <g id="xtick_18">
     <g id="line2d_18">
      <g>
       <use xlink:href="#m78e04b62ea" x="131.38167" y="46.008" style="stroke: #000000; stroke-width: 0.6"/>
      </g>
     </g>
    </g>
    <g id="xtick_19">
     <g id="line2d_19">
      <g>
       <use xlink:href="#m78e04b62ea" x="148.765443" y="46.008" style="stroke: #000000; stroke-width: 0.6"/>
      </g>
     </g>
    </g>
    <g id="xtick_20">
     <g id="line2d_20">
      <g>
       <use xlink:href="#m78e04b62ea" x="157.457329" y="46.008" style="stroke: #000000; stroke-width: 0.6"/>
      </g>
     </g>
    </g>
    <g id="xtick_21">
     <g id="line2d_21">
      <g>
       <use xlink:href="#m78e04b62ea" x="166.244731" y="46.008" style="stroke: #000000; stroke-width: 0.6"/>
      </g>
     </g>
    </g>
    <g id="xtick_22">
     <g id="line2d_22">
      <g>
       <use xlink:href="#m78e04b62ea" x="183.628504" y="46.008" style="stroke: #000000; stroke-width: 0.6"/>
      </g>
     </g>
    </g>
    <g id="xtick_23">
     <g id="line2d_23">
      <g>
       <use xlink:href="#m78e04b62ea" x="192.32039" y="46.008" style="stroke: #000000; stroke-width: 0.6"/>
      </g>
     </g>
    </g>
    <g id="xtick_24">
     <g id="line2d_24">
      <g>
       <use xlink:href="#m78e04b62ea" x="201.107792" y="46.008" style="stroke: #000000; stroke-width: 0.6"/>
      </g>
     </g>
    </g>
    <g id="xtick_25">
     <g id="line2d_25">
      <g>
       <use xlink:href="#m78e04b62ea" x="218.58708" y="46.008" style="stroke: #000000; stroke-width: 0.6"/>
      </g>
     </g>
    </g>
    <g id="xtick_26">
     <g id="line2d_26">
      <g>
       <use xlink:href="#m78e04b62ea" x="227.278966" y="46.008" style="stroke: #000000; stroke-width: 0.6"/>
      </g>
     </g>
    </g>
    <g id="xtick_27">
     <g id="line2d_27">
      <g>
       <use xlink:href="#m78e04b62ea" x="236.066367" y="46.008" style="stroke: #000000; stroke-width: 0.6"/>
      </g>
     </g>
    </g>
    <g id="xtick_28">
     <g id="line2d_28">
      <g>
       <use xlink:href="#m78e04b62ea" x="253.45014" y="46.008" style="stroke: #000000; stroke-width: 0.6"/>
      </g>
     </g>
    </g>
    <g id="xtick_29">
     <g id="line2d_29">
      <g>
       <use xlink:href="#m78e04b62ea" x="262.142026" y="46.008" style="stroke: #000000; stroke-width: 0.6"/>
      </g>
     </g>
    </g>
    <g id="xtick_30">
     <g id="line2d_30">
      <g>
       <use xlink:href="#m78e04b62ea" x="270.929428" y="46.008" style="stroke: #000000; stroke-width: 0.6"/>
      </g>
     </g>
    </g>
    <g id="xtick_31">
     <g id="line2d_31">
      <g>
       <use xlink:href="#m78e04b62ea" x="288.313201" y="46.008" style="stroke: #000000; stroke-width: 0.6"/>
      </g>
     </g>
    </g>
    <g id="xtick_32">
     <g id="line2d_32">
      <g>
       <use xlink:href="#m78e04b62ea" x="297.005087" y="46.008" style="stroke: #000000; stroke-width: 0.6"/>
      </g>
     </g>
    </g>
    <g id="xtick_33">
     <g id="line2d_33">
      <g>
       <use xlink:href="#m78e04b62ea" x="305.792489" y="46.008" style="stroke: #000000; stroke-width: 0.6"/>
      </g>
     </g>
    </g>
   </g>
   <g id="matplotlib.axis_2">
    <g id="ytick_1">
     <g id="line2d_34">
      <defs>
       <path id="me2b572e9fb" d="M 0 0
L -3.5 0
" style="stroke: #000000; stroke-width: 0.8"/>
      </defs>
      <g>
       <use xlink:href="#me2b572e9fb" x="35.484375" y="44.244" style="stroke: #000000; stroke-width: 0.8"/>
      </g>
     </g>
     <g id="text_9">
      <!-- 0.0 -->
      <g transform="translate(18.9425 46.523531) scale(0.06 -0.06)">
       <defs>
        <path id="DejaVuSans-2e" d="M 684 794
L 1344 794
L 1344 0
L 684 0
L 684 794
z
" transform="scale(0.015625)"/>
       </defs>
       <use xlink:href="#DejaVuSans-30"/>
       <use xlink:href="#DejaVuSans-2e" x="63.623047"/>
       <use xlink:href="#DejaVuSans-30" x="95.410156"/>
      </g>
     </g>
    </g>
    <g id="ytick_2">
     <g id="line2d_35">
      <g>
       <use xlink:href="#me2b572e9fb" x="35.484375" y="23.890154" style="stroke: #000000; stroke-width: 0.8"/>
      </g>
     </g>
     <g id="text_10">
      <!-- 0.5 -->
      <g transform="translate(18.9425 26.169685) scale(0.06 -0.06)">
       <use xlink:href="#DejaVuSans-30"/>
       <use xlink:href="#DejaVuSans-2e" x="63.623047"/>
       <use xlink:href="#DejaVuSans-35" x="95.410156"/>
      </g>
     </g>
    </g>
    <g id="text_11">
     <!-- #articles/day -->
     <g transform="translate(13.27875 53.292125) rotate(-90) scale(0.08 -0.08)">
      <defs>
       <path id="DejaVuSans-23" d="M 3272 2816
L 2363 2816
L 2100 1772
L 3016 1772
L 3272 2816
z
M 2803 4594
L 2478 3297
L 3391 3297
L 3719 4594
L 4219 4594
L 3897 3297
L 4872 3297
L 4872 2816
L 3775 2816
L 3519 1772
L 4513 1772
L 4513 1294
L 3397 1294
L 3072 0
L 2572 0
L 2894 1294
L 1978 1294
L 1656 0
L 1153 0
L 1478 1294
L 494 1294
L 494 1772
L 1594 1772
L 1856 2816
L 850 2816
L 850 3297
L 1978 3297
L 2297 4594
L 2803 4594
z
" transform="scale(0.015625)"/>
       <path id="DejaVuSans-61" d="M 2194 1759
Q 1497 1759 1228 1600
Q 959 1441 959 1056
Q 959 750 1161 570
Q 1363 391 1709 391
Q 2188 391 2477 730
Q 2766 1069 2766 1631
L 2766 1759
L 2194 1759
z
M 3341 1997
L 3341 0
L 2766 0
L 2766 531
Q 2569 213 2275 61
Q 1981 -91 1556 -91
Q 1019 -91 701 211
Q 384 513 384 1019
Q 384 1609 779 1909
Q 1175 2209 1959 2209
L 2766 2209
L 2766 2266
Q 2766 2663 2505 2880
Q 2244 3097 1772 3097
Q 1472 3097 1187 3025
Q 903 2953 641 2809
L 641 3341
Q 956 3463 1253 3523
Q 1550 3584 1831 3584
Q 2591 3584 2966 3190
Q 3341 2797 3341 1997
z
" transform="scale(0.015625)"/>
       <path id="DejaVuSans-72" d="M 2631 2963
Q 2534 3019 2420 3045
Q 2306 3072 2169 3072
Q 1681 3072 1420 2755
Q 1159 2438 1159 1844
L 1159 0
L 581 0
L 581 3500
L 1159 3500
L 1159 2956
Q 1341 3275 1631 3429
Q 1922 3584 2338 3584
Q 2397 3584 2469 3576
Q 2541 3569 2628 3553
L 2631 2963
z
" transform="scale(0.015625)"/>
       <path id="DejaVuSans-74" d="M 1172 4494
L 1172 3500
L 2356 3500
L 2356 3053
L 1172 3053
L 1172 1153
Q 1172 725 1289 603
Q 1406 481 1766 481
L 2356 481
L 2356 0
L 1766 0
Q 1100 0 847 248
Q 594 497 594 1153
L 594 3053
L 172 3053
L 172 3500
L 594 3500
L 594 4494
L 1172 4494
z
" transform="scale(0.015625)"/>
       <path id="DejaVuSans-69" d="M 603 3500
L 1178 3500
L 1178 0
L 603 0
L 603 3500
z
M 603 4863
L 1178 4863
L 1178 4134
L 603 4134
L 603 4863
z
" transform="scale(0.015625)"/>
       <path id="DejaVuSans-63" d="M 3122 3366
L 3122 2828
Q 2878 2963 2633 3030
Q 2388 3097 2138 3097
Q 1578 3097 1268 2742
Q 959 2388 959 1747
Q 959 1106 1268 751
Q 1578 397 2138 397
Q 2388 397 2633 464
Q 2878 531 3122 666
L 3122 134
Q 2881 22 2623 -34
Q 2366 -91 2075 -91
Q 1284 -91 818 406
Q 353 903 353 1747
Q 353 2603 823 3093
Q 1294 3584 2113 3584
Q 2378 3584 2631 3529
Q 2884 3475 3122 3366
z
" transform="scale(0.015625)"/>
       <path id="DejaVuSans-6c" d="M 603 4863
L 1178 4863
L 1178 0
L 603 0
L 603 4863
z
" transform="scale(0.015625)"/>
       <path id="DejaVuSans-65" d="M 3597 1894
L 3597 1613
L 953 1613
Q 991 1019 1311 708
Q 1631 397 2203 397
Q 2534 397 2845 478
Q 3156 559 3463 722
L 3463 178
Q 3153 47 2828 -22
Q 2503 -91 2169 -91
Q 1331 -91 842 396
Q 353 884 353 1716
Q 353 2575 817 3079
Q 1281 3584 2069 3584
Q 2775 3584 3186 3129
Q 3597 2675 3597 1894
z
M 3022 2063
Q 3016 2534 2758 2815
Q 2500 3097 2075 3097
Q 1594 3097 1305 2825
Q 1016 2553 972 2059
L 3022 2063
z
" transform="scale(0.015625)"/>
       <path id="DejaVuSans-73" d="M 2834 3397
L 2834 2853
Q 2591 2978 2328 3040
Q 2066 3103 1784 3103
Q 1356 3103 1142 2972
Q 928 2841 928 2578
Q 928 2378 1081 2264
Q 1234 2150 1697 2047
L 1894 2003
Q 2506 1872 2764 1633
Q 3022 1394 3022 966
Q 3022 478 2636 193
Q 2250 -91 1575 -91
Q 1294 -91 989 -36
Q 684 19 347 128
L 347 722
Q 666 556 975 473
Q 1284 391 1588 391
Q 1994 391 2212 530
Q 2431 669 2431 922
Q 2431 1156 2273 1281
Q 2116 1406 1581 1522
L 1381 1569
Q 847 1681 609 1914
Q 372 2147 372 2553
Q 372 3047 722 3315
Q 1072 3584 1716 3584
Q 2034 3584 2315 3537
Q 2597 3491 2834 3397
z
" transform="scale(0.015625)"/>
       <path id="DejaVuSans-2f" d="M 1625 4666
L 2156 4666
L 531 -594
L 0 -594
L 1625 4666
z
" transform="scale(0.015625)"/>
       <path id="DejaVuSans-64" d="M 2906 2969
L 2906 4863
L 3481 4863
L 3481 0
L 2906 0
L 2906 525
Q 2725 213 2448 61
Q 2172 -91 1784 -91
Q 1150 -91 751 415
Q 353 922 353 1747
Q 353 2572 751 3078
Q 1150 3584 1784 3584
Q 2172 3584 2448 3432
Q 2725 3281 2906 2969
z
M 947 1747
Q 947 1113 1208 752
Q 1469 391 1925 391
Q 2381 391 2643 752
Q 2906 1113 2906 1747
Q 2906 2381 2643 2742
Q 2381 3103 1925 3103
Q 1469 3103 1208 2742
Q 947 2381 947 1747
z
" transform="scale(0.015625)"/>
       <path id="DejaVuSans-79" d="M 2059 -325
Q 1816 -950 1584 -1140
Q 1353 -1331 966 -1331
L 506 -1331
L 506 -850
L 844 -850
Q 1081 -850 1212 -737
Q 1344 -625 1503 -206
L 1606 56
L 191 3500
L 800 3500
L 1894 763
L 2988 3500
L 3597 3500
L 2059 -325
z
" transform="scale(0.015625)"/>
      </defs>
      <use xlink:href="#DejaVuSans-23"/>
      <use xlink:href="#DejaVuSans-61" x="83.789062"/>
      <use xlink:href="#DejaVuSans-72" x="145.068359"/>
      <use xlink:href="#DejaVuSans-74" x="186.181641"/>
      <use xlink:href="#DejaVuSans-69" x="225.390625"/>
      <use xlink:href="#DejaVuSans-63" x="253.173828"/>
      <use xlink:href="#DejaVuSans-6c" x="308.154297"/>
      <use xlink:href="#DejaVuSans-65" x="335.9375"/>
      <use xlink:href="#DejaVuSans-73" x="397.460938"/>
      <use xlink:href="#DejaVuSans-2f" x="449.560547"/>
      <use xlink:href="#DejaVuSans-64" x="483.251953"/>
      <use xlink:href="#DejaVuSans-61" x="546.728516"/>
      <use xlink:href="#DejaVuSans-79" x="608.007812"/>
     </g>
    </g>
   </g>
   <g id="line2d_36">
    <path d="M 35.484375 41.530154
L 35.770921 41.530154
L 35.961951 41.077846
L 36.439527 41.077846
L 36.630558 40.173231
L 37.299164 37.459385
L 37.490195 37.459385
L 37.776741 36.554769
L 38.158802 36.554769
L 38.349832 36.102462
L 38.445347 36.102462
L 38.636378 35.650154
L 38.922923 35.650154
L 39.113954 35.197846
L 39.496015 35.197846
L 39.687045 34.745538
L 40.164621 34.745538
L 40.355652 35.197846
L 40.833228 35.197846
L 41.024259 34.745538
L 41.310804 34.745538
L 41.59735 33.840923
L 41.692865 33.840923
L 41.78838 33.388615
L 41.979411 33.840923
L 42.170441 33.388615
L 42.361472 33.388615
L 42.552502 34.293231
L 42.743533 33.840923
L 43.221109 33.840923
L 43.507655 32.936308
L 44.271777 32.936308
L 44.462807 32.484
L 45.035898 32.484
L 45.704505 35.650154
L 45.895536 35.197846
L 46.086566 35.197846
L 46.468627 36.554769
L 46.659657 36.554769
L 46.755173 35.650154
L 46.946203 36.102462
L 47.041718 35.650154
L 47.232749 36.102462
L 47.519295 36.102462
L 47.61481 36.554769
L 47.80584 35.650154
L 48.092386 35.650154
L 48.283416 36.102462
L 48.474447 36.102462
L 48.665477 35.650154
L 49.429599 35.650154
L 49.62063 36.102462
L 49.907175 36.102462
L 50.193721 37.007077
L 50.289236 37.007077
L 50.480267 37.459385
L 50.575782 37.459385
L 50.671297 37.911692
L 50.862328 37.459385
L 51.148873 37.459385
L 51.339904 37.911692
L 51.530934 37.911692
L 51.721965 38.364
L 51.81748 38.364
L 52.104026 39.268615
L 52.295056 39.268615
L 52.486087 38.816308
L 52.868148 38.816308
L 53.059178 39.720923
L 53.250209 39.268615
L 53.345724 39.268615
L 53.536754 38.816308
L 53.63227 38.816308
L 53.8233 39.268615
L 54.205361 39.268615
L 54.300876 38.816308
L 54.491907 39.268615
L 54.682937 39.268615
L 54.969483 38.364
L 55.256029 38.364
L 55.447059 39.268615
L 55.542574 39.268615
L 55.733605 39.720923
L 55.924635 39.268615
L 56.211181 39.268615
L 56.402211 40.173231
L 57.070818 40.173231
L 57.166333 40.625538
L 57.357364 40.173231
L 57.83494 40.173231
L 58.121486 39.268615
L 58.885607 39.268615
L 59.172153 38.364
L 59.267668 38.364
L 59.458699 38.816308
L 59.649729 38.816308
L 59.936275 37.911692
L 60.891427 37.911692
L 61.082458 38.364
L 61.369004 38.364
L 61.560034 37.911692
L 61.655549 37.911692
L 61.84658 38.364
L 61.942095 38.364
L 62.133125 38.816308
L 62.419671 38.816308
L 62.610702 37.911692
L 62.801732 37.911692
L 62.897247 38.364
L 63.088278 37.911692
L 63.279308 37.911692
L 63.374823 38.364
L 63.470339 37.911692
L 63.565854 38.364
L 63.8524 37.459385
L 64.04343 37.459385
L 64.234461 37.007077
L 64.329976 37.007077
L 64.521006 37.459385
L 64.616522 37.459385
L 64.807552 37.007077
L 66.335796 37.007077
L 66.431311 36.554769
L 66.717857 37.459385
L 67.290948 37.459385
L 67.481979 37.007077
L 67.768524 37.911692
L 68.2461 37.911692
L 68.437131 38.364
L 69.392283 38.364
L 69.583314 37.911692
L 69.965375 37.911692
L 70.156405 38.364
L 70.347436 38.364
L 70.538466 37.911692
L 70.633981 37.911692
L 70.920527 37.007077
L 71.016042 37.007077
L 71.207073 37.459385
L 71.493618 37.459385
L 71.684649 37.911692
L 72.162225 37.911692
L 72.448771 38.816308
L 72.544286 38.816308
L 72.735316 38.364
L 72.830832 38.364
L 73.212893 37.007077
L 73.308408 37.459385
L 73.785984 35.650154
L 74.07253 35.650154
L 74.26356 35.197846
L 74.932167 35.197846
L 75.123197 35.650154
L 75.887319 35.650154
L 76.07835 36.102462
L 76.26938 35.650154
L 76.651441 35.650154
L 76.937987 34.745538
L 77.033502 35.197846
L 77.224532 34.745538
L 77.415563 34.745538
L 77.606593 34.293231
L 77.988654 34.293231
L 78.179685 34.745538
L 78.2752 34.745538
L 78.466231 34.293231
L 78.943807 34.293231
L 79.134837 34.745538
L 79.230352 34.745538
L 79.421383 35.197846
L 79.516898 35.197846
L 79.612413 34.745538
L 79.803444 35.197846
L 80.08999 35.197846
L 80.28102 34.745538
L 80.567566 34.745538
L 80.758596 35.197846
L 80.949627 34.745538
L 81.140657 34.745538
L 81.522718 36.102462
L 81.618233 36.102462
L 82.28684 38.816308
L 82.668901 38.816308
L 82.859931 39.268615
L 82.955447 39.268615
L 83.146477 39.720923
L 83.241992 39.720923
L 83.433023 39.268615
L 83.910599 39.268615
L 84.101629 38.816308
L 84.388175 38.816308
L 84.579206 38.364
L 84.674721 38.364
L 84.865751 38.816308
L 85.247812 38.816308
L 85.534358 39.720923
L 85.629873 39.720923
L 85.820904 40.173231
L 86.011934 39.720923
L 86.107449 40.173231
L 86.29848 39.268615
L 86.393995 39.268615
L 86.680541 38.364
L 86.871571 38.364
L 87.062602 38.816308
L 87.540178 38.816308
L 87.731208 38.364
L 88.017754 38.364
L 88.3043 39.268615
L 88.686361 39.268615
L 88.877391 39.720923
L 89.068422 39.720923
L 89.259452 39.268615
L 89.354967 39.268615
L 89.545998 39.720923
L 90.023574 39.720923
L 90.214604 39.268615
L 90.405635 39.268615
L 90.596665 38.816308
L 91.074241 38.816308
L 91.265272 38.364
L 91.551818 38.364
L 91.742848 37.911692
L 91.838363 37.911692
L 91.933879 38.364
L 92.124909 37.911692
L 92.50697 37.911692
L 92.698 38.364
L 92.984546 38.364
L 93.175577 38.816308
L 94.417275 38.816308
L 94.608305 39.268615
L 94.70382 39.268615
L 94.894851 40.173231
L 94.990366 40.173231
L 95.276912 41.077846
L 96.041034 41.077846
L 96.232064 40.625538
L 97.378247 40.625538
L 97.569277 40.173231
L 97.664793 40.173231
L 97.855823 40.625538
L 98.142369 40.625538
L 98.333399 40.173231
L 98.619945 40.173231
L 98.810975 40.625538
L 99.002006 40.625538
L 99.193036 41.077846
L 99.670613 41.077846
L 99.861643 41.530154
L 100.148189 41.530154
L 100.243704 41.982462
L 100.434734 41.530154
L 100.53025 41.530154
L 100.72128 41.982462
L 101.198856 41.982462
L 101.389887 41.530154
L 102.7271 41.530154
L 102.918131 40.625538
L 103.968798 40.625538
L 104.159829 40.173231
L 104.637405 40.173231
L 104.828435 40.625538
L 105.019466 40.625538
L 105.210496 40.173231
L 105.974618 40.173231
L 106.070133 40.625538
L 106.356679 39.720923
L 106.73874 39.720923
L 106.92977 40.173231
L 107.407347 40.173231
L 107.693892 39.268615
L 107.789408 39.268615
L 108.075953 38.364
L 108.649045 38.364
L 108.840075 37.007077
L 109.031106 37.459385
L 109.222136 37.007077
L 109.508682 37.007077
L 109.699712 36.554769
L 109.890743 36.554769
L 110.272804 35.197846
L 110.845895 35.197846
L 111.132441 34.293231
L 111.227956 34.293231
L 111.323471 33.840923
L 111.418986 34.293231
L 111.705532 33.388615
L 112.183108 33.388615
L 112.374139 32.936308
L 112.469654 32.936308
L 112.660684 32.484
L 112.7562 32.484
L 112.94723 31.579385
L 113.233776 31.579385
L 113.329291 31.127077
L 113.520322 31.579385
L 113.615837 31.127077
L 113.711352 31.579385
L 114.284443 29.317846
L 114.570989 29.317846
L 114.857535 28.413231
L 115.621657 28.413231
L 115.812687 27.508615
L 116.003718 27.056308
L 116.099233 27.508615
L 116.290263 26.151692
L 116.385779 26.151692
L 116.481294 26.604
L 116.576809 26.151692
L 116.672324 26.604
L 116.95887 25.699385
L 117.245416 25.699385
L 117.436446 27.056308
L 118.105053 27.056308
L 118.296083 27.508615
L 118.487114 27.508615
L 118.678144 26.604
L 118.773659 27.056308
L 118.96469 24.794769
L 119.15572 22.985538
L 119.346751 21.628615
L 119.442266 21.628615
L 119.728812 22.533231
L 119.824327 22.533231
L 120.301903 24.342462
L 120.492934 24.342462
L 120.779479 23.437846
L 120.97051 23.890154
L 121.352571 23.890154
L 121.543601 24.794769
L 121.830147 24.794769
L 122.021177 25.247077
L 122.116693 25.247077
L 122.403238 26.151692
L 122.594269 26.151692
L 122.689784 27.056308
L 122.785299 26.604
L 122.880815 27.056308
L 123.071845 26.604
L 123.16736 26.604
L 123.453906 28.413231
L 123.549421 27.960923
L 124.218028 27.960923
L 124.409058 28.865538
L 124.600089 29.317846
L 124.695604 28.413231
L 124.886635 29.770154
L 125.077665 29.770154
L 125.364211 30.674769
L 125.841787 30.674769
L 126.128333 29.770154
L 126.319363 29.770154
L 126.892454 27.508615
L 126.98797 27.508615
L 127.179 28.865538
L 127.274515 28.413231
L 127.370031 27.508615
L 127.656576 28.413231
L 127.752092 28.413231
L 127.847607 29.317846
L 128.038637 27.508615
L 128.229668 27.508615
L 128.707244 25.699385
L 129.089305 25.699385
L 129.280335 26.604
L 129.471366 25.247077
L 129.566881 25.247077
L 129.662396 24.794769
L 129.948942 25.699385
L 130.235488 25.699385
L 130.617549 24.342462
L 130.904094 24.342462
L 131.19064 23.437846
L 131.286155 23.437846
L 131.572701 24.342462
L 131.668216 24.342462
L 132.909914 18.914769
L 133.19646 18.914769
L 133.291975 19.819385
L 133.483006 18.914769
L 133.769551 18.010154
L 133.960582 18.010154
L 134.151612 17.557846
L 135.011249 17.557846
L 135.297795 18.462462
L 135.584341 17.557846
L 135.679856 17.557846
L 135.966402 19.367077
L 136.635008 25.247077
L 136.826039 24.794769
L 137.017069 25.247077
L 137.2081 25.247077
L 137.303615 25.699385
L 137.494645 25.247077
L 137.685676 25.247077
L 137.876706 24.342462
L 137.972222 25.247077
L 138.163252 24.794769
L 138.258767 25.247077
L 138.449798 24.342462
L 139.022889 21.628615
L 139.21392 22.080923
L 139.595981 22.080923
L 139.691496 21.628615
L 139.882526 22.533231
L 140.073557 22.533231
L 140.264587 21.176308
L 140.360102 21.628615
L 140.551133 21.176308
L 140.837679 22.080923
L 140.933194 21.628615
L 141.315255 22.985538
L 141.41077 22.533231
L 141.506285 22.985538
L 141.697316 22.080923
L 141.983861 22.080923
L 142.270407 23.437846
L 142.461438 22.985538
L 142.556953 22.985538
L 142.843499 22.080923
L 142.939014 22.080923
L 143.798651 18.462462
L 144.180712 19.819385
L 144.276227 19.819385
L 144.467258 19.367077
L 144.944834 19.367077
L 145.231379 18.462462
L 145.326895 18.914769
L 145.61344 17.557846
L 145.804471 18.462462
L 146.377562 16.200923
L 146.568593 16.653231
L 146.855138 15.296308
L 147.046169 16.200923
L 147.332715 17.105538
L 147.42823 17.105538
L 147.523745 16.200923
L 147.61926 16.653231
L 147.714776 16.200923
L 147.905806 16.653231
L 148.192352 16.653231
L 148.383382 17.105538
L 148.669928 17.105538
L 148.860958 18.462462
L 148.956474 18.010154
L 149.338535 19.819385
L 149.43405 19.367077
L 149.62508 20.271692
L 149.816111 20.271692
L 150.007141 20.724
L 150.102656 20.724
L 150.293687 21.628615
L 150.484717 21.628615
L 150.580233 22.533231
L 150.866778 21.176308
L 150.962294 21.628615
L 151.153324 21.176308
L 151.344354 22.533231
L 151.535385 22.985538
L 151.6309 22.985538
L 151.726415 22.533231
L 152.203992 26.151692
L 152.299507 26.151692
L 152.490537 24.794769
L 152.586053 24.794769
L 152.777083 23.890154
L 152.872598 23.437846
L 153.063629 23.890154
L 153.350174 23.890154
L 153.732235 20.724
L 153.827751 20.724
L 153.923266 20.271692
L 154.209811 21.628615
L 154.400842 20.724
L 154.496357 20.724
L 154.687388 21.628615
L 154.973933 22.533231
L 155.069449 22.533231
L 155.45151 23.890154
L 155.547025 23.890154
L 155.738055 23.437846
L 155.929086 24.342462
L 156.024601 24.794769
L 156.215631 26.151692
L 156.406662 26.604
L 156.502177 26.604
L 156.693208 26.151692
L 157.170784 26.151692
L 157.457329 25.247077
L 157.64836 25.699385
L 157.934906 24.794769
L 158.125936 25.247077
L 158.221451 25.247077
L 158.507997 24.342462
L 158.603512 24.794769
L 158.794543 22.985538
L 159.176604 21.628615
L 159.65418 23.437846
L 159.749695 23.437846
L 160.131756 20.724
L 160.322787 21.176308
L 160.609332 20.271692
L 160.800363 21.176308
L 160.895878 21.176308
L 160.991393 21.628615
L 161.182424 21.176308
L 161.468969 22.985538
L 161.946545 20.271692
L 162.424122 23.890154
L 162.615152 24.342462
L 162.806183 24.342462
L 162.901698 25.247077
L 162.997213 24.794769
L 163.092728 25.247077
L 163.283759 24.794769
L 163.379274 24.794769
L 163.570304 25.699385
L 163.761335 25.247077
L 164.047881 26.151692
L 164.143396 26.151692
L 164.238911 26.604
L 164.620972 25.247077
L 165.003033 25.247077
L 165.098548 24.342462
L 165.289579 24.794769
L 165.576124 24.794769
L 165.767155 23.437846
L 165.86267 23.890154
L 166.053701 23.890154
L 166.244731 23.437846
L 166.340246 23.437846
L 166.531277 22.985538
L 166.626792 22.985538
L 166.913338 22.080923
L 167.008853 22.533231
L 167.199883 21.628615
L 167.390914 22.985538
L 167.581944 22.985538
L 167.772975 23.437846
L 168.346066 20.271692
L 168.537097 21.628615
L 168.632612 21.628615
L 168.823642 22.080923
L 168.919158 22.080923
L 169.110188 22.985538
L 169.492249 21.628615
L 169.778795 22.985538
L 170.06534 22.080923
L 170.351886 22.985538
L 170.447401 22.533231
L 170.638432 23.437846
L 170.733947 23.437846
L 170.829462 23.890154
L 171.211523 22.533231
L 171.498069 22.533231
L 171.784615 23.437846
L 172.07116 23.437846
L 172.166676 22.985538
L 172.357706 23.437846
L 172.835282 21.176308
L 172.930797 21.628615
L 173.121828 21.176308
L 173.217343 21.628615
L 173.599404 20.271692
L 173.694919 21.176308
L 173.88595 19.819385
L 173.981465 20.271692
L 174.172496 19.367077
L 174.554556 20.724
L 174.650072 20.724
L 174.745587 21.176308
L 174.841102 20.724
L 175.127648 21.628615
L 175.318678 21.628615
L 175.414194 21.176308
L 175.700739 23.437846
L 175.89177 23.437846
L 176.273831 24.794769
L 176.464861 24.794769
L 176.655892 25.699385
L 176.751407 25.247077
L 176.942437 26.151692
L 177.037953 25.699385
L 177.228983 26.604
L 177.420013 26.151692
L 177.515529 27.056308
L 177.706559 25.699385
L 177.89759 25.699385
L 178.08862 26.604
L 178.470681 26.604
L 178.661712 27.056308
L 178.757227 27.056308
L 179.139288 28.413231
L 179.521349 28.413231
L 179.712379 29.317846
L 180.09444 29.317846
L 180.285471 27.960923
L 180.380986 27.960923
L 180.572016 27.056308
L 180.763047 26.604
L 180.858562 26.604
L 180.954077 26.151692
L 181.240623 27.056308
L 181.336138 27.056308
L 181.622684 27.960923
L 181.813714 27.056308
L 182.004745 27.508615
L 182.10026 27.508615
L 182.673351 29.770154
L 182.864382 29.770154
L 183.055412 28.413231
L 183.246443 27.508615
L 183.341958 27.056308
L 183.532988 27.508615
L 183.724019 27.056308
L 183.819534 27.056308
L 184.10608 27.960923
L 184.29711 27.960923
L 184.679171 26.604
L 184.774687 26.604
L 184.965717 24.794769
L 185.061232 24.794769
L 185.156747 23.890154
L 185.443293 24.794769
L 185.634324 24.794769
L 185.825354 24.342462
L 186.016385 24.342462
L 186.1119 23.890154
L 186.30293 25.247077
L 186.398446 25.247077
L 186.684991 24.342462
L 186.780506 24.342462
L 186.971537 23.437846
L 187.162567 23.890154
L 187.544628 22.533231
L 187.640144 22.533231
L 187.831174 22.080923
L 188.022205 22.080923
L 188.11772 22.533231
L 188.30875 22.080923
L 188.404265 22.080923
L 188.595296 21.628615
L 188.690811 21.628615
L 188.881842 22.533231
L 188.977357 22.080923
L 189.072872 22.985538
L 189.168387 22.533231
L 189.454933 23.437846
L 189.645963 23.437846
L 189.741479 22.985538
L 189.932509 23.437846
L 190.12354 22.985538
L 190.31457 23.437846
L 190.505601 23.437846
L 190.601116 23.890154
L 190.792146 23.437846
L 191.269722 23.437846
L 191.460753 22.985538
L 191.747299 25.699385
L 191.842814 25.247077
L 192.033844 25.699385
L 192.606936 23.437846
L 192.893481 23.437846
L 193.180027 24.794769
L 193.371058 24.342462
L 193.466573 25.699385
L 193.562088 25.247077
L 193.753119 26.604
L 193.848634 26.151692
L 193.944149 26.151692
L 194.13518 25.247077
L 194.32621 26.151692
L 194.612756 25.247077
L 194.708271 25.699385
L 194.899301 25.247077
L 195.185847 26.151692
L 195.281362 26.151692
L 195.376878 25.247077
L 195.472393 26.151692
L 195.758939 25.247077
L 195.854454 25.247077
L 195.949969 25.699385
L 196.427545 23.890154
L 196.714091 23.890154
L 196.809606 24.342462
L 197.000637 23.437846
L 197.096152 23.890154
L 197.382697 22.985538
L 197.669243 23.890154
L 197.955789 23.890154
L 198.051304 23.437846
L 198.146819 23.890154
L 198.52888 22.080923
L 198.719911 22.533231
L 198.910941 21.628615
L 199.006456 22.080923
L 199.197487 21.176308
L 199.293002 21.628615
L 199.579548 20.724
L 199.770578 20.724
L 200.057124 21.628615
L 200.152639 21.628615
L 200.34367 21.176308
L 200.439185 21.628615
L 200.630215 20.724
L 200.725731 21.176308
L 200.821246 22.533231
L 201.012276 21.628615
L 201.107792 22.080923
L 201.394337 21.176308
L 201.680883 21.176308
L 201.871914 20.724
L 201.967429 20.724
L 202.062944 20.271692
L 202.158459 20.724
L 202.445005 19.819385
L 202.54052 19.819385
L 202.731551 21.176308
L 203.018096 18.462462
L 203.209127 18.914769
L 203.304642 18.914769
L 203.495673 19.367077
L 203.591188 19.367077
L 203.686703 18.914769
L 203.877733 19.367077
L 203.973249 19.367077
L 204.068764 18.914769
L 204.259794 19.819385
L 204.35531 19.367077
L 205.023916 22.080923
L 205.405977 20.724
L 205.501492 21.628615
L 205.788038 19.819385
L 205.883553 19.819385
L 205.979069 20.271692
L 206.55216 17.557846
L 206.647675 18.010154
L 206.74319 17.105538
L 207.125251 18.462462
L 207.220767 18.462462
L 207.316282 18.010154
L 207.507312 18.462462
L 207.602828 18.462462
L 207.984889 19.819385
L 208.080404 19.819385
L 208.271434 20.271692
L 208.462465 19.367077
L 208.55798 19.367077
L 208.844526 18.462462
L 208.940041 18.462462
L 209.035556 17.105538
L 209.226587 18.010154
L 209.417617 18.010154
L 209.608648 18.914769
L 209.704163 18.010154
L 209.895193 18.462462
L 209.990708 18.462462
L 210.372769 17.105538
L 210.659315 18.010154
L 210.75483 18.010154
L 210.945861 18.462462
L 211.327922 18.462462
L 211.614467 21.176308
L 212.474105 17.105538
L 212.76065 18.010154
L 212.856165 17.557846
L 212.951681 18.010154
L 213.238226 15.748615
L 213.429257 16.200923
L 213.715803 14.844
L 213.906833 15.748615
L 214.097864 15.748615
L 214.479924 17.105538
L 214.57544 17.105538
L 214.861985 18.914769
L 215.053016 17.105538
L 215.244046 17.105538
L 215.435077 18.010154
L 215.626107 18.462462
L 215.817138 18.462462
L 216.103683 19.367077
L 216.676775 19.367077
L 216.867805 18.914769
L 217.058836 18.914769
L 217.249866 18.010154
L 217.345382 17.557846
L 217.440897 18.010154
L 217.536412 17.105538
L 217.727442 18.462462
L 217.918473 18.010154
L 218.013988 18.010154
L 218.205019 17.557846
L 218.396049 17.557846
L 218.682595 18.462462
L 218.873625 17.105538
L 219.064656 18.010154
L 219.160171 18.010154
L 219.733262 15.748615
L 219.828778 15.748615
L 220.019808 14.391692
L 220.115323 14.391692
L 220.210839 14.844
L 220.401869 14.391692
L 220.497384 15.296308
L 220.592899 14.844
L 220.879445 16.653231
L 221.070476 15.748615
L 221.165991 15.748615
L 221.357021 14.391692
L 221.548052 14.391692
L 221.739082 15.748615
L 221.834598 15.748615
L 222.025628 14.844
L 222.312174 15.748615
L 222.694235 14.391692
L 222.98078 15.296308
L 223.171811 15.296308
L 223.362841 14.391692
L 223.458357 14.391692
L 223.649387 17.105538
L 223.840417 15.296308
L 223.935933 15.296308
L 224.126963 14.391692
L 224.222478 14.844
L 224.509024 13.939385
L 224.604539 13.939385
L 224.700055 14.391692
L 224.9866 13.487077
L 225.082115 13.487077
L 225.273146 13.034769
L 225.941753 16.653231
L 226.037268 16.200923
L 226.228298 15.748615
L 226.323814 15.748615
L 226.514844 16.200923
L 226.610359 15.748615
L 226.80139 16.653231
L 226.896905 17.105538
L 227.278966 15.748615
L 227.469996 17.105538
L 227.565512 16.653231
L 227.756542 14.844
L 227.852057 13.939385
L 228.043088 15.296308
L 228.234118 15.748615
L 228.425149 14.844
L 228.616179 15.748615
L 228.80721 15.748615
L 228.99824 17.105538
L 229.189271 17.105538
L 229.380301 16.653231
L 229.571332 16.653231
L 229.857877 18.462462
L 230.048908 18.914769
L 230.239938 18.914769
L 230.621999 20.724
L 230.81303 20.271692
L 231.099575 21.628615
L 231.290606 20.724
L 231.863697 18.462462
L 232.054728 18.462462
L 232.245758 18.010154
L 232.341273 19.819385
L 232.532304 18.462462
L 232.627819 19.367077
L 232.818849 18.010154
L 233.00988 18.462462
L 233.105395 18.462462
L 233.965032 14.844
L 234.156063 14.844
L 234.538124 11.225538
L 234.633639 11.677846
L 234.729154 13.034769
L 234.920185 11.677846
L 235.111215 11.677846
L 235.20673 12.130154
L 235.302246 11.677846
L 235.779822 13.487077
L 235.875337 13.487077
L 235.970852 13.939385
L 236.066367 13.487077
L 236.161883 13.939385
L 236.257398 15.748615
L 236.352913 14.844
L 236.543944 15.748615
L 236.639459 15.748615
L 236.830489 16.200923
L 237.02152 16.200923
L 237.117035 16.653231
L 237.403581 15.748615
L 237.594611 15.748615
L 237.785642 15.296308
L 237.976672 15.296308
L 238.072187 14.844
L 238.263218 15.748615
L 238.454248 16.200923
L 238.549764 16.200923
L 238.740794 16.653231
L 239.21837 14.844
L 239.504916 15.748615
L 239.600431 15.296308
L 239.982492 16.653231
L 240.078007 16.653231
L 240.173523 16.200923
L 240.842129 18.914769
L 240.937644 18.010154
L 241.415221 19.819385
L 241.510736 19.819385
L 241.701766 19.367077
L 241.892797 19.367077
L 242.083827 18.462462
L 242.752434 18.462462
L 242.943464 19.367077
L 243.23001 20.724
L 243.325525 20.271692
L 243.516556 21.628615
L 243.707586 20.724
L 243.994132 18.010154
L 244.089647 17.557846
L 244.280678 18.010154
L 244.567223 17.105538
L 244.662739 17.557846
L 244.853769 16.200923
L 244.949284 16.653231
L 245.140315 17.105538
L 245.331345 16.653231
L 245.42686 16.653231
L 245.617891 17.105538
L 245.808921 16.653231
L 245.904437 16.653231
L 246.190982 15.748615
L 246.382013 15.748615
L 246.668558 16.653231
L 247.24165 11.677846
L 247.337165 11.677846
L 247.528196 12.130154
L 247.623711 12.130154
L 247.719226 13.034769
L 247.910257 12.130154
L 248.292317 10.773231
L 248.483348 11.225538
L 248.674378 11.225538
L 248.769894 11.677846
L 248.960924 11.225538
L 249.056439 11.225538
L 249.24747 9.416308
L 249.342985 9.416308
L 249.4385 8.964
L 249.629531 9.868615
L 249.820561 9.868615
L 250.966744 15.296308
L 251.25329 13.939385
L 251.44432 12.582462
L 251.730866 13.487077
L 252.017412 13.487077
L 252.112927 13.034769
L 252.686018 16.200923
L 252.781534 15.748615
L 252.972564 15.296308
L 253.25911 15.296308
L 253.545655 17.105538
L 253.736686 15.748615
L 253.927716 16.653231
L 254.023232 17.105538
L 254.118747 16.653231
L 254.405292 17.557846
L 254.500808 17.105538
L 254.787353 18.914769
L 254.978384 19.819385
L 255.26493 18.914769
L 255.838021 23.437846
L 256.124567 23.437846
L 256.315597 22.533231
L 256.411112 22.985538
L 256.602143 21.176308
L 256.697658 21.628615
L 256.793173 21.176308
L 256.984204 21.628615
L 257.175234 21.628615
L 257.366265 20.271692
L 257.557295 21.176308
L 257.65281 21.176308
L 257.843841 22.985538
L 258.130387 22.985538
L 258.225902 22.080923
L 258.321417 22.533231
L 258.512448 21.628615
L 258.703478 21.176308
L 258.894509 21.176308
L 258.990024 20.724
L 259.085539 21.176308
L 259.181054 20.271692
L 259.372085 20.724
L 259.563115 20.724
L 259.945176 22.985538
L 260.040691 22.533231
L 260.231722 22.080923
L 260.327237 22.533231
L 260.518268 22.080923
L 260.709298 22.080923
L 260.900328 20.271692
L 260.995844 19.819385
L 261.186874 20.724
L 261.282389 20.271692
L 261.47342 20.724
L 261.66445 20.724
L 261.855481 20.271692
L 262.046511 20.271692
L 262.142026 19.819385
L 262.333057 20.724
L 262.524087 18.914769
L 262.810633 18.914769
L 262.906148 19.367077
L 263.574755 16.653231
L 263.67027 17.105538
L 263.861301 16.653231
L 263.956816 16.653231
L 264.243362 15.748615
L 264.434392 16.200923
L 264.720938 15.296308
L 264.911968 16.653231
L 265.007484 16.653231
L 265.389544 19.819385
L 265.771605 19.819385
L 266.058151 21.628615
L 266.535727 21.628615
L 267.204334 24.342462
L 267.49088 24.342462
L 268.063971 26.604
L 268.350517 26.604
L 268.828093 28.413231
L 268.923608 28.413231
L 269.4967 31.579385
L 269.68773 32.484
L 269.783245 32.484
L 270.356337 34.745538
L 270.642882 34.745538
L 271.407004 37.911692
L 271.502519 37.911692
L 271.598035 38.364
L 271.789065 39.720923
L 271.88458 39.268615
L 272.075611 40.173231
L 272.266641 40.173231
L 272.457672 41.077846
L 272.553187 40.625538
L 272.648702 41.077846
L 272.744218 40.173231
L 272.839733 40.625538
L 273.030763 40.173231
L 273.221794 40.625538
L 273.508339 40.625538
L 273.69937 41.077846
L 273.794885 41.077846
L 274.654522 37.459385
L 280.289921 37.459385
L 280.576467 38.364
L 281.054043 38.364
L 281.531619 40.173231
L 281.818165 40.173231
L 282.009195 40.625538
L 282.391256 40.625538
L 283.250893 44.244
L 287.740109 44.244
L 288.217686 42.434769
L 288.408716 42.434769
L 288.599746 41.982462
L 289.268353 41.982462
L 289.459384 41.530154
L 289.745929 41.530154
L 289.93696 41.077846
L 290.701082 41.077846
L 290.987627 40.173231
L 292.13381 40.173231
L 292.324841 39.720923
L 292.611386 39.720923
L 292.802417 39.268615
L 295.858904 39.268615
L 296.049935 38.816308
L 296.33648 38.816308
L 296.814057 40.625538
L 297.005087 40.625538
L 297.196118 41.077846
L 297.291633 41.077846
L 297.482663 40.625538
L 298.3423 40.625538
L 298.533331 41.077846
L 298.724361 41.077846
L 298.915392 40.625538
L 299.106422 40.625538
L 299.297453 40.173231
L 299.583998 41.077846
L 299.966059 41.077846
L 300.15709 40.625538
L 300.634666 40.625538
L 300.730181 39.720923
L 300.921212 40.173231
L 301.207757 40.173231
L 301.398788 40.625538
L 301.876364 40.625538
L 302.067395 40.173231
L 302.927032 40.173231
L 303.213577 39.268615
L 303.500123 39.268615
L 303.786669 38.364
L 304.35976 38.364
L 304.455275 37.911692
L 304.646306 38.364
L 306.270065 38.364
L 306.461095 37.911692
L 306.652126 38.364
L 307.320732 38.364
L 307.511763 38.816308
L 307.607278 38.816308
L 307.702793 38.364
L 307.798309 38.816308
L 307.989339 38.364
L 308.56243 38.364
L 308.753461 38.816308
L 309.135522 38.816308
L 309.231037 38.364
L 309.422068 39.268615
L 309.613098 38.816308
L 309.899644 38.816308
L 310.090674 38.364
L 310.472735 38.364
L 310.663766 38.816308
L 311.141342 38.816308
L 311.427887 37.911692
L 311.427887 37.911692
" clip-path="url(#pa9916edac0)" style="fill: none; stroke: #1f77b4; stroke-width: 0.5; stroke-linecap: square"/>
   </g>
   <g id="patch_3">
    <path d="M 35.484375 46.008
L 35.484375 7.2
" style="fill: none; stroke: #000000; stroke-width: 0.8; stroke-linejoin: miter; stroke-linecap: square"/>
   </g>
   <g id="patch_4">
    <path d="M 314.484375 46.008
L 314.484375 7.2
" style="fill: none; stroke: #000000; stroke-width: 0.8; stroke-linejoin: miter; stroke-linecap: square"/>
   </g>
   <g id="patch_5">
    <path d="M 35.484375 46.008
L 314.484375 46.008
" style="fill: none; stroke: #000000; stroke-width: 0.8; stroke-linejoin: miter; stroke-linecap: square"/>
   </g>
   <g id="patch_6">
    <path d="M 35.484375 7.2
L 314.484375 7.2
" style="fill: none; stroke: #000000; stroke-width: 0.8; stroke-linejoin: miter; stroke-linecap: square"/>
   </g>
  </g>
 </g>
 <defs>
  <clipPath id="pa9916edac0">
   <rect x="35.484375" y="7.2" width="279" height="38.808"/>
  </clipPath>
 </defs>
</svg>
