<?xml version="1.0" encoding="utf-8" standalone="no"?>
<!DOCTYPE svg PUBLIC "-//W3C//DTD SVG 1.1//EN"
  "http://www.w3.org/Graphics/SVG/1.1/DTD/svg11.dtd">
<svg xmlns:xlink="http://www.w3.org/1999/xlink" width="403.97pt" height="297.190125pt" viewBox="0 0 403.97 297.190125" xmlns="http://www.w3.org/2000/svg" version="1.1">
 <metadata>
  <rdf:RDF xmlns:dc="http://purl.org/dc/elements/1.1/" xmlns:cc="http://creativecommons.org/ns#" xmlns:rdf="http://www.w3.org/1999/02/22-rdf-syntax-ns#">
   <cc:Work>
    <dc:type rdf:resource="http://purl.org/dc/dcmitype/StillImage"/>
    <dc:date>2023-06-23T10:46:13.375400</dc:date>
    <dc:format>image/svg+xml</dc:format>
    <dc:creator>
     <cc:Agent>
      <dc:title>Matplotlib v3.7.1, https://matplotlib.org/</dc:title>
     </cc:Agent>
    </dc:creator>
   </cc:Work>
  </rdf:RDF>
 </metadata>
 <defs>
  <style type="text/css">*{stroke-linejoin: round; stroke-linecap: butt}</style>
 </defs>
 <g id="figure_1">
  <g id="patch_1">
   <path d="M 0 297.190125
L 403.97 297.190125
L 403.97 0
L 0 0
z
" style="fill: #ffffff"/>
  </g>
  <g id="axes_1">
   <g id="patch_2">
    <path d="M 39.65 273.312
L 396.77 273.312
L 396.77 7.2
L 39.65 7.2
z
" style="fill: #ffffff"/>
   </g>
   <g id="patch_3">
    <path d="M 55.882727 273.312
L 59.129273 273.312
L 59.129273 273.134147
L 55.882727 273.134147
z
" clip-path="url(#pfa1491233d)" style="fill: #1f77b4"/>
   </g>
   <g id="patch_4">
    <path d="M 59.129273 273.312
L 62.375818 273.312
L 62.375818 273.223074
L 59.129273 273.223074
z
" clip-path="url(#pfa1491233d)" style="fill: #1f77b4"/>
   </g>
   <g id="patch_5">
    <path d="M 62.375818 273.312
L 65.622364 273.312
L 65.622364 273.134147
L 62.375818 273.134147
z
" clip-path="url(#pfa1491233d)" style="fill: #1f77b4"/>
   </g>
   <g id="patch_6">
    <path d="M 65.622364 273.312
L 68.868909 273.312
L 68.868909 273.134147
L 65.622364 273.134147
z
" clip-path="url(#pfa1491233d)" style="fill: #1f77b4"/>
   </g>
   <g id="patch_7">
    <path d="M 68.868909 273.312
L 72.115455 273.312
L 72.115455 272.689516
L 68.868909 272.689516
z
" clip-path="url(#pfa1491233d)" style="fill: #1f77b4"/>
   </g>
   <g id="patch_8">
    <path d="M 72.115455 273.312
L 75.362 273.312
L 75.362 272.244884
L 72.115455 272.244884
z
" clip-path="url(#pfa1491233d)" style="fill: #1f77b4"/>
   </g>
   <g id="patch_9">
    <path d="M 75.362 273.312
L 78.608545 273.312
L 78.608545 272.689516
L 75.362 272.689516
z
" clip-path="url(#pfa1491233d)" style="fill: #1f77b4"/>
   </g>
   <g id="patch_10">
    <path d="M 78.608545 273.312
L 81.855091 273.312
L 81.855091 272.689516
L 78.608545 272.689516
z
" clip-path="url(#pfa1491233d)" style="fill: #1f77b4"/>
   </g>
   <g id="patch_11">
    <path d="M 81.855091 273.312
L 85.101636 273.312
L 85.101636 271.444547
L 81.855091 271.444547
z
" clip-path="url(#pfa1491233d)" style="fill: #1f77b4"/>
   </g>
   <g id="patch_12">
    <path d="M 85.101636 273.312
L 88.348182 273.312
L 88.348182 270.555284
L 85.101636 270.555284
z
" clip-path="url(#pfa1491233d)" style="fill: #1f77b4"/>
   </g>
   <g id="patch_13">
    <path d="M 88.348182 273.312
L 91.594727 273.312
L 91.594727 267.887495
L 88.348182 267.887495
z
" clip-path="url(#pfa1491233d)" style="fill: #1f77b4"/>
   </g>
   <g id="patch_14">
    <path d="M 91.594727 273.312
L 94.841273 273.312
L 94.841273 263.441179
L 91.594727 263.441179
z
" clip-path="url(#pfa1491233d)" style="fill: #1f77b4"/>
   </g>
   <g id="patch_15">
    <path d="M 94.841273 273.312
L 98.087818 273.312
L 98.087818 257.216337
L 94.841273 257.216337
z
" clip-path="url(#pfa1491233d)" style="fill: #1f77b4"/>
   </g>
   <g id="patch_16">
    <path d="M 98.087818 273.312
L 101.334364 273.312
L 101.334364 251.258274
L 98.087818 251.258274
z
" clip-path="url(#pfa1491233d)" style="fill: #1f77b4"/>
   </g>
   <g id="patch_17">
    <path d="M 101.334364 273.312
L 104.580909 273.312
L 104.580909 232.050189
L 101.334364 232.050189
z
" clip-path="url(#pfa1491233d)" style="fill: #1f77b4"/>
   </g>
   <g id="patch_18">
    <path d="M 104.580909 273.312
L 107.827455 273.312
L 107.827455 212.4864
L 104.580909 212.4864
z
" clip-path="url(#pfa1491233d)" style="fill: #1f77b4"/>
   </g>
   <g id="patch_19">
    <path d="M 107.827455 273.312
L 111.074 273.312
L 111.074 162.776589
L 107.827455 162.776589
z
" clip-path="url(#pfa1491233d)" style="fill: #1f77b4"/>
   </g>
   <g id="patch_20">
    <path d="M 111.074 273.312
L 114.320545 273.312
L 114.320545 119.291621
L 111.074 119.291621
z
" clip-path="url(#pfa1491233d)" style="fill: #1f77b4"/>
   </g>
   <g id="patch_21">
    <path d="M 114.320545 273.312
L 117.567091 273.312
L 117.567091 55.709305
L 114.320545 55.709305
z
" clip-path="url(#pfa1491233d)" style="fill: #1f77b4"/>
   </g>
   <g id="patch_22">
    <path d="M 117.567091 273.312
L 120.813636 273.312
L 120.813636 19.872
L 117.567091 19.872
z
" clip-path="url(#pfa1491233d)" style="fill: #1f77b4"/>
   </g>
   <g id="patch_23">
    <path d="M 120.813636 273.312
L 124.060182 273.312
L 124.060182 129.518147
L 120.813636 129.518147
z
" clip-path="url(#pfa1491233d)" style="fill: #1f77b4"/>
   </g>
   <g id="patch_24">
    <path d="M 124.060182 273.312
L 127.306727 273.312
L 127.306727 219.066947
L 124.060182 219.066947
z
" clip-path="url(#pfa1491233d)" style="fill: #1f77b4"/>
   </g>
   <g id="patch_25">
    <path d="M 127.306727 273.312
L 130.553273 273.312
L 130.553273 234.4512
L 127.306727 234.4512
z
" clip-path="url(#pfa1491233d)" style="fill: #1f77b4"/>
   </g>
   <g id="patch_26">
    <path d="M 130.553273 273.312
L 133.799818 273.312
L 133.799818 246.011621
L 130.553273 246.011621
z
" clip-path="url(#pfa1491233d)" style="fill: #1f77b4"/>
   </g>
   <g id="patch_27">
    <path d="M 133.799818 273.312
L 137.046364 273.312
L 137.046364 247.701221
L 133.799818 247.701221
z
" clip-path="url(#pfa1491233d)" style="fill: #1f77b4"/>
   </g>
   <g id="patch_28">
    <path d="M 137.046364 273.312
L 140.292909 273.312
L 140.292909 252.858947
L 137.046364 252.858947
z
" clip-path="url(#pfa1491233d)" style="fill: #1f77b4"/>
   </g>
   <g id="patch_29">
    <path d="M 140.292909 273.312
L 143.539455 273.312
L 143.539455 254.459621
L 140.292909 254.459621
z
" clip-path="url(#pfa1491233d)" style="fill: #1f77b4"/>
   </g>
   <g id="patch_30">
    <path d="M 143.539455 273.312
L 146.786 273.312
L 146.786 257.572042
L 143.539455 257.572042
z
" clip-path="url(#pfa1491233d)" style="fill: #1f77b4"/>
   </g>
   <g id="patch_31">
    <path d="M 146.786 273.312
L 150.032545 273.312
L 150.032545 258.905937
L 146.786 258.905937
z
" clip-path="url(#pfa1491233d)" style="fill: #1f77b4"/>
   </g>
   <g id="patch_32">
    <path d="M 150.032545 273.312
L 153.279091 273.312
L 153.279091 261.129095
L 150.032545 261.129095
z
" clip-path="url(#pfa1491233d)" style="fill: #1f77b4"/>
   </g>
   <g id="patch_33">
    <path d="M 153.279091 273.312
L 156.525636 273.312
L 156.525636 261.929432
L 153.279091 261.929432
z
" clip-path="url(#pfa1491233d)" style="fill: #1f77b4"/>
   </g>
   <g id="patch_34">
    <path d="M 156.525636 273.312
L 159.772182 273.312
L 159.772182 262.996547
L 156.525636 262.996547
z
" clip-path="url(#pfa1491233d)" style="fill: #1f77b4"/>
   </g>
   <g id="patch_35">
    <path d="M 159.772182 273.312
L 163.018727 273.312
L 163.018727 264.330442
L 159.772182 264.330442
z
" clip-path="url(#pfa1491233d)" style="fill: #1f77b4"/>
   </g>
   <g id="patch_36">
    <path d="M 163.018727 273.312
L 166.265273 273.312
L 166.265273 267.798568
L 163.018727 267.798568
z
" clip-path="url(#pfa1491233d)" style="fill: #1f77b4"/>
   </g>
   <g id="patch_37">
    <path d="M 166.265273 273.312
L 169.511818 273.312
L 169.511818 267.709642
L 166.265273 267.709642
z
" clip-path="url(#pfa1491233d)" style="fill: #1f77b4"/>
   </g>
   <g id="patch_38">
    <path d="M 169.511818 273.312
L 172.758364 273.312
L 172.758364 268.154274
L 169.511818 268.154274
z
" clip-path="url(#pfa1491233d)" style="fill: #1f77b4"/>
   </g>
   <g id="patch_39">
    <path d="M 172.758364 273.312
L 176.004909 273.312
L 176.004909 268.598905
L 172.758364 268.598905
z
" clip-path="url(#pfa1491233d)" style="fill: #1f77b4"/>
   </g>
   <g id="patch_40">
    <path d="M 176.004909 273.312
L 179.251455 273.312
L 179.251455 268.776758
L 176.004909 268.776758
z
" clip-path="url(#pfa1491233d)" style="fill: #1f77b4"/>
   </g>
   <g id="patch_41">
    <path d="M 179.251455 273.312
L 182.498 273.312
L 182.498 269.310316
L 179.251455 269.310316
z
" clip-path="url(#pfa1491233d)" style="fill: #1f77b4"/>
   </g>
   <g id="patch_42">
    <path d="M 182.498 273.312
L 185.744545 273.312
L 185.744545 269.132463
L 182.498 269.132463
z
" clip-path="url(#pfa1491233d)" style="fill: #1f77b4"/>
   </g>
   <g id="patch_43">
    <path d="M 185.744545 273.312
L 188.991091 273.312
L 188.991091 270.910989
L 185.744545 270.910989
z
" clip-path="url(#pfa1491233d)" style="fill: #1f77b4"/>
   </g>
   <g id="patch_44">
    <path d="M 188.991091 273.312
L 192.237636 273.312
L 192.237636 271.177768
L 188.991091 271.177768
z
" clip-path="url(#pfa1491233d)" style="fill: #1f77b4"/>
   </g>
   <g id="patch_45">
    <path d="M 192.237636 273.312
L 195.484182 273.312
L 195.484182 270.822063
L 192.237636 270.822063
z
" clip-path="url(#pfa1491233d)" style="fill: #1f77b4"/>
   </g>
   <g id="patch_46">
    <path d="M 195.484182 273.312
L 198.730727 273.312
L 198.730727 271.177768
L 195.484182 271.177768
z
" clip-path="url(#pfa1491233d)" style="fill: #1f77b4"/>
   </g>
   <g id="patch_47">
    <path d="M 198.730727 273.312
L 201.977273 273.312
L 201.977273 271.533474
L 198.730727 271.533474
z
" clip-path="url(#pfa1491233d)" style="fill: #1f77b4"/>
   </g>
   <g id="patch_48">
    <path d="M 201.977273 273.312
L 205.223818 273.312
L 205.223818 272.155958
L 201.977273 272.155958
z
" clip-path="url(#pfa1491233d)" style="fill: #1f77b4"/>
   </g>
   <g id="patch_49">
    <path d="M 205.223818 273.312
L 208.470364 273.312
L 208.470364 271.6224
L 205.223818 271.6224
z
" clip-path="url(#pfa1491233d)" style="fill: #1f77b4"/>
   </g>
   <g id="patch_50">
    <path d="M 208.470364 273.312
L 211.716909 273.312
L 211.716909 272.067032
L 208.470364 272.067032
z
" clip-path="url(#pfa1491233d)" style="fill: #1f77b4"/>
   </g>
   <g id="patch_51">
    <path d="M 211.716909 273.312
L 214.963455 273.312
L 214.963455 272.422737
L 211.716909 272.422737
z
" clip-path="url(#pfa1491233d)" style="fill: #1f77b4"/>
   </g>
   <g id="patch_52">
    <path d="M 214.963455 273.312
L 218.21 273.312
L 218.21 271.6224
L 214.963455 271.6224
z
" clip-path="url(#pfa1491233d)" style="fill: #1f77b4"/>
   </g>
   <g id="patch_53">
    <path d="M 218.21 273.312
L 221.456545 273.312
L 221.456545 272.244884
L 218.21 272.244884
z
" clip-path="url(#pfa1491233d)" style="fill: #1f77b4"/>
   </g>
   <g id="patch_54">
    <path d="M 221.456545 273.312
L 224.703091 273.312
L 224.703091 272.333811
L 221.456545 272.333811
z
" clip-path="url(#pfa1491233d)" style="fill: #1f77b4"/>
   </g>
   <g id="patch_55">
    <path d="M 224.703091 273.312
L 227.949636 273.312
L 227.949636 272.867368
L 224.703091 272.867368
z
" clip-path="url(#pfa1491233d)" style="fill: #1f77b4"/>
   </g>
   <g id="patch_56">
    <path d="M 227.949636 273.312
L 231.196182 273.312
L 231.196182 272.155958
L 227.949636 272.155958
z
" clip-path="url(#pfa1491233d)" style="fill: #1f77b4"/>
   </g>
   <g id="patch_57">
    <path d="M 231.196182 273.312
L 234.442727 273.312
L 234.442727 272.244884
L 231.196182 272.244884
z
" clip-path="url(#pfa1491233d)" style="fill: #1f77b4"/>
   </g>
   <g id="patch_58">
    <path d="M 234.442727 273.312
L 237.689273 273.312
L 237.689273 272.867368
L 234.442727 272.867368
z
" clip-path="url(#pfa1491233d)" style="fill: #1f77b4"/>
   </g>
   <g id="patch_59">
    <path d="M 237.689273 273.312
L 240.935818 273.312
L 240.935818 273.045221
L 237.689273 273.045221
z
" clip-path="url(#pfa1491233d)" style="fill: #1f77b4"/>
   </g>
   <g id="patch_60">
    <path d="M 240.935818 273.312
L 244.182364 273.312
L 244.182364 272.600589
L 240.935818 272.600589
z
" clip-path="url(#pfa1491233d)" style="fill: #1f77b4"/>
   </g>
   <g id="patch_61">
    <path d="M 244.182364 273.312
L 247.428909 273.312
L 247.428909 272.778442
L 244.182364 272.778442
z
" clip-path="url(#pfa1491233d)" style="fill: #1f77b4"/>
   </g>
   <g id="patch_62">
    <path d="M 247.428909 273.312
L 250.675455 273.312
L 250.675455 272.778442
L 247.428909 272.778442
z
" clip-path="url(#pfa1491233d)" style="fill: #1f77b4"/>
   </g>
   <g id="patch_63">
    <path d="M 250.675455 273.312
L 253.922 273.312
L 253.922 273.134147
L 250.675455 273.134147
z
" clip-path="url(#pfa1491233d)" style="fill: #1f77b4"/>
   </g>
   <g id="patch_64">
    <path d="M 253.922 273.312
L 257.168545 273.312
L 257.168545 273.312
L 253.922 273.312
z
" clip-path="url(#pfa1491233d)" style="fill: #1f77b4"/>
   </g>
   <g id="patch_65">
    <path d="M 257.168545 273.312
L 260.415091 273.312
L 260.415091 272.778442
L 257.168545 272.778442
z
" clip-path="url(#pfa1491233d)" style="fill: #1f77b4"/>
   </g>
   <g id="patch_66">
    <path d="M 260.415091 273.312
L 263.661636 273.312
L 263.661636 273.134147
L 260.415091 273.134147
z
" clip-path="url(#pfa1491233d)" style="fill: #1f77b4"/>
   </g>
   <g id="patch_67">
    <path d="M 263.661636 273.312
L 266.908182 273.312
L 266.908182 273.134147
L 263.661636 273.134147
z
" clip-path="url(#pfa1491233d)" style="fill: #1f77b4"/>
   </g>
   <g id="patch_68">
    <path d="M 266.908182 273.312
L 270.154727 273.312
L 270.154727 273.223074
L 266.908182 273.223074
z
" clip-path="url(#pfa1491233d)" style="fill: #1f77b4"/>
   </g>
   <g id="patch_69">
    <path d="M 270.154727 273.312
L 273.401273 273.312
L 273.401273 272.956295
L 270.154727 272.956295
z
" clip-path="url(#pfa1491233d)" style="fill: #1f77b4"/>
   </g>
   <g id="patch_70">
    <path d="M 273.401273 273.312
L 276.647818 273.312
L 276.647818 273.223074
L 273.401273 273.223074
z
" clip-path="url(#pfa1491233d)" style="fill: #1f77b4"/>
   </g>
   <g id="patch_71">
    <path d="M 276.647818 273.312
L 279.894364 273.312
L 279.894364 273.045221
L 276.647818 273.045221
z
" clip-path="url(#pfa1491233d)" style="fill: #1f77b4"/>
   </g>
   <g id="patch_72">
    <path d="M 279.894364 273.312
L 283.140909 273.312
L 283.140909 273.134147
L 279.894364 273.134147
z
" clip-path="url(#pfa1491233d)" style="fill: #1f77b4"/>
   </g>
   <g id="patch_73">
    <path d="M 283.140909 273.312
L 286.387455 273.312
L 286.387455 273.045221
L 283.140909 273.045221
z
" clip-path="url(#pfa1491233d)" style="fill: #1f77b4"/>
   </g>
   <g id="patch_74">
    <path d="M 286.387455 273.312
L 289.634 273.312
L 289.634 273.223074
L 286.387455 273.223074
z
" clip-path="url(#pfa1491233d)" style="fill: #1f77b4"/>
   </g>
   <g id="patch_75">
    <path d="M 289.634 273.312
L 292.880545 273.312
L 292.880545 272.956295
L 289.634 272.956295
z
" clip-path="url(#pfa1491233d)" style="fill: #1f77b4"/>
   </g>
   <g id="patch_76">
    <path d="M 292.880545 273.312
L 296.127091 273.312
L 296.127091 273.312
L 292.880545 273.312
z
" clip-path="url(#pfa1491233d)" style="fill: #1f77b4"/>
   </g>
   <g id="patch_77">
    <path d="M 296.127091 273.312
L 299.373636 273.312
L 299.373636 273.312
L 296.127091 273.312
z
" clip-path="url(#pfa1491233d)" style="fill: #1f77b4"/>
   </g>
   <g id="patch_78">
    <path d="M 299.373636 273.312
L 302.620182 273.312
L 302.620182 273.134147
L 299.373636 273.134147
z
" clip-path="url(#pfa1491233d)" style="fill: #1f77b4"/>
   </g>
   <g id="patch_79">
    <path d="M 302.620182 273.312
L 305.866727 273.312
L 305.866727 273.223074
L 302.620182 273.223074
z
" clip-path="url(#pfa1491233d)" style="fill: #1f77b4"/>
   </g>
   <g id="patch_80">
    <path d="M 305.866727 273.312
L 309.113273 273.312
L 309.113273 273.312
L 305.866727 273.312
z
" clip-path="url(#pfa1491233d)" style="fill: #1f77b4"/>
   </g>
   <g id="patch_81">
    <path d="M 309.113273 273.312
L 312.359818 273.312
L 312.359818 273.223074
L 309.113273 273.223074
z
" clip-path="url(#pfa1491233d)" style="fill: #1f77b4"/>
   </g>
   <g id="patch_82">
    <path d="M 312.359818 273.312
L 315.606364 273.312
L 315.606364 273.312
L 312.359818 273.312
z
" clip-path="url(#pfa1491233d)" style="fill: #1f77b4"/>
   </g>
   <g id="patch_83">
    <path d="M 315.606364 273.312
L 318.852909 273.312
L 318.852909 273.045221
L 315.606364 273.045221
z
" clip-path="url(#pfa1491233d)" style="fill: #1f77b4"/>
   </g>
   <g id="patch_84">
    <path d="M 318.852909 273.312
L 322.099455 273.312
L 322.099455 273.223074
L 318.852909 273.223074
z
" clip-path="url(#pfa1491233d)" style="fill: #1f77b4"/>
   </g>
   <g id="patch_85">
    <path d="M 322.099455 273.312
L 325.346 273.312
L 325.346 273.312
L 322.099455 273.312
z
" clip-path="url(#pfa1491233d)" style="fill: #1f77b4"/>
   </g>
   <g id="patch_86">
    <path d="M 325.346 273.312
L 328.592545 273.312
L 328.592545 273.223074
L 325.346 273.223074
z
" clip-path="url(#pfa1491233d)" style="fill: #1f77b4"/>
   </g>
   <g id="patch_87">
    <path d="M 328.592545 273.312
L 331.839091 273.312
L 331.839091 273.223074
L 328.592545 273.223074
z
" clip-path="url(#pfa1491233d)" style="fill: #1f77b4"/>
   </g>
   <g id="patch_88">
    <path d="M 331.839091 273.312
L 335.085636 273.312
L 335.085636 273.223074
L 331.839091 273.223074
z
" clip-path="url(#pfa1491233d)" style="fill: #1f77b4"/>
   </g>
   <g id="patch_89">
    <path d="M 335.085636 273.312
L 338.332182 273.312
L 338.332182 273.134147
L 335.085636 273.134147
z
" clip-path="url(#pfa1491233d)" style="fill: #1f77b4"/>
   </g>
   <g id="patch_90">
    <path d="M 338.332182 273.312
L 341.578727 273.312
L 341.578727 273.223074
L 338.332182 273.223074
z
" clip-path="url(#pfa1491233d)" style="fill: #1f77b4"/>
   </g>
   <g id="patch_91">
    <path d="M 341.578727 273.312
L 344.825273 273.312
L 344.825273 273.312
L 341.578727 273.312
z
" clip-path="url(#pfa1491233d)" style="fill: #1f77b4"/>
   </g>
   <g id="patch_92">
    <path d="M 344.825273 273.312
L 348.071818 273.312
L 348.071818 273.312
L 344.825273 273.312
z
" clip-path="url(#pfa1491233d)" style="fill: #1f77b4"/>
   </g>
   <g id="patch_93">
    <path d="M 348.071818 273.312
L 351.318364 273.312
L 351.318364 273.223074
L 348.071818 273.223074
z
" clip-path="url(#pfa1491233d)" style="fill: #1f77b4"/>
   </g>
   <g id="patch_94">
    <path d="M 351.318364 273.312
L 354.564909 273.312
L 354.564909 273.223074
L 351.318364 273.223074
z
" clip-path="url(#pfa1491233d)" style="fill: #1f77b4"/>
   </g>
   <g id="patch_95">
    <path d="M 354.564909 273.312
L 357.811455 273.312
L 357.811455 273.312
L 354.564909 273.312
z
" clip-path="url(#pfa1491233d)" style="fill: #1f77b4"/>
   </g>
   <g id="patch_96">
    <path d="M 357.811455 273.312
L 361.058 273.312
L 361.058 273.312
L 357.811455 273.312
z
" clip-path="url(#pfa1491233d)" style="fill: #1f77b4"/>
   </g>
   <g id="patch_97">
    <path d="M 361.058 273.312
L 364.304545 273.312
L 364.304545 273.312
L 361.058 273.312
z
" clip-path="url(#pfa1491233d)" style="fill: #1f77b4"/>
   </g>
   <g id="patch_98">
    <path d="M 364.304545 273.312
L 367.551091 273.312
L 367.551091 273.312
L 364.304545 273.312
z
" clip-path="url(#pfa1491233d)" style="fill: #1f77b4"/>
   </g>
   <g id="patch_99">
    <path d="M 367.551091 273.312
L 370.797636 273.312
L 370.797636 273.134147
L 367.551091 273.134147
z
" clip-path="url(#pfa1491233d)" style="fill: #1f77b4"/>
   </g>
   <g id="patch_100">
    <path d="M 370.797636 273.312
L 374.044182 273.312
L 374.044182 273.312
L 370.797636 273.312
z
" clip-path="url(#pfa1491233d)" style="fill: #1f77b4"/>
   </g>
   <g id="patch_101">
    <path d="M 374.044182 273.312
L 377.290727 273.312
L 377.290727 273.312
L 374.044182 273.312
z
" clip-path="url(#pfa1491233d)" style="fill: #1f77b4"/>
   </g>
   <g id="patch_102">
    <path d="M 377.290727 273.312
L 380.537273 273.312
L 380.537273 273.134147
L 377.290727 273.134147
z
" clip-path="url(#pfa1491233d)" style="fill: #1f77b4"/>
   </g>
   <g id="matplotlib.axis_1">
    <g id="xtick_1">
     <g id="line2d_1">
      <path d="M 70.007274 273.312
L 70.007274 7.2
" clip-path="url(#pfa1491233d)" style="fill: none; stroke: #b0b0b0; stroke-width: 0.8; stroke-linecap: square"/>
     </g>
     <g id="line2d_2">
      <defs>
       <path id="m6c21c1e541" d="M 0 0
L 0 3.5
" style="stroke: #000000; stroke-width: 0.8"/>
      </defs>
      <g>
       <use xlink:href="#m6c21c1e541" x="70.007274" y="273.312" style="stroke: #000000; stroke-width: 0.8"/>
      </g>
     </g>
     <g id="text_1">
      <!-- −10 -->
      <g transform="translate(59.45493 287.910437) scale(0.1 -0.1)">
       <defs>
        <path id="DejaVuSans-2212" d="M 678 2272
L 4684 2272
L 4684 1741
L 678 1741
L 678 2272
z
" transform="scale(0.015625)"/>
        <path id="DejaVuSans-31" d="M 794 531
L 1825 531
L 1825 4091
L 703 3866
L 703 4441
L 1819 4666
L 2450 4666
L 2450 531
L 3481 531
L 3481 0
L 794 0
L 794 531
z
" transform="scale(0.015625)"/>
        <path id="DejaVuSans-30" d="M 2034 4250
Q 1547 4250 1301 3770
Q 1056 3291 1056 2328
Q 1056 1369 1301 889
Q 1547 409 2034 409
Q 2525 409 2770 889
Q 3016 1369 3016 2328
Q 3016 3291 2770 3770
Q 2525 4250 2034 4250
z
M 2034 4750
Q 2819 4750 3233 4129
Q 3647 3509 3647 2328
Q 3647 1150 3233 529
Q 2819 -91 2034 -91
Q 1250 -91 836 529
Q 422 1150 422 2328
Q 422 3509 836 4129
Q 1250 4750 2034 4750
z
" transform="scale(0.015625)"/>
       </defs>
       <use xlink:href="#DejaVuSans-2212"/>
       <use xlink:href="#DejaVuSans-31" x="83.789062"/>
       <use xlink:href="#DejaVuSans-30" x="147.412109"/>
      </g>
     </g>
    </g>
    <g id="xtick_2">
     <g id="line2d_3">
      <path d="M 122.514883 273.312
L 122.514883 7.2
" clip-path="url(#pfa1491233d)" style="fill: none; stroke: #b0b0b0; stroke-width: 0.8; stroke-linecap: square"/>
     </g>
     <g id="line2d_4">
      <g>
       <use xlink:href="#m6c21c1e541" x="122.514883" y="273.312" style="stroke: #000000; stroke-width: 0.8"/>
      </g>
     </g>
     <g id="text_2">
      <!-- 0 -->
      <g transform="translate(119.333633 287.910437) scale(0.1 -0.1)">
       <use xlink:href="#DejaVuSans-30"/>
      </g>
     </g>
    </g>
    <g id="xtick_3">
     <g id="line2d_5">
      <path d="M 175.022492 273.312
L 175.022492 7.2
" clip-path="url(#pfa1491233d)" style="fill: none; stroke: #b0b0b0; stroke-width: 0.8; stroke-linecap: square"/>
     </g>
     <g id="line2d_6">
      <g>
       <use xlink:href="#m6c21c1e541" x="175.022492" y="273.312" style="stroke: #000000; stroke-width: 0.8"/>
      </g>
     </g>
     <g id="text_3">
      <!-- 10 -->
      <g transform="translate(168.659992 287.910437) scale(0.1 -0.1)">
       <use xlink:href="#DejaVuSans-31"/>
       <use xlink:href="#DejaVuSans-30" x="63.623047"/>
      </g>
     </g>
    </g>
    <g id="xtick_4">
     <g id="line2d_7">
      <path d="M 227.530101 273.312
L 227.530101 7.2
" clip-path="url(#pfa1491233d)" style="fill: none; stroke: #b0b0b0; stroke-width: 0.8; stroke-linecap: square"/>
     </g>
     <g id="line2d_8">
      <g>
       <use xlink:href="#m6c21c1e541" x="227.530101" y="273.312" style="stroke: #000000; stroke-width: 0.8"/>
      </g>
     </g>
     <g id="text_4">
      <!-- 20 -->
      <g transform="translate(221.167601 287.910437) scale(0.1 -0.1)">
       <defs>
        <path id="DejaVuSans-32" d="M 1228 531
L 3431 531
L 3431 0
L 469 0
L 469 531
Q 828 903 1448 1529
Q 2069 2156 2228 2338
Q 2531 2678 2651 2914
Q 2772 3150 2772 3378
Q 2772 3750 2511 3984
Q 2250 4219 1831 4219
Q 1534 4219 1204 4116
Q 875 4013 500 3803
L 500 4441
Q 881 4594 1212 4672
Q 1544 4750 1819 4750
Q 2544 4750 2975 4387
Q 3406 4025 3406 3419
Q 3406 3131 3298 2873
Q 3191 2616 2906 2266
Q 2828 2175 2409 1742
Q 1991 1309 1228 531
z
" transform="scale(0.015625)"/>
       </defs>
       <use xlink:href="#DejaVuSans-32"/>
       <use xlink:href="#DejaVuSans-30" x="63.623047"/>
      </g>
     </g>
    </g>
    <g id="xtick_5">
     <g id="line2d_9">
      <path d="M 280.037709 273.312
L 280.037709 7.2
" clip-path="url(#pfa1491233d)" style="fill: none; stroke: #b0b0b0; stroke-width: 0.8; stroke-linecap: square"/>
     </g>
     <g id="line2d_10">
      <g>
       <use xlink:href="#m6c21c1e541" x="280.037709" y="273.312" style="stroke: #000000; stroke-width: 0.8"/>
      </g>
     </g>
     <g id="text_5">
      <!-- 30 -->
      <g transform="translate(273.675209 287.910437) scale(0.1 -0.1)">
       <defs>
        <path id="DejaVuSans-33" d="M 2597 2516
Q 3050 2419 3304 2112
Q 3559 1806 3559 1356
Q 3559 666 3084 287
Q 2609 -91 1734 -91
Q 1441 -91 1130 -33
Q 819 25 488 141
L 488 750
Q 750 597 1062 519
Q 1375 441 1716 441
Q 2309 441 2620 675
Q 2931 909 2931 1356
Q 2931 1769 2642 2001
Q 2353 2234 1838 2234
L 1294 2234
L 1294 2753
L 1863 2753
Q 2328 2753 2575 2939
Q 2822 3125 2822 3475
Q 2822 3834 2567 4026
Q 2313 4219 1838 4219
Q 1578 4219 1281 4162
Q 984 4106 628 3988
L 628 4550
Q 988 4650 1302 4700
Q 1616 4750 1894 4750
Q 2613 4750 3031 4423
Q 3450 4097 3450 3541
Q 3450 3153 3228 2886
Q 3006 2619 2597 2516
z
" transform="scale(0.015625)"/>
       </defs>
       <use xlink:href="#DejaVuSans-33"/>
       <use xlink:href="#DejaVuSans-30" x="63.623047"/>
      </g>
     </g>
    </g>
    <g id="xtick_6">
     <g id="line2d_11">
      <path d="M 332.545318 273.312
L 332.545318 7.2
" clip-path="url(#pfa1491233d)" style="fill: none; stroke: #b0b0b0; stroke-width: 0.8; stroke-linecap: square"/>
     </g>
     <g id="line2d_12">
      <g>
       <use xlink:href="#m6c21c1e541" x="332.545318" y="273.312" style="stroke: #000000; stroke-width: 0.8"/>
      </g>
     </g>
     <g id="text_6">
      <!-- 40 -->
      <g transform="translate(326.182818 287.910437) scale(0.1 -0.1)">
       <defs>
        <path id="DejaVuSans-34" d="M 2419 4116
L 825 1625
L 2419 1625
L 2419 4116
z
M 2253 4666
L 3047 4666
L 3047 1625
L 3713 1625
L 3713 1100
L 3047 1100
L 3047 0
L 2419 0
L 2419 1100
L 313 1100
L 313 1709
L 2253 4666
z
" transform="scale(0.015625)"/>
       </defs>
       <use xlink:href="#DejaVuSans-34"/>
       <use xlink:href="#DejaVuSans-30" x="63.623047"/>
      </g>
     </g>
    </g>
    <g id="xtick_7">
     <g id="line2d_13">
      <path d="M 385.052927 273.312
L 385.052927 7.2
" clip-path="url(#pfa1491233d)" style="fill: none; stroke: #b0b0b0; stroke-width: 0.8; stroke-linecap: square"/>
     </g>
     <g id="line2d_14">
      <g>
       <use xlink:href="#m6c21c1e541" x="385.052927" y="273.312" style="stroke: #000000; stroke-width: 0.8"/>
      </g>
     </g>
     <g id="text_7">
      <!-- 50 -->
      <g transform="translate(378.690427 287.910437) scale(0.1 -0.1)">
       <defs>
        <path id="DejaVuSans-35" d="M 691 4666
L 3169 4666
L 3169 4134
L 1269 4134
L 1269 2991
Q 1406 3038 1543 3061
Q 1681 3084 1819 3084
Q 2600 3084 3056 2656
Q 3513 2228 3513 1497
Q 3513 744 3044 326
Q 2575 -91 1722 -91
Q 1428 -91 1123 -41
Q 819 9 494 109
L 494 744
Q 775 591 1075 516
Q 1375 441 1709 441
Q 2250 441 2565 725
Q 2881 1009 2881 1497
Q 2881 1984 2565 2268
Q 2250 2553 1709 2553
Q 1456 2553 1204 2497
Q 953 2441 691 2322
L 691 4666
z
" transform="scale(0.015625)"/>
       </defs>
       <use xlink:href="#DejaVuSans-35"/>
       <use xlink:href="#DejaVuSans-30" x="63.623047"/>
      </g>
     </g>
    </g>
   </g>
   <g id="matplotlib.axis_2">
    <g id="ytick_1">
     <g id="line2d_15">
      <path d="M 39.65 273.312
L 396.77 273.312
" clip-path="url(#pfa1491233d)" style="fill: none; stroke: #b0b0b0; stroke-width: 0.8; stroke-linecap: square"/>
     </g>
     <g id="line2d_16">
      <defs>
       <path id="m6898a3f596" d="M 0 0
L -3.5 0
" style="stroke: #000000; stroke-width: 0.8"/>
      </defs>
      <g>
       <use xlink:href="#m6898a3f596" x="39.65" y="273.312" style="stroke: #000000; stroke-width: 0.8"/>
      </g>
     </g>
     <g id="text_8">
      <!-- 0 -->
      <g transform="translate(26.2875 277.111219) scale(0.1 -0.1)">
       <use xlink:href="#DejaVuSans-30"/>
      </g>
     </g>
    </g>
    <g id="ytick_2">
     <g id="line2d_17">
      <path d="M 39.65 228.848842
L 396.77 228.848842
" clip-path="url(#pfa1491233d)" style="fill: none; stroke: #b0b0b0; stroke-width: 0.8; stroke-linecap: square"/>
     </g>
     <g id="line2d_18">
      <g>
       <use xlink:href="#m6898a3f596" x="39.65" y="228.848842" style="stroke: #000000; stroke-width: 0.8"/>
      </g>
     </g>
     <g id="text_9">
      <!-- 500 -->
      <g transform="translate(13.5625 232.648061) scale(0.1 -0.1)">
       <use xlink:href="#DejaVuSans-35"/>
       <use xlink:href="#DejaVuSans-30" x="63.623047"/>
       <use xlink:href="#DejaVuSans-30" x="127.246094"/>
      </g>
     </g>
    </g>
    <g id="ytick_3">
     <g id="line2d_19">
      <path d="M 39.65 184.385684
L 396.77 184.385684
" clip-path="url(#pfa1491233d)" style="fill: none; stroke: #b0b0b0; stroke-width: 0.8; stroke-linecap: square"/>
     </g>
     <g id="line2d_20">
      <g>
       <use xlink:href="#m6898a3f596" x="39.65" y="184.385684" style="stroke: #000000; stroke-width: 0.8"/>
      </g>
     </g>
     <g id="text_10">
      <!-- 1000 -->
      <g transform="translate(7.2 188.184903) scale(0.1 -0.1)">
       <use xlink:href="#DejaVuSans-31"/>
       <use xlink:href="#DejaVuSans-30" x="63.623047"/>
       <use xlink:href="#DejaVuSans-30" x="127.246094"/>
       <use xlink:href="#DejaVuSans-30" x="190.869141"/>
      </g>
     </g>
    </g>
    <g id="ytick_4">
     <g id="line2d_21">
      <path d="M 39.65 139.922526
L 396.77 139.922526
" clip-path="url(#pfa1491233d)" style="fill: none; stroke: #b0b0b0; stroke-width: 0.8; stroke-linecap: square"/>
     </g>
     <g id="line2d_22">
      <g>
       <use xlink:href="#m6898a3f596" x="39.65" y="139.922526" style="stroke: #000000; stroke-width: 0.8"/>
      </g>
     </g>
     <g id="text_11">
      <!-- 1500 -->
      <g transform="translate(7.2 143.721745) scale(0.1 -0.1)">
       <use xlink:href="#DejaVuSans-31"/>
       <use xlink:href="#DejaVuSans-35" x="63.623047"/>
       <use xlink:href="#DejaVuSans-30" x="127.246094"/>
       <use xlink:href="#DejaVuSans-30" x="190.869141"/>
      </g>
     </g>
    </g>
    <g id="ytick_5">
     <g id="line2d_23">
      <path d="M 39.65 95.459368
L 396.77 95.459368
" clip-path="url(#pfa1491233d)" style="fill: none; stroke: #b0b0b0; stroke-width: 0.8; stroke-linecap: square"/>
     </g>
     <g id="line2d_24">
      <g>
       <use xlink:href="#m6898a3f596" x="39.65" y="95.459368" style="stroke: #000000; stroke-width: 0.8"/>
      </g>
     </g>
     <g id="text_12">
      <!-- 2000 -->
      <g transform="translate(7.2 99.258587) scale(0.1 -0.1)">
       <use xlink:href="#DejaVuSans-32"/>
       <use xlink:href="#DejaVuSans-30" x="63.623047"/>
       <use xlink:href="#DejaVuSans-30" x="127.246094"/>
       <use xlink:href="#DejaVuSans-30" x="190.869141"/>
      </g>
     </g>
    </g>
    <g id="ytick_6">
     <g id="line2d_25">
      <path d="M 39.65 50.996211
L 396.77 50.996211
" clip-path="url(#pfa1491233d)" style="fill: none; stroke: #b0b0b0; stroke-width: 0.8; stroke-linecap: square"/>
     </g>
     <g id="line2d_26">
      <g>
       <use xlink:href="#m6898a3f596" x="39.65" y="50.996211" style="stroke: #000000; stroke-width: 0.8"/>
      </g>
     </g>
     <g id="text_13">
      <!-- 2500 -->
      <g transform="translate(7.2 54.795429) scale(0.1 -0.1)">
       <use xlink:href="#DejaVuSans-32"/>
       <use xlink:href="#DejaVuSans-35" x="63.623047"/>
       <use xlink:href="#DejaVuSans-30" x="127.246094"/>
       <use xlink:href="#DejaVuSans-30" x="190.869141"/>
      </g>
     </g>
    </g>
   </g>
   <g id="patch_103">
    <path d="M 39.65 273.312
L 39.65 7.2
" style="fill: none; stroke: #000000; stroke-width: 0.8; stroke-linejoin: miter; stroke-linecap: square"/>
   </g>
   <g id="patch_104">
    <path d="M 396.77 273.312
L 396.77 7.2
" style="fill: none; stroke: #000000; stroke-width: 0.8; stroke-linejoin: miter; stroke-linecap: square"/>
   </g>
   <g id="patch_105">
    <path d="M 39.65 273.312
L 396.77 273.312
" style="fill: none; stroke: #000000; stroke-width: 0.8; stroke-linejoin: miter; stroke-linecap: square"/>
   </g>
   <g id="patch_106">
    <path d="M 39.65 7.2
L 396.77 7.2
" style="fill: none; stroke: #000000; stroke-width: 0.8; stroke-linejoin: miter; stroke-linecap: square"/>
   </g>
  </g>
 </g>
 <defs>
  <clipPath id="pfa1491233d">
   <rect x="39.65" y="7.2" width="357.12" height="266.112"/>
  </clipPath>
 </defs>
</svg>
