<?xml version="1.0" encoding="utf-8" standalone="no"?>
<!DOCTYPE svg PUBLIC "-//W3C//DTD SVG 1.1//EN"
  "http://www.w3.org/Graphics/SVG/1.1/DTD/svg11.dtd">
<svg xmlns:xlink="http://www.w3.org/1999/xlink" width="263.6875pt" height="141.958125pt" viewBox="0 0 263.6875 141.958125" xmlns="http://www.w3.org/2000/svg" version="1.1">
 <metadata>
  <rdf:RDF xmlns:dc="http://purl.org/dc/elements/1.1/" xmlns:cc="http://creativecommons.org/ns#" xmlns:rdf="http://www.w3.org/1999/02/22-rdf-syntax-ns#">
   <cc:Work>
    <dc:type rdf:resource="http://purl.org/dc/dcmitype/StillImage"/>
    <dc:date>2023-06-23T10:46:19.124068</dc:date>
    <dc:format>image/svg+xml</dc:format>
    <dc:creator>
     <cc:Agent>
      <dc:title>Matplotlib v3.7.1, https://matplotlib.org/</dc:title>
     </cc:Agent>
    </dc:creator>
   </cc:Work>
  </rdf:RDF>
 </metadata>
 <defs>
  <style type="text/css">*{stroke-linejoin: round; stroke-linecap: butt}</style>
 </defs>
 <g id="figure_1">
  <g id="patch_1">
   <path d="M 0 141.958125
L 263.6875 141.958125
L 263.6875 0
L 0 0
z
" style="fill: #ffffff"/>
  </g>
  <g id="axes_1">
   <g id="patch_2">
    <path d="M 33.2875 118.08
L 256.4875 118.08
L 256.4875 7.2
L 33.2875 7.2
z
" style="fill: #ffffff"/>
   </g>
   <g id="patch_3">
    <path d="M 43.432955 118.08
L 45.462045 118.08
L 45.462045 117.905743
L 43.432955 117.905743
z
" clip-path="url(#p8a3960b015)" style="fill: #1f77b4"/>
   </g>
   <g id="patch_4">
    <path d="M 45.462045 118.08
L 47.491136 118.08
L 47.491136 117.557228
L 45.462045 117.557228
z
" clip-path="url(#p8a3960b015)" style="fill: #1f77b4"/>
   </g>
   <g id="patch_5">
    <path d="M 47.491136 118.08
L 49.520227 118.08
L 49.520227 118.08
L 47.491136 118.08
z
" clip-path="url(#p8a3960b015)" style="fill: #1f77b4"/>
   </g>
   <g id="patch_6">
    <path d="M 49.520227 118.08
L 51.549318 118.08
L 51.549318 117.905743
L 49.520227 117.905743
z
" clip-path="url(#p8a3960b015)" style="fill: #1f77b4"/>
   </g>
   <g id="patch_7">
    <path d="M 51.549318 118.08
L 53.578409 118.08
L 53.578409 117.905743
L 51.549318 117.905743
z
" clip-path="url(#p8a3960b015)" style="fill: #1f77b4"/>
   </g>
   <g id="patch_8">
    <path d="M 53.578409 118.08
L 55.6075 118.08
L 55.6075 118.08
L 53.578409 118.08
z
" clip-path="url(#p8a3960b015)" style="fill: #1f77b4"/>
   </g>
   <g id="patch_9">
    <path d="M 55.6075 118.08
L 57.636591 118.08
L 57.636591 117.557228
L 55.6075 117.557228
z
" clip-path="url(#p8a3960b015)" style="fill: #1f77b4"/>
   </g>
   <g id="patch_10">
    <path d="M 57.636591 118.08
L 59.665682 118.08
L 59.665682 118.08
L 57.636591 118.08
z
" clip-path="url(#p8a3960b015)" style="fill: #1f77b4"/>
   </g>
   <g id="patch_11">
    <path d="M 59.665682 118.08
L 61.694773 118.08
L 61.694773 117.557228
L 59.665682 117.557228
z
" clip-path="url(#p8a3960b015)" style="fill: #1f77b4"/>
   </g>
   <g id="patch_12">
    <path d="M 61.694773 118.08
L 63.723864 118.08
L 63.723864 117.731485
L 61.694773 117.731485
z
" clip-path="url(#p8a3960b015)" style="fill: #1f77b4"/>
   </g>
   <g id="patch_13">
    <path d="M 63.723864 118.08
L 65.752955 118.08
L 65.752955 118.08
L 63.723864 118.08
z
" clip-path="url(#p8a3960b015)" style="fill: #1f77b4"/>
   </g>
   <g id="patch_14">
    <path d="M 65.752955 118.08
L 67.782045 118.08
L 67.782045 117.905743
L 65.752955 117.905743
z
" clip-path="url(#p8a3960b015)" style="fill: #1f77b4"/>
   </g>
   <g id="patch_15">
    <path d="M 67.782045 118.08
L 69.811136 118.08
L 69.811136 117.731485
L 67.782045 117.731485
z
" clip-path="url(#p8a3960b015)" style="fill: #1f77b4"/>
   </g>
   <g id="patch_16">
    <path d="M 69.811136 118.08
L 71.840227 118.08
L 71.840227 117.38297
L 69.811136 117.38297
z
" clip-path="url(#p8a3960b015)" style="fill: #1f77b4"/>
   </g>
   <g id="patch_17">
    <path d="M 71.840227 118.08
L 73.869318 118.08
L 73.869318 117.38297
L 71.840227 117.38297
z
" clip-path="url(#p8a3960b015)" style="fill: #1f77b4"/>
   </g>
   <g id="patch_18">
    <path d="M 73.869318 118.08
L 75.898409 118.08
L 75.898409 116.860198
L 73.869318 116.860198
z
" clip-path="url(#p8a3960b015)" style="fill: #1f77b4"/>
   </g>
   <g id="patch_19">
    <path d="M 75.898409 118.08
L 77.9275 118.08
L 77.9275 116.860198
L 75.898409 116.860198
z
" clip-path="url(#p8a3960b015)" style="fill: #1f77b4"/>
   </g>
   <g id="patch_20">
    <path d="M 77.9275 118.08
L 79.956591 118.08
L 79.956591 115.117624
L 77.9275 115.117624
z
" clip-path="url(#p8a3960b015)" style="fill: #1f77b4"/>
   </g>
   <g id="patch_21">
    <path d="M 79.956591 118.08
L 81.985682 118.08
L 81.985682 117.38297
L 79.956591 117.38297
z
" clip-path="url(#p8a3960b015)" style="fill: #1f77b4"/>
   </g>
   <g id="patch_22">
    <path d="M 81.985682 118.08
L 84.014773 118.08
L 84.014773 116.163168
L 81.985682 116.163168
z
" clip-path="url(#p8a3960b015)" style="fill: #1f77b4"/>
   </g>
   <g id="patch_23">
    <path d="M 84.014773 118.08
L 86.043864 118.08
L 86.043864 116.337426
L 84.014773 116.337426
z
" clip-path="url(#p8a3960b015)" style="fill: #1f77b4"/>
   </g>
   <g id="patch_24">
    <path d="M 86.043864 118.08
L 88.072955 118.08
L 88.072955 114.420594
L 86.043864 114.420594
z
" clip-path="url(#p8a3960b015)" style="fill: #1f77b4"/>
   </g>
   <g id="patch_25">
    <path d="M 88.072955 118.08
L 90.102045 118.08
L 90.102045 112.503762
L 88.072955 112.503762
z
" clip-path="url(#p8a3960b015)" style="fill: #1f77b4"/>
   </g>
   <g id="patch_26">
    <path d="M 90.102045 118.08
L 92.131136 118.08
L 92.131136 113.723564
L 90.102045 113.723564
z
" clip-path="url(#p8a3960b015)" style="fill: #1f77b4"/>
   </g>
   <g id="patch_27">
    <path d="M 92.131136 118.08
L 94.160227 118.08
L 94.160227 113.897822
L 92.131136 113.897822
z
" clip-path="url(#p8a3960b015)" style="fill: #1f77b4"/>
   </g>
   <g id="patch_28">
    <path d="M 94.160227 118.08
L 96.189318 118.08
L 96.189318 112.329505
L 94.160227 112.329505
z
" clip-path="url(#p8a3960b015)" style="fill: #1f77b4"/>
   </g>
   <g id="patch_29">
    <path d="M 96.189318 118.08
L 98.218409 118.08
L 98.218409 109.367129
L 96.189318 109.367129
z
" clip-path="url(#p8a3960b015)" style="fill: #1f77b4"/>
   </g>
   <g id="patch_30">
    <path d="M 98.218409 118.08
L 100.2475 118.08
L 100.2475 107.624554
L 98.218409 107.624554
z
" clip-path="url(#p8a3960b015)" style="fill: #1f77b4"/>
   </g>
   <g id="patch_31">
    <path d="M 100.2475 118.08
L 102.276591 118.08
L 102.276591 106.404752
L 100.2475 106.404752
z
" clip-path="url(#p8a3960b015)" style="fill: #1f77b4"/>
   </g>
   <g id="patch_32">
    <path d="M 102.276591 118.08
L 104.305682 118.08
L 104.305682 106.404752
L 102.276591 106.404752
z
" clip-path="url(#p8a3960b015)" style="fill: #1f77b4"/>
   </g>
   <g id="patch_33">
    <path d="M 104.305682 118.08
L 106.334773 118.08
L 106.334773 102.222574
L 104.305682 102.222574
z
" clip-path="url(#p8a3960b015)" style="fill: #1f77b4"/>
   </g>
   <g id="patch_34">
    <path d="M 106.334773 118.08
L 108.363864 118.08
L 108.363864 105.010693
L 106.334773 105.010693
z
" clip-path="url(#p8a3960b015)" style="fill: #1f77b4"/>
   </g>
   <g id="patch_35">
    <path d="M 108.363864 118.08
L 110.392955 118.08
L 110.392955 104.836436
L 108.363864 104.836436
z
" clip-path="url(#p8a3960b015)" style="fill: #1f77b4"/>
   </g>
   <g id="patch_36">
    <path d="M 110.392955 118.08
L 112.422045 118.08
L 112.422045 103.965149
L 110.392955 103.965149
z
" clip-path="url(#p8a3960b015)" style="fill: #1f77b4"/>
   </g>
   <g id="patch_37">
    <path d="M 112.422045 118.08
L 114.451136 118.08
L 114.451136 97.517624
L 112.422045 97.517624
z
" clip-path="url(#p8a3960b015)" style="fill: #1f77b4"/>
   </g>
   <g id="patch_38">
    <path d="M 114.451136 118.08
L 116.480227 118.08
L 116.480227 96.820594
L 114.451136 96.820594
z
" clip-path="url(#p8a3960b015)" style="fill: #1f77b4"/>
   </g>
   <g id="patch_39">
    <path d="M 116.480227 118.08
L 118.509318 118.08
L 118.509318 100.305743
L 116.480227 100.305743
z
" clip-path="url(#p8a3960b015)" style="fill: #1f77b4"/>
   </g>
   <g id="patch_40">
    <path d="M 118.509318 118.08
L 120.538409 118.08
L 120.538409 95.426535
L 118.509318 95.426535
z
" clip-path="url(#p8a3960b015)" style="fill: #1f77b4"/>
   </g>
   <g id="patch_41">
    <path d="M 120.538409 118.08
L 122.5675 118.08
L 122.5675 87.759208
L 120.538409 87.759208
z
" clip-path="url(#p8a3960b015)" style="fill: #1f77b4"/>
   </g>
   <g id="patch_42">
    <path d="M 122.5675 118.08
L 124.596591 118.08
L 124.596591 83.751287
L 122.5675 83.751287
z
" clip-path="url(#p8a3960b015)" style="fill: #1f77b4"/>
   </g>
   <g id="patch_43">
    <path d="M 124.596591 118.08
L 126.625682 118.08
L 126.625682 87.759208
L 124.596591 87.759208
z
" clip-path="url(#p8a3960b015)" style="fill: #1f77b4"/>
   </g>
   <g id="patch_44">
    <path d="M 126.625682 118.08
L 128.654773 118.08
L 128.654773 88.456238
L 126.625682 88.456238
z
" clip-path="url(#p8a3960b015)" style="fill: #1f77b4"/>
   </g>
   <g id="patch_45">
    <path d="M 128.654773 118.08
L 130.683864 118.08
L 130.683864 86.887921
L 128.654773 86.887921
z
" clip-path="url(#p8a3960b015)" style="fill: #1f77b4"/>
   </g>
   <g id="patch_46">
    <path d="M 130.683864 118.08
L 132.712955 118.08
L 132.712955 82.88
L 130.683864 82.88
z
" clip-path="url(#p8a3960b015)" style="fill: #1f77b4"/>
   </g>
   <g id="patch_47">
    <path d="M 132.712955 118.08
L 134.742045 118.08
L 134.742045 81.660198
L 132.712955 81.660198
z
" clip-path="url(#p8a3960b015)" style="fill: #1f77b4"/>
   </g>
   <g id="patch_48">
    <path d="M 134.742045 118.08
L 136.771136 118.08
L 136.771136 73.644356
L 134.742045 73.644356
z
" clip-path="url(#p8a3960b015)" style="fill: #1f77b4"/>
   </g>
   <g id="patch_49">
    <path d="M 136.771136 118.08
L 138.800227 118.08
L 138.800227 61.446337
L 136.771136 61.446337
z
" clip-path="url(#p8a3960b015)" style="fill: #1f77b4"/>
   </g>
   <g id="patch_50">
    <path d="M 138.800227 118.08
L 140.829318 118.08
L 140.829318 55.695842
L 138.800227 55.695842
z
" clip-path="url(#p8a3960b015)" style="fill: #1f77b4"/>
   </g>
   <g id="patch_51">
    <path d="M 140.829318 118.08
L 142.858409 118.08
L 142.858409 44.543366
L 140.829318 44.543366
z
" clip-path="url(#p8a3960b015)" style="fill: #1f77b4"/>
   </g>
   <g id="patch_52">
    <path d="M 142.858409 118.08
L 144.8875 118.08
L 144.8875 49.074059
L 142.858409 49.074059
z
" clip-path="url(#p8a3960b015)" style="fill: #1f77b4"/>
   </g>
   <g id="patch_53">
    <path d="M 144.8875 118.08
L 146.916591 118.08
L 146.916591 49.596832
L 144.8875 49.596832
z
" clip-path="url(#p8a3960b015)" style="fill: #1f77b4"/>
   </g>
   <g id="patch_54">
    <path d="M 146.916591 118.08
L 148.945682 118.08
L 148.945682 38.270099
L 146.916591 38.270099
z
" clip-path="url(#p8a3960b015)" style="fill: #1f77b4"/>
   </g>
   <g id="patch_55">
    <path d="M 148.945682 118.08
L 150.974773 118.08
L 150.974773 39.838416
L 148.945682 39.838416
z
" clip-path="url(#p8a3960b015)" style="fill: #1f77b4"/>
   </g>
   <g id="patch_56">
    <path d="M 150.974773 118.08
L 153.003864 118.08
L 153.003864 32.868119
L 150.974773 32.868119
z
" clip-path="url(#p8a3960b015)" style="fill: #1f77b4"/>
   </g>
   <g id="patch_57">
    <path d="M 153.003864 118.08
L 155.032955 118.08
L 155.032955 29.731485
L 153.003864 29.731485
z
" clip-path="url(#p8a3960b015)" style="fill: #1f77b4"/>
   </g>
   <g id="patch_58">
    <path d="M 155.032955 118.08
L 157.062045 118.08
L 157.062045 27.640396
L 155.032955 27.640396
z
" clip-path="url(#p8a3960b015)" style="fill: #1f77b4"/>
   </g>
   <g id="patch_59">
    <path d="M 157.062045 118.08
L 159.091136 118.08
L 159.091136 23.632475
L 157.062045 23.632475
z
" clip-path="url(#p8a3960b015)" style="fill: #1f77b4"/>
   </g>
   <g id="patch_60">
    <path d="M 159.091136 118.08
L 161.120227 118.08
L 161.120227 28.511683
L 159.091136 28.511683
z
" clip-path="url(#p8a3960b015)" style="fill: #1f77b4"/>
   </g>
   <g id="patch_61">
    <path d="M 161.120227 118.08
L 163.149318 118.08
L 163.149318 22.064158
L 161.120227 22.064158
z
" clip-path="url(#p8a3960b015)" style="fill: #1f77b4"/>
   </g>
   <g id="patch_62">
    <path d="M 163.149318 118.08
L 165.178409 118.08
L 165.178409 27.988911
L 163.149318 27.988911
z
" clip-path="url(#p8a3960b015)" style="fill: #1f77b4"/>
   </g>
   <g id="patch_63">
    <path d="M 165.178409 118.08
L 167.2075 118.08
L 167.2075 26.769109
L 165.178409 26.769109
z
" clip-path="url(#p8a3960b015)" style="fill: #1f77b4"/>
   </g>
   <g id="patch_64">
    <path d="M 167.2075 118.08
L 169.236591 118.08
L 169.236591 12.48
L 167.2075 12.48
z
" clip-path="url(#p8a3960b015)" style="fill: #1f77b4"/>
   </g>
   <g id="patch_65">
    <path d="M 169.236591 118.08
L 171.265682 118.08
L 171.265682 25.37505
L 169.236591 25.37505
z
" clip-path="url(#p8a3960b015)" style="fill: #1f77b4"/>
   </g>
   <g id="patch_66">
    <path d="M 171.265682 118.08
L 173.294773 118.08
L 173.294773 32.868119
L 171.265682 32.868119
z
" clip-path="url(#p8a3960b015)" style="fill: #1f77b4"/>
   </g>
   <g id="patch_67">
    <path d="M 173.294773 118.08
L 175.323864 118.08
L 175.323864 46.634455
L 173.294773 46.634455
z
" clip-path="url(#p8a3960b015)" style="fill: #1f77b4"/>
   </g>
   <g id="patch_68">
    <path d="M 175.323864 118.08
L 177.352955 118.08
L 177.352955 52.38495
L 175.323864 52.38495
z
" clip-path="url(#p8a3960b015)" style="fill: #1f77b4"/>
   </g>
   <g id="patch_69">
    <path d="M 177.352955 118.08
L 179.382045 118.08
L 179.382045 47.157228
L 177.352955 47.157228
z
" clip-path="url(#p8a3960b015)" style="fill: #1f77b4"/>
   </g>
   <g id="patch_70">
    <path d="M 179.382045 118.08
L 181.411136 118.08
L 181.411136 61.620594
L 179.382045 61.620594
z
" clip-path="url(#p8a3960b015)" style="fill: #1f77b4"/>
   </g>
   <g id="patch_71">
    <path d="M 181.411136 118.08
L 183.440227 118.08
L 183.440227 68.765149
L 181.411136 68.765149
z
" clip-path="url(#p8a3960b015)" style="fill: #1f77b4"/>
   </g>
   <g id="patch_72">
    <path d="M 183.440227 118.08
L 185.469318 118.08
L 185.469318 69.113663
L 183.440227 69.113663
z
" clip-path="url(#p8a3960b015)" style="fill: #1f77b4"/>
   </g>
   <g id="patch_73">
    <path d="M 185.469318 118.08
L 187.498409 118.08
L 187.498409 75.386931
L 185.469318 75.386931
z
" clip-path="url(#p8a3960b015)" style="fill: #1f77b4"/>
   </g>
   <g id="patch_74">
    <path d="M 187.498409 118.08
L 189.5275 118.08
L 189.5275 79.046337
L 187.498409 79.046337
z
" clip-path="url(#p8a3960b015)" style="fill: #1f77b4"/>
   </g>
   <g id="patch_75">
    <path d="M 189.5275 118.08
L 191.556591 118.08
L 191.556591 81.660198
L 189.5275 81.660198
z
" clip-path="url(#p8a3960b015)" style="fill: #1f77b4"/>
   </g>
   <g id="patch_76">
    <path d="M 191.556591 118.08
L 193.585682 118.08
L 193.585682 92.638416
L 191.556591 92.638416
z
" clip-path="url(#p8a3960b015)" style="fill: #1f77b4"/>
   </g>
   <g id="patch_77">
    <path d="M 193.585682 118.08
L 195.614773 118.08
L 195.614773 91.592871
L 193.585682 91.592871
z
" clip-path="url(#p8a3960b015)" style="fill: #1f77b4"/>
   </g>
   <g id="patch_78">
    <path d="M 195.614773 118.08
L 197.643864 118.08
L 197.643864 93.509703
L 195.614773 93.509703
z
" clip-path="url(#p8a3960b015)" style="fill: #1f77b4"/>
   </g>
   <g id="patch_79">
    <path d="M 197.643864 118.08
L 199.672955 118.08
L 199.672955 99.957228
L 197.643864 99.957228
z
" clip-path="url(#p8a3960b015)" style="fill: #1f77b4"/>
   </g>
   <g id="patch_80">
    <path d="M 199.672955 118.08
L 201.702045 118.08
L 201.702045 106.404752
L 199.672955 106.404752
z
" clip-path="url(#p8a3960b015)" style="fill: #1f77b4"/>
   </g>
   <g id="patch_81">
    <path d="M 201.702045 118.08
L 203.731136 118.08
L 203.731136 106.927525
L 201.702045 106.927525
z
" clip-path="url(#p8a3960b015)" style="fill: #1f77b4"/>
   </g>
   <g id="patch_82">
    <path d="M 203.731136 118.08
L 205.760227 118.08
L 205.760227 105.010693
L 203.731136 105.010693
z
" clip-path="url(#p8a3960b015)" style="fill: #1f77b4"/>
   </g>
   <g id="patch_83">
    <path d="M 205.760227 118.08
L 207.789318 118.08
L 207.789318 106.404752
L 205.760227 106.404752
z
" clip-path="url(#p8a3960b015)" style="fill: #1f77b4"/>
   </g>
   <g id="patch_84">
    <path d="M 207.789318 118.08
L 209.818409 118.08
L 209.818409 108.321584
L 207.789318 108.321584
z
" clip-path="url(#p8a3960b015)" style="fill: #1f77b4"/>
   </g>
   <g id="patch_85">
    <path d="M 209.818409 118.08
L 211.8475 118.08
L 211.8475 106.57901
L 209.818409 106.57901
z
" clip-path="url(#p8a3960b015)" style="fill: #1f77b4"/>
   </g>
   <g id="patch_86">
    <path d="M 211.8475 118.08
L 213.876591 118.08
L 213.876591 108.495842
L 211.8475 108.495842
z
" clip-path="url(#p8a3960b015)" style="fill: #1f77b4"/>
   </g>
   <g id="patch_87">
    <path d="M 213.876591 118.08
L 215.905682 118.08
L 215.905682 110.935446
L 213.876591 110.935446
z
" clip-path="url(#p8a3960b015)" style="fill: #1f77b4"/>
   </g>
   <g id="patch_88">
    <path d="M 215.905682 118.08
L 217.934773 118.08
L 217.934773 111.806733
L 215.905682 111.806733
z
" clip-path="url(#p8a3960b015)" style="fill: #1f77b4"/>
   </g>
   <g id="patch_89">
    <path d="M 217.934773 118.08
L 219.963864 118.08
L 219.963864 114.420594
L 217.934773 114.420594
z
" clip-path="url(#p8a3960b015)" style="fill: #1f77b4"/>
   </g>
   <g id="patch_90">
    <path d="M 219.963864 118.08
L 221.992955 118.08
L 221.992955 116.163168
L 219.963864 116.163168
z
" clip-path="url(#p8a3960b015)" style="fill: #1f77b4"/>
   </g>
   <g id="patch_91">
    <path d="M 221.992955 118.08
L 224.022045 118.08
L 224.022045 115.988911
L 221.992955 115.988911
z
" clip-path="url(#p8a3960b015)" style="fill: #1f77b4"/>
   </g>
   <g id="patch_92">
    <path d="M 224.022045 118.08
L 226.051136 118.08
L 226.051136 116.337426
L 224.022045 116.337426
z
" clip-path="url(#p8a3960b015)" style="fill: #1f77b4"/>
   </g>
   <g id="patch_93">
    <path d="M 226.051136 118.08
L 228.080227 118.08
L 228.080227 115.466139
L 226.051136 115.466139
z
" clip-path="url(#p8a3960b015)" style="fill: #1f77b4"/>
   </g>
   <g id="patch_94">
    <path d="M 228.080227 118.08
L 230.109318 118.08
L 230.109318 116.163168
L 228.080227 116.163168
z
" clip-path="url(#p8a3960b015)" style="fill: #1f77b4"/>
   </g>
   <g id="patch_95">
    <path d="M 230.109318 118.08
L 232.138409 118.08
L 232.138409 116.685941
L 230.109318 116.685941
z
" clip-path="url(#p8a3960b015)" style="fill: #1f77b4"/>
   </g>
   <g id="patch_96">
    <path d="M 232.138409 118.08
L 234.1675 118.08
L 234.1675 117.38297
L 232.138409 117.38297
z
" clip-path="url(#p8a3960b015)" style="fill: #1f77b4"/>
   </g>
   <g id="patch_97">
    <path d="M 234.1675 118.08
L 236.196591 118.08
L 236.196591 117.731485
L 234.1675 117.731485
z
" clip-path="url(#p8a3960b015)" style="fill: #1f77b4"/>
   </g>
   <g id="patch_98">
    <path d="M 236.196591 118.08
L 238.225682 118.08
L 238.225682 117.557228
L 236.196591 117.557228
z
" clip-path="url(#p8a3960b015)" style="fill: #1f77b4"/>
   </g>
   <g id="patch_99">
    <path d="M 238.225682 118.08
L 240.254773 118.08
L 240.254773 117.731485
L 238.225682 117.731485
z
" clip-path="url(#p8a3960b015)" style="fill: #1f77b4"/>
   </g>
   <g id="patch_100">
    <path d="M 240.254773 118.08
L 242.283864 118.08
L 242.283864 117.731485
L 240.254773 117.731485
z
" clip-path="url(#p8a3960b015)" style="fill: #1f77b4"/>
   </g>
   <g id="patch_101">
    <path d="M 242.283864 118.08
L 244.312955 118.08
L 244.312955 117.208713
L 242.283864 117.208713
z
" clip-path="url(#p8a3960b015)" style="fill: #1f77b4"/>
   </g>
   <g id="patch_102">
    <path d="M 244.312955 118.08
L 246.342045 118.08
L 246.342045 117.731485
L 244.312955 117.731485
z
" clip-path="url(#p8a3960b015)" style="fill: #1f77b4"/>
   </g>
   <g id="matplotlib.axis_1">
    <g id="xtick_1">
     <g id="line2d_1">
      <path d="M 44.269543 118.08
L 44.269543 7.2
" clip-path="url(#p8a3960b015)" style="fill: none; stroke: #b0b0b0; stroke-width: 0.8; stroke-linecap: square"/>
     </g>
     <g id="line2d_2">
      <defs>
       <path id="maf2a9c3de0" d="M 0 0
L 0 3.5
" style="stroke: #000000; stroke-width: 0.8"/>
      </defs>
      <g>
       <use xlink:href="#maf2a9c3de0" x="44.269543" y="118.08" style="stroke: #000000; stroke-width: 0.8"/>
      </g>
     </g>
     <g id="text_1">
      <!-- −40 -->
      <g transform="translate(33.717199 132.678438) scale(0.1 -0.1)">
       <defs>
        <path id="DejaVuSans-2212" d="M 678 2272
L 4684 2272
L 4684 1741
L 678 1741
L 678 2272
z
" transform="scale(0.015625)"/>
        <path id="DejaVuSans-34" d="M 2419 4116
L 825 1625
L 2419 1625
L 2419 4116
z
M 2253 4666
L 3047 4666
L 3047 1625
L 3713 1625
L 3713 1100
L 3047 1100
L 3047 0
L 2419 0
L 2419 1100
L 313 1100
L 313 1709
L 2253 4666
z
" transform="scale(0.015625)"/>
        <path id="DejaVuSans-30" d="M 2034 4250
Q 1547 4250 1301 3770
Q 1056 3291 1056 2328
Q 1056 1369 1301 889
Q 1547 409 2034 409
Q 2525 409 2770 889
Q 3016 1369 3016 2328
Q 3016 3291 2770 3770
Q 2525 4250 2034 4250
z
M 2034 4750
Q 2819 4750 3233 4129
Q 3647 3509 3647 2328
Q 3647 1150 3233 529
Q 2819 -91 2034 -91
Q 1250 -91 836 529
Q 422 1150 422 2328
Q 422 3509 836 4129
Q 1250 4750 2034 4750
z
" transform="scale(0.015625)"/>
       </defs>
       <use xlink:href="#DejaVuSans-2212"/>
       <use xlink:href="#DejaVuSans-34" x="83.789062"/>
       <use xlink:href="#DejaVuSans-30" x="147.412109"/>
      </g>
     </g>
    </g>
    <g id="xtick_2">
     <g id="line2d_3">
      <path d="M 100.241983 118.08
L 100.241983 7.2
" clip-path="url(#p8a3960b015)" style="fill: none; stroke: #b0b0b0; stroke-width: 0.8; stroke-linecap: square"/>
     </g>
     <g id="line2d_4">
      <g>
       <use xlink:href="#maf2a9c3de0" x="100.241983" y="118.08" style="stroke: #000000; stroke-width: 0.8"/>
      </g>
     </g>
     <g id="text_2">
      <!-- −20 -->
      <g transform="translate(89.689639 132.678438) scale(0.1 -0.1)">
       <defs>
        <path id="DejaVuSans-32" d="M 1228 531
L 3431 531
L 3431 0
L 469 0
L 469 531
Q 828 903 1448 1529
Q 2069 2156 2228 2338
Q 2531 2678 2651 2914
Q 2772 3150 2772 3378
Q 2772 3750 2511 3984
Q 2250 4219 1831 4219
Q 1534 4219 1204 4116
Q 875 4013 500 3803
L 500 4441
Q 881 4594 1212 4672
Q 1544 4750 1819 4750
Q 2544 4750 2975 4387
Q 3406 4025 3406 3419
Q 3406 3131 3298 2873
Q 3191 2616 2906 2266
Q 2828 2175 2409 1742
Q 1991 1309 1228 531
z
" transform="scale(0.015625)"/>
       </defs>
       <use xlink:href="#DejaVuSans-2212"/>
       <use xlink:href="#DejaVuSans-32" x="83.789062"/>
       <use xlink:href="#DejaVuSans-30" x="147.412109"/>
      </g>
     </g>
    </g>
    <g id="xtick_3">
     <g id="line2d_5">
      <path d="M 156.214423 118.08
L 156.214423 7.2
" clip-path="url(#p8a3960b015)" style="fill: none; stroke: #b0b0b0; stroke-width: 0.8; stroke-linecap: square"/>
     </g>
     <g id="line2d_6">
      <g>
       <use xlink:href="#maf2a9c3de0" x="156.214423" y="118.08" style="stroke: #000000; stroke-width: 0.8"/>
      </g>
     </g>
     <g id="text_3">
      <!-- 0 -->
      <g transform="translate(153.033173 132.678438) scale(0.1 -0.1)">
       <use xlink:href="#DejaVuSans-30"/>
      </g>
     </g>
    </g>
    <g id="xtick_4">
     <g id="line2d_7">
      <path d="M 212.186863 118.08
L 212.186863 7.2
" clip-path="url(#p8a3960b015)" style="fill: none; stroke: #b0b0b0; stroke-width: 0.8; stroke-linecap: square"/>
     </g>
     <g id="line2d_8">
      <g>
       <use xlink:href="#maf2a9c3de0" x="212.186863" y="118.08" style="stroke: #000000; stroke-width: 0.8"/>
      </g>
     </g>
     <g id="text_4">
      <!-- 20 -->
      <g transform="translate(205.824363 132.678438) scale(0.1 -0.1)">
       <use xlink:href="#DejaVuSans-32"/>
       <use xlink:href="#DejaVuSans-30" x="63.623047"/>
      </g>
     </g>
    </g>
   </g>
   <g id="matplotlib.axis_2">
    <g id="ytick_1">
     <g id="line2d_9">
      <path d="M 33.2875 118.08
L 256.4875 118.08
" clip-path="url(#p8a3960b015)" style="fill: none; stroke: #b0b0b0; stroke-width: 0.8; stroke-linecap: square"/>
     </g>
     <g id="line2d_10">
      <defs>
       <path id="m5ef180865c" d="M 0 0
L -3.5 0
" style="stroke: #000000; stroke-width: 0.8"/>
      </defs>
      <g>
       <use xlink:href="#m5ef180865c" x="33.2875" y="118.08" style="stroke: #000000; stroke-width: 0.8"/>
      </g>
     </g>
     <g id="text_5">
      <!-- 0 -->
      <g transform="translate(19.925 121.879219) scale(0.1 -0.1)">
       <use xlink:href="#DejaVuSans-30"/>
      </g>
     </g>
    </g>
    <g id="ytick_2">
     <g id="line2d_11">
      <path d="M 33.2875 83.228515
L 256.4875 83.228515
" clip-path="url(#p8a3960b015)" style="fill: none; stroke: #b0b0b0; stroke-width: 0.8; stroke-linecap: square"/>
     </g>
     <g id="line2d_12">
      <g>
       <use xlink:href="#m5ef180865c" x="33.2875" y="83.228515" style="stroke: #000000; stroke-width: 0.8"/>
      </g>
     </g>
     <g id="text_6">
      <!-- 200 -->
      <g transform="translate(7.2 87.027734) scale(0.1 -0.1)">
       <use xlink:href="#DejaVuSans-32"/>
       <use xlink:href="#DejaVuSans-30" x="63.623047"/>
       <use xlink:href="#DejaVuSans-30" x="127.246094"/>
      </g>
     </g>
    </g>
    <g id="ytick_3">
     <g id="line2d_13">
      <path d="M 33.2875 48.37703
L 256.4875 48.37703
" clip-path="url(#p8a3960b015)" style="fill: none; stroke: #b0b0b0; stroke-width: 0.8; stroke-linecap: square"/>
     </g>
     <g id="line2d_14">
      <g>
       <use xlink:href="#m5ef180865c" x="33.2875" y="48.37703" style="stroke: #000000; stroke-width: 0.8"/>
      </g>
     </g>
     <g id="text_7">
      <!-- 400 -->
      <g transform="translate(7.2 52.176248) scale(0.1 -0.1)">
       <use xlink:href="#DejaVuSans-34"/>
       <use xlink:href="#DejaVuSans-30" x="63.623047"/>
       <use xlink:href="#DejaVuSans-30" x="127.246094"/>
      </g>
     </g>
    </g>
    <g id="ytick_4">
     <g id="line2d_15">
      <path d="M 33.2875 13.525545
L 256.4875 13.525545
" clip-path="url(#p8a3960b015)" style="fill: none; stroke: #b0b0b0; stroke-width: 0.8; stroke-linecap: square"/>
     </g>
     <g id="line2d_16">
      <g>
       <use xlink:href="#m5ef180865c" x="33.2875" y="13.525545" style="stroke: #000000; stroke-width: 0.8"/>
      </g>
     </g>
     <g id="text_8">
      <!-- 600 -->
      <g transform="translate(7.2 17.324763) scale(0.1 -0.1)">
       <defs>
        <path id="DejaVuSans-36" d="M 2113 2584
Q 1688 2584 1439 2293
Q 1191 2003 1191 1497
Q 1191 994 1439 701
Q 1688 409 2113 409
Q 2538 409 2786 701
Q 3034 994 3034 1497
Q 3034 2003 2786 2293
Q 2538 2584 2113 2584
z
M 3366 4563
L 3366 3988
Q 3128 4100 2886 4159
Q 2644 4219 2406 4219
Q 1781 4219 1451 3797
Q 1122 3375 1075 2522
Q 1259 2794 1537 2939
Q 1816 3084 2150 3084
Q 2853 3084 3261 2657
Q 3669 2231 3669 1497
Q 3669 778 3244 343
Q 2819 -91 2113 -91
Q 1303 -91 875 529
Q 447 1150 447 2328
Q 447 3434 972 4092
Q 1497 4750 2381 4750
Q 2619 4750 2861 4703
Q 3103 4656 3366 4563
z
" transform="scale(0.015625)"/>
       </defs>
       <use xlink:href="#DejaVuSans-36"/>
       <use xlink:href="#DejaVuSans-30" x="63.623047"/>
       <use xlink:href="#DejaVuSans-30" x="127.246094"/>
      </g>
     </g>
    </g>
   </g>
   <g id="patch_103">
    <path d="M 33.2875 118.08
L 33.2875 7.2
" style="fill: none; stroke: #000000; stroke-width: 0.8; stroke-linejoin: miter; stroke-linecap: square"/>
   </g>
   <g id="patch_104">
    <path d="M 256.4875 118.08
L 256.4875 7.2
" style="fill: none; stroke: #000000; stroke-width: 0.8; stroke-linejoin: miter; stroke-linecap: square"/>
   </g>
   <g id="patch_105">
    <path d="M 33.2875 118.08
L 256.4875 118.08
" style="fill: none; stroke: #000000; stroke-width: 0.8; stroke-linejoin: miter; stroke-linecap: square"/>
   </g>
   <g id="patch_106">
    <path d="M 33.2875 7.2
L 256.4875 7.2
" style="fill: none; stroke: #000000; stroke-width: 0.8; stroke-linejoin: miter; stroke-linecap: square"/>
   </g>
  </g>
 </g>
 <defs>
  <clipPath id="p8a3960b015">
   <rect x="33.2875" y="7.2" width="223.2" height="110.88"/>
  </clipPath>
 </defs>
</svg>
