<?xml version="1.0" encoding="utf-8" standalone="no"?>
<!DOCTYPE svg PUBLIC "-//W3C//DTD SVG 1.1//EN"
  "http://www.w3.org/Graphics/SVG/1.1/DTD/svg11.dtd">
<svg xmlns:xlink="http://www.w3.org/1999/xlink" width="270.05pt" height="141.958125pt" viewBox="0 0 270.05 141.958125" xmlns="http://www.w3.org/2000/svg" version="1.1">
 <metadata>
  <rdf:RDF xmlns:dc="http://purl.org/dc/elements/1.1/" xmlns:cc="http://creativecommons.org/ns#" xmlns:rdf="http://www.w3.org/1999/02/22-rdf-syntax-ns#">
   <cc:Work>
    <dc:type rdf:resource="http://purl.org/dc/dcmitype/StillImage"/>
    <dc:date>2023-06-23T11:01:36.819015</dc:date>
    <dc:format>image/svg+xml</dc:format>
    <dc:creator>
     <cc:Agent>
      <dc:title>Matplotlib v3.7.1, https://matplotlib.org/</dc:title>
     </cc:Agent>
    </dc:creator>
   </cc:Work>
  </rdf:RDF>
 </metadata>
 <defs>
  <style type="text/css">*{stroke-linejoin: round; stroke-linecap: butt}</style>
 </defs>
 <g id="figure_1">
  <g id="patch_1">
   <path d="M 0 141.958125
L 270.05 141.958125
L 270.05 0
L 0 0
z
" style="fill: #ffffff"/>
  </g>
  <g id="axes_1">
   <g id="patch_2">
    <path d="M 39.65 118.08
L 262.85 118.08
L 262.85 7.2
L 39.65 7.2
z
" style="fill: #ffffff"/>
   </g>
   <g id="patch_3">
    <path d="M 49.795455 118.08
L 51.824545 118.08
L 51.824545 12.48
L 49.795455 12.48
z
" clip-path="url(#p0358172cfb)" style="fill: #1f77b4"/>
   </g>
   <g id="patch_4">
    <path d="M 51.824545 118.08
L 53.853636 118.08
L 53.853636 118.08
L 51.824545 118.08
z
" clip-path="url(#p0358172cfb)" style="fill: #1f77b4"/>
   </g>
   <g id="patch_5">
    <path d="M 53.853636 118.08
L 55.882727 118.08
L 55.882727 112.035214
L 53.853636 112.035214
z
" clip-path="url(#p0358172cfb)" style="fill: #1f77b4"/>
   </g>
   <g id="patch_6">
    <path d="M 55.882727 118.08
L 57.911818 118.08
L 57.911818 118.08
L 55.882727 118.08
z
" clip-path="url(#p0358172cfb)" style="fill: #1f77b4"/>
   </g>
   <g id="patch_7">
    <path d="M 57.911818 118.08
L 59.940909 118.08
L 59.940909 113.32781
L 57.911818 113.32781
z
" clip-path="url(#p0358172cfb)" style="fill: #1f77b4"/>
   </g>
   <g id="patch_8">
    <path d="M 59.940909 118.08
L 61.97 118.08
L 61.97 118.08
L 59.940909 118.08
z
" clip-path="url(#p0358172cfb)" style="fill: #1f77b4"/>
   </g>
   <g id="patch_9">
    <path d="M 61.97 118.08
L 63.999091 118.08
L 63.999091 114.126178
L 61.97 114.126178
z
" clip-path="url(#p0358172cfb)" style="fill: #1f77b4"/>
   </g>
   <g id="patch_10">
    <path d="M 63.999091 118.08
L 66.028182 118.08
L 66.028182 118.08
L 63.999091 118.08
z
" clip-path="url(#p0358172cfb)" style="fill: #1f77b4"/>
   </g>
   <g id="patch_11">
    <path d="M 66.028182 118.08
L 68.057273 118.08
L 68.057273 114.645751
L 66.028182 114.645751
z
" clip-path="url(#p0358172cfb)" style="fill: #1f77b4"/>
   </g>
   <g id="patch_12">
    <path d="M 68.057273 118.08
L 70.086364 118.08
L 70.086364 118.08
L 68.057273 118.08
z
" clip-path="url(#p0358172cfb)" style="fill: #1f77b4"/>
   </g>
   <g id="patch_13">
    <path d="M 70.086364 118.08
L 72.115455 118.08
L 72.115455 115.216013
L 70.086364 115.216013
z
" clip-path="url(#p0358172cfb)" style="fill: #1f77b4"/>
   </g>
   <g id="patch_14">
    <path d="M 72.115455 118.08
L 74.144545 118.08
L 74.144545 115.469464
L 72.115455 115.469464
z
" clip-path="url(#p0358172cfb)" style="fill: #1f77b4"/>
   </g>
   <g id="patch_15">
    <path d="M 74.144545 118.08
L 76.173636 118.08
L 76.173636 118.08
L 74.144545 118.08
z
" clip-path="url(#p0358172cfb)" style="fill: #1f77b4"/>
   </g>
   <g id="patch_16">
    <path d="M 76.173636 118.08
L 78.202727 118.08
L 78.202727 115.646879
L 76.173636 115.646879
z
" clip-path="url(#p0358172cfb)" style="fill: #1f77b4"/>
   </g>
   <g id="patch_17">
    <path d="M 78.202727 118.08
L 80.231818 118.08
L 80.231818 116.191796
L 78.202727 116.191796
z
" clip-path="url(#p0358172cfb)" style="fill: #1f77b4"/>
   </g>
   <g id="patch_18">
    <path d="M 80.231818 118.08
L 82.260909 118.08
L 82.260909 118.08
L 80.231818 118.08
z
" clip-path="url(#p0358172cfb)" style="fill: #1f77b4"/>
   </g>
   <g id="patch_19">
    <path d="M 82.260909 118.08
L 84.29 118.08
L 84.29 116.204469
L 82.260909 116.204469
z
" clip-path="url(#p0358172cfb)" style="fill: #1f77b4"/>
   </g>
   <g id="patch_20">
    <path d="M 84.29 118.08
L 86.319091 118.08
L 86.319091 115.925674
L 84.29 115.925674
z
" clip-path="url(#p0358172cfb)" style="fill: #1f77b4"/>
   </g>
   <g id="patch_21">
    <path d="M 86.319091 118.08
L 88.348182 118.08
L 88.348182 116.445247
L 86.319091 116.445247
z
" clip-path="url(#p0358172cfb)" style="fill: #1f77b4"/>
   </g>
   <g id="patch_22">
    <path d="M 88.348182 118.08
L 90.377273 118.08
L 90.377273 116.255159
L 88.348182 116.255159
z
" clip-path="url(#p0358172cfb)" style="fill: #1f77b4"/>
   </g>
   <g id="patch_23">
    <path d="M 90.377273 118.08
L 92.406364 118.08
L 92.406364 116.217141
L 90.377273 116.217141
z
" clip-path="url(#p0358172cfb)" style="fill: #1f77b4"/>
   </g>
   <g id="patch_24">
    <path d="M 92.406364 118.08
L 94.435455 118.08
L 94.435455 116.533954
L 92.406364 116.533954
z
" clip-path="url(#p0358172cfb)" style="fill: #1f77b4"/>
   </g>
   <g id="patch_25">
    <path d="M 94.435455 118.08
L 96.464545 118.08
L 96.464545 116.711369
L 94.435455 116.711369
z
" clip-path="url(#p0358172cfb)" style="fill: #1f77b4"/>
   </g>
   <g id="patch_26">
    <path d="M 96.464545 118.08
L 98.493636 118.08
L 98.493636 116.812749
L 96.464545 116.812749
z
" clip-path="url(#p0358172cfb)" style="fill: #1f77b4"/>
   </g>
   <g id="patch_27">
    <path d="M 98.493636 118.08
L 100.522727 118.08
L 100.522727 116.888784
L 98.493636 116.888784
z
" clip-path="url(#p0358172cfb)" style="fill: #1f77b4"/>
   </g>
   <g id="patch_28">
    <path d="M 100.522727 118.08
L 102.551818 118.08
L 102.551818 117.040854
L 100.522727 117.040854
z
" clip-path="url(#p0358172cfb)" style="fill: #1f77b4"/>
   </g>
   <g id="patch_29">
    <path d="M 102.551818 118.08
L 104.580909 118.08
L 104.580909 116.800077
L 102.551818 116.800077
z
" clip-path="url(#p0358172cfb)" style="fill: #1f77b4"/>
   </g>
   <g id="patch_30">
    <path d="M 104.580909 118.08
L 106.61 118.08
L 106.61 116.914129
L 104.580909 116.914129
z
" clip-path="url(#p0358172cfb)" style="fill: #1f77b4"/>
   </g>
   <g id="patch_31">
    <path d="M 106.61 118.08
L 108.639091 118.08
L 108.639091 117.192925
L 106.61 117.192925
z
" clip-path="url(#p0358172cfb)" style="fill: #1f77b4"/>
   </g>
   <g id="patch_32">
    <path d="M 108.639091 118.08
L 110.668182 118.08
L 110.668182 116.141106
L 108.639091 116.141106
z
" clip-path="url(#p0358172cfb)" style="fill: #1f77b4"/>
   </g>
   <g id="patch_33">
    <path d="M 110.668182 118.08
L 112.697273 118.08
L 112.697273 117.091544
L 110.668182 117.091544
z
" clip-path="url(#p0358172cfb)" style="fill: #1f77b4"/>
   </g>
   <g id="patch_34">
    <path d="M 112.697273 118.08
L 114.726364 118.08
L 114.726364 117.078872
L 112.697273 117.078872
z
" clip-path="url(#p0358172cfb)" style="fill: #1f77b4"/>
   </g>
   <g id="patch_35">
    <path d="M 114.726364 118.08
L 116.755455 118.08
L 116.755455 115.900329
L 114.726364 115.900329
z
" clip-path="url(#p0358172cfb)" style="fill: #1f77b4"/>
   </g>
   <g id="patch_36">
    <path d="M 116.755455 118.08
L 118.784545 118.08
L 118.784545 117.091544
L 116.755455 117.091544
z
" clip-path="url(#p0358172cfb)" style="fill: #1f77b4"/>
   </g>
   <g id="patch_37">
    <path d="M 118.784545 118.08
L 120.813636 118.08
L 120.813636 116.698697
L 118.784545 116.698697
z
" clip-path="url(#p0358172cfb)" style="fill: #1f77b4"/>
   </g>
   <g id="patch_38">
    <path d="M 120.813636 118.08
L 122.842727 118.08
L 122.842727 116.419902
L 120.813636 116.419902
z
" clip-path="url(#p0358172cfb)" style="fill: #1f77b4"/>
   </g>
   <g id="patch_39">
    <path d="M 122.842727 118.08
L 124.871818 118.08
L 124.871818 117.332322
L 122.842727 117.332322
z
" clip-path="url(#p0358172cfb)" style="fill: #1f77b4"/>
   </g>
   <g id="patch_40">
    <path d="M 124.871818 118.08
L 126.900909 118.08
L 126.900909 116.660679
L 124.871818 116.660679
z
" clip-path="url(#p0358172cfb)" style="fill: #1f77b4"/>
   </g>
   <g id="patch_41">
    <path d="M 126.900909 118.08
L 128.93 118.08
L 128.93 116.901457
L 126.900909 116.901457
z
" clip-path="url(#p0358172cfb)" style="fill: #1f77b4"/>
   </g>
   <g id="patch_42">
    <path d="M 128.93 118.08
L 130.959091 118.08
L 130.959091 116.774732
L 128.93 116.774732
z
" clip-path="url(#p0358172cfb)" style="fill: #1f77b4"/>
   </g>
   <g id="patch_43">
    <path d="M 130.959091 118.08
L 132.988182 118.08
L 132.988182 116.977492
L 130.959091 116.977492
z
" clip-path="url(#p0358172cfb)" style="fill: #1f77b4"/>
   </g>
   <g id="patch_44">
    <path d="M 132.988182 118.08
L 135.017273 118.08
L 135.017273 117.230942
L 132.988182 117.230942
z
" clip-path="url(#p0358172cfb)" style="fill: #1f77b4"/>
   </g>
   <g id="patch_45">
    <path d="M 135.017273 118.08
L 137.046364 118.08
L 137.046364 116.990164
L 135.017273 116.990164
z
" clip-path="url(#p0358172cfb)" style="fill: #1f77b4"/>
   </g>
   <g id="patch_46">
    <path d="M 137.046364 118.08
L 139.075455 118.08
L 139.075455 117.37034
L 137.046364 117.37034
z
" clip-path="url(#p0358172cfb)" style="fill: #1f77b4"/>
   </g>
   <g id="patch_47">
    <path d="M 139.075455 118.08
L 141.104545 118.08
L 141.104545 116.724042
L 139.075455 116.724042
z
" clip-path="url(#p0358172cfb)" style="fill: #1f77b4"/>
   </g>
   <g id="patch_48">
    <path d="M 141.104545 118.08
L 143.133636 118.08
L 143.133636 117.104217
L 141.104545 117.104217
z
" clip-path="url(#p0358172cfb)" style="fill: #1f77b4"/>
   </g>
   <g id="patch_49">
    <path d="M 143.133636 118.08
L 145.162727 118.08
L 145.162727 116.901457
L 143.133636 116.901457
z
" clip-path="url(#p0358172cfb)" style="fill: #1f77b4"/>
   </g>
   <g id="patch_50">
    <path d="M 145.162727 118.08
L 147.191818 118.08
L 147.191818 117.383012
L 145.162727 117.383012
z
" clip-path="url(#p0358172cfb)" style="fill: #1f77b4"/>
   </g>
   <g id="patch_51">
    <path d="M 147.191818 118.08
L 149.220909 118.08
L 149.220909 117.26896
L 147.191818 117.26896
z
" clip-path="url(#p0358172cfb)" style="fill: #1f77b4"/>
   </g>
   <g id="patch_52">
    <path d="M 149.220909 118.08
L 151.25 118.08
L 151.25 116.901457
L 149.220909 116.901457
z
" clip-path="url(#p0358172cfb)" style="fill: #1f77b4"/>
   </g>
   <g id="patch_53">
    <path d="M 151.25 118.08
L 153.279091 118.08
L 153.279091 116.977492
L 151.25 116.977492
z
" clip-path="url(#p0358172cfb)" style="fill: #1f77b4"/>
   </g>
   <g id="patch_54">
    <path d="M 153.279091 118.08
L 155.308182 118.08
L 155.308182 117.104217
L 153.279091 117.104217
z
" clip-path="url(#p0358172cfb)" style="fill: #1f77b4"/>
   </g>
   <g id="patch_55">
    <path d="M 155.308182 118.08
L 157.337273 118.08
L 157.337273 117.104217
L 155.308182 117.104217
z
" clip-path="url(#p0358172cfb)" style="fill: #1f77b4"/>
   </g>
   <g id="patch_56">
    <path d="M 157.337273 118.08
L 159.366364 118.08
L 159.366364 117.078872
L 157.337273 117.078872
z
" clip-path="url(#p0358172cfb)" style="fill: #1f77b4"/>
   </g>
   <g id="patch_57">
    <path d="M 159.366364 118.08
L 161.395455 118.08
L 161.395455 117.16758
L 159.366364 117.16758
z
" clip-path="url(#p0358172cfb)" style="fill: #1f77b4"/>
   </g>
   <g id="patch_58">
    <path d="M 161.395455 118.08
L 163.424545 118.08
L 163.424545 117.16758
L 161.395455 117.16758
z
" clip-path="url(#p0358172cfb)" style="fill: #1f77b4"/>
   </g>
   <g id="patch_59">
    <path d="M 163.424545 118.08
L 165.453636 118.08
L 165.453636 117.509737
L 163.424545 117.509737
z
" clip-path="url(#p0358172cfb)" style="fill: #1f77b4"/>
   </g>
   <g id="patch_60">
    <path d="M 165.453636 118.08
L 167.482727 118.08
L 167.482727 117.294305
L 165.453636 117.294305
z
" clip-path="url(#p0358172cfb)" style="fill: #1f77b4"/>
   </g>
   <g id="patch_61">
    <path d="M 167.482727 118.08
L 169.511818 118.08
L 169.511818 117.306977
L 167.482727 117.306977
z
" clip-path="url(#p0358172cfb)" style="fill: #1f77b4"/>
   </g>
   <g id="patch_62">
    <path d="M 169.511818 118.08
L 171.540909 118.08
L 171.540909 117.497065
L 169.511818 117.497065
z
" clip-path="url(#p0358172cfb)" style="fill: #1f77b4"/>
   </g>
   <g id="patch_63">
    <path d="M 171.540909 118.08
L 173.57 118.08
L 173.57 117.294305
L 171.540909 117.294305
z
" clip-path="url(#p0358172cfb)" style="fill: #1f77b4"/>
   </g>
   <g id="patch_64">
    <path d="M 173.57 118.08
L 175.599091 118.08
L 175.599091 117.661807
L 173.57 117.661807
z
" clip-path="url(#p0358172cfb)" style="fill: #1f77b4"/>
   </g>
   <g id="patch_65">
    <path d="M 175.599091 118.08
L 177.628182 118.08
L 177.628182 117.383012
L 175.599091 117.383012
z
" clip-path="url(#p0358172cfb)" style="fill: #1f77b4"/>
   </g>
   <g id="patch_66">
    <path d="M 177.628182 118.08
L 179.657273 118.08
L 179.657273 117.547755
L 177.628182 117.547755
z
" clip-path="url(#p0358172cfb)" style="fill: #1f77b4"/>
   </g>
   <g id="patch_67">
    <path d="M 179.657273 118.08
L 181.686364 118.08
L 181.686364 117.598445
L 179.657273 117.598445
z
" clip-path="url(#p0358172cfb)" style="fill: #1f77b4"/>
   </g>
   <g id="patch_68">
    <path d="M 181.686364 118.08
L 183.715455 118.08
L 183.715455 117.509737
L 181.686364 117.509737
z
" clip-path="url(#p0358172cfb)" style="fill: #1f77b4"/>
   </g>
   <g id="patch_69">
    <path d="M 183.715455 118.08
L 185.744545 118.08
L 185.744545 117.687152
L 183.715455 117.687152
z
" clip-path="url(#p0358172cfb)" style="fill: #1f77b4"/>
   </g>
   <g id="patch_70">
    <path d="M 185.744545 118.08
L 187.773636 118.08
L 187.773636 117.712497
L 185.744545 117.712497
z
" clip-path="url(#p0358172cfb)" style="fill: #1f77b4"/>
   </g>
   <g id="patch_71">
    <path d="M 187.773636 118.08
L 189.802727 118.08
L 189.802727 117.687152
L 187.773636 117.687152
z
" clip-path="url(#p0358172cfb)" style="fill: #1f77b4"/>
   </g>
   <g id="patch_72">
    <path d="M 189.802727 118.08
L 191.831818 118.08
L 191.831818 117.737842
L 189.802727 117.737842
z
" clip-path="url(#p0358172cfb)" style="fill: #1f77b4"/>
   </g>
   <g id="patch_73">
    <path d="M 191.831818 118.08
L 193.860909 118.08
L 193.860909 117.611117
L 191.831818 117.611117
z
" clip-path="url(#p0358172cfb)" style="fill: #1f77b4"/>
   </g>
   <g id="patch_74">
    <path d="M 193.860909 118.08
L 195.89 118.08
L 195.89 117.813877
L 193.860909 117.813877
z
" clip-path="url(#p0358172cfb)" style="fill: #1f77b4"/>
   </g>
   <g id="patch_75">
    <path d="M 195.89 118.08
L 197.919091 118.08
L 197.919091 117.864567
L 195.89 117.864567
z
" clip-path="url(#p0358172cfb)" style="fill: #1f77b4"/>
   </g>
   <g id="patch_76">
    <path d="M 197.919091 118.08
L 199.948182 118.08
L 199.948182 117.87724
L 197.919091 117.87724
z
" clip-path="url(#p0358172cfb)" style="fill: #1f77b4"/>
   </g>
   <g id="patch_77">
    <path d="M 199.948182 118.08
L 201.977273 118.08
L 201.977273 117.940602
L 199.948182 117.940602
z
" clip-path="url(#p0358172cfb)" style="fill: #1f77b4"/>
   </g>
   <g id="patch_78">
    <path d="M 201.977273 118.08
L 204.006364 118.08
L 204.006364 117.851895
L 201.977273 117.851895
z
" clip-path="url(#p0358172cfb)" style="fill: #1f77b4"/>
   </g>
   <g id="patch_79">
    <path d="M 204.006364 118.08
L 206.035455 118.08
L 206.035455 117.839222
L 204.006364 117.839222
z
" clip-path="url(#p0358172cfb)" style="fill: #1f77b4"/>
   </g>
   <g id="patch_80">
    <path d="M 206.035455 118.08
L 208.064545 118.08
L 208.064545 117.915257
L 206.035455 117.915257
z
" clip-path="url(#p0358172cfb)" style="fill: #1f77b4"/>
   </g>
   <g id="patch_81">
    <path d="M 208.064545 118.08
L 210.093636 118.08
L 210.093636 117.92793
L 208.064545 117.92793
z
" clip-path="url(#p0358172cfb)" style="fill: #1f77b4"/>
   </g>
   <g id="patch_82">
    <path d="M 210.093636 118.08
L 212.122727 118.08
L 212.122727 117.801205
L 210.093636 117.801205
z
" clip-path="url(#p0358172cfb)" style="fill: #1f77b4"/>
   </g>
   <g id="patch_83">
    <path d="M 212.122727 118.08
L 214.151818 118.08
L 214.151818 117.889912
L 212.122727 117.889912
z
" clip-path="url(#p0358172cfb)" style="fill: #1f77b4"/>
   </g>
   <g id="patch_84">
    <path d="M 214.151818 118.08
L 216.180909 118.08
L 216.180909 117.889912
L 214.151818 117.889912
z
" clip-path="url(#p0358172cfb)" style="fill: #1f77b4"/>
   </g>
   <g id="patch_85">
    <path d="M 216.180909 118.08
L 218.21 118.08
L 218.21 118.02931
L 216.180909 118.02931
z
" clip-path="url(#p0358172cfb)" style="fill: #1f77b4"/>
   </g>
   <g id="patch_86">
    <path d="M 218.21 118.08
L 220.239091 118.08
L 220.239091 118.016637
L 218.21 118.016637
z
" clip-path="url(#p0358172cfb)" style="fill: #1f77b4"/>
   </g>
   <g id="patch_87">
    <path d="M 220.239091 118.08
L 222.268182 118.08
L 222.268182 118.02931
L 220.239091 118.02931
z
" clip-path="url(#p0358172cfb)" style="fill: #1f77b4"/>
   </g>
   <g id="patch_88">
    <path d="M 222.268182 118.08
L 224.297273 118.08
L 224.297273 118.02931
L 222.268182 118.02931
z
" clip-path="url(#p0358172cfb)" style="fill: #1f77b4"/>
   </g>
   <g id="patch_89">
    <path d="M 224.297273 118.08
L 226.326364 118.08
L 226.326364 117.991292
L 224.297273 117.991292
z
" clip-path="url(#p0358172cfb)" style="fill: #1f77b4"/>
   </g>
   <g id="patch_90">
    <path d="M 226.326364 118.08
L 228.355455 118.08
L 228.355455 118.016637
L 226.326364 118.016637
z
" clip-path="url(#p0358172cfb)" style="fill: #1f77b4"/>
   </g>
   <g id="patch_91">
    <path d="M 228.355455 118.08
L 230.384545 118.08
L 230.384545 118.02931
L 228.355455 118.02931
z
" clip-path="url(#p0358172cfb)" style="fill: #1f77b4"/>
   </g>
   <g id="patch_92">
    <path d="M 230.384545 118.08
L 232.413636 118.08
L 232.413636 118.016637
L 230.384545 118.016637
z
" clip-path="url(#p0358172cfb)" style="fill: #1f77b4"/>
   </g>
   <g id="patch_93">
    <path d="M 232.413636 118.08
L 234.442727 118.08
L 234.442727 118.054655
L 232.413636 118.054655
z
" clip-path="url(#p0358172cfb)" style="fill: #1f77b4"/>
   </g>
   <g id="patch_94">
    <path d="M 234.442727 118.08
L 236.471818 118.08
L 236.471818 118.067327
L 234.442727 118.067327
z
" clip-path="url(#p0358172cfb)" style="fill: #1f77b4"/>
   </g>
   <g id="patch_95">
    <path d="M 236.471818 118.08
L 238.500909 118.08
L 238.500909 118.08
L 236.471818 118.08
z
" clip-path="url(#p0358172cfb)" style="fill: #1f77b4"/>
   </g>
   <g id="patch_96">
    <path d="M 238.500909 118.08
L 240.53 118.08
L 240.53 118.003965
L 238.500909 118.003965
z
" clip-path="url(#p0358172cfb)" style="fill: #1f77b4"/>
   </g>
   <g id="patch_97">
    <path d="M 240.53 118.08
L 242.559091 118.08
L 242.559091 118.054655
L 240.53 118.054655
z
" clip-path="url(#p0358172cfb)" style="fill: #1f77b4"/>
   </g>
   <g id="patch_98">
    <path d="M 242.559091 118.08
L 244.588182 118.08
L 244.588182 118.067327
L 242.559091 118.067327
z
" clip-path="url(#p0358172cfb)" style="fill: #1f77b4"/>
   </g>
   <g id="patch_99">
    <path d="M 244.588182 118.08
L 246.617273 118.08
L 246.617273 118.041982
L 244.588182 118.041982
z
" clip-path="url(#p0358172cfb)" style="fill: #1f77b4"/>
   </g>
   <g id="patch_100">
    <path d="M 246.617273 118.08
L 248.646364 118.08
L 248.646364 118.067327
L 246.617273 118.067327
z
" clip-path="url(#p0358172cfb)" style="fill: #1f77b4"/>
   </g>
   <g id="patch_101">
    <path d="M 248.646364 118.08
L 250.675455 118.08
L 250.675455 118.054655
L 248.646364 118.054655
z
" clip-path="url(#p0358172cfb)" style="fill: #1f77b4"/>
   </g>
   <g id="patch_102">
    <path d="M 250.675455 118.08
L 252.704545 118.08
L 252.704545 118.067327
L 250.675455 118.067327
z
" clip-path="url(#p0358172cfb)" style="fill: #1f77b4"/>
   </g>
   <g id="matplotlib.axis_1">
    <g id="xtick_1">
     <g id="line2d_1">
      <path d="M 77.347972 118.08
L 77.347972 7.2
" clip-path="url(#p0358172cfb)" style="fill: none; stroke: #b0b0b0; stroke-width: 0.8; stroke-linecap: square"/>
     </g>
     <g id="line2d_2">
      <defs>
       <path id="m71b0d80625" d="M 0 0
L 0 3.5
" style="stroke: #000000; stroke-width: 0.8"/>
      </defs>
      <g>
       <use xlink:href="#m71b0d80625" x="77.347972" y="118.08" style="stroke: #000000; stroke-width: 0.8"/>
      </g>
     </g>
     <g id="text_1">
      <!-- 0 -->
      <g transform="translate(74.166722 132.678438) scale(0.1 -0.1)">
       <defs>
        <path id="DejaVuSans-30" d="M 2034 4250
Q 1547 4250 1301 3770
Q 1056 3291 1056 2328
Q 1056 1369 1301 889
Q 1547 409 2034 409
Q 2525 409 2770 889
Q 3016 1369 3016 2328
Q 3016 3291 2770 3770
Q 2525 4250 2034 4250
z
M 2034 4750
Q 2819 4750 3233 4129
Q 3647 3509 3647 2328
Q 3647 1150 3233 529
Q 2819 -91 2034 -91
Q 1250 -91 836 529
Q 422 1150 422 2328
Q 422 3509 836 4129
Q 1250 4750 2034 4750
z
" transform="scale(0.015625)"/>
       </defs>
       <use xlink:href="#DejaVuSans-30"/>
      </g>
     </g>
    </g>
    <g id="xtick_2">
     <g id="line2d_3">
      <path d="M 118.710886 118.08
L 118.710886 7.2
" clip-path="url(#p0358172cfb)" style="fill: none; stroke: #b0b0b0; stroke-width: 0.8; stroke-linecap: square"/>
     </g>
     <g id="line2d_4">
      <g>
       <use xlink:href="#m71b0d80625" x="118.710886" y="118.08" style="stroke: #000000; stroke-width: 0.8"/>
      </g>
     </g>
     <g id="text_2">
      <!-- 1 -->
      <g transform="translate(115.529636 132.678438) scale(0.1 -0.1)">
       <defs>
        <path id="DejaVuSans-31" d="M 794 531
L 1825 531
L 1825 4091
L 703 3866
L 703 4441
L 1819 4666
L 2450 4666
L 2450 531
L 3481 531
L 3481 0
L 794 0
L 794 531
z
" transform="scale(0.015625)"/>
       </defs>
       <use xlink:href="#DejaVuSans-31"/>
      </g>
     </g>
    </g>
    <g id="xtick_3">
     <g id="line2d_5">
      <path d="M 160.0738 118.08
L 160.0738 7.2
" clip-path="url(#p0358172cfb)" style="fill: none; stroke: #b0b0b0; stroke-width: 0.8; stroke-linecap: square"/>
     </g>
     <g id="line2d_6">
      <g>
       <use xlink:href="#m71b0d80625" x="160.0738" y="118.08" style="stroke: #000000; stroke-width: 0.8"/>
      </g>
     </g>
     <g id="text_3">
      <!-- 2 -->
      <g transform="translate(156.89255 132.678438) scale(0.1 -0.1)">
       <defs>
        <path id="DejaVuSans-32" d="M 1228 531
L 3431 531
L 3431 0
L 469 0
L 469 531
Q 828 903 1448 1529
Q 2069 2156 2228 2338
Q 2531 2678 2651 2914
Q 2772 3150 2772 3378
Q 2772 3750 2511 3984
Q 2250 4219 1831 4219
Q 1534 4219 1204 4116
Q 875 4013 500 3803
L 500 4441
Q 881 4594 1212 4672
Q 1544 4750 1819 4750
Q 2544 4750 2975 4387
Q 3406 4025 3406 3419
Q 3406 3131 3298 2873
Q 3191 2616 2906 2266
Q 2828 2175 2409 1742
Q 1991 1309 1228 531
z
" transform="scale(0.015625)"/>
       </defs>
       <use xlink:href="#DejaVuSans-32"/>
      </g>
     </g>
    </g>
    <g id="xtick_4">
     <g id="line2d_7">
      <path d="M 201.436714 118.08
L 201.436714 7.2
" clip-path="url(#p0358172cfb)" style="fill: none; stroke: #b0b0b0; stroke-width: 0.8; stroke-linecap: square"/>
     </g>
     <g id="line2d_8">
      <g>
       <use xlink:href="#m71b0d80625" x="201.436714" y="118.08" style="stroke: #000000; stroke-width: 0.8"/>
      </g>
     </g>
     <g id="text_4">
      <!-- 3 -->
      <g transform="translate(198.255464 132.678438) scale(0.1 -0.1)">
       <defs>
        <path id="DejaVuSans-33" d="M 2597 2516
Q 3050 2419 3304 2112
Q 3559 1806 3559 1356
Q 3559 666 3084 287
Q 2609 -91 1734 -91
Q 1441 -91 1130 -33
Q 819 25 488 141
L 488 750
Q 750 597 1062 519
Q 1375 441 1716 441
Q 2309 441 2620 675
Q 2931 909 2931 1356
Q 2931 1769 2642 2001
Q 2353 2234 1838 2234
L 1294 2234
L 1294 2753
L 1863 2753
Q 2328 2753 2575 2939
Q 2822 3125 2822 3475
Q 2822 3834 2567 4026
Q 2313 4219 1838 4219
Q 1578 4219 1281 4162
Q 984 4106 628 3988
L 628 4550
Q 988 4650 1302 4700
Q 1616 4750 1894 4750
Q 2613 4750 3031 4423
Q 3450 4097 3450 3541
Q 3450 3153 3228 2886
Q 3006 2619 2597 2516
z
" transform="scale(0.015625)"/>
       </defs>
       <use xlink:href="#DejaVuSans-33"/>
      </g>
     </g>
    </g>
    <g id="xtick_5">
     <g id="line2d_9">
      <path d="M 242.799628 118.08
L 242.799628 7.2
" clip-path="url(#p0358172cfb)" style="fill: none; stroke: #b0b0b0; stroke-width: 0.8; stroke-linecap: square"/>
     </g>
     <g id="line2d_10">
      <g>
       <use xlink:href="#m71b0d80625" x="242.799628" y="118.08" style="stroke: #000000; stroke-width: 0.8"/>
      </g>
     </g>
     <g id="text_5">
      <!-- 4 -->
      <g transform="translate(239.618378 132.678438) scale(0.1 -0.1)">
       <defs>
        <path id="DejaVuSans-34" d="M 2419 4116
L 825 1625
L 2419 1625
L 2419 4116
z
M 2253 4666
L 3047 4666
L 3047 1625
L 3713 1625
L 3713 1100
L 3047 1100
L 3047 0
L 2419 0
L 2419 1100
L 313 1100
L 313 1709
L 2253 4666
z
" transform="scale(0.015625)"/>
       </defs>
       <use xlink:href="#DejaVuSans-34"/>
      </g>
     </g>
    </g>
   </g>
   <g id="matplotlib.axis_2">
    <g id="ytick_1">
     <g id="line2d_11">
      <path d="M 39.65 118.08
L 262.85 118.08
" clip-path="url(#p0358172cfb)" style="fill: none; stroke: #b0b0b0; stroke-width: 0.8; stroke-linecap: square"/>
     </g>
     <g id="line2d_12">
      <defs>
       <path id="m34d8425535" d="M 0 0
L -3.5 0
" style="stroke: #000000; stroke-width: 0.8"/>
      </defs>
      <g>
       <use xlink:href="#m34d8425535" x="39.65" y="118.08" style="stroke: #000000; stroke-width: 0.8"/>
      </g>
     </g>
     <g id="text_6">
      <!-- 0 -->
      <g transform="translate(26.2875 121.879219) scale(0.1 -0.1)">
       <use xlink:href="#DejaVuSans-30"/>
      </g>
     </g>
    </g>
    <g id="ytick_2">
     <g id="line2d_13">
      <path d="M 39.65 92.734986
L 262.85 92.734986
" clip-path="url(#p0358172cfb)" style="fill: none; stroke: #b0b0b0; stroke-width: 0.8; stroke-linecap: square"/>
     </g>
     <g id="line2d_14">
      <g>
       <use xlink:href="#m34d8425535" x="39.65" y="92.734986" style="stroke: #000000; stroke-width: 0.8"/>
      </g>
     </g>
     <g id="text_7">
      <!-- 2000 -->
      <g transform="translate(7.2 96.534205) scale(0.1 -0.1)">
       <use xlink:href="#DejaVuSans-32"/>
       <use xlink:href="#DejaVuSans-30" x="63.623047"/>
       <use xlink:href="#DejaVuSans-30" x="127.246094"/>
       <use xlink:href="#DejaVuSans-30" x="190.869141"/>
      </g>
     </g>
    </g>
    <g id="ytick_3">
     <g id="line2d_15">
      <path d="M 39.65 67.389972
L 262.85 67.389972
" clip-path="url(#p0358172cfb)" style="fill: none; stroke: #b0b0b0; stroke-width: 0.8; stroke-linecap: square"/>
     </g>
     <g id="line2d_16">
      <g>
       <use xlink:href="#m34d8425535" x="39.65" y="67.389972" style="stroke: #000000; stroke-width: 0.8"/>
      </g>
     </g>
     <g id="text_8">
      <!-- 4000 -->
      <g transform="translate(7.2 71.189191) scale(0.1 -0.1)">
       <use xlink:href="#DejaVuSans-34"/>
       <use xlink:href="#DejaVuSans-30" x="63.623047"/>
       <use xlink:href="#DejaVuSans-30" x="127.246094"/>
       <use xlink:href="#DejaVuSans-30" x="190.869141"/>
      </g>
     </g>
    </g>
    <g id="ytick_4">
     <g id="line2d_17">
      <path d="M 39.65 42.044959
L 262.85 42.044959
" clip-path="url(#p0358172cfb)" style="fill: none; stroke: #b0b0b0; stroke-width: 0.8; stroke-linecap: square"/>
     </g>
     <g id="line2d_18">
      <g>
       <use xlink:href="#m34d8425535" x="39.65" y="42.044959" style="stroke: #000000; stroke-width: 0.8"/>
      </g>
     </g>
     <g id="text_9">
      <!-- 6000 -->
      <g transform="translate(7.2 45.844177) scale(0.1 -0.1)">
       <defs>
        <path id="DejaVuSans-36" d="M 2113 2584
Q 1688 2584 1439 2293
Q 1191 2003 1191 1497
Q 1191 994 1439 701
Q 1688 409 2113 409
Q 2538 409 2786 701
Q 3034 994 3034 1497
Q 3034 2003 2786 2293
Q 2538 2584 2113 2584
z
M 3366 4563
L 3366 3988
Q 3128 4100 2886 4159
Q 2644 4219 2406 4219
Q 1781 4219 1451 3797
Q 1122 3375 1075 2522
Q 1259 2794 1537 2939
Q 1816 3084 2150 3084
Q 2853 3084 3261 2657
Q 3669 2231 3669 1497
Q 3669 778 3244 343
Q 2819 -91 2113 -91
Q 1303 -91 875 529
Q 447 1150 447 2328
Q 447 3434 972 4092
Q 1497 4750 2381 4750
Q 2619 4750 2861 4703
Q 3103 4656 3366 4563
z
" transform="scale(0.015625)"/>
       </defs>
       <use xlink:href="#DejaVuSans-36"/>
       <use xlink:href="#DejaVuSans-30" x="63.623047"/>
       <use xlink:href="#DejaVuSans-30" x="127.246094"/>
       <use xlink:href="#DejaVuSans-30" x="190.869141"/>
      </g>
     </g>
    </g>
    <g id="ytick_5">
     <g id="line2d_19">
      <path d="M 39.65 16.699945
L 262.85 16.699945
" clip-path="url(#p0358172cfb)" style="fill: none; stroke: #b0b0b0; stroke-width: 0.8; stroke-linecap: square"/>
     </g>
     <g id="line2d_20">
      <g>
       <use xlink:href="#m34d8425535" x="39.65" y="16.699945" style="stroke: #000000; stroke-width: 0.8"/>
      </g>
     </g>
     <g id="text_10">
      <!-- 8000 -->
      <g transform="translate(7.2 20.499164) scale(0.1 -0.1)">
       <defs>
        <path id="DejaVuSans-38" d="M 2034 2216
Q 1584 2216 1326 1975
Q 1069 1734 1069 1313
Q 1069 891 1326 650
Q 1584 409 2034 409
Q 2484 409 2743 651
Q 3003 894 3003 1313
Q 3003 1734 2745 1975
Q 2488 2216 2034 2216
z
M 1403 2484
Q 997 2584 770 2862
Q 544 3141 544 3541
Q 544 4100 942 4425
Q 1341 4750 2034 4750
Q 2731 4750 3128 4425
Q 3525 4100 3525 3541
Q 3525 3141 3298 2862
Q 3072 2584 2669 2484
Q 3125 2378 3379 2068
Q 3634 1759 3634 1313
Q 3634 634 3220 271
Q 2806 -91 2034 -91
Q 1263 -91 848 271
Q 434 634 434 1313
Q 434 1759 690 2068
Q 947 2378 1403 2484
z
M 1172 3481
Q 1172 3119 1398 2916
Q 1625 2713 2034 2713
Q 2441 2713 2670 2916
Q 2900 3119 2900 3481
Q 2900 3844 2670 4047
Q 2441 4250 2034 4250
Q 1625 4250 1398 4047
Q 1172 3844 1172 3481
z
" transform="scale(0.015625)"/>
       </defs>
       <use xlink:href="#DejaVuSans-38"/>
       <use xlink:href="#DejaVuSans-30" x="63.623047"/>
       <use xlink:href="#DejaVuSans-30" x="127.246094"/>
       <use xlink:href="#DejaVuSans-30" x="190.869141"/>
      </g>
     </g>
    </g>
   </g>
   <g id="patch_103">
    <path d="M 39.65 118.08
L 39.65 7.2
" style="fill: none; stroke: #000000; stroke-width: 0.8; stroke-linejoin: miter; stroke-linecap: square"/>
   </g>
   <g id="patch_104">
    <path d="M 262.85 118.08
L 262.85 7.2
" style="fill: none; stroke: #000000; stroke-width: 0.8; stroke-linejoin: miter; stroke-linecap: square"/>
   </g>
   <g id="patch_105">
    <path d="M 39.65 118.08
L 262.85 118.08
" style="fill: none; stroke: #000000; stroke-width: 0.8; stroke-linejoin: miter; stroke-linecap: square"/>
   </g>
   <g id="patch_106">
    <path d="M 39.65 7.2
L 262.85 7.2
" style="fill: none; stroke: #000000; stroke-width: 0.8; stroke-linejoin: miter; stroke-linecap: square"/>
   </g>
  </g>
 </g>
 <defs>
  <clipPath id="p0358172cfb">
   <rect x="39.65" y="7.2" width="223.2" height="110.88"/>
  </clipPath>
 </defs>
</svg>
