<?xml version="1.0" encoding="utf-8" standalone="no"?>
<!DOCTYPE svg PUBLIC "-//W3C//DTD SVG 1.1//EN"
  "http://www.w3.org/Graphics/SVG/1.1/DTD/svg11.dtd">
<svg xmlns:xlink="http://www.w3.org/1999/xlink" width="270.05pt" height="141.958125pt" viewBox="0 0 270.05 141.958125" xmlns="http://www.w3.org/2000/svg" version="1.1">
 <metadata>
  <rdf:RDF xmlns:dc="http://purl.org/dc/elements/1.1/" xmlns:cc="http://creativecommons.org/ns#" xmlns:rdf="http://www.w3.org/1999/02/22-rdf-syntax-ns#">
   <cc:Work>
    <dc:type rdf:resource="http://purl.org/dc/dcmitype/StillImage"/>
    <dc:date>2023-06-23T10:46:20.152012</dc:date>
    <dc:format>image/svg+xml</dc:format>
    <dc:creator>
     <cc:Agent>
      <dc:title>Matplotlib v3.7.1, https://matplotlib.org/</dc:title>
     </cc:Agent>
    </dc:creator>
   </cc:Work>
  </rdf:RDF>
 </metadata>
 <defs>
  <style type="text/css">*{stroke-linejoin: round; stroke-linecap: butt}</style>
 </defs>
 <g id="figure_1">
  <g id="patch_1">
   <path d="M 0 141.958125
L 270.05 141.958125
L 270.05 0
L 0 0
z
" style="fill: #ffffff"/>
  </g>
  <g id="axes_1">
   <g id="patch_2">
    <path d="M 39.65 118.08
L 262.85 118.08
L 262.85 7.2
L 39.65 7.2
z
" style="fill: #ffffff"/>
   </g>
   <g id="patch_3">
    <path d="M 49.795455 118.08
L 51.824545 118.08
L 51.824545 117.859157
L 49.795455 117.859157
z
" clip-path="url(#p3837613231)" style="fill: #1f77b4"/>
   </g>
   <g id="patch_4">
    <path d="M 51.824545 118.08
L 53.853636 118.08
L 53.853636 117.503353
L 51.824545 117.503353
z
" clip-path="url(#p3837613231)" style="fill: #1f77b4"/>
   </g>
   <g id="patch_5">
    <path d="M 53.853636 118.08
L 55.882727 118.08
L 55.882727 117.650582
L 53.853636 117.650582
z
" clip-path="url(#p3837613231)" style="fill: #1f77b4"/>
   </g>
   <g id="patch_6">
    <path d="M 55.882727 118.08
L 57.911818 118.08
L 57.911818 117.834618
L 55.882727 117.834618
z
" clip-path="url(#p3837613231)" style="fill: #1f77b4"/>
   </g>
   <g id="patch_7">
    <path d="M 57.911818 118.08
L 59.940909 118.08
L 59.940909 117.466546
L 57.911818 117.466546
z
" clip-path="url(#p3837613231)" style="fill: #1f77b4"/>
   </g>
   <g id="patch_8">
    <path d="M 59.940909 118.08
L 61.97 118.08
L 61.97 117.28251
L 59.940909 117.28251
z
" clip-path="url(#p3837613231)" style="fill: #1f77b4"/>
   </g>
   <g id="patch_9">
    <path d="M 61.97 118.08
L 63.999091 118.08
L 63.999091 117.294779
L 61.97 117.294779
z
" clip-path="url(#p3837613231)" style="fill: #1f77b4"/>
   </g>
   <g id="patch_10">
    <path d="M 63.999091 118.08
L 66.028182 118.08
L 66.028182 117.28251
L 63.999091 117.28251
z
" clip-path="url(#p3837613231)" style="fill: #1f77b4"/>
   </g>
   <g id="patch_11">
    <path d="M 66.028182 118.08
L 68.057273 118.08
L 68.057273 117.442008
L 66.028182 117.442008
z
" clip-path="url(#p3837613231)" style="fill: #1f77b4"/>
   </g>
   <g id="patch_12">
    <path d="M 68.057273 118.08
L 70.086364 118.08
L 70.086364 117.343855
L 68.057273 117.343855
z
" clip-path="url(#p3837613231)" style="fill: #1f77b4"/>
   </g>
   <g id="patch_13">
    <path d="M 70.086364 118.08
L 72.115455 118.08
L 72.115455 117.429739
L 70.086364 117.429739
z
" clip-path="url(#p3837613231)" style="fill: #1f77b4"/>
   </g>
   <g id="patch_14">
    <path d="M 72.115455 118.08
L 74.144545 118.08
L 74.144545 117.245702
L 72.115455 117.245702
z
" clip-path="url(#p3837613231)" style="fill: #1f77b4"/>
   </g>
   <g id="patch_15">
    <path d="M 74.144545 118.08
L 76.173636 118.08
L 76.173636 117.061666
L 74.144545 117.061666
z
" clip-path="url(#p3837613231)" style="fill: #1f77b4"/>
   </g>
   <g id="patch_16">
    <path d="M 76.173636 118.08
L 78.202727 118.08
L 78.202727 116.938975
L 76.173636 116.938975
z
" clip-path="url(#p3837613231)" style="fill: #1f77b4"/>
   </g>
   <g id="patch_17">
    <path d="M 78.202727 118.08
L 80.231818 118.08
L 80.231818 117.368393
L 78.202727 117.368393
z
" clip-path="url(#p3837613231)" style="fill: #1f77b4"/>
   </g>
   <g id="patch_18">
    <path d="M 80.231818 118.08
L 82.260909 118.08
L 82.260909 117.037128
L 80.231818 117.037128
z
" clip-path="url(#p3837613231)" style="fill: #1f77b4"/>
   </g>
   <g id="patch_19">
    <path d="M 82.260909 118.08
L 84.29 118.08
L 84.29 117.01259
L 82.260909 117.01259
z
" clip-path="url(#p3837613231)" style="fill: #1f77b4"/>
   </g>
   <g id="patch_20">
    <path d="M 84.29 118.08
L 86.319091 118.08
L 86.319091 117.098473
L 84.29 117.098473
z
" clip-path="url(#p3837613231)" style="fill: #1f77b4"/>
   </g>
   <g id="patch_21">
    <path d="M 86.319091 118.08
L 88.348182 118.08
L 88.348182 116.730401
L 86.319091 116.730401
z
" clip-path="url(#p3837613231)" style="fill: #1f77b4"/>
   </g>
   <g id="patch_22">
    <path d="M 88.348182 118.08
L 90.377273 118.08
L 90.377273 116.423674
L 88.348182 116.423674
z
" clip-path="url(#p3837613231)" style="fill: #1f77b4"/>
   </g>
   <g id="patch_23">
    <path d="M 90.377273 118.08
L 92.406364 118.08
L 92.406364 116.902168
L 90.377273 116.902168
z
" clip-path="url(#p3837613231)" style="fill: #1f77b4"/>
   </g>
   <g id="patch_24">
    <path d="M 92.406364 118.08
L 94.435455 118.08
L 94.435455 116.730401
L 92.406364 116.730401
z
" clip-path="url(#p3837613231)" style="fill: #1f77b4"/>
   </g>
   <g id="patch_25">
    <path d="M 94.435455 118.08
L 96.464545 118.08
L 96.464545 116.816284
L 94.435455 116.816284
z
" clip-path="url(#p3837613231)" style="fill: #1f77b4"/>
   </g>
   <g id="patch_26">
    <path d="M 96.464545 118.08
L 98.493636 118.08
L 98.493636 116.656786
L 96.464545 116.656786
z
" clip-path="url(#p3837613231)" style="fill: #1f77b4"/>
   </g>
   <g id="patch_27">
    <path d="M 98.493636 118.08
L 100.522727 118.08
L 100.522727 116.60771
L 98.493636 116.60771
z
" clip-path="url(#p3837613231)" style="fill: #1f77b4"/>
   </g>
   <g id="patch_28">
    <path d="M 100.522727 118.08
L 102.551818 118.08
L 102.551818 116.313252
L 100.522727 116.313252
z
" clip-path="url(#p3837613231)" style="fill: #1f77b4"/>
   </g>
   <g id="patch_29">
    <path d="M 102.551818 118.08
L 104.580909 118.08
L 104.580909 116.116947
L 102.551818 116.116947
z
" clip-path="url(#p3837613231)" style="fill: #1f77b4"/>
   </g>
   <g id="patch_30">
    <path d="M 104.580909 118.08
L 106.61 118.08
L 106.61 115.93291
L 104.580909 115.93291
z
" clip-path="url(#p3837613231)" style="fill: #1f77b4"/>
   </g>
   <g id="patch_31">
    <path d="M 106.61 118.08
L 108.639091 118.08
L 108.639091 116.227368
L 106.61 116.227368
z
" clip-path="url(#p3837613231)" style="fill: #1f77b4"/>
   </g>
   <g id="patch_32">
    <path d="M 108.639091 118.08
L 110.668182 118.08
L 110.668182 115.577107
L 108.639091 115.577107
z
" clip-path="url(#p3837613231)" style="fill: #1f77b4"/>
   </g>
   <g id="patch_33">
    <path d="M 110.668182 118.08
L 112.697273 118.08
L 112.697273 115.994256
L 110.668182 115.994256
z
" clip-path="url(#p3837613231)" style="fill: #1f77b4"/>
   </g>
   <g id="patch_34">
    <path d="M 112.697273 118.08
L 114.726364 118.08
L 114.726364 116.227368
L 112.697273 116.227368
z
" clip-path="url(#p3837613231)" style="fill: #1f77b4"/>
   </g>
   <g id="patch_35">
    <path d="M 114.726364 118.08
L 116.755455 118.08
L 116.755455 116.325521
L 114.726364 116.325521
z
" clip-path="url(#p3837613231)" style="fill: #1f77b4"/>
   </g>
   <g id="patch_36">
    <path d="M 116.755455 118.08
L 118.784545 118.08
L 118.784545 115.797951
L 116.755455 115.797951
z
" clip-path="url(#p3837613231)" style="fill: #1f77b4"/>
   </g>
   <g id="patch_37">
    <path d="M 118.784545 118.08
L 120.813636 118.08
L 120.813636 115.981987
L 118.784545 115.981987
z
" clip-path="url(#p3837613231)" style="fill: #1f77b4"/>
   </g>
   <g id="patch_38">
    <path d="M 120.813636 118.08
L 122.842727 118.08
L 122.842727 115.957449
L 120.813636 115.957449
z
" clip-path="url(#p3837613231)" style="fill: #1f77b4"/>
   </g>
   <g id="patch_39">
    <path d="M 122.842727 118.08
L 124.871818 118.08
L 124.871818 115.662991
L 122.842727 115.662991
z
" clip-path="url(#p3837613231)" style="fill: #1f77b4"/>
   </g>
   <g id="patch_40">
    <path d="M 124.871818 118.08
L 126.900909 118.08
L 126.900909 115.712067
L 124.871818 115.712067
z
" clip-path="url(#p3837613231)" style="fill: #1f77b4"/>
   </g>
   <g id="patch_41">
    <path d="M 126.900909 118.08
L 128.93 118.08
L 128.93 115.589376
L 126.900909 115.589376
z
" clip-path="url(#p3837613231)" style="fill: #1f77b4"/>
   </g>
   <g id="patch_42">
    <path d="M 128.93 118.08
L 130.959091 118.08
L 130.959091 115.319456
L 128.93 115.319456
z
" clip-path="url(#p3837613231)" style="fill: #1f77b4"/>
   </g>
   <g id="patch_43">
    <path d="M 130.959091 118.08
L 132.988182 118.08
L 132.988182 115.049536
L 130.959091 115.049536
z
" clip-path="url(#p3837613231)" style="fill: #1f77b4"/>
   </g>
   <g id="patch_44">
    <path d="M 132.988182 118.08
L 135.017273 118.08
L 135.017273 113.883974
L 132.988182 113.883974
z
" clip-path="url(#p3837613231)" style="fill: #1f77b4"/>
   </g>
   <g id="patch_45">
    <path d="M 135.017273 118.08
L 137.046364 118.08
L 137.046364 112.215378
L 135.017273 112.215378
z
" clip-path="url(#p3837613231)" style="fill: #1f77b4"/>
   </g>
   <g id="patch_46">
    <path d="M 137.046364 118.08
L 139.075455 118.08
L 139.075455 110.669474
L 137.046364 110.669474
z
" clip-path="url(#p3837613231)" style="fill: #1f77b4"/>
   </g>
   <g id="patch_47">
    <path d="M 139.075455 118.08
L 141.104545 118.08
L 141.104545 12.48
L 139.075455 12.48
z
" clip-path="url(#p3837613231)" style="fill: #1f77b4"/>
   </g>
   <g id="patch_48">
    <path d="M 141.104545 118.08
L 143.133636 118.08
L 143.133636 117.994116
L 141.104545 117.994116
z
" clip-path="url(#p3837613231)" style="fill: #1f77b4"/>
   </g>
   <g id="patch_49">
    <path d="M 143.133636 118.08
L 145.162727 118.08
L 145.162727 117.969578
L 143.133636 117.969578
z
" clip-path="url(#p3837613231)" style="fill: #1f77b4"/>
   </g>
   <g id="patch_50">
    <path d="M 145.162727 118.08
L 147.191818 118.08
L 147.191818 117.932771
L 145.162727 117.932771
z
" clip-path="url(#p3837613231)" style="fill: #1f77b4"/>
   </g>
   <g id="patch_51">
    <path d="M 147.191818 118.08
L 149.220909 118.08
L 149.220909 117.895964
L 147.191818 117.895964
z
" clip-path="url(#p3837613231)" style="fill: #1f77b4"/>
   </g>
   <g id="patch_52">
    <path d="M 149.220909 118.08
L 151.25 118.08
L 151.25 117.895964
L 149.220909 117.895964
z
" clip-path="url(#p3837613231)" style="fill: #1f77b4"/>
   </g>
   <g id="patch_53">
    <path d="M 151.25 118.08
L 153.279091 118.08
L 153.279091 117.895964
L 151.25 117.895964
z
" clip-path="url(#p3837613231)" style="fill: #1f77b4"/>
   </g>
   <g id="patch_54">
    <path d="M 153.279091 118.08
L 155.308182 118.08
L 155.308182 117.859157
L 153.279091 117.859157
z
" clip-path="url(#p3837613231)" style="fill: #1f77b4"/>
   </g>
   <g id="patch_55">
    <path d="M 155.308182 118.08
L 157.337273 118.08
L 157.337273 117.895964
L 155.308182 117.895964
z
" clip-path="url(#p3837613231)" style="fill: #1f77b4"/>
   </g>
   <g id="patch_56">
    <path d="M 157.337273 118.08
L 159.366364 118.08
L 159.366364 117.969578
L 157.337273 117.969578
z
" clip-path="url(#p3837613231)" style="fill: #1f77b4"/>
   </g>
   <g id="patch_57">
    <path d="M 159.366364 118.08
L 161.395455 118.08
L 161.395455 117.957309
L 159.366364 117.957309
z
" clip-path="url(#p3837613231)" style="fill: #1f77b4"/>
   </g>
   <g id="patch_58">
    <path d="M 161.395455 118.08
L 163.424545 118.08
L 163.424545 117.981847
L 161.395455 117.981847
z
" clip-path="url(#p3837613231)" style="fill: #1f77b4"/>
   </g>
   <g id="patch_59">
    <path d="M 163.424545 118.08
L 165.453636 118.08
L 165.453636 117.871426
L 163.424545 117.871426
z
" clip-path="url(#p3837613231)" style="fill: #1f77b4"/>
   </g>
   <g id="patch_60">
    <path d="M 165.453636 118.08
L 167.482727 118.08
L 167.482727 117.883695
L 165.453636 117.883695
z
" clip-path="url(#p3837613231)" style="fill: #1f77b4"/>
   </g>
   <g id="patch_61">
    <path d="M 167.482727 118.08
L 169.511818 118.08
L 169.511818 117.895964
L 167.482727 117.895964
z
" clip-path="url(#p3837613231)" style="fill: #1f77b4"/>
   </g>
   <g id="patch_62">
    <path d="M 169.511818 118.08
L 171.540909 118.08
L 171.540909 117.785542
L 169.511818 117.785542
z
" clip-path="url(#p3837613231)" style="fill: #1f77b4"/>
   </g>
   <g id="patch_63">
    <path d="M 171.540909 118.08
L 173.57 118.08
L 173.57 117.94504
L 171.540909 117.94504
z
" clip-path="url(#p3837613231)" style="fill: #1f77b4"/>
   </g>
   <g id="patch_64">
    <path d="M 173.57 118.08
L 175.599091 118.08
L 175.599091 117.883695
L 173.57 117.883695
z
" clip-path="url(#p3837613231)" style="fill: #1f77b4"/>
   </g>
   <g id="patch_65">
    <path d="M 175.599091 118.08
L 177.628182 118.08
L 177.628182 117.969578
L 175.599091 117.969578
z
" clip-path="url(#p3837613231)" style="fill: #1f77b4"/>
   </g>
   <g id="patch_66">
    <path d="M 177.628182 118.08
L 179.657273 118.08
L 179.657273 117.932771
L 177.628182 117.932771
z
" clip-path="url(#p3837613231)" style="fill: #1f77b4"/>
   </g>
   <g id="patch_67">
    <path d="M 179.657273 118.08
L 181.686364 118.08
L 181.686364 117.773273
L 179.657273 117.773273
z
" clip-path="url(#p3837613231)" style="fill: #1f77b4"/>
   </g>
   <g id="patch_68">
    <path d="M 181.686364 118.08
L 183.715455 118.08
L 183.715455 117.895964
L 181.686364 117.895964
z
" clip-path="url(#p3837613231)" style="fill: #1f77b4"/>
   </g>
   <g id="patch_69">
    <path d="M 183.715455 118.08
L 185.744545 118.08
L 185.744545 118.018655
L 183.715455 118.018655
z
" clip-path="url(#p3837613231)" style="fill: #1f77b4"/>
   </g>
   <g id="patch_70">
    <path d="M 185.744545 118.08
L 187.773636 118.08
L 187.773636 117.908233
L 185.744545 117.908233
z
" clip-path="url(#p3837613231)" style="fill: #1f77b4"/>
   </g>
   <g id="patch_71">
    <path d="M 187.773636 118.08
L 189.802727 118.08
L 189.802727 117.920502
L 187.773636 117.920502
z
" clip-path="url(#p3837613231)" style="fill: #1f77b4"/>
   </g>
   <g id="patch_72">
    <path d="M 189.802727 118.08
L 191.831818 118.08
L 191.831818 117.957309
L 189.802727 117.957309
z
" clip-path="url(#p3837613231)" style="fill: #1f77b4"/>
   </g>
   <g id="patch_73">
    <path d="M 191.831818 118.08
L 193.860909 118.08
L 193.860909 117.969578
L 191.831818 117.969578
z
" clip-path="url(#p3837613231)" style="fill: #1f77b4"/>
   </g>
   <g id="patch_74">
    <path d="M 193.860909 118.08
L 195.89 118.08
L 195.89 117.920502
L 193.860909 117.920502
z
" clip-path="url(#p3837613231)" style="fill: #1f77b4"/>
   </g>
   <g id="patch_75">
    <path d="M 195.89 118.08
L 197.919091 118.08
L 197.919091 117.932771
L 195.89 117.932771
z
" clip-path="url(#p3837613231)" style="fill: #1f77b4"/>
   </g>
   <g id="patch_76">
    <path d="M 197.919091 118.08
L 199.948182 118.08
L 199.948182 117.932771
L 197.919091 117.932771
z
" clip-path="url(#p3837613231)" style="fill: #1f77b4"/>
   </g>
   <g id="patch_77">
    <path d="M 199.948182 118.08
L 201.977273 118.08
L 201.977273 117.932771
L 199.948182 117.932771
z
" clip-path="url(#p3837613231)" style="fill: #1f77b4"/>
   </g>
   <g id="patch_78">
    <path d="M 201.977273 118.08
L 204.006364 118.08
L 204.006364 117.920502
L 201.977273 117.920502
z
" clip-path="url(#p3837613231)" style="fill: #1f77b4"/>
   </g>
   <g id="patch_79">
    <path d="M 204.006364 118.08
L 206.035455 118.08
L 206.035455 117.969578
L 204.006364 117.969578
z
" clip-path="url(#p3837613231)" style="fill: #1f77b4"/>
   </g>
   <g id="patch_80">
    <path d="M 206.035455 118.08
L 208.064545 118.08
L 208.064545 117.81008
L 206.035455 117.81008
z
" clip-path="url(#p3837613231)" style="fill: #1f77b4"/>
   </g>
   <g id="patch_81">
    <path d="M 208.064545 118.08
L 210.093636 118.08
L 210.093636 117.932771
L 208.064545 117.932771
z
" clip-path="url(#p3837613231)" style="fill: #1f77b4"/>
   </g>
   <g id="patch_82">
    <path d="M 210.093636 118.08
L 212.122727 118.08
L 212.122727 117.981847
L 210.093636 117.981847
z
" clip-path="url(#p3837613231)" style="fill: #1f77b4"/>
   </g>
   <g id="patch_83">
    <path d="M 212.122727 118.08
L 214.151818 118.08
L 214.151818 118.006386
L 212.122727 118.006386
z
" clip-path="url(#p3837613231)" style="fill: #1f77b4"/>
   </g>
   <g id="patch_84">
    <path d="M 214.151818 118.08
L 216.180909 118.08
L 216.180909 117.957309
L 214.151818 117.957309
z
" clip-path="url(#p3837613231)" style="fill: #1f77b4"/>
   </g>
   <g id="patch_85">
    <path d="M 216.180909 118.08
L 218.21 118.08
L 218.21 117.932771
L 216.180909 117.932771
z
" clip-path="url(#p3837613231)" style="fill: #1f77b4"/>
   </g>
   <g id="patch_86">
    <path d="M 218.21 118.08
L 220.239091 118.08
L 220.239091 118.006386
L 218.21 118.006386
z
" clip-path="url(#p3837613231)" style="fill: #1f77b4"/>
   </g>
   <g id="patch_87">
    <path d="M 220.239091 118.08
L 222.268182 118.08
L 222.268182 117.981847
L 220.239091 117.981847
z
" clip-path="url(#p3837613231)" style="fill: #1f77b4"/>
   </g>
   <g id="patch_88">
    <path d="M 222.268182 118.08
L 224.297273 118.08
L 224.297273 117.994116
L 222.268182 117.994116
z
" clip-path="url(#p3837613231)" style="fill: #1f77b4"/>
   </g>
   <g id="patch_89">
    <path d="M 224.297273 118.08
L 226.326364 118.08
L 226.326364 118.055462
L 224.297273 118.055462
z
" clip-path="url(#p3837613231)" style="fill: #1f77b4"/>
   </g>
   <g id="patch_90">
    <path d="M 226.326364 118.08
L 228.355455 118.08
L 228.355455 117.932771
L 226.326364 117.932771
z
" clip-path="url(#p3837613231)" style="fill: #1f77b4"/>
   </g>
   <g id="patch_91">
    <path d="M 228.355455 118.08
L 230.384545 118.08
L 230.384545 118.018655
L 228.355455 118.018655
z
" clip-path="url(#p3837613231)" style="fill: #1f77b4"/>
   </g>
   <g id="patch_92">
    <path d="M 230.384545 118.08
L 232.413636 118.08
L 232.413636 118.006386
L 230.384545 118.006386
z
" clip-path="url(#p3837613231)" style="fill: #1f77b4"/>
   </g>
   <g id="patch_93">
    <path d="M 232.413636 118.08
L 234.442727 118.08
L 234.442727 118.067731
L 232.413636 118.067731
z
" clip-path="url(#p3837613231)" style="fill: #1f77b4"/>
   </g>
   <g id="patch_94">
    <path d="M 234.442727 118.08
L 236.471818 118.08
L 236.471818 118.055462
L 234.442727 118.055462
z
" clip-path="url(#p3837613231)" style="fill: #1f77b4"/>
   </g>
   <g id="patch_95">
    <path d="M 236.471818 118.08
L 238.500909 118.08
L 238.500909 118.067731
L 236.471818 118.067731
z
" clip-path="url(#p3837613231)" style="fill: #1f77b4"/>
   </g>
   <g id="patch_96">
    <path d="M 238.500909 118.08
L 240.53 118.08
L 240.53 118.055462
L 238.500909 118.055462
z
" clip-path="url(#p3837613231)" style="fill: #1f77b4"/>
   </g>
   <g id="patch_97">
    <path d="M 240.53 118.08
L 242.559091 118.08
L 242.559091 118.067731
L 240.53 118.067731
z
" clip-path="url(#p3837613231)" style="fill: #1f77b4"/>
   </g>
   <g id="patch_98">
    <path d="M 242.559091 118.08
L 244.588182 118.08
L 244.588182 118.043193
L 242.559091 118.043193
z
" clip-path="url(#p3837613231)" style="fill: #1f77b4"/>
   </g>
   <g id="patch_99">
    <path d="M 244.588182 118.08
L 246.617273 118.08
L 246.617273 118.067731
L 244.588182 118.067731
z
" clip-path="url(#p3837613231)" style="fill: #1f77b4"/>
   </g>
   <g id="patch_100">
    <path d="M 246.617273 118.08
L 248.646364 118.08
L 248.646364 118.08
L 246.617273 118.08
z
" clip-path="url(#p3837613231)" style="fill: #1f77b4"/>
   </g>
   <g id="patch_101">
    <path d="M 248.646364 118.08
L 250.675455 118.08
L 250.675455 118.067731
L 248.646364 118.067731
z
" clip-path="url(#p3837613231)" style="fill: #1f77b4"/>
   </g>
   <g id="patch_102">
    <path d="M 250.675455 118.08
L 252.704545 118.08
L 252.704545 118.030924
L 250.675455 118.030924
z
" clip-path="url(#p3837613231)" style="fill: #1f77b4"/>
   </g>
   <g id="matplotlib.axis_1">
    <g id="xtick_1">
     <g id="line2d_1">
      <path d="M 45.566785 118.08
L 45.566785 7.2
" clip-path="url(#p3837613231)" style="fill: none; stroke: #b0b0b0; stroke-width: 0.8; stroke-linecap: square"/>
     </g>
     <g id="line2d_2">
      <defs>
       <path id="ma7dbb780f8" d="M 0 0
L 0 3.5
" style="stroke: #000000; stroke-width: 0.8"/>
      </defs>
      <g>
       <use xlink:href="#ma7dbb780f8" x="45.566785" y="118.08" style="stroke: #000000; stroke-width: 0.8"/>
      </g>
     </g>
     <g id="text_1">
      <!-- −4 -->
      <g transform="translate(38.195691 132.678438) scale(0.1 -0.1)">
       <defs>
        <path id="DejaVuSans-2212" d="M 678 2272
L 4684 2272
L 4684 1741
L 678 1741
L 678 2272
z
" transform="scale(0.015625)"/>
        <path id="DejaVuSans-34" d="M 2419 4116
L 825 1625
L 2419 1625
L 2419 4116
z
M 2253 4666
L 3047 4666
L 3047 1625
L 3713 1625
L 3713 1100
L 3047 1100
L 3047 0
L 2419 0
L 2419 1100
L 313 1100
L 313 1709
L 2253 4666
z
" transform="scale(0.015625)"/>
       </defs>
       <use xlink:href="#DejaVuSans-2212"/>
       <use xlink:href="#DejaVuSans-34" x="83.789062"/>
      </g>
     </g>
    </g>
    <g id="xtick_2">
     <g id="line2d_3">
      <path d="M 93.076571 118.08
L 93.076571 7.2
" clip-path="url(#p3837613231)" style="fill: none; stroke: #b0b0b0; stroke-width: 0.8; stroke-linecap: square"/>
     </g>
     <g id="line2d_4">
      <g>
       <use xlink:href="#ma7dbb780f8" x="93.076571" y="118.08" style="stroke: #000000; stroke-width: 0.8"/>
      </g>
     </g>
     <g id="text_2">
      <!-- −2 -->
      <g transform="translate(85.705477 132.678438) scale(0.1 -0.1)">
       <defs>
        <path id="DejaVuSans-32" d="M 1228 531
L 3431 531
L 3431 0
L 469 0
L 469 531
Q 828 903 1448 1529
Q 2069 2156 2228 2338
Q 2531 2678 2651 2914
Q 2772 3150 2772 3378
Q 2772 3750 2511 3984
Q 2250 4219 1831 4219
Q 1534 4219 1204 4116
Q 875 4013 500 3803
L 500 4441
Q 881 4594 1212 4672
Q 1544 4750 1819 4750
Q 2544 4750 2975 4387
Q 3406 4025 3406 3419
Q 3406 3131 3298 2873
Q 3191 2616 2906 2266
Q 2828 2175 2409 1742
Q 1991 1309 1228 531
z
" transform="scale(0.015625)"/>
       </defs>
       <use xlink:href="#DejaVuSans-2212"/>
       <use xlink:href="#DejaVuSans-32" x="83.789062"/>
      </g>
     </g>
    </g>
    <g id="xtick_3">
     <g id="line2d_5">
      <path d="M 140.586357 118.08
L 140.586357 7.2
" clip-path="url(#p3837613231)" style="fill: none; stroke: #b0b0b0; stroke-width: 0.8; stroke-linecap: square"/>
     </g>
     <g id="line2d_6">
      <g>
       <use xlink:href="#ma7dbb780f8" x="140.586357" y="118.08" style="stroke: #000000; stroke-width: 0.8"/>
      </g>
     </g>
     <g id="text_3">
      <!-- 0 -->
      <g transform="translate(137.405107 132.678438) scale(0.1 -0.1)">
       <defs>
        <path id="DejaVuSans-30" d="M 2034 4250
Q 1547 4250 1301 3770
Q 1056 3291 1056 2328
Q 1056 1369 1301 889
Q 1547 409 2034 409
Q 2525 409 2770 889
Q 3016 1369 3016 2328
Q 3016 3291 2770 3770
Q 2525 4250 2034 4250
z
M 2034 4750
Q 2819 4750 3233 4129
Q 3647 3509 3647 2328
Q 3647 1150 3233 529
Q 2819 -91 2034 -91
Q 1250 -91 836 529
Q 422 1150 422 2328
Q 422 3509 836 4129
Q 1250 4750 2034 4750
z
" transform="scale(0.015625)"/>
       </defs>
       <use xlink:href="#DejaVuSans-30"/>
      </g>
     </g>
    </g>
    <g id="xtick_4">
     <g id="line2d_7">
      <path d="M 188.096143 118.08
L 188.096143 7.2
" clip-path="url(#p3837613231)" style="fill: none; stroke: #b0b0b0; stroke-width: 0.8; stroke-linecap: square"/>
     </g>
     <g id="line2d_8">
      <g>
       <use xlink:href="#ma7dbb780f8" x="188.096143" y="118.08" style="stroke: #000000; stroke-width: 0.8"/>
      </g>
     </g>
     <g id="text_4">
      <!-- 2 -->
      <g transform="translate(184.914893 132.678438) scale(0.1 -0.1)">
       <use xlink:href="#DejaVuSans-32"/>
      </g>
     </g>
    </g>
    <g id="xtick_5">
     <g id="line2d_9">
      <path d="M 235.605929 118.08
L 235.605929 7.2
" clip-path="url(#p3837613231)" style="fill: none; stroke: #b0b0b0; stroke-width: 0.8; stroke-linecap: square"/>
     </g>
     <g id="line2d_10">
      <g>
       <use xlink:href="#ma7dbb780f8" x="235.605929" y="118.08" style="stroke: #000000; stroke-width: 0.8"/>
      </g>
     </g>
     <g id="text_5">
      <!-- 4 -->
      <g transform="translate(232.424679 132.678438) scale(0.1 -0.1)">
       <use xlink:href="#DejaVuSans-34"/>
      </g>
     </g>
    </g>
   </g>
   <g id="matplotlib.axis_2">
    <g id="ytick_1">
     <g id="line2d_11">
      <path d="M 39.65 118.08
L 262.85 118.08
" clip-path="url(#p3837613231)" style="fill: none; stroke: #b0b0b0; stroke-width: 0.8; stroke-linecap: square"/>
     </g>
     <g id="line2d_12">
      <defs>
       <path id="m618b8ce286" d="M 0 0
L -3.5 0
" style="stroke: #000000; stroke-width: 0.8"/>
      </defs>
      <g>
       <use xlink:href="#m618b8ce286" x="39.65" y="118.08" style="stroke: #000000; stroke-width: 0.8"/>
      </g>
     </g>
     <g id="text_6">
      <!-- 0 -->
      <g transform="translate(26.2875 121.879219) scale(0.1 -0.1)">
       <use xlink:href="#DejaVuSans-30"/>
      </g>
     </g>
    </g>
    <g id="ytick_2">
     <g id="line2d_13">
      <path d="M 39.65 93.541833
L 262.85 93.541833
" clip-path="url(#p3837613231)" style="fill: none; stroke: #b0b0b0; stroke-width: 0.8; stroke-linecap: square"/>
     </g>
     <g id="line2d_14">
      <g>
       <use xlink:href="#m618b8ce286" x="39.65" y="93.541833" style="stroke: #000000; stroke-width: 0.8"/>
      </g>
     </g>
     <g id="text_7">
      <!-- 2000 -->
      <g transform="translate(7.2 97.341052) scale(0.1 -0.1)">
       <use xlink:href="#DejaVuSans-32"/>
       <use xlink:href="#DejaVuSans-30" x="63.623047"/>
       <use xlink:href="#DejaVuSans-30" x="127.246094"/>
       <use xlink:href="#DejaVuSans-30" x="190.869141"/>
      </g>
     </g>
    </g>
    <g id="ytick_3">
     <g id="line2d_15">
      <path d="M 39.65 69.003667
L 262.85 69.003667
" clip-path="url(#p3837613231)" style="fill: none; stroke: #b0b0b0; stroke-width: 0.8; stroke-linecap: square"/>
     </g>
     <g id="line2d_16">
      <g>
       <use xlink:href="#m618b8ce286" x="39.65" y="69.003667" style="stroke: #000000; stroke-width: 0.8"/>
      </g>
     </g>
     <g id="text_8">
      <!-- 4000 -->
      <g transform="translate(7.2 72.802886) scale(0.1 -0.1)">
       <use xlink:href="#DejaVuSans-34"/>
       <use xlink:href="#DejaVuSans-30" x="63.623047"/>
       <use xlink:href="#DejaVuSans-30" x="127.246094"/>
       <use xlink:href="#DejaVuSans-30" x="190.869141"/>
      </g>
     </g>
    </g>
    <g id="ytick_4">
     <g id="line2d_17">
      <path d="M 39.65 44.4655
L 262.85 44.4655
" clip-path="url(#p3837613231)" style="fill: none; stroke: #b0b0b0; stroke-width: 0.8; stroke-linecap: square"/>
     </g>
     <g id="line2d_18">
      <g>
       <use xlink:href="#m618b8ce286" x="39.65" y="44.4655" style="stroke: #000000; stroke-width: 0.8"/>
      </g>
     </g>
     <g id="text_9">
      <!-- 6000 -->
      <g transform="translate(7.2 48.264719) scale(0.1 -0.1)">
       <defs>
        <path id="DejaVuSans-36" d="M 2113 2584
Q 1688 2584 1439 2293
Q 1191 2003 1191 1497
Q 1191 994 1439 701
Q 1688 409 2113 409
Q 2538 409 2786 701
Q 3034 994 3034 1497
Q 3034 2003 2786 2293
Q 2538 2584 2113 2584
z
M 3366 4563
L 3366 3988
Q 3128 4100 2886 4159
Q 2644 4219 2406 4219
Q 1781 4219 1451 3797
Q 1122 3375 1075 2522
Q 1259 2794 1537 2939
Q 1816 3084 2150 3084
Q 2853 3084 3261 2657
Q 3669 2231 3669 1497
Q 3669 778 3244 343
Q 2819 -91 2113 -91
Q 1303 -91 875 529
Q 447 1150 447 2328
Q 447 3434 972 4092
Q 1497 4750 2381 4750
Q 2619 4750 2861 4703
Q 3103 4656 3366 4563
z
" transform="scale(0.015625)"/>
       </defs>
       <use xlink:href="#DejaVuSans-36"/>
       <use xlink:href="#DejaVuSans-30" x="63.623047"/>
       <use xlink:href="#DejaVuSans-30" x="127.246094"/>
       <use xlink:href="#DejaVuSans-30" x="190.869141"/>
      </g>
     </g>
    </g>
    <g id="ytick_5">
     <g id="line2d_19">
      <path d="M 39.65 19.927334
L 262.85 19.927334
" clip-path="url(#p3837613231)" style="fill: none; stroke: #b0b0b0; stroke-width: 0.8; stroke-linecap: square"/>
     </g>
     <g id="line2d_20">
      <g>
       <use xlink:href="#m618b8ce286" x="39.65" y="19.927334" style="stroke: #000000; stroke-width: 0.8"/>
      </g>
     </g>
     <g id="text_10">
      <!-- 8000 -->
      <g transform="translate(7.2 23.726552) scale(0.1 -0.1)">
       <defs>
        <path id="DejaVuSans-38" d="M 2034 2216
Q 1584 2216 1326 1975
Q 1069 1734 1069 1313
Q 1069 891 1326 650
Q 1584 409 2034 409
Q 2484 409 2743 651
Q 3003 894 3003 1313
Q 3003 1734 2745 1975
Q 2488 2216 2034 2216
z
M 1403 2484
Q 997 2584 770 2862
Q 544 3141 544 3541
Q 544 4100 942 4425
Q 1341 4750 2034 4750
Q 2731 4750 3128 4425
Q 3525 4100 3525 3541
Q 3525 3141 3298 2862
Q 3072 2584 2669 2484
Q 3125 2378 3379 2068
Q 3634 1759 3634 1313
Q 3634 634 3220 271
Q 2806 -91 2034 -91
Q 1263 -91 848 271
Q 434 634 434 1313
Q 434 1759 690 2068
Q 947 2378 1403 2484
z
M 1172 3481
Q 1172 3119 1398 2916
Q 1625 2713 2034 2713
Q 2441 2713 2670 2916
Q 2900 3119 2900 3481
Q 2900 3844 2670 4047
Q 2441 4250 2034 4250
Q 1625 4250 1398 4047
Q 1172 3844 1172 3481
z
" transform="scale(0.015625)"/>
       </defs>
       <use xlink:href="#DejaVuSans-38"/>
       <use xlink:href="#DejaVuSans-30" x="63.623047"/>
       <use xlink:href="#DejaVuSans-30" x="127.246094"/>
       <use xlink:href="#DejaVuSans-30" x="190.869141"/>
      </g>
     </g>
    </g>
   </g>
   <g id="patch_103">
    <path d="M 39.65 118.08
L 39.65 7.2
" style="fill: none; stroke: #000000; stroke-width: 0.8; stroke-linejoin: miter; stroke-linecap: square"/>
   </g>
   <g id="patch_104">
    <path d="M 262.85 118.08
L 262.85 7.2
" style="fill: none; stroke: #000000; stroke-width: 0.8; stroke-linejoin: miter; stroke-linecap: square"/>
   </g>
   <g id="patch_105">
    <path d="M 39.65 118.08
L 262.85 118.08
" style="fill: none; stroke: #000000; stroke-width: 0.8; stroke-linejoin: miter; stroke-linecap: square"/>
   </g>
   <g id="patch_106">
    <path d="M 39.65 7.2
L 262.85 7.2
" style="fill: none; stroke: #000000; stroke-width: 0.8; stroke-linejoin: miter; stroke-linecap: square"/>
   </g>
  </g>
 </g>
 <defs>
  <clipPath id="p3837613231">
   <rect x="39.65" y="7.2" width="223.2" height="110.88"/>
  </clipPath>
 </defs>
</svg>
