<?xml version="1.0" encoding="utf-8" standalone="no"?>
<!DOCTYPE svg PUBLIC "-//W3C//DTD SVG 1.1//EN"
  "http://www.w3.org/Graphics/SVG/1.1/DTD/svg11.dtd">
<svg xmlns:xlink="http://www.w3.org/1999/xlink" width="1432.925625pt" height="357.638125pt" viewBox="0 0 1432.925625 357.638125" xmlns="http://www.w3.org/2000/svg" version="1.1">
 <metadata>
  <rdf:RDF xmlns:dc="http://purl.org/dc/elements/1.1/" xmlns:cc="http://creativecommons.org/ns#" xmlns:rdf="http://www.w3.org/1999/02/22-rdf-syntax-ns#">
   <cc:Work>
    <dc:type rdf:resource="http://purl.org/dc/dcmitype/StillImage"/>
    <dc:date>2023-06-14T18:24:06.254131</dc:date>
    <dc:format>image/svg+xml</dc:format>
    <dc:creator>
     <cc:Agent>
      <dc:title>Matplotlib v3.7.1, https://matplotlib.org/</dc:title>
     </cc:Agent>
    </dc:creator>
   </cc:Work>
  </rdf:RDF>
 </metadata>
 <defs>
  <style type="text/css">*{stroke-linejoin: round; stroke-linecap: butt}</style>
 </defs>
 <g id="figure_1">
  <g id="patch_1">
   <path d="M 0 357.638125
L 1432.925625 357.638125
L 1432.925625 0
L 0 0
z
" style="fill: #ffffff"/>
  </g>
  <g id="axes_1">
   <g id="patch_2">
    <path d="M 36.465625 313.478125
L 715.805625 313.478125
L 715.805625 22.318125
L 36.465625 22.318125
z
" style="fill: #ffffff"/>
   </g>
   <g id="PolyCollection_1">
    <defs>
     <path id="mbc92dcac2a" d="M 67.344716 -257.41061
L 67.344716 -201.281995
L 71.042811 -164.481153
L 74.740905 -175.48438
L 78.439 -155.812371
L 82.137095 -198.161763
L 85.83519 -154.579185
L 89.533284 -158.717868
L 93.231379 -156.454279
L 96.929474 -186.438203
L 100.627568 -143.439092
L 104.325663 -157.982777
L 108.023758 -179.838013
L 111.721853 -173.506676
L 115.419947 -139.679017
L 119.118042 -161.536905
L 122.816137 -173.506676
L 126.514231 -168.684572
L 130.212326 -198.616379
L 133.910421 -168.022814
L 137.608516 -154.003699
L 141.30661 -191.441263
L 145.004705 -202.751714
L 148.7028 -163.951395
L 152.400894 -193.794482
L 156.098989 -176.201798
L 159.797084 -169.884325
L 163.495179 -190.404236
L 167.193273 -163.427832
L 170.891368 -149.364415
L 174.589463 -149.682743
L 178.287557 -122.897047
L 181.985652 -157.553111
L 185.683747 -151.36696
L 189.381842 -179.999092
L 193.079936 -194.006135
L 196.778031 -144.424436
L 200.476126 -203.14166
L 204.174221 -144.424436
L 207.872315 -175.955461
L 211.57041 -160.456258
L 215.268505 -225.076946
L 218.966599 -218.04199
L 222.664694 -190.646053
L 226.362789 -195.649679
L 230.060884 -217.802328
L 233.758978 -206.964671
L 237.457073 -180.605402
L 241.155168 -225.076946
L 244.853262 -226.831783
L 248.551357 -180.936045
L 252.249452 -202.927953
L 255.947547 -166.273679
L 259.645641 -250.419827
L 263.343736 -185.892766
L 267.041831 -255.779041
L 270.739925 -214.942031
L 274.43802 -259.893823
L 278.136115 -229.164067
L 281.83421 -245.052747
L 285.532304 -211.340602
L 289.230399 -157.982777
L 292.928494 -150.942869
L 296.626589 -128.114717
L 300.324683 -214.813
L 304.022778 -198.161763
L 307.720873 -152.997317
L 311.418967 -190.28353
L 315.117062 -94.317524
L 318.815157 -106.762378
L 322.513252 -141.679833
L 326.211346 -143.040932
L 329.909441 -204.699487
L 333.607536 -204.699487
L 337.30563 -133.419289
L 341.003725 -119.884453
L 344.70182 -75.294738
L 348.399915 -202.706897
L 352.098009 -164.818206
L 355.796104 -157.172876
L 359.494199 -164.033607
L 363.192293 -98.619231
L 366.890388 -57.394545
L 370.588483 -112.419769
L 374.286578 -195.472406
L 377.984672 -191.90785
L 381.682767 -107.856297
L 385.380862 -114.212916
L 389.078957 -154.003699
L 392.777051 -110.672211
L 396.475146 -188.230516
L 400.173241 -162.483702
L 403.871335 -216.763145
L 407.56943 -160.205906
L 411.267525 -196.361629
L 414.96562 -138.371605
L 418.663714 -176.286537
L 422.361809 -147.984925
L 426.059904 -139.679017
L 429.757998 -165.609344
L 433.456093 -188.16102
L 437.154188 -164.175779
L 440.852283 -168.977969
L 444.550377 -168.294755
L 448.248472 -104.759077
L 451.946567 -208.411504
L 455.644661 -141.618488
L 459.342756 -173.89909
L 463.040851 -118.943289
L 466.738946 -129.017231
L 470.43704 -190.11477
L 474.135135 -134.234227
L 477.83323 -143.855714
L 481.531325 -173.89909
L 485.229419 -139.439752
L 488.927514 -132.243114
L 492.625609 -237.176696
L 496.323703 -213.144794
L 500.021798 -242.686348
L 503.719893 -232.020459
L 507.417988 -160.635496
L 511.116082 -225.681616
L 514.814177 -174.98627
L 518.512272 -220.303891
L 522.210366 -207.412718
L 525.908461 -161.718238
L 529.606556 -175.351309
L 533.304651 -196.005081
L 537.002745 -181.951987
L 540.70084 -191.76029
L 544.398935 -160.039379
L 548.097029 -172.542586
L 551.795124 -161.718238
L 555.493219 -165.609344
L 559.191314 -186.142408
L 562.889408 -219.386417
L 566.587503 -222.293286
L 570.285598 -197.078187
L 573.983693 -207.620093
L 577.681787 -244.629855
L 581.379882 -185.018271
L 585.077977 -168.294755
L 588.776071 -159.087632
L 592.474166 -184.850682
L 596.172261 -209.146831
L 599.870356 -203.742178
L 603.56845 -188.543813
L 607.266545 -154.561513
L 610.96464 -180.22099
L 614.662734 -214.105805
L 618.360829 -171.169019
L 622.058924 -179.456462
L 625.757019 -159.211217
L 629.455113 -183.321316
L 633.153208 -183.321316
L 636.851303 -167.352161
L 640.549397 -196.361629
L 644.247492 -171.056891
L 647.945587 -176.7062
L 651.643682 -120.46977
L 655.341776 -195.558148
L 659.039871 -160.893269
L 662.737966 -177.196669
L 666.43606 -153.228554
L 670.134155 -155.035839
L 673.83225 -133.023104
L 677.530345 -151.622397
L 681.228439 -133.023104
L 684.926534 -142.255597
L 684.926534 -175.6443
L 684.926534 -175.6443
L 681.228439 -159.07391
L 677.530345 -163.92205
L 673.83225 -167.906502
L 670.134155 -183.574661
L 666.43606 -167.091958
L 662.737966 -180.685115
L 659.039871 -188.774149
L 655.341776 -198.76833
L 651.643682 -186.929618
L 647.945587 -228.761184
L 644.247492 -236.427464
L 640.549397 -208.752331
L 636.851303 -192.847082
L 633.153208 -191.374772
L 629.455113 -200.731691
L 625.757019 -187.399535
L 622.058924 -192.108432
L 618.360829 -188.375215
L 614.662734 -215.784125
L 610.96464 -218.346241
L 607.266545 -207.348435
L 603.56845 -211.631729
L 599.870356 -211.913499
L 596.172261 -216.661498
L 592.474166 -224.704086
L 588.776071 -203.742178
L 585.077977 -252.529774
L 581.379882 -193.262926
L 577.681787 -245.214547
L 573.983693 -211.631729
L 570.285598 -209.108419
L 566.587503 -231.909411
L 562.889408 -226.476763
L 559.191314 -237.818327
L 555.493219 -176.085397
L 551.795124 -233.024223
L 548.097029 -227.480498
L 544.398935 -267.886149
L 540.70084 -240.370932
L 537.002745 -193.944825
L 533.304651 -233.536382
L 529.606556 -195.053684
L 525.908461 -219.461056
L 522.210366 -221.975358
L 518.512272 -242.748282
L 514.814177 -266.549198
L 511.116082 -246.199353
L 507.417988 -230.516295
L 503.719893 -264.561634
L 500.021798 -246.399246
L 496.323703 -217.915443
L 492.625609 -247.765449
L 488.927514 -245.634586
L 485.229419 -163.92205
L 481.531325 -201.081747
L 477.83323 -204.417095
L 474.135135 -227.68605
L 470.43704 -211.122726
L 466.738946 -228.381855
L 463.040851 -147.918854
L 459.342756 -211.122726
L 455.644661 -220.633231
L 451.946567 -254.155076
L 448.248472 -133.831982
L 444.550377 -230.941821
L 440.852283 -250.799717
L 437.154188 -197.743754
L 433.456093 -261.996765
L 429.757998 -220.963457
L 426.059904 -148.276238
L 422.361809 -161.718238
L 418.663714 -205.515798
L 414.96562 -236.427464
L 411.267525 -209.146831
L 407.56943 -272.567292
L 403.871335 -241.875011
L 400.173241 -231.197818
L 396.475146 -199.072851
L 392.777051 -193.715217
L 389.078957 -211.005574
L 385.380862 -182.94245
L 381.682767 -275.006818
L 377.984672 -199.072851
L 374.286578 -195.714213
L 370.588483 -190.97668
L 366.890388 -130.061787
L 363.192293 -136.925354
L 359.494199 -194.750156
L 355.796104 -201.680943
L 352.098009 -168.84094
L 348.399915 -214.813
L 344.70182 -145.830903
L 341.003725 -214.813
L 337.30563 -183.805509
L 333.607536 -232.226945
L 329.909441 -251.715743
L 326.211346 -214.813
L 322.513252 -175.48438
L 318.815157 -145.124764
L 315.117062 -188.230516
L 311.418967 -282.419408
L 307.720873 -256.541486
L 304.022778 -264.332688
L 300.324683 -253.329361
L 296.626589 -202.865561
L 292.928494 -209.146831
L 289.230399 -167.064795
L 285.532304 -299.47993
L 281.83421 -301.798036
L 278.136115 -283.253192
L 274.43802 -322.085455
L 270.739925 -220.963457
L 267.041831 -292.71879
L 263.343736 -233.655567
L 259.645641 -281.082009
L 255.947547 -256.060946
L 252.249452 -249.501578
L 248.551357 -205.388199
L 244.853262 -305.012982
L 241.155168 -265.994365
L 237.457073 -293.139682
L 233.758978 -283.931481
L 230.060884 -236.427464
L 226.362789 -196.571901
L 222.664694 -193.459166
L 218.966599 -230.516295
L 215.268505 -225.681616
L 211.57041 -260.941428
L 207.872315 -249.212875
L 204.174221 -264.387166
L 200.476126 -301.798036
L 196.778031 -266.14136
L 193.079936 -262.65398
L 189.381842 -286.325711
L 185.683747 -311.411355
L 181.985652 -228.422904
L 178.287557 -247.322559
L 174.589463 -300.828146
L 170.891368 -261.756232
L 167.193273 -252.640745
L 163.495179 -293.911505
L 159.797084 -304.412859
L 156.098989 -263.193367
L 152.400894 -277.586713
L 148.7028 -275.993862
L 145.004705 -241.976159
L 141.30661 -239.86802
L 137.608516 -285.583403
L 133.910421 -264.714466
L 130.212326 -251.909967
L 126.514231 -223.895281
L 122.816137 -297.531027
L 119.118042 -265.296701
L 115.419947 -265.296701
L 111.721853 -284.595254
L 108.023758 -259.518561
L 104.325663 -270.167114
L 100.627568 -250.75526
L 96.929474 -319.251344
L 93.231379 -289.751861
L 89.533284 -263.718091
L 85.83519 -287.21405
L 82.137095 -269.375634
L 78.439 -274.305739
L 74.740905 -256.541486
L 71.042811 -270.167114
L 67.344716 -257.41061
z
" style="stroke: #0000ff; stroke-opacity: 0.2"/>
    </defs>
    <g clip-path="url(#p260f5f9529)">
     <use xlink:href="#mbc92dcac2a" x="0" y="357.638125" style="fill: #0000ff; fill-opacity: 0.2; stroke: #0000ff; stroke-opacity: 0.2"/>
    </g>
   </g>
   <g id="matplotlib.axis_1">
    <g id="xtick_1">
     <g id="line2d_1">
      <defs>
       <path id="me1781b6a12" d="M 0 0
L 0 3.5
" style="stroke: #000000; stroke-width: 0.8"/>
      </defs>
      <g>
       <use xlink:href="#me1781b6a12" x="100.627568" y="313.478125" style="stroke: #000000; stroke-width: 0.8"/>
      </g>
     </g>
     <g id="text_1">
      <!-- −75 -->
      <g transform="translate(90.075225 328.076563) scale(0.1 -0.1)">
       <defs>
        <path id="DejaVuSans-2212" d="M 678 2272
L 4684 2272
L 4684 1741
L 678 1741
L 678 2272
z
" transform="scale(0.015625)"/>
        <path id="DejaVuSans-37" d="M 525 4666
L 3525 4666
L 3525 4397
L 1831 0
L 1172 0
L 2766 4134
L 525 4134
L 525 4666
z
" transform="scale(0.015625)"/>
        <path id="DejaVuSans-35" d="M 691 4666
L 3169 4666
L 3169 4134
L 1269 4134
L 1269 2991
Q 1406 3038 1543 3061
Q 1681 3084 1819 3084
Q 2600 3084 3056 2656
Q 3513 2228 3513 1497
Q 3513 744 3044 326
Q 2575 -91 1722 -91
Q 1428 -91 1123 -41
Q 819 9 494 109
L 494 744
Q 775 591 1075 516
Q 1375 441 1709 441
Q 2250 441 2565 725
Q 2881 1009 2881 1497
Q 2881 1984 2565 2268
Q 2250 2553 1709 2553
Q 1456 2553 1204 2497
Q 953 2441 691 2322
L 691 4666
z
" transform="scale(0.015625)"/>
       </defs>
       <use xlink:href="#DejaVuSans-2212"/>
       <use xlink:href="#DejaVuSans-37" x="83.789062"/>
       <use xlink:href="#DejaVuSans-35" x="147.412109"/>
      </g>
     </g>
    </g>
    <g id="xtick_2">
     <g id="line2d_2">
      <g>
       <use xlink:href="#me1781b6a12" x="193.079936" y="313.478125" style="stroke: #000000; stroke-width: 0.8"/>
      </g>
     </g>
     <g id="text_2">
      <!-- −50 -->
      <g transform="translate(182.527593 328.076563) scale(0.1 -0.1)">
       <defs>
        <path id="DejaVuSans-30" d="M 2034 4250
Q 1547 4250 1301 3770
Q 1056 3291 1056 2328
Q 1056 1369 1301 889
Q 1547 409 2034 409
Q 2525 409 2770 889
Q 3016 1369 3016 2328
Q 3016 3291 2770 3770
Q 2525 4250 2034 4250
z
M 2034 4750
Q 2819 4750 3233 4129
Q 3647 3509 3647 2328
Q 3647 1150 3233 529
Q 2819 -91 2034 -91
Q 1250 -91 836 529
Q 422 1150 422 2328
Q 422 3509 836 4129
Q 1250 4750 2034 4750
z
" transform="scale(0.015625)"/>
       </defs>
       <use xlink:href="#DejaVuSans-2212"/>
       <use xlink:href="#DejaVuSans-35" x="83.789062"/>
       <use xlink:href="#DejaVuSans-30" x="147.412109"/>
      </g>
     </g>
    </g>
    <g id="xtick_3">
     <g id="line2d_3">
      <g>
       <use xlink:href="#me1781b6a12" x="285.532304" y="313.478125" style="stroke: #000000; stroke-width: 0.8"/>
      </g>
     </g>
     <g id="text_3">
      <!-- −25 -->
      <g transform="translate(274.979961 328.076563) scale(0.1 -0.1)">
       <defs>
        <path id="DejaVuSans-32" d="M 1228 531
L 3431 531
L 3431 0
L 469 0
L 469 531
Q 828 903 1448 1529
Q 2069 2156 2228 2338
Q 2531 2678 2651 2914
Q 2772 3150 2772 3378
Q 2772 3750 2511 3984
Q 2250 4219 1831 4219
Q 1534 4219 1204 4116
Q 875 4013 500 3803
L 500 4441
Q 881 4594 1212 4672
Q 1544 4750 1819 4750
Q 2544 4750 2975 4387
Q 3406 4025 3406 3419
Q 3406 3131 3298 2873
Q 3191 2616 2906 2266
Q 2828 2175 2409 1742
Q 1991 1309 1228 531
z
" transform="scale(0.015625)"/>
       </defs>
       <use xlink:href="#DejaVuSans-2212"/>
       <use xlink:href="#DejaVuSans-32" x="83.789062"/>
       <use xlink:href="#DejaVuSans-35" x="147.412109"/>
      </g>
     </g>
    </g>
    <g id="xtick_4">
     <g id="line2d_4">
      <g>
       <use xlink:href="#me1781b6a12" x="377.984672" y="313.478125" style="stroke: #000000; stroke-width: 0.8"/>
      </g>
     </g>
     <g id="text_4">
      <!-- 0 -->
      <g transform="translate(374.803422 328.076563) scale(0.1 -0.1)">
       <use xlink:href="#DejaVuSans-30"/>
      </g>
     </g>
    </g>
    <g id="xtick_5">
     <g id="line2d_5">
      <g>
       <use xlink:href="#me1781b6a12" x="470.43704" y="313.478125" style="stroke: #000000; stroke-width: 0.8"/>
      </g>
     </g>
     <g id="text_5">
      <!-- 25 -->
      <g transform="translate(464.07454 328.076563) scale(0.1 -0.1)">
       <use xlink:href="#DejaVuSans-32"/>
       <use xlink:href="#DejaVuSans-35" x="63.623047"/>
      </g>
     </g>
    </g>
    <g id="xtick_6">
     <g id="line2d_6">
      <g>
       <use xlink:href="#me1781b6a12" x="562.889408" y="313.478125" style="stroke: #000000; stroke-width: 0.8"/>
      </g>
     </g>
     <g id="text_6">
      <!-- 50 -->
      <g transform="translate(556.526908 328.076563) scale(0.1 -0.1)">
       <use xlink:href="#DejaVuSans-35"/>
       <use xlink:href="#DejaVuSans-30" x="63.623047"/>
      </g>
     </g>
    </g>
    <g id="xtick_7">
     <g id="line2d_7">
      <g>
       <use xlink:href="#me1781b6a12" x="655.341776" y="313.478125" style="stroke: #000000; stroke-width: 0.8"/>
      </g>
     </g>
     <g id="text_7">
      <!-- 75 -->
      <g transform="translate(648.979276 328.076563) scale(0.1 -0.1)">
       <use xlink:href="#DejaVuSans-37"/>
       <use xlink:href="#DejaVuSans-35" x="63.623047"/>
      </g>
     </g>
    </g>
    <g id="text_8">
     <!-- Days before/after protest -->
     <g transform="translate(313.098125 341.754687) scale(0.1 -0.1)">
      <defs>
       <path id="DejaVuSans-44" d="M 1259 4147
L 1259 519
L 2022 519
Q 2988 519 3436 956
Q 3884 1394 3884 2338
Q 3884 3275 3436 3711
Q 2988 4147 2022 4147
L 1259 4147
z
M 628 4666
L 1925 4666
Q 3281 4666 3915 4102
Q 4550 3538 4550 2338
Q 4550 1131 3912 565
Q 3275 0 1925 0
L 628 0
L 628 4666
z
" transform="scale(0.015625)"/>
       <path id="DejaVuSans-61" d="M 2194 1759
Q 1497 1759 1228 1600
Q 959 1441 959 1056
Q 959 750 1161 570
Q 1363 391 1709 391
Q 2188 391 2477 730
Q 2766 1069 2766 1631
L 2766 1759
L 2194 1759
z
M 3341 1997
L 3341 0
L 2766 0
L 2766 531
Q 2569 213 2275 61
Q 1981 -91 1556 -91
Q 1019 -91 701 211
Q 384 513 384 1019
Q 384 1609 779 1909
Q 1175 2209 1959 2209
L 2766 2209
L 2766 2266
Q 2766 2663 2505 2880
Q 2244 3097 1772 3097
Q 1472 3097 1187 3025
Q 903 2953 641 2809
L 641 3341
Q 956 3463 1253 3523
Q 1550 3584 1831 3584
Q 2591 3584 2966 3190
Q 3341 2797 3341 1997
z
" transform="scale(0.015625)"/>
       <path id="DejaVuSans-79" d="M 2059 -325
Q 1816 -950 1584 -1140
Q 1353 -1331 966 -1331
L 506 -1331
L 506 -850
L 844 -850
Q 1081 -850 1212 -737
Q 1344 -625 1503 -206
L 1606 56
L 191 3500
L 800 3500
L 1894 763
L 2988 3500
L 3597 3500
L 2059 -325
z
" transform="scale(0.015625)"/>
       <path id="DejaVuSans-73" d="M 2834 3397
L 2834 2853
Q 2591 2978 2328 3040
Q 2066 3103 1784 3103
Q 1356 3103 1142 2972
Q 928 2841 928 2578
Q 928 2378 1081 2264
Q 1234 2150 1697 2047
L 1894 2003
Q 2506 1872 2764 1633
Q 3022 1394 3022 966
Q 3022 478 2636 193
Q 2250 -91 1575 -91
Q 1294 -91 989 -36
Q 684 19 347 128
L 347 722
Q 666 556 975 473
Q 1284 391 1588 391
Q 1994 391 2212 530
Q 2431 669 2431 922
Q 2431 1156 2273 1281
Q 2116 1406 1581 1522
L 1381 1569
Q 847 1681 609 1914
Q 372 2147 372 2553
Q 372 3047 722 3315
Q 1072 3584 1716 3584
Q 2034 3584 2315 3537
Q 2597 3491 2834 3397
z
" transform="scale(0.015625)"/>
       <path id="DejaVuSans-20" transform="scale(0.015625)"/>
       <path id="DejaVuSans-62" d="M 3116 1747
Q 3116 2381 2855 2742
Q 2594 3103 2138 3103
Q 1681 3103 1420 2742
Q 1159 2381 1159 1747
Q 1159 1113 1420 752
Q 1681 391 2138 391
Q 2594 391 2855 752
Q 3116 1113 3116 1747
z
M 1159 2969
Q 1341 3281 1617 3432
Q 1894 3584 2278 3584
Q 2916 3584 3314 3078
Q 3713 2572 3713 1747
Q 3713 922 3314 415
Q 2916 -91 2278 -91
Q 1894 -91 1617 61
Q 1341 213 1159 525
L 1159 0
L 581 0
L 581 4863
L 1159 4863
L 1159 2969
z
" transform="scale(0.015625)"/>
       <path id="DejaVuSans-65" d="M 3597 1894
L 3597 1613
L 953 1613
Q 991 1019 1311 708
Q 1631 397 2203 397
Q 2534 397 2845 478
Q 3156 559 3463 722
L 3463 178
Q 3153 47 2828 -22
Q 2503 -91 2169 -91
Q 1331 -91 842 396
Q 353 884 353 1716
Q 353 2575 817 3079
Q 1281 3584 2069 3584
Q 2775 3584 3186 3129
Q 3597 2675 3597 1894
z
M 3022 2063
Q 3016 2534 2758 2815
Q 2500 3097 2075 3097
Q 1594 3097 1305 2825
Q 1016 2553 972 2059
L 3022 2063
z
" transform="scale(0.015625)"/>
       <path id="DejaVuSans-66" d="M 2375 4863
L 2375 4384
L 1825 4384
Q 1516 4384 1395 4259
Q 1275 4134 1275 3809
L 1275 3500
L 2222 3500
L 2222 3053
L 1275 3053
L 1275 0
L 697 0
L 697 3053
L 147 3053
L 147 3500
L 697 3500
L 697 3744
Q 697 4328 969 4595
Q 1241 4863 1831 4863
L 2375 4863
z
" transform="scale(0.015625)"/>
       <path id="DejaVuSans-6f" d="M 1959 3097
Q 1497 3097 1228 2736
Q 959 2375 959 1747
Q 959 1119 1226 758
Q 1494 397 1959 397
Q 2419 397 2687 759
Q 2956 1122 2956 1747
Q 2956 2369 2687 2733
Q 2419 3097 1959 3097
z
M 1959 3584
Q 2709 3584 3137 3096
Q 3566 2609 3566 1747
Q 3566 888 3137 398
Q 2709 -91 1959 -91
Q 1206 -91 779 398
Q 353 888 353 1747
Q 353 2609 779 3096
Q 1206 3584 1959 3584
z
" transform="scale(0.015625)"/>
       <path id="DejaVuSans-72" d="M 2631 2963
Q 2534 3019 2420 3045
Q 2306 3072 2169 3072
Q 1681 3072 1420 2755
Q 1159 2438 1159 1844
L 1159 0
L 581 0
L 581 3500
L 1159 3500
L 1159 2956
Q 1341 3275 1631 3429
Q 1922 3584 2338 3584
Q 2397 3584 2469 3576
Q 2541 3569 2628 3553
L 2631 2963
z
" transform="scale(0.015625)"/>
       <path id="DejaVuSans-2f" d="M 1625 4666
L 2156 4666
L 531 -594
L 0 -594
L 1625 4666
z
" transform="scale(0.015625)"/>
       <path id="DejaVuSans-74" d="M 1172 4494
L 1172 3500
L 2356 3500
L 2356 3053
L 1172 3053
L 1172 1153
Q 1172 725 1289 603
Q 1406 481 1766 481
L 2356 481
L 2356 0
L 1766 0
Q 1100 0 847 248
Q 594 497 594 1153
L 594 3053
L 172 3053
L 172 3500
L 594 3500
L 594 4494
L 1172 4494
z
" transform="scale(0.015625)"/>
       <path id="DejaVuSans-70" d="M 1159 525
L 1159 -1331
L 581 -1331
L 581 3500
L 1159 3500
L 1159 2969
Q 1341 3281 1617 3432
Q 1894 3584 2278 3584
Q 2916 3584 3314 3078
Q 3713 2572 3713 1747
Q 3713 922 3314 415
Q 2916 -91 2278 -91
Q 1894 -91 1617 61
Q 1341 213 1159 525
z
M 3116 1747
Q 3116 2381 2855 2742
Q 2594 3103 2138 3103
Q 1681 3103 1420 2742
Q 1159 2381 1159 1747
Q 1159 1113 1420 752
Q 1681 391 2138 391
Q 2594 391 2855 752
Q 3116 1113 3116 1747
z
" transform="scale(0.015625)"/>
      </defs>
      <use xlink:href="#DejaVuSans-44"/>
      <use xlink:href="#DejaVuSans-61" x="77.001953"/>
      <use xlink:href="#DejaVuSans-79" x="138.28125"/>
      <use xlink:href="#DejaVuSans-73" x="197.460938"/>
      <use xlink:href="#DejaVuSans-20" x="249.560547"/>
      <use xlink:href="#DejaVuSans-62" x="281.347656"/>
      <use xlink:href="#DejaVuSans-65" x="344.824219"/>
      <use xlink:href="#DejaVuSans-66" x="406.347656"/>
      <use xlink:href="#DejaVuSans-6f" x="441.552734"/>
      <use xlink:href="#DejaVuSans-72" x="502.734375"/>
      <use xlink:href="#DejaVuSans-65" x="541.597656"/>
      <use xlink:href="#DejaVuSans-2f" x="603.121094"/>
      <use xlink:href="#DejaVuSans-61" x="636.8125"/>
      <use xlink:href="#DejaVuSans-66" x="698.091797"/>
      <use xlink:href="#DejaVuSans-74" x="731.546875"/>
      <use xlink:href="#DejaVuSans-65" x="770.755859"/>
      <use xlink:href="#DejaVuSans-72" x="832.279297"/>
      <use xlink:href="#DejaVuSans-20" x="873.392578"/>
      <use xlink:href="#DejaVuSans-70" x="905.179688"/>
      <use xlink:href="#DejaVuSans-72" x="968.65625"/>
      <use xlink:href="#DejaVuSans-6f" x="1007.519531"/>
      <use xlink:href="#DejaVuSans-74" x="1068.701172"/>
      <use xlink:href="#DejaVuSans-65" x="1107.910156"/>
      <use xlink:href="#DejaVuSans-73" x="1169.433594"/>
      <use xlink:href="#DejaVuSans-74" x="1221.533203"/>
     </g>
    </g>
   </g>
   <g id="matplotlib.axis_2">
    <g id="ytick_1">
     <g id="line2d_8">
      <defs>
       <path id="m95c4d1be9d" d="M 0 0
L -3.5 0
" style="stroke: #000000; stroke-width: 0.8"/>
      </defs>
      <g>
       <use xlink:href="#m95c4d1be9d" x="36.465625" y="291.174149" style="stroke: #000000; stroke-width: 0.8"/>
      </g>
     </g>
     <g id="text_9">
      <!-- 0.04 -->
      <g style="fill: #0000ff" transform="translate(7.2 294.973368) scale(0.1 -0.1)">
       <defs>
        <path id="DejaVuSans-2e" d="M 684 794
L 1344 794
L 1344 0
L 684 0
L 684 794
z
" transform="scale(0.015625)"/>
        <path id="DejaVuSans-34" d="M 2419 4116
L 825 1625
L 2419 1625
L 2419 4116
z
M 2253 4666
L 3047 4666
L 3047 1625
L 3713 1625
L 3713 1100
L 3047 1100
L 3047 0
L 2419 0
L 2419 1100
L 313 1100
L 313 1709
L 2253 4666
z
" transform="scale(0.015625)"/>
       </defs>
       <use xlink:href="#DejaVuSans-30"/>
       <use xlink:href="#DejaVuSans-2e" x="63.623047"/>
       <use xlink:href="#DejaVuSans-30" x="95.410156"/>
       <use xlink:href="#DejaVuSans-34" x="159.033203"/>
      </g>
     </g>
    </g>
    <g id="ytick_2">
     <g id="line2d_9">
      <g>
       <use xlink:href="#m95c4d1be9d" x="36.465625" y="245.414748" style="stroke: #000000; stroke-width: 0.8"/>
      </g>
     </g>
     <g id="text_10">
      <!-- 0.06 -->
      <g style="fill: #0000ff" transform="translate(7.2 249.213967) scale(0.1 -0.1)">
       <defs>
        <path id="DejaVuSans-36" d="M 2113 2584
Q 1688 2584 1439 2293
Q 1191 2003 1191 1497
Q 1191 994 1439 701
Q 1688 409 2113 409
Q 2538 409 2786 701
Q 3034 994 3034 1497
Q 3034 2003 2786 2293
Q 2538 2584 2113 2584
z
M 3366 4563
L 3366 3988
Q 3128 4100 2886 4159
Q 2644 4219 2406 4219
Q 1781 4219 1451 3797
Q 1122 3375 1075 2522
Q 1259 2794 1537 2939
Q 1816 3084 2150 3084
Q 2853 3084 3261 2657
Q 3669 2231 3669 1497
Q 3669 778 3244 343
Q 2819 -91 2113 -91
Q 1303 -91 875 529
Q 447 1150 447 2328
Q 447 3434 972 4092
Q 1497 4750 2381 4750
Q 2619 4750 2861 4703
Q 3103 4656 3366 4563
z
" transform="scale(0.015625)"/>
       </defs>
       <use xlink:href="#DejaVuSans-30"/>
       <use xlink:href="#DejaVuSans-2e" x="63.623047"/>
       <use xlink:href="#DejaVuSans-30" x="95.410156"/>
       <use xlink:href="#DejaVuSans-36" x="159.033203"/>
      </g>
     </g>
    </g>
    <g id="ytick_3">
     <g id="line2d_10">
      <g>
       <use xlink:href="#m95c4d1be9d" x="36.465625" y="199.655348" style="stroke: #000000; stroke-width: 0.8"/>
      </g>
     </g>
     <g id="text_11">
      <!-- 0.08 -->
      <g style="fill: #0000ff" transform="translate(7.2 203.454567) scale(0.1 -0.1)">
       <defs>
        <path id="DejaVuSans-38" d="M 2034 2216
Q 1584 2216 1326 1975
Q 1069 1734 1069 1313
Q 1069 891 1326 650
Q 1584 409 2034 409
Q 2484 409 2743 651
Q 3003 894 3003 1313
Q 3003 1734 2745 1975
Q 2488 2216 2034 2216
z
M 1403 2484
Q 997 2584 770 2862
Q 544 3141 544 3541
Q 544 4100 942 4425
Q 1341 4750 2034 4750
Q 2731 4750 3128 4425
Q 3525 4100 3525 3541
Q 3525 3141 3298 2862
Q 3072 2584 2669 2484
Q 3125 2378 3379 2068
Q 3634 1759 3634 1313
Q 3634 634 3220 271
Q 2806 -91 2034 -91
Q 1263 -91 848 271
Q 434 634 434 1313
Q 434 1759 690 2068
Q 947 2378 1403 2484
z
M 1172 3481
Q 1172 3119 1398 2916
Q 1625 2713 2034 2713
Q 2441 2713 2670 2916
Q 2900 3119 2900 3481
Q 2900 3844 2670 4047
Q 2441 4250 2034 4250
Q 1625 4250 1398 4047
Q 1172 3844 1172 3481
z
" transform="scale(0.015625)"/>
       </defs>
       <use xlink:href="#DejaVuSans-30"/>
       <use xlink:href="#DejaVuSans-2e" x="63.623047"/>
       <use xlink:href="#DejaVuSans-30" x="95.410156"/>
       <use xlink:href="#DejaVuSans-38" x="159.033203"/>
      </g>
     </g>
    </g>
    <g id="ytick_4">
     <g id="line2d_11">
      <g>
       <use xlink:href="#m95c4d1be9d" x="36.465625" y="153.895947" style="stroke: #000000; stroke-width: 0.8"/>
      </g>
     </g>
     <g id="text_12">
      <!-- 0.10 -->
      <g style="fill: #0000ff" transform="translate(7.2 157.695166) scale(0.1 -0.1)">
       <defs>
        <path id="DejaVuSans-31" d="M 794 531
L 1825 531
L 1825 4091
L 703 3866
L 703 4441
L 1819 4666
L 2450 4666
L 2450 531
L 3481 531
L 3481 0
L 794 0
L 794 531
z
" transform="scale(0.015625)"/>
       </defs>
       <use xlink:href="#DejaVuSans-30"/>
       <use xlink:href="#DejaVuSans-2e" x="63.623047"/>
       <use xlink:href="#DejaVuSans-31" x="95.410156"/>
       <use xlink:href="#DejaVuSans-30" x="159.033203"/>
      </g>
     </g>
    </g>
    <g id="ytick_5">
     <g id="line2d_12">
      <g>
       <use xlink:href="#m95c4d1be9d" x="36.465625" y="108.136547" style="stroke: #000000; stroke-width: 0.8"/>
      </g>
     </g>
     <g id="text_13">
      <!-- 0.12 -->
      <g style="fill: #0000ff" transform="translate(7.2 111.935766) scale(0.1 -0.1)">
       <use xlink:href="#DejaVuSans-30"/>
       <use xlink:href="#DejaVuSans-2e" x="63.623047"/>
       <use xlink:href="#DejaVuSans-31" x="95.410156"/>
       <use xlink:href="#DejaVuSans-32" x="159.033203"/>
      </g>
     </g>
    </g>
    <g id="ytick_6">
     <g id="line2d_13">
      <g>
       <use xlink:href="#m95c4d1be9d" x="36.465625" y="62.377147" style="stroke: #000000; stroke-width: 0.8"/>
      </g>
     </g>
     <g id="text_14">
      <!-- 0.14 -->
      <g style="fill: #0000ff" transform="translate(7.2 66.176365) scale(0.1 -0.1)">
       <use xlink:href="#DejaVuSans-30"/>
       <use xlink:href="#DejaVuSans-2e" x="63.623047"/>
       <use xlink:href="#DejaVuSans-31" x="95.410156"/>
       <use xlink:href="#DejaVuSans-34" x="159.033203"/>
      </g>
     </g>
    </g>
   </g>
   <g id="line2d_14">
    <path d="M 67.344716 128.291823
L 71.042811 140.313991
L 74.740905 141.625192
L 78.439 142.57907
L 82.137095 123.869427
L 85.83519 136.741507
L 89.533284 146.420146
L 93.231379 134.535055
L 96.929474 104.793352
L 100.627568 160.540949
L 104.325663 143.56318
L 108.023758 137.959838
L 111.721853 128.58716
L 115.419947 155.150266
L 119.118042 144.221322
L 122.816137 122.119273
L 126.514231 161.348198
L 130.212326 132.374952
L 133.910421 141.269485
L 137.608516 137.844574
L 141.30661 141.983483
L 145.004705 135.274188
L 148.7028 137.665497
L 152.400894 121.947528
L 156.098989 137.940543
L 159.797084 120.489533
L 163.495179 115.480254
L 167.193273 149.603837
L 170.891368 152.077802
L 174.589463 132.382681
L 178.287557 172.528322
L 181.985652 164.650117
L 185.683747 126.248967
L 189.381842 124.475723
L 193.079936 129.308067
L 196.778031 152.355227
L 200.476126 105.168277
L 204.174221 153.232324
L 207.872315 145.053957
L 211.57041 146.939282
L 215.268505 132.258844
L 218.966599 133.358983
L 222.664694 165.585516
L 226.362789 161.527335
L 230.060884 130.523229
L 233.758978 112.190049
L 237.457073 120.765583
L 241.155168 112.102469
L 244.853262 91.715742
L 248.551357 164.476003
L 252.249452 131.423359
L 255.947547 146.470813
L 259.645641 91.887207
L 263.343736 147.863959
L 267.041831 83.38921
L 270.739925 139.685381
L 274.43802 66.648486
L 278.136115 101.429495
L 281.83421 84.212734
L 285.532304 102.227859
L 289.230399 195.114339
L 292.928494 177.593275
L 296.626589 192.147986
L 300.324683 123.566945
L 304.022778 126.3909
L 307.720873 152.868724
L 311.418967 121.286656
L 315.117062 216.364105
L 318.815157 231.694554
L 322.513252 199.056018
L 326.211346 178.711159
L 329.909441 129.43051
L 333.607536 139.174909
L 337.30563 199.025726
L 341.003725 190.289399
L 344.70182 247.075305
L 348.399915 148.878176
L 352.098009 190.808552
L 355.796104 178.211215
L 359.494199 178.246244
L 363.192293 239.865833
L 366.890388 263.909959
L 370.588483 205.939901
L 374.286578 162.044816
L 377.984672 162.147775
L 381.682767 166.206568
L 385.380862 209.060442
L 389.078957 175.133488
L 392.777051 205.444411
L 396.475146 163.986441
L 400.173241 160.797365
L 403.871335 128.319047
L 407.56943 141.251526
L 411.267525 154.883895
L 414.96562 170.23859
L 418.663714 166.736958
L 422.361809 202.786543
L 426.059904 213.660498
L 429.757998 164.351724
L 433.456093 132.559233
L 437.154188 176.678359
L 440.852283 147.749282
L 444.550377 158.019837
L 448.248472 238.342595
L 451.946567 126.354835
L 455.644661 176.512265
L 459.342756 165.127217
L 463.040851 224.207054
L 466.738946 178.938582
L 470.43704 157.019377
L 474.135135 176.677986
L 477.83323 183.501721
L 481.531325 170.147706
L 485.229419 205.957224
L 488.927514 168.699275
L 492.625609 115.167052
L 496.323703 142.108006
L 500.021798 113.095328
L 503.719893 109.347079
L 507.417988 162.06223
L 511.116082 121.69764
L 514.814177 136.870391
L 518.512272 126.112038
L 522.210366 142.944087
L 525.908461 167.048478
L 529.606556 172.435629
L 533.304651 142.867394
L 537.002745 169.689719
L 540.70084 141.572514
L 544.398935 143.675361
L 548.097029 157.626583
L 551.795124 160.266894
L 555.493219 186.790755
L 559.191314 145.657758
L 562.889408 134.706535
L 566.587503 130.536777
L 570.285598 154.544822
L 573.983693 148.012214
L 577.681787 112.715924
L 581.379882 168.497527
L 585.077977 147.225861
L 588.776071 176.22322
L 592.474166 152.860741
L 596.172261 144.73396
L 599.870356 149.810287
L 603.56845 157.550354
L 607.266545 176.683151
L 610.96464 158.354509
L 614.662734 142.69316
L 618.360829 177.866008
L 622.058924 171.855678
L 625.757019 184.332749
L 629.455113 165.611622
L 633.153208 170.290081
L 636.851303 177.538504
L 640.549397 155.081145
L 644.247492 153.895947
L 647.945587 154.904433
L 651.643682 203.938431
L 655.341776 160.474886
L 659.039871 182.804416
L 662.737966 178.697233
L 666.43606 197.477869
L 670.134155 188.332875
L 673.83225 207.173322
L 677.530345 199.865901
L 681.228439 211.589618
L 684.926534 198.688176
L 684.926534 198.688176
" clip-path="url(#p260f5f9529)" style="fill: none; stroke: #0000ff; stroke-width: 0.5; stroke-linecap: square"/>
   </g>
   <g id="line2d_15">
    <path d="M 377.984672 313.478125
L 377.984672 22.318125
" clip-path="url(#p260f5f9529)" style="fill: none; stroke-dasharray: 1.85,0.8; stroke-dashoffset: 0; stroke: #ff0000; stroke-width: 0.5"/>
   </g>
   <g id="line2d_16">
    <path d="M 352.098009 313.478125
L 352.098009 22.318125
" clip-path="url(#p260f5f9529)" style="fill: none; stroke-dasharray: 1.85,0.8; stroke-dashoffset: 0; stroke: #000000; stroke-width: 0.5"/>
   </g>
   <g id="line2d_17">
    <path d="M 326.211346 313.478125
L 326.211346 22.318125
" clip-path="url(#p260f5f9529)" style="fill: none; stroke-dasharray: 1.85,0.8; stroke-dashoffset: 0; stroke: #000000; stroke-width: 0.5"/>
   </g>
   <g id="line2d_18">
    <path d="M 300.324683 313.478125
L 300.324683 22.318125
" clip-path="url(#p260f5f9529)" style="fill: none; stroke-dasharray: 1.85,0.8; stroke-dashoffset: 0; stroke: #000000; stroke-width: 0.5"/>
   </g>
   <g id="line2d_19">
    <path d="M 274.43802 313.478125
L 274.43802 22.318125
" clip-path="url(#p260f5f9529)" style="fill: none; stroke-dasharray: 1.85,0.8; stroke-dashoffset: 0; stroke: #000000; stroke-width: 0.5"/>
   </g>
   <g id="line2d_20">
    <path d="M 403.871335 313.478125
L 403.871335 22.318125
" clip-path="url(#p260f5f9529)" style="fill: none; stroke-dasharray: 1.85,0.8; stroke-dashoffset: 0; stroke: #000000; stroke-width: 0.5"/>
   </g>
   <g id="line2d_21">
    <path d="M 429.757998 313.478125
L 429.757998 22.318125
" clip-path="url(#p260f5f9529)" style="fill: none; stroke-dasharray: 1.85,0.8; stroke-dashoffset: 0; stroke: #000000; stroke-width: 0.5"/>
   </g>
   <g id="line2d_22">
    <path d="M 455.644661 313.478125
L 455.644661 22.318125
" clip-path="url(#p260f5f9529)" style="fill: none; stroke-dasharray: 1.85,0.8; stroke-dashoffset: 0; stroke: #000000; stroke-width: 0.5"/>
   </g>
   <g id="line2d_23">
    <path d="M 481.531325 313.478125
L 481.531325 22.318125
" clip-path="url(#p260f5f9529)" style="fill: none; stroke-dasharray: 1.85,0.8; stroke-dashoffset: 0; stroke: #000000; stroke-width: 0.5"/>
   </g>
   <g id="patch_3">
    <path d="M 36.465625 313.478125
L 36.465625 22.318125
" style="fill: none; stroke: #000000; stroke-width: 0.8; stroke-linejoin: miter; stroke-linecap: square"/>
   </g>
   <g id="patch_4">
    <path d="M 715.805625 313.478125
L 715.805625 22.318125
" style="fill: none; stroke: #000000; stroke-width: 0.8; stroke-linejoin: miter; stroke-linecap: square"/>
   </g>
   <g id="patch_5">
    <path d="M 36.465625 313.478125
L 715.805625 313.478125
" style="fill: none; stroke: #000000; stroke-width: 0.8; stroke-linejoin: miter; stroke-linecap: square"/>
   </g>
   <g id="patch_6">
    <path d="M 36.465625 22.318125
L 715.805625 22.318125
" style="fill: none; stroke: #000000; stroke-width: 0.8; stroke-linejoin: miter; stroke-linecap: square"/>
   </g>
   <g id="text_15">
    <!-- t_protests -->
    <g transform="translate(346.324063 16.318125) scale(0.12 -0.12)">
     <defs>
      <path id="DejaVuSans-5f" d="M 3263 -1063
L 3263 -1509
L -63 -1509
L -63 -1063
L 3263 -1063
z
" transform="scale(0.015625)"/>
     </defs>
     <use xlink:href="#DejaVuSans-74"/>
     <use xlink:href="#DejaVuSans-5f" x="39.208984"/>
     <use xlink:href="#DejaVuSans-70" x="89.208984"/>
     <use xlink:href="#DejaVuSans-72" x="152.685547"/>
     <use xlink:href="#DejaVuSans-6f" x="191.548828"/>
     <use xlink:href="#DejaVuSans-74" x="252.730469"/>
     <use xlink:href="#DejaVuSans-65" x="291.939453"/>
     <use xlink:href="#DejaVuSans-73" x="353.462891"/>
     <use xlink:href="#DejaVuSans-74" x="405.5625"/>
     <use xlink:href="#DejaVuSans-73" x="444.771484"/>
    </g>
   </g>
  </g>
  <g id="axes_2">
   <g id="patch_7">
    <path d="M 746.385625 313.478125
L 1425.725625 313.478125
L 1425.725625 22.318125
L 746.385625 22.318125
z
" style="fill: #ffffff"/>
   </g>
   <g id="PolyCollection_2">
    <defs>
     <path id="md1e72fa223" d="M 777.264716 -231.190217
L 777.264716 -141.953902
L 780.962811 -173.184289
L 784.660905 -167.689415
L 788.359 -186.847932
L 792.057095 -182.601077
L 795.75519 -206.63179
L 799.453284 -140.80575
L 803.151379 -128.390261
L 806.849474 -166.428091
L 810.547568 -143.751339
L 814.245663 -161.618434
L 817.943758 -116.160035
L 821.641853 -122.061731
L 825.339947 -88.516925
L 829.038042 -57.394545
L 832.736137 -134.903212
L 836.434231 -139.29211
L 840.132326 -195.738165
L 843.830421 -161.300959
L 847.528516 -153.673039
L 851.22661 -119.931752
L 854.924705 -176.251988
L 858.6228 -107.178399
L 862.320894 -155.401619
L 866.018989 -105.108938
L 869.717084 -128.877411
L 873.415179 -99.636978
L 877.113273 -142.818995
L 880.811368 -96.599978
L 884.509463 -96.464664
L 888.207557 -111.614356
L 891.905652 -98.649629
L 895.603747 -98.642185
L 899.301842 -102.186918
L 902.999936 -127.328673
L 906.698031 -126.176839
L 910.396126 -115.803291
L 914.094221 -132.802103
L 917.792315 -129.628479
L 921.49041 -102.713314
L 925.188505 -115.577093
L 928.886599 -86.793878
L 932.584694 -156.304185
L 936.282789 -105.433818
L 939.980884 -103.227057
L 943.678978 -120.699961
L 947.377073 -127.240206
L 951.075168 -107.634953
L 954.773262 -168.165284
L 958.471357 -110.720651
L 962.169452 -185.515288
L 965.867547 -158.7506
L 969.565641 -138.599136
L 973.263736 -103.370735
L 976.961831 -126.439585
L 980.659925 -158.328813
L 984.35802 -135.685138
L 988.056115 -117.546768
L 991.75421 -118.391668
L 995.452304 -117.654453
L 999.150399 -142.91418
L 1002.848494 -147.251176
L 1006.546589 -149.001072
L 1010.244683 -177.125489
L 1013.942778 -154.673671
L 1017.640873 -136.572739
L 1021.338967 -129.071748
L 1025.037062 -142.647019
L 1028.735157 -95.7431
L 1032.433252 -121.92697
L 1036.131346 -120.257697
L 1039.829441 -131.256621
L 1043.527536 -131.927034
L 1047.22563 -155.704096
L 1050.923725 -203.145203
L 1054.62182 -152.630422
L 1058.319915 -126.824285
L 1062.018009 -152.49565
L 1065.716104 -175.417384
L 1069.414199 -189.990075
L 1073.112293 -155.614363
L 1076.810388 -125.688474
L 1080.508483 -124.037933
L 1084.206578 -112.444544
L 1087.904672 -124.832764
L 1091.602767 -101.864044
L 1095.300862 -109.390895
L 1098.998957 -152.386057
L 1102.697051 -176.449069
L 1106.395146 -185.52604
L 1110.093241 -138.133775
L 1113.791335 -152.510516
L 1117.48943 -140.869689
L 1121.187525 -118.677712
L 1124.88562 -135.039575
L 1128.583714 -169.340813
L 1132.281809 -190.698186
L 1135.979904 -137.895434
L 1139.677998 -146.449602
L 1143.376093 -173.10467
L 1147.074188 -150.655537
L 1150.772283 -142.366326
L 1154.470377 -153.260967
L 1158.168472 -106.674498
L 1161.866567 -175.474719
L 1165.564661 -142.6032
L 1169.262756 -113.454749
L 1172.960851 -123.494287
L 1176.658946 -146.993498
L 1180.35704 -116.005476
L 1184.055135 -155.857619
L 1187.75323 -101.34349
L 1191.451325 -93.552822
L 1195.149419 -118.993471
L 1198.847514 -65.772798
L 1202.545609 -111.324208
L 1206.243703 -153.200603
L 1209.941798 -136.195397
L 1213.639893 -144.239506
L 1217.337988 -167.775748
L 1221.036082 -143.266381
L 1224.734177 -146.436363
L 1228.432272 -122.696709
L 1232.130366 -89.915143
L 1235.828461 -177.546479
L 1239.526556 -151.116938
L 1243.224651 -168.748922
L 1246.922745 -214.971581
L 1250.62084 -170.153252
L 1254.318935 -149.935785
L 1258.017029 -132.789902
L 1261.715124 -132.522084
L 1265.413219 -144.662162
L 1269.111314 -148.050408
L 1272.809408 -142.003401
L 1276.507503 -123.354991
L 1280.205598 -102.142611
L 1283.903693 -125.515247
L 1287.601787 -104.22056
L 1291.299882 -117.132736
L 1294.997977 -173.048545
L 1298.696071 -169.273264
L 1302.394166 -215.394868
L 1306.092261 -227.002143
L 1309.790356 -199.070327
L 1313.48845 -112.149854
L 1317.186545 -115.501402
L 1320.88464 -122.91688
L 1324.582734 -173.0806
L 1328.280829 -155.429153
L 1331.978924 -176.459298
L 1335.677019 -163.917989
L 1339.375113 -179.280963
L 1343.073208 -137.995641
L 1346.771303 -199.909222
L 1350.469397 -194.36094
L 1354.167492 -180.318904
L 1357.865587 -196.915382
L 1361.563682 -145.477909
L 1365.261776 -208.527812
L 1368.959871 -204.588035
L 1372.657966 -239.445274
L 1376.35606 -174.038736
L 1380.054155 -129.262551
L 1383.75225 -174.357869
L 1387.450345 -162.002181
L 1391.148439 -152.173024
L 1394.846534 -154.19558
L 1394.846534 -267.208189
L 1394.846534 -267.208189
L 1391.148439 -281.397507
L 1387.450345 -251.195604
L 1383.75225 -306.840818
L 1380.054155 -231.858765
L 1376.35606 -239.504582
L 1372.657966 -276.054882
L 1368.959871 -258.073595
L 1365.261776 -281.174758
L 1361.563682 -272.200818
L 1357.865587 -312.444742
L 1354.167492 -289.485525
L 1350.469397 -296.363616
L 1346.771303 -266.337359
L 1343.073208 -210.422629
L 1339.375113 -265.292991
L 1335.677019 -260.687698
L 1331.978924 -222.548543
L 1328.280829 -228.765732
L 1324.582734 -263.555742
L 1320.88464 -246.700919
L 1317.186545 -225.356939
L 1313.48845 -220.368822
L 1309.790356 -246.647627
L 1306.092261 -258.962757
L 1302.394166 -243.383741
L 1298.696071 -211.332412
L 1294.997977 -199.510761
L 1291.299882 -209.738365
L 1287.601787 -170.52168
L 1283.903693 -173.244179
L 1280.205598 -163.870423
L 1276.507503 -187.624983
L 1272.809408 -230.061931
L 1269.111314 -189.741723
L 1265.413219 -190.988964
L 1261.715124 -198.74034
L 1258.017029 -211.324456
L 1254.318935 -186.276894
L 1250.62084 -232.863836
L 1246.922745 -248.285554
L 1243.224651 -226.128163
L 1239.526556 -222.024302
L 1235.828461 -229.974031
L 1232.130366 -180.275987
L 1228.432272 -216.619688
L 1224.734177 -222.688551
L 1221.036082 -202.259189
L 1217.337988 -225.028087
L 1213.639893 -203.21806
L 1209.941798 -177.002932
L 1206.243703 -198.520698
L 1202.545609 -215.443932
L 1198.847514 -165.287222
L 1195.149419 -195.743478
L 1191.451325 -138.570621
L 1187.75323 -146.75968
L 1184.055135 -213.116956
L 1180.35704 -176.075475
L 1176.658946 -190.135808
L 1172.960851 -158.479232
L 1169.262756 -175.823923
L 1165.564661 -158.974376
L 1161.866567 -200.054816
L 1158.168472 -159.9955
L 1154.470377 -208.938988
L 1150.772283 -181.366674
L 1147.074188 -169.894078
L 1143.376093 -227.079909
L 1139.677998 -243.658531
L 1135.979904 -235.947502
L 1132.281809 -245.832871
L 1128.583714 -195.626013
L 1124.88562 -208.305986
L 1121.187525 -221.505548
L 1117.48943 -215.326325
L 1113.791335 -212.993524
L 1110.093241 -174.762619
L 1106.395146 -201.715581
L 1102.697051 -193.139077
L 1098.998957 -224.995515
L 1095.300862 -191.796872
L 1091.602767 -186.473664
L 1087.904672 -157.308382
L 1084.206578 -179.905589
L 1080.508483 -170.768857
L 1076.810388 -222.977155
L 1073.112293 -227.508498
L 1069.414199 -217.264787
L 1065.716104 -219.356152
L 1062.018009 -166.720708
L 1058.319915 -153.664586
L 1054.62182 -212.531614
L 1050.923725 -204.154538
L 1047.22563 -190.27292
L 1043.527536 -203.985504
L 1039.829441 -164.263909
L 1036.131346 -184.003836
L 1032.433252 -132.170808
L 1028.735157 -185.881236
L 1025.037062 -209.680459
L 1021.338967 -166.738018
L 1017.640873 -172.690322
L 1013.942778 -182.570542
L 1010.244683 -181.419767
L 1006.546589 -164.648874
L 1002.848494 -184.925323
L 999.150399 -185.2758
L 995.452304 -134.47336
L 991.75421 -130.870335
L 988.056115 -180.561945
L 984.35802 -164.898174
L 980.659925 -166.787162
L 976.961831 -180.268154
L 973.263736 -179.52187
L 969.565641 -203.420405
L 965.867547 -201.994003
L 962.169452 -204.817691
L 958.471357 -156.235512
L 954.773262 -177.120532
L 951.075168 -171.577305
L 947.377073 -183.925039
L 943.678978 -142.93355
L 939.980884 -139.617344
L 936.282789 -201.503104
L 932.584694 -218.784124
L 928.886599 -131.641792
L 925.188505 -187.157913
L 921.49041 -166.980726
L 917.792315 -186.034665
L 914.094221 -211.113421
L 910.396126 -171.09766
L 906.698031 -177.689254
L 902.999936 -165.063548
L 899.301842 -178.830109
L 895.603747 -161.399321
L 891.905652 -118.132861
L 888.207557 -135.731036
L 884.509463 -134.026188
L 880.811368 -159.65751
L 877.113273 -252.855463
L 873.415179 -167.721812
L 869.717084 -248.844967
L 866.018989 -222.365576
L 862.320894 -211.332706
L 858.6228 -237.207148
L 854.924705 -228.184232
L 851.22661 -236.341898
L 847.528516 -235.985668
L 843.830421 -265.066115
L 840.132326 -285.97408
L 836.434231 -302.355311
L 832.736137 -289.57985
L 829.038042 -231.807345
L 825.339947 -211.8614
L 821.641853 -215.332743
L 817.943758 -289.260886
L 814.245663 -322.085455
L 810.547568 -229.028172
L 806.849474 -269.655992
L 803.151379 -214.167691
L 799.453284 -242.447012
L 795.75519 -287.562516
L 792.057095 -283.81242
L 788.359 -278.376312
L 784.660905 -219.16424
L 780.962811 -209.951486
L 777.264716 -231.190217
z
" style="stroke: #0000ff; stroke-opacity: 0.2"/>
    </defs>
    <g clip-path="url(#pc0fc8d3517)">
     <use xlink:href="#md1e72fa223" x="0" y="357.638125" style="fill: #0000ff; fill-opacity: 0.2; stroke: #0000ff; stroke-opacity: 0.2"/>
    </g>
   </g>
   <g id="matplotlib.axis_3">
    <g id="xtick_8">
     <g id="line2d_24">
      <g>
       <use xlink:href="#me1781b6a12" x="810.547568" y="313.478125" style="stroke: #000000; stroke-width: 0.8"/>
      </g>
     </g>
     <g id="text_16">
      <!-- −75 -->
      <g transform="translate(799.995225 328.076563) scale(0.1 -0.1)">
       <use xlink:href="#DejaVuSans-2212"/>
       <use xlink:href="#DejaVuSans-37" x="83.789062"/>
       <use xlink:href="#DejaVuSans-35" x="147.412109"/>
      </g>
     </g>
    </g>
    <g id="xtick_9">
     <g id="line2d_25">
      <g>
       <use xlink:href="#me1781b6a12" x="902.999936" y="313.478125" style="stroke: #000000; stroke-width: 0.8"/>
      </g>
     </g>
     <g id="text_17">
      <!-- −50 -->
      <g transform="translate(892.447593 328.076563) scale(0.1 -0.1)">
       <use xlink:href="#DejaVuSans-2212"/>
       <use xlink:href="#DejaVuSans-35" x="83.789062"/>
       <use xlink:href="#DejaVuSans-30" x="147.412109"/>
      </g>
     </g>
    </g>
    <g id="xtick_10">
     <g id="line2d_26">
      <g>
       <use xlink:href="#me1781b6a12" x="995.452304" y="313.478125" style="stroke: #000000; stroke-width: 0.8"/>
      </g>
     </g>
     <g id="text_18">
      <!-- −25 -->
      <g transform="translate(984.899961 328.076563) scale(0.1 -0.1)">
       <use xlink:href="#DejaVuSans-2212"/>
       <use xlink:href="#DejaVuSans-32" x="83.789062"/>
       <use xlink:href="#DejaVuSans-35" x="147.412109"/>
      </g>
     </g>
    </g>
    <g id="xtick_11">
     <g id="line2d_27">
      <g>
       <use xlink:href="#me1781b6a12" x="1087.904672" y="313.478125" style="stroke: #000000; stroke-width: 0.8"/>
      </g>
     </g>
     <g id="text_19">
      <!-- 0 -->
      <g transform="translate(1084.723422 328.076563) scale(0.1 -0.1)">
       <use xlink:href="#DejaVuSans-30"/>
      </g>
     </g>
    </g>
    <g id="xtick_12">
     <g id="line2d_28">
      <g>
       <use xlink:href="#me1781b6a12" x="1180.35704" y="313.478125" style="stroke: #000000; stroke-width: 0.8"/>
      </g>
     </g>
     <g id="text_20">
      <!-- 25 -->
      <g transform="translate(1173.99454 328.076563) scale(0.1 -0.1)">
       <use xlink:href="#DejaVuSans-32"/>
       <use xlink:href="#DejaVuSans-35" x="63.623047"/>
      </g>
     </g>
    </g>
    <g id="xtick_13">
     <g id="line2d_29">
      <g>
       <use xlink:href="#me1781b6a12" x="1272.809408" y="313.478125" style="stroke: #000000; stroke-width: 0.8"/>
      </g>
     </g>
     <g id="text_21">
      <!-- 50 -->
      <g transform="translate(1266.446908 328.076563) scale(0.1 -0.1)">
       <use xlink:href="#DejaVuSans-35"/>
       <use xlink:href="#DejaVuSans-30" x="63.623047"/>
      </g>
     </g>
    </g>
    <g id="xtick_14">
     <g id="line2d_30">
      <g>
       <use xlink:href="#me1781b6a12" x="1365.261776" y="313.478125" style="stroke: #000000; stroke-width: 0.8"/>
      </g>
     </g>
     <g id="text_22">
      <!-- 75 -->
      <g transform="translate(1358.899276 328.076563) scale(0.1 -0.1)">
       <use xlink:href="#DejaVuSans-37"/>
       <use xlink:href="#DejaVuSans-35" x="63.623047"/>
      </g>
     </g>
    </g>
    <g id="text_23">
     <!-- Days before/after protest -->
     <g transform="translate(1023.018125 341.754687) scale(0.1 -0.1)">
      <use xlink:href="#DejaVuSans-44"/>
      <use xlink:href="#DejaVuSans-61" x="77.001953"/>
      <use xlink:href="#DejaVuSans-79" x="138.28125"/>
      <use xlink:href="#DejaVuSans-73" x="197.460938"/>
      <use xlink:href="#DejaVuSans-20" x="249.560547"/>
      <use xlink:href="#DejaVuSans-62" x="281.347656"/>
      <use xlink:href="#DejaVuSans-65" x="344.824219"/>
      <use xlink:href="#DejaVuSans-66" x="406.347656"/>
      <use xlink:href="#DejaVuSans-6f" x="441.552734"/>
      <use xlink:href="#DejaVuSans-72" x="502.734375"/>
      <use xlink:href="#DejaVuSans-65" x="541.597656"/>
      <use xlink:href="#DejaVuSans-2f" x="603.121094"/>
      <use xlink:href="#DejaVuSans-61" x="636.8125"/>
      <use xlink:href="#DejaVuSans-66" x="698.091797"/>
      <use xlink:href="#DejaVuSans-74" x="731.546875"/>
      <use xlink:href="#DejaVuSans-65" x="770.755859"/>
      <use xlink:href="#DejaVuSans-72" x="832.279297"/>
      <use xlink:href="#DejaVuSans-20" x="873.392578"/>
      <use xlink:href="#DejaVuSans-70" x="905.179688"/>
      <use xlink:href="#DejaVuSans-72" x="968.65625"/>
      <use xlink:href="#DejaVuSans-6f" x="1007.519531"/>
      <use xlink:href="#DejaVuSans-74" x="1068.701172"/>
      <use xlink:href="#DejaVuSans-65" x="1107.910156"/>
      <use xlink:href="#DejaVuSans-73" x="1169.433594"/>
      <use xlink:href="#DejaVuSans-74" x="1221.533203"/>
     </g>
    </g>
   </g>
   <g id="matplotlib.axis_4">
    <g id="ytick_7">
     <g id="line2d_31">
      <g>
       <use xlink:href="#m95c4d1be9d" x="746.385625" y="290.381184" style="stroke: #000000; stroke-width: 0.8"/>
      </g>
     </g>
     <g id="text_24">
      <!-- 12 -->
      <g style="fill: #0000ff" transform="translate(726.660625 294.180403) scale(0.1 -0.1)">
       <use xlink:href="#DejaVuSans-31"/>
       <use xlink:href="#DejaVuSans-32" x="63.623047"/>
      </g>
     </g>
    </g>
    <g id="ytick_8">
     <g id="line2d_32">
      <g>
       <use xlink:href="#m95c4d1be9d" x="746.385625" y="244.88515" style="stroke: #000000; stroke-width: 0.8"/>
      </g>
     </g>
     <g id="text_25">
      <!-- 13 -->
      <g style="fill: #0000ff" transform="translate(726.660625 248.684369) scale(0.1 -0.1)">
       <defs>
        <path id="DejaVuSans-33" d="M 2597 2516
Q 3050 2419 3304 2112
Q 3559 1806 3559 1356
Q 3559 666 3084 287
Q 2609 -91 1734 -91
Q 1441 -91 1130 -33
Q 819 25 488 141
L 488 750
Q 750 597 1062 519
Q 1375 441 1716 441
Q 2309 441 2620 675
Q 2931 909 2931 1356
Q 2931 1769 2642 2001
Q 2353 2234 1838 2234
L 1294 2234
L 1294 2753
L 1863 2753
Q 2328 2753 2575 2939
Q 2822 3125 2822 3475
Q 2822 3834 2567 4026
Q 2313 4219 1838 4219
Q 1578 4219 1281 4162
Q 984 4106 628 3988
L 628 4550
Q 988 4650 1302 4700
Q 1616 4750 1894 4750
Q 2613 4750 3031 4423
Q 3450 4097 3450 3541
Q 3450 3153 3228 2886
Q 3006 2619 2597 2516
z
" transform="scale(0.015625)"/>
       </defs>
       <use xlink:href="#DejaVuSans-31"/>
       <use xlink:href="#DejaVuSans-33" x="63.623047"/>
      </g>
     </g>
    </g>
    <g id="ytick_9">
     <g id="line2d_33">
      <g>
       <use xlink:href="#m95c4d1be9d" x="746.385625" y="199.389116" style="stroke: #000000; stroke-width: 0.8"/>
      </g>
     </g>
     <g id="text_26">
      <!-- 14 -->
      <g style="fill: #0000ff" transform="translate(726.660625 203.188335) scale(0.1 -0.1)">
       <use xlink:href="#DejaVuSans-31"/>
       <use xlink:href="#DejaVuSans-34" x="63.623047"/>
      </g>
     </g>
    </g>
    <g id="ytick_10">
     <g id="line2d_34">
      <g>
       <use xlink:href="#m95c4d1be9d" x="746.385625" y="153.893082" style="stroke: #000000; stroke-width: 0.8"/>
      </g>
     </g>
     <g id="text_27">
      <!-- 15 -->
      <g style="fill: #0000ff" transform="translate(726.660625 157.692301) scale(0.1 -0.1)">
       <use xlink:href="#DejaVuSans-31"/>
       <use xlink:href="#DejaVuSans-35" x="63.623047"/>
      </g>
     </g>
    </g>
    <g id="ytick_11">
     <g id="line2d_35">
      <g>
       <use xlink:href="#m95c4d1be9d" x="746.385625" y="108.397049" style="stroke: #000000; stroke-width: 0.8"/>
      </g>
     </g>
     <g id="text_28">
      <!-- 16 -->
      <g style="fill: #0000ff" transform="translate(726.660625 112.196267) scale(0.1 -0.1)">
       <use xlink:href="#DejaVuSans-31"/>
       <use xlink:href="#DejaVuSans-36" x="63.623047"/>
      </g>
     </g>
    </g>
    <g id="ytick_12">
     <g id="line2d_36">
      <g>
       <use xlink:href="#m95c4d1be9d" x="746.385625" y="62.901015" style="stroke: #000000; stroke-width: 0.8"/>
      </g>
     </g>
     <g id="text_29">
      <!-- 17 -->
      <g style="fill: #0000ff" transform="translate(726.660625 66.700233) scale(0.1 -0.1)">
       <use xlink:href="#DejaVuSans-31"/>
       <use xlink:href="#DejaVuSans-37" x="63.623047"/>
      </g>
     </g>
    </g>
   </g>
   <g id="line2d_37">
    <path d="M 777.264716 171.066065
L 780.962811 166.070237
L 784.660905 164.211298
L 788.359 125.026003
L 792.057095 124.431377
L 795.75519 110.540972
L 799.453284 166.011744
L 803.151379 186.359149
L 806.849474 139.596083
L 810.547568 171.24837
L 814.245663 115.786181
L 817.943758 154.927664
L 821.641853 188.940888
L 825.339947 207.448963
L 829.038042 213.03718
L 832.736137 145.396594
L 836.434231 136.814415
L 840.132326 116.782003
L 843.830421 144.454588
L 847.528516 162.808771
L 851.22661 179.5013
L 854.924705 155.420015
L 858.6228 185.445351
L 862.320894 174.270963
L 866.018989 193.900868
L 869.717084 168.776936
L 873.415179 223.95873
L 877.113273 159.800896
L 880.811368 229.509381
L 884.509463 242.392699
L 888.207557 233.965429
L 891.905652 249.24688
L 895.603747 227.617372
L 899.301842 217.129612
L 906.698031 205.705079
L 910.396126 214.187649
L 914.094221 185.680363
L 917.792315 199.806553
L 921.49041 222.791105
L 925.188505 206.270622
L 928.886599 248.42029
L 932.584694 170.093971
L 936.282789 204.169664
L 939.980884 236.215925
L 943.678978 225.821369
L 947.377073 202.055503
L 951.075168 218.031996
L 954.773262 184.995217
L 958.471357 224.160043
L 962.169452 162.471635
L 965.867547 177.265824
L 969.565641 186.628354
L 973.263736 216.191822
L 976.961831 204.284255
L 980.659925 195.080138
L 984.35802 207.346469
L 988.056115 208.583769
L 991.75421 233.007123
L 995.452304 231.574218
L 999.150399 193.543135
L 1002.848494 191.549876
L 1006.546589 200.813152
L 1010.244683 178.365497
L 1013.942778 189.016018
L 1017.640873 203.006595
L 1021.338967 209.733242
L 1025.037062 181.474386
L 1028.735157 216.825957
L 1032.433252 230.589236
L 1036.131346 205.507358
L 1039.829441 209.87786
L 1043.527536 189.681856
L 1047.22563 184.649617
L 1050.923725 153.988254
L 1054.62182 175.057107
L 1058.319915 217.39369
L 1062.018009 198.029946
L 1065.716104 160.251357
L 1069.414199 154.010694
L 1073.112293 166.076695
L 1076.810388 183.30531
L 1080.508483 210.23473
L 1084.206578 211.463059
L 1087.904672 216.567552
L 1091.602767 213.469271
L 1095.300862 207.044241
L 1098.998957 168.947339
L 1102.697051 172.844052
L 1106.395146 164.017314
L 1110.093241 201.189928
L 1113.791335 174.886105
L 1117.48943 179.540118
L 1121.187525 187.546495
L 1124.88562 185.965345
L 1128.583714 175.154712
L 1132.281809 139.372596
L 1135.979904 170.716657
L 1139.677998 162.584058
L 1143.376093 157.545836
L 1147.074188 197.363318
L 1150.772283 195.771625
L 1154.470377 176.538147
L 1158.168472 224.303126
L 1161.866567 169.873357
L 1165.564661 206.849337
L 1169.262756 212.998789
L 1172.960851 216.651366
L 1176.658946 189.073472
L 1180.35704 211.59765
L 1184.055135 173.150838
L 1187.75323 233.58654
L 1191.451325 241.576404
L 1195.149419 200.269651
L 1198.847514 242.108115
L 1202.545609 194.254055
L 1206.243703 181.777474
L 1209.941798 201.03896
L 1213.639893 183.909342
L 1217.337988 161.236208
L 1221.036082 184.87534
L 1224.734177 173.075668
L 1228.432272 187.979926
L 1232.130366 222.54256
L 1235.828461 153.87787
L 1239.526556 171.067505
L 1243.224651 160.199583
L 1246.922745 126.009558
L 1250.62084 156.129581
L 1254.318935 189.531786
L 1258.017029 185.580946
L 1261.715124 192.006913
L 1265.413219 189.812562
L 1269.111314 188.742059
L 1272.809408 171.605459
L 1276.507503 202.148138
L 1280.205598 224.631608
L 1283.903693 208.258412
L 1287.601787 220.267005
L 1291.299882 194.202575
L 1294.997977 171.358472
L 1298.696071 167.335287
L 1302.394166 128.24882
L 1306.092261 114.655675
L 1309.790356 134.779148
L 1313.48845 191.378787
L 1317.186545 187.208954
L 1320.88464 172.829226
L 1324.582734 139.319954
L 1328.280829 165.540682
L 1331.978924 158.134204
L 1335.677019 145.335282
L 1339.375113 135.351148
L 1343.073208 183.42899
L 1346.771303 124.514835
L 1350.469397 112.275847
L 1354.167492 122.735911
L 1357.865587 102.958063
L 1361.563682 148.798761
L 1365.261776 112.78684
L 1368.959871 126.30731
L 1372.657966 99.888047
L 1376.35606 150.866466
L 1380.054155 177.077467
L 1383.75225 117.038781
L 1387.450345 151.039232
L 1391.148439 140.852859
L 1394.846534 146.936241
L 1394.846534 146.936241
" clip-path="url(#pc0fc8d3517)" style="fill: none; stroke: #0000ff; stroke-width: 0.5; stroke-linecap: square"/>
   </g>
   <g id="line2d_38">
    <path d="M 1087.904672 313.478125
L 1087.904672 22.318125
" clip-path="url(#pc0fc8d3517)" style="fill: none; stroke-dasharray: 1.85,0.8; stroke-dashoffset: 0; stroke: #ff0000; stroke-width: 0.5"/>
   </g>
   <g id="line2d_39">
    <path d="M 1062.018009 313.478125
L 1062.018009 22.318125
" clip-path="url(#pc0fc8d3517)" style="fill: none; stroke-dasharray: 1.85,0.8; stroke-dashoffset: 0; stroke: #000000; stroke-width: 0.5"/>
   </g>
   <g id="line2d_40">
    <path d="M 1036.131346 313.478125
L 1036.131346 22.318125
" clip-path="url(#pc0fc8d3517)" style="fill: none; stroke-dasharray: 1.85,0.8; stroke-dashoffset: 0; stroke: #000000; stroke-width: 0.5"/>
   </g>
   <g id="line2d_41">
    <path d="M 1010.244683 313.478125
L 1010.244683 22.318125
" clip-path="url(#pc0fc8d3517)" style="fill: none; stroke-dasharray: 1.85,0.8; stroke-dashoffset: 0; stroke: #000000; stroke-width: 0.5"/>
   </g>
   <g id="line2d_42">
    <path d="M 984.35802 313.478125
L 984.35802 22.318125
" clip-path="url(#pc0fc8d3517)" style="fill: none; stroke-dasharray: 1.85,0.8; stroke-dashoffset: 0; stroke: #000000; stroke-width: 0.5"/>
   </g>
   <g id="line2d_43">
    <path d="M 1113.791335 313.478125
L 1113.791335 22.318125
" clip-path="url(#pc0fc8d3517)" style="fill: none; stroke-dasharray: 1.85,0.8; stroke-dashoffset: 0; stroke: #000000; stroke-width: 0.5"/>
   </g>
   <g id="line2d_44">
    <path d="M 1139.677998 313.478125
L 1139.677998 22.318125
" clip-path="url(#pc0fc8d3517)" style="fill: none; stroke-dasharray: 1.85,0.8; stroke-dashoffset: 0; stroke: #000000; stroke-width: 0.5"/>
   </g>
   <g id="line2d_45">
    <path d="M 1165.564661 313.478125
L 1165.564661 22.318125
" clip-path="url(#pc0fc8d3517)" style="fill: none; stroke-dasharray: 1.85,0.8; stroke-dashoffset: 0; stroke: #000000; stroke-width: 0.5"/>
   </g>
   <g id="line2d_46">
    <path d="M 1191.451325 313.478125
L 1191.451325 22.318125
" clip-path="url(#pc0fc8d3517)" style="fill: none; stroke-dasharray: 1.85,0.8; stroke-dashoffset: 0; stroke: #000000; stroke-width: 0.5"/>
   </g>
   <g id="patch_8">
    <path d="M 746.385625 313.478125
L 746.385625 22.318125
" style="fill: none; stroke: #000000; stroke-width: 0.8; stroke-linejoin: miter; stroke-linecap: square"/>
   </g>
   <g id="patch_9">
    <path d="M 1425.725625 313.478125
L 1425.725625 22.318125
" style="fill: none; stroke: #000000; stroke-width: 0.8; stroke-linejoin: miter; stroke-linecap: square"/>
   </g>
   <g id="patch_10">
    <path d="M 746.385625 313.478125
L 1425.725625 313.478125
" style="fill: none; stroke: #000000; stroke-width: 0.8; stroke-linejoin: miter; stroke-linecap: square"/>
   </g>
   <g id="patch_11">
    <path d="M 746.385625 22.318125
L 1425.725625 22.318125
" style="fill: none; stroke: #000000; stroke-width: 0.8; stroke-linejoin: miter; stroke-linecap: square"/>
   </g>
   <g id="text_30">
    <!-- t_size -->
    <g transform="translate(1069.07 16.318125) scale(0.12 -0.12)">
     <defs>
      <path id="DejaVuSans-69" d="M 603 3500
L 1178 3500
L 1178 0
L 603 0
L 603 3500
z
M 603 4863
L 1178 4863
L 1178 4134
L 603 4134
L 603 4863
z
" transform="scale(0.015625)"/>
      <path id="DejaVuSans-7a" d="M 353 3500
L 3084 3500
L 3084 2975
L 922 459
L 3084 459
L 3084 0
L 275 0
L 275 525
L 2438 3041
L 353 3041
L 353 3500
z
" transform="scale(0.015625)"/>
     </defs>
     <use xlink:href="#DejaVuSans-74"/>
     <use xlink:href="#DejaVuSans-5f" x="39.208984"/>
     <use xlink:href="#DejaVuSans-73" x="89.208984"/>
     <use xlink:href="#DejaVuSans-69" x="141.308594"/>
     <use xlink:href="#DejaVuSans-7a" x="169.091797"/>
     <use xlink:href="#DejaVuSans-65" x="221.582031"/>
    </g>
   </g>
  </g>
  <g id="legend_1">
   <g id="patch_12">
    <path d="M 695.584219 350.438125
L 737.467031 350.438125
Q 739.467031 350.438125 739.467031 348.438125
L 739.467031 334.76
Q 739.467031 332.76 737.467031 332.76
L 695.584219 332.76
Q 693.584219 332.76 693.584219 334.76
L 693.584219 348.438125
Q 693.584219 350.438125 695.584219 350.438125
z
" style="fill: #ffffff; opacity: 0.8; stroke: #cccccc; stroke-linejoin: miter"/>
   </g>
   <g id="line2d_47">
    <path d="M 697.584219 340.858437
L 707.584219 340.858437
L 717.584219 340.858437
" style="fill: none; stroke: #0000ff; stroke-width: 0.5; stroke-linecap: square"/>
   </g>
   <g id="text_31">
    <!-- f1 -->
    <g transform="translate(725.584219 344.358437) scale(0.1 -0.1)">
     <use xlink:href="#DejaVuSans-66"/>
     <use xlink:href="#DejaVuSans-31" x="35.205078"/>
    </g>
   </g>
  </g>
 </g>
 <defs>
  <clipPath id="p260f5f9529">
   <rect x="36.465625" y="22.318125" width="679.34" height="291.16"/>
  </clipPath>
  <clipPath id="pc0fc8d3517">
   <rect x="746.385625" y="22.318125" width="679.34" height="291.16"/>
  </clipPath>
 </defs>
</svg>
