<?xml version="1.0" encoding="utf-8" standalone="no"?>
<!DOCTYPE svg PUBLIC "-//W3C//DTD SVG 1.1//EN"
  "http://www.w3.org/Graphics/SVG/1.1/DTD/svg11.dtd">
<svg xmlns:xlink="http://www.w3.org/1999/xlink" width="424.410312pt" height="315.398125pt" viewBox="0 0 424.410312 315.398125" xmlns="http://www.w3.org/2000/svg" version="1.1">
 <metadata>
  <rdf:RDF xmlns:dc="http://purl.org/dc/elements/1.1/" xmlns:cc="http://creativecommons.org/ns#" xmlns:rdf="http://www.w3.org/1999/02/22-rdf-syntax-ns#">
   <cc:Work>
    <dc:type rdf:resource="http://purl.org/dc/dcmitype/StillImage"/>
    <dc:date>2023-08-23T20:14:05.221640</dc:date>
    <dc:format>image/svg+xml</dc:format>
    <dc:creator>
     <cc:Agent>
      <dc:title>Matplotlib v3.7.2, https://matplotlib.org/</dc:title>
     </cc:Agent>
    </dc:creator>
   </cc:Work>
  </rdf:RDF>
 </metadata>
 <defs>
  <style type="text/css">*{stroke-linejoin: round; stroke-linecap: butt}</style>
 </defs>
 <g id="figure_1">
  <g id="patch_1">
   <path d="M 0 315.398125
L 424.410312 315.398125
L 424.410312 0
L 0 0
z
" style="fill: #ffffff"/>
  </g>
  <g id="axes_1">
   <g id="patch_2">
    <path d="M 42.620313 242.438125
L 215.725312 242.438125
L 215.725312 22.318125
L 42.620313 22.318125
z
" style="fill: #ffffff"/>
   </g>
   <g id="PolyCollection_1">
    <defs>
     <path id="m3ba010a393" d="M 50.488722 -227.093569
L 50.488722 -283.074545
L 61.729306 -197.028426
L 72.96989 -187.342404
L 84.210475 -182.197766
L 95.451059 -167.956988
L 106.691644 -169.753443
L 117.932228 -175.202521
L 129.172813 -182.632977
L 140.413397 -159.527287
L 151.653981 -188.541754
L 162.894566 -157.660239
L 174.13515 -172.511715
L 185.375735 -176.135145
L 196.616319 -180.722429
L 207.856903 -170.174189
L 207.856903 -138.908496
L 207.856903 -138.908496
L 196.616319 -146.256791
L 185.375735 -143.820742
L 174.13515 -142.063791
L 162.894566 -128.202256
L 151.653981 -153.202976
L 140.413397 -129.985143
L 129.172813 -151.043223
L 117.932228 -143.496277
L 106.691644 -139.982002
L 95.451059 -136.785701
L 84.210475 -151.957883
L 72.96989 -152.099958
L 61.729306 -161.444031
L 50.488722 -227.093569
z
" style="stroke: #1f77b4; stroke-opacity: 0.2"/>
    </defs>
    <g clip-path="url(#p6f4fa5960a)">
     <use xlink:href="#m3ba010a393" x="0" y="315.398125" style="fill: #1f77b4; fill-opacity: 0.2; stroke: #1f77b4; stroke-opacity: 0.2"/>
    </g>
   </g>
   <g id="PolyCollection_2">
    <defs>
     <path id="m0326d3fdca" d="M 50.488722 -123.299828
L 50.488722 -181.211686
L 61.729306 -168.181564
L 72.96989 -166.177693
L 84.210475 -239.688849
L 95.451059 -221.95734
L 106.691644 -223.245799
L 117.932228 -181.701442
L 129.172813 -185.777072
L 140.413397 -144.704685
L 151.653981 -165.007896
L 162.894566 -188.839588
L 174.13515 -213.874557
L 185.375735 -215.202211
L 196.616319 -213.660185
L 207.856903 -178.505286
L 207.856903 -119.659939
L 207.856903 -119.659939
L 196.616319 -149.787473
L 185.375735 -148.501206
L 174.13515 -149.550284
L 162.894566 -122.985803
L 151.653981 -103.038977
L 140.413397 -82.965455
L 129.172813 -128.077508
L 117.932228 -122.063482
L 106.691644 -164.105138
L 95.451059 -161.36759
L 84.210475 -174.63772
L 72.96989 -106.929035
L 61.729306 -114.14513
L 50.488722 -123.299828
z
" style="stroke: #ff7f0e; stroke-opacity: 0.2"/>
    </defs>
    <g clip-path="url(#p6f4fa5960a)">
     <use xlink:href="#m0326d3fdca" x="0" y="315.398125" style="fill: #ff7f0e; fill-opacity: 0.2; stroke: #ff7f0e; stroke-opacity: 0.2"/>
    </g>
   </g>
   <g id="matplotlib.axis_1">
    <g id="xtick_1">
     <g id="line2d_1">
      <defs>
       <path id="m7577f159ee" d="M 0 0
L 0 3.5
" style="stroke: #000000; stroke-width: 0.8"/>
      </defs>
      <g>
       <use xlink:href="#m7577f159ee" x="50.488722" y="242.438125" style="stroke: #000000; stroke-width: 0.8"/>
      </g>
     </g>
     <g id="text_1">
      <!-- 0 -->
      <g transform="translate(47.307472 257.036563) scale(0.1 -0.1)">
       <defs>
        <path id="DejaVuSans-30" d="M 2034 4250
Q 1547 4250 1301 3770
Q 1056 3291 1056 2328
Q 1056 1369 1301 889
Q 1547 409 2034 409
Q 2525 409 2770 889
Q 3016 1369 3016 2328
Q 3016 3291 2770 3770
Q 2525 4250 2034 4250
z
M 2034 4750
Q 2819 4750 3233 4129
Q 3647 3509 3647 2328
Q 3647 1150 3233 529
Q 2819 -91 2034 -91
Q 1250 -91 836 529
Q 422 1150 422 2328
Q 422 3509 836 4129
Q 1250 4750 2034 4750
z
" transform="scale(0.015625)"/>
       </defs>
       <use xlink:href="#DejaVuSans-30"/>
      </g>
     </g>
    </g>
    <g id="xtick_2">
     <g id="line2d_2">
      <g>
       <use xlink:href="#m7577f159ee" x="72.96989" y="242.438125" style="stroke: #000000; stroke-width: 0.8"/>
      </g>
     </g>
     <g id="text_2">
      <!-- 2 -->
      <g transform="translate(69.78864 257.036563) scale(0.1 -0.1)">
       <defs>
        <path id="DejaVuSans-32" d="M 1228 531
L 3431 531
L 3431 0
L 469 0
L 469 531
Q 828 903 1448 1529
Q 2069 2156 2228 2338
Q 2531 2678 2651 2914
Q 2772 3150 2772 3378
Q 2772 3750 2511 3984
Q 2250 4219 1831 4219
Q 1534 4219 1204 4116
Q 875 4013 500 3803
L 500 4441
Q 881 4594 1212 4672
Q 1544 4750 1819 4750
Q 2544 4750 2975 4387
Q 3406 4025 3406 3419
Q 3406 3131 3298 2873
Q 3191 2616 2906 2266
Q 2828 2175 2409 1742
Q 1991 1309 1228 531
z
" transform="scale(0.015625)"/>
       </defs>
       <use xlink:href="#DejaVuSans-32"/>
      </g>
     </g>
    </g>
    <g id="xtick_3">
     <g id="line2d_3">
      <g>
       <use xlink:href="#m7577f159ee" x="95.451059" y="242.438125" style="stroke: #000000; stroke-width: 0.8"/>
      </g>
     </g>
     <g id="text_3">
      <!-- 4 -->
      <g transform="translate(92.269809 257.036563) scale(0.1 -0.1)">
       <defs>
        <path id="DejaVuSans-34" d="M 2419 4116
L 825 1625
L 2419 1625
L 2419 4116
z
M 2253 4666
L 3047 4666
L 3047 1625
L 3713 1625
L 3713 1100
L 3047 1100
L 3047 0
L 2419 0
L 2419 1100
L 313 1100
L 313 1709
L 2253 4666
z
" transform="scale(0.015625)"/>
       </defs>
       <use xlink:href="#DejaVuSans-34"/>
      </g>
     </g>
    </g>
    <g id="xtick_4">
     <g id="line2d_4">
      <g>
       <use xlink:href="#m7577f159ee" x="117.932228" y="242.438125" style="stroke: #000000; stroke-width: 0.8"/>
      </g>
     </g>
     <g id="text_4">
      <!-- 6 -->
      <g transform="translate(114.750978 257.036563) scale(0.1 -0.1)">
       <defs>
        <path id="DejaVuSans-36" d="M 2113 2584
Q 1688 2584 1439 2293
Q 1191 2003 1191 1497
Q 1191 994 1439 701
Q 1688 409 2113 409
Q 2538 409 2786 701
Q 3034 994 3034 1497
Q 3034 2003 2786 2293
Q 2538 2584 2113 2584
z
M 3366 4563
L 3366 3988
Q 3128 4100 2886 4159
Q 2644 4219 2406 4219
Q 1781 4219 1451 3797
Q 1122 3375 1075 2522
Q 1259 2794 1537 2939
Q 1816 3084 2150 3084
Q 2853 3084 3261 2657
Q 3669 2231 3669 1497
Q 3669 778 3244 343
Q 2819 -91 2113 -91
Q 1303 -91 875 529
Q 447 1150 447 2328
Q 447 3434 972 4092
Q 1497 4750 2381 4750
Q 2619 4750 2861 4703
Q 3103 4656 3366 4563
z
" transform="scale(0.015625)"/>
       </defs>
       <use xlink:href="#DejaVuSans-36"/>
      </g>
     </g>
    </g>
    <g id="xtick_5">
     <g id="line2d_5">
      <g>
       <use xlink:href="#m7577f159ee" x="140.413397" y="242.438125" style="stroke: #000000; stroke-width: 0.8"/>
      </g>
     </g>
     <g id="text_5">
      <!-- 8 -->
      <g transform="translate(137.232147 257.036563) scale(0.1 -0.1)">
       <defs>
        <path id="DejaVuSans-38" d="M 2034 2216
Q 1584 2216 1326 1975
Q 1069 1734 1069 1313
Q 1069 891 1326 650
Q 1584 409 2034 409
Q 2484 409 2743 651
Q 3003 894 3003 1313
Q 3003 1734 2745 1975
Q 2488 2216 2034 2216
z
M 1403 2484
Q 997 2584 770 2862
Q 544 3141 544 3541
Q 544 4100 942 4425
Q 1341 4750 2034 4750
Q 2731 4750 3128 4425
Q 3525 4100 3525 3541
Q 3525 3141 3298 2862
Q 3072 2584 2669 2484
Q 3125 2378 3379 2068
Q 3634 1759 3634 1313
Q 3634 634 3220 271
Q 2806 -91 2034 -91
Q 1263 -91 848 271
Q 434 634 434 1313
Q 434 1759 690 2068
Q 947 2378 1403 2484
z
M 1172 3481
Q 1172 3119 1398 2916
Q 1625 2713 2034 2713
Q 2441 2713 2670 2916
Q 2900 3119 2900 3481
Q 2900 3844 2670 4047
Q 2441 4250 2034 4250
Q 1625 4250 1398 4047
Q 1172 3844 1172 3481
z
" transform="scale(0.015625)"/>
       </defs>
       <use xlink:href="#DejaVuSans-38"/>
      </g>
     </g>
    </g>
    <g id="xtick_6">
     <g id="line2d_6">
      <g>
       <use xlink:href="#m7577f159ee" x="162.894566" y="242.438125" style="stroke: #000000; stroke-width: 0.8"/>
      </g>
     </g>
     <g id="text_6">
      <!-- 10 -->
      <g transform="translate(156.532066 257.036563) scale(0.1 -0.1)">
       <defs>
        <path id="DejaVuSans-31" d="M 794 531
L 1825 531
L 1825 4091
L 703 3866
L 703 4441
L 1819 4666
L 2450 4666
L 2450 531
L 3481 531
L 3481 0
L 794 0
L 794 531
z
" transform="scale(0.015625)"/>
       </defs>
       <use xlink:href="#DejaVuSans-31"/>
       <use xlink:href="#DejaVuSans-30" x="63.623047"/>
      </g>
     </g>
    </g>
    <g id="xtick_7">
     <g id="line2d_7">
      <g>
       <use xlink:href="#m7577f159ee" x="185.375735" y="242.438125" style="stroke: #000000; stroke-width: 0.8"/>
      </g>
     </g>
     <g id="text_7">
      <!-- 12 -->
      <g transform="translate(179.013235 257.036563) scale(0.1 -0.1)">
       <use xlink:href="#DejaVuSans-31"/>
       <use xlink:href="#DejaVuSans-32" x="63.623047"/>
      </g>
     </g>
    </g>
    <g id="xtick_8">
     <g id="line2d_8">
      <g>
       <use xlink:href="#m7577f159ee" x="207.856903" y="242.438125" style="stroke: #000000; stroke-width: 0.8"/>
      </g>
     </g>
     <g id="text_8">
      <!-- 14 -->
      <g transform="translate(201.494403 257.036563) scale(0.1 -0.1)">
       <use xlink:href="#DejaVuSans-31"/>
       <use xlink:href="#DejaVuSans-34" x="63.623047"/>
      </g>
     </g>
    </g>
    <g id="text_9">
     <!-- Day of outcome -->
     <g transform="translate(89.357969 270.714687) scale(0.1 -0.1)">
      <defs>
       <path id="DejaVuSans-44" d="M 1259 4147
L 1259 519
L 2022 519
Q 2988 519 3436 956
Q 3884 1394 3884 2338
Q 3884 3275 3436 3711
Q 2988 4147 2022 4147
L 1259 4147
z
M 628 4666
L 1925 4666
Q 3281 4666 3915 4102
Q 4550 3538 4550 2338
Q 4550 1131 3912 565
Q 3275 0 1925 0
L 628 0
L 628 4666
z
" transform="scale(0.015625)"/>
       <path id="DejaVuSans-61" d="M 2194 1759
Q 1497 1759 1228 1600
Q 959 1441 959 1056
Q 959 750 1161 570
Q 1363 391 1709 391
Q 2188 391 2477 730
Q 2766 1069 2766 1631
L 2766 1759
L 2194 1759
z
M 3341 1997
L 3341 0
L 2766 0
L 2766 531
Q 2569 213 2275 61
Q 1981 -91 1556 -91
Q 1019 -91 701 211
Q 384 513 384 1019
Q 384 1609 779 1909
Q 1175 2209 1959 2209
L 2766 2209
L 2766 2266
Q 2766 2663 2505 2880
Q 2244 3097 1772 3097
Q 1472 3097 1187 3025
Q 903 2953 641 2809
L 641 3341
Q 956 3463 1253 3523
Q 1550 3584 1831 3584
Q 2591 3584 2966 3190
Q 3341 2797 3341 1997
z
" transform="scale(0.015625)"/>
       <path id="DejaVuSans-79" d="M 2059 -325
Q 1816 -950 1584 -1140
Q 1353 -1331 966 -1331
L 506 -1331
L 506 -850
L 844 -850
Q 1081 -850 1212 -737
Q 1344 -625 1503 -206
L 1606 56
L 191 3500
L 800 3500
L 1894 763
L 2988 3500
L 3597 3500
L 2059 -325
z
" transform="scale(0.015625)"/>
       <path id="DejaVuSans-20" transform="scale(0.015625)"/>
       <path id="DejaVuSans-6f" d="M 1959 3097
Q 1497 3097 1228 2736
Q 959 2375 959 1747
Q 959 1119 1226 758
Q 1494 397 1959 397
Q 2419 397 2687 759
Q 2956 1122 2956 1747
Q 2956 2369 2687 2733
Q 2419 3097 1959 3097
z
M 1959 3584
Q 2709 3584 3137 3096
Q 3566 2609 3566 1747
Q 3566 888 3137 398
Q 2709 -91 1959 -91
Q 1206 -91 779 398
Q 353 888 353 1747
Q 353 2609 779 3096
Q 1206 3584 1959 3584
z
" transform="scale(0.015625)"/>
       <path id="DejaVuSans-66" d="M 2375 4863
L 2375 4384
L 1825 4384
Q 1516 4384 1395 4259
Q 1275 4134 1275 3809
L 1275 3500
L 2222 3500
L 2222 3053
L 1275 3053
L 1275 0
L 697 0
L 697 3053
L 147 3053
L 147 3500
L 697 3500
L 697 3744
Q 697 4328 969 4595
Q 1241 4863 1831 4863
L 2375 4863
z
" transform="scale(0.015625)"/>
       <path id="DejaVuSans-75" d="M 544 1381
L 544 3500
L 1119 3500
L 1119 1403
Q 1119 906 1312 657
Q 1506 409 1894 409
Q 2359 409 2629 706
Q 2900 1003 2900 1516
L 2900 3500
L 3475 3500
L 3475 0
L 2900 0
L 2900 538
Q 2691 219 2414 64
Q 2138 -91 1772 -91
Q 1169 -91 856 284
Q 544 659 544 1381
z
M 1991 3584
L 1991 3584
z
" transform="scale(0.015625)"/>
       <path id="DejaVuSans-74" d="M 1172 4494
L 1172 3500
L 2356 3500
L 2356 3053
L 1172 3053
L 1172 1153
Q 1172 725 1289 603
Q 1406 481 1766 481
L 2356 481
L 2356 0
L 1766 0
Q 1100 0 847 248
Q 594 497 594 1153
L 594 3053
L 172 3053
L 172 3500
L 594 3500
L 594 4494
L 1172 4494
z
" transform="scale(0.015625)"/>
       <path id="DejaVuSans-63" d="M 3122 3366
L 3122 2828
Q 2878 2963 2633 3030
Q 2388 3097 2138 3097
Q 1578 3097 1268 2742
Q 959 2388 959 1747
Q 959 1106 1268 751
Q 1578 397 2138 397
Q 2388 397 2633 464
Q 2878 531 3122 666
L 3122 134
Q 2881 22 2623 -34
Q 2366 -91 2075 -91
Q 1284 -91 818 406
Q 353 903 353 1747
Q 353 2603 823 3093
Q 1294 3584 2113 3584
Q 2378 3584 2631 3529
Q 2884 3475 3122 3366
z
" transform="scale(0.015625)"/>
       <path id="DejaVuSans-6d" d="M 3328 2828
Q 3544 3216 3844 3400
Q 4144 3584 4550 3584
Q 5097 3584 5394 3201
Q 5691 2819 5691 2113
L 5691 0
L 5113 0
L 5113 2094
Q 5113 2597 4934 2840
Q 4756 3084 4391 3084
Q 3944 3084 3684 2787
Q 3425 2491 3425 1978
L 3425 0
L 2847 0
L 2847 2094
Q 2847 2600 2669 2842
Q 2491 3084 2119 3084
Q 1678 3084 1418 2786
Q 1159 2488 1159 1978
L 1159 0
L 581 0
L 581 3500
L 1159 3500
L 1159 2956
Q 1356 3278 1631 3431
Q 1906 3584 2284 3584
Q 2666 3584 2933 3390
Q 3200 3197 3328 2828
z
" transform="scale(0.015625)"/>
       <path id="DejaVuSans-65" d="M 3597 1894
L 3597 1613
L 953 1613
Q 991 1019 1311 708
Q 1631 397 2203 397
Q 2534 397 2845 478
Q 3156 559 3463 722
L 3463 178
Q 3153 47 2828 -22
Q 2503 -91 2169 -91
Q 1331 -91 842 396
Q 353 884 353 1716
Q 353 2575 817 3079
Q 1281 3584 2069 3584
Q 2775 3584 3186 3129
Q 3597 2675 3597 1894
z
M 3022 2063
Q 3016 2534 2758 2815
Q 2500 3097 2075 3097
Q 1594 3097 1305 2825
Q 1016 2553 972 2059
L 3022 2063
z
" transform="scale(0.015625)"/>
      </defs>
      <use xlink:href="#DejaVuSans-44"/>
      <use xlink:href="#DejaVuSans-61" x="77.001953"/>
      <use xlink:href="#DejaVuSans-79" x="138.28125"/>
      <use xlink:href="#DejaVuSans-20" x="197.460938"/>
      <use xlink:href="#DejaVuSans-6f" x="229.248047"/>
      <use xlink:href="#DejaVuSans-66" x="290.429688"/>
      <use xlink:href="#DejaVuSans-20" x="325.634766"/>
      <use xlink:href="#DejaVuSans-6f" x="357.421875"/>
      <use xlink:href="#DejaVuSans-75" x="418.603516"/>
      <use xlink:href="#DejaVuSans-74" x="481.982422"/>
      <use xlink:href="#DejaVuSans-63" x="521.191406"/>
      <use xlink:href="#DejaVuSans-6f" x="576.171875"/>
      <use xlink:href="#DejaVuSans-6d" x="637.353516"/>
      <use xlink:href="#DejaVuSans-65" x="734.765625"/>
     </g>
    </g>
   </g>
   <g id="matplotlib.axis_2">
    <g id="ytick_1">
     <g id="line2d_9">
      <path d="M 42.620313 233.533615
L 215.725312 233.533615
" clip-path="url(#p6f4fa5960a)" style="fill: none; stroke: #b0b0b0; stroke-opacity: 0.3; stroke-width: 0.8; stroke-linecap: square"/>
     </g>
     <g id="line2d_10">
      <defs>
       <path id="m14b5774d96" d="M 0 0
L -3.5 0
" style="stroke: #000000; stroke-width: 0.8"/>
      </defs>
      <g>
       <use xlink:href="#m14b5774d96" x="42.620313" y="233.533615" style="stroke: #000000; stroke-width: 0.8"/>
      </g>
     </g>
     <g id="text_10">
      <!-- −2 -->
      <g transform="translate(20.878125 237.332834) scale(0.1 -0.1)">
       <defs>
        <path id="DejaVuSans-2212" d="M 678 2272
L 4684 2272
L 4684 1741
L 678 1741
L 678 2272
z
" transform="scale(0.015625)"/>
       </defs>
       <use xlink:href="#DejaVuSans-2212"/>
       <use xlink:href="#DejaVuSans-32" x="83.789062"/>
      </g>
     </g>
    </g>
    <g id="ytick_2">
     <g id="line2d_11">
      <path d="M 42.620313 198.57511
L 215.725312 198.57511
" clip-path="url(#p6f4fa5960a)" style="fill: none; stroke: #b0b0b0; stroke-opacity: 0.3; stroke-width: 0.8; stroke-linecap: square"/>
     </g>
     <g id="line2d_12">
      <g>
       <use xlink:href="#m14b5774d96" x="42.620313" y="198.57511" style="stroke: #000000; stroke-width: 0.8"/>
      </g>
     </g>
     <g id="text_11">
      <!-- −1 -->
      <g transform="translate(20.878125 202.374329) scale(0.1 -0.1)">
       <use xlink:href="#DejaVuSans-2212"/>
       <use xlink:href="#DejaVuSans-31" x="83.789062"/>
      </g>
     </g>
    </g>
    <g id="ytick_3">
     <g id="line2d_13">
      <path d="M 42.620313 163.616605
L 215.725312 163.616605
" clip-path="url(#p6f4fa5960a)" style="fill: none; stroke: #b0b0b0; stroke-opacity: 0.3; stroke-width: 0.8; stroke-linecap: square"/>
     </g>
     <g id="line2d_14">
      <g>
       <use xlink:href="#m14b5774d96" x="42.620313" y="163.616605" style="stroke: #000000; stroke-width: 0.8"/>
      </g>
     </g>
     <g id="text_12">
      <!-- 0 -->
      <g transform="translate(29.257813 167.415824) scale(0.1 -0.1)">
       <use xlink:href="#DejaVuSans-30"/>
      </g>
     </g>
    </g>
    <g id="ytick_4">
     <g id="line2d_15">
      <path d="M 42.620313 128.6581
L 215.725312 128.6581
" clip-path="url(#p6f4fa5960a)" style="fill: none; stroke: #b0b0b0; stroke-opacity: 0.3; stroke-width: 0.8; stroke-linecap: square"/>
     </g>
     <g id="line2d_16">
      <g>
       <use xlink:href="#m14b5774d96" x="42.620313" y="128.6581" style="stroke: #000000; stroke-width: 0.8"/>
      </g>
     </g>
     <g id="text_13">
      <!-- 1 -->
      <g transform="translate(29.257813 132.457318) scale(0.1 -0.1)">
       <use xlink:href="#DejaVuSans-31"/>
      </g>
     </g>
    </g>
    <g id="ytick_5">
     <g id="line2d_17">
      <path d="M 42.620313 93.699595
L 215.725312 93.699595
" clip-path="url(#p6f4fa5960a)" style="fill: none; stroke: #b0b0b0; stroke-opacity: 0.3; stroke-width: 0.8; stroke-linecap: square"/>
     </g>
     <g id="line2d_18">
      <g>
       <use xlink:href="#m14b5774d96" x="42.620313" y="93.699595" style="stroke: #000000; stroke-width: 0.8"/>
      </g>
     </g>
     <g id="text_14">
      <!-- 2 -->
      <g transform="translate(29.257813 97.498813) scale(0.1 -0.1)">
       <use xlink:href="#DejaVuSans-32"/>
      </g>
     </g>
    </g>
    <g id="ytick_6">
     <g id="line2d_19">
      <path d="M 42.620313 58.74109
L 215.725312 58.74109
" clip-path="url(#p6f4fa5960a)" style="fill: none; stroke: #b0b0b0; stroke-opacity: 0.3; stroke-width: 0.8; stroke-linecap: square"/>
     </g>
     <g id="line2d_20">
      <g>
       <use xlink:href="#m14b5774d96" x="42.620313" y="58.74109" style="stroke: #000000; stroke-width: 0.8"/>
      </g>
     </g>
     <g id="text_15">
      <!-- 3 -->
      <g transform="translate(29.257813 62.540308) scale(0.1 -0.1)">
       <defs>
        <path id="DejaVuSans-33" d="M 2597 2516
Q 3050 2419 3304 2112
Q 3559 1806 3559 1356
Q 3559 666 3084 287
Q 2609 -91 1734 -91
Q 1441 -91 1130 -33
Q 819 25 488 141
L 488 750
Q 750 597 1062 519
Q 1375 441 1716 441
Q 2309 441 2620 675
Q 2931 909 2931 1356
Q 2931 1769 2642 2001
Q 2353 2234 1838 2234
L 1294 2234
L 1294 2753
L 1863 2753
Q 2328 2753 2575 2939
Q 2822 3125 2822 3475
Q 2822 3834 2567 4026
Q 2313 4219 1838 4219
Q 1578 4219 1281 4162
Q 984 4106 628 3988
L 628 4550
Q 988 4650 1302 4700
Q 1616 4750 1894 4750
Q 2613 4750 3031 4423
Q 3450 4097 3450 3541
Q 3450 3153 3228 2886
Q 3006 2619 2597 2516
z
" transform="scale(0.015625)"/>
       </defs>
       <use xlink:href="#DejaVuSans-33"/>
      </g>
     </g>
    </g>
    <g id="ytick_7">
     <g id="line2d_21">
      <path d="M 42.620313 23.782584
L 215.725312 23.782584
" clip-path="url(#p6f4fa5960a)" style="fill: none; stroke: #b0b0b0; stroke-opacity: 0.3; stroke-width: 0.8; stroke-linecap: square"/>
     </g>
     <g id="line2d_22">
      <g>
       <use xlink:href="#m14b5774d96" x="42.620313" y="23.782584" style="stroke: #000000; stroke-width: 0.8"/>
      </g>
     </g>
     <g id="text_16">
      <!-- 4 -->
      <g transform="translate(29.257813 27.581803) scale(0.1 -0.1)">
       <use xlink:href="#DejaVuSans-34"/>
      </g>
     </g>
    </g>
    <g id="text_17">
     <!-- ATT estimate (#articles) -->
     <g transform="translate(14.798438 192.990625) rotate(-90) scale(0.1 -0.1)">
      <defs>
       <path id="DejaVuSans-41" d="M 2188 4044
L 1331 1722
L 3047 1722
L 2188 4044
z
M 1831 4666
L 2547 4666
L 4325 0
L 3669 0
L 3244 1197
L 1141 1197
L 716 0
L 50 0
L 1831 4666
z
" transform="scale(0.015625)"/>
       <path id="DejaVuSans-54" d="M -19 4666
L 3928 4666
L 3928 4134
L 2272 4134
L 2272 0
L 1638 0
L 1638 4134
L -19 4134
L -19 4666
z
" transform="scale(0.015625)"/>
       <path id="DejaVuSans-73" d="M 2834 3397
L 2834 2853
Q 2591 2978 2328 3040
Q 2066 3103 1784 3103
Q 1356 3103 1142 2972
Q 928 2841 928 2578
Q 928 2378 1081 2264
Q 1234 2150 1697 2047
L 1894 2003
Q 2506 1872 2764 1633
Q 3022 1394 3022 966
Q 3022 478 2636 193
Q 2250 -91 1575 -91
Q 1294 -91 989 -36
Q 684 19 347 128
L 347 722
Q 666 556 975 473
Q 1284 391 1588 391
Q 1994 391 2212 530
Q 2431 669 2431 922
Q 2431 1156 2273 1281
Q 2116 1406 1581 1522
L 1381 1569
Q 847 1681 609 1914
Q 372 2147 372 2553
Q 372 3047 722 3315
Q 1072 3584 1716 3584
Q 2034 3584 2315 3537
Q 2597 3491 2834 3397
z
" transform="scale(0.015625)"/>
       <path id="DejaVuSans-69" d="M 603 3500
L 1178 3500
L 1178 0
L 603 0
L 603 3500
z
M 603 4863
L 1178 4863
L 1178 4134
L 603 4134
L 603 4863
z
" transform="scale(0.015625)"/>
       <path id="DejaVuSans-28" d="M 1984 4856
Q 1566 4138 1362 3434
Q 1159 2731 1159 2009
Q 1159 1288 1364 580
Q 1569 -128 1984 -844
L 1484 -844
Q 1016 -109 783 600
Q 550 1309 550 2009
Q 550 2706 781 3412
Q 1013 4119 1484 4856
L 1984 4856
z
" transform="scale(0.015625)"/>
       <path id="DejaVuSans-23" d="M 3272 2816
L 2363 2816
L 2100 1772
L 3016 1772
L 3272 2816
z
M 2803 4594
L 2478 3297
L 3391 3297
L 3719 4594
L 4219 4594
L 3897 3297
L 4872 3297
L 4872 2816
L 3775 2816
L 3519 1772
L 4513 1772
L 4513 1294
L 3397 1294
L 3072 0
L 2572 0
L 2894 1294
L 1978 1294
L 1656 0
L 1153 0
L 1478 1294
L 494 1294
L 494 1772
L 1594 1772
L 1856 2816
L 850 2816
L 850 3297
L 1978 3297
L 2297 4594
L 2803 4594
z
" transform="scale(0.015625)"/>
       <path id="DejaVuSans-72" d="M 2631 2963
Q 2534 3019 2420 3045
Q 2306 3072 2169 3072
Q 1681 3072 1420 2755
Q 1159 2438 1159 1844
L 1159 0
L 581 0
L 581 3500
L 1159 3500
L 1159 2956
Q 1341 3275 1631 3429
Q 1922 3584 2338 3584
Q 2397 3584 2469 3576
Q 2541 3569 2628 3553
L 2631 2963
z
" transform="scale(0.015625)"/>
       <path id="DejaVuSans-6c" d="M 603 4863
L 1178 4863
L 1178 0
L 603 0
L 603 4863
z
" transform="scale(0.015625)"/>
       <path id="DejaVuSans-29" d="M 513 4856
L 1013 4856
Q 1481 4119 1714 3412
Q 1947 2706 1947 2009
Q 1947 1309 1714 600
Q 1481 -109 1013 -844
L 513 -844
Q 928 -128 1133 580
Q 1338 1288 1338 2009
Q 1338 2731 1133 3434
Q 928 4138 513 4856
z
" transform="scale(0.015625)"/>
      </defs>
      <use xlink:href="#DejaVuSans-41"/>
      <use xlink:href="#DejaVuSans-54" x="60.658203"/>
      <use xlink:href="#DejaVuSans-54" x="119.992188"/>
      <use xlink:href="#DejaVuSans-20" x="181.076172"/>
      <use xlink:href="#DejaVuSans-65" x="212.863281"/>
      <use xlink:href="#DejaVuSans-73" x="274.386719"/>
      <use xlink:href="#DejaVuSans-74" x="326.486328"/>
      <use xlink:href="#DejaVuSans-69" x="365.695312"/>
      <use xlink:href="#DejaVuSans-6d" x="393.478516"/>
      <use xlink:href="#DejaVuSans-61" x="490.890625"/>
      <use xlink:href="#DejaVuSans-74" x="552.169922"/>
      <use xlink:href="#DejaVuSans-65" x="591.378906"/>
      <use xlink:href="#DejaVuSans-20" x="652.902344"/>
      <use xlink:href="#DejaVuSans-28" x="684.689453"/>
      <use xlink:href="#DejaVuSans-23" x="723.703125"/>
      <use xlink:href="#DejaVuSans-61" x="807.492188"/>
      <use xlink:href="#DejaVuSans-72" x="868.771484"/>
      <use xlink:href="#DejaVuSans-74" x="909.884766"/>
      <use xlink:href="#DejaVuSans-69" x="949.09375"/>
      <use xlink:href="#DejaVuSans-63" x="976.876953"/>
      <use xlink:href="#DejaVuSans-6c" x="1031.857422"/>
      <use xlink:href="#DejaVuSans-65" x="1059.640625"/>
      <use xlink:href="#DejaVuSans-73" x="1121.164062"/>
      <use xlink:href="#DejaVuSans-29" x="1173.263672"/>
     </g>
    </g>
   </g>
   <g id="line2d_23">
    <path d="M 50.488722 60.314068
L 61.729306 136.161896
L 72.96989 145.676944
L 84.210475 148.3203
L 95.451059 163.026781
L 106.691644 160.530403
L 117.932228 156.048726
L 129.172813 148.560025
L 140.413397 170.64191
L 151.653981 144.52576
L 162.894566 172.466878
L 174.13515 158.110372
L 185.375735 155.420182
L 196.616319 151.908515
L 207.856903 160.856782
" clip-path="url(#p6f4fa5960a)" style="fill: none; stroke: #1f77b4; stroke-width: 1.5; stroke-linecap: square"/>
    <defs>
     <path id="m92380b4f1f" d="M 0 1.5
C 0.397805 1.5 0.77937 1.341951 1.06066 1.06066
C 1.341951 0.77937 1.5 0.397805 1.5 0
C 1.5 -0.397805 1.341951 -0.77937 1.06066 -1.06066
C 0.77937 -1.341951 0.397805 -1.5 0 -1.5
C -0.397805 -1.5 -0.77937 -1.341951 -1.06066 -1.06066
C -1.341951 -0.77937 -1.5 -0.397805 -1.5 0
C -1.5 0.397805 -1.341951 0.77937 -1.06066 1.06066
C -0.77937 1.341951 -0.397805 1.5 0 1.5
z
" style="stroke: #1f77b4"/>
    </defs>
    <g clip-path="url(#p6f4fa5960a)">
     <use xlink:href="#m92380b4f1f" x="50.488722" y="60.314068" style="fill: #1f77b4; stroke: #1f77b4"/>
     <use xlink:href="#m92380b4f1f" x="61.729306" y="136.161896" style="fill: #1f77b4; stroke: #1f77b4"/>
     <use xlink:href="#m92380b4f1f" x="72.96989" y="145.676944" style="fill: #1f77b4; stroke: #1f77b4"/>
     <use xlink:href="#m92380b4f1f" x="84.210475" y="148.3203" style="fill: #1f77b4; stroke: #1f77b4"/>
     <use xlink:href="#m92380b4f1f" x="95.451059" y="163.026781" style="fill: #1f77b4; stroke: #1f77b4"/>
     <use xlink:href="#m92380b4f1f" x="106.691644" y="160.530403" style="fill: #1f77b4; stroke: #1f77b4"/>
     <use xlink:href="#m92380b4f1f" x="117.932228" y="156.048726" style="fill: #1f77b4; stroke: #1f77b4"/>
     <use xlink:href="#m92380b4f1f" x="129.172813" y="148.560025" style="fill: #1f77b4; stroke: #1f77b4"/>
     <use xlink:href="#m92380b4f1f" x="140.413397" y="170.64191" style="fill: #1f77b4; stroke: #1f77b4"/>
     <use xlink:href="#m92380b4f1f" x="151.653981" y="144.52576" style="fill: #1f77b4; stroke: #1f77b4"/>
     <use xlink:href="#m92380b4f1f" x="162.894566" y="172.466878" style="fill: #1f77b4; stroke: #1f77b4"/>
     <use xlink:href="#m92380b4f1f" x="174.13515" y="158.110372" style="fill: #1f77b4; stroke: #1f77b4"/>
     <use xlink:href="#m92380b4f1f" x="185.375735" y="155.420182" style="fill: #1f77b4; stroke: #1f77b4"/>
     <use xlink:href="#m92380b4f1f" x="196.616319" y="151.908515" style="fill: #1f77b4; stroke: #1f77b4"/>
     <use xlink:href="#m92380b4f1f" x="207.856903" y="160.856782" style="fill: #1f77b4; stroke: #1f77b4"/>
    </g>
   </g>
   <g id="line2d_24">
    <path d="M 50.488722 163.142368
L 61.729306 174.234778
L 72.96989 178.844761
L 84.210475 108.23484
L 95.451059 123.73566
L 106.691644 121.722656
L 117.932228 163.515663
L 129.172813 158.470835
L 140.413397 201.563055
L 151.653981 181.374688
L 162.894566 159.48543
L 174.13515 133.685704
L 185.375735 133.546416
L 196.616319 133.674296
L 207.856903 166.315513
" clip-path="url(#p6f4fa5960a)" style="fill: none; stroke: #ff7f0e; stroke-width: 1.5; stroke-linecap: square"/>
    <defs>
     <path id="md5a11230a4" d="M 0 1.5
C 0.397805 1.5 0.77937 1.341951 1.06066 1.06066
C 1.341951 0.77937 1.5 0.397805 1.5 0
C 1.5 -0.397805 1.341951 -0.77937 1.06066 -1.06066
C 0.77937 -1.341951 0.397805 -1.5 0 -1.5
C -0.397805 -1.5 -0.77937 -1.341951 -1.06066 -1.06066
C -1.341951 -0.77937 -1.5 -0.397805 -1.5 0
C -1.5 0.397805 -1.341951 0.77937 -1.06066 1.06066
C -0.77937 1.341951 -0.397805 1.5 0 1.5
z
" style="stroke: #ff7f0e"/>
    </defs>
    <g clip-path="url(#p6f4fa5960a)">
     <use xlink:href="#md5a11230a4" x="50.488722" y="163.142368" style="fill: #ff7f0e; stroke: #ff7f0e"/>
     <use xlink:href="#md5a11230a4" x="61.729306" y="174.234778" style="fill: #ff7f0e; stroke: #ff7f0e"/>
     <use xlink:href="#md5a11230a4" x="72.96989" y="178.844761" style="fill: #ff7f0e; stroke: #ff7f0e"/>
     <use xlink:href="#md5a11230a4" x="84.210475" y="108.23484" style="fill: #ff7f0e; stroke: #ff7f0e"/>
     <use xlink:href="#md5a11230a4" x="95.451059" y="123.73566" style="fill: #ff7f0e; stroke: #ff7f0e"/>
     <use xlink:href="#md5a11230a4" x="106.691644" y="121.722656" style="fill: #ff7f0e; stroke: #ff7f0e"/>
     <use xlink:href="#md5a11230a4" x="117.932228" y="163.515663" style="fill: #ff7f0e; stroke: #ff7f0e"/>
     <use xlink:href="#md5a11230a4" x="129.172813" y="158.470835" style="fill: #ff7f0e; stroke: #ff7f0e"/>
     <use xlink:href="#md5a11230a4" x="140.413397" y="201.563055" style="fill: #ff7f0e; stroke: #ff7f0e"/>
     <use xlink:href="#md5a11230a4" x="151.653981" y="181.374688" style="fill: #ff7f0e; stroke: #ff7f0e"/>
     <use xlink:href="#md5a11230a4" x="162.894566" y="159.48543" style="fill: #ff7f0e; stroke: #ff7f0e"/>
     <use xlink:href="#md5a11230a4" x="174.13515" y="133.685704" style="fill: #ff7f0e; stroke: #ff7f0e"/>
     <use xlink:href="#md5a11230a4" x="185.375735" y="133.546416" style="fill: #ff7f0e; stroke: #ff7f0e"/>
     <use xlink:href="#md5a11230a4" x="196.616319" y="133.674296" style="fill: #ff7f0e; stroke: #ff7f0e"/>
     <use xlink:href="#md5a11230a4" x="207.856903" y="166.315513" style="fill: #ff7f0e; stroke: #ff7f0e"/>
    </g>
   </g>
   <g id="line2d_25">
    <path d="M 42.620313 163.616605
L 215.725312 163.616605
" clip-path="url(#p6f4fa5960a)" style="fill: none; stroke: #000000; stroke-linecap: square"/>
   </g>
   <g id="patch_3">
    <path d="M 42.620313 242.438125
L 42.620313 22.318125
" style="fill: none; stroke: #000000; stroke-width: 0.8; stroke-linejoin: miter; stroke-linecap: square"/>
   </g>
   <g id="patch_4">
    <path d="M 215.725312 242.438125
L 215.725312 22.318125
" style="fill: none; stroke: #000000; stroke-width: 0.8; stroke-linejoin: miter; stroke-linecap: square"/>
   </g>
   <g id="patch_5">
    <path d="M 42.620313 242.438125
L 215.725312 242.438125
" style="fill: none; stroke: #000000; stroke-width: 0.8; stroke-linejoin: miter; stroke-linecap: square"/>
   </g>
   <g id="patch_6">
    <path d="M 42.620313 22.318125
L 215.725312 22.318125
" style="fill: none; stroke: #000000; stroke-width: 0.8; stroke-linejoin: miter; stroke-linecap: square"/>
   </g>
   <g id="text_18">
    <!-- Online newspapers -->
    <g transform="translate(71.80625 16.318125) scale(0.12 -0.12)">
     <defs>
      <path id="DejaVuSans-4f" d="M 2522 4238
Q 1834 4238 1429 3725
Q 1025 3213 1025 2328
Q 1025 1447 1429 934
Q 1834 422 2522 422
Q 3209 422 3611 934
Q 4013 1447 4013 2328
Q 4013 3213 3611 3725
Q 3209 4238 2522 4238
z
M 2522 4750
Q 3503 4750 4090 4092
Q 4678 3434 4678 2328
Q 4678 1225 4090 567
Q 3503 -91 2522 -91
Q 1538 -91 948 565
Q 359 1222 359 2328
Q 359 3434 948 4092
Q 1538 4750 2522 4750
z
" transform="scale(0.015625)"/>
      <path id="DejaVuSans-6e" d="M 3513 2113
L 3513 0
L 2938 0
L 2938 2094
Q 2938 2591 2744 2837
Q 2550 3084 2163 3084
Q 1697 3084 1428 2787
Q 1159 2491 1159 1978
L 1159 0
L 581 0
L 581 3500
L 1159 3500
L 1159 2956
Q 1366 3272 1645 3428
Q 1925 3584 2291 3584
Q 2894 3584 3203 3211
Q 3513 2838 3513 2113
z
" transform="scale(0.015625)"/>
      <path id="DejaVuSans-77" d="M 269 3500
L 844 3500
L 1563 769
L 2278 3500
L 2956 3500
L 3675 769
L 4391 3500
L 4966 3500
L 4050 0
L 3372 0
L 2619 2869
L 1863 0
L 1184 0
L 269 3500
z
" transform="scale(0.015625)"/>
      <path id="DejaVuSans-70" d="M 1159 525
L 1159 -1331
L 581 -1331
L 581 3500
L 1159 3500
L 1159 2969
Q 1341 3281 1617 3432
Q 1894 3584 2278 3584
Q 2916 3584 3314 3078
Q 3713 2572 3713 1747
Q 3713 922 3314 415
Q 2916 -91 2278 -91
Q 1894 -91 1617 61
Q 1341 213 1159 525
z
M 3116 1747
Q 3116 2381 2855 2742
Q 2594 3103 2138 3103
Q 1681 3103 1420 2742
Q 1159 2381 1159 1747
Q 1159 1113 1420 752
Q 1681 391 2138 391
Q 2594 391 2855 752
Q 3116 1113 3116 1747
z
" transform="scale(0.015625)"/>
     </defs>
     <use xlink:href="#DejaVuSans-4f"/>
     <use xlink:href="#DejaVuSans-6e" x="78.710938"/>
     <use xlink:href="#DejaVuSans-6c" x="142.089844"/>
     <use xlink:href="#DejaVuSans-69" x="169.873047"/>
     <use xlink:href="#DejaVuSans-6e" x="197.65625"/>
     <use xlink:href="#DejaVuSans-65" x="261.035156"/>
     <use xlink:href="#DejaVuSans-20" x="322.558594"/>
     <use xlink:href="#DejaVuSans-6e" x="354.345703"/>
     <use xlink:href="#DejaVuSans-65" x="417.724609"/>
     <use xlink:href="#DejaVuSans-77" x="479.248047"/>
     <use xlink:href="#DejaVuSans-73" x="561.035156"/>
     <use xlink:href="#DejaVuSans-70" x="613.134766"/>
     <use xlink:href="#DejaVuSans-61" x="676.611328"/>
     <use xlink:href="#DejaVuSans-70" x="737.890625"/>
     <use xlink:href="#DejaVuSans-65" x="801.367188"/>
     <use xlink:href="#DejaVuSans-72" x="862.890625"/>
     <use xlink:href="#DejaVuSans-73" x="904.003906"/>
    </g>
   </g>
  </g>
  <g id="axes_2">
   <g id="patch_7">
    <path d="M 244.105312 242.438125
L 417.210312 242.438125
L 417.210312 22.318125
L 244.105312 22.318125
z
" style="fill: #ffffff"/>
   </g>
   <g id="PolyCollection_3">
    <defs>
     <path id="mb6c93a6ae4" d="M 251.973722 -136.487236
L 251.973722 -159.381128
L 263.214306 -205.283534
L 274.45489 -173.380848
L 285.695475 -181.268301
L 296.936059 -175.676783
L 308.176644 -162.283802
L 319.417228 -164.476333
L 330.657812 -158.594851
L 341.898397 -171.932859
L 353.138981 -170.681852
L 364.379566 -173.964603
L 375.62015 -166.437236
L 386.860735 -168.614914
L 398.101319 -170.94433
L 409.341903 -165.583408
L 409.341903 -144.338991
L 409.341903 -144.338991
L 398.101319 -150.92015
L 386.860735 -147.53378
L 375.62015 -145.055366
L 364.379566 -153.294646
L 353.138981 -152.18353
L 341.898397 -150.065018
L 330.657812 -137.381056
L 319.417228 -143.482817
L 308.176644 -142.822318
L 296.936059 -153.651387
L 285.695475 -159.695753
L 274.45489 -153.817196
L 263.214306 -179.594342
L 251.973722 -136.487236
z
" style="stroke: #1f77b4; stroke-opacity: 0.2"/>
    </defs>
    <g clip-path="url(#p6db01ea2c7)">
     <use xlink:href="#mb6c93a6ae4" x="0" y="315.398125" style="fill: #1f77b4; fill-opacity: 0.2; stroke: #1f77b4; stroke-opacity: 0.2"/>
    </g>
   </g>
   <g id="PolyCollection_4">
    <defs>
     <path id="m0875cb3ad7" d="M 251.973722 -139.002313
L 251.973722 -187.435486
L 263.214306 -177.901624
L 274.45489 -162.995401
L 285.695475 -185.38842
L 296.936059 -202.477823
L 308.176644 -198.326337
L 319.417228 -160.573238
L 330.657812 -175.181968
L 341.898397 -186.408616
L 353.138981 -179.669595
L 364.379566 -186.163697
L 375.62015 -173.262635
L 386.860735 -193.29288
L 398.101319 -189.652203
L 409.341903 -183.735993
L 409.341903 -133.305943
L 409.341903 -133.305943
L 398.101319 -141.383984
L 386.860735 -146.926003
L 375.62015 -125.888118
L 364.379566 -140.349377
L 353.138981 -133.027607
L 341.898397 -137.736232
L 330.657812 -127.087315
L 319.417228 -110.505005
L 308.176644 -151.597313
L 296.936059 -153.233322
L 285.695475 -137.084048
L 274.45489 -119.747401
L 263.214306 -131.008215
L 251.973722 -139.002313
z
" style="stroke: #ff7f0e; stroke-opacity: 0.2"/>
    </defs>
    <g clip-path="url(#p6db01ea2c7)">
     <use xlink:href="#m0875cb3ad7" x="0" y="315.398125" style="fill: #ff7f0e; fill-opacity: 0.2; stroke: #ff7f0e; stroke-opacity: 0.2"/>
    </g>
   </g>
   <g id="matplotlib.axis_3">
    <g id="xtick_9">
     <g id="line2d_26">
      <g>
       <use xlink:href="#m7577f159ee" x="251.973722" y="242.438125" style="stroke: #000000; stroke-width: 0.8"/>
      </g>
     </g>
     <g id="text_19">
      <!-- 0 -->
      <g transform="translate(248.792472 257.036563) scale(0.1 -0.1)">
       <use xlink:href="#DejaVuSans-30"/>
      </g>
     </g>
    </g>
    <g id="xtick_10">
     <g id="line2d_27">
      <g>
       <use xlink:href="#m7577f159ee" x="274.45489" y="242.438125" style="stroke: #000000; stroke-width: 0.8"/>
      </g>
     </g>
     <g id="text_20">
      <!-- 2 -->
      <g transform="translate(271.27364 257.036563) scale(0.1 -0.1)">
       <use xlink:href="#DejaVuSans-32"/>
      </g>
     </g>
    </g>
    <g id="xtick_11">
     <g id="line2d_28">
      <g>
       <use xlink:href="#m7577f159ee" x="296.936059" y="242.438125" style="stroke: #000000; stroke-width: 0.8"/>
      </g>
     </g>
     <g id="text_21">
      <!-- 4 -->
      <g transform="translate(293.754809 257.036563) scale(0.1 -0.1)">
       <use xlink:href="#DejaVuSans-34"/>
      </g>
     </g>
    </g>
    <g id="xtick_12">
     <g id="line2d_29">
      <g>
       <use xlink:href="#m7577f159ee" x="319.417228" y="242.438125" style="stroke: #000000; stroke-width: 0.8"/>
      </g>
     </g>
     <g id="text_22">
      <!-- 6 -->
      <g transform="translate(316.235978 257.036563) scale(0.1 -0.1)">
       <use xlink:href="#DejaVuSans-36"/>
      </g>
     </g>
    </g>
    <g id="xtick_13">
     <g id="line2d_30">
      <g>
       <use xlink:href="#m7577f159ee" x="341.898397" y="242.438125" style="stroke: #000000; stroke-width: 0.8"/>
      </g>
     </g>
     <g id="text_23">
      <!-- 8 -->
      <g transform="translate(338.717147 257.036563) scale(0.1 -0.1)">
       <use xlink:href="#DejaVuSans-38"/>
      </g>
     </g>
    </g>
    <g id="xtick_14">
     <g id="line2d_31">
      <g>
       <use xlink:href="#m7577f159ee" x="364.379566" y="242.438125" style="stroke: #000000; stroke-width: 0.8"/>
      </g>
     </g>
     <g id="text_24">
      <!-- 10 -->
      <g transform="translate(358.017066 257.036563) scale(0.1 -0.1)">
       <use xlink:href="#DejaVuSans-31"/>
       <use xlink:href="#DejaVuSans-30" x="63.623047"/>
      </g>
     </g>
    </g>
    <g id="xtick_15">
     <g id="line2d_32">
      <g>
       <use xlink:href="#m7577f159ee" x="386.860735" y="242.438125" style="stroke: #000000; stroke-width: 0.8"/>
      </g>
     </g>
     <g id="text_25">
      <!-- 12 -->
      <g transform="translate(380.498235 257.036563) scale(0.1 -0.1)">
       <use xlink:href="#DejaVuSans-31"/>
       <use xlink:href="#DejaVuSans-32" x="63.623047"/>
      </g>
     </g>
    </g>
    <g id="xtick_16">
     <g id="line2d_33">
      <g>
       <use xlink:href="#m7577f159ee" x="409.341903" y="242.438125" style="stroke: #000000; stroke-width: 0.8"/>
      </g>
     </g>
     <g id="text_26">
      <!-- 14 -->
      <g transform="translate(402.979403 257.036563) scale(0.1 -0.1)">
       <use xlink:href="#DejaVuSans-31"/>
       <use xlink:href="#DejaVuSans-34" x="63.623047"/>
      </g>
     </g>
    </g>
    <g id="text_27">
     <!-- Day of outcome -->
     <g transform="translate(290.842969 270.714687) scale(0.1 -0.1)">
      <use xlink:href="#DejaVuSans-44"/>
      <use xlink:href="#DejaVuSans-61" x="77.001953"/>
      <use xlink:href="#DejaVuSans-79" x="138.28125"/>
      <use xlink:href="#DejaVuSans-20" x="197.460938"/>
      <use xlink:href="#DejaVuSans-6f" x="229.248047"/>
      <use xlink:href="#DejaVuSans-66" x="290.429688"/>
      <use xlink:href="#DejaVuSans-20" x="325.634766"/>
      <use xlink:href="#DejaVuSans-6f" x="357.421875"/>
      <use xlink:href="#DejaVuSans-75" x="418.603516"/>
      <use xlink:href="#DejaVuSans-74" x="481.982422"/>
      <use xlink:href="#DejaVuSans-63" x="521.191406"/>
      <use xlink:href="#DejaVuSans-6f" x="576.171875"/>
      <use xlink:href="#DejaVuSans-6d" x="637.353516"/>
      <use xlink:href="#DejaVuSans-65" x="734.765625"/>
     </g>
    </g>
   </g>
   <g id="matplotlib.axis_4">
    <g id="ytick_8">
     <g id="line2d_34">
      <path d="M 244.105312 233.533615
L 417.210312 233.533615
" clip-path="url(#p6db01ea2c7)" style="fill: none; stroke: #b0b0b0; stroke-opacity: 0.3; stroke-width: 0.8; stroke-linecap: square"/>
     </g>
     <g id="line2d_35">
      <g>
       <use xlink:href="#m14b5774d96" x="244.105312" y="233.533615" style="stroke: #000000; stroke-width: 0.8"/>
      </g>
     </g>
    </g>
    <g id="ytick_9">
     <g id="line2d_36">
      <path d="M 244.105312 198.57511
L 417.210312 198.57511
" clip-path="url(#p6db01ea2c7)" style="fill: none; stroke: #b0b0b0; stroke-opacity: 0.3; stroke-width: 0.8; stroke-linecap: square"/>
     </g>
     <g id="line2d_37">
      <g>
       <use xlink:href="#m14b5774d96" x="244.105312" y="198.57511" style="stroke: #000000; stroke-width: 0.8"/>
      </g>
     </g>
    </g>
    <g id="ytick_10">
     <g id="line2d_38">
      <path d="M 244.105312 163.616605
L 417.210312 163.616605
" clip-path="url(#p6db01ea2c7)" style="fill: none; stroke: #b0b0b0; stroke-opacity: 0.3; stroke-width: 0.8; stroke-linecap: square"/>
     </g>
     <g id="line2d_39">
      <g>
       <use xlink:href="#m14b5774d96" x="244.105312" y="163.616605" style="stroke: #000000; stroke-width: 0.8"/>
      </g>
     </g>
    </g>
    <g id="ytick_11">
     <g id="line2d_40">
      <path d="M 244.105312 128.6581
L 417.210312 128.6581
" clip-path="url(#p6db01ea2c7)" style="fill: none; stroke: #b0b0b0; stroke-opacity: 0.3; stroke-width: 0.8; stroke-linecap: square"/>
     </g>
     <g id="line2d_41">
      <g>
       <use xlink:href="#m14b5774d96" x="244.105312" y="128.6581" style="stroke: #000000; stroke-width: 0.8"/>
      </g>
     </g>
    </g>
    <g id="ytick_12">
     <g id="line2d_42">
      <path d="M 244.105312 93.699595
L 417.210312 93.699595
" clip-path="url(#p6db01ea2c7)" style="fill: none; stroke: #b0b0b0; stroke-opacity: 0.3; stroke-width: 0.8; stroke-linecap: square"/>
     </g>
     <g id="line2d_43">
      <g>
       <use xlink:href="#m14b5774d96" x="244.105312" y="93.699595" style="stroke: #000000; stroke-width: 0.8"/>
      </g>
     </g>
    </g>
    <g id="ytick_13">
     <g id="line2d_44">
      <path d="M 244.105312 58.74109
L 417.210312 58.74109
" clip-path="url(#p6db01ea2c7)" style="fill: none; stroke: #b0b0b0; stroke-opacity: 0.3; stroke-width: 0.8; stroke-linecap: square"/>
     </g>
     <g id="line2d_45">
      <g>
       <use xlink:href="#m14b5774d96" x="244.105312" y="58.74109" style="stroke: #000000; stroke-width: 0.8"/>
      </g>
     </g>
    </g>
    <g id="ytick_14">
     <g id="line2d_46">
      <path d="M 244.105312 23.782584
L 417.210312 23.782584
" clip-path="url(#p6db01ea2c7)" style="fill: none; stroke: #b0b0b0; stroke-opacity: 0.3; stroke-width: 0.8; stroke-linecap: square"/>
     </g>
     <g id="line2d_47">
      <g>
       <use xlink:href="#m14b5774d96" x="244.105312" y="23.782584" style="stroke: #000000; stroke-width: 0.8"/>
      </g>
     </g>
    </g>
    <g id="text_28">
     <!-- ATT estimate (#articles) -->
     <g transform="translate(234.525625 192.990625) rotate(-90) scale(0.1 -0.1)">
      <use xlink:href="#DejaVuSans-41"/>
      <use xlink:href="#DejaVuSans-54" x="60.658203"/>
      <use xlink:href="#DejaVuSans-54" x="119.992188"/>
      <use xlink:href="#DejaVuSans-20" x="181.076172"/>
      <use xlink:href="#DejaVuSans-65" x="212.863281"/>
      <use xlink:href="#DejaVuSans-73" x="274.386719"/>
      <use xlink:href="#DejaVuSans-74" x="326.486328"/>
      <use xlink:href="#DejaVuSans-69" x="365.695312"/>
      <use xlink:href="#DejaVuSans-6d" x="393.478516"/>
      <use xlink:href="#DejaVuSans-61" x="490.890625"/>
      <use xlink:href="#DejaVuSans-74" x="552.169922"/>
      <use xlink:href="#DejaVuSans-65" x="591.378906"/>
      <use xlink:href="#DejaVuSans-20" x="652.902344"/>
      <use xlink:href="#DejaVuSans-28" x="684.689453"/>
      <use xlink:href="#DejaVuSans-23" x="723.703125"/>
      <use xlink:href="#DejaVuSans-61" x="807.492188"/>
      <use xlink:href="#DejaVuSans-72" x="868.771484"/>
      <use xlink:href="#DejaVuSans-74" x="909.884766"/>
      <use xlink:href="#DejaVuSans-69" x="949.09375"/>
      <use xlink:href="#DejaVuSans-63" x="976.876953"/>
      <use xlink:href="#DejaVuSans-6c" x="1031.857422"/>
      <use xlink:href="#DejaVuSans-65" x="1059.640625"/>
      <use xlink:href="#DejaVuSans-73" x="1121.164062"/>
      <use xlink:href="#DejaVuSans-29" x="1173.263672"/>
     </g>
    </g>
   </g>
   <g id="line2d_48">
    <path d="M 251.973722 167.463943
L 263.214306 122.959187
L 274.45489 151.799103
L 285.695475 144.916098
L 296.936059 150.73404
L 308.176644 162.845065
L 319.417228 161.41855
L 330.657812 167.410171
L 341.898397 154.399186
L 353.138981 153.965434
L 364.379566 151.7685
L 375.62015 159.651824
L 386.860735 157.323778
L 398.101319 154.465885
L 409.341903 160.436926
" clip-path="url(#p6db01ea2c7)" style="fill: none; stroke: #1f77b4; stroke-width: 1.5; stroke-linecap: square"/>
    <g clip-path="url(#p6db01ea2c7)">
     <use xlink:href="#m92380b4f1f" x="251.973722" y="167.463943" style="fill: #1f77b4; stroke: #1f77b4"/>
     <use xlink:href="#m92380b4f1f" x="263.214306" y="122.959187" style="fill: #1f77b4; stroke: #1f77b4"/>
     <use xlink:href="#m92380b4f1f" x="274.45489" y="151.799103" style="fill: #1f77b4; stroke: #1f77b4"/>
     <use xlink:href="#m92380b4f1f" x="285.695475" y="144.916098" style="fill: #1f77b4; stroke: #1f77b4"/>
     <use xlink:href="#m92380b4f1f" x="296.936059" y="150.73404" style="fill: #1f77b4; stroke: #1f77b4"/>
     <use xlink:href="#m92380b4f1f" x="308.176644" y="162.845065" style="fill: #1f77b4; stroke: #1f77b4"/>
     <use xlink:href="#m92380b4f1f" x="319.417228" y="161.41855" style="fill: #1f77b4; stroke: #1f77b4"/>
     <use xlink:href="#m92380b4f1f" x="330.657812" y="167.410171" style="fill: #1f77b4; stroke: #1f77b4"/>
     <use xlink:href="#m92380b4f1f" x="341.898397" y="154.399186" style="fill: #1f77b4; stroke: #1f77b4"/>
     <use xlink:href="#m92380b4f1f" x="353.138981" y="153.965434" style="fill: #1f77b4; stroke: #1f77b4"/>
     <use xlink:href="#m92380b4f1f" x="364.379566" y="151.7685" style="fill: #1f77b4; stroke: #1f77b4"/>
     <use xlink:href="#m92380b4f1f" x="375.62015" y="159.651824" style="fill: #1f77b4; stroke: #1f77b4"/>
     <use xlink:href="#m92380b4f1f" x="386.860735" y="157.323778" style="fill: #1f77b4; stroke: #1f77b4"/>
     <use xlink:href="#m92380b4f1f" x="398.101319" y="154.465885" style="fill: #1f77b4; stroke: #1f77b4"/>
     <use xlink:href="#m92380b4f1f" x="409.341903" y="160.436926" style="fill: #1f77b4; stroke: #1f77b4"/>
    </g>
   </g>
   <g id="line2d_49">
    <path d="M 251.973722 152.179225
L 263.214306 160.943205
L 274.45489 174.026724
L 285.695475 154.161891
L 296.936059 137.542553
L 308.176644 140.4363
L 319.417228 179.859004
L 330.657812 164.263484
L 341.898397 153.325701
L 353.138981 159.049524
L 364.379566 152.141588
L 375.62015 165.822748
L 386.860735 145.288683
L 398.101319 149.880031
L 409.341903 156.877157
" clip-path="url(#p6db01ea2c7)" style="fill: none; stroke: #ff7f0e; stroke-width: 1.5; stroke-linecap: square"/>
    <g clip-path="url(#p6db01ea2c7)">
     <use xlink:href="#md5a11230a4" x="251.973722" y="152.179225" style="fill: #ff7f0e; stroke: #ff7f0e"/>
     <use xlink:href="#md5a11230a4" x="263.214306" y="160.943205" style="fill: #ff7f0e; stroke: #ff7f0e"/>
     <use xlink:href="#md5a11230a4" x="274.45489" y="174.026724" style="fill: #ff7f0e; stroke: #ff7f0e"/>
     <use xlink:href="#md5a11230a4" x="285.695475" y="154.161891" style="fill: #ff7f0e; stroke: #ff7f0e"/>
     <use xlink:href="#md5a11230a4" x="296.936059" y="137.542553" style="fill: #ff7f0e; stroke: #ff7f0e"/>
     <use xlink:href="#md5a11230a4" x="308.176644" y="140.4363" style="fill: #ff7f0e; stroke: #ff7f0e"/>
     <use xlink:href="#md5a11230a4" x="319.417228" y="179.859004" style="fill: #ff7f0e; stroke: #ff7f0e"/>
     <use xlink:href="#md5a11230a4" x="330.657812" y="164.263484" style="fill: #ff7f0e; stroke: #ff7f0e"/>
     <use xlink:href="#md5a11230a4" x="341.898397" y="153.325701" style="fill: #ff7f0e; stroke: #ff7f0e"/>
     <use xlink:href="#md5a11230a4" x="353.138981" y="159.049524" style="fill: #ff7f0e; stroke: #ff7f0e"/>
     <use xlink:href="#md5a11230a4" x="364.379566" y="152.141588" style="fill: #ff7f0e; stroke: #ff7f0e"/>
     <use xlink:href="#md5a11230a4" x="375.62015" y="165.822748" style="fill: #ff7f0e; stroke: #ff7f0e"/>
     <use xlink:href="#md5a11230a4" x="386.860735" y="145.288683" style="fill: #ff7f0e; stroke: #ff7f0e"/>
     <use xlink:href="#md5a11230a4" x="398.101319" y="149.880031" style="fill: #ff7f0e; stroke: #ff7f0e"/>
     <use xlink:href="#md5a11230a4" x="409.341903" y="156.877157" style="fill: #ff7f0e; stroke: #ff7f0e"/>
    </g>
   </g>
   <g id="line2d_50">
    <path d="M 244.105312 163.616605
L 417.210312 163.616605
" clip-path="url(#p6db01ea2c7)" style="fill: none; stroke: #000000; stroke-linecap: square"/>
   </g>
   <g id="patch_8">
    <path d="M 244.105312 242.438125
L 244.105312 22.318125
" style="fill: none; stroke: #000000; stroke-width: 0.8; stroke-linejoin: miter; stroke-linecap: square"/>
   </g>
   <g id="patch_9">
    <path d="M 417.210312 242.438125
L 417.210312 22.318125
" style="fill: none; stroke: #000000; stroke-width: 0.8; stroke-linejoin: miter; stroke-linecap: square"/>
   </g>
   <g id="patch_10">
    <path d="M 244.105312 242.438125
L 417.210312 242.438125
" style="fill: none; stroke: #000000; stroke-width: 0.8; stroke-linejoin: miter; stroke-linecap: square"/>
   </g>
   <g id="patch_11">
    <path d="M 244.105312 22.318125
L 417.210312 22.318125
" style="fill: none; stroke: #000000; stroke-width: 0.8; stroke-linejoin: miter; stroke-linecap: square"/>
   </g>
   <g id="text_29">
    <!-- Print newspapers -->
    <g transform="translate(278.844062 16.318125) scale(0.12 -0.12)">
     <defs>
      <path id="DejaVuSans-50" d="M 1259 4147
L 1259 2394
L 2053 2394
Q 2494 2394 2734 2622
Q 2975 2850 2975 3272
Q 2975 3691 2734 3919
Q 2494 4147 2053 4147
L 1259 4147
z
M 628 4666
L 2053 4666
Q 2838 4666 3239 4311
Q 3641 3956 3641 3272
Q 3641 2581 3239 2228
Q 2838 1875 2053 1875
L 1259 1875
L 1259 0
L 628 0
L 628 4666
z
" transform="scale(0.015625)"/>
     </defs>
     <use xlink:href="#DejaVuSans-50"/>
     <use xlink:href="#DejaVuSans-72" x="58.552734"/>
     <use xlink:href="#DejaVuSans-69" x="99.666016"/>
     <use xlink:href="#DejaVuSans-6e" x="127.449219"/>
     <use xlink:href="#DejaVuSans-74" x="190.828125"/>
     <use xlink:href="#DejaVuSans-20" x="230.037109"/>
     <use xlink:href="#DejaVuSans-6e" x="261.824219"/>
     <use xlink:href="#DejaVuSans-65" x="325.203125"/>
     <use xlink:href="#DejaVuSans-77" x="386.726562"/>
     <use xlink:href="#DejaVuSans-73" x="468.513672"/>
     <use xlink:href="#DejaVuSans-70" x="520.613281"/>
     <use xlink:href="#DejaVuSans-61" x="584.089844"/>
     <use xlink:href="#DejaVuSans-70" x="645.369141"/>
     <use xlink:href="#DejaVuSans-65" x="708.845703"/>
     <use xlink:href="#DejaVuSans-72" x="770.369141"/>
     <use xlink:href="#DejaVuSans-73" x="811.482422"/>
    </g>
   </g>
  </g>
  <g id="legend_1">
   <g id="patch_12">
    <path d="M 63.343125 308.198125
L 360.6775 308.198125
Q 362.6775 308.198125 362.6775 306.198125
L 362.6775 277.841875
Q 362.6775 275.841875 360.6775 275.841875
L 63.343125 275.841875
Q 61.343125 275.841875 61.343125 277.841875
L 61.343125 306.198125
Q 61.343125 308.198125 63.343125 308.198125
z
" style="fill: #ffffff; opacity: 0.8; stroke: #cccccc; stroke-linejoin: miter"/>
   </g>
   <g id="line2d_51">
    <path d="M 65.343125 283.940313
L 75.343125 283.940313
L 85.343125 283.940313
" style="fill: none; stroke: #1f77b4; stroke-width: 1.5; stroke-linecap: square"/>
    <g>
     <use xlink:href="#m92380b4f1f" x="75.343125" y="283.940313" style="fill: #1f77b4; stroke: #1f77b4"/>
    </g>
   </g>
   <g id="text_30">
    <!-- articles mentioning climate change AND protest -->
    <g transform="translate(93.343125 287.440313) scale(0.1 -0.1)">
     <defs>
      <path id="DejaVuSans-67" d="M 2906 1791
Q 2906 2416 2648 2759
Q 2391 3103 1925 3103
Q 1463 3103 1205 2759
Q 947 2416 947 1791
Q 947 1169 1205 825
Q 1463 481 1925 481
Q 2391 481 2648 825
Q 2906 1169 2906 1791
z
M 3481 434
Q 3481 -459 3084 -895
Q 2688 -1331 1869 -1331
Q 1566 -1331 1297 -1286
Q 1028 -1241 775 -1147
L 775 -588
Q 1028 -725 1275 -790
Q 1522 -856 1778 -856
Q 2344 -856 2625 -561
Q 2906 -266 2906 331
L 2906 616
Q 2728 306 2450 153
Q 2172 0 1784 0
Q 1141 0 747 490
Q 353 981 353 1791
Q 353 2603 747 3093
Q 1141 3584 1784 3584
Q 2172 3584 2450 3431
Q 2728 3278 2906 2969
L 2906 3500
L 3481 3500
L 3481 434
z
" transform="scale(0.015625)"/>
      <path id="DejaVuSans-68" d="M 3513 2113
L 3513 0
L 2938 0
L 2938 2094
Q 2938 2591 2744 2837
Q 2550 3084 2163 3084
Q 1697 3084 1428 2787
Q 1159 2491 1159 1978
L 1159 0
L 581 0
L 581 4863
L 1159 4863
L 1159 2956
Q 1366 3272 1645 3428
Q 1925 3584 2291 3584
Q 2894 3584 3203 3211
Q 3513 2838 3513 2113
z
" transform="scale(0.015625)"/>
      <path id="DejaVuSans-4e" d="M 628 4666
L 1478 4666
L 3547 763
L 3547 4666
L 4159 4666
L 4159 0
L 3309 0
L 1241 3903
L 1241 0
L 628 0
L 628 4666
z
" transform="scale(0.015625)"/>
     </defs>
     <use xlink:href="#DejaVuSans-61"/>
     <use xlink:href="#DejaVuSans-72" x="61.279297"/>
     <use xlink:href="#DejaVuSans-74" x="102.392578"/>
     <use xlink:href="#DejaVuSans-69" x="141.601562"/>
     <use xlink:href="#DejaVuSans-63" x="169.384766"/>
     <use xlink:href="#DejaVuSans-6c" x="224.365234"/>
     <use xlink:href="#DejaVuSans-65" x="252.148438"/>
     <use xlink:href="#DejaVuSans-73" x="313.671875"/>
     <use xlink:href="#DejaVuSans-20" x="365.771484"/>
     <use xlink:href="#DejaVuSans-6d" x="397.558594"/>
     <use xlink:href="#DejaVuSans-65" x="494.970703"/>
     <use xlink:href="#DejaVuSans-6e" x="556.494141"/>
     <use xlink:href="#DejaVuSans-74" x="619.873047"/>
     <use xlink:href="#DejaVuSans-69" x="659.082031"/>
     <use xlink:href="#DejaVuSans-6f" x="686.865234"/>
     <use xlink:href="#DejaVuSans-6e" x="748.046875"/>
     <use xlink:href="#DejaVuSans-69" x="811.425781"/>
     <use xlink:href="#DejaVuSans-6e" x="839.208984"/>
     <use xlink:href="#DejaVuSans-67" x="902.587891"/>
     <use xlink:href="#DejaVuSans-20" x="966.064453"/>
     <use xlink:href="#DejaVuSans-63" x="997.851562"/>
     <use xlink:href="#DejaVuSans-6c" x="1052.832031"/>
     <use xlink:href="#DejaVuSans-69" x="1080.615234"/>
     <use xlink:href="#DejaVuSans-6d" x="1108.398438"/>
     <use xlink:href="#DejaVuSans-61" x="1205.810547"/>
     <use xlink:href="#DejaVuSans-74" x="1267.089844"/>
     <use xlink:href="#DejaVuSans-65" x="1306.298828"/>
     <use xlink:href="#DejaVuSans-20" x="1367.822266"/>
     <use xlink:href="#DejaVuSans-63" x="1399.609375"/>
     <use xlink:href="#DejaVuSans-68" x="1454.589844"/>
     <use xlink:href="#DejaVuSans-61" x="1517.96875"/>
     <use xlink:href="#DejaVuSans-6e" x="1579.248047"/>
     <use xlink:href="#DejaVuSans-67" x="1642.626953"/>
     <use xlink:href="#DejaVuSans-65" x="1706.103516"/>
     <use xlink:href="#DejaVuSans-20" x="1767.626953"/>
     <use xlink:href="#DejaVuSans-41" x="1799.414062"/>
     <use xlink:href="#DejaVuSans-4e" x="1867.822266"/>
     <use xlink:href="#DejaVuSans-44" x="1942.626953"/>
     <use xlink:href="#DejaVuSans-20" x="2019.628906"/>
     <use xlink:href="#DejaVuSans-70" x="2051.416016"/>
     <use xlink:href="#DejaVuSans-72" x="2114.892578"/>
     <use xlink:href="#DejaVuSans-6f" x="2153.755859"/>
     <use xlink:href="#DejaVuSans-74" x="2214.9375"/>
     <use xlink:href="#DejaVuSans-65" x="2254.146484"/>
     <use xlink:href="#DejaVuSans-73" x="2315.669922"/>
     <use xlink:href="#DejaVuSans-74" x="2367.769531"/>
    </g>
   </g>
   <g id="line2d_52">
    <path d="M 65.343125 298.618437
L 75.343125 298.618437
L 85.343125 298.618437
" style="fill: none; stroke: #ff7f0e; stroke-width: 1.5; stroke-linecap: square"/>
    <g>
     <use xlink:href="#md5a11230a4" x="75.343125" y="298.618437" style="fill: #ff7f0e; stroke: #ff7f0e"/>
    </g>
   </g>
   <g id="text_31">
    <!-- articles mentioning climate change AND NOT protest -->
    <g transform="translate(93.343125 302.118437) scale(0.1 -0.1)">
     <use xlink:href="#DejaVuSans-61"/>
     <use xlink:href="#DejaVuSans-72" x="61.279297"/>
     <use xlink:href="#DejaVuSans-74" x="102.392578"/>
     <use xlink:href="#DejaVuSans-69" x="141.601562"/>
     <use xlink:href="#DejaVuSans-63" x="169.384766"/>
     <use xlink:href="#DejaVuSans-6c" x="224.365234"/>
     <use xlink:href="#DejaVuSans-65" x="252.148438"/>
     <use xlink:href="#DejaVuSans-73" x="313.671875"/>
     <use xlink:href="#DejaVuSans-20" x="365.771484"/>
     <use xlink:href="#DejaVuSans-6d" x="397.558594"/>
     <use xlink:href="#DejaVuSans-65" x="494.970703"/>
     <use xlink:href="#DejaVuSans-6e" x="556.494141"/>
     <use xlink:href="#DejaVuSans-74" x="619.873047"/>
     <use xlink:href="#DejaVuSans-69" x="659.082031"/>
     <use xlink:href="#DejaVuSans-6f" x="686.865234"/>
     <use xlink:href="#DejaVuSans-6e" x="748.046875"/>
     <use xlink:href="#DejaVuSans-69" x="811.425781"/>
     <use xlink:href="#DejaVuSans-6e" x="839.208984"/>
     <use xlink:href="#DejaVuSans-67" x="902.587891"/>
     <use xlink:href="#DejaVuSans-20" x="966.064453"/>
     <use xlink:href="#DejaVuSans-63" x="997.851562"/>
     <use xlink:href="#DejaVuSans-6c" x="1052.832031"/>
     <use xlink:href="#DejaVuSans-69" x="1080.615234"/>
     <use xlink:href="#DejaVuSans-6d" x="1108.398438"/>
     <use xlink:href="#DejaVuSans-61" x="1205.810547"/>
     <use xlink:href="#DejaVuSans-74" x="1267.089844"/>
     <use xlink:href="#DejaVuSans-65" x="1306.298828"/>
     <use xlink:href="#DejaVuSans-20" x="1367.822266"/>
     <use xlink:href="#DejaVuSans-63" x="1399.609375"/>
     <use xlink:href="#DejaVuSans-68" x="1454.589844"/>
     <use xlink:href="#DejaVuSans-61" x="1517.96875"/>
     <use xlink:href="#DejaVuSans-6e" x="1579.248047"/>
     <use xlink:href="#DejaVuSans-67" x="1642.626953"/>
     <use xlink:href="#DejaVuSans-65" x="1706.103516"/>
     <use xlink:href="#DejaVuSans-20" x="1767.626953"/>
     <use xlink:href="#DejaVuSans-41" x="1799.414062"/>
     <use xlink:href="#DejaVuSans-4e" x="1867.822266"/>
     <use xlink:href="#DejaVuSans-44" x="1942.626953"/>
     <use xlink:href="#DejaVuSans-20" x="2019.628906"/>
     <use xlink:href="#DejaVuSans-4e" x="2051.416016"/>
     <use xlink:href="#DejaVuSans-4f" x="2126.220703"/>
     <use xlink:href="#DejaVuSans-54" x="2204.931641"/>
     <use xlink:href="#DejaVuSans-20" x="2266.015625"/>
     <use xlink:href="#DejaVuSans-70" x="2297.802734"/>
     <use xlink:href="#DejaVuSans-72" x="2361.279297"/>
     <use xlink:href="#DejaVuSans-6f" x="2400.142578"/>
     <use xlink:href="#DejaVuSans-74" x="2461.324219"/>
     <use xlink:href="#DejaVuSans-65" x="2500.533203"/>
     <use xlink:href="#DejaVuSans-73" x="2562.056641"/>
     <use xlink:href="#DejaVuSans-74" x="2614.15625"/>
    </g>
   </g>
  </g>
 </g>
 <defs>
  <clipPath id="p6f4fa5960a">
   <rect x="42.620313" y="22.318125" width="173.105" height="220.12"/>
  </clipPath>
  <clipPath id="p6db01ea2c7">
   <rect x="244.105312" y="22.318125" width="173.105" height="220.12"/>
  </clipPath>
 </defs>
</svg>
