<?xml version="1.0" encoding="utf-8" standalone="no"?>
<!DOCTYPE svg PUBLIC "-//W3C//DTD SVG 1.1//EN"
  "http://www.w3.org/Graphics/SVG/1.1/DTD/svg11.dtd">
<svg xmlns:xlink="http://www.w3.org/1999/xlink" width="589.18625pt" height="207.994375pt" viewBox="0 0 589.18625 207.994375" xmlns="http://www.w3.org/2000/svg" version="1.1">
 <metadata>
  <rdf:RDF xmlns:dc="http://purl.org/dc/elements/1.1/" xmlns:cc="http://creativecommons.org/ns#" xmlns:rdf="http://www.w3.org/1999/02/22-rdf-syntax-ns#">
   <cc:Work>
    <dc:type rdf:resource="http://purl.org/dc/dcmitype/StillImage"/>
    <dc:date>2023-08-20T14:50:44.105255</dc:date>
    <dc:format>image/svg+xml</dc:format>
    <dc:creator>
     <cc:Agent>
      <dc:title>Matplotlib v3.7.2, https://matplotlib.org/</dc:title>
     </cc:Agent>
    </dc:creator>
   </cc:Work>
  </rdf:RDF>
 </metadata>
 <defs>
  <style type="text/css">*{stroke-linejoin: round; stroke-linecap: butt}</style>
 </defs>
 <g id="figure_1">
  <g id="patch_1">
   <path d="M 0 207.994375
L 589.18625 207.994375
L 589.18625 0
L 0 0
z
" style="fill: #ffffff"/>
  </g>
  <g id="axes_1">
   <g id="patch_2">
    <path d="M 58.523438 170.438125
L 561.213437 170.438125
L 561.213437 22.318125
L 58.523438 22.318125
z
" style="fill: #ffffff"/>
   </g>
   <g id="PolyCollection_1">
    <defs>
     <path id="mb0167d8289" d="M 81.372983 -114.600185
L 81.372983 -58.937809
L 94.429866 -50.373484
L 107.486749 -46.04464
L 120.543632 -45.758187
L 133.600515 -48.449202
L 146.657399 -53.292716
L 159.714282 -44.575802
L 172.771165 -48.809804
L 185.828048 -44.288977
L 198.884931 -62.574745
L 211.941814 -75.568939
L 224.998697 -78.962036
L 238.05558 -94.822939
L 251.112463 -87.922155
L 264.169347 -97.686883
L 277.22623 -89.945367
L 290.283113 -96.030575
L 303.339996 -94.315879
L 316.396879 -99.045559
L 329.453762 -102.040328
L 342.510645 -109.037544
L 355.567528 -98.299285
L 368.624412 -114.056673
L 381.681295 -117.312396
L 394.738178 -118.761024
L 407.795061 -120.967876
L 420.851944 -116.019344
L 433.908827 -116.773738
L 446.96571 -109.911251
L 460.022593 -105.555011
L 473.079476 -115.053152
L 486.13636 -113.996773
L 499.193243 -101.605386
L 512.250126 -104.74265
L 525.307009 -104.629784
L 538.363892 -119.139
L 538.363892 -177.148306
L 538.363892 -177.148306
L 525.307009 -159.568659
L 512.250126 -160.88833
L 499.193243 -162.354944
L 486.13636 -174.344941
L 473.079476 -174.759569
L 460.022593 -165.063703
L 446.96571 -166.710111
L 433.908827 -172.542934
L 420.851944 -173.554323
L 407.795061 -178.943523
L 394.738178 -176.747484
L 381.681295 -177.796124
L 368.624412 -175.845039
L 355.567528 -153.463518
L 342.510645 -163.414226
L 329.453762 -154.054775
L 316.396879 -152.737595
L 303.339996 -149.600003
L 290.283113 -154.299559
L 277.22623 -151.536601
L 264.169347 -158.180408
L 251.112463 -148.222673
L 238.05558 -156.148818
L 224.998697 -139.753992
L 211.941814 -133.876316
L 198.884931 -118.825208
L 185.828048 -98.506165
L 172.771165 -101.484207
L 159.714282 -97.522203
L 146.657399 -107.253737
L 133.600515 -103.132565
L 120.543632 -100.623289
L 107.486749 -100.809844
L 94.429866 -104.987795
L 81.372983 -114.600185
z
" style="stroke: #1f77b4; stroke-opacity: 0.2"/>
    </defs>
    <g clip-path="url(#p4da61a1db3)">
     <use xlink:href="#mb0167d8289" x="0" y="207.994375" style="fill: #1f77b4; fill-opacity: 0.2; stroke: #1f77b4; stroke-opacity: 0.2"/>
    </g>
   </g>
   <g id="matplotlib.axis_1">
    <g id="xtick_1">
     <g id="line2d_1">
      <defs>
       <path id="m18460929ab" d="M 0 0
L 0 3.5
" style="stroke: #000000; stroke-width: 0.8"/>
      </defs>
      <g>
       <use xlink:href="#m18460929ab" x="107.486749" y="170.438125" style="stroke: #000000; stroke-width: 0.8"/>
      </g>
     </g>
     <g id="text_1">
      <!-- −5 -->
      <g transform="translate(100.115655 185.036563) scale(0.1 -0.1)">
       <defs>
        <path id="DejaVuSans-2212" d="M 678 2272
L 4684 2272
L 4684 1741
L 678 1741
L 678 2272
z
" transform="scale(0.015625)"/>
        <path id="DejaVuSans-35" d="M 691 4666
L 3169 4666
L 3169 4134
L 1269 4134
L 1269 2991
Q 1406 3038 1543 3061
Q 1681 3084 1819 3084
Q 2600 3084 3056 2656
Q 3513 2228 3513 1497
Q 3513 744 3044 326
Q 2575 -91 1722 -91
Q 1428 -91 1123 -41
Q 819 9 494 109
L 494 744
Q 775 591 1075 516
Q 1375 441 1709 441
Q 2250 441 2565 725
Q 2881 1009 2881 1497
Q 2881 1984 2565 2268
Q 2250 2553 1709 2553
Q 1456 2553 1204 2497
Q 953 2441 691 2322
L 691 4666
z
" transform="scale(0.015625)"/>
       </defs>
       <use xlink:href="#DejaVuSans-2212"/>
       <use xlink:href="#DejaVuSans-35" x="83.789062"/>
      </g>
     </g>
    </g>
    <g id="xtick_2">
     <g id="line2d_2">
      <g>
       <use xlink:href="#m18460929ab" x="172.771165" y="170.438125" style="stroke: #000000; stroke-width: 0.8"/>
      </g>
     </g>
     <g id="text_2">
      <!-- 0 -->
      <g transform="translate(169.589915 185.036563) scale(0.1 -0.1)">
       <defs>
        <path id="DejaVuSans-30" d="M 2034 4250
Q 1547 4250 1301 3770
Q 1056 3291 1056 2328
Q 1056 1369 1301 889
Q 1547 409 2034 409
Q 2525 409 2770 889
Q 3016 1369 3016 2328
Q 3016 3291 2770 3770
Q 2525 4250 2034 4250
z
M 2034 4750
Q 2819 4750 3233 4129
Q 3647 3509 3647 2328
Q 3647 1150 3233 529
Q 2819 -91 2034 -91
Q 1250 -91 836 529
Q 422 1150 422 2328
Q 422 3509 836 4129
Q 1250 4750 2034 4750
z
" transform="scale(0.015625)"/>
       </defs>
       <use xlink:href="#DejaVuSans-30"/>
      </g>
     </g>
    </g>
    <g id="xtick_3">
     <g id="line2d_3">
      <g>
       <use xlink:href="#m18460929ab" x="238.05558" y="170.438125" style="stroke: #000000; stroke-width: 0.8"/>
      </g>
     </g>
     <g id="text_3">
      <!-- 5 -->
      <g transform="translate(234.87433 185.036563) scale(0.1 -0.1)">
       <use xlink:href="#DejaVuSans-35"/>
      </g>
     </g>
    </g>
    <g id="xtick_4">
     <g id="line2d_4">
      <g>
       <use xlink:href="#m18460929ab" x="303.339996" y="170.438125" style="stroke: #000000; stroke-width: 0.8"/>
      </g>
     </g>
     <g id="text_4">
      <!-- 10 -->
      <g transform="translate(296.977496 185.036563) scale(0.1 -0.1)">
       <defs>
        <path id="DejaVuSans-31" d="M 794 531
L 1825 531
L 1825 4091
L 703 3866
L 703 4441
L 1819 4666
L 2450 4666
L 2450 531
L 3481 531
L 3481 0
L 794 0
L 794 531
z
" transform="scale(0.015625)"/>
       </defs>
       <use xlink:href="#DejaVuSans-31"/>
       <use xlink:href="#DejaVuSans-30" x="63.623047"/>
      </g>
     </g>
    </g>
    <g id="xtick_5">
     <g id="line2d_5">
      <g>
       <use xlink:href="#m18460929ab" x="368.624412" y="170.438125" style="stroke: #000000; stroke-width: 0.8"/>
      </g>
     </g>
     <g id="text_5">
      <!-- 15 -->
      <g transform="translate(362.261912 185.036563) scale(0.1 -0.1)">
       <use xlink:href="#DejaVuSans-31"/>
       <use xlink:href="#DejaVuSans-35" x="63.623047"/>
      </g>
     </g>
    </g>
    <g id="xtick_6">
     <g id="line2d_6">
      <g>
       <use xlink:href="#m18460929ab" x="433.908827" y="170.438125" style="stroke: #000000; stroke-width: 0.8"/>
      </g>
     </g>
     <g id="text_6">
      <!-- 20 -->
      <g transform="translate(427.546327 185.036563) scale(0.1 -0.1)">
       <defs>
        <path id="DejaVuSans-32" d="M 1228 531
L 3431 531
L 3431 0
L 469 0
L 469 531
Q 828 903 1448 1529
Q 2069 2156 2228 2338
Q 2531 2678 2651 2914
Q 2772 3150 2772 3378
Q 2772 3750 2511 3984
Q 2250 4219 1831 4219
Q 1534 4219 1204 4116
Q 875 4013 500 3803
L 500 4441
Q 881 4594 1212 4672
Q 1544 4750 1819 4750
Q 2544 4750 2975 4387
Q 3406 4025 3406 3419
Q 3406 3131 3298 2873
Q 3191 2616 2906 2266
Q 2828 2175 2409 1742
Q 1991 1309 1228 531
z
" transform="scale(0.015625)"/>
       </defs>
       <use xlink:href="#DejaVuSans-32"/>
       <use xlink:href="#DejaVuSans-30" x="63.623047"/>
      </g>
     </g>
    </g>
    <g id="xtick_7">
     <g id="line2d_7">
      <g>
       <use xlink:href="#m18460929ab" x="499.193243" y="170.438125" style="stroke: #000000; stroke-width: 0.8"/>
      </g>
     </g>
     <g id="text_7">
      <!-- 25 -->
      <g transform="translate(492.830743 185.036563) scale(0.1 -0.1)">
       <use xlink:href="#DejaVuSans-32"/>
       <use xlink:href="#DejaVuSans-35" x="63.623047"/>
      </g>
     </g>
    </g>
    <g id="text_8">
     <!-- Day of instrument (relative to protest) -->
     <g transform="translate(214.250469 198.714687) scale(0.1 -0.1)">
      <defs>
       <path id="DejaVuSans-44" d="M 1259 4147
L 1259 519
L 2022 519
Q 2988 519 3436 956
Q 3884 1394 3884 2338
Q 3884 3275 3436 3711
Q 2988 4147 2022 4147
L 1259 4147
z
M 628 4666
L 1925 4666
Q 3281 4666 3915 4102
Q 4550 3538 4550 2338
Q 4550 1131 3912 565
Q 3275 0 1925 0
L 628 0
L 628 4666
z
" transform="scale(0.015625)"/>
       <path id="DejaVuSans-61" d="M 2194 1759
Q 1497 1759 1228 1600
Q 959 1441 959 1056
Q 959 750 1161 570
Q 1363 391 1709 391
Q 2188 391 2477 730
Q 2766 1069 2766 1631
L 2766 1759
L 2194 1759
z
M 3341 1997
L 3341 0
L 2766 0
L 2766 531
Q 2569 213 2275 61
Q 1981 -91 1556 -91
Q 1019 -91 701 211
Q 384 513 384 1019
Q 384 1609 779 1909
Q 1175 2209 1959 2209
L 2766 2209
L 2766 2266
Q 2766 2663 2505 2880
Q 2244 3097 1772 3097
Q 1472 3097 1187 3025
Q 903 2953 641 2809
L 641 3341
Q 956 3463 1253 3523
Q 1550 3584 1831 3584
Q 2591 3584 2966 3190
Q 3341 2797 3341 1997
z
" transform="scale(0.015625)"/>
       <path id="DejaVuSans-79" d="M 2059 -325
Q 1816 -950 1584 -1140
Q 1353 -1331 966 -1331
L 506 -1331
L 506 -850
L 844 -850
Q 1081 -850 1212 -737
Q 1344 -625 1503 -206
L 1606 56
L 191 3500
L 800 3500
L 1894 763
L 2988 3500
L 3597 3500
L 2059 -325
z
" transform="scale(0.015625)"/>
       <path id="DejaVuSans-20" transform="scale(0.015625)"/>
       <path id="DejaVuSans-6f" d="M 1959 3097
Q 1497 3097 1228 2736
Q 959 2375 959 1747
Q 959 1119 1226 758
Q 1494 397 1959 397
Q 2419 397 2687 759
Q 2956 1122 2956 1747
Q 2956 2369 2687 2733
Q 2419 3097 1959 3097
z
M 1959 3584
Q 2709 3584 3137 3096
Q 3566 2609 3566 1747
Q 3566 888 3137 398
Q 2709 -91 1959 -91
Q 1206 -91 779 398
Q 353 888 353 1747
Q 353 2609 779 3096
Q 1206 3584 1959 3584
z
" transform="scale(0.015625)"/>
       <path id="DejaVuSans-66" d="M 2375 4863
L 2375 4384
L 1825 4384
Q 1516 4384 1395 4259
Q 1275 4134 1275 3809
L 1275 3500
L 2222 3500
L 2222 3053
L 1275 3053
L 1275 0
L 697 0
L 697 3053
L 147 3053
L 147 3500
L 697 3500
L 697 3744
Q 697 4328 969 4595
Q 1241 4863 1831 4863
L 2375 4863
z
" transform="scale(0.015625)"/>
       <path id="DejaVuSans-69" d="M 603 3500
L 1178 3500
L 1178 0
L 603 0
L 603 3500
z
M 603 4863
L 1178 4863
L 1178 4134
L 603 4134
L 603 4863
z
" transform="scale(0.015625)"/>
       <path id="DejaVuSans-6e" d="M 3513 2113
L 3513 0
L 2938 0
L 2938 2094
Q 2938 2591 2744 2837
Q 2550 3084 2163 3084
Q 1697 3084 1428 2787
Q 1159 2491 1159 1978
L 1159 0
L 581 0
L 581 3500
L 1159 3500
L 1159 2956
Q 1366 3272 1645 3428
Q 1925 3584 2291 3584
Q 2894 3584 3203 3211
Q 3513 2838 3513 2113
z
" transform="scale(0.015625)"/>
       <path id="DejaVuSans-73" d="M 2834 3397
L 2834 2853
Q 2591 2978 2328 3040
Q 2066 3103 1784 3103
Q 1356 3103 1142 2972
Q 928 2841 928 2578
Q 928 2378 1081 2264
Q 1234 2150 1697 2047
L 1894 2003
Q 2506 1872 2764 1633
Q 3022 1394 3022 966
Q 3022 478 2636 193
Q 2250 -91 1575 -91
Q 1294 -91 989 -36
Q 684 19 347 128
L 347 722
Q 666 556 975 473
Q 1284 391 1588 391
Q 1994 391 2212 530
Q 2431 669 2431 922
Q 2431 1156 2273 1281
Q 2116 1406 1581 1522
L 1381 1569
Q 847 1681 609 1914
Q 372 2147 372 2553
Q 372 3047 722 3315
Q 1072 3584 1716 3584
Q 2034 3584 2315 3537
Q 2597 3491 2834 3397
z
" transform="scale(0.015625)"/>
       <path id="DejaVuSans-74" d="M 1172 4494
L 1172 3500
L 2356 3500
L 2356 3053
L 1172 3053
L 1172 1153
Q 1172 725 1289 603
Q 1406 481 1766 481
L 2356 481
L 2356 0
L 1766 0
Q 1100 0 847 248
Q 594 497 594 1153
L 594 3053
L 172 3053
L 172 3500
L 594 3500
L 594 4494
L 1172 4494
z
" transform="scale(0.015625)"/>
       <path id="DejaVuSans-72" d="M 2631 2963
Q 2534 3019 2420 3045
Q 2306 3072 2169 3072
Q 1681 3072 1420 2755
Q 1159 2438 1159 1844
L 1159 0
L 581 0
L 581 3500
L 1159 3500
L 1159 2956
Q 1341 3275 1631 3429
Q 1922 3584 2338 3584
Q 2397 3584 2469 3576
Q 2541 3569 2628 3553
L 2631 2963
z
" transform="scale(0.015625)"/>
       <path id="DejaVuSans-75" d="M 544 1381
L 544 3500
L 1119 3500
L 1119 1403
Q 1119 906 1312 657
Q 1506 409 1894 409
Q 2359 409 2629 706
Q 2900 1003 2900 1516
L 2900 3500
L 3475 3500
L 3475 0
L 2900 0
L 2900 538
Q 2691 219 2414 64
Q 2138 -91 1772 -91
Q 1169 -91 856 284
Q 544 659 544 1381
z
M 1991 3584
L 1991 3584
z
" transform="scale(0.015625)"/>
       <path id="DejaVuSans-6d" d="M 3328 2828
Q 3544 3216 3844 3400
Q 4144 3584 4550 3584
Q 5097 3584 5394 3201
Q 5691 2819 5691 2113
L 5691 0
L 5113 0
L 5113 2094
Q 5113 2597 4934 2840
Q 4756 3084 4391 3084
Q 3944 3084 3684 2787
Q 3425 2491 3425 1978
L 3425 0
L 2847 0
L 2847 2094
Q 2847 2600 2669 2842
Q 2491 3084 2119 3084
Q 1678 3084 1418 2786
Q 1159 2488 1159 1978
L 1159 0
L 581 0
L 581 3500
L 1159 3500
L 1159 2956
Q 1356 3278 1631 3431
Q 1906 3584 2284 3584
Q 2666 3584 2933 3390
Q 3200 3197 3328 2828
z
" transform="scale(0.015625)"/>
       <path id="DejaVuSans-65" d="M 3597 1894
L 3597 1613
L 953 1613
Q 991 1019 1311 708
Q 1631 397 2203 397
Q 2534 397 2845 478
Q 3156 559 3463 722
L 3463 178
Q 3153 47 2828 -22
Q 2503 -91 2169 -91
Q 1331 -91 842 396
Q 353 884 353 1716
Q 353 2575 817 3079
Q 1281 3584 2069 3584
Q 2775 3584 3186 3129
Q 3597 2675 3597 1894
z
M 3022 2063
Q 3016 2534 2758 2815
Q 2500 3097 2075 3097
Q 1594 3097 1305 2825
Q 1016 2553 972 2059
L 3022 2063
z
" transform="scale(0.015625)"/>
       <path id="DejaVuSans-28" d="M 1984 4856
Q 1566 4138 1362 3434
Q 1159 2731 1159 2009
Q 1159 1288 1364 580
Q 1569 -128 1984 -844
L 1484 -844
Q 1016 -109 783 600
Q 550 1309 550 2009
Q 550 2706 781 3412
Q 1013 4119 1484 4856
L 1984 4856
z
" transform="scale(0.015625)"/>
       <path id="DejaVuSans-6c" d="M 603 4863
L 1178 4863
L 1178 0
L 603 0
L 603 4863
z
" transform="scale(0.015625)"/>
       <path id="DejaVuSans-76" d="M 191 3500
L 800 3500
L 1894 563
L 2988 3500
L 3597 3500
L 2284 0
L 1503 0
L 191 3500
z
" transform="scale(0.015625)"/>
       <path id="DejaVuSans-70" d="M 1159 525
L 1159 -1331
L 581 -1331
L 581 3500
L 1159 3500
L 1159 2969
Q 1341 3281 1617 3432
Q 1894 3584 2278 3584
Q 2916 3584 3314 3078
Q 3713 2572 3713 1747
Q 3713 922 3314 415
Q 2916 -91 2278 -91
Q 1894 -91 1617 61
Q 1341 213 1159 525
z
M 3116 1747
Q 3116 2381 2855 2742
Q 2594 3103 2138 3103
Q 1681 3103 1420 2742
Q 1159 2381 1159 1747
Q 1159 1113 1420 752
Q 1681 391 2138 391
Q 2594 391 2855 752
Q 3116 1113 3116 1747
z
" transform="scale(0.015625)"/>
       <path id="DejaVuSans-29" d="M 513 4856
L 1013 4856
Q 1481 4119 1714 3412
Q 1947 2706 1947 2009
Q 1947 1309 1714 600
Q 1481 -109 1013 -844
L 513 -844
Q 928 -128 1133 580
Q 1338 1288 1338 2009
Q 1338 2731 1133 3434
Q 928 4138 513 4856
z
" transform="scale(0.015625)"/>
      </defs>
      <use xlink:href="#DejaVuSans-44"/>
      <use xlink:href="#DejaVuSans-61" x="77.001953"/>
      <use xlink:href="#DejaVuSans-79" x="138.28125"/>
      <use xlink:href="#DejaVuSans-20" x="197.460938"/>
      <use xlink:href="#DejaVuSans-6f" x="229.248047"/>
      <use xlink:href="#DejaVuSans-66" x="290.429688"/>
      <use xlink:href="#DejaVuSans-20" x="325.634766"/>
      <use xlink:href="#DejaVuSans-69" x="357.421875"/>
      <use xlink:href="#DejaVuSans-6e" x="385.205078"/>
      <use xlink:href="#DejaVuSans-73" x="448.583984"/>
      <use xlink:href="#DejaVuSans-74" x="500.683594"/>
      <use xlink:href="#DejaVuSans-72" x="539.892578"/>
      <use xlink:href="#DejaVuSans-75" x="581.005859"/>
      <use xlink:href="#DejaVuSans-6d" x="644.384766"/>
      <use xlink:href="#DejaVuSans-65" x="741.796875"/>
      <use xlink:href="#DejaVuSans-6e" x="803.320312"/>
      <use xlink:href="#DejaVuSans-74" x="866.699219"/>
      <use xlink:href="#DejaVuSans-20" x="905.908203"/>
      <use xlink:href="#DejaVuSans-28" x="937.695312"/>
      <use xlink:href="#DejaVuSans-72" x="976.708984"/>
      <use xlink:href="#DejaVuSans-65" x="1015.572266"/>
      <use xlink:href="#DejaVuSans-6c" x="1077.095703"/>
      <use xlink:href="#DejaVuSans-61" x="1104.878906"/>
      <use xlink:href="#DejaVuSans-74" x="1166.158203"/>
      <use xlink:href="#DejaVuSans-69" x="1205.367188"/>
      <use xlink:href="#DejaVuSans-76" x="1233.150391"/>
      <use xlink:href="#DejaVuSans-65" x="1292.330078"/>
      <use xlink:href="#DejaVuSans-20" x="1353.853516"/>
      <use xlink:href="#DejaVuSans-74" x="1385.640625"/>
      <use xlink:href="#DejaVuSans-6f" x="1424.849609"/>
      <use xlink:href="#DejaVuSans-20" x="1486.03125"/>
      <use xlink:href="#DejaVuSans-70" x="1517.818359"/>
      <use xlink:href="#DejaVuSans-72" x="1581.294922"/>
      <use xlink:href="#DejaVuSans-6f" x="1620.158203"/>
      <use xlink:href="#DejaVuSans-74" x="1681.339844"/>
      <use xlink:href="#DejaVuSans-65" x="1720.548828"/>
      <use xlink:href="#DejaVuSans-73" x="1782.072266"/>
      <use xlink:href="#DejaVuSans-74" x="1834.171875"/>
      <use xlink:href="#DejaVuSans-29" x="1873.380859"/>
     </g>
    </g>
   </g>
   <g id="matplotlib.axis_2">
    <g id="ytick_1">
     <g id="line2d_8">
      <defs>
       <path id="m6956ee9c8c" d="M 0 0
L -3.5 0
" style="stroke: #000000; stroke-width: 0.8"/>
      </defs>
      <g>
       <use xlink:href="#m6956ee9c8c" x="58.523438" y="156.869357" style="stroke: #000000; stroke-width: 0.8"/>
      </g>
     </g>
     <g id="text_9">
      <!-- −0.02 -->
      <g transform="translate(20.878125 160.668576) scale(0.1 -0.1)">
       <defs>
        <path id="DejaVuSans-2e" d="M 684 794
L 1344 794
L 1344 0
L 684 0
L 684 794
z
" transform="scale(0.015625)"/>
       </defs>
       <use xlink:href="#DejaVuSans-2212"/>
       <use xlink:href="#DejaVuSans-30" x="83.789062"/>
       <use xlink:href="#DejaVuSans-2e" x="147.412109"/>
       <use xlink:href="#DejaVuSans-30" x="179.199219"/>
       <use xlink:href="#DejaVuSans-32" x="242.822266"/>
      </g>
     </g>
    </g>
    <g id="ytick_2">
     <g id="line2d_9">
      <g>
       <use xlink:href="#m6956ee9c8c" x="58.523438" y="122.899592" style="stroke: #000000; stroke-width: 0.8"/>
      </g>
     </g>
     <g id="text_10">
      <!-- −0.01 -->
      <g transform="translate(20.878125 126.698811) scale(0.1 -0.1)">
       <use xlink:href="#DejaVuSans-2212"/>
       <use xlink:href="#DejaVuSans-30" x="83.789062"/>
       <use xlink:href="#DejaVuSans-2e" x="147.412109"/>
       <use xlink:href="#DejaVuSans-30" x="179.199219"/>
       <use xlink:href="#DejaVuSans-31" x="242.822266"/>
      </g>
     </g>
    </g>
    <g id="ytick_3">
     <g id="line2d_10">
      <g>
       <use xlink:href="#m6956ee9c8c" x="58.523438" y="88.929827" style="stroke: #000000; stroke-width: 0.8"/>
      </g>
     </g>
     <g id="text_11">
      <!-- 0.00 -->
      <g transform="translate(29.257813 92.729046) scale(0.1 -0.1)">
       <use xlink:href="#DejaVuSans-30"/>
       <use xlink:href="#DejaVuSans-2e" x="63.623047"/>
       <use xlink:href="#DejaVuSans-30" x="95.410156"/>
       <use xlink:href="#DejaVuSans-30" x="159.033203"/>
      </g>
     </g>
    </g>
    <g id="ytick_4">
     <g id="line2d_11">
      <g>
       <use xlink:href="#m6956ee9c8c" x="58.523438" y="54.960062" style="stroke: #000000; stroke-width: 0.8"/>
      </g>
     </g>
     <g id="text_12">
      <!-- 0.01 -->
      <g transform="translate(29.257813 58.75928) scale(0.1 -0.1)">
       <use xlink:href="#DejaVuSans-30"/>
       <use xlink:href="#DejaVuSans-2e" x="63.623047"/>
       <use xlink:href="#DejaVuSans-30" x="95.410156"/>
       <use xlink:href="#DejaVuSans-31" x="159.033203"/>
      </g>
     </g>
    </g>
    <g id="text_13">
     <!-- First stage coefficient -->
     <g transform="translate(14.798438 150.096875) rotate(-90) scale(0.1 -0.1)">
      <defs>
       <path id="DejaVuSans-46" d="M 628 4666
L 3309 4666
L 3309 4134
L 1259 4134
L 1259 2759
L 3109 2759
L 3109 2228
L 1259 2228
L 1259 0
L 628 0
L 628 4666
z
" transform="scale(0.015625)"/>
       <path id="DejaVuSans-67" d="M 2906 1791
Q 2906 2416 2648 2759
Q 2391 3103 1925 3103
Q 1463 3103 1205 2759
Q 947 2416 947 1791
Q 947 1169 1205 825
Q 1463 481 1925 481
Q 2391 481 2648 825
Q 2906 1169 2906 1791
z
M 3481 434
Q 3481 -459 3084 -895
Q 2688 -1331 1869 -1331
Q 1566 -1331 1297 -1286
Q 1028 -1241 775 -1147
L 775 -588
Q 1028 -725 1275 -790
Q 1522 -856 1778 -856
Q 2344 -856 2625 -561
Q 2906 -266 2906 331
L 2906 616
Q 2728 306 2450 153
Q 2172 0 1784 0
Q 1141 0 747 490
Q 353 981 353 1791
Q 353 2603 747 3093
Q 1141 3584 1784 3584
Q 2172 3584 2450 3431
Q 2728 3278 2906 2969
L 2906 3500
L 3481 3500
L 3481 434
z
" transform="scale(0.015625)"/>
       <path id="DejaVuSans-63" d="M 3122 3366
L 3122 2828
Q 2878 2963 2633 3030
Q 2388 3097 2138 3097
Q 1578 3097 1268 2742
Q 959 2388 959 1747
Q 959 1106 1268 751
Q 1578 397 2138 397
Q 2388 397 2633 464
Q 2878 531 3122 666
L 3122 134
Q 2881 22 2623 -34
Q 2366 -91 2075 -91
Q 1284 -91 818 406
Q 353 903 353 1747
Q 353 2603 823 3093
Q 1294 3584 2113 3584
Q 2378 3584 2631 3529
Q 2884 3475 3122 3366
z
" transform="scale(0.015625)"/>
      </defs>
      <use xlink:href="#DejaVuSans-46"/>
      <use xlink:href="#DejaVuSans-69" x="50.269531"/>
      <use xlink:href="#DejaVuSans-72" x="78.052734"/>
      <use xlink:href="#DejaVuSans-73" x="119.166016"/>
      <use xlink:href="#DejaVuSans-74" x="171.265625"/>
      <use xlink:href="#DejaVuSans-20" x="210.474609"/>
      <use xlink:href="#DejaVuSans-73" x="242.261719"/>
      <use xlink:href="#DejaVuSans-74" x="294.361328"/>
      <use xlink:href="#DejaVuSans-61" x="333.570312"/>
      <use xlink:href="#DejaVuSans-67" x="394.849609"/>
      <use xlink:href="#DejaVuSans-65" x="458.326172"/>
      <use xlink:href="#DejaVuSans-20" x="519.849609"/>
      <use xlink:href="#DejaVuSans-63" x="551.636719"/>
      <use xlink:href="#DejaVuSans-6f" x="606.617188"/>
      <use xlink:href="#DejaVuSans-65" x="667.798828"/>
      <use xlink:href="#DejaVuSans-66" x="729.322266"/>
      <use xlink:href="#DejaVuSans-66" x="764.527344"/>
      <use xlink:href="#DejaVuSans-69" x="799.732422"/>
      <use xlink:href="#DejaVuSans-63" x="827.515625"/>
      <use xlink:href="#DejaVuSans-69" x="882.496094"/>
      <use xlink:href="#DejaVuSans-65" x="910.279297"/>
      <use xlink:href="#DejaVuSans-6e" x="971.802734"/>
      <use xlink:href="#DejaVuSans-74" x="1035.181641"/>
     </g>
    </g>
   </g>
   <g id="line2d_12">
    <path d="M 81.372983 121.225378
L 94.429866 130.313736
L 107.486749 134.567133
L 120.543632 134.803637
L 133.600515 132.203491
L 146.657399 127.721148
L 159.714282 136.945372
L 172.771165 132.847369
L 185.828048 136.596804
L 198.884931 117.294398
L 211.941814 103.271747
L 224.998697 98.636361
L 238.05558 82.508496
L 251.112463 89.921961
L 264.169347 80.060729
L 277.22623 87.253391
L 290.283113 82.829308
L 303.339996 86.036434
L 316.396879 82.102798
L 329.453762 79.946824
L 342.510645 71.76849
L 355.567528 82.112974
L 368.624412 63.043519
L 381.681295 60.440115
L 394.738178 60.240121
L 407.795061 58.038675
L 420.851944 63.207541
L 433.908827 63.336039
L 446.96571 69.683694
L 460.022593 72.685018
L 473.079476 63.088014
L 486.13636 63.823518
L 499.193243 76.01421
L 512.250126 75.178885
L 525.307009 75.895154
L 538.363892 59.850722
" clip-path="url(#p4da61a1db3)" style="fill: none; stroke: #1f77b4; stroke-width: 1.5; stroke-linecap: square"/>
    <defs>
     <path id="m05bea4f05f" d="M 0 1.5
C 0.397805 1.5 0.77937 1.341951 1.06066 1.06066
C 1.341951 0.77937 1.5 0.397805 1.5 0
C 1.5 -0.397805 1.341951 -0.77937 1.06066 -1.06066
C 0.77937 -1.341951 0.397805 -1.5 0 -1.5
C -0.397805 -1.5 -0.77937 -1.341951 -1.06066 -1.06066
C -1.341951 -0.77937 -1.5 -0.397805 -1.5 0
C -1.5 0.397805 -1.341951 0.77937 -1.06066 1.06066
C -0.77937 1.341951 -0.397805 1.5 0 1.5
z
" style="stroke: #1f77b4"/>
    </defs>
    <g clip-path="url(#p4da61a1db3)">
     <use xlink:href="#m05bea4f05f" x="81.372983" y="121.225378" style="fill: #1f77b4; stroke: #1f77b4"/>
     <use xlink:href="#m05bea4f05f" x="94.429866" y="130.313736" style="fill: #1f77b4; stroke: #1f77b4"/>
     <use xlink:href="#m05bea4f05f" x="107.486749" y="134.567133" style="fill: #1f77b4; stroke: #1f77b4"/>
     <use xlink:href="#m05bea4f05f" x="120.543632" y="134.803637" style="fill: #1f77b4; stroke: #1f77b4"/>
     <use xlink:href="#m05bea4f05f" x="133.600515" y="132.203491" style="fill: #1f77b4; stroke: #1f77b4"/>
     <use xlink:href="#m05bea4f05f" x="146.657399" y="127.721148" style="fill: #1f77b4; stroke: #1f77b4"/>
     <use xlink:href="#m05bea4f05f" x="159.714282" y="136.945372" style="fill: #1f77b4; stroke: #1f77b4"/>
     <use xlink:href="#m05bea4f05f" x="172.771165" y="132.847369" style="fill: #1f77b4; stroke: #1f77b4"/>
     <use xlink:href="#m05bea4f05f" x="185.828048" y="136.596804" style="fill: #1f77b4; stroke: #1f77b4"/>
     <use xlink:href="#m05bea4f05f" x="198.884931" y="117.294398" style="fill: #1f77b4; stroke: #1f77b4"/>
     <use xlink:href="#m05bea4f05f" x="211.941814" y="103.271747" style="fill: #1f77b4; stroke: #1f77b4"/>
     <use xlink:href="#m05bea4f05f" x="224.998697" y="98.636361" style="fill: #1f77b4; stroke: #1f77b4"/>
     <use xlink:href="#m05bea4f05f" x="238.05558" y="82.508496" style="fill: #1f77b4; stroke: #1f77b4"/>
     <use xlink:href="#m05bea4f05f" x="251.112463" y="89.921961" style="fill: #1f77b4; stroke: #1f77b4"/>
     <use xlink:href="#m05bea4f05f" x="264.169347" y="80.060729" style="fill: #1f77b4; stroke: #1f77b4"/>
     <use xlink:href="#m05bea4f05f" x="277.22623" y="87.253391" style="fill: #1f77b4; stroke: #1f77b4"/>
     <use xlink:href="#m05bea4f05f" x="290.283113" y="82.829308" style="fill: #1f77b4; stroke: #1f77b4"/>
     <use xlink:href="#m05bea4f05f" x="303.339996" y="86.036434" style="fill: #1f77b4; stroke: #1f77b4"/>
     <use xlink:href="#m05bea4f05f" x="316.396879" y="82.102798" style="fill: #1f77b4; stroke: #1f77b4"/>
     <use xlink:href="#m05bea4f05f" x="329.453762" y="79.946824" style="fill: #1f77b4; stroke: #1f77b4"/>
     <use xlink:href="#m05bea4f05f" x="342.510645" y="71.76849" style="fill: #1f77b4; stroke: #1f77b4"/>
     <use xlink:href="#m05bea4f05f" x="355.567528" y="82.112974" style="fill: #1f77b4; stroke: #1f77b4"/>
     <use xlink:href="#m05bea4f05f" x="368.624412" y="63.043519" style="fill: #1f77b4; stroke: #1f77b4"/>
     <use xlink:href="#m05bea4f05f" x="381.681295" y="60.440115" style="fill: #1f77b4; stroke: #1f77b4"/>
     <use xlink:href="#m05bea4f05f" x="394.738178" y="60.240121" style="fill: #1f77b4; stroke: #1f77b4"/>
     <use xlink:href="#m05bea4f05f" x="407.795061" y="58.038675" style="fill: #1f77b4; stroke: #1f77b4"/>
     <use xlink:href="#m05bea4f05f" x="420.851944" y="63.207541" style="fill: #1f77b4; stroke: #1f77b4"/>
     <use xlink:href="#m05bea4f05f" x="433.908827" y="63.336039" style="fill: #1f77b4; stroke: #1f77b4"/>
     <use xlink:href="#m05bea4f05f" x="446.96571" y="69.683694" style="fill: #1f77b4; stroke: #1f77b4"/>
     <use xlink:href="#m05bea4f05f" x="460.022593" y="72.685018" style="fill: #1f77b4; stroke: #1f77b4"/>
     <use xlink:href="#m05bea4f05f" x="473.079476" y="63.088014" style="fill: #1f77b4; stroke: #1f77b4"/>
     <use xlink:href="#m05bea4f05f" x="486.13636" y="63.823518" style="fill: #1f77b4; stroke: #1f77b4"/>
     <use xlink:href="#m05bea4f05f" x="499.193243" y="76.01421" style="fill: #1f77b4; stroke: #1f77b4"/>
     <use xlink:href="#m05bea4f05f" x="512.250126" y="75.178885" style="fill: #1f77b4; stroke: #1f77b4"/>
     <use xlink:href="#m05bea4f05f" x="525.307009" y="75.895154" style="fill: #1f77b4; stroke: #1f77b4"/>
     <use xlink:href="#m05bea4f05f" x="538.363892" y="59.850722" style="fill: #1f77b4; stroke: #1f77b4"/>
    </g>
   </g>
   <g id="line2d_13">
    <path d="M 58.523438 88.929827
L 561.213437 88.929827
" clip-path="url(#p4da61a1db3)" style="fill: none; stroke: #000000; stroke-width: 0.5; stroke-linecap: square"/>
   </g>
   <g id="line2d_14">
    <path d="M 172.771165 170.438125
L 172.771165 22.318125
" clip-path="url(#p4da61a1db3)" style="fill: none; stroke-dasharray: 5.55,2.4; stroke-dashoffset: 0; stroke: #000000; stroke-width: 1.5"/>
   </g>
   <g id="patch_3">
    <path d="M 58.523438 170.438125
L 58.523438 22.318125
" style="fill: none; stroke: #000000; stroke-width: 0.8; stroke-linejoin: miter; stroke-linecap: square"/>
   </g>
   <g id="patch_4">
    <path d="M 561.213437 170.438125
L 561.213437 22.318125
" style="fill: none; stroke: #000000; stroke-width: 0.8; stroke-linejoin: miter; stroke-linecap: square"/>
   </g>
   <g id="patch_5">
    <path d="M 58.523438 170.438125
L 561.213437 170.438125
" style="fill: none; stroke: #000000; stroke-width: 0.8; stroke-linejoin: miter; stroke-linecap: square"/>
   </g>
   <g id="patch_6">
    <path d="M 58.523438 22.318125
L 561.213437 22.318125
" style="fill: none; stroke: #000000; stroke-width: 0.8; stroke-linejoin: miter; stroke-linecap: square"/>
   </g>
   <g id="text_14">
    <!-- First stage placebo tests with shifted outcome: Impact of pc_resid_9 on protest occurrence -->
    <g transform="translate(37.750625 16.318125) scale(0.12 -0.12)">
     <defs>
      <path id="DejaVuSans-62" d="M 3116 1747
Q 3116 2381 2855 2742
Q 2594 3103 2138 3103
Q 1681 3103 1420 2742
Q 1159 2381 1159 1747
Q 1159 1113 1420 752
Q 1681 391 2138 391
Q 2594 391 2855 752
Q 3116 1113 3116 1747
z
M 1159 2969
Q 1341 3281 1617 3432
Q 1894 3584 2278 3584
Q 2916 3584 3314 3078
Q 3713 2572 3713 1747
Q 3713 922 3314 415
Q 2916 -91 2278 -91
Q 1894 -91 1617 61
Q 1341 213 1159 525
L 1159 0
L 581 0
L 581 4863
L 1159 4863
L 1159 2969
z
" transform="scale(0.015625)"/>
      <path id="DejaVuSans-77" d="M 269 3500
L 844 3500
L 1563 769
L 2278 3500
L 2956 3500
L 3675 769
L 4391 3500
L 4966 3500
L 4050 0
L 3372 0
L 2619 2869
L 1863 0
L 1184 0
L 269 3500
z
" transform="scale(0.015625)"/>
      <path id="DejaVuSans-68" d="M 3513 2113
L 3513 0
L 2938 0
L 2938 2094
Q 2938 2591 2744 2837
Q 2550 3084 2163 3084
Q 1697 3084 1428 2787
Q 1159 2491 1159 1978
L 1159 0
L 581 0
L 581 4863
L 1159 4863
L 1159 2956
Q 1366 3272 1645 3428
Q 1925 3584 2291 3584
Q 2894 3584 3203 3211
Q 3513 2838 3513 2113
z
" transform="scale(0.015625)"/>
      <path id="DejaVuSans-64" d="M 2906 2969
L 2906 4863
L 3481 4863
L 3481 0
L 2906 0
L 2906 525
Q 2725 213 2448 61
Q 2172 -91 1784 -91
Q 1150 -91 751 415
Q 353 922 353 1747
Q 353 2572 751 3078
Q 1150 3584 1784 3584
Q 2172 3584 2448 3432
Q 2725 3281 2906 2969
z
M 947 1747
Q 947 1113 1208 752
Q 1469 391 1925 391
Q 2381 391 2643 752
Q 2906 1113 2906 1747
Q 2906 2381 2643 2742
Q 2381 3103 1925 3103
Q 1469 3103 1208 2742
Q 947 2381 947 1747
z
" transform="scale(0.015625)"/>
      <path id="DejaVuSans-3a" d="M 750 794
L 1409 794
L 1409 0
L 750 0
L 750 794
z
M 750 3309
L 1409 3309
L 1409 2516
L 750 2516
L 750 3309
z
" transform="scale(0.015625)"/>
      <path id="DejaVuSans-49" d="M 628 4666
L 1259 4666
L 1259 0
L 628 0
L 628 4666
z
" transform="scale(0.015625)"/>
      <path id="DejaVuSans-5f" d="M 3263 -1063
L 3263 -1509
L -63 -1509
L -63 -1063
L 3263 -1063
z
" transform="scale(0.015625)"/>
      <path id="DejaVuSans-39" d="M 703 97
L 703 672
Q 941 559 1184 500
Q 1428 441 1663 441
Q 2288 441 2617 861
Q 2947 1281 2994 2138
Q 2813 1869 2534 1725
Q 2256 1581 1919 1581
Q 1219 1581 811 2004
Q 403 2428 403 3163
Q 403 3881 828 4315
Q 1253 4750 1959 4750
Q 2769 4750 3195 4129
Q 3622 3509 3622 2328
Q 3622 1225 3098 567
Q 2575 -91 1691 -91
Q 1453 -91 1209 -44
Q 966 3 703 97
z
M 1959 2075
Q 2384 2075 2632 2365
Q 2881 2656 2881 3163
Q 2881 3666 2632 3958
Q 2384 4250 1959 4250
Q 1534 4250 1286 3958
Q 1038 3666 1038 3163
Q 1038 2656 1286 2365
Q 1534 2075 1959 2075
z
" transform="scale(0.015625)"/>
     </defs>
     <use xlink:href="#DejaVuSans-46"/>
     <use xlink:href="#DejaVuSans-69" x="50.269531"/>
     <use xlink:href="#DejaVuSans-72" x="78.052734"/>
     <use xlink:href="#DejaVuSans-73" x="119.166016"/>
     <use xlink:href="#DejaVuSans-74" x="171.265625"/>
     <use xlink:href="#DejaVuSans-20" x="210.474609"/>
     <use xlink:href="#DejaVuSans-73" x="242.261719"/>
     <use xlink:href="#DejaVuSans-74" x="294.361328"/>
     <use xlink:href="#DejaVuSans-61" x="333.570312"/>
     <use xlink:href="#DejaVuSans-67" x="394.849609"/>
     <use xlink:href="#DejaVuSans-65" x="458.326172"/>
     <use xlink:href="#DejaVuSans-20" x="519.849609"/>
     <use xlink:href="#DejaVuSans-70" x="551.636719"/>
     <use xlink:href="#DejaVuSans-6c" x="615.113281"/>
     <use xlink:href="#DejaVuSans-61" x="642.896484"/>
     <use xlink:href="#DejaVuSans-63" x="704.175781"/>
     <use xlink:href="#DejaVuSans-65" x="759.15625"/>
     <use xlink:href="#DejaVuSans-62" x="820.679688"/>
     <use xlink:href="#DejaVuSans-6f" x="884.15625"/>
     <use xlink:href="#DejaVuSans-20" x="945.337891"/>
     <use xlink:href="#DejaVuSans-74" x="977.125"/>
     <use xlink:href="#DejaVuSans-65" x="1016.333984"/>
     <use xlink:href="#DejaVuSans-73" x="1077.857422"/>
     <use xlink:href="#DejaVuSans-74" x="1129.957031"/>
     <use xlink:href="#DejaVuSans-73" x="1169.166016"/>
     <use xlink:href="#DejaVuSans-20" x="1221.265625"/>
     <use xlink:href="#DejaVuSans-77" x="1253.052734"/>
     <use xlink:href="#DejaVuSans-69" x="1334.839844"/>
     <use xlink:href="#DejaVuSans-74" x="1362.623047"/>
     <use xlink:href="#DejaVuSans-68" x="1401.832031"/>
     <use xlink:href="#DejaVuSans-20" x="1465.210938"/>
     <use xlink:href="#DejaVuSans-73" x="1496.998047"/>
     <use xlink:href="#DejaVuSans-68" x="1549.097656"/>
     <use xlink:href="#DejaVuSans-69" x="1612.476562"/>
     <use xlink:href="#DejaVuSans-66" x="1640.259766"/>
     <use xlink:href="#DejaVuSans-74" x="1673.714844"/>
     <use xlink:href="#DejaVuSans-65" x="1712.923828"/>
     <use xlink:href="#DejaVuSans-64" x="1774.447266"/>
     <use xlink:href="#DejaVuSans-20" x="1837.923828"/>
     <use xlink:href="#DejaVuSans-6f" x="1869.710938"/>
     <use xlink:href="#DejaVuSans-75" x="1930.892578"/>
     <use xlink:href="#DejaVuSans-74" x="1994.271484"/>
     <use xlink:href="#DejaVuSans-63" x="2033.480469"/>
     <use xlink:href="#DejaVuSans-6f" x="2088.460938"/>
     <use xlink:href="#DejaVuSans-6d" x="2149.642578"/>
     <use xlink:href="#DejaVuSans-65" x="2247.054688"/>
     <use xlink:href="#DejaVuSans-3a" x="2308.578125"/>
     <use xlink:href="#DejaVuSans-20" x="2342.269531"/>
     <use xlink:href="#DejaVuSans-49" x="2374.056641"/>
     <use xlink:href="#DejaVuSans-6d" x="2403.548828"/>
     <use xlink:href="#DejaVuSans-70" x="2500.960938"/>
     <use xlink:href="#DejaVuSans-61" x="2564.4375"/>
     <use xlink:href="#DejaVuSans-63" x="2625.716797"/>
     <use xlink:href="#DejaVuSans-74" x="2680.697266"/>
     <use xlink:href="#DejaVuSans-20" x="2719.90625"/>
     <use xlink:href="#DejaVuSans-6f" x="2751.693359"/>
     <use xlink:href="#DejaVuSans-66" x="2812.875"/>
     <use xlink:href="#DejaVuSans-20" x="2848.080078"/>
     <use xlink:href="#DejaVuSans-70" x="2879.867188"/>
     <use xlink:href="#DejaVuSans-63" x="2943.34375"/>
     <use xlink:href="#DejaVuSans-5f" x="2998.324219"/>
     <use xlink:href="#DejaVuSans-72" x="3048.324219"/>
     <use xlink:href="#DejaVuSans-65" x="3087.1875"/>
     <use xlink:href="#DejaVuSans-73" x="3148.710938"/>
     <use xlink:href="#DejaVuSans-69" x="3200.810547"/>
     <use xlink:href="#DejaVuSans-64" x="3228.59375"/>
     <use xlink:href="#DejaVuSans-5f" x="3292.070312"/>
     <use xlink:href="#DejaVuSans-39" x="3342.070312"/>
     <use xlink:href="#DejaVuSans-20" x="3405.693359"/>
     <use xlink:href="#DejaVuSans-6f" x="3437.480469"/>
     <use xlink:href="#DejaVuSans-6e" x="3498.662109"/>
     <use xlink:href="#DejaVuSans-20" x="3562.041016"/>
     <use xlink:href="#DejaVuSans-70" x="3593.828125"/>
     <use xlink:href="#DejaVuSans-72" x="3657.304688"/>
     <use xlink:href="#DejaVuSans-6f" x="3696.167969"/>
     <use xlink:href="#DejaVuSans-74" x="3757.349609"/>
     <use xlink:href="#DejaVuSans-65" x="3796.558594"/>
     <use xlink:href="#DejaVuSans-73" x="3858.082031"/>
     <use xlink:href="#DejaVuSans-74" x="3910.181641"/>
     <use xlink:href="#DejaVuSans-20" x="3949.390625"/>
     <use xlink:href="#DejaVuSans-6f" x="3981.177734"/>
     <use xlink:href="#DejaVuSans-63" x="4042.359375"/>
     <use xlink:href="#DejaVuSans-63" x="4097.339844"/>
     <use xlink:href="#DejaVuSans-75" x="4152.320312"/>
     <use xlink:href="#DejaVuSans-72" x="4215.699219"/>
     <use xlink:href="#DejaVuSans-72" x="4255.0625"/>
     <use xlink:href="#DejaVuSans-65" x="4293.925781"/>
     <use xlink:href="#DejaVuSans-6e" x="4355.449219"/>
     <use xlink:href="#DejaVuSans-63" x="4418.828125"/>
     <use xlink:href="#DejaVuSans-65" x="4473.808594"/>
    </g>
   </g>
  </g>
 </g>
 <defs>
  <clipPath id="p4da61a1db3">
   <rect x="58.523438" y="22.318125" width="502.69" height="148.12"/>
  </clipPath>
 </defs>
</svg>
