<?xml version="1.0" encoding="utf-8" standalone="no"?>
<!DOCTYPE svg PUBLIC "-//W3C//DTD SVG 1.1//EN"
  "http://www.w3.org/Graphics/SVG/1.1/DTD/svg11.dtd">
<svg xmlns:xlink="http://www.w3.org/1999/xlink" width="424.410312pt" height="279.994375pt" viewBox="0 0 424.410312 279.994375" xmlns="http://www.w3.org/2000/svg" version="1.1">
 <metadata>
  <rdf:RDF xmlns:dc="http://purl.org/dc/elements/1.1/" xmlns:cc="http://creativecommons.org/ns#" xmlns:rdf="http://www.w3.org/1999/02/22-rdf-syntax-ns#">
   <cc:Work>
    <dc:type rdf:resource="http://purl.org/dc/dcmitype/StillImage"/>
    <dc:date>2023-08-24T17:47:38.438320</dc:date>
    <dc:format>image/svg+xml</dc:format>
    <dc:creator>
     <cc:Agent>
      <dc:title>Matplotlib v3.7.2, https://matplotlib.org/</dc:title>
     </cc:Agent>
    </dc:creator>
   </cc:Work>
  </rdf:RDF>
 </metadata>
 <defs>
  <style type="text/css">*{stroke-linejoin: round; stroke-linecap: butt}</style>
 </defs>
 <g id="figure_1">
  <g id="patch_1">
   <path d="M 0 279.994375
L 424.410312 279.994375
L 424.410312 0
L 0 0
z
" style="fill: #ffffff"/>
  </g>
  <g id="axes_1">
   <g id="patch_2">
    <path d="M 42.620313 103.838125
L 417.210312 103.838125
L 417.210312 22.318125
L 42.620313 22.318125
z
" style="fill: #ffffff"/>
   </g>
   <g id="matplotlib.axis_1">
    <g id="xtick_1">
     <g id="line2d_1">
      <defs>
       <path id="me2904e35b1" d="M 0 0
L 0 3.5
" style="stroke: #000000; stroke-width: 0.8"/>
      </defs>
      <g>
       <use xlink:href="#me2904e35b1" x="42.620313" y="103.838125" style="stroke: #000000; stroke-width: 0.8"/>
      </g>
     </g>
     <g id="text_1">
      <!-- −20 -->
      <g transform="translate(32.067969 118.436562) scale(0.1 -0.1)">
       <defs>
        <path id="DejaVuSans-2212" d="M 678 2272
L 4684 2272
L 4684 1741
L 678 1741
L 678 2272
z
" transform="scale(0.015625)"/>
        <path id="DejaVuSans-32" d="M 1228 531
L 3431 531
L 3431 0
L 469 0
L 469 531
Q 828 903 1448 1529
Q 2069 2156 2228 2338
Q 2531 2678 2651 2914
Q 2772 3150 2772 3378
Q 2772 3750 2511 3984
Q 2250 4219 1831 4219
Q 1534 4219 1204 4116
Q 875 4013 500 3803
L 500 4441
Q 881 4594 1212 4672
Q 1544 4750 1819 4750
Q 2544 4750 2975 4387
Q 3406 4025 3406 3419
Q 3406 3131 3298 2873
Q 3191 2616 2906 2266
Q 2828 2175 2409 1742
Q 1991 1309 1228 531
z
" transform="scale(0.015625)"/>
        <path id="DejaVuSans-30" d="M 2034 4250
Q 1547 4250 1301 3770
Q 1056 3291 1056 2328
Q 1056 1369 1301 889
Q 1547 409 2034 409
Q 2525 409 2770 889
Q 3016 1369 3016 2328
Q 3016 3291 2770 3770
Q 2525 4250 2034 4250
z
M 2034 4750
Q 2819 4750 3233 4129
Q 3647 3509 3647 2328
Q 3647 1150 3233 529
Q 2819 -91 2034 -91
Q 1250 -91 836 529
Q 422 1150 422 2328
Q 422 3509 836 4129
Q 1250 4750 2034 4750
z
" transform="scale(0.015625)"/>
       </defs>
       <use xlink:href="#DejaVuSans-2212"/>
       <use xlink:href="#DejaVuSans-32" x="83.789062"/>
       <use xlink:href="#DejaVuSans-30" x="147.412109"/>
      </g>
     </g>
    </g>
    <g id="xtick_2">
     <g id="line2d_2">
      <g>
       <use xlink:href="#me2904e35b1" x="111.988831" y="103.838125" style="stroke: #000000; stroke-width: 0.8"/>
      </g>
     </g>
     <g id="text_2">
      <!-- −15 -->
      <g transform="translate(101.436487 118.436562) scale(0.1 -0.1)">
       <defs>
        <path id="DejaVuSans-31" d="M 794 531
L 1825 531
L 1825 4091
L 703 3866
L 703 4441
L 1819 4666
L 2450 4666
L 2450 531
L 3481 531
L 3481 0
L 794 0
L 794 531
z
" transform="scale(0.015625)"/>
        <path id="DejaVuSans-35" d="M 691 4666
L 3169 4666
L 3169 4134
L 1269 4134
L 1269 2991
Q 1406 3038 1543 3061
Q 1681 3084 1819 3084
Q 2600 3084 3056 2656
Q 3513 2228 3513 1497
Q 3513 744 3044 326
Q 2575 -91 1722 -91
Q 1428 -91 1123 -41
Q 819 9 494 109
L 494 744
Q 775 591 1075 516
Q 1375 441 1709 441
Q 2250 441 2565 725
Q 2881 1009 2881 1497
Q 2881 1984 2565 2268
Q 2250 2553 1709 2553
Q 1456 2553 1204 2497
Q 953 2441 691 2322
L 691 4666
z
" transform="scale(0.015625)"/>
       </defs>
       <use xlink:href="#DejaVuSans-2212"/>
       <use xlink:href="#DejaVuSans-31" x="83.789062"/>
       <use xlink:href="#DejaVuSans-35" x="147.412109"/>
      </g>
     </g>
    </g>
    <g id="xtick_3">
     <g id="line2d_3">
      <g>
       <use xlink:href="#me2904e35b1" x="181.35735" y="103.838125" style="stroke: #000000; stroke-width: 0.8"/>
      </g>
     </g>
     <g id="text_3">
      <!-- −10 -->
      <g transform="translate(170.805006 118.436562) scale(0.1 -0.1)">
       <use xlink:href="#DejaVuSans-2212"/>
       <use xlink:href="#DejaVuSans-31" x="83.789062"/>
       <use xlink:href="#DejaVuSans-30" x="147.412109"/>
      </g>
     </g>
    </g>
    <g id="xtick_4">
     <g id="line2d_4">
      <g>
       <use xlink:href="#me2904e35b1" x="250.725868" y="103.838125" style="stroke: #000000; stroke-width: 0.8"/>
      </g>
     </g>
     <g id="text_4">
      <!-- −5 -->
      <g transform="translate(243.354774 118.436562) scale(0.1 -0.1)">
       <use xlink:href="#DejaVuSans-2212"/>
       <use xlink:href="#DejaVuSans-35" x="83.789062"/>
      </g>
     </g>
    </g>
    <g id="xtick_5">
     <g id="line2d_5">
      <g>
       <use xlink:href="#me2904e35b1" x="320.094387" y="103.838125" style="stroke: #000000; stroke-width: 0.8"/>
      </g>
     </g>
     <g id="text_5">
      <!-- 0 -->
      <g transform="translate(316.913137 118.436562) scale(0.1 -0.1)">
       <use xlink:href="#DejaVuSans-30"/>
      </g>
     </g>
    </g>
    <g id="xtick_6">
     <g id="line2d_6">
      <g>
       <use xlink:href="#me2904e35b1" x="389.462905" y="103.838125" style="stroke: #000000; stroke-width: 0.8"/>
      </g>
     </g>
     <g id="text_6">
      <!-- 5 -->
      <g transform="translate(386.281655 118.436562) scale(0.1 -0.1)">
       <use xlink:href="#DejaVuSans-35"/>
      </g>
     </g>
    </g>
    <g id="text_7">
     <!-- Days since protest -->
     <g transform="translate(183.492656 132.114687) scale(0.1 -0.1)">
      <defs>
       <path id="DejaVuSans-44" d="M 1259 4147
L 1259 519
L 2022 519
Q 2988 519 3436 956
Q 3884 1394 3884 2338
Q 3884 3275 3436 3711
Q 2988 4147 2022 4147
L 1259 4147
z
M 628 4666
L 1925 4666
Q 3281 4666 3915 4102
Q 4550 3538 4550 2338
Q 4550 1131 3912 565
Q 3275 0 1925 0
L 628 0
L 628 4666
z
" transform="scale(0.015625)"/>
       <path id="DejaVuSans-61" d="M 2194 1759
Q 1497 1759 1228 1600
Q 959 1441 959 1056
Q 959 750 1161 570
Q 1363 391 1709 391
Q 2188 391 2477 730
Q 2766 1069 2766 1631
L 2766 1759
L 2194 1759
z
M 3341 1997
L 3341 0
L 2766 0
L 2766 531
Q 2569 213 2275 61
Q 1981 -91 1556 -91
Q 1019 -91 701 211
Q 384 513 384 1019
Q 384 1609 779 1909
Q 1175 2209 1959 2209
L 2766 2209
L 2766 2266
Q 2766 2663 2505 2880
Q 2244 3097 1772 3097
Q 1472 3097 1187 3025
Q 903 2953 641 2809
L 641 3341
Q 956 3463 1253 3523
Q 1550 3584 1831 3584
Q 2591 3584 2966 3190
Q 3341 2797 3341 1997
z
" transform="scale(0.015625)"/>
       <path id="DejaVuSans-79" d="M 2059 -325
Q 1816 -950 1584 -1140
Q 1353 -1331 966 -1331
L 506 -1331
L 506 -850
L 844 -850
Q 1081 -850 1212 -737
Q 1344 -625 1503 -206
L 1606 56
L 191 3500
L 800 3500
L 1894 763
L 2988 3500
L 3597 3500
L 2059 -325
z
" transform="scale(0.015625)"/>
       <path id="DejaVuSans-73" d="M 2834 3397
L 2834 2853
Q 2591 2978 2328 3040
Q 2066 3103 1784 3103
Q 1356 3103 1142 2972
Q 928 2841 928 2578
Q 928 2378 1081 2264
Q 1234 2150 1697 2047
L 1894 2003
Q 2506 1872 2764 1633
Q 3022 1394 3022 966
Q 3022 478 2636 193
Q 2250 -91 1575 -91
Q 1294 -91 989 -36
Q 684 19 347 128
L 347 722
Q 666 556 975 473
Q 1284 391 1588 391
Q 1994 391 2212 530
Q 2431 669 2431 922
Q 2431 1156 2273 1281
Q 2116 1406 1581 1522
L 1381 1569
Q 847 1681 609 1914
Q 372 2147 372 2553
Q 372 3047 722 3315
Q 1072 3584 1716 3584
Q 2034 3584 2315 3537
Q 2597 3491 2834 3397
z
" transform="scale(0.015625)"/>
       <path id="DejaVuSans-20" transform="scale(0.015625)"/>
       <path id="DejaVuSans-69" d="M 603 3500
L 1178 3500
L 1178 0
L 603 0
L 603 3500
z
M 603 4863
L 1178 4863
L 1178 4134
L 603 4134
L 603 4863
z
" transform="scale(0.015625)"/>
       <path id="DejaVuSans-6e" d="M 3513 2113
L 3513 0
L 2938 0
L 2938 2094
Q 2938 2591 2744 2837
Q 2550 3084 2163 3084
Q 1697 3084 1428 2787
Q 1159 2491 1159 1978
L 1159 0
L 581 0
L 581 3500
L 1159 3500
L 1159 2956
Q 1366 3272 1645 3428
Q 1925 3584 2291 3584
Q 2894 3584 3203 3211
Q 3513 2838 3513 2113
z
" transform="scale(0.015625)"/>
       <path id="DejaVuSans-63" d="M 3122 3366
L 3122 2828
Q 2878 2963 2633 3030
Q 2388 3097 2138 3097
Q 1578 3097 1268 2742
Q 959 2388 959 1747
Q 959 1106 1268 751
Q 1578 397 2138 397
Q 2388 397 2633 464
Q 2878 531 3122 666
L 3122 134
Q 2881 22 2623 -34
Q 2366 -91 2075 -91
Q 1284 -91 818 406
Q 353 903 353 1747
Q 353 2603 823 3093
Q 1294 3584 2113 3584
Q 2378 3584 2631 3529
Q 2884 3475 3122 3366
z
" transform="scale(0.015625)"/>
       <path id="DejaVuSans-65" d="M 3597 1894
L 3597 1613
L 953 1613
Q 991 1019 1311 708
Q 1631 397 2203 397
Q 2534 397 2845 478
Q 3156 559 3463 722
L 3463 178
Q 3153 47 2828 -22
Q 2503 -91 2169 -91
Q 1331 -91 842 396
Q 353 884 353 1716
Q 353 2575 817 3079
Q 1281 3584 2069 3584
Q 2775 3584 3186 3129
Q 3597 2675 3597 1894
z
M 3022 2063
Q 3016 2534 2758 2815
Q 2500 3097 2075 3097
Q 1594 3097 1305 2825
Q 1016 2553 972 2059
L 3022 2063
z
" transform="scale(0.015625)"/>
       <path id="DejaVuSans-70" d="M 1159 525
L 1159 -1331
L 581 -1331
L 581 3500
L 1159 3500
L 1159 2969
Q 1341 3281 1617 3432
Q 1894 3584 2278 3584
Q 2916 3584 3314 3078
Q 3713 2572 3713 1747
Q 3713 922 3314 415
Q 2916 -91 2278 -91
Q 1894 -91 1617 61
Q 1341 213 1159 525
z
M 3116 1747
Q 3116 2381 2855 2742
Q 2594 3103 2138 3103
Q 1681 3103 1420 2742
Q 1159 2381 1159 1747
Q 1159 1113 1420 752
Q 1681 391 2138 391
Q 2594 391 2855 752
Q 3116 1113 3116 1747
z
" transform="scale(0.015625)"/>
       <path id="DejaVuSans-72" d="M 2631 2963
Q 2534 3019 2420 3045
Q 2306 3072 2169 3072
Q 1681 3072 1420 2755
Q 1159 2438 1159 1844
L 1159 0
L 581 0
L 581 3500
L 1159 3500
L 1159 2956
Q 1341 3275 1631 3429
Q 1922 3584 2338 3584
Q 2397 3584 2469 3576
Q 2541 3569 2628 3553
L 2631 2963
z
" transform="scale(0.015625)"/>
       <path id="DejaVuSans-6f" d="M 1959 3097
Q 1497 3097 1228 2736
Q 959 2375 959 1747
Q 959 1119 1226 758
Q 1494 397 1959 397
Q 2419 397 2687 759
Q 2956 1122 2956 1747
Q 2956 2369 2687 2733
Q 2419 3097 1959 3097
z
M 1959 3584
Q 2709 3584 3137 3096
Q 3566 2609 3566 1747
Q 3566 888 3137 398
Q 2709 -91 1959 -91
Q 1206 -91 779 398
Q 353 888 353 1747
Q 353 2609 779 3096
Q 1206 3584 1959 3584
z
" transform="scale(0.015625)"/>
       <path id="DejaVuSans-74" d="M 1172 4494
L 1172 3500
L 2356 3500
L 2356 3053
L 1172 3053
L 1172 1153
Q 1172 725 1289 603
Q 1406 481 1766 481
L 2356 481
L 2356 0
L 1766 0
Q 1100 0 847 248
Q 594 497 594 1153
L 594 3053
L 172 3053
L 172 3500
L 594 3500
L 594 4494
L 1172 4494
z
" transform="scale(0.015625)"/>
      </defs>
      <use xlink:href="#DejaVuSans-44"/>
      <use xlink:href="#DejaVuSans-61" x="77.001953"/>
      <use xlink:href="#DejaVuSans-79" x="138.28125"/>
      <use xlink:href="#DejaVuSans-73" x="197.460938"/>
      <use xlink:href="#DejaVuSans-20" x="249.560547"/>
      <use xlink:href="#DejaVuSans-73" x="281.347656"/>
      <use xlink:href="#DejaVuSans-69" x="333.447266"/>
      <use xlink:href="#DejaVuSans-6e" x="361.230469"/>
      <use xlink:href="#DejaVuSans-63" x="424.609375"/>
      <use xlink:href="#DejaVuSans-65" x="479.589844"/>
      <use xlink:href="#DejaVuSans-20" x="541.113281"/>
      <use xlink:href="#DejaVuSans-70" x="572.900391"/>
      <use xlink:href="#DejaVuSans-72" x="636.376953"/>
      <use xlink:href="#DejaVuSans-6f" x="675.240234"/>
      <use xlink:href="#DejaVuSans-74" x="736.421875"/>
      <use xlink:href="#DejaVuSans-65" x="775.630859"/>
      <use xlink:href="#DejaVuSans-73" x="837.154297"/>
      <use xlink:href="#DejaVuSans-74" x="889.253906"/>
     </g>
    </g>
   </g>
   <g id="matplotlib.axis_2">
    <g id="ytick_1">
     <g id="line2d_7">
      <defs>
       <path id="ma6695ac61f" d="M 0 0
L -3.5 0
" style="stroke: #000000; stroke-width: 0.8"/>
      </defs>
      <g>
       <use xlink:href="#ma6695ac61f" x="42.620313" y="100.44171" style="stroke: #000000; stroke-width: 0.8"/>
      </g>
     </g>
     <g id="text_8">
      <!-- −2 -->
      <g transform="translate(20.878125 104.240928) scale(0.1 -0.1)">
       <use xlink:href="#DejaVuSans-2212"/>
       <use xlink:href="#DejaVuSans-32" x="83.789062"/>
      </g>
     </g>
    </g>
    <g id="ytick_2">
     <g id="line2d_8">
      <g>
       <use xlink:href="#ma6695ac61f" x="42.620313" y="75.782924" style="stroke: #000000; stroke-width: 0.8"/>
      </g>
     </g>
     <g id="text_9">
      <!-- 0 -->
      <g transform="translate(29.257813 79.582142) scale(0.1 -0.1)">
       <use xlink:href="#DejaVuSans-30"/>
      </g>
     </g>
    </g>
    <g id="ytick_3">
     <g id="line2d_9">
      <g>
       <use xlink:href="#ma6695ac61f" x="42.620313" y="51.124138" style="stroke: #000000; stroke-width: 0.8"/>
      </g>
     </g>
     <g id="text_10">
      <!-- 2 -->
      <g transform="translate(29.257813 54.923356) scale(0.1 -0.1)">
       <use xlink:href="#DejaVuSans-32"/>
      </g>
     </g>
    </g>
    <g id="ytick_4">
     <g id="line2d_10">
      <g>
       <use xlink:href="#ma6695ac61f" x="42.620313" y="26.465352" style="stroke: #000000; stroke-width: 0.8"/>
      </g>
     </g>
     <g id="text_11">
      <!-- 4 -->
      <g transform="translate(29.257813 30.26457) scale(0.1 -0.1)">
       <defs>
        <path id="DejaVuSans-34" d="M 2419 4116
L 825 1625
L 2419 1625
L 2419 4116
z
M 2253 4666
L 3047 4666
L 3047 1625
L 3713 1625
L 3713 1100
L 3047 1100
L 3047 0
L 2419 0
L 2419 1100
L 313 1100
L 313 1709
L 2253 4666
z
" transform="scale(0.015625)"/>
       </defs>
       <use xlink:href="#DejaVuSans-34"/>
      </g>
     </g>
    </g>
    <g id="text_12">
     <!-- #articles -->
     <g transform="translate(14.798438 85.55625) rotate(-90) scale(0.1 -0.1)">
      <defs>
       <path id="DejaVuSans-23" d="M 3272 2816
L 2363 2816
L 2100 1772
L 3016 1772
L 3272 2816
z
M 2803 4594
L 2478 3297
L 3391 3297
L 3719 4594
L 4219 4594
L 3897 3297
L 4872 3297
L 4872 2816
L 3775 2816
L 3519 1772
L 4513 1772
L 4513 1294
L 3397 1294
L 3072 0
L 2572 0
L 2894 1294
L 1978 1294
L 1656 0
L 1153 0
L 1478 1294
L 494 1294
L 494 1772
L 1594 1772
L 1856 2816
L 850 2816
L 850 3297
L 1978 3297
L 2297 4594
L 2803 4594
z
" transform="scale(0.015625)"/>
       <path id="DejaVuSans-6c" d="M 603 4863
L 1178 4863
L 1178 0
L 603 0
L 603 4863
z
" transform="scale(0.015625)"/>
      </defs>
      <use xlink:href="#DejaVuSans-23"/>
      <use xlink:href="#DejaVuSans-61" x="83.789062"/>
      <use xlink:href="#DejaVuSans-72" x="145.068359"/>
      <use xlink:href="#DejaVuSans-74" x="186.181641"/>
      <use xlink:href="#DejaVuSans-69" x="225.390625"/>
      <use xlink:href="#DejaVuSans-63" x="253.173828"/>
      <use xlink:href="#DejaVuSans-6c" x="308.154297"/>
      <use xlink:href="#DejaVuSans-65" x="335.9375"/>
      <use xlink:href="#DejaVuSans-73" x="397.460938"/>
     </g>
    </g>
   </g>
   <g id="line2d_11">
    <path d="M 14.872905 70.680759
L 28.746609 72.155567
L 42.620313 88.112987
L 56.494016 100.13267
L 70.36772 75.031442
L 84.241424 75.73935
L 98.115127 78.836446
L 111.988831 79.1904
L 125.862535 75.488632
L 139.736238 86.490698
L 153.609942 97.75823
L 167.483646 69.427172
L 181.35735 69.058471
L 195.231053 78.556233
L 209.104757 72.996207
L 222.978461 71.344423
L 236.852164 86.343218
L 250.725868 97.846718
L 264.599572 67.37719
L 278.473275 59.265747
L 292.346979 50.815098
L 306.220683 44.576661
L 320.094387 26.02358
L 333.96809 52.434261
L 347.841794 80.444871
L 361.715498 58.000945
L 375.589201 61.692381
L 389.462905 60.68831
L 403.336609 60.673544
L 417.210312 60.392995
L 425.410312 72.122399
" clip-path="url(#p24a6a42134)" style="fill: none; stroke: #1f77b4; stroke-width: 1.5; stroke-linecap: square"/>
   </g>
   <g id="line2d_12">
    <path d="M 14.872905 71.681799
L 28.746609 71.860851
L 42.620313 86.919964
L 56.494016 96.955391
L 70.36772 73.325188
L 84.241424 73.158335
L 98.115127 75.821123
L 111.988831 74.939233
L 125.862535 71.065864
L 139.736238 83.593351
L 153.609942 96.604384
L 167.483646 72.271877
L 181.35735 76.286105
L 195.231053 74.073891
L 209.104757 68.876026
L 222.978461 67.505533
L 236.852164 86.61527
L 250.725868 96.542539
L 264.599572 70.245688
L 278.473275 64.921462
L 292.346979 56.3066
L 306.220683 57.653845
L 320.094387 54.757286
L 333.96809 70.28107
L 347.841794 87.24286
L 361.715498 64.875982
L 375.589201 61.672082
L 389.462905 58.825212
L 403.336609 59.967929
L 417.210312 58.097393
L 425.410312 69.114648
" clip-path="url(#p24a6a42134)" style="fill: none; stroke: #ff7f0e; stroke-width: 1.5; stroke-linecap: square"/>
   </g>
   <g id="line2d_13">
    <path d="M 320.094387 103.838125
L 320.094387 22.318125
" clip-path="url(#p24a6a42134)" style="fill: none; stroke-dasharray: 5.55,2.4; stroke-dashoffset: 0; stroke: #000000; stroke-width: 1.5"/>
   </g>
   <g id="patch_3">
    <path d="M 42.620313 103.838125
L 42.620313 22.318125
" style="fill: none; stroke: #000000; stroke-width: 0.8; stroke-linejoin: miter; stroke-linecap: square"/>
   </g>
   <g id="patch_4">
    <path d="M 417.210312 103.838125
L 417.210312 22.318125
" style="fill: none; stroke: #000000; stroke-width: 0.8; stroke-linejoin: miter; stroke-linecap: square"/>
   </g>
   <g id="patch_5">
    <path d="M 42.620313 103.838125
L 417.210312 103.838125
" style="fill: none; stroke: #000000; stroke-width: 0.8; stroke-linejoin: miter; stroke-linecap: square"/>
   </g>
   <g id="patch_6">
    <path d="M 42.620313 22.318125
L 417.210312 22.318125
" style="fill: none; stroke: #000000; stroke-width: 0.8; stroke-linejoin: miter; stroke-linecap: square"/>
   </g>
   <g id="text_13">
    <!-- Synthetic control for articles mentioning protest -->
    <g transform="translate(85.619063 16.318125) scale(0.12 -0.12)">
     <defs>
      <path id="DejaVuSans-53" d="M 3425 4513
L 3425 3897
Q 3066 4069 2747 4153
Q 2428 4238 2131 4238
Q 1616 4238 1336 4038
Q 1056 3838 1056 3469
Q 1056 3159 1242 3001
Q 1428 2844 1947 2747
L 2328 2669
Q 3034 2534 3370 2195
Q 3706 1856 3706 1288
Q 3706 609 3251 259
Q 2797 -91 1919 -91
Q 1588 -91 1214 -16
Q 841 59 441 206
L 441 856
Q 825 641 1194 531
Q 1563 422 1919 422
Q 2459 422 2753 634
Q 3047 847 3047 1241
Q 3047 1584 2836 1778
Q 2625 1972 2144 2069
L 1759 2144
Q 1053 2284 737 2584
Q 422 2884 422 3419
Q 422 4038 858 4394
Q 1294 4750 2059 4750
Q 2388 4750 2728 4690
Q 3069 4631 3425 4513
z
" transform="scale(0.015625)"/>
      <path id="DejaVuSans-68" d="M 3513 2113
L 3513 0
L 2938 0
L 2938 2094
Q 2938 2591 2744 2837
Q 2550 3084 2163 3084
Q 1697 3084 1428 2787
Q 1159 2491 1159 1978
L 1159 0
L 581 0
L 581 4863
L 1159 4863
L 1159 2956
Q 1366 3272 1645 3428
Q 1925 3584 2291 3584
Q 2894 3584 3203 3211
Q 3513 2838 3513 2113
z
" transform="scale(0.015625)"/>
      <path id="DejaVuSans-66" d="M 2375 4863
L 2375 4384
L 1825 4384
Q 1516 4384 1395 4259
Q 1275 4134 1275 3809
L 1275 3500
L 2222 3500
L 2222 3053
L 1275 3053
L 1275 0
L 697 0
L 697 3053
L 147 3053
L 147 3500
L 697 3500
L 697 3744
Q 697 4328 969 4595
Q 1241 4863 1831 4863
L 2375 4863
z
" transform="scale(0.015625)"/>
      <path id="DejaVuSans-6d" d="M 3328 2828
Q 3544 3216 3844 3400
Q 4144 3584 4550 3584
Q 5097 3584 5394 3201
Q 5691 2819 5691 2113
L 5691 0
L 5113 0
L 5113 2094
Q 5113 2597 4934 2840
Q 4756 3084 4391 3084
Q 3944 3084 3684 2787
Q 3425 2491 3425 1978
L 3425 0
L 2847 0
L 2847 2094
Q 2847 2600 2669 2842
Q 2491 3084 2119 3084
Q 1678 3084 1418 2786
Q 1159 2488 1159 1978
L 1159 0
L 581 0
L 581 3500
L 1159 3500
L 1159 2956
Q 1356 3278 1631 3431
Q 1906 3584 2284 3584
Q 2666 3584 2933 3390
Q 3200 3197 3328 2828
z
" transform="scale(0.015625)"/>
      <path id="DejaVuSans-67" d="M 2906 1791
Q 2906 2416 2648 2759
Q 2391 3103 1925 3103
Q 1463 3103 1205 2759
Q 947 2416 947 1791
Q 947 1169 1205 825
Q 1463 481 1925 481
Q 2391 481 2648 825
Q 2906 1169 2906 1791
z
M 3481 434
Q 3481 -459 3084 -895
Q 2688 -1331 1869 -1331
Q 1566 -1331 1297 -1286
Q 1028 -1241 775 -1147
L 775 -588
Q 1028 -725 1275 -790
Q 1522 -856 1778 -856
Q 2344 -856 2625 -561
Q 2906 -266 2906 331
L 2906 616
Q 2728 306 2450 153
Q 2172 0 1784 0
Q 1141 0 747 490
Q 353 981 353 1791
Q 353 2603 747 3093
Q 1141 3584 1784 3584
Q 2172 3584 2450 3431
Q 2728 3278 2906 2969
L 2906 3500
L 3481 3500
L 3481 434
z
" transform="scale(0.015625)"/>
     </defs>
     <use xlink:href="#DejaVuSans-53"/>
     <use xlink:href="#DejaVuSans-79" x="63.476562"/>
     <use xlink:href="#DejaVuSans-6e" x="122.65625"/>
     <use xlink:href="#DejaVuSans-74" x="186.035156"/>
     <use xlink:href="#DejaVuSans-68" x="225.244141"/>
     <use xlink:href="#DejaVuSans-65" x="288.623047"/>
     <use xlink:href="#DejaVuSans-74" x="350.146484"/>
     <use xlink:href="#DejaVuSans-69" x="389.355469"/>
     <use xlink:href="#DejaVuSans-63" x="417.138672"/>
     <use xlink:href="#DejaVuSans-20" x="472.119141"/>
     <use xlink:href="#DejaVuSans-63" x="503.90625"/>
     <use xlink:href="#DejaVuSans-6f" x="558.886719"/>
     <use xlink:href="#DejaVuSans-6e" x="620.068359"/>
     <use xlink:href="#DejaVuSans-74" x="683.447266"/>
     <use xlink:href="#DejaVuSans-72" x="722.65625"/>
     <use xlink:href="#DejaVuSans-6f" x="761.519531"/>
     <use xlink:href="#DejaVuSans-6c" x="822.701172"/>
     <use xlink:href="#DejaVuSans-20" x="850.484375"/>
     <use xlink:href="#DejaVuSans-66" x="882.271484"/>
     <use xlink:href="#DejaVuSans-6f" x="917.476562"/>
     <use xlink:href="#DejaVuSans-72" x="978.658203"/>
     <use xlink:href="#DejaVuSans-20" x="1019.771484"/>
     <use xlink:href="#DejaVuSans-61" x="1051.558594"/>
     <use xlink:href="#DejaVuSans-72" x="1112.837891"/>
     <use xlink:href="#DejaVuSans-74" x="1153.951172"/>
     <use xlink:href="#DejaVuSans-69" x="1193.160156"/>
     <use xlink:href="#DejaVuSans-63" x="1220.943359"/>
     <use xlink:href="#DejaVuSans-6c" x="1275.923828"/>
     <use xlink:href="#DejaVuSans-65" x="1303.707031"/>
     <use xlink:href="#DejaVuSans-73" x="1365.230469"/>
     <use xlink:href="#DejaVuSans-20" x="1417.330078"/>
     <use xlink:href="#DejaVuSans-6d" x="1449.117188"/>
     <use xlink:href="#DejaVuSans-65" x="1546.529297"/>
     <use xlink:href="#DejaVuSans-6e" x="1608.052734"/>
     <use xlink:href="#DejaVuSans-74" x="1671.431641"/>
     <use xlink:href="#DejaVuSans-69" x="1710.640625"/>
     <use xlink:href="#DejaVuSans-6f" x="1738.423828"/>
     <use xlink:href="#DejaVuSans-6e" x="1799.605469"/>
     <use xlink:href="#DejaVuSans-69" x="1862.984375"/>
     <use xlink:href="#DejaVuSans-6e" x="1890.767578"/>
     <use xlink:href="#DejaVuSans-67" x="1954.146484"/>
     <use xlink:href="#DejaVuSans-20" x="2017.623047"/>
     <use xlink:href="#DejaVuSans-70" x="2049.410156"/>
     <use xlink:href="#DejaVuSans-72" x="2112.886719"/>
     <use xlink:href="#DejaVuSans-6f" x="2151.75"/>
     <use xlink:href="#DejaVuSans-74" x="2212.931641"/>
     <use xlink:href="#DejaVuSans-65" x="2252.140625"/>
     <use xlink:href="#DejaVuSans-73" x="2313.664062"/>
     <use xlink:href="#DejaVuSans-74" x="2365.763672"/>
    </g>
   </g>
   <g id="legend_1">
    <g id="patch_7">
     <path d="M 49.620313 59.674375
L 128.832813 59.674375
Q 130.832813 59.674375 130.832813 57.674375
L 130.832813 29.318125
Q 130.832813 27.318125 128.832813 27.318125
L 49.620313 27.318125
Q 47.620313 27.318125 47.620313 29.318125
L 47.620313 57.674375
Q 47.620313 59.674375 49.620313 59.674375
z
" style="fill: #ffffff; opacity: 0.8; stroke: #cccccc; stroke-linejoin: miter"/>
    </g>
    <g id="line2d_14">
     <path d="M 51.620313 35.416562
L 61.620313 35.416562
L 71.620313 35.416562
" style="fill: none; stroke: #1f77b4; stroke-width: 1.5; stroke-linecap: square"/>
    </g>
    <g id="text_14">
     <!-- Actual -->
     <g transform="translate(79.620313 38.916562) scale(0.1 -0.1)">
      <defs>
       <path id="DejaVuSans-41" d="M 2188 4044
L 1331 1722
L 3047 1722
L 2188 4044
z
M 1831 4666
L 2547 4666
L 4325 0
L 3669 0
L 3244 1197
L 1141 1197
L 716 0
L 50 0
L 1831 4666
z
" transform="scale(0.015625)"/>
       <path id="DejaVuSans-75" d="M 544 1381
L 544 3500
L 1119 3500
L 1119 1403
Q 1119 906 1312 657
Q 1506 409 1894 409
Q 2359 409 2629 706
Q 2900 1003 2900 1516
L 2900 3500
L 3475 3500
L 3475 0
L 2900 0
L 2900 538
Q 2691 219 2414 64
Q 2138 -91 1772 -91
Q 1169 -91 856 284
Q 544 659 544 1381
z
M 1991 3584
L 1991 3584
z
" transform="scale(0.015625)"/>
      </defs>
      <use xlink:href="#DejaVuSans-41"/>
      <use xlink:href="#DejaVuSans-63" x="66.658203"/>
      <use xlink:href="#DejaVuSans-74" x="121.638672"/>
      <use xlink:href="#DejaVuSans-75" x="160.847656"/>
      <use xlink:href="#DejaVuSans-61" x="224.226562"/>
      <use xlink:href="#DejaVuSans-6c" x="285.505859"/>
     </g>
    </g>
    <g id="line2d_15">
     <path d="M 51.620313 50.094687
L 61.620313 50.094687
L 71.620313 50.094687
" style="fill: none; stroke: #ff7f0e; stroke-width: 1.5; stroke-linecap: square"/>
    </g>
    <g id="text_15">
     <!-- Synthetic -->
     <g transform="translate(79.620313 53.594687) scale(0.1 -0.1)">
      <use xlink:href="#DejaVuSans-53"/>
      <use xlink:href="#DejaVuSans-79" x="63.476562"/>
      <use xlink:href="#DejaVuSans-6e" x="122.65625"/>
      <use xlink:href="#DejaVuSans-74" x="186.035156"/>
      <use xlink:href="#DejaVuSans-68" x="225.244141"/>
      <use xlink:href="#DejaVuSans-65" x="288.623047"/>
      <use xlink:href="#DejaVuSans-74" x="350.146484"/>
      <use xlink:href="#DejaVuSans-69" x="389.355469"/>
      <use xlink:href="#DejaVuSans-63" x="417.138672"/>
     </g>
    </g>
   </g>
  </g>
  <g id="axes_2">
   <g id="patch_8">
    <path d="M 42.620313 242.438125
L 417.210312 242.438125
L 417.210312 160.918125
L 42.620313 160.918125
z
" style="fill: #ffffff"/>
   </g>
   <g id="matplotlib.axis_3">
    <g id="xtick_7">
     <g id="line2d_16">
      <g>
       <use xlink:href="#me2904e35b1" x="42.620313" y="242.438125" style="stroke: #000000; stroke-width: 0.8"/>
      </g>
     </g>
     <g id="text_16">
      <!-- −20 -->
      <g transform="translate(32.067969 257.036563) scale(0.1 -0.1)">
       <use xlink:href="#DejaVuSans-2212"/>
       <use xlink:href="#DejaVuSans-32" x="83.789062"/>
       <use xlink:href="#DejaVuSans-30" x="147.412109"/>
      </g>
     </g>
    </g>
    <g id="xtick_8">
     <g id="line2d_17">
      <g>
       <use xlink:href="#me2904e35b1" x="111.988831" y="242.438125" style="stroke: #000000; stroke-width: 0.8"/>
      </g>
     </g>
     <g id="text_17">
      <!-- −15 -->
      <g transform="translate(101.436487 257.036563) scale(0.1 -0.1)">
       <use xlink:href="#DejaVuSans-2212"/>
       <use xlink:href="#DejaVuSans-31" x="83.789062"/>
       <use xlink:href="#DejaVuSans-35" x="147.412109"/>
      </g>
     </g>
    </g>
    <g id="xtick_9">
     <g id="line2d_18">
      <g>
       <use xlink:href="#me2904e35b1" x="181.35735" y="242.438125" style="stroke: #000000; stroke-width: 0.8"/>
      </g>
     </g>
     <g id="text_18">
      <!-- −10 -->
      <g transform="translate(170.805006 257.036563) scale(0.1 -0.1)">
       <use xlink:href="#DejaVuSans-2212"/>
       <use xlink:href="#DejaVuSans-31" x="83.789062"/>
       <use xlink:href="#DejaVuSans-30" x="147.412109"/>
      </g>
     </g>
    </g>
    <g id="xtick_10">
     <g id="line2d_19">
      <g>
       <use xlink:href="#me2904e35b1" x="250.725868" y="242.438125" style="stroke: #000000; stroke-width: 0.8"/>
      </g>
     </g>
     <g id="text_19">
      <!-- −5 -->
      <g transform="translate(243.354774 257.036563) scale(0.1 -0.1)">
       <use xlink:href="#DejaVuSans-2212"/>
       <use xlink:href="#DejaVuSans-35" x="83.789062"/>
      </g>
     </g>
    </g>
    <g id="xtick_11">
     <g id="line2d_20">
      <g>
       <use xlink:href="#me2904e35b1" x="320.094387" y="242.438125" style="stroke: #000000; stroke-width: 0.8"/>
      </g>
     </g>
     <g id="text_20">
      <!-- 0 -->
      <g transform="translate(316.913137 257.036563) scale(0.1 -0.1)">
       <use xlink:href="#DejaVuSans-30"/>
      </g>
     </g>
    </g>
    <g id="xtick_12">
     <g id="line2d_21">
      <g>
       <use xlink:href="#me2904e35b1" x="389.462905" y="242.438125" style="stroke: #000000; stroke-width: 0.8"/>
      </g>
     </g>
     <g id="text_21">
      <!-- 5 -->
      <g transform="translate(386.281655 257.036563) scale(0.1 -0.1)">
       <use xlink:href="#DejaVuSans-35"/>
      </g>
     </g>
    </g>
    <g id="text_22">
     <!-- Days since protest -->
     <g transform="translate(183.492656 270.714687) scale(0.1 -0.1)">
      <use xlink:href="#DejaVuSans-44"/>
      <use xlink:href="#DejaVuSans-61" x="77.001953"/>
      <use xlink:href="#DejaVuSans-79" x="138.28125"/>
      <use xlink:href="#DejaVuSans-73" x="197.460938"/>
      <use xlink:href="#DejaVuSans-20" x="249.560547"/>
      <use xlink:href="#DejaVuSans-73" x="281.347656"/>
      <use xlink:href="#DejaVuSans-69" x="333.447266"/>
      <use xlink:href="#DejaVuSans-6e" x="361.230469"/>
      <use xlink:href="#DejaVuSans-63" x="424.609375"/>
      <use xlink:href="#DejaVuSans-65" x="479.589844"/>
      <use xlink:href="#DejaVuSans-20" x="541.113281"/>
      <use xlink:href="#DejaVuSans-70" x="572.900391"/>
      <use xlink:href="#DejaVuSans-72" x="636.376953"/>
      <use xlink:href="#DejaVuSans-6f" x="675.240234"/>
      <use xlink:href="#DejaVuSans-74" x="736.421875"/>
      <use xlink:href="#DejaVuSans-65" x="775.630859"/>
      <use xlink:href="#DejaVuSans-73" x="837.154297"/>
      <use xlink:href="#DejaVuSans-74" x="889.253906"/>
     </g>
    </g>
   </g>
   <g id="matplotlib.axis_4">
    <g id="ytick_5">
     <g id="line2d_22">
      <g>
       <use xlink:href="#ma6695ac61f" x="42.620313" y="225.552857" style="stroke: #000000; stroke-width: 0.8"/>
      </g>
     </g>
     <g id="text_23">
      <!-- −5 -->
      <g transform="translate(20.878125 229.352075) scale(0.1 -0.1)">
       <use xlink:href="#DejaVuSans-2212"/>
       <use xlink:href="#DejaVuSans-35" x="83.789062"/>
      </g>
     </g>
    </g>
    <g id="ytick_6">
     <g id="line2d_23">
      <g>
       <use xlink:href="#ma6695ac61f" x="42.620313" y="197.85787" style="stroke: #000000; stroke-width: 0.8"/>
      </g>
     </g>
     <g id="text_24">
      <!-- 0 -->
      <g transform="translate(29.257813 201.657089) scale(0.1 -0.1)">
       <use xlink:href="#DejaVuSans-30"/>
      </g>
     </g>
    </g>
    <g id="ytick_7">
     <g id="line2d_24">
      <g>
       <use xlink:href="#ma6695ac61f" x="42.620313" y="170.162884" style="stroke: #000000; stroke-width: 0.8"/>
      </g>
     </g>
     <g id="text_25">
      <!-- 5 -->
      <g transform="translate(29.257813 173.962103) scale(0.1 -0.1)">
       <use xlink:href="#DejaVuSans-35"/>
      </g>
     </g>
    </g>
    <g id="text_26">
     <!-- #articles -->
     <g transform="translate(14.798438 224.15625) rotate(-90) scale(0.1 -0.1)">
      <use xlink:href="#DejaVuSans-23"/>
      <use xlink:href="#DejaVuSans-61" x="83.789062"/>
      <use xlink:href="#DejaVuSans-72" x="145.068359"/>
      <use xlink:href="#DejaVuSans-74" x="186.181641"/>
      <use xlink:href="#DejaVuSans-69" x="225.390625"/>
      <use xlink:href="#DejaVuSans-63" x="253.173828"/>
      <use xlink:href="#DejaVuSans-6c" x="308.154297"/>
      <use xlink:href="#DejaVuSans-65" x="335.9375"/>
      <use xlink:href="#DejaVuSans-73" x="397.460938"/>
     </g>
    </g>
   </g>
   <g id="line2d_25">
    <path d="M 14.872905 188.735932
L 28.746609 201.722098
L 42.620313 222.513214
L 56.494016 233.889361
L 70.36772 194.84473
L 84.241424 186.986775
L 98.115127 189.053961
L 111.988831 195.891574
L 125.862535 202.132885
L 139.736238 225.044192
L 153.609942 238.73267
L 167.483646 188.901572
L 181.35735 177.300155
L 195.231053 181.401398
L 209.104757 179.80463
L 222.978461 191.922843
L 236.852164 218.995023
L 250.725868 230.377795
L 264.599572 183.355949
L 278.473275 170.747442
L 292.346979 170.409537
L 306.220683 180.109407
L 320.094387 187.920984
L 333.96809 211.175586
L 347.841794 222.691393
L 361.715498 172.276568
L 375.589201 169.092473
L 389.462905 167.39429
L 403.336609 184.389393
L 417.210312 190.817283
L 425.410312 203.810558
" clip-path="url(#p5fbcff3497)" style="fill: none; stroke: #1f77b4; stroke-width: 1.5; stroke-linecap: square"/>
   </g>
   <g id="line2d_26">
    <path d="M 14.872905 192.761873
L 28.746609 194.523617
L 42.620313 218.959194
L 56.494016 233.089136
L 70.36772 193.304682
L 84.241424 188.75804
L 98.115127 190.110118
L 111.988831 194.981439
L 125.862535 198.023876
L 139.736238 218.717592
L 153.609942 238.206038
L 167.483646 190.480193
L 181.35735 181.461088
L 195.231053 183.481145
L 209.104757 185.759399
L 222.978461 187.945779
L 236.852164 210.166954
L 250.725868 230.038054
L 264.599572 188.195468
L 278.473275 176.779435
L 292.346979 175.204416
L 306.220683 181.925608
L 320.094387 185.22537
L 333.96809 204.884276
L 347.841794 219.813825
L 361.715498 179.266615
L 375.589201 172.738966
L 389.462905 172.797265
L 403.336609 177.584245
L 417.210312 187.035195
L 425.410312 197.747254
" clip-path="url(#p5fbcff3497)" style="fill: none; stroke: #ff7f0e; stroke-width: 1.5; stroke-linecap: square"/>
   </g>
   <g id="line2d_27">
    <path d="M 320.094387 242.438125
L 320.094387 160.918125
" clip-path="url(#p5fbcff3497)" style="fill: none; stroke-dasharray: 5.55,2.4; stroke-dashoffset: 0; stroke: #000000; stroke-width: 1.5"/>
   </g>
   <g id="patch_9">
    <path d="M 42.620313 242.438125
L 42.620313 160.918125
" style="fill: none; stroke: #000000; stroke-width: 0.8; stroke-linejoin: miter; stroke-linecap: square"/>
   </g>
   <g id="patch_10">
    <path d="M 417.210312 242.438125
L 417.210312 160.918125
" style="fill: none; stroke: #000000; stroke-width: 0.8; stroke-linejoin: miter; stroke-linecap: square"/>
   </g>
   <g id="patch_11">
    <path d="M 42.620313 242.438125
L 417.210312 242.438125
" style="fill: none; stroke: #000000; stroke-width: 0.8; stroke-linejoin: miter; stroke-linecap: square"/>
   </g>
   <g id="patch_12">
    <path d="M 42.620313 160.918125
L 417.210312 160.918125
" style="fill: none; stroke: #000000; stroke-width: 0.8; stroke-linejoin: miter; stroke-linecap: square"/>
   </g>
   <g id="text_27">
    <!-- Synthetic control for articles NOT mentioning protest -->
    <g transform="translate(70.835625 154.918125) scale(0.12 -0.12)">
     <defs>
      <path id="DejaVuSans-4e" d="M 628 4666
L 1478 4666
L 3547 763
L 3547 4666
L 4159 4666
L 4159 0
L 3309 0
L 1241 3903
L 1241 0
L 628 0
L 628 4666
z
" transform="scale(0.015625)"/>
      <path id="DejaVuSans-4f" d="M 2522 4238
Q 1834 4238 1429 3725
Q 1025 3213 1025 2328
Q 1025 1447 1429 934
Q 1834 422 2522 422
Q 3209 422 3611 934
Q 4013 1447 4013 2328
Q 4013 3213 3611 3725
Q 3209 4238 2522 4238
z
M 2522 4750
Q 3503 4750 4090 4092
Q 4678 3434 4678 2328
Q 4678 1225 4090 567
Q 3503 -91 2522 -91
Q 1538 -91 948 565
Q 359 1222 359 2328
Q 359 3434 948 4092
Q 1538 4750 2522 4750
z
" transform="scale(0.015625)"/>
      <path id="DejaVuSans-54" d="M -19 4666
L 3928 4666
L 3928 4134
L 2272 4134
L 2272 0
L 1638 0
L 1638 4134
L -19 4134
L -19 4666
z
" transform="scale(0.015625)"/>
     </defs>
     <use xlink:href="#DejaVuSans-53"/>
     <use xlink:href="#DejaVuSans-79" x="63.476562"/>
     <use xlink:href="#DejaVuSans-6e" x="122.65625"/>
     <use xlink:href="#DejaVuSans-74" x="186.035156"/>
     <use xlink:href="#DejaVuSans-68" x="225.244141"/>
     <use xlink:href="#DejaVuSans-65" x="288.623047"/>
     <use xlink:href="#DejaVuSans-74" x="350.146484"/>
     <use xlink:href="#DejaVuSans-69" x="389.355469"/>
     <use xlink:href="#DejaVuSans-63" x="417.138672"/>
     <use xlink:href="#DejaVuSans-20" x="472.119141"/>
     <use xlink:href="#DejaVuSans-63" x="503.90625"/>
     <use xlink:href="#DejaVuSans-6f" x="558.886719"/>
     <use xlink:href="#DejaVuSans-6e" x="620.068359"/>
     <use xlink:href="#DejaVuSans-74" x="683.447266"/>
     <use xlink:href="#DejaVuSans-72" x="722.65625"/>
     <use xlink:href="#DejaVuSans-6f" x="761.519531"/>
     <use xlink:href="#DejaVuSans-6c" x="822.701172"/>
     <use xlink:href="#DejaVuSans-20" x="850.484375"/>
     <use xlink:href="#DejaVuSans-66" x="882.271484"/>
     <use xlink:href="#DejaVuSans-6f" x="917.476562"/>
     <use xlink:href="#DejaVuSans-72" x="978.658203"/>
     <use xlink:href="#DejaVuSans-20" x="1019.771484"/>
     <use xlink:href="#DejaVuSans-61" x="1051.558594"/>
     <use xlink:href="#DejaVuSans-72" x="1112.837891"/>
     <use xlink:href="#DejaVuSans-74" x="1153.951172"/>
     <use xlink:href="#DejaVuSans-69" x="1193.160156"/>
     <use xlink:href="#DejaVuSans-63" x="1220.943359"/>
     <use xlink:href="#DejaVuSans-6c" x="1275.923828"/>
     <use xlink:href="#DejaVuSans-65" x="1303.707031"/>
     <use xlink:href="#DejaVuSans-73" x="1365.230469"/>
     <use xlink:href="#DejaVuSans-20" x="1417.330078"/>
     <use xlink:href="#DejaVuSans-4e" x="1449.117188"/>
     <use xlink:href="#DejaVuSans-4f" x="1523.921875"/>
     <use xlink:href="#DejaVuSans-54" x="1602.632812"/>
     <use xlink:href="#DejaVuSans-20" x="1663.716797"/>
     <use xlink:href="#DejaVuSans-6d" x="1695.503906"/>
     <use xlink:href="#DejaVuSans-65" x="1792.916016"/>
     <use xlink:href="#DejaVuSans-6e" x="1854.439453"/>
     <use xlink:href="#DejaVuSans-74" x="1917.818359"/>
     <use xlink:href="#DejaVuSans-69" x="1957.027344"/>
     <use xlink:href="#DejaVuSans-6f" x="1984.810547"/>
     <use xlink:href="#DejaVuSans-6e" x="2045.992188"/>
     <use xlink:href="#DejaVuSans-69" x="2109.371094"/>
     <use xlink:href="#DejaVuSans-6e" x="2137.154297"/>
     <use xlink:href="#DejaVuSans-67" x="2200.533203"/>
     <use xlink:href="#DejaVuSans-20" x="2264.009766"/>
     <use xlink:href="#DejaVuSans-70" x="2295.796875"/>
     <use xlink:href="#DejaVuSans-72" x="2359.273438"/>
     <use xlink:href="#DejaVuSans-6f" x="2398.136719"/>
     <use xlink:href="#DejaVuSans-74" x="2459.318359"/>
     <use xlink:href="#DejaVuSans-65" x="2498.527344"/>
     <use xlink:href="#DejaVuSans-73" x="2560.050781"/>
     <use xlink:href="#DejaVuSans-74" x="2612.150391"/>
    </g>
   </g>
   <g id="legend_2">
    <g id="patch_13">
     <path d="M 49.620313 237.438125
L 128.832813 237.438125
Q 130.832813 237.438125 130.832813 235.438125
L 130.832813 207.081875
Q 130.832813 205.081875 128.832813 205.081875
L 49.620313 205.081875
Q 47.620313 205.081875 47.620313 207.081875
L 47.620313 235.438125
Q 47.620313 237.438125 49.620313 237.438125
z
" style="fill: #ffffff; opacity: 0.8; stroke: #cccccc; stroke-linejoin: miter"/>
    </g>
    <g id="line2d_28">
     <path d="M 51.620313 213.180312
L 61.620313 213.180312
L 71.620313 213.180312
" style="fill: none; stroke: #1f77b4; stroke-width: 1.5; stroke-linecap: square"/>
    </g>
    <g id="text_28">
     <!-- Actual -->
     <g transform="translate(79.620313 216.680312) scale(0.1 -0.1)">
      <use xlink:href="#DejaVuSans-41"/>
      <use xlink:href="#DejaVuSans-63" x="66.658203"/>
      <use xlink:href="#DejaVuSans-74" x="121.638672"/>
      <use xlink:href="#DejaVuSans-75" x="160.847656"/>
      <use xlink:href="#DejaVuSans-61" x="224.226562"/>
      <use xlink:href="#DejaVuSans-6c" x="285.505859"/>
     </g>
    </g>
    <g id="line2d_29">
     <path d="M 51.620313 227.858437
L 61.620313 227.858437
L 71.620313 227.858437
" style="fill: none; stroke: #ff7f0e; stroke-width: 1.5; stroke-linecap: square"/>
    </g>
    <g id="text_29">
     <!-- Synthetic -->
     <g transform="translate(79.620313 231.358437) scale(0.1 -0.1)">
      <use xlink:href="#DejaVuSans-53"/>
      <use xlink:href="#DejaVuSans-79" x="63.476562"/>
      <use xlink:href="#DejaVuSans-6e" x="122.65625"/>
      <use xlink:href="#DejaVuSans-74" x="186.035156"/>
      <use xlink:href="#DejaVuSans-68" x="225.244141"/>
      <use xlink:href="#DejaVuSans-65" x="288.623047"/>
      <use xlink:href="#DejaVuSans-74" x="350.146484"/>
      <use xlink:href="#DejaVuSans-69" x="389.355469"/>
      <use xlink:href="#DejaVuSans-63" x="417.138672"/>
     </g>
    </g>
   </g>
  </g>
 </g>
 <defs>
  <clipPath id="p24a6a42134">
   <rect x="42.620313" y="22.318125" width="374.59" height="81.52"/>
  </clipPath>
  <clipPath id="p5fbcff3497">
   <rect x="42.620313" y="160.918125" width="374.59" height="81.52"/>
  </clipPath>
 </defs>
</svg>
