<?xml version="1.0" encoding="utf-8" standalone="no"?>
<!DOCTYPE svg PUBLIC "-//W3C//DTD SVG 1.1//EN"
  "http://www.w3.org/Graphics/SVG/1.1/DTD/svg11.dtd">
<svg xmlns:xlink="http://www.w3.org/1999/xlink" width="424.172201pt" height="136.774375pt" viewBox="0 0 424.172201 136.774375" xmlns="http://www.w3.org/2000/svg" version="1.1">
 <metadata>
  <rdf:RDF xmlns:dc="http://purl.org/dc/elements/1.1/" xmlns:cc="http://creativecommons.org/ns#" xmlns:rdf="http://www.w3.org/1999/02/22-rdf-syntax-ns#">
   <cc:Work>
    <dc:type rdf:resource="http://purl.org/dc/dcmitype/StillImage"/>
    <dc:date>2023-08-19T15:41:09.448193</dc:date>
    <dc:format>image/svg+xml</dc:format>
    <dc:creator>
     <cc:Agent>
      <dc:title>Matplotlib v3.7.2, https://matplotlib.org/</dc:title>
     </cc:Agent>
    </dc:creator>
   </cc:Work>
  </rdf:RDF>
 </metadata>
 <defs>
  <style type="text/css">*{stroke-linejoin: round; stroke-linecap: butt}</style>
 </defs>
 <g id="figure_1">
  <g id="patch_1">
   <path d="M 0 136.774375
L 424.172201 136.774375
L 424.172201 0
L 0 0
z
" style="fill: #ffffff"/>
  </g>
  <g id="axes_1">
   <g id="patch_2">
    <path d="M 42.620313 99.218125
L 411.470231 99.218125
L 411.470231 22.318125
L 42.620313 22.318125
z
" style="fill: #ffffff"/>
   </g>
   <g id="matplotlib.axis_1">
    <g id="xtick_1">
     <g id="line2d_1">
      <defs>
       <path id="ma570e7304e" d="M 0 0
L 0 3.5
" style="stroke: #000000; stroke-width: 0.8"/>
      </defs>
      <g>
       <use xlink:href="#ma570e7304e" x="108.037283" y="99.218125" style="stroke: #000000; stroke-width: 0.8"/>
      </g>
     </g>
     <g id="text_1">
      <!-- −300 -->
      <g transform="translate(94.303689 113.816562) scale(0.1 -0.1)">
       <defs>
        <path id="DejaVuSans-2212" d="M 678 2272
L 4684 2272
L 4684 1741
L 678 1741
L 678 2272
z
" transform="scale(0.015625)"/>
        <path id="DejaVuSans-33" d="M 2597 2516
Q 3050 2419 3304 2112
Q 3559 1806 3559 1356
Q 3559 666 3084 287
Q 2609 -91 1734 -91
Q 1441 -91 1130 -33
Q 819 25 488 141
L 488 750
Q 750 597 1062 519
Q 1375 441 1716 441
Q 2309 441 2620 675
Q 2931 909 2931 1356
Q 2931 1769 2642 2001
Q 2353 2234 1838 2234
L 1294 2234
L 1294 2753
L 1863 2753
Q 2328 2753 2575 2939
Q 2822 3125 2822 3475
Q 2822 3834 2567 4026
Q 2313 4219 1838 4219
Q 1578 4219 1281 4162
Q 984 4106 628 3988
L 628 4550
Q 988 4650 1302 4700
Q 1616 4750 1894 4750
Q 2613 4750 3031 4423
Q 3450 4097 3450 3541
Q 3450 3153 3228 2886
Q 3006 2619 2597 2516
z
" transform="scale(0.015625)"/>
        <path id="DejaVuSans-30" d="M 2034 4250
Q 1547 4250 1301 3770
Q 1056 3291 1056 2328
Q 1056 1369 1301 889
Q 1547 409 2034 409
Q 2525 409 2770 889
Q 3016 1369 3016 2328
Q 3016 3291 2770 3770
Q 2525 4250 2034 4250
z
M 2034 4750
Q 2819 4750 3233 4129
Q 3647 3509 3647 2328
Q 3647 1150 3233 529
Q 2819 -91 2034 -91
Q 1250 -91 836 529
Q 422 1150 422 2328
Q 422 3509 836 4129
Q 1250 4750 2034 4750
z
" transform="scale(0.015625)"/>
       </defs>
       <use xlink:href="#DejaVuSans-2212"/>
       <use xlink:href="#DejaVuSans-33" x="83.789062"/>
       <use xlink:href="#DejaVuSans-30" x="147.412109"/>
       <use xlink:href="#DejaVuSans-30" x="211.035156"/>
      </g>
     </g>
    </g>
    <g id="xtick_2">
     <g id="line2d_2">
      <g>
       <use xlink:href="#ma570e7304e" x="182.885075" y="99.218125" style="stroke: #000000; stroke-width: 0.8"/>
      </g>
     </g>
     <g id="text_2">
      <!-- −200 -->
      <g transform="translate(169.151481 113.816562) scale(0.1 -0.1)">
       <defs>
        <path id="DejaVuSans-32" d="M 1228 531
L 3431 531
L 3431 0
L 469 0
L 469 531
Q 828 903 1448 1529
Q 2069 2156 2228 2338
Q 2531 2678 2651 2914
Q 2772 3150 2772 3378
Q 2772 3750 2511 3984
Q 2250 4219 1831 4219
Q 1534 4219 1204 4116
Q 875 4013 500 3803
L 500 4441
Q 881 4594 1212 4672
Q 1544 4750 1819 4750
Q 2544 4750 2975 4387
Q 3406 4025 3406 3419
Q 3406 3131 3298 2873
Q 3191 2616 2906 2266
Q 2828 2175 2409 1742
Q 1991 1309 1228 531
z
" transform="scale(0.015625)"/>
       </defs>
       <use xlink:href="#DejaVuSans-2212"/>
       <use xlink:href="#DejaVuSans-32" x="83.789062"/>
       <use xlink:href="#DejaVuSans-30" x="147.412109"/>
       <use xlink:href="#DejaVuSans-30" x="211.035156"/>
      </g>
     </g>
    </g>
    <g id="xtick_3">
     <g id="line2d_3">
      <g>
       <use xlink:href="#ma570e7304e" x="257.732867" y="99.218125" style="stroke: #000000; stroke-width: 0.8"/>
      </g>
     </g>
     <g id="text_3">
      <!-- −100 -->
      <g transform="translate(243.999273 113.816562) scale(0.1 -0.1)">
       <defs>
        <path id="DejaVuSans-31" d="M 794 531
L 1825 531
L 1825 4091
L 703 3866
L 703 4441
L 1819 4666
L 2450 4666
L 2450 531
L 3481 531
L 3481 0
L 794 0
L 794 531
z
" transform="scale(0.015625)"/>
       </defs>
       <use xlink:href="#DejaVuSans-2212"/>
       <use xlink:href="#DejaVuSans-31" x="83.789062"/>
       <use xlink:href="#DejaVuSans-30" x="147.412109"/>
       <use xlink:href="#DejaVuSans-30" x="211.035156"/>
      </g>
     </g>
    </g>
    <g id="xtick_4">
     <g id="line2d_4">
      <g>
       <use xlink:href="#ma570e7304e" x="332.580659" y="99.218125" style="stroke: #000000; stroke-width: 0.8"/>
      </g>
     </g>
     <g id="text_4">
      <!-- 0 -->
      <g transform="translate(329.399409 113.816562) scale(0.1 -0.1)">
       <use xlink:href="#DejaVuSans-30"/>
      </g>
     </g>
    </g>
    <g id="xtick_5">
     <g id="line2d_5">
      <g>
       <use xlink:href="#ma570e7304e" x="407.428451" y="99.218125" style="stroke: #000000; stroke-width: 0.8"/>
      </g>
     </g>
     <g id="text_5">
      <!-- 100 -->
      <g transform="translate(397.884701 113.816562) scale(0.1 -0.1)">
       <use xlink:href="#DejaVuSans-31"/>
       <use xlink:href="#DejaVuSans-30" x="63.623047"/>
       <use xlink:href="#DejaVuSans-30" x="127.246094"/>
      </g>
     </g>
    </g>
    <g id="text_6">
     <!-- Days since protest -->
     <g transform="translate(180.622616 127.494687) scale(0.1 -0.1)">
      <defs>
       <path id="DejaVuSans-44" d="M 1259 4147
L 1259 519
L 2022 519
Q 2988 519 3436 956
Q 3884 1394 3884 2338
Q 3884 3275 3436 3711
Q 2988 4147 2022 4147
L 1259 4147
z
M 628 4666
L 1925 4666
Q 3281 4666 3915 4102
Q 4550 3538 4550 2338
Q 4550 1131 3912 565
Q 3275 0 1925 0
L 628 0
L 628 4666
z
" transform="scale(0.015625)"/>
       <path id="DejaVuSans-61" d="M 2194 1759
Q 1497 1759 1228 1600
Q 959 1441 959 1056
Q 959 750 1161 570
Q 1363 391 1709 391
Q 2188 391 2477 730
Q 2766 1069 2766 1631
L 2766 1759
L 2194 1759
z
M 3341 1997
L 3341 0
L 2766 0
L 2766 531
Q 2569 213 2275 61
Q 1981 -91 1556 -91
Q 1019 -91 701 211
Q 384 513 384 1019
Q 384 1609 779 1909
Q 1175 2209 1959 2209
L 2766 2209
L 2766 2266
Q 2766 2663 2505 2880
Q 2244 3097 1772 3097
Q 1472 3097 1187 3025
Q 903 2953 641 2809
L 641 3341
Q 956 3463 1253 3523
Q 1550 3584 1831 3584
Q 2591 3584 2966 3190
Q 3341 2797 3341 1997
z
" transform="scale(0.015625)"/>
       <path id="DejaVuSans-79" d="M 2059 -325
Q 1816 -950 1584 -1140
Q 1353 -1331 966 -1331
L 506 -1331
L 506 -850
L 844 -850
Q 1081 -850 1212 -737
Q 1344 -625 1503 -206
L 1606 56
L 191 3500
L 800 3500
L 1894 763
L 2988 3500
L 3597 3500
L 2059 -325
z
" transform="scale(0.015625)"/>
       <path id="DejaVuSans-73" d="M 2834 3397
L 2834 2853
Q 2591 2978 2328 3040
Q 2066 3103 1784 3103
Q 1356 3103 1142 2972
Q 928 2841 928 2578
Q 928 2378 1081 2264
Q 1234 2150 1697 2047
L 1894 2003
Q 2506 1872 2764 1633
Q 3022 1394 3022 966
Q 3022 478 2636 193
Q 2250 -91 1575 -91
Q 1294 -91 989 -36
Q 684 19 347 128
L 347 722
Q 666 556 975 473
Q 1284 391 1588 391
Q 1994 391 2212 530
Q 2431 669 2431 922
Q 2431 1156 2273 1281
Q 2116 1406 1581 1522
L 1381 1569
Q 847 1681 609 1914
Q 372 2147 372 2553
Q 372 3047 722 3315
Q 1072 3584 1716 3584
Q 2034 3584 2315 3537
Q 2597 3491 2834 3397
z
" transform="scale(0.015625)"/>
       <path id="DejaVuSans-20" transform="scale(0.015625)"/>
       <path id="DejaVuSans-69" d="M 603 3500
L 1178 3500
L 1178 0
L 603 0
L 603 3500
z
M 603 4863
L 1178 4863
L 1178 4134
L 603 4134
L 603 4863
z
" transform="scale(0.015625)"/>
       <path id="DejaVuSans-6e" d="M 3513 2113
L 3513 0
L 2938 0
L 2938 2094
Q 2938 2591 2744 2837
Q 2550 3084 2163 3084
Q 1697 3084 1428 2787
Q 1159 2491 1159 1978
L 1159 0
L 581 0
L 581 3500
L 1159 3500
L 1159 2956
Q 1366 3272 1645 3428
Q 1925 3584 2291 3584
Q 2894 3584 3203 3211
Q 3513 2838 3513 2113
z
" transform="scale(0.015625)"/>
       <path id="DejaVuSans-63" d="M 3122 3366
L 3122 2828
Q 2878 2963 2633 3030
Q 2388 3097 2138 3097
Q 1578 3097 1268 2742
Q 959 2388 959 1747
Q 959 1106 1268 751
Q 1578 397 2138 397
Q 2388 397 2633 464
Q 2878 531 3122 666
L 3122 134
Q 2881 22 2623 -34
Q 2366 -91 2075 -91
Q 1284 -91 818 406
Q 353 903 353 1747
Q 353 2603 823 3093
Q 1294 3584 2113 3584
Q 2378 3584 2631 3529
Q 2884 3475 3122 3366
z
" transform="scale(0.015625)"/>
       <path id="DejaVuSans-65" d="M 3597 1894
L 3597 1613
L 953 1613
Q 991 1019 1311 708
Q 1631 397 2203 397
Q 2534 397 2845 478
Q 3156 559 3463 722
L 3463 178
Q 3153 47 2828 -22
Q 2503 -91 2169 -91
Q 1331 -91 842 396
Q 353 884 353 1716
Q 353 2575 817 3079
Q 1281 3584 2069 3584
Q 2775 3584 3186 3129
Q 3597 2675 3597 1894
z
M 3022 2063
Q 3016 2534 2758 2815
Q 2500 3097 2075 3097
Q 1594 3097 1305 2825
Q 1016 2553 972 2059
L 3022 2063
z
" transform="scale(0.015625)"/>
       <path id="DejaVuSans-70" d="M 1159 525
L 1159 -1331
L 581 -1331
L 581 3500
L 1159 3500
L 1159 2969
Q 1341 3281 1617 3432
Q 1894 3584 2278 3584
Q 2916 3584 3314 3078
Q 3713 2572 3713 1747
Q 3713 922 3314 415
Q 2916 -91 2278 -91
Q 1894 -91 1617 61
Q 1341 213 1159 525
z
M 3116 1747
Q 3116 2381 2855 2742
Q 2594 3103 2138 3103
Q 1681 3103 1420 2742
Q 1159 2381 1159 1747
Q 1159 1113 1420 752
Q 1681 391 2138 391
Q 2594 391 2855 752
Q 3116 1113 3116 1747
z
" transform="scale(0.015625)"/>
       <path id="DejaVuSans-72" d="M 2631 2963
Q 2534 3019 2420 3045
Q 2306 3072 2169 3072
Q 1681 3072 1420 2755
Q 1159 2438 1159 1844
L 1159 0
L 581 0
L 581 3500
L 1159 3500
L 1159 2956
Q 1341 3275 1631 3429
Q 1922 3584 2338 3584
Q 2397 3584 2469 3576
Q 2541 3569 2628 3553
L 2631 2963
z
" transform="scale(0.015625)"/>
       <path id="DejaVuSans-6f" d="M 1959 3097
Q 1497 3097 1228 2736
Q 959 2375 959 1747
Q 959 1119 1226 758
Q 1494 397 1959 397
Q 2419 397 2687 759
Q 2956 1122 2956 1747
Q 2956 2369 2687 2733
Q 2419 3097 1959 3097
z
M 1959 3584
Q 2709 3584 3137 3096
Q 3566 2609 3566 1747
Q 3566 888 3137 398
Q 2709 -91 1959 -91
Q 1206 -91 779 398
Q 353 888 353 1747
Q 353 2609 779 3096
Q 1206 3584 1959 3584
z
" transform="scale(0.015625)"/>
       <path id="DejaVuSans-74" d="M 1172 4494
L 1172 3500
L 2356 3500
L 2356 3053
L 1172 3053
L 1172 1153
Q 1172 725 1289 603
Q 1406 481 1766 481
L 2356 481
L 2356 0
L 1766 0
Q 1100 0 847 248
Q 594 497 594 1153
L 594 3053
L 172 3053
L 172 3500
L 594 3500
L 594 4494
L 1172 4494
z
" transform="scale(0.015625)"/>
      </defs>
      <use xlink:href="#DejaVuSans-44"/>
      <use xlink:href="#DejaVuSans-61" x="77.001953"/>
      <use xlink:href="#DejaVuSans-79" x="138.28125"/>
      <use xlink:href="#DejaVuSans-73" x="197.460938"/>
      <use xlink:href="#DejaVuSans-20" x="249.560547"/>
      <use xlink:href="#DejaVuSans-73" x="281.347656"/>
      <use xlink:href="#DejaVuSans-69" x="333.447266"/>
      <use xlink:href="#DejaVuSans-6e" x="361.230469"/>
      <use xlink:href="#DejaVuSans-63" x="424.609375"/>
      <use xlink:href="#DejaVuSans-65" x="479.589844"/>
      <use xlink:href="#DejaVuSans-20" x="541.113281"/>
      <use xlink:href="#DejaVuSans-70" x="572.900391"/>
      <use xlink:href="#DejaVuSans-72" x="636.376953"/>
      <use xlink:href="#DejaVuSans-6f" x="675.240234"/>
      <use xlink:href="#DejaVuSans-74" x="736.421875"/>
      <use xlink:href="#DejaVuSans-65" x="775.630859"/>
      <use xlink:href="#DejaVuSans-73" x="837.154297"/>
      <use xlink:href="#DejaVuSans-74" x="889.253906"/>
     </g>
    </g>
   </g>
   <g id="matplotlib.axis_2">
    <g id="ytick_1">
     <g id="line2d_6">
      <defs>
       <path id="m406ebe13f0" d="M 0 0
L -3.5 0
" style="stroke: #000000; stroke-width: 0.8"/>
      </defs>
      <g>
       <use xlink:href="#m406ebe13f0" x="42.620313" y="92.958939" style="stroke: #000000; stroke-width: 0.8"/>
      </g>
     </g>
     <g id="text_7">
      <!-- −2 -->
      <g transform="translate(20.878125 96.758158) scale(0.1 -0.1)">
       <use xlink:href="#DejaVuSans-2212"/>
       <use xlink:href="#DejaVuSans-32" x="83.789062"/>
      </g>
     </g>
    </g>
    <g id="ytick_2">
     <g id="line2d_7">
      <g>
       <use xlink:href="#m406ebe13f0" x="42.620313" y="61.281957" style="stroke: #000000; stroke-width: 0.8"/>
      </g>
     </g>
     <g id="text_8">
      <!-- 0 -->
      <g transform="translate(29.257813 65.081176) scale(0.1 -0.1)">
       <use xlink:href="#DejaVuSans-30"/>
      </g>
     </g>
    </g>
    <g id="ytick_3">
     <g id="line2d_8">
      <g>
       <use xlink:href="#m406ebe13f0" x="42.620313" y="29.604975" style="stroke: #000000; stroke-width: 0.8"/>
      </g>
     </g>
     <g id="text_9">
      <!-- 2 -->
      <g transform="translate(29.257813 33.404193) scale(0.1 -0.1)">
       <use xlink:href="#DejaVuSans-32"/>
      </g>
     </g>
    </g>
    <g id="text_10">
     <!-- #articles -->
     <g transform="translate(14.798438 83.24625) rotate(-90) scale(0.1 -0.1)">
      <defs>
       <path id="DejaVuSans-23" d="M 3272 2816
L 2363 2816
L 2100 1772
L 3016 1772
L 3272 2816
z
M 2803 4594
L 2478 3297
L 3391 3297
L 3719 4594
L 4219 4594
L 3897 3297
L 4872 3297
L 4872 2816
L 3775 2816
L 3519 1772
L 4513 1772
L 4513 1294
L 3397 1294
L 3072 0
L 2572 0
L 2894 1294
L 1978 1294
L 1656 0
L 1153 0
L 1478 1294
L 494 1294
L 494 1772
L 1594 1772
L 1856 2816
L 850 2816
L 850 3297
L 1978 3297
L 2297 4594
L 2803 4594
z
" transform="scale(0.015625)"/>
       <path id="DejaVuSans-6c" d="M 603 4863
L 1178 4863
L 1178 0
L 603 0
L 603 4863
z
" transform="scale(0.015625)"/>
      </defs>
      <use xlink:href="#DejaVuSans-23"/>
      <use xlink:href="#DejaVuSans-61" x="83.789062"/>
      <use xlink:href="#DejaVuSans-72" x="145.068359"/>
      <use xlink:href="#DejaVuSans-74" x="186.181641"/>
      <use xlink:href="#DejaVuSans-69" x="225.390625"/>
      <use xlink:href="#DejaVuSans-63" x="253.173828"/>
      <use xlink:href="#DejaVuSans-6c" x="308.154297"/>
      <use xlink:href="#DejaVuSans-65" x="335.9375"/>
      <use xlink:href="#DejaVuSans-73" x="397.460938"/>
     </g>
    </g>
   </g>
   <g id="line2d_9">
    <path d="M 59.386218 39.781834
L 60.134696 36.807381
L 60.883174 34.9859
L 61.631652 34.899292
L 62.38013 35.202421
L 63.877085 37.229596
L 65.374041 45.018929
L 66.122519 48.190958
L 66.870997 49.222138
L 67.619475 48.981259
L 68.367953 47.587407
L 69.116431 48.015035
L 69.864909 47.092115
L 70.613387 47.698373
L 71.361865 47.898655
L 72.110343 46.572466
L 72.85882 46.207087
L 74.355776 49.100345
L 75.104254 48.910889
L 75.852732 50.375111
L 78.098166 56.118323
L 78.846644 57.696218
L 79.595122 56.370028
L 80.3436 56.353789
L 81.840555 51.560562
L 82.589033 51.471247
L 83.337511 49.915004
L 84.085989 46.44526
L 84.834467 45.765926
L 85.582945 46.49939
L 86.331423 47.695667
L 87.079901 47.839112
L 87.828379 47.081289
L 88.576857 47.92572
L 89.325335 49.863581
L 90.073813 50.431948
L 90.822291 48.036687
L 91.570768 47.338408
L 92.319246 46.355945
L 93.067724 47.205789
L 93.816202 47.173311
L 94.56468 47.016333
L 95.313158 46.215206
L 96.061636 48.488674
L 97.558592 47.587407
L 98.30707 45.313939
L 99.055548 45.376189
L 100.552503 46.604944
L 101.300981 47.76333
L 102.049459 49.143649
L 103.546415 52.908403
L 104.294893 53.122218
L 105.791849 51.292617
L 107.288805 46.077174
L 108.037283 44.37478
L 108.785761 44.526345
L 109.534239 45.422199
L 110.282716 44.518225
L 111.031194 45.711796
L 111.779672 48.136828
L 112.52815 52.404993
L 113.276628 56.001943
L 114.025106 56.646092
L 114.773584 57.022297
L 115.522062 58.575833
L 116.27054 59.295765
L 117.019018 58.340367
L 117.767496 56.348376
L 118.515974 53.920638
L 120.012929 50.675533
L 120.761407 50.120699
L 121.509885 48.851346
L 123.006841 48.280273
L 123.755319 47.982557
L 124.503797 48.082698
L 125.252275 47.419603
L 126.000753 47.029866
L 126.749231 44.989158
L 127.497709 43.806413
L 128.246187 43.070243
L 128.994664 42.620962
L 129.743142 41.256882
L 130.49162 38.452938
L 131.240098 36.571915
L 131.988576 37.502954
L 132.737054 37.887278
L 133.485532 37.965767
L 134.23401 38.720883
L 134.982488 39.846791
L 135.730966 42.786059
L 136.479444 43.527643
L 137.976399 42.580365
L 138.724877 43.167677
L 139.473355 42.344898
L 140.221833 40.677689
L 141.718789 34.122524
L 143.964223 28.579593
L 144.712701 29.475448
L 145.461179 31.543221
L 146.958135 38.723589
L 147.706612 41.202752
L 148.45509 43.167677
L 149.203568 43.622371
L 149.952046 43.833478
L 150.700524 42.315127
L 151.449002 41.075546
L 152.19748 41.933509
L 152.945958 44.997277
L 153.694436 47.332995
L 154.442914 51.687768
L 155.191392 54.559374
L 156.688347 58.965571
L 157.436825 59.228102
L 158.185303 56.924863
L 158.933781 54.191289
L 160.430737 46.518335
L 161.179215 45.208385
L 161.927693 44.539877
L 162.676171 44.442443
L 164.173127 42.748168
L 164.921605 43.773935
L 165.670082 43.654849
L 166.41856 43.779348
L 167.167038 42.859135
L 167.915516 42.488343
L 168.663994 42.972809
L 169.412472 45.822763
L 170.16095 46.981148
L 170.909428 47.847231
L 171.657906 47.806634
L 172.406384 47.5847
L 173.90334 50.946184
L 174.651818 50.629523
L 175.400295 53.005838
L 176.148773 54.348266
L 176.897251 55.352381
L 177.645729 57.141384
L 179.142685 57.501349
L 179.891163 58.80318
L 180.639641 57.885674
L 181.388119 58.2294
L 183.633553 58.375552
L 184.38203 58.830245
L 185.130508 60.140196
L 185.878986 62.042872
L 186.627464 63.231029
L 187.375942 66.738665
L 190.369854 78.260274
L 191.118332 79.399714
L 191.86681 81.361933
L 192.615288 81.072337
L 193.363766 79.459257
L 196.357677 70.857972
L 197.106155 69.466826
L 197.854633 67.688649
L 198.603111 66.974131
L 199.351589 68.024257
L 200.848545 67.653465
L 201.597023 68.470831
L 202.345501 67.718421
L 203.093978 66.316449
L 203.842456 68.016137
L 204.590934 67.79691
L 205.339412 68.056735
L 206.08789 66.313743
L 206.836368 66.289384
L 207.584846 66.045798
L 208.333324 67.252901
L 209.83028 66.1297
L 210.578758 65.837397
L 212.075714 69.101447
L 212.824191 71.951401
L 213.572669 72.847256
L 214.321147 72.877027
L 215.069625 73.905501
L 215.818103 73.245113
L 216.566581 71.485882
L 218.063537 64.240557
L 218.812015 62.665369
L 219.560493 60.575944
L 220.308971 59.184798
L 221.057449 58.348487
L 221.805926 57.882967
L 222.554404 59.653024
L 223.302882 60.316119
L 224.05136 59.755871
L 224.799838 60.180793
L 225.548316 58.52441
L 227.045272 58.881669
L 227.79375 57.146797
L 228.542228 55.934281
L 229.290706 56.080432
L 230.039184 55.033013
L 230.787662 54.762362
L 231.536139 53.94229
L 233.781573 52.342743
L 234.530051 52.1587
L 236.027007 54.781308
L 236.775485 57.111612
L 237.523963 58.670561
L 238.272441 61.634189
L 239.020919 63.063225
L 239.769397 64.232437
L 240.517874 63.737146
L 242.01483 62.308109
L 242.763308 62.262099
L 243.511786 61.033344
L 244.260264 61.994154
L 245.008742 60.903431
L 245.75722 61.022518
L 246.505698 60.678791
L 247.254176 59.263287
L 248.002654 59.839773
L 248.751132 59.468981
L 249.49961 59.661144
L 250.248087 61.571939
L 250.996565 63.15254
L 251.745043 65.918593
L 252.493521 70.381626
L 253.241999 72.362791
L 253.990477 75.745927
L 254.738955 75.862307
L 255.487433 76.519989
L 256.235911 78.279219
L 256.984389 79.710963
L 257.732867 78.936901
L 258.481345 79.494442
L 259.229822 79.86794
L 259.9783 82.734133
L 260.726778 83.87628
L 261.475256 84.699059
L 262.223734 84.991362
L 262.972212 86.544898
L 265.217646 90.052534
L 265.966124 91.067475
L 266.714602 91.746809
L 267.46308 92.87001
L 268.211557 92.593946
L 268.960035 92.899781
L 269.708513 93.868712
L 270.456991 94.155602
L 271.205469 95.054163
L 271.953947 95.671247
L 272.702425 95.72267
L 273.450903 94.937783
L 274.199381 92.510044
L 274.947859 89.43545
L 275.696337 86.953581
L 277.193293 84.04679
L 277.94177 83.045382
L 279.438726 83.681412
L 280.187204 84.866863
L 280.935682 85.172698
L 281.68416 84.141518
L 283.181116 81.348401
L 283.929594 80.330753
L 284.678072 81.061511
L 285.42655 79.686604
L 286.175028 78.027514
L 286.923505 79.050575
L 289.168939 85.578674
L 289.917417 85.751891
L 290.665895 86.57467
L 291.414373 88.75341
L 292.162851 88.991582
L 292.911329 89.045713
L 293.659807 88.34202
L 294.408285 86.217411
L 295.156763 85.841206
L 295.905241 86.149748
L 296.653718 85.703174
L 297.402196 85.619272
L 298.150674 83.226718
L 298.899152 81.803094
L 299.64763 81.402531
L 300.396108 80.374057
L 301.144586 78.847586
L 301.893064 78.000449
L 302.641542 77.829939
L 303.39002 78.806989
L 304.138498 80.698839
L 304.886976 81.740845
L 305.635453 82.422885
L 306.383931 82.715188
L 307.132409 82.463482
L 307.880887 80.820631
L 308.629365 81.261792
L 309.377843 79.421366
L 310.126321 78.747446
L 310.874799 77.091062
L 311.623277 77.088355
L 312.371755 77.318409
L 313.120233 77.158725
L 313.868711 76.55788
L 314.617189 76.988215
L 316.114144 76.384663
L 317.6111 72.939277
L 318.359578 72.592844
L 319.856534 70.278779
L 320.605012 70.032486
L 321.35349 71.594142
L 322.101968 72.205813
L 322.850446 71.908097
L 323.598924 71.472349
L 324.347401 70.443876
L 325.095879 69.217827
L 325.844357 69.166403
L 326.592835 68.02967
L 327.341313 67.269141
L 328.838269 67.258314
L 329.586747 66.88211
L 330.335225 65.084988
L 331.832181 54.778601
L 332.580659 46.461499
L 333.329137 40.250663
L 334.077614 37.061287
L 334.826092 35.343305
L 335.57457 35.795834
L 336.323048 37.616786
L 337.071526 40.567704
L 337.820004 46.867874
L 338.568482 51.970334
L 339.31696 52.067885
L 340.065438 53.308934
L 340.813916 54.286137
L 341.562394 54.942126
L 342.310872 54.512105
L 343.059349 55.444888
L 343.807827 55.906022
L 344.556305 58.176498
L 345.304783 57.385387
L 346.053261 55.68763
L 346.801739 54.581143
L 349.047173 56.401935
L 349.795651 55.78851
L 350.544129 56.333988
L 351.292607 58.539675
L 352.041085 58.700736
L 352.789562 57.690072
L 353.53804 56.881585
L 354.286518 56.483308
L 355.034996 57.074684
L 355.783474 58.852675
L 356.531952 59.458488
L 357.28043 62.279042
L 358.028908 63.405368
L 358.777386 61.974995
L 359.525864 61.73801
L 360.274342 61.979976
L 361.02282 61.587344
L 361.771297 61.385526
L 362.519775 59.972412
L 363.268253 60.654131
L 364.016731 62.32119
L 364.765209 61.813948
L 365.513687 62.737243
L 367.010643 63.948354
L 367.759121 65.028381
L 368.507599 65.735744
L 369.256077 65.713292
L 370.753032 67.844957
L 371.50151 68.32814
L 372.249988 70.61014
L 372.998466 71.950254
L 375.2439 80.914849
L 375.992378 81.39946
L 376.740856 82.857067
L 377.489334 80.125706
L 378.237812 80.625592
L 378.98629 78.757719
L 379.734768 77.415375
L 380.483245 75.275685
L 381.231723 74.872908
L 381.980201 73.927195
L 382.728679 74.75753
L 383.477157 72.52889
L 384.225635 71.705577
L 384.974113 71.382343
L 385.722591 72.441804
L 386.471069 71.593194
L 387.219547 70.984467
L 387.968025 70.806318
L 388.716503 72.09157
L 389.46498 71.809562
L 390.213458 72.881025
L 390.961936 73.216061
L 391.710414 74.146325
L 393.20737 75.327582
L 393.955848 74.872199
L 394.704326 75.286315
L 394.704326 75.286315
" clip-path="url(#p06c9ef2776)" style="fill: none; stroke: #1f77b4; stroke-width: 1.5; stroke-linecap: square"/>
   </g>
   <g id="line2d_10">
    <path d="M 59.386218 47.529029
L 60.134696 44.054959
L 60.883174 39.331569
L 61.631652 39.506806
L 62.38013 40.744958
L 63.128607 39.974196
L 63.877085 41.264003
L 64.625563 41.471335
L 65.374041 42.715408
L 66.122519 46.662192
L 66.870997 47.466679
L 67.619475 45.944909
L 68.367953 47.77659
L 69.116431 46.713843
L 69.864909 46.027403
L 70.613387 46.566026
L 71.361865 46.051026
L 72.85882 44.209591
L 73.607298 42.96865
L 74.355776 45.003395
L 75.104254 46.161826
L 75.852732 48.808261
L 77.349688 52.478191
L 78.098166 55.685446
L 78.846644 57.610192
L 79.595122 57.60678
L 80.3436 57.076284
L 81.092078 54.688964
L 81.840555 53.482274
L 82.589033 53.387126
L 83.337511 52.455455
L 84.834467 49.177767
L 85.582945 50.091436
L 86.331423 49.897184
L 87.079901 50.905072
L 87.828379 49.934757
L 88.576857 50.263965
L 89.325335 51.036193
L 90.073813 50.16167
L 90.822291 48.126182
L 91.570768 48.911161
L 92.319246 48.050017
L 93.067724 48.969491
L 93.816202 48.177973
L 94.56468 48.245178
L 95.313158 48.697644
L 96.061636 50.910208
L 96.810114 49.626951
L 97.558592 48.087762
L 98.30707 46.990786
L 99.055548 47.284407
L 99.804026 47.00452
L 101.300981 45.992552
L 102.049459 46.952565
L 102.797937 48.102812
L 103.546415 47.980701
L 104.294893 47.139693
L 105.043371 45.992761
L 105.791849 46.34984
L 107.288805 43.876422
L 108.037283 43.21388
L 108.785761 43.035531
L 109.534239 43.055054
L 110.282716 43.445686
L 111.031194 43.646119
L 111.779672 45.789084
L 112.52815 49.424311
L 113.276628 52.0928
L 114.025106 53.839612
L 114.773584 54.602948
L 115.522062 55.163633
L 116.27054 55.45674
L 117.019018 55.476054
L 117.767496 52.462775
L 118.515974 49.959079
L 119.264451 49.140579
L 120.012929 49.070227
L 120.761407 48.528252
L 121.509885 46.641447
L 122.258363 46.090035
L 123.006841 47.548458
L 123.755319 48.275994
L 124.503797 46.409081
L 125.252275 45.166037
L 126.000753 44.627678
L 126.749231 44.692137
L 127.497709 43.509567
L 128.246187 41.13154
L 128.994664 39.892299
L 129.743142 37.784053
L 130.49162 36.028451
L 131.240098 35.130463
L 131.988576 34.625432
L 132.737054 33.795134
L 133.485532 35.338018
L 134.23401 36.401962
L 134.982488 38.924458
L 135.730966 42.204475
L 136.479444 43.120686
L 137.227922 44.578074
L 137.976399 45.180494
L 138.724877 45.419652
L 139.473355 43.7465
L 140.221833 42.461758
L 141.718789 34.119489
L 143.215745 29.094294
L 143.964223 25.81358
L 144.712701 26.896827
L 145.461179 28.342778
L 146.209657 30.779559
L 146.958135 36.094698
L 149.203568 46.905258
L 149.952046 48.226277
L 151.449002 49.350809
L 152.19748 48.747988
L 152.945958 49.396551
L 153.694436 48.939505
L 154.442914 50.464622
L 155.191392 51.1054
L 155.93987 51.433566
L 156.688347 53.426771
L 157.436825 53.40111
L 158.185303 50.164293
L 158.933781 49.814579
L 159.682259 47.510057
L 160.430737 44.439424
L 161.927693 42.419082
L 162.676171 41.327232
L 163.424649 41.688282
L 164.173127 39.893284
L 164.921605 41.751631
L 165.670082 42.905331
L 166.41856 43.301556
L 167.167038 43.216179
L 167.915516 44.875798
L 168.663994 46.107619
L 169.412472 48.460036
L 170.16095 49.873328
L 171.657906 50.935542
L 172.406384 49.979606
L 173.154862 49.891847
L 174.651818 54.310606
L 175.400295 53.993126
L 176.148773 55.497342
L 176.897251 56.357218
L 177.645729 58.233995
L 178.394207 59.716081
L 179.891163 57.053825
L 181.388119 57.319559
L 182.885075 55.25834
L 183.633553 54.381349
L 184.38203 54.64927
L 185.130508 56.733304
L 187.375942 66.342187
L 188.872898 75.608432
L 189.621376 78.492085
L 190.369854 80.104566
L 191.118332 80.954958
L 191.86681 81.083686
L 192.615288 80.860702
L 193.363766 80.325782
L 194.112243 78.417492
L 194.860721 75.99527
L 195.609199 74.105109
L 196.357677 71.58752
L 197.106155 70.632024
L 198.603111 68.304355
L 199.351589 66.240534
L 200.100067 67.642297
L 200.848545 68.078973
L 201.597023 68.216966
L 202.345501 68.761697
L 203.093978 67.831241
L 203.842456 68.936355
L 204.590934 72.393102
L 205.339412 72.148874
L 206.08789 69.801841
L 206.836368 69.380958
L 207.584846 67.18665
L 208.333324 67.137152
L 209.081802 65.794845
L 209.83028 62.750183
L 210.578758 62.255666
L 213.572669 69.966202
L 214.321147 70.305748
L 215.069625 71.591482
L 215.818103 71.757166
L 216.566581 69.804301
L 217.315059 66.694345
L 218.063537 64.900465
L 219.560493 60.324252
L 220.308971 59.347312
L 221.805926 58.576717
L 222.554404 58.635329
L 223.302882 58.563108
L 224.05136 59.258292
L 224.799838 58.870041
L 225.548316 57.904397
L 226.296794 56.223215
L 227.045272 56.811955
L 227.79375 56.122369
L 228.542228 53.821331
L 229.290706 52.844361
L 230.787662 51.336236
L 231.536139 51.183032
L 233.033095 52.3212
L 233.781573 53.894481
L 234.530051 55.205523
L 236.027007 57.065771
L 236.775485 58.675506
L 237.523963 60.733345
L 238.272441 63.248747
L 239.020919 64.389745
L 239.769397 64.163064
L 240.517874 65.652759
L 241.266352 64.772691
L 242.01483 66.070825
L 242.763308 65.39409
L 243.511786 63.511379
L 244.260264 62.987074
L 245.008742 62.924563
L 245.75722 62.24125
L 246.505698 63.265107
L 247.254176 60.986466
L 248.002654 60.310063
L 248.751132 60.250468
L 249.49961 61.554437
L 250.248087 63.454422
L 250.996565 63.815532
L 251.745043 64.446546
L 252.493521 66.844065
L 253.990477 72.541616
L 254.738955 73.362369
L 255.487433 74.926122
L 256.235911 77.740736
L 256.984389 79.560243
L 257.732867 80.361253
L 258.481345 80.098377
L 259.9783 84.179054
L 260.726778 84.336517
L 261.475256 85.54835
L 262.223734 88.229294
L 262.972212 89.209749
L 263.72069 91.726789
L 264.469168 91.425709
L 265.217646 92.584436
L 265.966124 93.527156
L 268.960035 90.512022
L 270.456991 90.400444
L 271.205469 90.573098
L 271.953947 91.864867
L 273.450903 92.169582
L 274.199381 89.077378
L 274.947859 88.045833
L 276.444815 82.861213
L 277.94177 79.18644
L 278.690248 77.968336
L 279.438726 77.391024
L 280.187204 77.544408
L 280.935682 77.383389
L 281.68416 77.887498
L 282.432638 76.602312
L 283.181116 76.539282
L 283.929594 77.177147
L 284.678072 78.966857
L 285.42655 77.69746
L 286.175028 77.776479
L 286.923505 78.703976
L 288.420461 83.599794
L 289.168939 84.81994
L 289.917417 85.709414
L 290.665895 87.299343
L 291.414373 88.218794
L 292.162851 88.12484
L 292.911329 88.424488
L 293.659807 87.566554
L 294.408285 87.836231
L 295.156763 87.11343
L 295.905241 87.828504
L 296.653718 87.961752
L 297.402196 86.843259
L 298.150674 83.996461
L 298.899152 82.706757
L 300.396108 78.895503
L 301.144586 78.113067
L 301.893064 77.819278
L 302.641542 78.347388
L 303.39002 79.949489
L 304.886976 83.692434
L 305.635453 83.948065
L 307.132409 81.372277
L 307.880887 80.518612
L 308.629365 80.090785
L 309.377843 78.365083
L 310.126321 77.391192
L 311.623277 77.570657
L 312.371755 77.620138
L 313.120233 77.260139
L 313.868711 77.027836
L 314.617189 77.244484
L 315.365666 77.772586
L 316.114144 77.448744
L 317.6111 77.942917
L 318.359578 78.322046
L 319.108056 78.282762
L 320.605012 76.56168
L 321.35349 77.262544
L 322.850446 75.172502
L 324.347401 74.611669
L 325.095879 75.094604
L 325.844357 74.85597
L 326.592835 73.92219
L 327.341313 74.124942
L 328.089791 75.282631
L 329.586747 74.852218
L 330.335225 73.08146
L 333.329137 57.739845
L 334.077614 56.465525
L 334.826092 55.428357
L 335.57457 54.738603
L 336.323048 55.388149
L 337.071526 57.250509
L 337.820004 59.856085
L 338.568482 61.569963
L 339.31696 61.210462
L 340.065438 59.950305
L 340.813916 60.59369
L 341.562394 62.253137
L 342.310872 62.345684
L 343.807827 64.653384
L 344.556305 64.297646
L 345.304783 65.101073
L 346.053261 63.146042
L 346.801739 61.556288
L 347.550217 61.82672
L 348.298695 62.481357
L 349.047173 62.653509
L 349.795651 63.609789
L 350.544129 64.1467
L 352.041085 70.055106
L 352.789562 69.437336
L 354.286518 69.512166
L 355.034996 68.816874
L 355.783474 69.5673
L 356.531952 69.858839
L 357.28043 70.356536
L 358.028908 73.384022
L 358.777386 74.167397
L 359.525864 74.412583
L 360.274342 75.755753
L 361.02282 75.961853
L 361.771297 75.045003
L 362.519775 73.412027
L 364.765209 71.140729
L 365.513687 73.150766
L 366.262165 72.768545
L 367.010643 73.693218
L 367.759121 75.793942
L 368.507599 76.995227
L 369.256077 77.251555
L 370.004555 77.951065
L 370.753032 76.855141
L 371.50151 78.078083
L 372.249988 80.070183
L 372.998466 81.196009
L 373.746944 81.095928
L 374.495422 82.82684
L 375.2439 85.253237
L 375.992378 86.359614
L 376.740856 87.094462
L 377.489334 85.119081
L 378.237812 84.978246
L 378.98629 85.227351
L 380.483245 81.56385
L 381.231723 81.531291
L 381.980201 81.103574
L 382.728679 79.548874
L 383.477157 79.309213
L 384.225635 77.566321
L 384.974113 78.106738
L 385.722591 80.262051
L 386.471069 79.573648
L 387.219547 79.13726
L 387.968025 80.794116
L 389.46498 80.852562
L 390.961936 79.027721
L 391.710414 79.908452
L 393.20737 79.897897
L 393.955848 79.601598
L 394.704326 79.91395
L 394.704326 79.91395
" clip-path="url(#p06c9ef2776)" style="fill: none; stroke: #ff7f0e; stroke-width: 1.5; stroke-linecap: square"/>
   </g>
   <g id="line2d_11">
    <path d="M 332.580659 99.218125
L 332.580659 22.318125
" clip-path="url(#p06c9ef2776)" style="fill: none; stroke-dasharray: 5.55,2.4; stroke-dashoffset: 0; stroke: #000000; stroke-width: 1.5"/>
   </g>
   <g id="patch_3">
    <path d="M 42.620313 99.218125
L 42.620313 22.318125
" style="fill: none; stroke: #000000; stroke-width: 0.8; stroke-linejoin: miter; stroke-linecap: square"/>
   </g>
   <g id="patch_4">
    <path d="M 411.470231 99.218125
L 411.470231 22.318125
" style="fill: none; stroke: #000000; stroke-width: 0.8; stroke-linejoin: miter; stroke-linecap: square"/>
   </g>
   <g id="patch_5">
    <path d="M 42.620313 99.218125
L 411.470231 99.218125
" style="fill: none; stroke: #000000; stroke-width: 0.8; stroke-linejoin: miter; stroke-linecap: square"/>
   </g>
   <g id="patch_6">
    <path d="M 42.620313 22.318125
L 411.470231 22.318125
" style="fill: none; stroke: #000000; stroke-width: 0.8; stroke-linejoin: miter; stroke-linecap: square"/>
   </g>
   <g id="text_11">
    <!-- Synthetic control for articles mentioning protest -->
    <g transform="translate(82.749022 16.318125) scale(0.12 -0.12)">
     <defs>
      <path id="DejaVuSans-53" d="M 3425 4513
L 3425 3897
Q 3066 4069 2747 4153
Q 2428 4238 2131 4238
Q 1616 4238 1336 4038
Q 1056 3838 1056 3469
Q 1056 3159 1242 3001
Q 1428 2844 1947 2747
L 2328 2669
Q 3034 2534 3370 2195
Q 3706 1856 3706 1288
Q 3706 609 3251 259
Q 2797 -91 1919 -91
Q 1588 -91 1214 -16
Q 841 59 441 206
L 441 856
Q 825 641 1194 531
Q 1563 422 1919 422
Q 2459 422 2753 634
Q 3047 847 3047 1241
Q 3047 1584 2836 1778
Q 2625 1972 2144 2069
L 1759 2144
Q 1053 2284 737 2584
Q 422 2884 422 3419
Q 422 4038 858 4394
Q 1294 4750 2059 4750
Q 2388 4750 2728 4690
Q 3069 4631 3425 4513
z
" transform="scale(0.015625)"/>
      <path id="DejaVuSans-68" d="M 3513 2113
L 3513 0
L 2938 0
L 2938 2094
Q 2938 2591 2744 2837
Q 2550 3084 2163 3084
Q 1697 3084 1428 2787
Q 1159 2491 1159 1978
L 1159 0
L 581 0
L 581 4863
L 1159 4863
L 1159 2956
Q 1366 3272 1645 3428
Q 1925 3584 2291 3584
Q 2894 3584 3203 3211
Q 3513 2838 3513 2113
z
" transform="scale(0.015625)"/>
      <path id="DejaVuSans-66" d="M 2375 4863
L 2375 4384
L 1825 4384
Q 1516 4384 1395 4259
Q 1275 4134 1275 3809
L 1275 3500
L 2222 3500
L 2222 3053
L 1275 3053
L 1275 0
L 697 0
L 697 3053
L 147 3053
L 147 3500
L 697 3500
L 697 3744
Q 697 4328 969 4595
Q 1241 4863 1831 4863
L 2375 4863
z
" transform="scale(0.015625)"/>
      <path id="DejaVuSans-6d" d="M 3328 2828
Q 3544 3216 3844 3400
Q 4144 3584 4550 3584
Q 5097 3584 5394 3201
Q 5691 2819 5691 2113
L 5691 0
L 5113 0
L 5113 2094
Q 5113 2597 4934 2840
Q 4756 3084 4391 3084
Q 3944 3084 3684 2787
Q 3425 2491 3425 1978
L 3425 0
L 2847 0
L 2847 2094
Q 2847 2600 2669 2842
Q 2491 3084 2119 3084
Q 1678 3084 1418 2786
Q 1159 2488 1159 1978
L 1159 0
L 581 0
L 581 3500
L 1159 3500
L 1159 2956
Q 1356 3278 1631 3431
Q 1906 3584 2284 3584
Q 2666 3584 2933 3390
Q 3200 3197 3328 2828
z
" transform="scale(0.015625)"/>
      <path id="DejaVuSans-67" d="M 2906 1791
Q 2906 2416 2648 2759
Q 2391 3103 1925 3103
Q 1463 3103 1205 2759
Q 947 2416 947 1791
Q 947 1169 1205 825
Q 1463 481 1925 481
Q 2391 481 2648 825
Q 2906 1169 2906 1791
z
M 3481 434
Q 3481 -459 3084 -895
Q 2688 -1331 1869 -1331
Q 1566 -1331 1297 -1286
Q 1028 -1241 775 -1147
L 775 -588
Q 1028 -725 1275 -790
Q 1522 -856 1778 -856
Q 2344 -856 2625 -561
Q 2906 -266 2906 331
L 2906 616
Q 2728 306 2450 153
Q 2172 0 1784 0
Q 1141 0 747 490
Q 353 981 353 1791
Q 353 2603 747 3093
Q 1141 3584 1784 3584
Q 2172 3584 2450 3431
Q 2728 3278 2906 2969
L 2906 3500
L 3481 3500
L 3481 434
z
" transform="scale(0.015625)"/>
     </defs>
     <use xlink:href="#DejaVuSans-53"/>
     <use xlink:href="#DejaVuSans-79" x="63.476562"/>
     <use xlink:href="#DejaVuSans-6e" x="122.65625"/>
     <use xlink:href="#DejaVuSans-74" x="186.035156"/>
     <use xlink:href="#DejaVuSans-68" x="225.244141"/>
     <use xlink:href="#DejaVuSans-65" x="288.623047"/>
     <use xlink:href="#DejaVuSans-74" x="350.146484"/>
     <use xlink:href="#DejaVuSans-69" x="389.355469"/>
     <use xlink:href="#DejaVuSans-63" x="417.138672"/>
     <use xlink:href="#DejaVuSans-20" x="472.119141"/>
     <use xlink:href="#DejaVuSans-63" x="503.90625"/>
     <use xlink:href="#DejaVuSans-6f" x="558.886719"/>
     <use xlink:href="#DejaVuSans-6e" x="620.068359"/>
     <use xlink:href="#DejaVuSans-74" x="683.447266"/>
     <use xlink:href="#DejaVuSans-72" x="722.65625"/>
     <use xlink:href="#DejaVuSans-6f" x="761.519531"/>
     <use xlink:href="#DejaVuSans-6c" x="822.701172"/>
     <use xlink:href="#DejaVuSans-20" x="850.484375"/>
     <use xlink:href="#DejaVuSans-66" x="882.271484"/>
     <use xlink:href="#DejaVuSans-6f" x="917.476562"/>
     <use xlink:href="#DejaVuSans-72" x="978.658203"/>
     <use xlink:href="#DejaVuSans-20" x="1019.771484"/>
     <use xlink:href="#DejaVuSans-61" x="1051.558594"/>
     <use xlink:href="#DejaVuSans-72" x="1112.837891"/>
     <use xlink:href="#DejaVuSans-74" x="1153.951172"/>
     <use xlink:href="#DejaVuSans-69" x="1193.160156"/>
     <use xlink:href="#DejaVuSans-63" x="1220.943359"/>
     <use xlink:href="#DejaVuSans-6c" x="1275.923828"/>
     <use xlink:href="#DejaVuSans-65" x="1303.707031"/>
     <use xlink:href="#DejaVuSans-73" x="1365.230469"/>
     <use xlink:href="#DejaVuSans-20" x="1417.330078"/>
     <use xlink:href="#DejaVuSans-6d" x="1449.117188"/>
     <use xlink:href="#DejaVuSans-65" x="1546.529297"/>
     <use xlink:href="#DejaVuSans-6e" x="1608.052734"/>
     <use xlink:href="#DejaVuSans-74" x="1671.431641"/>
     <use xlink:href="#DejaVuSans-69" x="1710.640625"/>
     <use xlink:href="#DejaVuSans-6f" x="1738.423828"/>
     <use xlink:href="#DejaVuSans-6e" x="1799.605469"/>
     <use xlink:href="#DejaVuSans-69" x="1862.984375"/>
     <use xlink:href="#DejaVuSans-6e" x="1890.767578"/>
     <use xlink:href="#DejaVuSans-67" x="1954.146484"/>
     <use xlink:href="#DejaVuSans-20" x="2017.623047"/>
     <use xlink:href="#DejaVuSans-70" x="2049.410156"/>
     <use xlink:href="#DejaVuSans-72" x="2112.886719"/>
     <use xlink:href="#DejaVuSans-6f" x="2151.75"/>
     <use xlink:href="#DejaVuSans-74" x="2212.931641"/>
     <use xlink:href="#DejaVuSans-65" x="2252.140625"/>
     <use xlink:href="#DejaVuSans-73" x="2313.664062"/>
     <use xlink:href="#DejaVuSans-74" x="2365.763672"/>
    </g>
   </g>
   <g id="legend_1">
    <g id="patch_7">
     <path d="M 49.620313 94.218125
L 128.832813 94.218125
Q 130.832813 94.218125 130.832813 92.218125
L 130.832813 63.861875
Q 130.832813 61.861875 128.832813 61.861875
L 49.620313 61.861875
Q 47.620313 61.861875 47.620313 63.861875
L 47.620313 92.218125
Q 47.620313 94.218125 49.620313 94.218125
z
" style="fill: #ffffff; opacity: 0.8; stroke: #cccccc; stroke-linejoin: miter"/>
    </g>
    <g id="line2d_12">
     <path d="M 51.620313 69.960312
L 61.620313 69.960312
L 71.620313 69.960312
" style="fill: none; stroke: #1f77b4; stroke-width: 1.5; stroke-linecap: square"/>
    </g>
    <g id="text_12">
     <!-- Actual -->
     <g transform="translate(79.620313 73.460312) scale(0.1 -0.1)">
      <defs>
       <path id="DejaVuSans-41" d="M 2188 4044
L 1331 1722
L 3047 1722
L 2188 4044
z
M 1831 4666
L 2547 4666
L 4325 0
L 3669 0
L 3244 1197
L 1141 1197
L 716 0
L 50 0
L 1831 4666
z
" transform="scale(0.015625)"/>
       <path id="DejaVuSans-75" d="M 544 1381
L 544 3500
L 1119 3500
L 1119 1403
Q 1119 906 1312 657
Q 1506 409 1894 409
Q 2359 409 2629 706
Q 2900 1003 2900 1516
L 2900 3500
L 3475 3500
L 3475 0
L 2900 0
L 2900 538
Q 2691 219 2414 64
Q 2138 -91 1772 -91
Q 1169 -91 856 284
Q 544 659 544 1381
z
M 1991 3584
L 1991 3584
z
" transform="scale(0.015625)"/>
      </defs>
      <use xlink:href="#DejaVuSans-41"/>
      <use xlink:href="#DejaVuSans-63" x="66.658203"/>
      <use xlink:href="#DejaVuSans-74" x="121.638672"/>
      <use xlink:href="#DejaVuSans-75" x="160.847656"/>
      <use xlink:href="#DejaVuSans-61" x="224.226562"/>
      <use xlink:href="#DejaVuSans-6c" x="285.505859"/>
     </g>
    </g>
    <g id="line2d_13">
     <path d="M 51.620313 84.638437
L 61.620313 84.638437
L 71.620313 84.638437
" style="fill: none; stroke: #ff7f0e; stroke-width: 1.5; stroke-linecap: square"/>
    </g>
    <g id="text_13">
     <!-- Synthetic -->
     <g transform="translate(79.620313 88.138437) scale(0.1 -0.1)">
      <use xlink:href="#DejaVuSans-53"/>
      <use xlink:href="#DejaVuSans-79" x="63.476562"/>
      <use xlink:href="#DejaVuSans-6e" x="122.65625"/>
      <use xlink:href="#DejaVuSans-74" x="186.035156"/>
      <use xlink:href="#DejaVuSans-68" x="225.244141"/>
      <use xlink:href="#DejaVuSans-65" x="288.623047"/>
      <use xlink:href="#DejaVuSans-74" x="350.146484"/>
      <use xlink:href="#DejaVuSans-69" x="389.355469"/>
      <use xlink:href="#DejaVuSans-63" x="417.138672"/>
     </g>
    </g>
   </g>
  </g>
 </g>
 <defs>
  <clipPath id="p06c9ef2776">
   <rect x="42.620313" y="22.318125" width="368.849919" height="76.9"/>
  </clipPath>
 </defs>
</svg>
