<?xml version="1.0" encoding="utf-8" standalone="no"?>
<!DOCTYPE svg PUBLIC "-//W3C//DTD SVG 1.1//EN"
  "http://www.w3.org/Graphics/SVG/1.1/DTD/svg11.dtd">
<svg xmlns:xlink="http://www.w3.org/1999/xlink" width="406.334797pt" height="136.774375pt" viewBox="0 0 406.334797 136.774375" xmlns="http://www.w3.org/2000/svg" version="1.1">
 <metadata>
  <rdf:RDF xmlns:dc="http://purl.org/dc/elements/1.1/" xmlns:cc="http://creativecommons.org/ns#" xmlns:rdf="http://www.w3.org/1999/02/22-rdf-syntax-ns#">
   <cc:Work>
    <dc:type rdf:resource="http://purl.org/dc/dcmitype/StillImage"/>
    <dc:date>2023-08-19T15:41:10.486186</dc:date>
    <dc:format>image/svg+xml</dc:format>
    <dc:creator>
     <cc:Agent>
      <dc:title>Matplotlib v3.7.2, https://matplotlib.org/</dc:title>
     </cc:Agent>
    </dc:creator>
   </cc:Work>
  </rdf:RDF>
 </metadata>
 <defs>
  <style type="text/css">*{stroke-linejoin: round; stroke-linecap: butt}</style>
 </defs>
 <g id="figure_1">
  <g id="patch_1">
   <path d="M 0 136.774375
L 406.334797 136.774375
L 406.334797 0
L 0 0
z
" style="fill: #ffffff"/>
  </g>
  <g id="axes_1">
   <g id="patch_2">
    <path d="M 34.240625 99.218125
L 393.528044 99.218125
L 393.528044 22.318125
L 34.240625 22.318125
z
" style="fill: #ffffff"/>
   </g>
   <g id="matplotlib.axis_1">
    <g id="xtick_1">
     <g id="line2d_1">
      <defs>
       <path id="ma267dcb9d3" d="M 0 0
L 0 3.5
" style="stroke: #000000; stroke-width: 0.8"/>
      </defs>
      <g>
       <use xlink:href="#ma267dcb9d3" x="97.961649" y="99.218125" style="stroke: #000000; stroke-width: 0.8"/>
      </g>
     </g>
     <g id="text_1">
      <!-- −300 -->
      <g transform="translate(84.228055 113.816562) scale(0.1 -0.1)">
       <defs>
        <path id="DejaVuSans-2212" d="M 678 2272
L 4684 2272
L 4684 1741
L 678 1741
L 678 2272
z
" transform="scale(0.015625)"/>
        <path id="DejaVuSans-33" d="M 2597 2516
Q 3050 2419 3304 2112
Q 3559 1806 3559 1356
Q 3559 666 3084 287
Q 2609 -91 1734 -91
Q 1441 -91 1130 -33
Q 819 25 488 141
L 488 750
Q 750 597 1062 519
Q 1375 441 1716 441
Q 2309 441 2620 675
Q 2931 909 2931 1356
Q 2931 1769 2642 2001
Q 2353 2234 1838 2234
L 1294 2234
L 1294 2753
L 1863 2753
Q 2328 2753 2575 2939
Q 2822 3125 2822 3475
Q 2822 3834 2567 4026
Q 2313 4219 1838 4219
Q 1578 4219 1281 4162
Q 984 4106 628 3988
L 628 4550
Q 988 4650 1302 4700
Q 1616 4750 1894 4750
Q 2613 4750 3031 4423
Q 3450 4097 3450 3541
Q 3450 3153 3228 2886
Q 3006 2619 2597 2516
z
" transform="scale(0.015625)"/>
        <path id="DejaVuSans-30" d="M 2034 4250
Q 1547 4250 1301 3770
Q 1056 3291 1056 2328
Q 1056 1369 1301 889
Q 1547 409 2034 409
Q 2525 409 2770 889
Q 3016 1369 3016 2328
Q 3016 3291 2770 3770
Q 2525 4250 2034 4250
z
M 2034 4750
Q 2819 4750 3233 4129
Q 3647 3509 3647 2328
Q 3647 1150 3233 529
Q 2819 -91 2034 -91
Q 1250 -91 836 529
Q 422 1150 422 2328
Q 422 3509 836 4129
Q 1250 4750 2034 4750
z
" transform="scale(0.015625)"/>
       </defs>
       <use xlink:href="#DejaVuSans-2212"/>
       <use xlink:href="#DejaVuSans-33" x="83.789062"/>
       <use xlink:href="#DejaVuSans-30" x="147.412109"/>
       <use xlink:href="#DejaVuSans-30" x="211.035156"/>
      </g>
     </g>
    </g>
    <g id="xtick_2">
     <g id="line2d_2">
      <g>
       <use xlink:href="#ma267dcb9d3" x="170.868998" y="99.218125" style="stroke: #000000; stroke-width: 0.8"/>
      </g>
     </g>
     <g id="text_2">
      <!-- −200 -->
      <g transform="translate(157.135404 113.816562) scale(0.1 -0.1)">
       <defs>
        <path id="DejaVuSans-32" d="M 1228 531
L 3431 531
L 3431 0
L 469 0
L 469 531
Q 828 903 1448 1529
Q 2069 2156 2228 2338
Q 2531 2678 2651 2914
Q 2772 3150 2772 3378
Q 2772 3750 2511 3984
Q 2250 4219 1831 4219
Q 1534 4219 1204 4116
Q 875 4013 500 3803
L 500 4441
Q 881 4594 1212 4672
Q 1544 4750 1819 4750
Q 2544 4750 2975 4387
Q 3406 4025 3406 3419
Q 3406 3131 3298 2873
Q 3191 2616 2906 2266
Q 2828 2175 2409 1742
Q 1991 1309 1228 531
z
" transform="scale(0.015625)"/>
       </defs>
       <use xlink:href="#DejaVuSans-2212"/>
       <use xlink:href="#DejaVuSans-32" x="83.789062"/>
       <use xlink:href="#DejaVuSans-30" x="147.412109"/>
       <use xlink:href="#DejaVuSans-30" x="211.035156"/>
      </g>
     </g>
    </g>
    <g id="xtick_3">
     <g id="line2d_3">
      <g>
       <use xlink:href="#ma267dcb9d3" x="243.776348" y="99.218125" style="stroke: #000000; stroke-width: 0.8"/>
      </g>
     </g>
     <g id="text_3">
      <!-- −100 -->
      <g transform="translate(230.042754 113.816562) scale(0.1 -0.1)">
       <defs>
        <path id="DejaVuSans-31" d="M 794 531
L 1825 531
L 1825 4091
L 703 3866
L 703 4441
L 1819 4666
L 2450 4666
L 2450 531
L 3481 531
L 3481 0
L 794 0
L 794 531
z
" transform="scale(0.015625)"/>
       </defs>
       <use xlink:href="#DejaVuSans-2212"/>
       <use xlink:href="#DejaVuSans-31" x="83.789062"/>
       <use xlink:href="#DejaVuSans-30" x="147.412109"/>
       <use xlink:href="#DejaVuSans-30" x="211.035156"/>
      </g>
     </g>
    </g>
    <g id="xtick_4">
     <g id="line2d_4">
      <g>
       <use xlink:href="#ma267dcb9d3" x="316.683697" y="99.218125" style="stroke: #000000; stroke-width: 0.8"/>
      </g>
     </g>
     <g id="text_4">
      <!-- 0 -->
      <g transform="translate(313.502447 113.816562) scale(0.1 -0.1)">
       <use xlink:href="#DejaVuSans-30"/>
      </g>
     </g>
    </g>
    <g id="xtick_5">
     <g id="line2d_5">
      <g>
       <use xlink:href="#ma267dcb9d3" x="389.591047" y="99.218125" style="stroke: #000000; stroke-width: 0.8"/>
      </g>
     </g>
     <g id="text_5">
      <!-- 100 -->
      <g transform="translate(380.047297 113.816562) scale(0.1 -0.1)">
       <use xlink:href="#DejaVuSans-31"/>
       <use xlink:href="#DejaVuSans-30" x="63.623047"/>
       <use xlink:href="#DejaVuSans-30" x="127.246094"/>
      </g>
     </g>
    </g>
    <g id="text_6">
     <!-- Days since protest -->
     <g transform="translate(167.461678 127.494687) scale(0.1 -0.1)">
      <defs>
       <path id="DejaVuSans-44" d="M 1259 4147
L 1259 519
L 2022 519
Q 2988 519 3436 956
Q 3884 1394 3884 2338
Q 3884 3275 3436 3711
Q 2988 4147 2022 4147
L 1259 4147
z
M 628 4666
L 1925 4666
Q 3281 4666 3915 4102
Q 4550 3538 4550 2338
Q 4550 1131 3912 565
Q 3275 0 1925 0
L 628 0
L 628 4666
z
" transform="scale(0.015625)"/>
       <path id="DejaVuSans-61" d="M 2194 1759
Q 1497 1759 1228 1600
Q 959 1441 959 1056
Q 959 750 1161 570
Q 1363 391 1709 391
Q 2188 391 2477 730
Q 2766 1069 2766 1631
L 2766 1759
L 2194 1759
z
M 3341 1997
L 3341 0
L 2766 0
L 2766 531
Q 2569 213 2275 61
Q 1981 -91 1556 -91
Q 1019 -91 701 211
Q 384 513 384 1019
Q 384 1609 779 1909
Q 1175 2209 1959 2209
L 2766 2209
L 2766 2266
Q 2766 2663 2505 2880
Q 2244 3097 1772 3097
Q 1472 3097 1187 3025
Q 903 2953 641 2809
L 641 3341
Q 956 3463 1253 3523
Q 1550 3584 1831 3584
Q 2591 3584 2966 3190
Q 3341 2797 3341 1997
z
" transform="scale(0.015625)"/>
       <path id="DejaVuSans-79" d="M 2059 -325
Q 1816 -950 1584 -1140
Q 1353 -1331 966 -1331
L 506 -1331
L 506 -850
L 844 -850
Q 1081 -850 1212 -737
Q 1344 -625 1503 -206
L 1606 56
L 191 3500
L 800 3500
L 1894 763
L 2988 3500
L 3597 3500
L 2059 -325
z
" transform="scale(0.015625)"/>
       <path id="DejaVuSans-73" d="M 2834 3397
L 2834 2853
Q 2591 2978 2328 3040
Q 2066 3103 1784 3103
Q 1356 3103 1142 2972
Q 928 2841 928 2578
Q 928 2378 1081 2264
Q 1234 2150 1697 2047
L 1894 2003
Q 2506 1872 2764 1633
Q 3022 1394 3022 966
Q 3022 478 2636 193
Q 2250 -91 1575 -91
Q 1294 -91 989 -36
Q 684 19 347 128
L 347 722
Q 666 556 975 473
Q 1284 391 1588 391
Q 1994 391 2212 530
Q 2431 669 2431 922
Q 2431 1156 2273 1281
Q 2116 1406 1581 1522
L 1381 1569
Q 847 1681 609 1914
Q 372 2147 372 2553
Q 372 3047 722 3315
Q 1072 3584 1716 3584
Q 2034 3584 2315 3537
Q 2597 3491 2834 3397
z
" transform="scale(0.015625)"/>
       <path id="DejaVuSans-20" transform="scale(0.015625)"/>
       <path id="DejaVuSans-69" d="M 603 3500
L 1178 3500
L 1178 0
L 603 0
L 603 3500
z
M 603 4863
L 1178 4863
L 1178 4134
L 603 4134
L 603 4863
z
" transform="scale(0.015625)"/>
       <path id="DejaVuSans-6e" d="M 3513 2113
L 3513 0
L 2938 0
L 2938 2094
Q 2938 2591 2744 2837
Q 2550 3084 2163 3084
Q 1697 3084 1428 2787
Q 1159 2491 1159 1978
L 1159 0
L 581 0
L 581 3500
L 1159 3500
L 1159 2956
Q 1366 3272 1645 3428
Q 1925 3584 2291 3584
Q 2894 3584 3203 3211
Q 3513 2838 3513 2113
z
" transform="scale(0.015625)"/>
       <path id="DejaVuSans-63" d="M 3122 3366
L 3122 2828
Q 2878 2963 2633 3030
Q 2388 3097 2138 3097
Q 1578 3097 1268 2742
Q 959 2388 959 1747
Q 959 1106 1268 751
Q 1578 397 2138 397
Q 2388 397 2633 464
Q 2878 531 3122 666
L 3122 134
Q 2881 22 2623 -34
Q 2366 -91 2075 -91
Q 1284 -91 818 406
Q 353 903 353 1747
Q 353 2603 823 3093
Q 1294 3584 2113 3584
Q 2378 3584 2631 3529
Q 2884 3475 3122 3366
z
" transform="scale(0.015625)"/>
       <path id="DejaVuSans-65" d="M 3597 1894
L 3597 1613
L 953 1613
Q 991 1019 1311 708
Q 1631 397 2203 397
Q 2534 397 2845 478
Q 3156 559 3463 722
L 3463 178
Q 3153 47 2828 -22
Q 2503 -91 2169 -91
Q 1331 -91 842 396
Q 353 884 353 1716
Q 353 2575 817 3079
Q 1281 3584 2069 3584
Q 2775 3584 3186 3129
Q 3597 2675 3597 1894
z
M 3022 2063
Q 3016 2534 2758 2815
Q 2500 3097 2075 3097
Q 1594 3097 1305 2825
Q 1016 2553 972 2059
L 3022 2063
z
" transform="scale(0.015625)"/>
       <path id="DejaVuSans-70" d="M 1159 525
L 1159 -1331
L 581 -1331
L 581 3500
L 1159 3500
L 1159 2969
Q 1341 3281 1617 3432
Q 1894 3584 2278 3584
Q 2916 3584 3314 3078
Q 3713 2572 3713 1747
Q 3713 922 3314 415
Q 2916 -91 2278 -91
Q 1894 -91 1617 61
Q 1341 213 1159 525
z
M 3116 1747
Q 3116 2381 2855 2742
Q 2594 3103 2138 3103
Q 1681 3103 1420 2742
Q 1159 2381 1159 1747
Q 1159 1113 1420 752
Q 1681 391 2138 391
Q 2594 391 2855 752
Q 3116 1113 3116 1747
z
" transform="scale(0.015625)"/>
       <path id="DejaVuSans-72" d="M 2631 2963
Q 2534 3019 2420 3045
Q 2306 3072 2169 3072
Q 1681 3072 1420 2755
Q 1159 2438 1159 1844
L 1159 0
L 581 0
L 581 3500
L 1159 3500
L 1159 2956
Q 1341 3275 1631 3429
Q 1922 3584 2338 3584
Q 2397 3584 2469 3576
Q 2541 3569 2628 3553
L 2631 2963
z
" transform="scale(0.015625)"/>
       <path id="DejaVuSans-6f" d="M 1959 3097
Q 1497 3097 1228 2736
Q 959 2375 959 1747
Q 959 1119 1226 758
Q 1494 397 1959 397
Q 2419 397 2687 759
Q 2956 1122 2956 1747
Q 2956 2369 2687 2733
Q 2419 3097 1959 3097
z
M 1959 3584
Q 2709 3584 3137 3096
Q 3566 2609 3566 1747
Q 3566 888 3137 398
Q 2709 -91 1959 -91
Q 1206 -91 779 398
Q 353 888 353 1747
Q 353 2609 779 3096
Q 1206 3584 1959 3584
z
" transform="scale(0.015625)"/>
       <path id="DejaVuSans-74" d="M 1172 4494
L 1172 3500
L 2356 3500
L 2356 3053
L 1172 3053
L 1172 1153
Q 1172 725 1289 603
Q 1406 481 1766 481
L 2356 481
L 2356 0
L 1766 0
Q 1100 0 847 248
Q 594 497 594 1153
L 594 3053
L 172 3053
L 172 3500
L 594 3500
L 594 4494
L 1172 4494
z
" transform="scale(0.015625)"/>
      </defs>
      <use xlink:href="#DejaVuSans-44"/>
      <use xlink:href="#DejaVuSans-61" x="77.001953"/>
      <use xlink:href="#DejaVuSans-79" x="138.28125"/>
      <use xlink:href="#DejaVuSans-73" x="197.460938"/>
      <use xlink:href="#DejaVuSans-20" x="249.560547"/>
      <use xlink:href="#DejaVuSans-73" x="281.347656"/>
      <use xlink:href="#DejaVuSans-69" x="333.447266"/>
      <use xlink:href="#DejaVuSans-6e" x="361.230469"/>
      <use xlink:href="#DejaVuSans-63" x="424.609375"/>
      <use xlink:href="#DejaVuSans-65" x="479.589844"/>
      <use xlink:href="#DejaVuSans-20" x="541.113281"/>
      <use xlink:href="#DejaVuSans-70" x="572.900391"/>
      <use xlink:href="#DejaVuSans-72" x="636.376953"/>
      <use xlink:href="#DejaVuSans-6f" x="675.240234"/>
      <use xlink:href="#DejaVuSans-74" x="736.421875"/>
      <use xlink:href="#DejaVuSans-65" x="775.630859"/>
      <use xlink:href="#DejaVuSans-73" x="837.154297"/>
      <use xlink:href="#DejaVuSans-74" x="889.253906"/>
     </g>
    </g>
   </g>
   <g id="matplotlib.axis_2">
    <g id="ytick_1">
     <g id="line2d_6">
      <defs>
       <path id="m83a8ad9f74" d="M 0 0
L -3.5 0
" style="stroke: #000000; stroke-width: 0.8"/>
      </defs>
      <g>
       <use xlink:href="#m83a8ad9f74" x="34.240625" y="71.268722" style="stroke: #000000; stroke-width: 0.8"/>
      </g>
     </g>
     <g id="text_7">
      <!-- 0 -->
      <g transform="translate(20.878125 75.067941) scale(0.1 -0.1)">
       <use xlink:href="#DejaVuSans-30"/>
      </g>
     </g>
    </g>
    <g id="ytick_2">
     <g id="line2d_7">
      <g>
       <use xlink:href="#m83a8ad9f74" x="34.240625" y="34.953993" style="stroke: #000000; stroke-width: 0.8"/>
      </g>
     </g>
     <g id="text_8">
      <!-- 5 -->
      <g transform="translate(20.878125 38.753212) scale(0.1 -0.1)">
       <defs>
        <path id="DejaVuSans-35" d="M 691 4666
L 3169 4666
L 3169 4134
L 1269 4134
L 1269 2991
Q 1406 3038 1543 3061
Q 1681 3084 1819 3084
Q 2600 3084 3056 2656
Q 3513 2228 3513 1497
Q 3513 744 3044 326
Q 2575 -91 1722 -91
Q 1428 -91 1123 -41
Q 819 9 494 109
L 494 744
Q 775 591 1075 516
Q 1375 441 1709 441
Q 2250 441 2565 725
Q 2881 1009 2881 1497
Q 2881 1984 2565 2268
Q 2250 2553 1709 2553
Q 1456 2553 1204 2497
Q 953 2441 691 2322
L 691 4666
z
" transform="scale(0.015625)"/>
       </defs>
       <use xlink:href="#DejaVuSans-35"/>
      </g>
     </g>
    </g>
    <g id="text_9">
     <!-- #articles -->
     <g transform="translate(14.798438 83.24625) rotate(-90) scale(0.1 -0.1)">
      <defs>
       <path id="DejaVuSans-23" d="M 3272 2816
L 2363 2816
L 2100 1772
L 3016 1772
L 3272 2816
z
M 2803 4594
L 2478 3297
L 3391 3297
L 3719 4594
L 4219 4594
L 3897 3297
L 4872 3297
L 4872 2816
L 3775 2816
L 3519 1772
L 4513 1772
L 4513 1294
L 3397 1294
L 3072 0
L 2572 0
L 2894 1294
L 1978 1294
L 1656 0
L 1153 0
L 1478 1294
L 494 1294
L 494 1772
L 1594 1772
L 1856 2816
L 850 2816
L 850 3297
L 1978 3297
L 2297 4594
L 2803 4594
z
" transform="scale(0.015625)"/>
       <path id="DejaVuSans-6c" d="M 603 4863
L 1178 4863
L 1178 0
L 603 0
L 603 4863
z
" transform="scale(0.015625)"/>
      </defs>
      <use xlink:href="#DejaVuSans-23"/>
      <use xlink:href="#DejaVuSans-61" x="83.789062"/>
      <use xlink:href="#DejaVuSans-72" x="145.068359"/>
      <use xlink:href="#DejaVuSans-74" x="186.181641"/>
      <use xlink:href="#DejaVuSans-69" x="225.390625"/>
      <use xlink:href="#DejaVuSans-63" x="253.173828"/>
      <use xlink:href="#DejaVuSans-6c" x="308.154297"/>
      <use xlink:href="#DejaVuSans-65" x="335.9375"/>
      <use xlink:href="#DejaVuSans-73" x="397.460938"/>
     </g>
    </g>
   </g>
   <g id="line2d_8">
    <path d="M 50.571871 84.066213
L 51.300945 83.168895
L 52.030018 81.638612
L 52.759092 81.34447
L 53.488165 81.932754
L 54.217239 81.240218
L 54.946312 81.98488
L 55.675386 83.741044
L 56.404459 84.438545
L 57.133533 86.401973
L 57.862606 87.254612
L 58.59168 88.563977
L 59.320753 89.241621
L 60.049827 89.334704
L 62.237047 91.0375
L 62.966121 92.535513
L 63.695194 93.28514
L 64.424268 94.276783
L 65.153341 94.740956
L 65.882415 94.12661
L 66.611488 93.210674
L 67.340562 93.136208
L 68.069635 92.080028
L 68.798709 89.930434
L 69.527782 89.177083
L 70.256856 89.910576
L 71.715003 92.256265
L 73.17315 93.504816
L 73.902223 93.66616
L 74.631297 93.653749
L 75.36037 92.328249
L 76.089444 91.494226
L 76.818517 92.086233
L 77.547591 91.774716
L 78.276664 91.243523
L 79.005738 92.298462
L 79.734811 92.799868
L 80.463885 92.44243
L 81.192958 92.277363
L 81.922032 90.533611
L 82.651105 90.146386
L 83.380179 91.284479
L 84.838326 91.774716
L 85.567399 92.802351
L 86.296473 93.049331
L 87.025546 93.55446
L 87.75462 93.776618
L 88.483693 91.612131
L 89.212767 90.413224
L 89.94184 89.998695
L 91.399987 89.541968
L 92.129061 90.42067
L 92.858134 90.606836
L 93.587208 92.314596
L 94.316281 94.618087
L 95.045355 95.72267
L 95.774428 95.641999
L 97.232575 93.455172
L 97.961649 93.627685
L 98.690722 94.192388
L 99.419796 92.619908
L 100.148869 92.89171
L 100.877943 93.518468
L 101.607016 93.731938
L 102.33609 94.65532
L 103.065163 94.405858
L 103.794237 93.898246
L 104.52331 93.213156
L 105.252384 90.917112
L 105.981457 89.680972
L 106.710531 90.076884
L 107.439604 89.610229
L 108.168677 88.397669
L 110.355898 85.667239
L 111.084971 84.990837
L 111.814045 83.796894
L 112.543118 82.149947
L 113.272192 81.8496
L 114.001265 80.577468
L 114.730339 78.883359
L 115.459412 79.182466
L 116.188486 78.072918
L 116.917559 76.584833
L 117.646633 76.942271
L 119.10478 74.270173
L 119.833853 73.478348
L 120.562927 72.038666
L 121.292 72.386175
L 122.021074 73.559019
L 122.750147 73.767525
L 123.479221 74.196947
L 124.208294 73.746426
L 124.937368 73.755114
L 125.666441 74.285066
L 126.395515 73.238814
L 127.853662 69.565144
L 128.582735 68.443185
L 130.040882 66.942689
L 131.499029 62.61868
L 132.228103 61.032548
L 133.68625 59.807577
L 134.415323 60.969251
L 135.144397 61.497962
L 136.602544 63.400576
L 137.331617 65.256028
L 138.789764 67.009709
L 139.518838 67.446578
L 140.247911 69.21267
L 140.976985 70.512107
L 141.706058 72.84042
L 142.435132 74.520876
L 143.893279 78.83868
L 144.622352 79.511358
L 145.351426 79.69256
L 146.080499 80.380132
L 146.809573 78.599146
L 147.538646 77.526832
L 148.26772 76.010202
L 148.996793 73.932592
L 150.45494 70.720613
L 151.913087 68.449391
L 153.371234 65.824454
L 154.100308 65.04504
L 155.558455 64.060844
L 156.287528 63.409264
L 157.016602 63.908188
L 157.745675 64.217223
L 158.474749 64.736005
L 159.203822 64.125381
L 159.932896 63.740639
L 161.391043 61.960894
L 162.120116 61.759835
L 162.84919 61.243536
L 163.578263 61.367646
L 164.307337 62.19174
L 165.03641 62.3717
L 165.765484 62.813533
L 166.494557 63.828757
L 168.681778 67.821392
L 169.410851 67.910751
L 170.139925 68.959485
L 170.868998 69.597413
L 172.327145 69.382701
L 173.785292 67.463953
L 174.514366 69.707871
L 175.972513 72.332808
L 176.701586 72.543796
L 177.43066 72.904957
L 178.159733 75.447981
L 178.888807 76.077221
L 179.61788 75.565886
L 180.346954 74.613959
L 181.076027 73.091123
L 181.805101 73.030309
L 182.534174 72.212421
L 183.263248 70.901814
L 183.992321 70.71813
L 185.450468 68.039826
L 186.179542 68.77456
L 186.908615 69.86425
L 187.637689 70.271333
L 188.366762 69.797231
L 189.095836 69.477025
L 189.824909 69.720282
L 190.553983 70.539411
L 191.283056 72.114373
L 192.741203 69.669397
L 194.19935 66.601385
L 194.928424 66.391639
L 195.657497 67.161124
L 196.386571 65.28085
L 197.115644 65.738818
L 197.844718 68.234679
L 199.302864 72.029978
L 200.031938 72.510286
L 200.761011 71.339924
L 202.219158 70.79632
L 202.948232 69.3132
L 203.677305 68.340173
L 205.135452 67.266618
L 205.864526 67.153677
L 206.593599 67.355977
L 207.322673 66.706879
L 208.051746 65.40496
L 208.78082 64.429452
L 209.509893 63.666172
L 210.238967 64.354986
L 210.96804 65.232447
L 211.697114 64.693807
L 212.426187 64.913483
L 213.155261 64.675191
L 214.613408 64.556045
L 215.342481 63.059272
L 216.071555 62.623644
L 217.529702 63.396853
L 218.258775 64.23584
L 218.987849 65.495561
L 219.716922 64.946993
L 220.445996 65.87658
L 221.175069 64.565973
L 221.904143 63.976449
L 222.633216 63.172213
L 223.36229 62.76513
L 224.091363 61.761076
L 224.820437 62.307163
L 225.54951 61.537678
L 226.278584 62.302198
L 227.007657 62.310886
L 227.736731 62.050254
L 228.465804 61.278287
L 229.923951 60.848864
L 230.653025 60.955599
L 231.382098 60.223347
L 232.111172 61.210026
L 232.840245 61.737495
L 233.569319 62.462301
L 234.298392 62.593858
L 235.756539 61.552571
L 236.485613 62.210356
L 237.214686 61.957171
L 237.94376 62.155748
L 240.13098 65.867892
L 240.860054 68.225992
L 241.589127 69.210188
L 242.318201 68.023692
L 243.047274 67.267859
L 243.776348 66.330825
L 244.505421 65.789703
L 245.234495 66.279939
L 245.963568 65.814525
L 246.692642 65.907608
L 247.421715 66.715567
L 248.150789 66.274975
L 248.879862 65.197696
L 249.608936 64.750898
L 250.338009 63.656244
L 251.067083 63.519722
L 251.796156 62.962466
L 252.52523 63.772907
L 253.254303 64.891143
L 253.983377 66.456176
L 254.71245 65.645735
L 255.441524 66.066469
L 256.170597 66.118596
L 256.899671 66.510785
L 257.628744 66.127283
L 258.357818 66.5505
L 259.086891 65.593608
L 259.815965 66.411496
L 261.274112 66.798721
L 262.003185 66.832231
L 262.732259 67.862348
L 263.461332 66.623725
L 264.190406 66.036683
L 264.919479 66.498374
L 265.648553 65.275885
L 267.1067 63.480007
L 267.835773 61.898839
L 268.564847 61.389986
L 269.29392 61.303109
L 270.022994 58.887919
L 270.752067 57.367565
L 271.481141 56.615456
L 272.210214 57.188846
L 272.939288 57.150372
L 273.668361 58.119675
L 274.397435 57.613304
L 275.126508 58.084924
L 275.855582 59.386843
L 276.584655 60.28292
L 278.042802 61.522784
L 279.500949 63.669896
L 280.230023 64.225911
L 280.959096 64.199847
L 282.417243 64.657815
L 283.146317 64.747175
L 283.87539 63.883366
L 284.604464 63.962796
L 286.062611 65.84307
L 287.520758 66.677093
L 288.249831 66.186856
L 288.978905 66.427631
L 289.707978 65.440952
L 290.437051 64.950716
L 291.895198 61.779693
L 292.624272 60.084344
L 293.353345 59.448898
L 294.082419 58.335627
L 294.811492 58.802282
L 295.540566 57.635644
L 296.269639 57.952125
L 296.998713 57.594687
L 297.727786 57.675359
L 299.185933 60.555964
L 299.915007 60.89975
L 300.64408 60.259339
L 301.373154 59.405459
L 302.831301 57.195052
L 304.289448 54.016582
L 305.018521 53.568543
L 305.747595 54.908936
L 306.476668 54.985885
L 307.205742 55.459987
L 307.934815 56.367235
L 308.663889 55.253963
L 309.392962 53.439468
L 310.122036 52.005992
L 310.851109 48.992589
L 311.580183 47.080047
L 312.309256 45.946918
L 313.03833 44.381885
L 314.496477 42.115627
L 315.22555 40.056634
L 315.954624 40.113725
L 316.683697 39.364098
L 318.141844 36.425109
L 318.870918 34.348739
L 319.599991 34.031878
L 320.329065 33.457801
L 321.058138 34.265485
L 321.787212 34.80974
L 322.516285 35.114175
L 323.245359 34.802284
L 323.974432 35.228454
L 324.703506 34.481742
L 325.432579 34.208179
L 326.161653 32.992791
L 326.890726 32.27317
L 329.077947 31.988801
L 330.536094 31.580136
L 331.265167 32.221921
L 331.994241 32.565241
L 332.723314 32.165328
L 333.452388 31.148502
L 334.910535 31.632226
L 335.639608 32.271468
L 336.368682 30.323381
L 337.097755 28.975578
L 337.826829 28.641493
L 338.555902 27.902719
L 339.284976 27.416886
L 340.014049 27.968617
L 340.743123 27.953112
L 341.472196 30.250554
L 342.20127 32.141973
L 342.930343 32.097987
L 343.659417 33.808687
L 344.38849 33.305269
L 345.117564 33.157976
L 345.846637 33.843743
L 346.575711 32.662102
L 347.304784 32.398137
L 348.762931 33.778071
L 349.492005 35.438957
L 350.221078 35.167152
L 350.950152 34.443209
L 351.679225 35.394749
L 352.408299 35.537441
L 353.137372 36.405817
L 353.866446 36.406622
L 354.595519 35.489852
L 355.324593 36.805137
L 356.053666 37.559124
L 356.78274 37.952239
L 358.240887 38.435577
L 358.96996 37.801398
L 359.699034 37.838033
L 360.428107 38.166573
L 361.157181 38.070055
L 361.886254 37.484123
L 362.615328 37.931673
L 363.344401 37.674123
L 364.073475 37.633044
L 364.802548 37.370951
L 365.531622 35.576873
L 366.260695 34.918944
L 366.989769 34.051639
L 367.718842 34.607817
L 368.447916 34.052278
L 369.176989 34.237625
L 369.906063 34.720041
L 370.635136 34.234272
L 371.36421 32.389409
L 372.093283 31.174315
L 372.822357 29.707178
L 374.280504 27.647556
L 375.009577 27.090243
L 375.738651 25.81358
L 376.467724 28.677243
L 377.196798 29.913655
L 377.196798 29.913655
" clip-path="url(#p0c031434ae)" style="fill: none; stroke: #1f77b4; stroke-width: 1.5; stroke-linecap: square"/>
   </g>
   <g id="line2d_9">
    <path d="M 50.571871 79.832408
L 51.300945 79.559589
L 52.030018 79.488235
L 52.759092 78.828888
L 54.217239 81.469072
L 54.946312 84.241904
L 56.404459 86.014774
L 57.133533 87.399656
L 57.862606 88.126743
L 58.59168 89.778425
L 59.320753 90.723275
L 60.049827 90.842434
L 60.7789 91.895063
L 61.507974 92.246499
L 62.237047 92.756719
L 62.966121 94.213631
L 63.695194 93.801078
L 64.424268 93.579752
L 65.153341 94.172993
L 65.882415 93.826925
L 66.611488 93.184107
L 67.340562 93.098755
L 68.069635 92.490176
L 70.256856 91.89666
L 70.985929 91.835417
L 71.715003 92.713448
L 72.444076 92.124157
L 73.17315 92.015653
L 73.902223 90.023068
L 74.631297 89.105271
L 75.36037 87.690664
L 76.089444 87.413097
L 76.818517 86.911403
L 78.276664 89.180744
L 79.005738 93.005073
L 80.463885 94.148158
L 81.192958 93.620524
L 81.922032 93.938469
L 82.651105 93.63763
L 83.380179 93.21104
L 84.838326 92.154912
L 85.567399 91.8098
L 86.296473 92.415952
L 87.75462 90.965645
L 89.212767 88.619118
L 89.94184 89.181186
L 91.399987 87.940268
L 92.129061 88.182123
L 92.858134 88.7171
L 93.587208 89.079781
L 94.316281 90.252983
L 95.045355 90.861032
L 95.774428 91.136164
L 97.232575 89.975017
L 97.961649 89.95178
L 98.690722 90.954455
L 99.419796 89.734912
L 100.148869 89.717119
L 100.877943 91.408731
L 101.607016 92.134788
L 102.33609 92.576117
L 103.065163 93.173041
L 103.794237 92.382738
L 104.52331 92.52869
L 105.252384 92.454807
L 105.981457 90.248921
L 106.710531 89.213585
L 107.439604 89.09868
L 108.168677 87.213408
L 108.897751 86.386709
L 109.626824 83.839652
L 110.355898 82.207539
L 111.084971 81.27451
L 111.814045 81.321174
L 112.543118 80.650675
L 114.001265 78.777357
L 114.730339 78.64207
L 115.459412 77.554539
L 116.188486 77.892781
L 116.917559 76.062967
L 118.375706 75.100119
L 119.833853 71.781618
L 120.562927 71.114408
L 121.292 70.650798
L 122.021074 72.492512
L 122.750147 71.837702
L 123.479221 72.312905
L 124.208294 72.269856
L 124.937368 72.789413
L 125.666441 73.104817
L 126.395515 72.555163
L 127.124588 70.878696
L 127.853662 70.686712
L 128.582735 69.551726
L 129.311809 69.156071
L 130.040882 67.112912
L 130.769956 64.239395
L 132.228103 59.574606
L 132.957176 57.712748
L 133.68625 56.726299
L 134.415323 57.637646
L 135.87347 61.756715
L 136.602544 62.493711
L 137.331617 64.919439
L 138.060691 66.307415
L 138.789764 67.141788
L 140.247911 67.618506
L 140.976985 67.444792
L 141.706058 69.144383
L 142.435132 69.638657
L 143.164205 72.225632
L 143.893279 74.011687
L 144.622352 75.264921
L 145.351426 77.203429
L 146.080499 78.705335
L 146.809573 78.09657
L 147.538646 78.231164
L 148.26772 75.728547
L 148.996793 74.472956
L 149.725867 72.770425
L 150.45494 69.93987
L 151.913087 66.247075
L 152.642161 64.978759
L 153.371234 64.007715
L 154.100308 63.388606
L 154.829381 62.377274
L 156.287528 62.975574
L 157.016602 64.016457
L 157.745675 64.346364
L 158.474749 65.160047
L 159.932896 66.11083
L 160.661969 65.312733
L 162.120116 64.828189
L 162.84919 64.730192
L 163.578263 65.645376
L 165.765484 65.980108
L 166.494557 66.337766
L 167.223631 67.844106
L 167.952704 68.876292
L 168.681778 69.07209
L 170.139925 70.580545
L 170.868998 71.625979
L 171.598072 72.967479
L 173.785292 68.729556
L 174.514366 68.881757
L 175.243439 70.832754
L 175.972513 72.324446
L 176.701586 72.081166
L 177.43066 72.971033
L 178.888807 76.782888
L 180.346954 72.712744
L 181.076027 71.366384
L 181.805101 71.96385
L 182.534174 71.105825
L 183.263248 69.589397
L 183.992321 69.067976
L 184.721395 70.85824
L 185.450468 70.913284
L 186.179542 70.733076
L 186.908615 69.47225
L 187.637689 71.251013
L 188.366762 72.242368
L 189.095836 72.790602
L 189.824909 71.834047
L 190.553983 71.905289
L 191.283056 72.730543
L 192.01213 73.34896
L 192.741203 71.123136
L 193.470277 69.926004
L 194.19935 66.661738
L 194.928424 66.736749
L 196.386571 64.992821
L 197.115644 64.199135
L 197.844718 64.895527
L 198.573791 65.375647
L 199.302864 68.237167
L 200.031938 67.798779
L 200.761011 68.456577
L 201.490085 68.72646
L 202.219158 68.701408
L 203.677305 67.275427
L 204.406379 65.01888
L 205.135452 65.984004
L 205.864526 65.410439
L 206.593599 63.619603
L 207.322673 63.303858
L 208.051746 64.00975
L 208.78082 62.557224
L 209.509893 61.803548
L 210.238967 62.056104
L 210.96804 62.692869
L 211.697114 63.640793
L 212.426187 62.721806
L 213.155261 61.551712
L 213.884334 62.262887
L 214.613408 63.339215
L 215.342481 61.520342
L 216.071555 60.98447
L 216.800628 61.835738
L 217.529702 63.340109
L 218.258775 63.992414
L 218.987849 66.172166
L 219.716922 66.554105
L 220.445996 67.373116
L 221.175069 67.917139
L 222.633216 65.088005
L 223.36229 65.011909
L 224.091363 64.031698
L 224.820437 63.856307
L 225.54951 62.995996
L 226.278584 61.537153
L 227.007657 62.119068
L 227.736731 61.463276
L 228.465804 59.67932
L 229.194878 58.632601
L 229.923951 57.961903
L 230.653025 57.940084
L 231.382098 58.121666
L 232.111172 58.08072
L 232.840245 58.813694
L 233.569319 60.602415
L 234.298392 61.073814
L 235.027466 60.569555
L 235.756539 61.618555
L 236.485613 60.887335
L 237.214686 61.858571
L 237.94376 63.403804
L 238.672833 63.323333
L 239.401907 64.040495
L 240.860054 66.949225
L 241.589127 69.204135
L 243.047274 67.711272
L 243.776348 67.382887
L 245.234495 69.331429
L 245.963568 68.987629
L 247.421715 69.684302
L 248.150789 68.900328
L 248.879862 70.01662
L 249.608936 68.143853
L 250.338009 66.937296
L 251.796156 66.075062
L 252.52523 66.732265
L 253.254303 67.98693
L 253.983377 67.599736
L 254.71245 68.28737
L 255.441524 67.477229
L 256.170597 69.531929
L 256.899671 69.292144
L 257.628744 68.508338
L 258.357818 68.372983
L 259.086891 67.134623
L 259.815965 67.814815
L 260.545038 68.682014
L 261.274112 65.857116
L 262.732259 67.199178
L 263.461332 65.411973
L 264.190406 65.497445
L 265.648553 63.122543
L 266.377626 63.376646
L 267.1067 61.555696
L 268.564847 59.929914
L 269.29392 59.047154
L 270.022994 56.354145
L 271.481141 55.618425
L 272.210214 56.937516
L 272.939288 56.494829
L 273.668361 57.364673
L 274.397435 56.701429
L 275.126508 58.769349
L 275.855582 59.836516
L 277.313729 60.834068
L 278.042802 61.980962
L 278.771876 64.15881
L 279.500949 67.045881
L 280.230023 68.256271
L 281.68817 69.262917
L 282.417243 68.780503
L 283.146317 68.535578
L 283.87539 67.362408
L 284.604464 65.827799
L 285.333537 64.722108
L 286.062611 64.73662
L 286.791684 66.543208
L 287.520758 66.403597
L 288.249831 65.540136
L 288.978905 64.936259
L 289.707978 64.185887
L 290.437051 63.77496
L 291.166125 63.593977
L 291.895198 60.418864
L 292.624272 59.366338
L 293.353345 58.60913
L 294.082419 59.118645
L 294.811492 59.842192
L 295.540566 59.270239
L 296.269639 58.473157
L 296.998713 59.272631
L 297.727786 59.656024
L 298.45686 61.974139
L 299.185933 62.934504
L 299.915007 64.857578
L 300.64408 64.399928
L 301.373154 62.862924
L 302.102227 62.14559
L 302.831301 62.149496
L 303.560374 60.34736
L 304.289448 59.209469
L 305.018521 57.171094
L 305.747595 57.798198
L 306.476668 58.870411
L 307.205742 58.239646
L 307.934815 58.839245
L 308.663889 58.137439
L 310.851109 53.286411
L 313.03833 47.769249
L 313.767403 47.82144
L 314.496477 47.670836
L 315.22555 46.574679
L 315.954624 45.740722
L 316.683697 44.719063
L 317.412771 44.818239
L 318.870918 40.251496
L 319.599991 39.235822
L 320.329065 38.955571
L 321.058138 37.946612
L 321.787212 39.310027
L 323.245359 39.922858
L 323.974432 38.734771
L 324.703506 37.046545
L 325.432579 36.268144
L 326.161653 37.511525
L 326.890726 36.517613
L 327.6198 35.958549
L 328.348873 35.871444
L 329.077947 35.93207
L 329.80702 36.512414
L 330.536094 35.801013
L 331.265167 36.072605
L 331.994241 36.560403
L 332.723314 36.546254
L 333.452388 35.705185
L 334.181461 35.567393
L 334.910535 35.630985
L 335.639608 36.304852
L 336.368682 34.977123
L 337.097755 35.473584
L 337.826829 35.750641
L 338.555902 35.197255
L 339.284976 35.121066
L 340.014049 35.959008
L 340.743123 37.91327
L 341.472196 38.708338
L 342.20127 37.879311
L 342.930343 37.625013
L 343.659417 38.752436
L 344.38849 38.842054
L 345.117564 36.318633
L 345.846637 35.016161
L 346.575711 34.775304
L 348.033858 36.786353
L 349.492005 38.339585
L 350.221078 39.871652
L 350.950152 38.12987
L 351.679225 38.503328
L 352.408299 39.294778
L 353.137372 38.79105
L 354.595519 38.79148
L 355.324593 38.323326
L 356.053666 41.234523
L 356.78274 41.542441
L 357.511813 39.990775
L 358.240887 39.806425
L 358.96996 38.440113
L 359.699034 39.082888
L 360.428107 39.990771
L 361.157181 39.607778
L 361.886254 40.293234
L 363.344401 40.204283
L 364.073475 41.264835
L 364.802548 40.735976
L 365.531622 40.66199
L 366.989769 39.680276
L 367.718842 41.245023
L 368.447916 42.191991
L 369.176989 42.826319
L 369.906063 43.754983
L 370.635136 43.492521
L 371.36421 42.023573
L 372.093283 41.603688
L 372.822357 41.038453
L 373.55143 39.885915
L 374.280504 39.380048
L 375.009577 39.020526
L 375.738651 38.955354
L 376.467724 40.225995
L 377.196798 40.046902
L 377.196798 40.046902
" clip-path="url(#p0c031434ae)" style="fill: none; stroke: #ff7f0e; stroke-width: 1.5; stroke-linecap: square"/>
   </g>
   <g id="line2d_10">
    <path d="M 316.683697 99.218125
L 316.683697 22.318125
" clip-path="url(#p0c031434ae)" style="fill: none; stroke-dasharray: 5.55,2.4; stroke-dashoffset: 0; stroke: #000000; stroke-width: 1.5"/>
   </g>
   <g id="patch_3">
    <path d="M 34.240625 99.218125
L 34.240625 22.318125
" style="fill: none; stroke: #000000; stroke-width: 0.8; stroke-linejoin: miter; stroke-linecap: square"/>
   </g>
   <g id="patch_4">
    <path d="M 393.528044 99.218125
L 393.528044 22.318125
" style="fill: none; stroke: #000000; stroke-width: 0.8; stroke-linejoin: miter; stroke-linecap: square"/>
   </g>
   <g id="patch_5">
    <path d="M 34.240625 99.218125
L 393.528044 99.218125
" style="fill: none; stroke: #000000; stroke-width: 0.8; stroke-linejoin: miter; stroke-linecap: square"/>
   </g>
   <g id="patch_6">
    <path d="M 34.240625 22.318125
L 393.528044 22.318125
" style="fill: none; stroke: #000000; stroke-width: 0.8; stroke-linejoin: miter; stroke-linecap: square"/>
   </g>
   <g id="text_10">
    <!-- Synthetic control for articles NOT mentioning protest -->
    <g transform="translate(54.804647 16.318125) scale(0.12 -0.12)">
     <defs>
      <path id="DejaVuSans-53" d="M 3425 4513
L 3425 3897
Q 3066 4069 2747 4153
Q 2428 4238 2131 4238
Q 1616 4238 1336 4038
Q 1056 3838 1056 3469
Q 1056 3159 1242 3001
Q 1428 2844 1947 2747
L 2328 2669
Q 3034 2534 3370 2195
Q 3706 1856 3706 1288
Q 3706 609 3251 259
Q 2797 -91 1919 -91
Q 1588 -91 1214 -16
Q 841 59 441 206
L 441 856
Q 825 641 1194 531
Q 1563 422 1919 422
Q 2459 422 2753 634
Q 3047 847 3047 1241
Q 3047 1584 2836 1778
Q 2625 1972 2144 2069
L 1759 2144
Q 1053 2284 737 2584
Q 422 2884 422 3419
Q 422 4038 858 4394
Q 1294 4750 2059 4750
Q 2388 4750 2728 4690
Q 3069 4631 3425 4513
z
" transform="scale(0.015625)"/>
      <path id="DejaVuSans-68" d="M 3513 2113
L 3513 0
L 2938 0
L 2938 2094
Q 2938 2591 2744 2837
Q 2550 3084 2163 3084
Q 1697 3084 1428 2787
Q 1159 2491 1159 1978
L 1159 0
L 581 0
L 581 4863
L 1159 4863
L 1159 2956
Q 1366 3272 1645 3428
Q 1925 3584 2291 3584
Q 2894 3584 3203 3211
Q 3513 2838 3513 2113
z
" transform="scale(0.015625)"/>
      <path id="DejaVuSans-66" d="M 2375 4863
L 2375 4384
L 1825 4384
Q 1516 4384 1395 4259
Q 1275 4134 1275 3809
L 1275 3500
L 2222 3500
L 2222 3053
L 1275 3053
L 1275 0
L 697 0
L 697 3053
L 147 3053
L 147 3500
L 697 3500
L 697 3744
Q 697 4328 969 4595
Q 1241 4863 1831 4863
L 2375 4863
z
" transform="scale(0.015625)"/>
      <path id="DejaVuSans-4e" d="M 628 4666
L 1478 4666
L 3547 763
L 3547 4666
L 4159 4666
L 4159 0
L 3309 0
L 1241 3903
L 1241 0
L 628 0
L 628 4666
z
" transform="scale(0.015625)"/>
      <path id="DejaVuSans-4f" d="M 2522 4238
Q 1834 4238 1429 3725
Q 1025 3213 1025 2328
Q 1025 1447 1429 934
Q 1834 422 2522 422
Q 3209 422 3611 934
Q 4013 1447 4013 2328
Q 4013 3213 3611 3725
Q 3209 4238 2522 4238
z
M 2522 4750
Q 3503 4750 4090 4092
Q 4678 3434 4678 2328
Q 4678 1225 4090 567
Q 3503 -91 2522 -91
Q 1538 -91 948 565
Q 359 1222 359 2328
Q 359 3434 948 4092
Q 1538 4750 2522 4750
z
" transform="scale(0.015625)"/>
      <path id="DejaVuSans-54" d="M -19 4666
L 3928 4666
L 3928 4134
L 2272 4134
L 2272 0
L 1638 0
L 1638 4134
L -19 4134
L -19 4666
z
" transform="scale(0.015625)"/>
      <path id="DejaVuSans-6d" d="M 3328 2828
Q 3544 3216 3844 3400
Q 4144 3584 4550 3584
Q 5097 3584 5394 3201
Q 5691 2819 5691 2113
L 5691 0
L 5113 0
L 5113 2094
Q 5113 2597 4934 2840
Q 4756 3084 4391 3084
Q 3944 3084 3684 2787
Q 3425 2491 3425 1978
L 3425 0
L 2847 0
L 2847 2094
Q 2847 2600 2669 2842
Q 2491 3084 2119 3084
Q 1678 3084 1418 2786
Q 1159 2488 1159 1978
L 1159 0
L 581 0
L 581 3500
L 1159 3500
L 1159 2956
Q 1356 3278 1631 3431
Q 1906 3584 2284 3584
Q 2666 3584 2933 3390
Q 3200 3197 3328 2828
z
" transform="scale(0.015625)"/>
      <path id="DejaVuSans-67" d="M 2906 1791
Q 2906 2416 2648 2759
Q 2391 3103 1925 3103
Q 1463 3103 1205 2759
Q 947 2416 947 1791
Q 947 1169 1205 825
Q 1463 481 1925 481
Q 2391 481 2648 825
Q 2906 1169 2906 1791
z
M 3481 434
Q 3481 -459 3084 -895
Q 2688 -1331 1869 -1331
Q 1566 -1331 1297 -1286
Q 1028 -1241 775 -1147
L 775 -588
Q 1028 -725 1275 -790
Q 1522 -856 1778 -856
Q 2344 -856 2625 -561
Q 2906 -266 2906 331
L 2906 616
Q 2728 306 2450 153
Q 2172 0 1784 0
Q 1141 0 747 490
Q 353 981 353 1791
Q 353 2603 747 3093
Q 1141 3584 1784 3584
Q 2172 3584 2450 3431
Q 2728 3278 2906 2969
L 2906 3500
L 3481 3500
L 3481 434
z
" transform="scale(0.015625)"/>
     </defs>
     <use xlink:href="#DejaVuSans-53"/>
     <use xlink:href="#DejaVuSans-79" x="63.476562"/>
     <use xlink:href="#DejaVuSans-6e" x="122.65625"/>
     <use xlink:href="#DejaVuSans-74" x="186.035156"/>
     <use xlink:href="#DejaVuSans-68" x="225.244141"/>
     <use xlink:href="#DejaVuSans-65" x="288.623047"/>
     <use xlink:href="#DejaVuSans-74" x="350.146484"/>
     <use xlink:href="#DejaVuSans-69" x="389.355469"/>
     <use xlink:href="#DejaVuSans-63" x="417.138672"/>
     <use xlink:href="#DejaVuSans-20" x="472.119141"/>
     <use xlink:href="#DejaVuSans-63" x="503.90625"/>
     <use xlink:href="#DejaVuSans-6f" x="558.886719"/>
     <use xlink:href="#DejaVuSans-6e" x="620.068359"/>
     <use xlink:href="#DejaVuSans-74" x="683.447266"/>
     <use xlink:href="#DejaVuSans-72" x="722.65625"/>
     <use xlink:href="#DejaVuSans-6f" x="761.519531"/>
     <use xlink:href="#DejaVuSans-6c" x="822.701172"/>
     <use xlink:href="#DejaVuSans-20" x="850.484375"/>
     <use xlink:href="#DejaVuSans-66" x="882.271484"/>
     <use xlink:href="#DejaVuSans-6f" x="917.476562"/>
     <use xlink:href="#DejaVuSans-72" x="978.658203"/>
     <use xlink:href="#DejaVuSans-20" x="1019.771484"/>
     <use xlink:href="#DejaVuSans-61" x="1051.558594"/>
     <use xlink:href="#DejaVuSans-72" x="1112.837891"/>
     <use xlink:href="#DejaVuSans-74" x="1153.951172"/>
     <use xlink:href="#DejaVuSans-69" x="1193.160156"/>
     <use xlink:href="#DejaVuSans-63" x="1220.943359"/>
     <use xlink:href="#DejaVuSans-6c" x="1275.923828"/>
     <use xlink:href="#DejaVuSans-65" x="1303.707031"/>
     <use xlink:href="#DejaVuSans-73" x="1365.230469"/>
     <use xlink:href="#DejaVuSans-20" x="1417.330078"/>
     <use xlink:href="#DejaVuSans-4e" x="1449.117188"/>
     <use xlink:href="#DejaVuSans-4f" x="1523.921875"/>
     <use xlink:href="#DejaVuSans-54" x="1602.632812"/>
     <use xlink:href="#DejaVuSans-20" x="1663.716797"/>
     <use xlink:href="#DejaVuSans-6d" x="1695.503906"/>
     <use xlink:href="#DejaVuSans-65" x="1792.916016"/>
     <use xlink:href="#DejaVuSans-6e" x="1854.439453"/>
     <use xlink:href="#DejaVuSans-74" x="1917.818359"/>
     <use xlink:href="#DejaVuSans-69" x="1957.027344"/>
     <use xlink:href="#DejaVuSans-6f" x="1984.810547"/>
     <use xlink:href="#DejaVuSans-6e" x="2045.992188"/>
     <use xlink:href="#DejaVuSans-69" x="2109.371094"/>
     <use xlink:href="#DejaVuSans-6e" x="2137.154297"/>
     <use xlink:href="#DejaVuSans-67" x="2200.533203"/>
     <use xlink:href="#DejaVuSans-20" x="2264.009766"/>
     <use xlink:href="#DejaVuSans-70" x="2295.796875"/>
     <use xlink:href="#DejaVuSans-72" x="2359.273438"/>
     <use xlink:href="#DejaVuSans-6f" x="2398.136719"/>
     <use xlink:href="#DejaVuSans-74" x="2459.318359"/>
     <use xlink:href="#DejaVuSans-65" x="2498.527344"/>
     <use xlink:href="#DejaVuSans-73" x="2560.050781"/>
     <use xlink:href="#DejaVuSans-74" x="2612.150391"/>
    </g>
   </g>
   <g id="legend_1">
    <g id="patch_7">
     <path d="M 41.240625 59.674375
L 120.453125 59.674375
Q 122.453125 59.674375 122.453125 57.674375
L 122.453125 29.318125
Q 122.453125 27.318125 120.453125 27.318125
L 41.240625 27.318125
Q 39.240625 27.318125 39.240625 29.318125
L 39.240625 57.674375
Q 39.240625 59.674375 41.240625 59.674375
z
" style="fill: #ffffff; opacity: 0.8; stroke: #cccccc; stroke-linejoin: miter"/>
    </g>
    <g id="line2d_11">
     <path d="M 43.240625 35.416562
L 53.240625 35.416562
L 63.240625 35.416562
" style="fill: none; stroke: #1f77b4; stroke-width: 1.5; stroke-linecap: square"/>
    </g>
    <g id="text_11">
     <!-- Actual -->
     <g transform="translate(71.240625 38.916562) scale(0.1 -0.1)">
      <defs>
       <path id="DejaVuSans-41" d="M 2188 4044
L 1331 1722
L 3047 1722
L 2188 4044
z
M 1831 4666
L 2547 4666
L 4325 0
L 3669 0
L 3244 1197
L 1141 1197
L 716 0
L 50 0
L 1831 4666
z
" transform="scale(0.015625)"/>
       <path id="DejaVuSans-75" d="M 544 1381
L 544 3500
L 1119 3500
L 1119 1403
Q 1119 906 1312 657
Q 1506 409 1894 409
Q 2359 409 2629 706
Q 2900 1003 2900 1516
L 2900 3500
L 3475 3500
L 3475 0
L 2900 0
L 2900 538
Q 2691 219 2414 64
Q 2138 -91 1772 -91
Q 1169 -91 856 284
Q 544 659 544 1381
z
M 1991 3584
L 1991 3584
z
" transform="scale(0.015625)"/>
      </defs>
      <use xlink:href="#DejaVuSans-41"/>
      <use xlink:href="#DejaVuSans-63" x="66.658203"/>
      <use xlink:href="#DejaVuSans-74" x="121.638672"/>
      <use xlink:href="#DejaVuSans-75" x="160.847656"/>
      <use xlink:href="#DejaVuSans-61" x="224.226562"/>
      <use xlink:href="#DejaVuSans-6c" x="285.505859"/>
     </g>
    </g>
    <g id="line2d_12">
     <path d="M 43.240625 50.094687
L 53.240625 50.094687
L 63.240625 50.094687
" style="fill: none; stroke: #ff7f0e; stroke-width: 1.5; stroke-linecap: square"/>
    </g>
    <g id="text_12">
     <!-- Synthetic -->
     <g transform="translate(71.240625 53.594687) scale(0.1 -0.1)">
      <use xlink:href="#DejaVuSans-53"/>
      <use xlink:href="#DejaVuSans-79" x="63.476562"/>
      <use xlink:href="#DejaVuSans-6e" x="122.65625"/>
      <use xlink:href="#DejaVuSans-74" x="186.035156"/>
      <use xlink:href="#DejaVuSans-68" x="225.244141"/>
      <use xlink:href="#DejaVuSans-65" x="288.623047"/>
      <use xlink:href="#DejaVuSans-74" x="350.146484"/>
      <use xlink:href="#DejaVuSans-69" x="389.355469"/>
      <use xlink:href="#DejaVuSans-63" x="417.138672"/>
     </g>
    </g>
   </g>
  </g>
 </g>
 <defs>
  <clipPath id="p0c031434ae">
   <rect x="34.240625" y="22.318125" width="359.287419" height="76.9"/>
  </clipPath>
 </defs>
</svg>
